<?xml version="1.0" encoding="UTF-8" standalone="no"?>
<!-- Generator: Adobe Illustrator 16.0.0, SVG Export Plug-In . SVG Version: 6.00 Build 0)  -->

<svg
   version="1.1"
   x="0px"
   y="0px"
   width="88.5px"
   height="32px"
   viewBox="0 0 88.5 32"
   enable-background="new 0 0 88.5 32"
   xml:space="preserve"
   id="svg1086"
   sodipodi:docname="ak47.svg"
   inkscape:version="1.1.1 (3bf5ae0d25, 2021-09-20)"
   xmlns:inkscape="http://www.inkscape.org/namespaces/inkscape"
   xmlns:sodipodi="http://sodipodi.sourceforge.net/DTD/sodipodi-0.dtd"
   xmlns="http://www.w3.org/2000/svg"
   xmlns:svg="http://www.w3.org/2000/svg"><defs
   id="defs1090" /><sodipodi:namedview
   id="namedview1088"
   pagecolor="#505050"
   bordercolor="#eeeeee"
   borderopacity="1"
   inkscape:pageshadow="0"
   inkscape:pageopacity="0"
   inkscape:pagecheckerboard="0"
   showgrid="false"
   inkscape:zoom="12.59887"
   inkscape:cx="43.773767"
   inkscape:cy="20.478027"
   inkscape:window-width="1440"
   inkscape:window-height="848"
   inkscape:window-x="1358"
   inkscape:window-y="-8"
   inkscape:window-maximized="1"
   inkscape:current-layer="svg1086" />

<g
   id="guides">
</g>
<path
   style="fill:#000000"
   id="path1182"
   d="" /><path
   style="fill:#000000"
   id="path1144"
   d="" /><path
   style="fill:#000000"
   id="path1124"
   d="" /><path
   style="fill:#000000"
   id="path1104"
   d="" /><path
   style="fill:#ffffff;stroke-width:0.046366"
   d="m 49.646887,31.084004 c 0.01165,-0.01865 0.742344,-1.326438 1.62376,-2.906176 0.881417,-1.579735 1.675181,-2.986862 1.763913,-3.126943 0.08874,-0.140083 0.161338,-0.265609 0.161338,-0.278948 0,-0.01333 -0.187142,-0.163079 -0.415867,-0.332756 -1.423523,-1.05601 -2.567628,-2.189845 -3.578574,-3.546442 -1.714984,-2.301354 -2.941734,-4.71884 -3.629908,-7.153261 -0.298795,-1.05698 -0.531002,-2.014544 -0.496492,-2.047391 0.01307,-0.01243 1.241401,-0.02372 2.729635,-0.02508 l 2.705883,-0.0025 0.30893,0.222178 c 0.389098,0.279831 0.573789,0.369357 0.76199,0.369357 0.165948,0 1.489668,-0.590117 2.720123,-1.212636 l 0.464095,-0.234783 h 5.63135 5.631345 v -0.384476 -0.384475 h 3.516098 3.51609 l 0.09794,0.182705 c 0.246153,0.45919 0.74949,0.477789 0.962652,0.03557 l 0.105219,-0.218276 h 5.143054 5.143055 l 0.175427,0.113297 c 0.210874,0.136193 0.587492,0.248562 0.833087,0.248562 0.225105,0 0.343261,-0.138984 0.567197,-0.6671758 l 0.158207,-0.373167 h 0.74532 0.74532 l 0.07457,-0.2827016 C 87.989842,8.4029341 87.937791,7.7374265 87.677488,7.3630757 L 87.557166,7.1900401 H 86.797394 86.037627 L 86.036813,5.0980469 C 86.036405,3.5300979 86.021421,2.9777246 85.977403,2.8929704 85.945113,2.830778 85.817135,2.7319483 85.693006,2.673351 85.474135,2.5700292 85.45128,2.5683059 84.936867,2.6163182 c -0.346653,0.032352 -0.558166,0.073389 -0.610466,0.1184328 -0.04401,0.037906 -0.139663,0.1811058 -0.212559,0.3182154 -0.126523,0.2380018 -0.129944,0.2610168 -0.07547,0.5082777 0.05492,0.249301 0.05053,0.2767569 -0.117358,0.7339294 -0.214823,0.5849792 -0.597749,1.4576979 -0.987254,2.2500445 l -0.294491,0.599067 -0.855503,1.364e-4 c -0.470521,9e-5 -1.522223,-0.021129 -2.337116,-0.04713 C 78.409604,7.0641984 77.791634,7.0643374 77.387176,7.09778 76.897667,7.138231 76.786295,7.135132 76.658746,7.077502 76.414174,6.9670072 75.960046,6.5874623 75.628916,6.2168065 75.257864,5.8014529 74.551374,4.8702123 74.335183,4.5114942 L 74.179321,4.2528855 72.729722,4.2801715 C 69.633527,4.3384545 65.885711,4.0475907 65.885711,3.74902 c 0,-0.1046892 -0.276933,-0.2043182 -0.737359,-0.2652626 -0.840494,-0.1112576 -3.193616,-0.1522259 -9.623702,-0.1675592 -3.672717,-0.00875 -6.827372,-0.020278 -7.010353,-0.025629 -0.47432,-0.013845 -0.71496,0.066353 -0.992911,0.3308771 l -0.23263,0.221396 -10.318632,4.886e-4 -10.318629,4.886e-4 -0.237638,0.1305021 c -0.509986,0.2800719 -1.23399,0.9654286 -2.680413,2.5373526 l -0.395398,0.4297064 -0.316874,0.028414 C 22.718977,6.9968937 21.810661,7.2688579 19.650837,7.9789313 18.751643,8.2745527 18.274105,8.3514297 17.821216,8.2734732 17.448185,8.2092652 16.948815,8.0086663 16.554243,7.764535 l -0.306515,-0.1896556 -0.715335,0.00999 C 15.138962,7.5903794 14.00434,7.6669324 13.01101,7.7550118 12.01768,7.8430928 10.691652,7.9560591 10.064284,8.0060454 9.4369157,8.0560348 8.410318,8.148342 7.7829498,8.2111753 7.0921407,8.2803629 6.0987008,8.3414392 5.2639771,8.3660411 2.9771214,8.4334395 1.8205269,8.604062 1.0437388,8.9886081 0.70149614,9.1580442 0.37092365,9.4675682 0.33355951,9.6535912 c -0.0121751,0.06071 0.17738602,2.6506108 0.42128721,5.7553258 0.24390119,3.104715 0.44390278,5.66247 0.44446468,5.683896 0.00244,0.07511 0.3336672,-0.02179 1.0079645,-0.294452 0.3741749,-0.1513 1.5785862,-0.606186 2.6764754,-1.010856 1.0978934,-0.404671 2.241197,-0.829772 2.5406762,-0.944671 0.2994791,-0.114898 0.5588211,-0.208907 0.5763182,-0.208907 0.017509,0 -0.017428,0.129072 -0.077591,0.286825 -0.060163,0.157757 -0.1301963,0.39577 -0.1556256,0.528924 -0.044689,0.233988 -0.041623,0.246196 0.091529,0.364573 0.075771,0.06736 0.1377661,0.142664 0.1377661,0.167339 0,0.06907 0.1356649,0.10486 0.4994277,0.131768 0.3273557,0.02423 0.3356787,0.02211 0.4842273,-0.122491 0.1739085,-0.169287 0.4219387,-0.623318 0.8153779,-1.492598 l 0.2763549,-0.610598 0.37626,-0.151233 c 0.20694,-0.08313 2.076564,-0.799337 4.154716,-1.591523 5.864314,-2.235452 8.904849,-3.477533 9.121807,-3.726324 0.04051,-0.04647 0.139317,-0.07191 0.279266,-0.07191 0.221049,0 0.532243,0.08253 0.532243,0.141149 0,0.01789 0.109515,0.06713 0.24336,0.109436 0.272417,0.08611 0.612143,0.374246 0.612143,0.519185 0,0.09616 -0.360253,0.80601 -0.620715,1.223089 -0.08455,0.135377 -0.463623,0.816066 -0.842403,1.512644 -1.766584,3.248796 -1.751497,3.219078 -1.888799,3.720734 -0.0626,0.228751 -0.05869,0.270368 0.07143,0.760729 0.154628,0.582684 0.302321,0.919873 0.500727,1.143161 0.242227,0.272611 0.871432,0.721443 1.150841,0.820936 0.558658,0.198924 1.387978,0.156737 2.298196,-0.116915 0.556695,-0.167366 0.596409,-0.199658 0.710472,-0.57774 0.437445,-1.449996 0.860332,-2.510835 1.374403,-3.447781 0.799913,-1.457924 1.470749,-2.286172 2.426381,-2.995736 0.222189,-0.164978 0.41886,-0.320297 0.437045,-0.345152 0.03877,-0.05299 0.0296,-0.06435 0.18064,0.223582 0.149012,0.284047 0.442616,0.592857 0.667468,0.702023 0.349471,0.169677 0.919058,0.248046 1.780388,0.244965 1.062768,-0.0038 1.772315,-0.08129 2.126753,-0.232255 0.277289,-0.118103 0.606669,-0.40885 0.711687,-0.628202 0.04799,-0.10024 0.07655,-0.112688 0.200933,-0.08757 0.07975,0.01611 0.257278,0.04103 0.394515,0.05541 l 0.24952,0.02614 v 0.444901 c 0,0.361619 0.01738,0.472099 0.09284,0.590188 l 0.09284,0.145287 0.04516,-0.113039 c 0.02484,-0.06217 0.06039,-0.336712 0.07901,-0.610088 l 0.03385,-0.497052 0.289713,-0.178663 c 0.430034,-0.265195 0.507642,-0.299307 0.531434,-0.233583 0.01092,0.03021 0.07573,0.268641 0.143998,0.529857 0.602854,2.306746 1.468693,4.49647 2.477112,6.264671 2.132387,3.739015 4.685991,6.812728 7.311795,8.801024 1.192208,0.902756 1.181625,0.895666 1.227536,0.822147 z M 48.974068,30.02347 c -1.164201,-0.894935 -2.821563,-2.413467 -3.569456,-3.270458 -1.525049,-1.747504 -3.015131,-3.905506 -4.038569,-5.848815 -1.216871,-2.310607 -2.167731,-4.935336 -2.690528,-7.426862 -0.04437,-0.211462 -0.08583,-0.38983 -0.09213,-0.396377 -0.0063,-0.0066 -0.08743,0.0183 -0.180279,0.05523 -0.161685,0.06429 -0.170186,0.07913 -0.201179,0.351143 -0.04939,0.433375 -0.105932,0.585457 -0.28579,0.768649 -0.226275,0.230468 -0.34366,0.294756 -0.604027,0.330819 -0.293223,0.04061 -0.496975,-0.04327 -0.562241,-0.231475 -0.08233,-0.237421 -0.140444,-0.870554 -0.14082,-1.534285 -4.88e-4,-0.584489 -0.0077,-0.638066 -0.09542,-0.690175 -0.06065,-0.03604 -0.09506,-0.105484 -0.09506,-0.19181 0,-0.10516 0.02118,-0.135314 0.09506,-0.135314 0.07907,0 0.09506,-0.03015 0.09506,-0.179338 0,-0.130515 0.02483,-0.191983 0.0912,-0.225786 0.10774,-0.05488 6.17332,-0.06526 6.263966,-0.01073 0.03176,0.01911 0.13417,0.420709 0.227609,0.892464 0.777383,3.924814 2.274094,7.41585 4.343182,10.130357 0.956793,1.255246 2.379688,2.703782 3.486857,3.549696 0.307151,0.234669 0.558056,0.45812 0.557572,0.496559 -0.0033,0.249468 -1.472215,2.896904 -1.607493,2.896904 -0.144237,0 -2.091879,-1.710999 -2.897745,-2.545654 -2.03477,-2.107468 -3.921822,-4.800209 -5.023926,-7.168923 -0.07258,-0.156001 -0.140339,-0.275675 -0.150568,-0.26594 -0.052,0.04949 0.739538,1.601707 1.282731,2.515451 1.168855,1.966209 2.396477,3.577059 3.946388,5.178333 0.47476,0.49049 1.895196,1.738768 2.440962,2.145109 0.188153,0.140088 0.337866,0.275058 0.332694,0.299935 -0.02659,0.127993 -0.445967,0.791482 -0.500295,0.791521 -0.03473,2.4e-5 -0.227218,-0.126079 -0.427749,-0.280233 z m 0.488201,-0.09164 c 0.04068,-0.05529 0.07399,-0.119841 0.07399,-0.143444 0,-0.02359 0.03205,-0.07664 0.07126,-0.117855 0.06482,-0.06816 0.02081,-0.115518 -0.486606,-0.523733 -0.813643,-0.654554 -2.722545,-2.48526 -3.27424,-3.140114 -1.924706,-2.284598 -3.323585,-4.583044 -4.55621,-7.486166 -0.766544,-1.805389 -1.263165,-3.680971 -1.568877,-5.925212 -0.06439,-0.472676 -0.117426,-0.884854 -0.11786,-0.915951 -7.32e-4,-0.04389 -0.303879,-0.05654 -1.35574,-0.05654 h -1.354962 l 0.03061,0.247851 c 0.02535,0.20522 0.01723,0.25273 -0.04711,0.276233 -0.06616,0.02416 -0.07772,0.111786 -0.07772,0.588947 0,0.30831 0.01294,0.560565 0.02878,0.560565 0.01584,0 0.09233,-0.05089 0.169999,-0.113081 0.109327,-0.08755 0.194739,-0.11308 0.378326,-0.11308 0.281678,0 0.394765,0.0499 0.489474,0.21599 l 0.07028,0.123251 0.002,-0.167705 0.002,-0.167705 0.325937,-0.09238 c 0.420779,-0.119259 0.5214,-0.117609 0.572753,0.0094 0.02264,0.05598 0.120873,0.468153 0.218304,0.915954 0.36349,1.670556 0.946293,3.459745 1.622373,4.980635 0.408091,0.918037 1.490776,2.96208 2.033782,3.83966 1.25996,2.036306 2.679415,3.814128 4.208718,5.271299 0.973248,0.927332 2.293249,2.033718 2.426389,2.033718 0.02231,0 0.07386,-0.04524 0.114552,-0.100528 z m 0.783841,-1.326518 c 0.163489,-0.263946 0.393138,-0.676743 0.510333,-0.917321 0.271606,-0.557567 0.427065,-0.853101 0.542712,-1.031735 l 0.09193,-0.141994 -0.511546,-0.403274 c -3.782879,-2.982212 -6.487825,-7.509557 -7.77793,-13.018124 -0.09322,-0.398043 -0.207421,-0.906906 -0.25378,-1.130805 l -0.08428,-0.407092 h -1.354377 -1.354375 l 0.01494,0.180928 c 0.07993,0.968546 0.348638,2.465381 0.649587,3.618584 0.772769,2.961175 2.021332,5.565528 3.935817,8.209661 1.172731,1.61968 2.027322,2.623588 3.07507,3.612357 0.637287,0.601413 2.092563,1.866845 2.180492,1.896042 0.02097,0.007 0.171934,-0.203283 0.335418,-0.467227 z m -8.385131,-9.372169 c -0.01841,-0.04354 -0.0773,-0.186428 -0.130864,-0.317537 -0.05357,-0.13111 -0.105919,-0.230278 -0.116327,-0.220373 -0.0235,0.02235 0.224063,0.617066 0.256862,0.617066 0.01307,0 0.0087,-0.03562 -0.0097,-0.07916 z m -4.459651,-4.836496 c 0.05691,-0.01106 0.129043,-0.04941 0.160281,-0.08523 0.04806,-0.05511 0.02262,-0.06513 -0.165253,-0.06513 -0.122132,0 -0.284032,-0.0305 -0.359781,-0.06778 l -0.137726,-0.06778 0.04968,0.135631 c 0.02732,0.0746 0.07432,0.135905 0.104438,0.136247 0.03012,2.44e-4 0.09754,0.0082 0.149816,0.01738 0.05228,0.0092 0.141624,0.0077 0.198544,-0.0033 z m 0.195939,-0.385572 c 0.09745,-0.09274 0.06309,-0.123953 -0.08307,-0.07546 -0.211903,0.0703 -0.402057,-0.03077 -0.421595,-0.224078 -0.0083,-0.0823 0.01034,-0.178846 0.04146,-0.214537 0.06658,-0.07635 0.343027,-0.08571 0.479423,-0.01623 0.08877,0.04521 0.09141,0.04121 0.03729,-0.05654 -0.03203,-0.05786 -0.08177,-0.120148 -0.110536,-0.138426 -0.09877,-0.06277 -0.3508,-0.03454 -0.462898,0.05185 -0.09177,0.07072 -0.112203,0.129112 -0.112203,0.32062 0,0.191511 0.02043,0.249903 0.112203,0.320624 0.126486,0.09748 0.431476,0.116358 0.519918,0.03219 z m -0.180606,-0.352813 c 0,-0.02488 -0.0214,-0.04523 -0.04753,-0.04523 -0.02614,0 -0.04753,0.02035 -0.04753,0.04523 0,0.02488 0.0214,0.04523 0.04753,0.04523 0.02614,0 0.04753,-0.02035 0.04753,-0.04523 z M 51.46847,26.086588 c -0.08246,-0.05556 -0.438654,-0.338047 -0.791548,-0.627746 -2.088984,-1.714896 -3.67512,-3.790432 -5.230712,-6.844642 -0.786727,-1.544648 -1.32902,-2.958652 -1.779247,-4.639312 -0.283387,-1.05786 -0.600286,-2.544595 -0.552249,-2.590875 0.02011,-0.01938 0.332906,-0.02957 0.695072,-0.02262 l 0.658478,0.01263 0.175847,0.814182 c 0.512483,2.372808 1.206814,4.30395 2.171119,6.03851 1.733129,3.117496 3.002947,4.620981 5.572693,6.598155 l 0.118819,0.09142 -0.147062,0.26249 c -0.301201,0.537603 -0.615376,1.004517 -0.677335,1.006635 -0.03518,0.0012 -0.131418,-0.04327 -0.213875,-0.09884 z m 0.324551,-0.36652 c 0.07559,-0.128457 0.197591,-0.312943 0.271114,-0.409967 0.07352,-0.09703 0.133677,-0.210048 0.133677,-0.25116 0,-0.04112 -0.197831,-0.226008 -0.439631,-0.410872 -0.241796,-0.184864 -0.837232,-0.713008 -1.323186,-1.173656 -1.374117,-1.302557 -2.03365,-2.137595 -3.140453,-3.976158 -1.464303,-2.432417 -2.185875,-4.287611 -2.904797,-7.468355 l -0.107353,-0.474938 -0.462377,-0.01294 c -0.399596,-0.01119 -0.462377,-0.003 -0.462377,0.06012 0,0.155628 0.402308,1.846087 0.618508,2.598918 0.557481,1.941193 1.150222,3.376441 2.157575,5.224328 0.942012,1.72803 2.004793,3.215814 3.198808,4.477997 0.360473,0.381054 1.971985,1.816231 2.23998,1.994874 0.07295,0.04863 0.09981,0.02692 0.220512,-0.178183 z M 23.894823,21.685054 c -0.520724,-0.129082 -0.770493,-0.325805 -0.966447,-0.761196 -0.05674,-0.126074 -0.05161,-0.124428 0.174915,0.05607 0.442921,0.352924 1.004116,0.546806 1.789952,0.618392 0.421898,0.03843 0.671846,-0.02444 0.869783,-0.218801 0.124329,-0.122074 0.175664,-0.236773 0.26863,-0.600203 0.33462,-1.308094 0.95413,-2.679446 1.641815,-3.634316 0.397072,-0.551342 1.31534,-1.610341 1.904069,-2.195876 0.27611,-0.274609 0.56293,-0.59825 0.637369,-0.719198 0.122419,-0.198883 0.129915,-0.234246 0.07837,-0.369891 -0.03135,-0.08249 -0.06983,-0.253229 -0.08554,-0.379421 -0.01568,-0.12619 -0.04696,-0.229436 -0.06946,-0.229436 -0.02252,0 -0.04091,-0.02577 -0.04091,-0.05726 0,-0.06609 -0.695064,-0.06042 -1.624122,0.01326 -0.305111,0.0242 -0.830257,0.04399 -1.166978,0.04399 -0.566908,0 -0.630935,0.0089 -0.864791,0.119774 -0.196968,0.09341 -0.292602,0.178743 -0.434517,0.387714 -0.100084,0.147366 -0.207274,0.34281 -0.238205,0.434321 -0.03095,0.09151 -0.149985,0.301804 -0.264558,0.467321 -0.219876,0.317638 -2.432904,4.593586 -2.647849,5.116104 -0.06918,0.168186 -0.126259,0.371731 -0.126833,0.452323 l -8.15e-4,0.146527 -0.08648,-0.180927 c -0.04756,-0.09951 -0.12195,-0.208866 -0.1653,-0.243008 -0.09234,-0.07272 -0.09956,-0.155784 -0.02504,-0.28829 0.04945,-0.08794 0.05849,-0.08952 0.112206,-0.01959 0.05077,0.06607 0.07207,0.04195 0.162552,-0.184084 0.122924,-0.307087 1.191422,-2.270578 2.350215,-4.318805 0.723153,-1.278199 0.829736,-1.493112 0.857347,-1.728737 0.01735,-0.147992 0.03714,-0.27442 0.04401,-0.280952 0.0331,-0.0315 4.52324,-0.191542 4.551487,-0.162221 0.01788,0.01857 0.05537,0.247487 0.08328,0.508704 0.02793,0.261217 0.06466,0.529777 0.08166,0.596798 0.03376,0.133098 -0.0043,0.172061 -0.882195,0.904311 -0.516908,0.431132 -0.904476,0.86701 -1.40017,1.574687 -0.897407,1.281182 -1.634139,2.819206 -2.190065,4.572041 l -0.123079,0.388055 -0.412797,0.09693 c -0.584613,0.137275 -0.557245,0.133663 -1.056319,0.139439 -0.273162,0.0032 -0.56534,-0.0225 -0.734953,-0.06454 z m 0.174336,-0.612667 c -0.191756,-0.04662 -0.469356,-0.143045 -0.616895,-0.21427 -0.238982,-0.115369 -0.275679,-0.152255 -0.336298,-0.338035 -0.06431,-0.197082 -0.06092,-0.229844 0.06181,-0.596513 0.07461,-0.22288 0.599097,-1.287199 1.232569,-2.501153 0.606488,-1.162245 1.239113,-2.398137 1.40583,-2.746426 0.166718,-0.348289 0.348037,-0.681735 0.402931,-0.740993 0.166595,-0.179833 0.445141,-0.27457 0.812727,-0.276423 0.182981,-9.77e-4 0.824605,-0.04177 1.425831,-0.09077 1.538291,-0.125379 1.415986,-0.136518 1.507999,0.137324 0.07429,0.221087 0.07359,0.230402 -0.02366,0.316626 -0.05511,0.04886 -0.125403,0.08884 -0.156211,0.08884 -0.03083,0 -0.109605,0.07633 -0.175106,0.169621 -0.06551,0.09329 -0.320629,0.39352 -0.566941,0.667177 -1.703187,1.892255 -2.620213,3.5411 -3.220796,5.791129 -0.02675,0.100281 -0.0794,0.222408 -0.116963,0.271395 -0.157083,0.204855 -0.929946,0.234353 -1.636831,0.06248 z m 2.439867,-3.689611 c 0.331847,-0.07026 0.462891,-0.261563 0.460403,-0.672086 -0.0029,-0.505314 -0.200869,-0.745579 -0.613813,-0.745579 -0.364598,0 -0.549826,0.250049 -0.552864,0.746332 -0.002,0.338238 0.05237,0.482133 0.220785,0.583581 0.124312,0.07488 0.35195,0.116027 0.485489,0.08775 z m -0.493295,-0.562035 c -0.06145,-0.104599 -0.05913,-0.135462 0.02219,-0.29401 0.08167,-0.159226 0.111034,-0.178542 0.290252,-0.190933 0.262482,-0.01816 0.39471,0.09936 0.39471,0.350782 0,0.222191 -0.08413,0.276974 -0.40243,0.262075 -0.198251,-0.0093 -0.247078,-0.02977 -0.304736,-0.127914 z M 1.7034505,20.160406 C 1.6915197,20.104431 1.6693683,19.834733 1.6541677,19.561079 1.5323271,17.368856 1.4063453,15.659374 1.224081,13.726112 1.2099514,13.576845 1.1673426,12.966211 1.1292252,12.369142 1.0911118,11.772076 1.0341209,10.942878 1.0025592,10.526477 L 0.94515708,9.7693862 1.056883,9.6562172 C 1.3924274,9.3162812 2.6094617,9.1195695 4.8601015,9.0414981 5.8087785,9.0085887 6.7539822,8.9425735 7.7830597,8.8373509 9.7983657,8.6312874 12.494684,8.3844043 13.438874,8.3194919 c 1.040173,-0.07151 2.455043,-0.078203 2.597357,-0.012285 0.521787,0.2416893 1.366976,0.5599849 1.605591,0.6046631 0.698522,0.1307871 1.679502,-0.01689 2.597973,-0.3910979 0.446142,-0.1817682 2.152819,-0.707085 2.556048,-0.7867529 0.151223,-0.029876 0.288256,-0.041663 0.304516,-0.026191 0.03054,0.029061 0.109303,4.2414968 0.07986,4.2705148 -0.02846,0.02803 -2.943119,1.196867 -5.226196,2.095796 -6.552492,2.579954 -15.9416415,6.170938 -16.1704317,6.184557 -0.032209,0.002 -0.068242,-0.04232 -0.080136,-0.09829 z M 8.222691,19.673018 c -0.1582845,-0.04293 -0.1782289,-0.06456 -0.1782289,-0.193228 0,-0.137354 0.4389147,-0.96645 0.5854639,-1.105919 0.073621,-0.07006 1.0304823,-0.371433 1.0304823,-0.324559 0,0.06282 -0.6686414,1.420263 -0.7734613,1.570242 -0.09749,0.139486 -0.1207372,0.149433 -0.2959122,0.126595 -0.1045593,-0.01362 -0.2703158,-0.04654 -0.3683438,-0.07313 z m 24.582523,-4.116495 c -0.821205,-0.09529 -1.128034,-0.253242 -1.393451,-0.717351 -0.116881,-0.204377 -0.131414,-0.281878 -0.151008,-0.805296 -0.01193,-0.318537 -0.03425,-0.79078 -0.0496,-1.049427 l -0.02793,-0.470271 0.139053,0.08579 c 0.07648,0.04719 0.246014,0.177391 0.376752,0.289341 0.21159,0.181193 0.251491,0.2464 0.363344,0.593766 0.2758,0.856523 0.830346,1.341093 1.635108,1.428782 l 0.201871,0.02198 -0.423824,-0.631917 c -0.536869,-0.800465 -0.714919,-1.136996 -0.749783,-1.417151 -0.0224,-0.179913 -0.01038,-0.241333 0.06213,-0.317742 0.134684,-0.141931 0.587606,-0.344904 1.228233,-0.550421 0.561614,-0.180167 0.587998,-0.184077 1.36874,-0.202859 0.646865,-0.01558 0.796064,-0.0077 0.79594,0.04195 -0.0031,1.267853 0.04749,2.490186 0.111067,2.680098 0.06367,0.190189 0.06496,0.238718 0.0091,0.341588 -0.120549,0.22185 -0.477397,0.490849 -0.751905,0.566797 -0.457416,0.126552 -2.056855,0.192027 -2.743796,0.112321 z m 0.09513,-1.293045 c -0.2805,-0.249705 -0.488177,-0.625531 -0.592684,-1.072566 l -0.07664,-0.32787 -0.519592,-0.314798 c -0.545656,-0.330592 -0.569909,-0.36234 -0.490954,-0.642731 l 0.02867,-0.101774 1.218296,0.0033 1.218301,0.0033 -0.246125,0.08331 c -0.702479,0.23777 -1.108419,0.509981 -1.108419,0.743272 0,0.229855 0.407581,1.113457 0.711055,1.541508 0.18937,0.267108 0.202652,0.294008 0.145213,0.294008 -0.02879,0 -0.157999,-0.09403 -0.287108,-0.208966 z m -7.161284,-1.776617 -0.199631,-0.21745 0.461033,-0.02905 c 0.253572,-0.01599 1.375352,-0.02916 2.492851,-0.02929 l 2.031814,-2.27e-4 v 0.203546 c 0,0.111949 -0.0053,0.207353 -0.01189,0.212008 -0.0065,0.0047 -0.856692,0.02069 -1.889231,0.03565 -1.032542,0.01494 -2.059144,0.03059 -2.281334,0.03473 l -0.403989,0.0076 z m -1.021097,-0.459374 c -0.018,-0.05137 -0.654214,-0.223748 -0.825814,-0.223748 -0.05739,0 -0.12601,-0.02544 -0.152507,-0.05654 -0.0294,-0.03452 -0.05539,-0.623018 -0.06671,-1.511128 l -0.01853,-1.4545904 0.227431,-0.094511 c 0.30542,-0.1269172 0.880598,-0.2759991 1.057821,-0.2741761 0.07895,7.33e-4 0.253271,0.037572 0.387388,0.081686 0.22866,0.075215 0.24698,0.075441 0.294109,0.00362 0.04225,-0.064391 0.02708,-0.081005 -0.09533,-0.1043011 -0.228142,-0.043428 -0.990756,-0.030373 -1.22484,0.020962 -0.116531,0.025556 -0.282112,0.078186 -0.367957,0.1169556 -0.241588,0.1091056 -0.30702,0.0591 -0.290052,-0.2216692 l 0.01437,-0.237977 h 7.480851 7.480847 l 0.06438,0.1809299 c 0.0354,0.09951 0.118952,0.2267265 0.185664,0.2827015 0.119673,0.1004186 0.139145,0.1017713 1.464892,0.1017713 1.521921,0 1.419145,0.02479 1.640952,-0.3957818 l 0.101379,-0.1922368 h 0.468847 c 0.445874,0 0.47261,0.00546 0.545608,0.1114893 0.04221,0.06132 0.07678,0.1376484 0.0768,0.1696209 1.6e-5,0.031973 0.06399,0.1867962 0.142163,0.3440555 0.136773,0.2751407 0.640484,0.8222656 0.757023,0.8222656 0.111006,0 0.04274,-0.172311 -0.109136,-0.275477 C 43.732591,9.0685659 43.458488,8.7458002 43.327274,8.4791653 43.124491,8.0671047 43.193812,7.4058506 43.50038,6.8278735 l 0.143784,-0.2710806 h 3.182586 3.182585 l 0.06596,0.1017716 c 0.07195,0.1110211 0.26532,2.6306787 0.206207,2.6869367 -0.03498,0.03327 -0.745332,0.09464 -1.315583,0.113648 -0.196056,0.0065 0.01783,0.02279 0.475277,0.03612 l 0.831735,0.02423 v 0.7915638 0.791566 l -3.730933,0.02686 c -2.052015,0.01477 -5.077093,0.06257 -6.722398,0.106232 -2.740255,0.07271 -2.996129,0.0733 -3.047022,0.0071 -0.0369,-0.04804 -0.128635,-0.07231 -0.273266,-0.07231 -0.266855,0 -0.322852,-0.06921 -0.159595,-0.197247 0.140213,-0.109966 0.221438,-0.288656 0.221438,-0.487154 0,-0.336741 -0.215725,-0.432412 -0.745241,-0.330512 -0.168239,0.03238 -0.252844,0.147476 -0.252844,0.34399 0,0.226315 0.118586,0.424328 0.296019,0.494271 0.340686,0.134304 0.112193,0.153893 -2.105985,0.180534 -1.508203,0.01811 -2.314691,0.04537 -2.549288,0.08616 l -0.343147,0.05966 -0.100357,0.287008 -0.100361,0.287008 -0.720921,0.0026 c -1.51135,0.0055 -4.435233,0.08608 -4.594442,0.126659 -0.231327,0.05896 -0.60654,0.06136 -0.626631,0.004 z m 0.436521,-0.234089 c 0.09869,-0.02718 1.221338,-0.05438 2.760434,-0.06688 l 2.59408,-0.02106 0.05867,-0.154422 c 0.09591,-0.252396 0.266761,-0.409436 0.508496,-0.467366 0.344612,-0.08258 1.535505,-0.136878 3.030514,-0.138165 1.287599,-0.0012 1.369366,-0.006 1.336452,-0.08033 -0.08038,-0.181527 -0.08276,-0.551691 -0.0043,-0.665695 0.228186,-0.3314328 1.014791,-0.3842488 1.262329,-0.08476 0.119291,0.144332 0.132084,0.499247 0.02509,0.696156 -0.07139,0.131377 -0.07058,0.133452 0.05198,0.133452 0.08624,0 0.132459,0.029 0.150424,0.09439 0.02563,0.09327 0.03834,0.09403 1.07681,0.0642 0.57798,-0.0166 1.457235,-0.05039 1.953902,-0.07507 0.496666,-0.02468 2.972268,-0.05588 5.501343,-0.06933 l 4.598318,-0.02445 V 10.31569 9.6973102 l -1.223838,0.01309 c -0.673117,0.0072 -1.523269,0.03608 -1.889235,0.06418 -0.922242,0.07082 -2.001119,0.0607 -2.536551,-0.02381 -0.393231,-0.06207 -0.474776,-0.09192 -0.697173,-0.255211 C 43.39941,9.2658782 43.140931,8.9146866 43.027519,8.5652545 L 42.940895,8.2982506 42.583989,8.2851145 42.227084,8.2720028 42.124336,8.4302222 C 42.067826,8.5172432 41.956975,8.6401874 41.878,8.7034328 L 41.734399,8.8184221 H 40.323043 38.911685 L 38.741089,8.6845928 C 38.647259,8.6109858 38.543549,8.488861 38.510616,8.4132003 l -0.05987,-0.1375657 h -4.41656 -4.416563 l 0.155333,0.183952 c 0.134582,0.1593868 0.157433,0.2243237 0.171115,0.4862473 0.01824,0.3492393 -0.0721,0.5353823 -0.333419,0.6870143 -0.187118,0.108576 -0.625088,0.121806 -0.865642,0.02615 -0.258587,-0.102827 -0.334867,-0.258585 -0.334867,-0.6837946 0,-0.3326927 0.01258,-0.3830472 0.13312,-0.5334671 L 28.676395,8.275635 h -1.398948 -1.398945 l -0.02867,0.1017717 c -0.01576,0.055977 -0.02928,0.1526595 -0.03005,0.2148544 -0.0029,0.2361421 -0.05088,0.2496056 -0.474589,0.1330882 -0.379928,-0.1044792 -0.39708,-0.1052789 -0.753146,-0.035051 -0.494147,0.097462 -0.739262,0.1980906 -0.702797,0.2885215 0.01564,0.038732 0.04266,0.6449554 0.06008,1.3471562 l 0.03168,1.276732 0.456025,0.105388 c 0.250819,0.05796 0.477415,0.111182 0.503561,0.11826 0.02614,0.0071 0.122382,-0.0077 0.213874,-0.03295 z m 16.934444,-1.59533 c -0.163538,-0.10901 -0.267046,-0.4297078 -0.242582,-0.7515728 0.01861,-0.244877 0.04015,-0.295723 0.172923,-0.408648 0.124202,-0.1056127 0.195005,-0.1289743 0.390923,-0.1289743 0.438112,0 0.662281,0.2049299 0.662281,0.6054453 0,0.272016 -0.06602,0.420767 -0.266672,0.6008678 -0.141215,0.126751 -0.20334,0.150656 -0.391529,0.150656 -0.123026,0 -0.269428,-0.0305 -0.325344,-0.06777 z m 0.550319,-0.2298848 c 0.244479,-0.295794 0.233102,-0.670677 -0.02374,-0.782049 -0.316797,-0.1373705 -0.588648,0.03344 -0.588648,0.369862 0,0.425921 0.386191,0.6858578 0.612388,0.412187 z m -0.490874,-0.20996 c -0.166013,-0.225574 -0.03673,-0.487493 0.24064,-0.487493 0.175431,0 0.255705,0.0938 0.255705,0.298783 0,0.265962 -0.343399,0.396521 -0.496345,0.18871 z m 0.273561,-0.109613 c 0.06529,-0.06214 0.03144,-0.158121 -0.0505,-0.143108 -0.04575,0.0084 -0.08318,0.0438 -0.08318,0.07871 0,0.07142 0.08385,0.111816 0.133674,0.0644 z m 3.597264,-0.0586 c 0.437241,-0.02447 0.425225,-0.02636 -0.380226,-0.05981 -0.457454,-0.01899 -0.922633,-0.04712 -1.033728,-0.06249 -0.160064,-0.02216 -0.201992,-0.01402 -0.201992,0.03914 0,0.05154 0.09091,0.07384 0.392103,0.09615 0.405305,0.03003 0.466747,0.02937 1.223843,-0.01299 z m -16.449329,-0.25602 c 0.228318,-0.2762377 0.158842,-0.6988422 -0.139061,-0.8458841 -0.20157,-0.09949 -0.495328,-0.076692 -0.627047,0.048665 -0.120244,0.1144407 -0.179344,0.3768029 -0.130909,0.5811773 0.06432,0.2714178 0.127684,0.2702938 0.103969,-0.00195 -0.03522,-0.4042099 0.01348,-0.5545884 0.198365,-0.612662 0.19064,-0.059877 0.36608,-0.0078 0.475766,0.1412459 0.09552,0.1297907 0.09965,0.5141469 0.0073,0.6825829 -0.08632,0.157486 -0.01649,0.16169 0.111596,0.0067 z m 19.229704,-0.06851 c 0.522809,-0.02023 1.022013,-0.04894 1.109344,-0.06382 l 0.158789,-0.02705 -0.02883,-0.2572637 C 50.009766,8.6575184 49.869916,6.9441364 49.869293,6.839496 49.869048,6.794857 49.22944,6.782956 46.830671,6.782956 h -3.038292 l -0.12711,0.2472511 c -0.13834,0.2691062 -0.241661,0.880128 -0.191691,1.1336308 0.06121,0.3105499 0.375124,0.7630282 0.667661,0.9623883 0.127516,0.0869 0.247195,0.111214 0.718433,0.145936 0.662953,0.04885 2.588932,0.04558 3.939901,-0.0067 z m -19.534815,-0.06823 c 0.177663,-0.1690803 -8.14e-4,-0.5612747 -0.201113,-0.4418837 -0.11296,0.067337 -0.134928,0.346561 -0.03477,0.4418837 0.09688,0.0922 0.139,0.0922 0.23588,0 z M 51.339215,11.50768 c -0.09601,-0.06332 -0.24426,-0.197671 -0.329453,-0.298563 -0.196483,-0.232686 -0.212987,-0.369969 -0.309138,-2.571645 -0.03966,-0.9080374 -0.08541,-1.7273717 -0.101672,-1.8207397 l -0.02956,-0.1697645 7.408703,0.011454 7.408699,0.011454 v 1.7414427 1.7414445 l -5.441934,0.02262 -5.441935,0.02262 -0.499045,0.234753 c -0.274474,0.129113 -0.936177,0.449697 -1.470456,0.712408 -0.534276,0.262711 -0.982267,0.477655 -0.995529,0.477655 -0.01327,0 -0.102662,-0.0518 -0.19867,-0.115122 z M 63.713216,7.6686228 c 0.188669,-0.1361983 0.189573,-0.6176802 0.0016,-0.7238801 -0.175297,-0.09891 -0.30428,-0.1076239 -1.65474,-0.111794 -1.328874,-0.0041 -1.689143,0.024082 -1.763086,0.137946 -0.134341,0.2068673 -0.08991,0.6322823 0.0748,0.7161736 0.05561,0.028328 0.693264,0.045217 1.673279,0.044327 1.257448,-0.00122 1.600913,-0.014064 1.668385,-0.062773 z M 60.579857,7.438723 c -0.01507,-0.037372 -0.01401,-0.1187912 0.0024,-0.1809298 l 0.02981,-0.1129809 h 1.42595 1.425945 l 0.0535,0.1117426 c 0.04091,0.085442 0.03929,0.128026 -0.0068,0.1809298 -0.08995,0.1031464 -2.889181,0.1043285 -2.930748,0.00122 z m -1.9502,0.1564546 c 0.214774,-0.1607831 0.225138,-0.5859834 0.01873,-0.768985 -0.09413,-0.083455 -0.175521,-0.088469 -1.43628,-0.088469 -1.009129,0 -1.356824,0.014138 -1.419483,0.057752 -0.198328,0.138014 -0.194207,0.6530381 0.0064,0.8032337 0.111437,0.083423 0.198345,0.088893 1.41294,0.088893 1.231376,0 1.300187,-0.00448 1.417655,-0.092425 z M 55.904986,7.257893 V 7.1448123 h 1.304206 c 1.313902,0 1.434941,0.014842 1.308091,0.160296 -0.04768,0.054678 -0.274436,0.065868 -1.334868,0.065868 h -1.277429 z m -20.026042,3.575512 c -0.0957,-0.08441 -0.125759,-0.154264 -0.125759,-0.292266 0,-0.175066 0.007,-0.183138 0.201937,-0.233095 0.311103,-0.07973 0.43621,-0.0185 0.454494,0.222417 0.02891,0.381078 -0.257015,0.544309 -0.530672,0.302944 z m 0.34952,-0.228321 c 0,-0.161414 -0.055,-0.195354 -0.187408,-0.115627 -0.05553,0.03344 -0.05799,0.06345 -0.01289,0.157619 0.08376,0.174959 0.200312,0.150525 0.200312,-0.04199 z m 37.255202,-0.473434 -0.112202,-0.08896 0.27328,-0.0015 c 0.275092,-0.0015 0.321264,0.0252 0.216253,0.125147 -0.08505,0.08094 -0.250714,0.06571 -0.377331,-0.03468 z m 11.563172,-0.13059 c -0.113615,-0.06583 -0.445124,-0.2352298 -0.73668,-0.3764448 l -0.530101,-0.256751 1.033727,-0.0033 c 0.568554,-0.002 1.033732,0.0135 1.033732,0.0341 0,0.07874 -0.250164,0.6221938 -0.32141,0.6982298 -0.08815,0.09408 -0.184952,0.07473 -0.479268,-0.0958 z M 66.028408,9.4968912 v -0.135696 h 3.160601 c 3.128917,0 3.160605,9.77e-4 3.160605,0.09047 0,0.0892 0.03168,0.09047 2.275792,0.09047 2.235818,0 2.276228,-0.0017 2.300648,-0.09047 0.02455,-0.08933 0.06483,-0.09047 3.217327,-0.09047 h 3.192472 l 0.142587,0.135696 0.142583,0.135699 H 74.824716 66.028408 Z M 86.893126,8.3208519 V 7.9137635 h 0.163545 c 0.08995,0 0.177097,0.020889 0.19367,0.046394 0.05933,0.091364 0.07847,0.5213682 0.02863,0.6433986 -0.04207,0.1030243 -0.07957,0.1243873 -0.218321,0.1243873 H 86.893122 Z M 66.479926,7.7780648 V 6.8508042 l 0.344576,-0.013283 0.344576,-0.013283 v 0.4543062 0.4543038 h 2.685319 2.685328 V 7.1448277 6.5568092 h -3.25566 -3.255657 V 6.2175675 5.8783259 h 4.271965 4.271964 l 0.302146,0.3957822 c 0.393341,0.515248 1.042568,1.1304668 1.372411,1.300529 l 0.261403,0.1347772 2.305098,0.031761 c 2.907684,0.040064 6.568377,0.1196736 7.236114,0.1573639 l 0.510923,0.028837 V 8.3277726 8.7281687 L 76.520179,8.7167632 66.479926,8.7053577 Z m -0.451518,0.045234 c 0,-0.8744907 0.0033,-0.9046471 0.09506,-0.9046471 0.09188,0 0.09505,0.030157 0.09505,0.9046471 0,0.8744907 -0.0033,0.9046447 -0.09505,0.9046447 -0.09189,0 -0.09506,-0.030153 -0.09506,-0.9046447 z M 38.854376,8.3213491 C 38.769426,8.2720521 38.69991,8.2151345 38.69991,8.1948684 c 0,-0.1330152 0.138287,-0.1454086 1.622249,-0.1454086 1.483833,0 1.508688,0.00147 1.539431,0.093706 0.01995,0.059855 0.0012,0.1252134 -0.05169,0.1809274 -0.07824,0.082278 -0.160015,0.087214 -1.442001,0.087055 -1.271014,-1.364e-4 -1.369064,-0.00597 -1.513524,-0.0898 z m 3.1504,-0.5382416 c -0.01568,-0.046981 -0.08025,-0.1385771 -0.14352,-0.2035433 L 41.746228,7.4614388 H 40.36253 c -0.852245,0 -1.418591,0.017766 -1.474542,0.046269 -0.04997,0.025446 -0.115493,0.091601 -0.14562,0.1470053 -0.04803,0.088325 -0.0376,0.085412 0.08469,-0.023666 l 0.13946,-0.1243873 h 1.336416 1.33641 l 0.143883,0.1152156 c 0.08517,0.068205 0.133062,0.1420306 0.117377,0.1809299 -0.02244,0.055614 -0.266276,0.065712 -1.587024,0.065712 -1.03726,0 -1.570856,-0.015893 -1.591325,-0.047427 -0.02147,-0.033064 -0.04904,-0.033023 -0.09103,1.34e-4 -0.0417,0.032934 -2.354418,0.044047 -7.516834,0.036122 l -7.456606,-0.011454 -0.04399,-0.1984636 c -0.04079,-0.1840253 -0.03514,-0.2045862 0.07747,-0.2826624 0.0668,-0.046311 0.260803,-0.2623211 0.431129,-0.4800222 0.170321,-0.2177015 0.38422,-0.4772389 0.47533,-0.5767511 l 0.165657,-0.1809301 11.780459,-0.02262 c 9.490306,-0.018206 11.805865,-0.011406 11.911157,0.035088 0.09085,0.040109 0.130701,0.091705 0.130701,0.1692234 v 0.1115231 l -2.521424,0.011699 -2.521424,0.011699 -0.122976,0.271395 c -0.06764,0.1492668 -0.17711,0.4698512 -0.243266,0.7124083 l -0.120294,0.441016 h -0.511525 c -0.459718,0 -0.514409,-0.00865 -0.540013,-0.085422 z M 42.904948,7.585828 c 0.01079,-0.031097 0.0751,-0.2597736 0.142933,-0.5081678 0.06783,-0.2483941 0.154579,-0.4970224 0.192778,-0.5525047 0.03819,-0.055483 0.06945,-0.1117695 0.06945,-0.1250844 0,-0.013307 -4.146808,-0.024204 -9.215133,-0.024204 -8.709322,0 -9.220221,0.00434 -9.307828,0.079156 -0.05098,0.043537 -0.186353,0.1911081 -0.300823,0.3279351 -0.114467,0.136827 -0.310388,0.3572804 -0.435376,0.4898933 -0.124985,0.132613 -0.227247,0.2700057 -0.227247,0.3053171 0,0.05517 1.027383,0.064203 7.30282,0.064203 h 7.302821 l 0.17093,-0.1758554 c 0.103916,-0.1069097 0.245461,-0.1954785 0.36104,-0.2259077 0.245823,-0.064722 2.548863,-0.067279 2.79169,-0.00309 0.114071,0.030153 0.231742,0.1110089 0.328764,0.2259101 0.149546,0.177101 0.15449,0.1789534 0.477342,0.1789534 0.218846,0 0.33269,-0.018621 0.345838,-0.056541 z M 67.549299,7.0991548 V 6.8273356 l 2.340744,0.011723 2.340748,0.011748 0.01425,0.260086 0.01425,0.2600859 h -2.354999 -2.355 z m 15.503802,0.024766 c -0.0088,-0.00836 0.04665,-0.1342825 0.123164,-0.2798475 0.237508,-0.451859 0.85297,-1.9177317 0.98471,-2.3453471 0.06898,-0.2239019 0.144733,-0.6106053 0.168326,-0.8593427 0.0474,-0.4996497 0.06788,-0.5313494 0.397776,-0.6158915 0.273626,-0.070121 0.969024,-0.035963 1.026394,0.050415 0.02663,0.040113 0.04536,0.8981593 0.04579,2.0989127 l 8.14e-4,2.0310612 -1.365465,-0.032388 c -0.751009,-0.017815 -1.37264,-0.039225 -1.381419,-0.047574 z m 2.351042,-0.2259741 c 0.205906,-0.085242 0.26808,-0.2157026 0.242533,-0.5088893 -0.01649,-0.1891849 -0.0505,-0.2729839 -0.14885,-0.3666809 -0.124658,-0.1187618 -0.142461,-0.1217718 -0.803883,-0.1359104 -0.387221,-0.00829 -0.731182,0.00536 -0.804542,0.031904 -0.184846,0.066884 -0.286128,0.2416938 -0.290236,0.500956 -0.0042,0.2614851 0.07333,0.4238452 0.235871,0.4943293 0.171783,0.074489 1.380458,0.062387 1.569107,-0.015722 z M 83.97356,6.6666429 c -0.0967,-0.09203 -0.0957,-0.3325608 0.002,-0.4652227 0.07411,-0.1007016 0.09605,-0.103624 0.669696,-0.089222 0.561077,0.014089 0.598099,0.020816 0.68622,0.1244919 0.128286,0.150944 0.101684,0.3681235 -0.05423,0.4427948 -0.185269,0.088727 -1.207477,0.078659 -1.30362,-0.012843 z M 85.25342,5.44145 c 0.332531,-0.070411 0.46289,-0.2613898 0.460386,-0.6744789 -0.002,-0.3495612 -0.101693,-0.5470842 -0.319436,-0.6336692 -0.510691,-0.2030726 -0.813562,0.092083 -0.774235,0.7545053 0.01543,0.2598884 0.03848,0.3313351 0.135824,0.4212347 0.120957,0.1116986 0.331102,0.1676321 0.497461,0.1324081 z M 84.949132,5.0573791 c -0.02871,-0.078347 -0.05217,-0.2004743 -0.05217,-0.2713945 0,-0.1501569 0.165133,-0.3286762 0.268964,-0.290757 0.03933,0.014354 0.08961,0.026113 0.111754,0.026113 0.09778,0 0.189619,0.1549118 0.189619,0.3198556 0,0.2157685 -0.130681,0.3586277 -0.328048,0.3586277 -0.111979,0 -0.147751,-0.026802 -0.190115,-0.1424451 z M 48.918808,6.3090579 C 48.88501,6.2244328 48.696325,6.1109962 48.147659,5.8454266 L 47.421265,5.4938347 36.56181,5.4712151 C 26.005828,5.4492307 25.701874,5.4462378 25.685252,5.3640986 c -0.01987,-0.098137 0.30369,-0.431035 0.713221,-0.7338369 l 0.269681,-0.19939 h 10.526514 10.526508 l 0.06392,-0.1882076 c 0.03567,-0.1050593 0.123344,-0.2299535 0.19843,-0.2827015 0.120245,-0.084474 0.18325,-0.092361 0.594097,-0.074367 0.531543,0.023275 5.472682,0.022009 11.153351,-0.00285 3.758386,-0.016451 4.89403,0.00899 5.573528,0.1249259 l 0.15536,0.026504 -0.01279,1.001225 -0.01279,1.0012271 -7.663864,0.011454 -7.663859,0.011454 v 0.1506371 c 0,0.082851 -0.01425,0.1642076 -0.03168,0.1807909 -0.01743,0.016573 -0.274608,0.030157 -0.571513,0.030157 -0.530741,0 -0.540579,-0.00195 -0.584585,-0.1120395 z m 0.959154,-0.2385111 0.01474,-0.1696209 7.663864,-0.011454 7.663859,-0.011454 V 5.0444031 c 0,-0.7550973 -0.0078,-0.8357548 -0.08317,-0.8563547 -0.04574,-0.012505 -0.478844,-0.049501 -0.962436,-0.082205 -0.960128,-0.064929 -3.321651,-0.069387 -11.306811,-0.021349 -3.906308,0.023495 -4.693516,0.038639 -4.778884,0.091872 -0.05621,0.035051 -0.14183,0.1473607 -0.190262,0.2495714 l -0.08805,0.1858385 H 37.298067 26.78532 l -0.182663,0.1470049 c -0.100459,0.080852 -0.269567,0.2284229 -0.375788,0.3279326 l -0.193128,0.1809299 10.765052,0.02262 10.765051,0.02262 0.611244,0.2877104 c 0.379773,0.1787607 0.68124,0.3543286 0.796093,0.4636314 0.181649,0.1728771 0.190962,0.1759213 0.538437,0.1759213 h 0.353587 z m -24.84484,-0.06045 c -0.01755,-0.027025 0.03885,-0.118623 0.125335,-0.2035454 l 0.157254,-0.1544052 h 11.037765 11.037759 l 0.300187,0.1212726 c 0.368813,0.1489989 0.349638,0.1340048 0.277369,0.2168773 -0.05356,0.061418 -1.306707,0.068941 -11.481937,0.068941 -8.168892,0 -11.430908,-0.013991 -11.453732,-0.04914 z m 16.787932,-0.165711 c -3.027832,-0.00643 -7.968349,-0.00643 -10.978927,2.5e-6 -3.010575,0.00643 -0.533254,0.011699 5.505158,0.011699 6.038409,-2e-6 8.501608,-0.00527 5.473769,-0.011699 z M 65.974944,5.392061 c -0.07389,-0.179843 -0.115187,-0.8707201 -0.05204,-0.8707201 0.02777,0 0.228607,0.040003 0.44633,0.088895 1.299398,0.2918023 3.458309,0.3661641 7.397514,0.2548042 0.150539,-0.00426 0.164873,0.010335 0.317847,0.3234772 l 0.160203,0.327933 h -4.109372 -4.109367 z"
   id="path1294" /></svg>
