<?xml version="1.0" encoding="UTF-8" standalone="no"?>
<!-- Generator: Adobe Illustrator 16.0.0, SVG Export Plug-In . SVG Version: 6.00 Build 0)  -->

<svg
   version="1.1"
   x="0px"
   y="0px"
   width="75.833px"
   height="32px"
   viewBox="0 0 75.833 32"
   enable-background="new 0 0 75.833 32"
   xml:space="preserve"
   id="svg4429"
   sodipodi:docname="aug.svg"
   inkscape:version="1.1.1 (3bf5ae0d25, 2021-09-20)"
   xmlns:inkscape="http://www.inkscape.org/namespaces/inkscape"
   xmlns:sodipodi="http://sodipodi.sourceforge.net/DTD/sodipodi-0.dtd"
   xmlns="http://www.w3.org/2000/svg"
   xmlns:svg="http://www.w3.org/2000/svg"><defs
   id="defs4433" /><sodipodi:namedview
   id="namedview4431"
   pagecolor="#505050"
   bordercolor="#eeeeee"
   borderopacity="1"
   inkscape:pageshadow="0"
   inkscape:pageopacity="0"
   inkscape:pagecheckerboard="0"
   showgrid="false"
   inkscape:zoom="7.4505819"
   inkscape:cx="43.620754"
   inkscape:cy="8.7241508"
   inkscape:window-width="1440"
   inkscape:window-height="848"
   inkscape:window-x="1358"
   inkscape:window-y="-8"
   inkscape:window-maximized="1"
   inkscape:current-layer="svg4429" />

<g
   id="guides">
</g>
<path
   style="fill:#ffffff;stroke-width:0.0378642"
   d="m 22.310134,28.352975 c 2.805494,-1.073472 2.952807,-1.13448 2.941508,-1.218243 -0.0065,-0.04849 -0.191761,-0.795292 -0.411601,-1.65954 -0.703841,-2.766985 -1.477508,-5.792293 -1.655803,-6.474764 -0.09521,-0.364443 -0.173226,-0.711762 -0.173363,-0.771823 -6.21e-4,-0.241225 0.08857,-0.418132 0.338961,-0.672814 0.136222,-0.138554 0.313594,-0.355691 0.394162,-0.482526 l 0.146482,-0.230614 0.364684,-0.112201 c 0.668442,-0.205657 1.757598,-0.499298 2.485073,-0.669985 0.692823,-0.162557 0.752657,-0.170203 1.61845,-0.206788 0.494463,-0.0209 0.985979,-0.06055 1.092249,-0.08812 l 0.19322,-0.05012 0.289794,0.2015 c 0.455446,0.316684 0.788172,0.786237 0.82756,1.167891 0.01754,0.169827 0.0018,0.234275 -0.121456,0.49687 -0.1745,0.371844 -0.41258,0.699304 -0.508428,0.699304 -0.12364,0 -1.059411,1.260849 -1.59567,2.149977 -0.279307,0.463097 -0.446041,0.855952 -0.570277,1.343683 -0.06801,0.267017 -0.08345,0.479919 -0.107697,1.485473 -0.01739,0.721541 -0.04488,1.214858 -0.07133,1.280378 -0.02366,0.05862 -0.04302,0.162579 -0.04302,0.231002 0,0.06842 -0.01565,0.173808 -0.03478,0.234185 -0.01913,0.06038 -0.04307,0.182191 -0.05319,0.270699 l -0.01841,0.160921 h 3.439869 c 3.380168,0 3.442111,-0.0012 3.569157,-0.07628 0.0711,-0.04195 0.346661,-0.168967 0.612337,-0.282248 0.913951,-0.389696 1.271595,-0.665568 1.713823,-1.321963 0.30372,-0.450807 0.742705,-1.046369 2.850027,-3.866603 1.267652,-1.696503 1.548698,-2.050708 1.817614,-2.290779 0.174954,-0.15619 0.591212,-0.537222 0.925018,-0.846739 0.333804,-0.309515 0.682484,-0.614747 0.774839,-0.678289 0.191274,-0.131602 0.498844,-0.257275 1.310037,-0.535293 0.312381,-0.107058 0.585003,-0.205135 0.605828,-0.217948 0.02084,-0.01283 0.32007,-0.0089 0.664989,0.0085 0.985772,0.05009 1.591606,0.204841 2.057877,0.525643 0.164235,0.112995 0.177615,0.13661 0.304602,0.537653 0.328489,1.03737 0.372668,1.817903 0.196876,3.478252 -0.03196,0.301965 -0.07721,0.762014 -0.100546,1.022329 -0.04546,0.507241 -0.112166,0.851844 -0.223572,1.154856 -0.163918,0.445842 -0.201373,1.67558 -0.06141,2.016409 0.142787,0.347737 0.460645,0.477671 1.107477,0.452708 0.22445,-0.0086 0.689231,-0.04344 1.032849,-0.07728 0.343616,-0.03385 0.727844,-0.06191 0.853835,-0.06236 0.129194,-6.22e-4 0.249301,-0.02105 0.275462,-0.04721 0.03586,-0.03587 0.06261,-0.03625 0.117938,-0.0016 0.06052,0.0378 0.09833,0.02425 0.245172,-0.08788 0.09549,-0.0729 0.173615,-0.154008 0.173615,-0.180222 0,-0.02621 -0.0803,-0.242676 -0.178437,-0.481033 L 51.54409,23.146565 51.51608,22.1053 c -0.01541,-0.572693 -0.04604,-1.390556 -0.06806,-1.817475 -0.108522,-2.103172 -0.08963,-3.576655 0.05284,-4.122079 0.03065,-0.117351 0.06581,-0.292314 0.07813,-0.388807 0.01788,-0.140223 0.06745,-0.231441 0.246904,-0.45437 0.123484,-0.153409 0.224969,-0.291706 0.225525,-0.307324 6.2e-4,-0.01562 -0.254572,-0.02841 -0.566951,-0.02841 h -0.567961 v -0.10799 c 0,-0.0594 0.09322,-0.297938 0.20716,-0.530097 l 0.207167,-0.422109 0.881427,0.0012 c 0.640306,9.21e-4 0.943585,0.01649 1.108617,0.05669 0.124953,0.03043 0.39785,0.06624 0.606437,0.07959 l 0.37925,0.02425 0.317101,-0.347343 0.3171,-0.347341 -0.08106,-0.08628 c -0.04458,-0.04745 -0.08105,-0.09796 -0.08105,-0.112238 0,-0.01428 2.994583,-0.02574 6.654619,-0.02549 5.749666,3.1e-4 6.682942,0.0081 6.862877,0.05639 0.213934,0.05747 0.662836,0.04196 0.703782,-0.02431 0.01105,-0.01788 0.329136,-0.03253 0.706816,-0.03253 0.668853,0 0.68923,0.0022 0.783455,0.08928 0.0532,0.0491 0.171273,0.132643 0.262389,0.185654 l 0.165645,0.09638 0.211103,-0.07263 c 0.14143,-0.04867 0.247007,-0.116185 0.31987,-0.204587 l 0.108766,-0.131956 h 1.619857 1.619847 l 0.194634,-0.41494 0.194637,-0.414955 -0.115806,-0.171593 c -0.06369,-0.09438 -0.104434,-0.18999 -0.09054,-0.212471 0.05978,-0.09672 0.131088,-0.572024 0.131088,-0.873736 V 10.716621 L 73.1333,10.697681 c -1.675975,-0.01605 -2.001562,-0.02801 -2.129863,-0.07834 -0.320271,-0.125605 -0.769544,-0.05043 -0.857933,0.143563 -0.0614,0.134775 -0.159728,0.122752 -0.448382,-0.05483 -0.309039,-0.190125 -0.41224,-0.192199 -0.935902,-0.01882 l -0.400608,0.132646 -1.0451,0.03701 c -1.253294,0.04437 -12.60761,0.133172 -12.741205,0.09964 -0.05152,-0.01295 -0.105108,-0.06169 -0.119323,-0.108581 -0.0142,-0.0468 -0.0609,-0.123441 -0.103783,-0.170298 l -0.07797,-0.0852 h -2.002012 -2.002005 l -0.08823,-0.0952 c -0.04852,-0.0523 -0.09917,-0.149874 -0.112557,-0.216778 C 50.038755,10.134341 49.681895,9.7750132 49.326203,9.5352418 49.190839,9.4439924 48.97175,9.2721319 48.839339,9.1533298 48.670726,9.0020475 48.517562,8.9059197 48.328172,8.8325158 c -0.148729,-0.057645 -0.36193,-0.1448048 -0.473776,-0.19369 -0.111852,-0.048885 -0.261721,-0.088884 -0.333048,-0.088884 -0.07133,0 -0.209701,-0.042598 -0.307505,-0.094659 -0.0978,-0.052065 -0.197164,-0.094662 -0.220812,-0.094662 -0.02363,0 -0.06514,-0.026674 -0.0922,-0.059294 -0.02709,-0.032611 -0.09876,-0.084918 -0.159331,-0.1162371 -0.107409,-0.055543 -0.117556,-0.052068 -0.411572,0.1409575 -0.191533,0.1257452 -0.29433,0.2164482 -0.281932,0.2487641 0.03328,0.086728 -0.03703,0.057104 -0.267389,-0.1126567 C 45.358298,8.1509386 44.837667,7.7014668 44.455268,7.3179525 44.013205,6.874604 43.818413,6.5358575 43.752484,6.0958005 43.731614,5.9565726 43.689274,5.7148636 43.658374,5.5586751 43.627474,5.4024865 43.580554,5.0787474 43.554108,4.8392555 43.515808,4.4923951 43.480908,4.3499035 43.38258,4.1387683 43.31468,3.9929915 43.242585,3.8632748 43.222363,3.8505062 43.202143,3.8377442 43.01243,3.8159112 42.800795,3.8020002 42.589157,3.7880892 42.339325,3.7674082 42.245612,3.7560432 42.082614,3.7362632 42.064176,3.7445542 41.82065,3.9465411 l -0.254574,0.21116 h -1.590019 c -1.398661,0 -1.605769,-0.00751 -1.720878,-0.062402 -0.07197,-0.034322 -0.138802,-0.092783 -0.148516,-0.1299186 -0.0097,-0.037135 -0.138405,-0.1283287 -0.285982,-0.2026486 -0.395606,-0.1992205 -0.584198,-0.1910786 -0.93325,0.040296 -0.336587,0.223112 -0.435034,0.3131349 -0.435034,0.3978075 0,0.037287 -0.03295,0.085434 -0.07324,0.1069898 -0.04857,0.025991 -1.005151,0.039197 -2.83981,0.039197 -2.312464,0 -2.766571,-0.00848 -2.766571,-0.05169 0,-0.028412 -0.03532,-0.096584 -0.07848,-0.1514563 l -0.07848,-0.099767 -3.1873,3.105e-4 c -1.753021,2.019e-4 -3.251191,0.010961 -3.329266,0.023879 -0.24305,0.040175 -0.285039,0.1561917 -0.335048,0.9257509 -0.02357,0.362548 -0.03544,0.8937923 -0.02639,1.1805422 0.01813,0.5752544 0.04208,0.6413641 0.294774,0.8133458 l 0.125179,0.085194 h 3.708398 3.708398 l 0.837143,0.6137123 c 1.329356,0.9745586 2.033905,1.5641837 2.033905,1.7021417 0,0.06102 -0.03317,0.069587 -0.269407,0.069587 -0.262959,0 -0.272523,0.00338 -0.399432,0.1419885 l -0.130021,0.1419916 -1.80616,0.018942 c -1.626541,0.017048 -1.818204,0.025525 -1.927327,0.085194 -0.114794,0.062769 -0.861483,0.066262 -14.16795,0.066262 -12.7193077,0 -14.052393,0.00562 -14.1062744,0.059502 -0.032726,0.032723 -0.059498,0.083241 -0.059498,0.1122586 0,0.029 -0.032595,0.0702 -0.072432,0.09152 -0.039831,0.02133 -0.1008878,0.113297 -0.1356785,0.204388 -0.045069,0.118017 -0.1034437,0.188216 -0.2030803,0.244215 -0.17688157,0.09941 -0.59558095,0.535672 -0.75255833,0.784123 -0.2548408,0.403341 -0.32960166,1.080321 -0.22438184,2.031818 0.0329987,0.298413 0.0706588,0.661839 0.0836914,0.807616 0.0449816,0.503167 0.76243597,4.010811 1.71933527,8.405836 0.2312382,1.062089 0.4452332,2.016998 0.4755369,2.122015 0.053965,0.187012 0.061157,0.193812 0.3490869,0.330301 l 0.293985,0.139356 1.1359235,0.07815 c 2.7635403,0.190145 3.5479206,0.138401 4.3757679,-0.288672 0.1367156,-0.07053 0.2645073,-0.128847 0.2839803,-0.129596 0.09623,-0.0037 0.2427826,-0.195106 0.3329734,-0.43488 0.1199477,-0.318873 0.1217582,-0.346897 0.024416,-0.377797 -0.041579,-0.0132 -0.1214201,-0.103802 -0.1774127,-0.201342 -0.055997,-0.09754 -0.1497642,-0.248565 -0.208378,-0.335619 -0.18703,-0.277783 -0.1816824,-0.286502 0.5465908,-0.891532 1.2507107,-1.03907 2.4354977,-1.988132 2.8492737,-2.28239 0.229078,-0.162911 0.452274,-0.328045 0.495991,-0.366975 0.06184,-0.05507 0.100301,-0.06286 0.173277,-0.03512 0.111722,0.04248 0.738887,0.447254 0.769352,0.49655 0.01167,0.01891 0.151906,-0.01161 0.311594,-0.06782 0.285853,-0.100632 0.296761,-0.109368 0.705689,-0.56523 0.228437,-0.254661 0.476428,-0.504866 0.551082,-0.556005 0.176774,-0.121097 0.547613,-0.153456 1.006615,-0.08784 l 0.340777,0.04873 0.02421,0.926645 c 0.02478,0.94891 0.107511,1.962239 0.206975,2.535298 0.163029,0.939289 0.615007,2.385125 1.112814,3.559795 0.495289,1.168739 1.027368,2.500207 1.084601,2.714102 0.0491,0.183499 0.227605,0.507891 0.27595,0.501475 0.01193,-0.0016 1.350704,-0.511405 2.975076,-1.132939 z m -2.776263,0.356778 C 19.40253,28.239104 19.301701,27.958615 18.663765,26.28927 17.921476,24.346875 17.81657,24.041826 17.597349,23.188312 17.297802,22.022085 17.18394,21.196464 17.152882,19.965413 l -0.02199,-0.871423 2.741078,-0.521471 c 1.507591,-0.28681 2.7599,-0.520845 2.782913,-0.520084 0.024,9.2e-4 0.05119,0.110277 0.0638,0.25697 0.02717,0.316162 0.491615,2.156678 0.876672,3.474032 0.158264,0.541457 0.449786,1.648984 0.647818,2.461172 0.198034,0.812185 0.430419,1.73723 0.516404,2.055657 0.09258,0.34286 0.142296,0.592066 0.121899,0.611106 -0.05173,0.04828 -5.216043,2.008126 -5.258693,1.995658 -0.02028,-0.006 -0.06029,-0.0947 -0.08891,-0.197277 z M 20.095419,28.5657 c 0.3039,-0.115616 0.714458,-0.273419 2.971996,-1.142358 0.520634,-0.200397 1.086954,-0.418264 1.258494,-0.484163 0.232002,-0.08912 0.312021,-0.137483 0.312382,-0.188809 9.2e-4,-0.123727 -0.179649,-0.84862 -0.624006,-2.505761 -0.240126,-0.895488 -0.56208,-2.09673 -0.715452,-2.669422 -0.153372,-0.572692 -0.394603,-1.526871 -0.536066,-2.120391 -0.141468,-0.593519 -0.267104,-1.090394 -0.279192,-1.104166 -0.01207,-0.01375 -0.115701,-0.0097 -0.230239,0.009 -0.114539,0.01876 -0.523472,0.08573 -0.908738,0.148845 -0.385268,0.0631 -1.428899,0.254686 -2.319178,0.425729 l -1.618694,0.310986 3.2e-5,0.663265 c 0,1.746186 0.29768,3.138686 1.161352,5.434148 0.501657,1.333312 0.6935,1.873928 0.826344,2.328645 0.08561,0.293029 0.335651,0.972891 0.370702,1.007943 0.0049,0.0049 0.153434,-0.04629 0.330263,-0.113555 z m -0.434107,-0.922789 c -0.0904,-0.359116 -0.285647,-1.222446 -0.285647,-1.263037 0,-0.01861 0.01667,-0.03381 0.03703,-0.03381 0.02037,0 0.328469,-0.129229 0.68467,-0.287179 0.356194,-0.157949 0.653911,-0.280896 0.661588,-0.273223 0.03501,0.03501 0.406781,1.698489 0.384567,1.720707 -0.01378,0.01378 -0.287585,0.07985 -0.608428,0.146813 -0.320838,0.06696 -0.623044,0.149541 -0.671559,0.183525 -0.04852,0.03398 -0.09939,0.06179 -0.113051,0.06179 -0.01367,0 -0.0538,-0.115011 -0.08917,-0.255583 z m 0.528431,0.04067 c 0.523887,-0.116364 0.889785,-0.221115 0.889702,-0.25471 0,-0.06785 -0.22272,-0.929682 -0.311387,-1.205853 -0.04512,-0.140569 -0.100608,-0.255583 -0.123278,-0.255583 -0.02267,0 -0.270645,0.09116 -0.551048,0.202574 -0.280399,0.111415 -0.539047,0.212887 -0.574775,0.225497 -0.05984,0.02111 -0.06056,0.03722 -0.009,0.204468 0.03077,0.09985 0.08912,0.330803 0.129624,0.513234 0.04051,0.182428 0.101882,0.391156 0.136371,0.463837 0.05549,0.116923 0.07857,0.131639 0.200382,0.127747 0.07572,-0.0025 0.171755,-0.01196 0.213405,-0.02121 z m 0.968739,-1.025127 c -0.107552,-0.432123 -0.203303,-0.811625 -0.21279,-0.843341 -0.01345,-0.04491 0.12985,-0.106428 0.64787,-0.278159 0.365814,-0.121266 0.671723,-0.213883 0.679799,-0.205806 0.03747,0.03747 0.360235,1.563591 0.332882,1.573959 -0.01708,0.0065 -0.295162,0.129552 -0.617954,0.273507 -0.322793,0.143957 -0.597554,0.262588 -0.610582,0.263631 -0.01301,9.2e-4 -0.111679,-0.351664 -0.219225,-0.783791 z m 0.890532,0.400726 0.496165,-0.189442 -0.09048,-0.422754 c -0.09287,-0.433877 -0.242033,-0.955377 -0.278843,-0.974857 -0.01136,-0.0061 -0.271045,0.06462 -0.577045,0.15699 -0.474735,0.143296 -0.5564,0.179043 -0.556649,0.243658 -3.1e-4,0.09513 0.159785,0.701395 0.287552,1.088595 0.07065,0.214132 0.113905,0.29261 0.159983,0.290349 0.03474,-0.0016 0.286431,-0.08835 0.559319,-0.192539 z m 0.60048,-0.962941 c -0.112491,-0.433083 -0.200791,-0.790656 -0.196217,-0.794609 0.0046,-0.0039 0.27886,-0.104559 0.609526,-0.223569 0.460831,-0.165854 0.608201,-0.205073 0.63114,-0.16796 0.01646,0.02664 0.08445,0.25413 0.151107,0.505548 0.08869,0.334568 0.122511,0.547668 0.126139,0.794821 l 0.0049,0.33769 -0.549028,0.176494 c -0.301965,0.09707 -0.554449,0.17256 -0.561066,0.16775 -0.0066,-0.0049 -0.104075,-0.363089 -0.216566,-0.796165 z m 0.531515,0.619478 c 0.04165,-0.0245 0.203518,-0.08952 0.359707,-0.144472 l 0.283983,-0.09991 -0.006,-0.318211 c -0.0056,-0.298171 -0.16252,-1.070358 -0.231332,-1.138215 -0.02643,-0.02605 -0.883781,0.236973 -0.984473,0.30204 -0.0374,0.02416 -0.01801,0.14305 0.08805,0.539529 0.255649,0.95581 0.237561,0.906225 0.330158,0.904958 0.04628,-6.21e-4 0.118215,-0.02121 0.159865,-0.04572 z M 19.172043,25.90117 c -0.03295,-0.241066 -0.165043,-0.809766 -0.251157,-1.081384 -0.05081,-0.160234 -0.05764,-0.224174 -0.02521,-0.235433 0.09356,-0.03246 1.557657,-0.391671 1.565295,-0.384036 0.02304,0.02304 0.250615,1.428278 0.234003,1.444892 -0.02782,0.02782 -1.36344,0.430638 -1.437231,0.43347 -0.04474,0.0016 -0.0677,-0.04585 -0.0857,-0.177509 z m 0.83521,-0.09764 c 0.316134,-0.107695 0.585306,-0.206555 0.598162,-0.219696 0.02155,-0.02204 -0.09781,-0.542678 -0.229916,-1.002726 l -0.05559,-0.193607 -0.633042,0.128376 c -0.348174,0.07062 -0.643383,0.132173 -0.656011,0.136809 -0.0287,0.01053 0.203315,1.080244 0.268341,1.23723 0.02627,0.06346 0.06702,0.114039 0.09053,0.112399 0.0235,-0.0016 0.301394,-0.09109 0.617532,-0.198785 z m 0.88571,-0.318864 c -0.08605,-0.321099 -0.312648,-1.340118 -0.300168,-1.349869 0.03894,-0.03043 1.323075,-0.486029 1.333874,-0.473242 0.02929,0.03469 0.302847,1.509312 0.283563,1.528596 -0.02807,0.02807 -1.174697,0.432091 -1.233351,0.434569 -0.02525,9.21e-4 -0.06299,-0.06196 -0.08392,-0.140054 z m 0.697751,-0.182694 c 0.22908,-0.07076 0.446323,-0.128879 0.482769,-0.129167 0.03644,-3.11e-4 0.06626,-0.02534 0.06626,-0.05566 0,-0.08485 -0.224342,-1.144102 -0.264911,-1.25081 l -0.0359,-0.09442 -0.370227,0.135976 c -0.203624,0.07478 -0.468787,0.170125 -0.589252,0.211871 -0.167408,0.05801 -0.214729,0.09058 -0.200781,0.138238 0.01004,0.0343 0.04562,0.173096 0.0791,0.308461 0.03346,0.135362 0.103071,0.386688 0.154673,0.558495 0.111296,0.370597 0.0789,0.362139 0.678273,0.177015 z m 0.833191,-0.252745 c -0.05401,-0.227819 -0.28294,-1.405229 -0.27468,-1.412684 0.0052,-0.0047 0.282073,-0.08417 0.615277,-0.176622 l 0.605828,-0.168093 0.04344,0.249211 c 0.02391,0.137064 0.08641,0.359959 0.138917,0.495323 0.05251,0.135366 0.105965,0.350335 0.118787,0.477711 l 0.02332,0.231586 -0.578738,0.190491 c -0.318306,0.104773 -0.599708,0.192244 -0.625341,0.194383 -0.02566,0.0022 -0.0557,-0.03444 -0.0668,-0.08131 z m 0.529918,-0.219243 c 0.187428,-0.06173 0.406098,-0.13027 0.485933,-0.152323 0.11511,-0.0318 0.139527,-0.05334 0.117973,-0.104046 -0.01494,-0.03517 -0.04016,-0.132107 -0.05602,-0.215408 -0.0465,-0.244177 -0.194957,-0.907796 -0.205645,-0.919223 -0.03012,-0.03222 -1.017399,0.245246 -1.034905,0.290852 -0.04277,0.111436 0.236845,1.216103 0.30725,1.213821 0.02456,-9.21e-4 0.19799,-0.05195 0.385418,-0.113673 z m -4.242824,-0.781005 c -0.08767,-0.684778 -0.133186,-0.890554 -0.191989,-0.867991 -0.03502,0.01345 -0.05209,-0.0089 -0.05209,-0.06823 0,-0.07983 0.02071,-0.09011 0.217717,-0.108236 0.119746,-0.01103 0.461955,-0.09998 0.760464,-0.197705 0.29851,-0.09773 0.548557,-0.171879 0.555662,-0.164774 0.01636,0.01637 0.320701,1.33229 0.310284,1.341617 -0.02285,0.02046 -1.524298,0.497058 -1.534909,0.487214 -0.0069,-0.0064 -0.03626,-0.196292 -0.06514,-0.421898 z m 0.475345,0.174251 c 0.48751,-0.127058 0.989062,-0.306251 1.010016,-0.360849 0.02363,-0.06159 -0.03677,-0.334176 -0.165735,-0.747904 -0.08372,-0.268569 -0.10054,-0.29505 -0.175005,-0.275515 -0.04531,0.01189 -0.343612,0.08484 -0.66289,0.16212 -0.534312,0.129316 -0.579148,0.146723 -0.563386,0.218715 0.0094,0.04302 0.06483,0.303981 0.123124,0.579914 0.0583,0.275935 0.115871,0.500764 0.127944,0.499619 0.01207,-0.0012 0.149742,-0.03539 0.305932,-0.0761 z m 1.266875,-0.350036 c -0.122649,-0.48867 -0.271047,-1.223953 -0.250956,-1.243417 0.02152,-0.02083 1.411379,-0.448757 1.457561,-0.448757 0.02376,0 0.271229,1.281762 0.251036,1.30025 -0.0272,0.02491 -1.337171,0.475049 -1.389084,0.477323 -0.02565,0.0012 -0.05649,-0.03731 -0.06855,-0.0854 z m 0.777788,-0.267759 c 0.281139,-0.08737 0.534822,-0.167504 0.56374,-0.178088 0.09788,-0.03582 -0.166777,-1.092999 -0.274406,-1.096123 -0.02378,-6.21e-4 -0.31158,0.08006 -0.639579,0.179434 -0.680595,0.206208 -0.643389,0.161933 -0.519181,0.617725 0.155053,0.56901 0.187102,0.643224 0.276108,0.639413 0.04518,-0.0018 0.312176,-0.075 0.593318,-0.162361 z m 0.705474,-0.782586 c -0.08056,-0.355023 -0.140187,-0.650248 -0.132524,-0.656048 0.02258,-0.01708 1.123879,-0.326559 1.162085,-0.326559 0.01919,0 0.0458,0.06811 0.0591,0.15135 0.01332,0.08325 0.0666,0.247234 0.118432,0.364424 0.05183,0.117184 0.09422,0.253201 0.09422,0.302251 0,0.04905 0.0277,0.158388 0.06154,0.242977 0.03385,0.08459 0.05514,0.159889 0.04733,0.167339 -0.01928,0.01838 -1.178213,0.393841 -1.22586,0.397142 -0.02083,0.0016 -0.103772,-0.287848 -0.184331,-0.642876 z m 0.752294,0.360256 c 0.208254,-0.06927 0.41698,-0.127139 0.463834,-0.128583 0.09008,-0.0028 0.10852,-0.03959 0.04967,-0.09918 -0.01954,-0.01979 -0.08705,-0.238938 -0.150021,-0.487009 -0.06297,-0.248075 -0.127919,-0.463452 -0.14433,-0.478621 -0.02201,-0.02037 -0.96051,0.207716 -1.024223,0.248916 -0.01425,0.0092 0.202586,0.85003 0.251236,0.974189 0.0507,0.12943 0.08018,0.127851 0.553835,-0.02972 z m -4.297627,-0.462523 c -2.9e-5,-0.09892 -0.04053,-0.350241 -0.09003,-0.558495 -0.04948,-0.208253 -0.100403,-0.473857 -0.113153,-0.590234 l -0.0232,-0.211595 0.761418,-0.197233 c 0.418782,-0.108476 0.766942,-0.191705 0.773698,-0.184955 0.0263,0.0263 0.257353,1.466988 0.238331,1.486013 -0.02876,0.02876 -1.400913,0.430732 -1.480775,0.433806 -0.05416,0.0022 -0.06627,-0.0303 -0.06631,-0.177307 z m 0.87744,-0.155912 c 0.305548,-0.07587 0.565938,-0.148342 0.578649,-0.161048 0.02491,-0.02491 -0.255283,-1.230583 -0.295265,-1.270569 -0.02425,-0.02425 -1.2333,0.247526 -1.28098,0.287959 -0.02612,0.02214 -0.02174,0.0485 0.1165,0.70321 0.104581,0.495292 0.143554,0.587995 0.244949,0.582642 0.04433,-0.0025 0.330594,-0.06632 0.636147,-0.142194 z m 0.708582,-0.819087 c -0.10058,-0.374854 -0.183325,-0.707114 -0.18388,-0.73835 -9.21e-4,-0.04315 0.180703,-0.09707 0.755725,-0.224521 0.416203,-0.09225 0.762283,-0.160405 0.769059,-0.151456 0.01643,0.02171 0.218243,1.333846 0.20626,1.341088 -0.07374,0.04456 -1.273403,0.467025 -1.311582,0.461889 -0.03478,-0.0047 -0.114951,-0.239048 -0.235582,-0.68865 z m 0.91306,0.342768 c 0.432023,-0.139644 0.513091,-0.177919 0.523617,-0.247231 0.01841,-0.121211 -0.09819,-0.814969 -0.163069,-0.970239 -0.04144,-0.09918 -0.07363,-0.129179 -0.123134,-0.114752 -0.03686,0.01075 -0.336051,0.07478 -0.66486,0.142314 l -0.59783,0.122783 0.02478,0.116063 c 0.03231,0.15141 0.194051,0.668141 0.288169,0.920671 0.04967,0.133263 0.09504,0.198264 0.13763,0.197202 0.03494,-9.2e-4 0.293568,-0.07594 0.574707,-0.166811 z m 0.72363,-0.73131 c -0.08562,-0.35947 -0.15567,-0.676949 -0.15567,-0.705502 0,-0.06405 1.123614,-0.353658 1.173742,-0.302534 0.102711,0.104755 0.367081,1.260042 0.300621,1.313679 -0.05534,0.04465 -1.119044,0.392577 -1.138836,0.37249 -0.01329,-0.01351 -0.09423,-0.318656 -0.179857,-0.678133 z m 0.750856,0.367041 c 0.238272,-0.08154 0.444889,-0.161169 0.459148,-0.176965 0.03324,-0.03683 -0.04915,-0.433167 -0.17323,-0.83339 l -0.09687,-0.31244 -0.09274,0.06076 c -0.06789,0.04448 -0.70512,0.184886 -0.92228,0.20321 -0.0078,6.21e-4 0.0047,0.02385 0.02766,0.05152 0.02299,0.02766 0.08452,0.236401 0.136782,0.463832 0.126528,0.550642 0.169276,0.698063 0.201421,0.69461 0.01478,-0.0016 0.221833,-0.0696 0.460107,-0.15114 z m -4.37165,-0.820974 c -0.02062,-0.153749 -0.136517,-0.686347 -0.192805,-0.886068 -0.0142,-0.05035 0.02136,-0.0677 0.182531,-0.08905 0.231706,-0.03072 1.060246,-0.221978 1.211922,-0.279766 0.09807,-0.03736 0.104751,-0.03248 0.138791,0.101382 0.06069,0.238666 0.204452,0.894888 0.208611,0.952229 0.0028,0.03996 -0.176195,0.09642 -0.677618,0.21362 -0.374857,0.08761 -0.718849,0.161147 -0.764429,0.163405 -0.07108,0.0036 -0.08631,-0.02149 -0.107003,-0.175751 z m 0.812862,-0.07126 c 0.342647,-0.07167 0.627462,-0.134772 0.632927,-0.140241 0.01332,-0.01332 -0.237784,-0.856061 -0.262436,-0.880716 -0.01065,-0.01065 -0.238548,0.01808 -0.506427,0.06381 -0.267877,0.04575 -0.550945,0.09105 -0.62904,0.100667 -0.16429,0.02025 -0.164101,0.01928 -0.08209,0.416284 0.04924,0.238404 0.180607,0.588544 0.215389,0.57411 0.0048,-0.0018 0.289038,-0.06224 0.631682,-0.133908 z m 0.892547,-0.174863 c -0.09108,-0.399755 -0.20922,-0.99479 -0.20922,-1.053757 0,-0.05128 0.02649,-0.07271 0.08991,-0.07271 0.175074,0 1.013581,-0.157406 1.223813,-0.229735 0.117293,-0.04035 0.216293,-0.06908 0.220001,-0.06381 0.02521,0.03578 0.24474,1.140323 0.229646,1.155417 -0.02214,0.02214 -1.372233,0.339893 -1.469202,0.345792 -0.03883,0.0025 -0.07345,-0.03074 -0.08496,-0.08121 z m 0.860443,-0.193479 c 0.64067,-0.135583 0.596067,-0.08286 0.499723,-0.590756 -0.09616,-0.506899 -0.08565,-0.493671 -0.345638,-0.435204 -0.121189,0.02727 -0.416295,0.06935 -0.655787,0.09354 -0.239489,0.02419 -0.450233,0.05814 -0.468321,0.07543 -0.03253,0.03109 0.04581,0.44409 0.152145,0.802163 0.0656,0.220916 0.04088,0.219258 0.817878,0.05483 z m 0.822073,0.0042 c -9.2e-4,-0.0052 -0.05715,-0.292936 -0.125208,-0.639398 l -0.123738,-0.629931 0.19147,-0.03969 c 0.105306,-0.02182 0.285185,-0.06001 0.399726,-0.08484 0.114538,-0.02485 0.287228,-0.05672 0.383756,-0.07084 l 0.175503,-0.02571 0.02295,0.195369 c 0.01264,0.107456 0.0555,0.270278 0.09528,0.361831 0.03977,0.09155 0.08374,0.25318 0.0977,0.359176 l 0.02537,0.192715 -0.523353,0.193016 c -0.470481,0.173519 -0.614958,0.217436 -0.619479,0.1883 z m 0.626003,-0.334114 c 0.228947,-0.08101 0.422696,-0.166546 0.430547,-0.190094 0.0079,-0.02354 -0.02055,-0.104792 -0.06312,-0.180543 -0.06912,-0.122997 -0.105621,-0.243434 -0.175515,-0.579048 -0.0195,-0.09368 -0.03196,-0.09928 -0.18204,-0.08194 -0.08861,0.01025 -0.248919,0.0427 -0.35625,0.07214 -0.107331,0.02944 -0.229856,0.05354 -0.27228,0.05354 -0.04241,0 -0.08513,0.01295 -0.0949,0.02876 -0.01857,0.03003 0.100099,0.811653 0.144398,0.951223 0.03349,0.105515 0.07805,0.09972 0.569162,-0.07404 z M 5.479525,24.979806 C 3.7208935,24.873589 3.0764459,24.784497 2.9480893,24.62984 2.9271291,24.604563 2.8578583,24.303086 2.7941799,23.959883 2.7304953,23.616678 2.4300825,22.100553 2.1265861,20.590722 1.8230899,19.08089 1.4914107,17.416476 1.3895166,16.892023 1.2876225,16.367569 1.1785895,15.839365 1.1472178,15.718234 1.0044032,15.16676 0.82217432,14.255663 0.82158756,14.090149 0.82127694,13.989804 0.78729986,13.779911 0.74619308,13.623723 0.70508332,13.467531 0.6603312,13.224729 0.64674596,13.084157 L 0.62202847,12.828574 H 17.874594 c 17.227307,0 17.252552,-10e-5 17.252552,-0.07573 0,-0.0589 0.02525,-0.07573 0.113591,-0.07573 0.08811,0 0.113592,0.0169 0.113592,0.07524 0,0.07477 0.0439,0.0753 7.052194,0.0852 7.536041,0.01065 7.184725,0.01866 7.184725,-0.16419 0,-0.03726 -0.04472,-0.115554 -0.09938,-0.173984 -0.05466,-0.05844 -0.07787,-0.0761 -0.05158,-0.03927 0.03969,0.05559 0.03633,0.07965 -0.01972,0.141594 -0.06673,0.07374 -0.150531,0.07463 -7.053306,0.07522 -5.129465,3.1e-4 -6.999443,-0.01075 -7.037221,-0.04211 -0.03716,-0.03083 -0.05269,-0.159644 -0.05593,-0.464032 -0.0049,-0.452704 -0.05862,-0.403194 -0.06677,0.06143 l -0.0044,0.255583 H 17.917892 0.63291224 v -0.104429 c 0,-0.05744 0.0425976,-0.184449 0.094659,-0.282247 0.0520652,-0.0978 0.094659,-0.223438 0.094659,-0.279195 0,-0.09945 0.10659229,-0.219119 0.49757146,-0.558604 0.1619053,-0.140585 0.649301,-0.699147 0.7115355,-0.815433 l 0.043079,-0.08049 h 10.3719168 10.37192 l 0.07725,0.250105 c 0.08459,0.273848 0.09897,0.509441 0.03805,0.623259 -0.03831,0.07158 -0.123938,0.0734 -3.758016,0.08045 -2.774098,0.0054 -3.377346,0.0136 -2.374642,0.03242 0.739296,0.01388 2.409963,0.03894 3.712591,0.05571 l 2.368409,0.0305 0.08329,-0.105888 c 0.100907,-0.128284 0.111807,-0.406141 0.02688,-0.686016 -0.03102,-0.10223 -0.05657,-0.207171 -0.05679,-0.233204 -3.12e-4,-0.03752 0.723499,-0.04745 3.492558,-0.04788 3.199057,-6.21e-4 3.507301,-0.006 3.663356,-0.06512 0.146078,-0.05536 0.397264,-0.06833 1.760681,-0.09092 1.793707,-0.02972 2.173819,-0.07054 2.239006,-0.2404107 0.01779,-0.04637 0.10081,-0.057365 0.433135,-0.057365 0.382723,0 0.41415,-0.00565 0.454962,-0.081919 0.06531,-0.1220274 0.02236,-0.5513559 -0.07333,-0.7331685 C 34.784738,8.8682537 34.589402,8.697511 33.555767,7.9180088 33.035134,7.5253839 32.453898,7.0809704 32.264134,6.9304271 L 31.919101,6.6567159 h -3.824214 -3.824215 l -0.02388,-0.1987888 c -0.01314,-0.1093311 -0.02403,-0.3021052 -0.02421,-0.4283782 -6.21e-4,-0.337725 0.147876,-1.3960681 0.209731,-1.496155 0.01289,-0.020867 1.23249,-0.034937 3.027775,-0.034937 h 3.00618 l 0.122082,0.1519158 0.122081,0.1519158 2.899367,-0.010402 c 1.594652,-0.00571 2.939537,-0.022327 2.988631,-0.036934 0.175441,-0.052149 0.346174,-0.2153645 0.346174,-0.3309369 0,-0.081555 0.04358,-0.1468016 0.175718,-0.2631194 0.182827,-0.1609334 0.221453,-0.1787231 0.258367,-0.1190007 0.01214,0.019625 0.0988,0.047187 0.192607,0.061256 0.10975,0.016458 0.18416,0.050988 0.208703,0.096845 0.02099,0.0392 0.06112,0.071274 0.0892,0.071274 0.06722,0 0.32492,0.2866537 0.32492,0.3614332 0,0.080943 -0.285183,0.4592811 -0.388456,0.5153456 -0.08583,0.0466 -0.407663,0.055859 -0.566404,0.016302 -0.04753,-0.01183 -0.01826,0.011955 0.06504,0.052869 0.08393,0.041228 0.231058,0.074841 0.329996,0.075395 0.217457,0.00124 0.394672,-0.1342877 0.503862,-0.3852501 0.03897,-0.089532 0.07741,-0.1713079 0.08544,-0.1817196 0.0081,-0.010402 0.877935,-0.02745 1.933098,-0.037865 l 1.918481,-0.018942 0.01292,-0.094659 c 0.03243,-0.2377219 0.256977,-0.3474038 0.644166,-0.314675 0.242059,0.020463 0.304933,0.040346 0.386488,0.122227 0.09022,0.090582 0.102323,0.1452241 0.164179,0.7414757 0.08696,0.8382216 0.194652,1.4304335 0.302971,1.6660252 0.1524,0.3314741 0.753006,1.0116905 1.265249,1.4329547 0.746463,0.6138862 0.968315,0.7648548 1.200074,0.8166403 0.12478,0.027885 0.352676,0.091718 0.506434,0.1418613 0.153757,0.050146 0.288041,0.082694 0.298407,0.07233 0.01037,-0.010371 -0.0068,-0.07483 -0.03808,-0.1432554 -0.100025,-0.2186219 -0.111626,-0.3631473 -0.0312,-0.3886721 0.08306,-0.026363 0.808175,0.2410974 1.025408,0.3782324 0.08693,0.054875 0.205736,0.094281 0.284254,0.094281 0.09855,0 0.188035,0.040281 0.332064,0.1494781 0.10844,0.082213 0.216522,0.181111 0.240187,0.2197769 0.02367,0.038663 0.148863,0.1119675 0.278224,0.162899 0.261923,0.1031269 0.582448,0.3971703 0.754387,0.6920623 0.05399,0.09259 0.181822,0.272475 0.284085,0.399739 l 0.185927,0.231388 1.991261,0.0015 1.991255,0.0015 0.151456,0.135868 c 0.09307,0.08349 0.133216,0.142486 0.104127,0.153034 -0.02603,0.0094 -0.04733,0.04983 -0.04733,0.08974 0,0.03992 -0.01705,0.07257 -0.03787,0.07257 -0.02084,0 -0.03787,-0.02146 -0.03787,-0.04769 0,-0.02624 -0.03833,-0.07308 -0.0852,-0.104127 -0.07184,-0.04759 -0.399532,-0.05941 -2.090959,-0.07537 L 50.104427,11.2571 49.662215,10.692725 c -0.243201,-0.310359 -0.47369,-0.58144 -0.512182,-0.602354 -0.03849,-0.02093 -0.110648,-0.07791 -0.160346,-0.1266453 -0.103689,-0.1017016 -0.155757,-0.1127809 -0.155757,-0.033142 0,0.030524 -0.05172,0.1370083 -0.114918,0.2366513 -0.207753,0.327524 -0.283843,0.719942 -0.159598,0.823056 0.314896,0.26133 0.622,0.585682 0.710564,0.750472 0.05851,0.108865 0.168674,0.274611 0.244799,0.368326 0.135144,0.166365 0.315941,0.587905 0.295127,0.688107 -0.0084,0.04031 0.127991,0.05024 0.690047,0.05024 0.668162,0 0.707735,0.0041 0.857512,0.08998 0.149953,0.08593 0.24055,0.209574 0.24055,0.328311 0,0.0464 0.12718,0.05502 0.812231,0.05502 0.599829,0 0.869255,0.01485 1.030288,0.05679 0.11993,0.03124 0.272289,0.05679 0.338572,0.05679 0.07438,0 0.129215,0.02267 0.143241,0.05921 0.01565,0.04078 0.06112,0.05552 0.14604,0.04733 l 0.12332,-0.01189 -0.007,-0.242991 c -0.0049,-0.171327 -0.02835,-0.271829 -0.07933,-0.340778 -0.07559,-0.102247 -0.197621,-0.32513 -0.197621,-0.360954 0,-0.03981 14.382687,-0.02279 14.407304,0.01705 0.03051,0.04938 0.613176,0.04938 0.643694,0 0.01441,-0.02332 0.334861,-0.03786 0.835237,-0.03786 h 0.811855 V 12.001222 11.43901 l -0.199,0.03429 c -0.21007,0.03619 -0.536588,-0.01615 -0.842267,-0.135018 -0.218877,-0.08512 -0.480943,-0.0752 -0.886937,0.03357 -0.281834,0.0755 -0.363283,0.08544 -0.387529,0.04724 -0.01689,-0.02661 -0.03096,-0.05835 -0.03126,-0.07057 0,-0.01221 0.204956,-0.08635 0.456173,-0.164762 0.447347,-0.139625 0.461899,-0.141589 0.706909,-0.09536 0.137588,0.02596 0.305819,0.08497 0.373842,0.131139 0.140966,0.09565 0.383939,0.144954 0.536227,0.108788 0.122364,-0.02906 0.235983,-0.11993 0.235983,-0.188731 0,-0.04631 0.224904,-0.242175 0.278084,-0.242175 0.01367,0 0.02485,0.03408 0.02485,0.07572 0,0.05378 0.02525,0.07573 0.08709,0.07573 0.04789,0 0.103281,0.01524 0.123056,0.03391 0.03149,0.02969 2.035115,0.108809 3.273359,0.129285 l 0.435435,0.0072 0.01146,0.198786 0.01142,0.198786 -1.450278,0.009 -1.450288,0.009 1.410445,0.0104 1.410439,0.0104 v 0.16529 c 0,0.09091 -0.02129,0.181819 -0.04733,0.202015 -0.02603,0.02022 -0.354027,0.06516 -0.728881,0.09992 -0.374853,0.03475 -0.741196,0.0687 -0.814079,0.07545 -0.0729,0.0067 0.27413,0.01497 0.771159,0.01832 l 0.903692,0.0061 -0.02605,0.104123 c -0.01432,0.05727 -0.0352,0.159505 -0.04642,0.227186 l -0.02037,0.123059 H 73.04396 71.363154 v 0.106018 c 0,0.217684 -0.171585,0.254254 -0.493399,0.105161 l -0.197993,-0.09175 -8.21849,-0.004 -8.218484,-0.004 0.07093,0.07839 c 0.05723,0.06323 0.07135,0.14088 0.07315,0.401748 0.0033,0.475509 -0.02506,0.486792 -0.849728,0.338709 -0.229395,-0.04119 -0.585598,-0.05801 -1.240051,-0.05854 l -0.918206,-9.21e-4 v -0.168774 c 0,-0.147351 -0.01674,-0.182136 -0.131902,-0.274021 l -0.131899,-0.105248 -0.738928,-6.21e-4 c -0.406405,-3.02e-4 -0.738944,0.0061 -0.738969,0.01425 -2.9e-5,0.0082 0.02978,0.03739 0.06621,0.06505 0.04949,0.03757 0.245927,0.05061 0.776214,0.0515 0.658579,0.0012 0.715432,0.0067 0.785682,0.07693 0.09116,0.09116 0.101549,0.295383 0.01667,0.327949 -0.03248,0.01245 -0.201214,0.30662 -0.374975,0.653682 -0.377493,0.754004 -0.367274,0.745864 -0.834387,0.664408 -0.314025,-0.05477 -0.404778,-0.08178 -0.79519,-0.23675 -0.261845,-0.103934 -0.435435,-0.138166 -0.435435,-0.08587 0,0.02313 0.02981,0.05149 0.06626,0.06302 0.03645,0.01153 0.125897,0.04353 0.198786,0.07114 0.07289,0.0276 0.361682,0.113964 0.641764,0.19192 0.451377,0.125631 0.526671,0.136977 0.66262,0.09986 0.181269,-0.04949 0.185992,-0.04527 0.346702,0.309706 l 0.109595,0.242088 0.217721,0.02509 c 0.119743,0.01378 0.217718,0.03361 0.217718,0.04402 0,0.0104 -0.02298,0.06494 -0.05103,0.121178 -0.121013,0.24246 -0.149627,0.919776 -0.125193,2.96332 0.01307,1.092047 0.03385,2.03695 0.04619,2.099786 0.02242,0.114174 0.02221,0.114335 -0.311864,0.22715 -0.287844,0.0972 -0.384325,0.111992 -0.694026,0.106412 -0.387725,-0.0069 -1.060085,-0.133688 -1.206235,-0.227307 -0.06524,-0.04179 -0.07797,-0.06844 -0.04733,-0.09908 0.02304,-0.02304 0.04191,-0.158578 0.04191,-0.301165 0,-0.142591 0.03825,-0.45866 0.08498,-0.702382 0.07394,-0.385507 0.08501,-0.566209 0.0852,-1.38973 0,-0.601328 -0.01808,-1.06232 -0.0499,-1.263851 -0.05321,-0.336793 -0.229269,-0.885592 -0.352248,-1.097968 -0.07125,-0.123042 -0.07148,-0.130714 -0.0062,-0.204379 0.118067,-0.133266 0.76742,-0.403543 1.149785,-0.478558 l 0.167541,-0.03287 -0.156937,-0.0042 c -0.189408,-0.005 -0.596869,0.116059 -0.892715,0.265245 -0.262622,0.132434 -0.375744,0.136788 -0.533703,0.02055 -0.06629,-0.04878 -0.255701,-0.161691 -0.420907,-0.250901 -0.249034,-0.13447 -0.312333,-0.154726 -0.370336,-0.118503 -0.05976,0.03732 -0.07945,0.02708 -0.135063,-0.07038 -0.03581,-0.06273 -0.116219,-0.133536 -0.178692,-0.157338 -0.07003,-0.02667 -0.50913,-0.05047 -1.144936,-0.06203 -0.88511,-0.01609 -1.043912,-0.01053 -1.120031,0.03936 -0.14619,0.09579 -0.725062,0.2863 -1.107032,0.36433 -0.196867,0.04022 -0.421376,0.112332 -0.498916,0.160251 -0.344495,0.212909 -1.791463,1.461705 -2.170997,1.873667 -0.167025,0.1813 -0.579703,0.742367 -1.834538,2.494219 -1.237734,1.727981 -2.392859,3.27144 -2.909485,3.887599 -0.470761,0.561465 -0.723704,0.750263 -1.389925,1.037451 l -0.432901,0.186611 -3.251429,0.01009 -3.251429,0.01009 0.02409,-0.08582 c 0.01326,-0.0472 0.04105,-0.537346 0.06176,-1.089215 0.06356,-1.692857 0.09849,-1.867127 0.565547,-2.820881 0.30431,-0.621419 0.57667,-1.040894 1.081722,-1.66602 0.201904,-0.249905 0.381009,-0.490639 0.398012,-0.534968 0.01699,-0.04433 0.13803,-0.172123 0.268946,-0.283984 0.419344,-0.358297 0.47354,-0.428108 0.576026,-0.742016 0.127277,-0.38982 0.152553,-0.595634 0.104857,-0.85366 -0.04412,-0.238604 -0.261207,-0.611117 -0.477074,-0.818607 -0.07399,-0.07112 -0.133561,-0.16578 -0.133561,-0.212228 0,-0.171522 0.714728,-0.734913 1.044069,-0.823003 0.142979,-0.03824 0.19987,-0.03232 0.453288,0.04716 0.235026,0.07371 0.314125,0.119311 0.41855,0.241306 0.07082,0.08273 0.128757,0.171981 0.128757,0.198326 0,0.02633 0.09406,0.124518 0.209018,0.218162 0.23865,0.194404 0.404707,0.235557 0.812528,0.201369 0.31801,-0.02667 0.625878,-0.150503 1.062911,-0.427553 0.304149,-0.192813 0.373435,-0.220463 0.642787,-0.256526 0.215951,-0.0289 0.301888,-0.05567 0.301888,-0.09398 0,-0.04322 -0.04565,-0.04855 -0.236651,-0.0276 -0.267783,0.02937 -0.439045,0.106891 -0.71089,0.32177 -0.404138,0.319455 -0.927204,0.410306 -1.551492,0.269479 -0.197842,-0.04462 -0.38371,-0.104888 -0.413036,-0.133912 -0.02931,-0.02903 -0.09748,-0.13466 -0.151456,-0.234743 -0.125519,-0.232763 -0.413802,-0.389334 -0.7694,-0.417878 -0.314375,-0.02525 -0.415598,0.02105 -0.896311,0.409986 -0.216284,0.174982 -0.414098,0.33367 -0.439588,0.35264 -0.05307,0.03949 -0.60885,-0.294414 -0.66515,-0.399608 -0.03105,-0.05802 -0.05182,-0.0589 -0.233316,-0.0097 -0.109573,0.02966 -0.41329,0.07392 -0.674928,0.09835 -0.405154,0.03782 -0.529433,0.03548 -0.837985,-0.01583 -0.317141,-0.05274 -0.399414,-0.05374 -0.660223,-0.0082 -0.384983,0.06738 -1.321058,0.328727 -2.224939,0.621209 -0.393438,0.12731 -0.862007,0.265127 -1.041264,0.306266 -0.45136,0.103577 -0.511226,0.133185 -0.60436,0.298891 -0.04489,0.07989 -0.105506,0.154413 -0.134676,0.165607 -0.02919,0.01122 -0.06492,0.07447 -0.07945,0.14061 -0.01565,0.07123 -0.126826,0.229673 -0.272742,0.388675 -0.135484,0.147633 -0.281639,0.341097 -0.324792,0.429915 -0.04315,0.08882 -0.09667,0.168065 -0.118932,0.176102 -0.02227,0.0081 -1.323208,0.275776 -2.890987,0.594976 l -2.850518,0.580362 -0.05771,-0.08239 c -0.03174,-0.04532 -0.09508,-0.08245 -0.140753,-0.08254 -0.04567,-7.4e-5 -0.138836,-0.03415 -0.20702,-0.07572 -0.06819,-0.04158 -0.167135,-0.07558 -0.219883,-0.07558 -0.05276,0 -0.169339,-0.01848 -0.25908,-0.04108 -0.137095,-0.03452 -0.212821,-0.0277 -0.473894,0.04275 -0.371488,0.100239 -0.609449,0.265457 -1.049273,0.728511 -0.334039,0.351689 -0.499612,0.481474 -0.614246,0.481474 -0.04299,0 -0.193712,-0.0737 -0.334931,-0.163787 -0.644608,-0.411184 -0.848475,-0.376074 -1.752396,0.301813 -0.239492,0.179606 -0.629949,0.490384 -0.867684,0.690623 -0.237733,0.200239 -0.569994,0.480123 -0.738351,0.621969 -0.168358,0.141842 -0.5190903,0.412631 -0.7794068,0.60175 -0.6330069,0.459881 -0.8708757,0.665058 -0.8708757,0.751199 0,0.03932 -0.052981,0.125698 -0.1177425,0.191945 -0.110528,0.113022 -0.1167692,0.134394 -0.1013803,0.347157 0.010402,0.143722 0.037508,0.24219 0.074061,0.268966 0.031709,0.02323 0.087653,0.100299 0.1243236,0.171256 0.036663,0.07095 0.1441217,0.211815 0.2387842,0.313023 0.1517446,0.162224 0.1673631,0.194456 0.131924,0.272245 -0.062115,0.136331 -0.5192118,0.440955 -0.8187679,0.545655 -0.1482759,0.05183 -0.3888641,0.107019 -0.534641,0.122643 -0.299857,0.03215 -1.2125413,0.01441 -2.1393232,-0.04156 z m 2.3286442,-0.142572 c 0.062471,-0.01674 0.2778532,-0.119038 0.4786207,-0.227358 0.3184756,-0.171822 0.3671369,-0.211302 0.3815549,-0.30956 0.011549,-0.07879 -0.00561,-0.132505 -0.057258,-0.178823 -0.040579,-0.03641 -0.1435067,-0.168438 -0.2287291,-0.293389 -0.1303163,-0.191063 -0.1572914,-0.26352 -0.1696809,-0.455728 -0.010619,-0.164703 0.00435,-0.270477 0.0535,-0.378643 0.037524,-0.08254 0.077627,-0.191786 0.089113,-0.242739 0.01441,-0.064 0.1926592,-0.222066 0.5763724,-0.511166 0.3055168,-0.230186 0.7341445,-0.567231 0.9525019,-0.748987 1.1222819,-0.934164 2.1853509,-1.714017 2.6772239,-1.963967 0.415408,-0.211095 0.854519,-0.134993 1.367141,0.236943 0.05265,0.03821 0.09585,0.0085 0.283983,-0.195231 0.298084,-0.32282 0.723625,-0.682653 0.926791,-0.783697 0.09129,-0.0454 0.30227,-0.117647 0.468874,-0.160555 0.338681,-0.08723 0.471744,-0.07928 1.190895,0.07117 0.463749,0.09702 0.07453,0.150441 3.163481,-0.434203 1.145391,-0.216788 2.205886,-0.414259 2.356658,-0.43883 0.263903,-0.04301 0.277547,-0.05047 0.365576,-0.200109 0.05029,-0.08549 0.200131,-0.283225 0.332974,-0.439417 0.132838,-0.156189 0.286267,-0.360657 0.340955,-0.454369 0.219336,-0.375867 0.301513,-0.432244 0.901415,-0.618404 0.778307,-0.24152 2.927381,-0.842806 3.207653,-0.897463 0.183061,-0.0357 0.330204,-0.03592 0.662622,-9.2e-4 0.459126,0.0482 1.167525,0.01398 1.612122,-0.07785 0.224347,-0.04633 0.237735,-0.04485 0.311952,0.03481 0.04265,0.04579 0.0923,0.08324 0.110349,0.08324 0.01805,0 0.104186,0.05964 0.19143,0.132525 0.08724,0.07289 0.169789,0.132287 0.183436,0.132001 0.01367,-3e-4 0.135567,-0.09575 0.270933,-0.212141 0.135364,-0.116385 0.337907,-0.273462 0.450092,-0.349058 0.20245,-0.136415 0.206989,-0.137449 0.605828,-0.138104 0.54684,-9.21e-4 0.721644,0.06353 0.954611,0.351828 0.09577,0.11851 0.192597,0.250555 0.215178,0.293433 0.03218,0.06109 0.107061,0.08868 0.346016,0.127484 0.521078,0.08462 0.826391,0.0136 1.283802,-0.298621 0.378475,-0.258344 0.564495,-0.315511 1.085741,-0.333658 0.707421,-0.02462 1.172922,-0.02757 2.79367,-0.01773 1.395319,0.0085 1.50806,0.01403 1.53034,0.07541 0.01324,0.03644 0.150636,0.199832 0.305347,0.363084 0.154714,0.163254 0.31347,0.36956 0.352792,0.458456 0.09454,0.213719 0.150671,0.628244 0.123298,0.91052 -0.05155,0.531524 -0.559993,1.291192 -2.270171,3.391856 -0.314904,0.386803 -0.594006,0.743367 -0.620226,0.792363 -0.127407,0.238058 -2.259513,2.831399 -2.62299,3.190407 -0.448462,0.442957 -0.602866,0.484244 -1.90892,0.51042 -0.766547,0.01538 -0.948683,0.0085 -1.116991,-0.04196 -0.11061,-0.03318 -0.251906,-0.06491 -0.314001,-0.07051 -0.0836,-0.0075 -0.119852,-0.03476 -0.139703,-0.104856 -0.01474,-0.05206 -0.07044,-0.231279 -0.123755,-0.398255 -0.119811,-0.375193 -0.12681,-0.696152 -0.02124,-0.973916 0.04164,-0.109558 0.07571,-0.235878 0.07572,-0.28072 0,-0.253192 0.553842,-1.539229 1.34264,-3.117989 0.541815,-1.084427 0.860694,-1.629505 1.057108,-1.806952 0.148021,-0.133728 0.149499,-0.134116 0.426835,-0.113144 l 0.278297,0.02105 3.1e-4,-0.233728 c 9.22e-4,-0.628304 0.168824,-1.35534 0.416331,-1.801847 0.06251,-0.112753 0.107192,-0.211458 0.09931,-0.219346 -0.02879,-0.02879 -0.390089,0.130177 -0.643371,0.283083 -0.427543,0.25811 -0.690159,0.330589 -1.197819,0.330589 -0.394262,0 -0.451382,-0.0089 -0.604059,-0.09466 -0.09274,-0.05207 -0.225897,-0.171338 -0.295901,-0.26505 -0.24308,-0.325413 -0.322199,-0.390943 -0.569882,-0.472003 -0.338697,-0.11085 -0.461581,-0.06826 -0.84981,0.294503 l -0.331785,0.310023 0.2242,0.273665 c 0.316916,0.386834 0.36364,0.529349 0.36364,1.109173 v 0.474099 l -0.15947,0.264251 c -0.148479,0.246032 -0.585018,0.737554 -0.655052,0.737554 -0.01705,0 -0.07932,0.07435 -0.138343,0.165242 -0.05903,0.09088 -0.223298,0.308124 -0.365033,0.482765 -0.29659,0.365448 -0.819604,1.143189 -1.026707,1.526753 -0.205039,0.379751 -0.422322,0.943402 -0.489907,1.270875 -0.03223,0.156192 -0.07717,0.60772 -0.09986,1.0034 -0.0227,0.395681 -0.05681,0.796094 -0.07583,0.889809 -0.01901,0.09371 -0.03532,0.30244 -0.03622,0.463833 l -0.0016,0.293449 h 3.065177 3.065179 l 0.484583,-0.219787 c 0.266522,-0.120879 0.576838,-0.286356 0.689587,-0.367725 0.357494,-0.257986 1.115765,-1.195887 2.218886,-2.744529 0.289268,-0.406096 0.876688,-1.206921 1.305381,-1.779617 0.428691,-0.572696 0.914093,-1.237209 1.078675,-1.476701 0.613327,-0.892487 0.774084,-1.075049 1.660274,-1.885503 0.469541,-0.429459 1.418078,-1.105763 1.550813,-1.105763 0.01901,0 0.08822,-0.02394 0.153851,-0.05321 0.06562,-0.02929 0.213025,-0.06302 0.327565,-0.07498 0.114538,-0.01199 0.310485,-0.07174 0.435439,-0.132809 0.42363,-0.207067 0.436734,-0.209089 1.492686,-0.23018 l 1.000453,-0.02 0.0477,-0.20825 c 0.02624,-0.114538 0.084,-0.289809 0.128387,-0.389489 0.04437,-0.09968 0.07535,-0.227469 0.06884,-0.283979 l -0.01186,-0.10275 -5.641756,-0.01894 c -5.387145,-0.01808 -5.647523,-0.02207 -5.769554,-0.08862 -0.185905,-0.101369 -0.453707,-0.391184 -0.489654,-0.529893 l -0.03105,-0.11984 -17.202955,-0.0095 -17.20295956,-0.0095 0.0253694,0.388148 c 0.0274815,0.420258 0.12640046,1.017357 0.24700646,1.491001 0.041752,0.163966 0.1115948,0.502589 0.1551981,0.752492 0.043606,0.249904 0.1289777,0.675875 0.1897186,0.946602 0.060741,0.27073 0.2123492,0.969323 0.3369082,1.552431 0.1245527,0.583107 0.398649,1.86102 0.6090886,2.839811 0.2104458,0.978783 0.4557879,2.179422 0.5452021,2.668073 l 0.1625729,0.888464 0.1290212,0.05359 c 0.070964,0.02947 0.2568159,0.0674 0.4130044,0.08429 0.1561886,0.01689 0.3433329,0.04316 0.4158736,0.05839 l 0.1318966,0.0277 -0.1020401,-0.121267 C 3.9686463,24.399489 3.9167086,24.048509 4.0197858,23.759485 c 0.105757,-0.296527 0.291917,-0.411209 0.6675068,-0.411209 0.4754531,0 0.7208542,0.23797 0.7235277,0.70163 9.289e-4,0.147022 -0.021798,0.283955 -0.058846,0.355567 -0.067482,0.13049 -0.3134112,0.347932 -0.4017388,0.355195 -0.031698,0.0025 0.019035,0.01832 0.1127531,0.03494 0.2401936,0.04258 2.6076126,0.0786 2.7451518,0.04177 z m 7.3002318,-7.071435 c -0.162635,-0.120379 -0.21964,-0.26674 -0.21964,-0.563917 0,-0.456167 0.199137,-0.670192 0.623556,-0.670192 0.165681,0 0.266911,0.02344 0.384238,0.08898 0.224406,0.125358 0.301059,0.24607 0.325183,0.51208 0.02929,0.322993 -0.07584,0.554039 -0.299547,0.658309 -0.221375,0.103189 -0.658591,0.08962 -0.81379,-0.02525 z m 0.68298,-0.149732 c 0.125199,-0.07037 0.110621,-0.120535 -0.01544,-0.05309 -0.09754,0.05219 -0.388473,0.06303 -0.527487,0.01962 -0.07689,-0.024 -0.08588,-0.02031 -0.04789,0.01959 0.07268,0.07635 0.463293,0.08552 0.590804,0.01385 z m -0.156874,-0.175184 c 0.03531,-0.02733 0.07487,-0.09409 0.08793,-0.148363 0.04308,-0.179062 -0.170091,-0.287136 -0.362864,-0.183965 -0.07533,0.04031 -0.09891,0.20254 -0.04239,0.291545 0.04576,0.07203 0.244017,0.09752 0.317316,0.04078 z m 0.332179,-0.382872 c 0.0025,-0.06628 -0.117413,-0.253725 -0.186021,-0.290445 -0.09607,-0.05141 -0.35357,-0.04974 -0.46944,0.0031 -0.05074,0.02313 -0.110969,0.08308 -0.133826,0.133248 -0.04143,0.09092 -0.0412,0.09103 0.06967,0.03369 0.21124,-0.109239 0.554328,-0.06297 0.67228,0.09066 0.02538,0.03304 0.04667,0.04645 0.04733,0.0298 z M 3.1649784,17.727487 C 3.0936394,17.643346 2.8094731,17.162343 2.7123517,16.961331 2.6685527,16.870678 2.5759245,16.543073 2.5065109,16.233319 2.3470835,15.521905 2.1014247,14.036283 2.1168638,13.876912 c 0.00935,-0.09646 0.048621,-0.145352 0.1958172,-0.243725 0.2134672,-0.142658 0.408331,-0.15957 0.7447518,-0.06463 0.3455469,0.09752 1.6792035,0.122507 8.0638472,0.151103 6.291113,0.02816 11.179966,0.07647 11.655612,0.115138 l 0.277438,0.02254 0.208343,-0.230222 c 0.283977,-0.313809 0.436187,-0.357897 1.163199,-0.336937 0.456543,0.01317 0.557764,0.02745 0.692094,0.09769 0.297714,0.15567 0.412042,0.396465 0.382736,0.806098 -0.02816,0.393432 -0.202525,0.618733 -0.554558,0.716516 -0.179401,0.04984 -1.081742,0.04908 -1.262256,-9.2e-4 -0.200121,-0.05557 -0.357083,-0.201183 -0.396438,-0.367759 l -0.03349,-0.14174 -2.346185,-0.02851 c -1.290401,-0.01568 -3.002184,-0.05268 -3.803957,-0.08223 l -1.457771,-0.05373 2.915539,0.01621 c 1.603549,0.0089 3.311693,0.0267 3.795881,0.03953 0.796394,0.02111 0.88034,0.01748 0.88034,-0.0381 0,-0.03378 0.02332,-0.06143 0.05181,-0.06143 0.03216,0 0.05984,-0.0598 0.07296,-0.157644 0.0268,-0.199768 0.12745,-0.335185 0.29383,-0.395296 0.160567,-0.05801 1.022127,-0.06771 1.216594,-0.01369 0.210272,0.05841 0.333747,0.227544 0.333747,0.457174 0,0.249386 -0.08141,0.431747 -0.234371,0.525005 -0.110508,0.06738 -0.190486,0.07644 -0.675832,0.07656 -0.460847,9.9e-5 -0.572839,-0.01124 -0.687747,-0.06985 -0.127208,-0.06485 -0.134232,-0.06513 -0.09593,-0.0037 0.09038,0.144722 0.271621,0.187377 0.795895,0.187316 0.400846,-3.8e-5 0.526632,-0.01323 0.632188,-0.06627 0.477468,-0.239889 0.426548,-1.120227 -0.07282,-1.258951 -0.07407,-0.02058 -0.339786,-0.03751 -0.590488,-0.03762 -0.577881,-3.01e-4 -0.74161,0.06598 -0.888361,0.359498 -0.120826,0.24165 -0.113246,0.231981 -0.14405,0.183761 -0.0187,-0.02925 -2.629496,-0.05977 -8.981209,-0.105 C 9.3388451,13.838027 4.7724306,13.791127 4.1164347,13.76888 2.3794464,13.70996 2.5006114,13.70856 2.4233323,13.78856 c -0.065473,0.06779 -0.062402,0.06914 0.098382,0.04315 0.091277,-0.01474 0.3421281,-0.01481 0.5574491,-2.01e-4 l 0.3914915,0.02667 0.017109,0.119488 c 0.00941,0.06572 0.033794,0.281819 0.054165,0.480226 0.030896,0.301087 0.056723,0.392414 0.1560861,0.552257 0.1688547,0.271633 0.2171219,0.497022 0.2478666,1.157483 0.029903,0.642206 -0.012824,0.98737 -0.1425754,1.152341 -0.1665735,0.211719 -0.396076,0.196228 -0.5605337,-0.03787 C 3.182536,17.196357 3.1135883,17.10314 3.0895292,17.074919 3.0357467,17.011834 2.9484009,16.73825 2.7311671,15.952441 2.5647219,15.35034 2.545858,15.376197 2.6759285,16.028166 c 0.1364768,0.684086 0.2311389,0.967889 0.3765214,1.128806 0.074776,0.08278 0.1534404,0.203426 0.1748043,0.268126 0.036495,0.110486 0.049537,0.117277 0.2146564,0.111781 0.2323716,-0.0077 0.3697489,-0.07883 0.4643241,-0.240262 0.071352,-0.121792 0.077581,-0.193864 0.076888,-0.889809 C 3.9821939,15.561684 3.9338837,15.214749 3.786551,14.997643 3.688374,14.852972 3.6105357,14.535852 3.5678329,14.106562 c -0.021737,-0.218395 -0.016737,-0.255583 0.034387,-0.255583 0.040721,0 0.059809,0.03496 0.059809,0.109542 0,0.06024 0.022203,0.118066 0.04936,0.128483 0.02714,0.01044 0.068442,0.121516 0.091753,0.246882 0.023321,0.12537 0.1015588,0.362514 0.1738727,0.526984 0.1924853,0.437794 0.2648614,0.838387 0.2686807,1.487142 0.00348,0.589506 -0.057396,0.906836 -0.210011,1.094974 -0.096125,0.118504 -0.5475653,0.33871 -0.7003319,0.341612 -0.065129,0.0012 -0.1418053,-0.02534 -0.1703887,-0.05904 z m 0.4986769,-0.606213 c 0.031633,-0.09586 0.040662,-0.379251 0.029841,-0.937181 L 3.6780013,15.384318 3.5525822,15.119312 C 3.4832989,14.972917 3.3904689,14.676421 3.3451764,14.456876 l -0.08199,-0.397428 -0.224531,-0.03136 c -0.1234908,-0.01723 -0.2831106,-0.02037 -0.3547135,-0.0069 l -0.1301856,0.02443 0.024252,0.232204 c 0.025494,0.244006 0.5969162,2.526343 0.6857063,2.738842 0.046038,0.110187 0.2191528,0.242053 0.317771,0.242053 0.020246,0 0.057211,-0.06184 0.082154,-0.137405 z M 2.444413,14.532461 c 0,-0.05206 -0.0086,-0.07336 -0.019097,-0.04733 -0.010496,0.02603 -0.010496,0.06863 0,0.09466 0.010496,0.02603 0.019097,0.0048 0.019097,-0.04733 z m 22.37379,-0.09578 c 0.09902,-0.06936 0.166172,-0.287157 0.135623,-0.439899 -0.04327,-0.216373 -0.156484,-0.25947 -0.681583,-0.25947 -0.448441,0 -0.474168,0.0042 -0.562859,0.09294 -0.07434,0.07434 -0.09294,0.131521 -0.09294,0.28579 0,0.159906 0.01712,0.20871 0.100188,0.285701 0.09491,0.08795 0.124433,0.09285 0.559536,0.09285 0.350964,0 0.478857,-0.01367 0.542033,-0.05792 z M 2.4051477,14.286345 c 9.289e-4,-0.06248 -0.00708,-0.09262 -0.017451,-0.06699 -0.010371,0.02565 -0.010993,0.07675 -0.00124,0.113595 0.0096,0.03683 0.018073,0.01587 0.018849,-0.04661 z m 30.5392543,0.773528 c -0.216047,-0.104589 -0.320884,-0.281216 -0.342534,-0.577108 -0.01413,-0.193007 -0.0016,-0.264154 0.07081,-0.403807 0.1514,-0.291799 0.246879,-0.322711 0.996699,-0.322711 0.574334,0 0.657035,0.0081 0.76755,0.0749 0.191389,0.115734 0.28784,0.351559 0.264209,0.645982 -0.02466,0.306974 -0.116852,0.467571 -0.330698,0.575964 -0.151285,0.07669 -0.222826,0.0852 -0.716062,0.0852 -0.476854,0 -0.56901,-0.01018 -0.709972,-0.07841 z m 1.410313,-0.239644 c 0.07081,-0.07081 0.128738,-0.148789 0.128738,-0.173296 0,-0.0245 -0.04315,0.0068 -0.09589,0.06941 -0.142237,0.169038 -0.30263,0.206198 -0.808108,0.187228 -0.322204,-0.01207 -0.474266,-0.03443 -0.567398,-0.08335 -0.06997,-0.03677 -0.114752,-0.04664 -0.0995,-0.02199 0.06779,0.109695 0.28481,0.150721 0.797264,0.150721 h 0.516166 z m -0.196501,-0.110215 c 0.08412,-0.06151 0.123985,-0.36127 0.06316,-0.474921 -0.04099,-0.0766 -0.07129,-0.08128 -0.525975,-0.08128 -0.375397,0 -0.501152,0.01307 -0.566631,0.05893 -0.15921,0.111518 -0.0847,0.437158 0.116038,0.507136 0.167194,0.05828 0.82999,0.05112 0.913408,-0.0099 z m 0.325239,-0.48581 c 0,-0.09949 -0.180589,-0.248351 -0.331562,-0.273308 -0.210588,-0.03482 -0.839639,-0.02745 -1.008867,0.0118 -0.08124,0.01885 -0.183471,0.07113 -0.227183,0.116203 l -0.07948,0.08194 0.132524,-0.0791 c 0.117243,-0.06998 0.192786,-0.07912 0.65504,-0.07924 0.558091,-9.9e-5 0.683781,0.03084 0.800431,0.197389 0.04373,0.06244 0.0591,0.06876 0.0591,0.02431 z M 4.9078044,24.547447 c 0.1215407,-0.05462 0.2270648,-0.154583 0.2297384,-0.217644 6.211e-4,-0.01562 -0.031924,0.0047 -0.072413,0.04522 -0.1487983,0.148798 -0.5314679,0.148618 -0.7329521,-3.11e-4 l -0.108589,-0.08028 0.042407,0.07923 c 0.102127,0.190833 0.4152432,0.27563 0.6418081,0.173817 z m -0.080397,-0.304984 c 0.05739,-0.0402 0.083968,-0.09739 0.083574,-0.179853 -6.211e-4,-0.142787 -0.026767,-0.188725 -0.1414109,-0.2491 -0.223525,-0.117715 -0.4728169,0.284157 -0.2660879,0.428953 0.1069648,0.07493 0.2169605,0.07493 0.3239248,0 z m -0.5473169,-0.41052 c 0.040078,-0.10444 0.2107749,-0.182962 0.3977392,-0.182962 0.1870823,0 0.4009997,0.08293 0.4355729,0.168861 0.012607,0.03132 0.020402,0.02639 0.022357,-0.01413 0.00491,-0.10241 -0.1941032,-0.283381 -0.342184,-0.31116 -0.2148459,-0.0403 -0.4105141,0.04377 -0.4985434,0.214203 -0.040825,0.07904 -0.065741,0.152189 -0.055368,0.162561 0.010371,0.01036 0.028568,-0.0064 0.040427,-0.03737 z M 50.653954,20.900439 c 0.03262,-0.01416 0.100777,-0.05982 0.151457,-0.101465 l 0.09215,-0.07573 v -2.347578 -2.347579 l 0.08461,-0.158268 0.08461,-0.158273 -0.217135,-0.02468 c -0.119423,-0.01356 -0.270827,-0.04885 -0.336449,-0.07837 -0.154279,-0.06942 -0.498584,-0.06757 -0.803474,0.0042 -0.238824,0.0563 -0.715976,0.229785 -0.772575,0.280896 -0.01615,0.01456 0.01302,0.118976 0.06475,0.232005 0.368066,0.803968 0.433835,2.429647 0.176382,4.35995 l -0.02891,0.21675 0.174423,0.05794 c 0.420636,0.139712 1.153265,0.216892 1.330166,0.140128 z M 36.717438,17.50326 c 0,-0.03208 -0.03727,-0.108728 -0.0828,-0.170326 -0.08073,-0.109197 -0.08171,-0.123603 -0.03902,-0.575897 0.02409,-0.255142 0.07838,-0.631899 0.120671,-0.83724 0.04229,-0.205339 0.07688,-0.379987 0.07688,-0.388108 0,-0.04406 -0.479341,-0.0064 -0.590579,0.04632 -0.166402,0.07896 -0.434057,0.479247 -0.612172,0.915519 -0.113396,0.277752 -0.137436,0.38789 -0.152547,0.698885 l -0.01795,0.369174 h 0.648752 c 0.559008,0 0.648754,-0.0081 0.648754,-0.05833 z M 35.65799,17.324938 c 0.0037,-0.424366 0.185905,-1.028453 0.396773,-1.315705 0.11765,-0.160275 0.412849,-0.377227 0.454499,-0.334027 0.0064,0.0066 -0.01369,0.14842 -0.04473,0.315023 -0.03102,0.166601 -0.05923,0.554123 -0.06267,0.861162 l -0.0062,0.55825 -0.369177,3.02e-4 c -0.3579,1.99e-4 -0.369153,-0.0025 -0.368427,-0.08495 z M 49.017656,15.37842 c 0.153095,-0.07255 0.40016,-0.162886 0.54903,-0.200742 l 0.270675,-0.06883 -0.17039,-0.07675 c -0.09371,-0.04221 -0.306697,-0.108418 -0.473301,-0.147132 -0.253012,-0.05879 -0.324745,-0.06278 -0.435436,-0.02425 -0.07289,0.02538 -0.188749,0.04708 -0.257465,0.04826 -0.137231,0.0025 -0.307548,0.07772 -0.384135,0.17001 -0.04271,0.05146 -0.02207,0.07168 0.156672,0.153521 0.113226,0.05184 0.24607,0.13704 0.295201,0.189341 0.04913,0.0523 0.107663,0.09361 0.130063,0.09179 0.02239,-0.0018 0.165989,-0.06265 0.319086,-0.135209 z m -0.884179,-0.545121 c 0.0833,-0.03942 0.211954,-0.07212 0.285896,-0.07266 0.138808,-9.2e-4 0.338047,-0.07403 0.338566,-0.124053 0,-0.01563 -0.06842,-0.02841 -0.152419,-0.02841 -0.14591,0 -0.418665,0.112659 -0.585637,0.241891 -0.09719,0.07523 -0.07341,0.07171 0.113594,-0.01677 z m -0.340781,-0.06232 c 0.268681,-0.234047 0.450108,-0.298438 1.061468,-0.376739 0.165273,-0.02118 0.39172,0.02962 1.044341,0.234242 0.230086,0.07213 0.432589,0.131161 0.450009,0.131161 0.05286,0 0.757297,-1.327406 0.757297,-1.427015 0,-0.0552 -0.06505,-0.05924 -0.634225,-0.03942 -0.510716,0.01779 -0.663722,0.01108 -0.785682,-0.03444 -0.0833,-0.03109 -0.185517,-0.06703 -0.227146,-0.07986 -0.04164,-0.01282 -0.106766,-0.06283 -0.144739,-0.111104 l -0.06905,-0.08778 -6.708671,9.21e-4 -6.708669,9.2e-4 0.177652,0.16951 0.177649,0.169512 h 5.554866 5.554869 l 0.163426,0.133916 c 0.106848,0.08755 0.176786,0.18229 0.202006,0.273643 0.05584,0.202244 0.006,0.523937 -0.117646,0.758951 -0.133369,0.253537 -0.133747,0.294696 -0.0034,0.361921 0.09871,0.05088 0.112006,0.04681 0.255584,-0.07825 z m -0.42345,-0.404453 c 0.01423,-0.0371 0.02481,-0.09587 0.02347,-0.130611 -0.0016,-0.04184 -0.01475,-0.03229 -0.03894,0.02826 -0.02009,0.05028 -0.03068,0.109055 -0.02347,0.130611 0.0072,0.02155 0.02472,0.0088 0.03895,-0.02826 z m -5.653743,-0.818284 -5.547095,-0.01919 -0.21539,-0.160396 c -0.118466,-0.08822 -0.261685,-0.221084 -0.318255,-0.295262 -0.05658,-0.07417 -0.135337,-0.152235 -0.175019,-0.173474 -0.06975,-0.03733 -0.07006,-0.03457 -0.009,0.0835 0.09324,0.180315 0.396914,0.492167 0.536598,0.551062 0.101065,0.04261 1.07277,0.0498 5.69855,0.04216 l 5.57671,-0.0092 z m 29.373951,-0.787119 c 0.0047,-0.04751 0.03417,-0.09619 0.06542,-0.108178 0.03124,-0.01199 0.05679,-0.04535 0.05679,-0.07414 0,-0.04361 0.276167,-0.054 1.653412,-0.06221 1.272838,-0.0076 1.656988,-0.02065 1.669012,-0.05672 0.01217,-0.03652 -0.283518,-0.04904 -1.341031,-0.05679 l -1.356636,-0.0099 -0.07088,-0.145115 c -0.03898,-0.07982 -0.07951,-0.252618 -0.09005,-0.384011 -0.01562,-0.194349 -0.006,-0.257096 0.05193,-0.336465 l 0.07111,-0.09756 1.372571,-0.0012 c 0.754925,-6.21e-4 1.372583,-0.01546 1.372583,-0.03288 0,-0.02959 -3.442815,-0.09736 -3.471836,-0.06833 -0.0074,0.0073 -0.0083,0.352295 -0.0022,0.766616 0.0061,0.414318 0.01499,0.714436 0.01975,0.666926 z m -22.028307,-0.30804 c 0,-0.03992 0.02129,-0.08056 0.04733,-0.09031 0.03513,-0.01317 0.03181,-0.03106 -0.01285,-0.06941 -0.03312,-0.02841 -0.09004,-0.132971 -0.126504,-0.232328 -0.05303,-0.14451 -0.133722,-0.239205 -0.403328,-0.473301 -0.185371,-0.160958 -0.365587,-0.352285 -0.400487,-0.425174 -0.118302,-0.247081 -0.04044,-0.898174 0.162446,-1.3583552 0.04935,-0.111924 0.08972,-0.2150198 0.08972,-0.229105 0,-0.047895 -0.342314,-0.1921561 -0.455965,-0.1921561 -0.06538,0 -0.196848,-0.05507 -0.311368,-0.1304341 -0.203253,-0.1337563 -0.623572,-0.3087687 -0.658257,-0.2740804 -0.01065,0.010651 -0.0028,0.050665 0.01717,0.088889 0.05202,0.098864 0.09687,0.4670815 0.05689,0.4670815 -0.01835,0 -0.287676,-0.085197 -0.598497,-0.1893211 C 46.156629,9.2409518 45.8738,9.1557575 45.838939,9.1557575 c -0.07567,0 -0.632328,-0.4189757 -1.132172,-0.8521329 C 44.053123,7.7371774 43.552939,7.1812064 43.385137,6.8345665 43.216227,6.4856441 43.119475,5.9339675 43.055862,4.9570491 43.025366,4.488946 42.996278,4.4457339 42.68696,4.4093783 c -0.22008,-0.025867 -0.365631,0.020246 -0.365631,0.1158396 0,0.025525 -0.02872,0.1066171 -0.06381,0.1802135 l -0.06381,0.1338063 H 40.292691 38.391668 L 38.37021,4.924432 C 38.332079,5.0758106 38.113931,5.3322073 37.953147,5.4146038 37.767428,5.5097747 37.510457,5.5147 37.30081,5.427118 37.221428,5.3939479 37.024558,5.2821886 36.863321,5.1787606 L 36.570167,4.9907095 H 33.581212 30.592256 L 30.455425,4.8392501 30.318591,4.6877939 h -2.853644 -2.853648 l -0.04283,0.2745154 c -0.06595,0.4226056 -0.126038,1.1262601 -0.112372,1.3157799 l 0.01229,0.1703887 3.802115,0.00966 3.802113,0.00966 0.211486,0.2001862 c 0.116314,0.1101013 0.680052,0.5507574 1.252747,0.9792381 0.957611,0.7164665 1.136679,0.8729004 1.511112,1.3201241 0.189238,0.2260247 0.287618,0.6920628 0.195644,0.9267881 -0.01888,0.048162 -0.0047,0.1341386 0.03897,0.2361786 0.136775,0.319669 0.185341,0.735123 0.185341,1.585484 v 0.809895 h 5.092725 5.09273 v -0.624757 -0.624758 h -0.09466 c -0.09047,0 -0.09467,0.01009 -0.09467,0.227431 v 0.227432 l -2.773544,-0.0097 -2.773548,-0.0097 -0.01136,-0.217718 -0.01136,-0.217718 h -1.583296 c -1.519146,0 -1.587151,-0.0031 -1.678341,-0.07476 C 36.524763,11.116581 36.269273,10.645018 36.12848,10.270965 36.01066,9.9579376 35.925497,9.788055 35.687806,9.3919057 35.584552,9.2198185 35.363865,8.7768085 35.197389,8.4074385 35.030909,8.0380715 34.809608,7.5784084 34.705608,7.3859697 34.490471,6.9878858 34.477113,7.0617213 34.843151,6.6258036 l 0.227182,-0.2705564 0.89124,-6.209e-4 0.891236,-6.211e-4 0.14056,0.2087038 c 0.07731,0.1147869 0.140561,0.2340608 0.140561,0.2650508 0,0.039004 0.04024,0.056343 0.130741,0.056343 0.07191,0 0.174429,0.019904 0.227819,0.044233 0.142508,0.06493 0.20668,-0.03915 0.208198,-0.3376814 l 0.0012,-0.2366475 2.054127,3.012e-4 2.054131,3.013e-4 2.051894,1.5459375 c 1.958973,1.4759339 2.063969,1.5612245 2.318602,1.8834202 0.150335,0.1902248 0.26696,0.3748379 0.267286,0.4231019 3.11e-4,0.0471 -0.0761,0.276382 -0.169814,0.509523 l -0.170399,0.423899 v 0.692662 0.692665 h 1.476701 c 1.430054,0 1.476701,-0.0022 1.476701,-0.07257 z m -13.328176,-0.68471 v -0.265047 h 1.609225 1.609224 v 0.265047 0.265048 h -1.609224 -1.609225 z m 3.029128,0 c 0,-0.02456 -0.492234,-0.03786 -1.400971,-0.03786 -0.908741,0 -1.400974,0.01329 -1.400974,0.03786 0,0.02456 0.492233,0.03786 1.400974,0.03786 0.908737,0 1.400971,-0.01329 1.400971,-0.03786 z m 10.493105,0.312294 c -0.06255,-0.123903 -0.154959,-0.274677 -0.205361,-0.335049 -0.0504,-0.06038 -0.118257,-0.160886 -0.150797,-0.223359 -0.03453,-0.06629 -0.143175,-0.159835 -0.260909,-0.224637 -0.135719,-0.0747 -0.184064,-0.08937 -0.147711,-0.04484 0.02972,0.03641 0.100236,0.09009 0.156698,0.119296 0.130946,0.06771 0.455344,0.474592 0.565392,0.70915 0.04654,0.09919 0.100764,0.190321 0.120507,0.202525 0.01975,0.01221 -0.01528,-0.07919 -0.07782,-0.203092 z m -14.26197,-0.227099 c 0.02562,-0.403791 -0.04684,-1.267938 -0.130875,-1.560976 -0.01979,-0.06891 -0.02688,-0.139908 -0.01587,-0.157766 0.01105,-0.01786 -0.11112,-0.03247 -0.271466,-0.03247 -0.210248,0 -0.334916,0.02053 -0.447138,0.07367 -0.289836,0.137216 -0.956728,0.191386 -2.356205,0.191386 -1.260263,0 -1.291175,0.0019 -1.455641,0.08519 l -0.168036,0.08519 -3.464567,0.01006 -3.464568,0.01003 v 0.375015 c 0,0.347755 -0.0068,0.382375 -0.09466,0.476319 -0.208216,0.22284 -0.0068,0.213257 -3.568688,0.169787 -1.796186,-0.02193 -3.508596,-0.04969 -3.805356,-0.0617 l -0.539562,-0.02183 v -0.185384 -0.185383 h 3.786412 3.786412 v -0.122661 c 0,-0.06747 -0.02981,-0.195191 -0.06626,-0.283838 l -0.06626,-0.161179 -9.952168,-2.02e-4 -9.952169,-1.98e-4 0.1037636,0.123055 c 0.2157339,0.255851 0.2566915,0.499681 0.1305985,0.777494 -0.088194,0.19432 -0.3008413,0.308983 -0.5754096,0.310272 -0.3261984,0.0015 -0.5777974,-0.16543 -0.6221428,-0.41284 -0.036045,-0.20114 -0.075347,-0.260965 -0.1066482,-0.16234 -0.013973,0.04401 -0.088415,0.118374 -0.1654328,0.165259 -0.2399235,0.14604 -0.4618833,0.348009 -0.4618833,0.420277 0,0.03807 -0.034076,0.136017 -0.0757268,0.217659 -0.0416497,0.08164 -0.0757297,0.174676 -0.0757297,0.206744 0,0.0524 1.7221174,0.0583 17.0347251,0.0583 h 17.034719 l 0.02584,-0.40704 z m 37.52475,0.329251 c -0.269721,-0.02931 -0.518699,-0.103909 -0.592188,-0.177397 -0.02239,-0.02239 -0.05557,-0.09767 -0.07376,-0.167278 -0.03084,-0.118072 -0.03204,-0.115516 -0.01798,0.03807 0.0094,0.102943 0.04709,0.198726 0.100512,0.255583 0.08004,0.08519 0.109508,0.09058 0.466933,0.08539 l 0.381514,-0.0056 z m 1.079123,-0.189977 c 0.509446,-0.0479 0.909409,-0.117019 0.886995,-0.153278 -0.0295,-0.04777 -2.363698,-0.04328 -2.363698,0.0045 0,0.02083 0.01705,0.03786 0.03787,0.03786 0.0208,0 0.03786,0.02319 0.03786,0.05152 0,0.09694 0.690203,0.126186 1.400971,0.05936 z M 2.6113145,11.576021 c 0.036446,-0.02124 0.091821,-0.08802 0.1230592,-0.148425 0.06797,-0.13144 0.072674,-0.194199 0.00826,-0.110309 -0.1342999,0.174919 -0.4500836,0.201639 -0.6266982,0.05303 -0.1037013,-0.08726 -0.1114178,-0.08879 -0.093032,-0.01848 0.034307,0.131188 0.2288256,0.265214 0.383061,0.263939 0.076496,-6.21e-4 0.1689043,-0.01851 0.205347,-0.03974 z M 45.267527,11.437064 c -0.01199,-0.06221 -0.169439,-0.06685 -2.577538,-0.07599 -2.545745,-0.0097 -2.56478,-0.0091 -2.56478,0.06626 0,0.07533 0.02226,0.07599 2.577539,0.07599 2.434413,0 2.576827,-0.0037 2.564779,-0.06626 z m -9.995738,-0.23665 c 0.0055,-0.320004 -0.07711,-0.776022 -0.178698,-0.987365 -0.04428,-0.09212 -0.0703,-0.133412 -0.05782,-0.09176 0.05482,0.182962 0.169454,0.781302 0.199515,1.041265 l 0.03283,0.283981 z m -32.741778,0.0095 c 0.053972,-0.14093 -9.289e-4,-0.217718 -0.1553471,-0.217718 -0.1678362,0 -0.224739,0.09175 -0.1385106,0.22336 0.089464,0.136544 0.2405134,0.133645 0.2938577,-0.0057 z m 43.370601,-0.246157 c 0.01385,-0.04686 0.09361,-0.235831 0.17728,-0.419936 L 46.230015,10.209089 46.05759,9.9569347 C 45.96275,9.8182501 45.828746,9.6509945 45.759797,9.5852543 45.690852,9.5195171 44.986965,8.9897137 44.195604,8.4079167 43.404244,7.8261197 42.527347,7.1770547 42.246944,6.965547 L 41.737126,6.5809893 h -1.899329 -1.899328 l -0.01742,0.2101757 c -0.02466,0.2974349 -0.07896,0.3399327 -0.418618,0.3276485 -0.444451,-0.016085 -0.557797,-0.04151 -0.557797,-0.1251583 0,-0.040103 -0.01705,-0.1025027 -0.03785,-0.1386628 -0.0208,-0.036162 -0.05447,-0.1126071 -0.07479,-0.1698764 L 36.795044,6.5809893 H 35.98603 35.177013 l -0.236449,0.2462395 -0.236452,0.2462395 0.100382,0.1192956 c 0.124028,0.1473947 0.256259,0.4084553 0.794637,1.5687515 0.232759,0.5016424 0.52848,1.0966706 0.657162,1.3222856 0.128678,0.225614 0.233963,0.441908 0.233963,0.480648 0,0.09429 0.101711,0.33289 0.177698,0.416861 0.05815,0.06425 0.291393,0.06765 4.634363,0.06765 h 4.57314 z M 36.87037,10.625314 c -0.04246,-0.04557 -0.07648,-0.100954 -0.07561,-0.123059 9.2e-4,-0.02211 -0.377574,-0.802012 -0.841,-1.7331287 l -0.842599,-1.6929411 0.09031,-0.09614 c 0.08958,-0.095354 0.0954,-0.09614 0.710411,-0.09614 h 0.620093 l 0.05429,0.1299342 c 0.02988,0.071463 0.07028,0.1398148 0.08982,0.1518909 0.01954,0.012079 0.04658,0.072336 0.06012,0.1339119 0.02831,0.128956 0.05992,0.1374922 0.618212,0.1669202 l 0.352993,0.0186 0.240712,-0.1586418 c 0.22303,-0.1469907 0.240907,-0.1690718 0.243363,-0.3006329 l 0.0025,-0.1419885 h 1.751893 1.75189 l 0.149004,0.101245 c 0.08195,0.055688 0.592807,0.4513133 1.135246,0.8791699 1.158518,0.913799 1.972418,1.5319269 2.331643,1.7707946 0.177308,0.1179045 0.301929,0.2378522 0.398988,0.3840383 0.138396,0.208437 0.139927,0.214703 0.07872,0.321348 -0.03433,0.05982 -0.06242,0.167023 -0.06242,0.238225 v 0.129457 H 41.338198 36.947429 Z M 2.7533061,10.91725 c 0,-0.0609 -0.1370605,-0.219258 -0.2324834,-0.268603 -0.1400477,-0.07242 -0.273441,-0.03692 -0.3923858,0.104436 -0.1172183,0.139303 -0.122671,0.206277 -0.010402,0.127634 0.1103713,-0.0773 0.4407432,-0.0773 0.5511144,0 0.046283,0.03242 0.084151,0.04886 0.084151,0.03654 z M 48.502651,10.107438 c 0.101466,-0.2490594 0.136471,-0.4460473 0.0722,-0.4063286 -0.03946,0.024376 -0.206235,0.5774186 -0.188902,0.6263906 0.0068,0.01953 0.05943,-0.07949 0.116697,-0.220062 z M 37.797372,4.935645 c 0.154645,-0.1639734 0.199131,-0.2991553 0.127034,-0.3860265 -0.109527,-0.1319711 -0.3343,-0.2404762 -0.498156,-0.2404762 -0.188352,0 -0.254443,0.049618 -0.254443,0.1910228 0,0.055083 -0.03408,0.130993 -0.07572,0.168687 -0.04165,0.037692 -0.07573,0.091163 -0.07573,0.1188206 0,0.062437 0.315323,0.2255774 0.504657,0.2610979 0.128434,0.024097 0.152295,0.01419 0.272363,-0.1131256 z m 11.109933,19.012392 c -0.145361,-0.07009 -0.300527,-0.328027 -0.300527,-0.499587 0,-0.113514 -0.0025,-0.113452 0.492234,-0.01149 0.307514,0.06336 0.539093,0.08263 1.022331,0.08506 0.563212,0.0028 0.645048,-0.0052 0.830754,-0.08113 0.113297,-0.04635 0.207483,-0.08043 0.209306,-0.07571 0.0018,0.0047 0.0397,0.09802 0.08419,0.20735 0.04449,0.109335 0.07535,0.198786 0.06859,0.198786 -0.0068,0 -0.179304,0.04445 -0.383425,0.09878 -0.620034,0.165029 -1.752355,0.208648 -2.023448,0.07795 z m 0.437822,-0.744624 c -0.695798,-0.05605 -0.749386,-0.06822 -0.726161,-0.164936 0.02699,-0.112393 0.120786,-0.359369 0.146097,-0.384682 0.01149,-0.01149 0.22336,0.01665 0.470857,0.06252 0.476726,0.08835 1.306194,0.117833 1.652173,0.05874 l 0.179853,-0.03072 v 0.18712 0.187122 l -0.444904,0.04529 c -0.244696,0.02491 -0.461942,0.05116 -0.482766,0.05833 -0.07054,0.02428 -0.339119,0.01795 -0.795149,-0.01879 z m -0.12455,-0.720957 c -0.202224,-0.02164 -0.387122,-0.04594 -0.410883,-0.05402 -0.07166,-0.02438 0.138687,-0.517047 0.211479,-0.495333 0.0324,0.0097 0.263371,0.04563 0.513275,0.07992 0.521811,0.07161 1.123428,0.05784 1.374216,-0.03146 l 0.162564,-0.05789 -0.01111,0.25172 -0.01111,0.251716 -0.283981,0.04291 c -0.37113,0.05607 -1.082809,0.0618 -1.544455,0.01242 z m 0.115359,-0.832259 -0.387835,-0.0853 0.02391,-0.212574 c 0.01317,-0.116914 0.02829,-0.217904 0.03366,-0.224422 0.0054,-0.0065 0.135046,0.01602 0.288188,0.05007 0.153143,0.03406 0.501083,0.07133 0.773201,0.08281 0.476015,0.02012 0.662847,-0.0047 0.953546,-0.12645 0.03483,-0.0146 0.04733,0.04064 0.04733,0.209179 0,0.259316 -0.0095,0.269202 -0.348252,0.364278 -0.27376,0.07682 -0.889022,0.0512 -1.383758,-0.05759 z"
   id="path1703" /></svg>
