<?xml version="1.0" encoding="UTF-8" standalone="no"?>
<!-- Generator: Adobe Illustrator 16.0.0, SVG Export Plug-In . SVG Version: 6.00 Build 0)  -->

<svg
   version="1.1"
   x="0px"
   y="0px"
   width="109.5px"
   height="32px"
   viewBox="0 0 109.5 32"
   enable-background="new 0 0 109.5 32"
   xml:space="preserve"
   id="svg665"
   sodipodi:docname="awp.svg"
   inkscape:version="1.1.1 (3bf5ae0d25, 2021-09-20)"
   xmlns:inkscape="http://www.inkscape.org/namespaces/inkscape"
   xmlns:sodipodi="http://sodipodi.sourceforge.net/DTD/sodipodi-0.dtd"
   xmlns="http://www.w3.org/2000/svg"
   xmlns:svg="http://www.w3.org/2000/svg"><defs
   id="defs669" /><sodipodi:namedview
   id="namedview667"
   pagecolor="#505050"
   bordercolor="#eeeeee"
   borderopacity="1"
   inkscape:pageshadow="0"
   inkscape:pageopacity="0"
   inkscape:pagecheckerboard="0"
   showgrid="false"
   inkscape:zoom="3.6001099"
   inkscape:cx="57.498245"
   inkscape:cy="-13.610696"
   inkscape:window-width="1440"
   inkscape:window-height="848"
   inkscape:window-x="1358"
   inkscape:window-y="-8"
   inkscape:window-maximized="1"
   inkscape:current-layer="svg665" />

<g
   id="guides">
</g>
<ellipse
   style="fill:#ffffff"
   id="path759"
   cx="21.875448"
   cy="19.984978"
   rx="3.5599775"
   ry="3.191704" /><path
   style="fill:#ffffff;stroke-width:0.0561988"
   d="M 2.0654655,25.667129 C 2.5353478,25.568393 2.9370952,25.470314 2.9582282,25.44918 2.9935474,25.413871 2.1652132,14.188077 2.1060874,13.900625 2.0817224,13.78223 2.0515187,13.774176 1.6315565,13.774176 H 1.1830412 l -0.00223,0.210746 c -0.00138,0.11591 -0.1495711,2.815547 -0.32971696,5.999194 -0.18013631,3.18365 -0.31675698,5.80742 -0.30358753,5.830601 0.0500063,0.08805 0.69497849,0.02535 1.51791439,-0.147588 z M 5.4195729,24.980061 C 6.436025,24.755382 7.4931256,24.553913 7.7686928,24.532358 l 0.5010134,-0.03917 -0.030066,-0.147076 c -0.016558,-0.08089 -0.055855,-0.741378 -0.087346,-1.467743 -0.031501,-0.726366 -0.072031,-1.415503 -0.090079,-1.531412 L 8.0294166,21.13621 H 7.7292781 c -0.177368,0 -0.331242,-0.0311 -0.3761743,-0.07603 C 7.2958019,21.002878 7.224702,20.126904 7.0646011,17.505619 6.9477447,15.592435 6.8405854,13.970197 6.8264652,13.900653 l -0.025663,-0.12645 H 4.7426231 2.6844381 l 0.031639,0.323143 c 0.01741,0.177727 0.2023829,2.776208 0.4110659,5.774402 0.2086788,2.998191 0.3940338,5.466019 0.4119008,5.484057 0.017856,0.01804 0.8641181,-0.151033 1.8805702,-0.375717 z M 26.163308,24.710582 c 0.45664,-0.200722 1.304148,-1.071467 2.165972,-2.225371 l 0.461899,-0.618443 h 3.582852 3.582847 l 0.200059,-0.221435 c 0.261531,-0.289481 0.351331,-0.470483 0.59608,-1.201421 l 0.203572,-0.607985 0.14778,0.116246 c 0.146731,0.115416 0.181155,0.116241 4.836337,0.116241 h 4.688551 l 3.247581,-1.121252 3.24758,-1.121247 9.195571,0.221306 c 5.057556,0.12172 9.303044,0.221655 9.43441,0.222077 l 0.23884,8.96e-4 V 17.174325 16.078452 H 61.089132 50.185025 l 0.01566,-0.772731 0.01561,-0.77273 12.25129,-0.03387 c 6.738206,-0.01862 19.92143,-0.03761 29.296057,-0.04214 l 17.044778,-0.0083 0.13794,-0.13794 c 0.13426,-0.134271 0.13794,-0.160525 0.13794,-0.986031 0,-0.825506 -0.003,-0.85176 -0.13794,-0.98603 -0.13532,-0.135329 -0.15554,-0.137941 -1.06674,-0.137941 h -0.92879 l -0.0151,-1.306615 -0.0151,-1.3066204 -1.38017,-0.014985 -1.38016,-0.015027 -0.44684,1.3075754 -0.44683,1.307575 -24.656577,0.01409 -24.656575,0.01413 V 11.666926 11.132973 H 52.913792 51.874115 V 10.430492 9.728011 h 0.697357 0.697357 l 0.955694,0.59044 0.955684,0.59044 4.259621,-0.0144 4.259619,-0.0144 0.12542,-0.186109 c 0.238836,-0.354427 0.27244,-0.6953792 0.27244,-2.7643138 0,-2.078448 -0.04285,-2.5438976 -0.271681,-2.9518654 L 63.700349,4.754455 59.447888,4.7399912 55.195427,4.7256338 54.23766,5.3160735 53.279898,5.9065078 H 52.577051 51.874157 V 5.5412176 5.1759347 H 50.216302 48.558446 V 5.5412176 5.9065078 H 47.574969 46.591492 V 5.5412176 5.1759347 H 45.214628 43.837764 V 5.5412176 5.9065078 H 42.966686 42.095609 V 5.5412176 5.1759347 H 40.465847 38.83609 v 0.3652829 0.3652902 h -0.388233 c -0.370127,0 -0.420148,-0.017005 -1.072931,-0.3652902 L 36.690222,5.1759347 h -3.955696 -3.955697 l -0.105798,0.2107367 c -0.118202,0.235457 -0.298303,0.7824895 -0.411681,1.2504191 -0.04862,0.200678 -0.07315,0.6441852 -0.06994,1.2644691 0.0055,1.0546503 0.08178,1.462481 0.408459,2.1829414 l 0.169623,0.374088 h 3.959483 3.959494 L 37.388312,10.0933 c 0.656906,-0.3428766 0.722785,-0.365289 1.073805,-0.365289 h 0.373964 v 0.702482 0.70248 h -3.343814 -3.343814 v 0.871082 0.871077 l -0.266943,8.98e-4 c -0.266135,8.96e-4 -0.268621,0.0027 -0.819018,0.590084 l -0.552072,0.58939 -4.028109,-8.98e-4 -4.028114,-8.96e-4 -0.842979,-0.925523 -0.842974,-0.925518 -6.560112,-8.97e-4 -6.5601154,-8.98e-4 -0.027545,0.126445 c -0.2744898,1.259245 -0.2781377,1.315243 -0.1793333,2.756757 0.051261,0.747886 0.1206063,1.941445 0.1541069,2.652355 0.033522,0.710912 0.090218,1.633972 0.1260323,2.051248 l 0.065119,0.758682 0.3297116,0.0354 c 0.3469564,0.03729 0.4263676,0.09839 0.4286106,0.329873 8.976e-4,0.09823 0.171508,2.812913 0.2246527,3.575758 0.00138,0.01974 3.0389646,-0.04348 3.2350436,-0.06733 0.221825,-0.02697 0.259857,-0.06745 1.424,-1.515182 l 1.196086,-1.487429 h 1.823997 c 1.755287,0 1.845597,0.0053 2.397499,0.140517 0.673041,0.164898 1.138539,0.383196 1.958922,0.918639 0.610241,0.398292 1.857865,1.319313 2.652456,1.958105 l 0.441156,0.354651 1.048109,-0.0022 c 0.740656,-0.0018 1.09756,-0.02396 1.2167,-0.07631 z m -0.969429,-1.227813 c -0.09105,-0.07284 -0.09105,-0.461205 0,-0.53586 0.09709,-0.0796 0.266511,-0.09886 0.448734,-0.05101 0.169454,0.04447 0.246451,0.229332 0.189708,0.455407 -0.05609,0.223504 -0.427745,0.30003 -0.638442,0.131461 z M 23.75359,21.3019 c -0.738067,-0.148544 -1.36054,-0.290854 -1.383271,-0.316243 -0.07785,-0.08694 -0.17792,-0.6081 -0.208513,-1.085839 -0.05859,-0.914978 0.117178,-1.971742 0.497742,-2.992571 0.215306,-0.57754 0.05715,-0.534863 1.480609,-0.399517 0.525458,0.04996 1.461162,0.09695 2.079347,0.104405 0.618186,0.0074 1.142286,0.01682 1.164677,0.02087 0.0943,0.01692 0.212191,0.358878 0.212191,0.61549 0,0.36869 -0.21571,1.200244 -0.499887,1.927081 -0.223432,0.571469 -0.61532,1.187229 -1.382765,2.172707 -0.210657,0.270506 -0.237168,0.286619 -0.42149,0.256179 -0.108182,-0.01786 -0.800572,-0.154012 -1.53864,-0.30256 z m 5.61879,-0.179764 c 0.02226,-0.03864 0.20635,-0.297849 0.409064,-0.576033 0.20272,-0.278182 0.763788,-1.112735 1.246827,-1.854553 l 0.878255,-1.348766 0.45788,-0.01634 0.457879,-0.01634 0.182923,0.212936 c 0.470942,0.548225 0.795457,0.858491 1.41929,1.356946 0.742137,0.592998 1.099219,0.809053 1.504856,0.910536 0.322537,0.0807 0.336416,-0.01696 -0.169232,1.191075 l -0.08821,0.210742 h -3.170009 c -2.520138,0 -3.161708,-0.0144 -3.129522,-0.07024 z m 14.632698,-2.234571 c -0.118654,-0.0635 -0.197877,-0.376493 -0.140812,-0.556288 0.02046,-0.06444 0.105043,-0.134988 0.187984,-0.156781 0.3349,-0.08802 0.51609,0.03809 0.51609,0.359204 0,0.320595 -0.2877,0.501341 -0.563262,0.353865 z M 70.827123,17.18853 c -0.09106,-0.07284 -0.09106,-0.461204 0,-0.535859 0.09708,-0.0796 0.266507,-0.09886 0.448734,-0.05101 0.169449,0.04451 0.246446,0.229333 0.189703,0.455412 -0.05609,0.223497 -0.427744,0.300023 -0.638437,0.131456 z M 57.049101,17.17085 c -0.09942,-0.0944 -0.103565,-0.383277 -0.0072,-0.499434 0.09162,-0.110398 0.471457,-0.115061 0.561238,-0.0069 0.07634,0.09199 0.09652,0.376103 0.03393,0.477424 -0.106309,0.171995 -0.420974,0.187466 -0.587982,0.0289 z M 13.248214,16.318 c -0.09422,-0.05326 -0.147911,-0.296863 -0.09571,-0.434175 0.06418,-0.168797 0.352026,-0.260597 0.577203,-0.184085 0.280372,0.09528 0.280216,0.54915 0,0.649032 -0.140242,0.04996 -0.363755,0.03567 -0.481266,-0.03078 z M 8.6153024,16.25755 c -0.077753,-0.09774 -0.091983,-0.339027 -0.026067,-0.442641 0.080806,-0.127086 0.3118574,-0.175811 0.5179114,-0.10921 0.1738403,0.05618 0.1986584,0.0884 0.2142867,0.27821 0.00978,0.118067 -0.011082,0.249322 -0.046231,0.291671 -0.127499,0.153626 -0.5321082,0.142571 -0.6598762,-0.01804 z M 32.115627,15.939016 c -0.09692,-0.38615 0.140996,-0.673729 0.463538,-0.560301 0.301662,0.106085 0.318067,0.589085 0.02499,0.73521 -0.180324,0.08991 -0.445913,-0.0052 -0.488512,-0.174909 z m 9.979976,-5.508629 V 9.7279015 h 0.871077 0.871077 v 0.3652935 0.365289 h 1.376864 1.376865 V 10.093195 9.7279015 h 0.983476 0.983477 v 0.7024855 0.702481 H 45.327017 42.095603 Z M 44.806144,9.0227367 C 44.324331,8.8214259 44.093257,8.4306454 44.093257,7.817152 c 0,-0.8221552 0.455681,-1.2912387 1.255342,-1.2922522 0.355316,-4.488e-4 0.650576,0.1034476 0.899508,0.3165145 0.693013,0.5931952 0.476163,1.8854698 -0.36682,2.1859848 -0.292344,0.104224 -0.820032,0.1019375 -1.075143,-0.00468 z M 45.618396,8.7130552 C 46.06277,8.5783904 46.30822,8.0947059 46.199041,7.5688032 46.124071,7.2076691 45.916699,6.9873864 45.580615,6.911875 c -0.440258,-0.098917 -0.81607,0.034554 -1.014752,0.3603939 -0.134683,0.2208879 -0.148524,0.7568099 -0.02571,0.9943577 0.18911,0.3656848 0.677443,0.5678794 1.078221,0.4464286 z m 0.01772,13.0132358 v -1.264464 h -4.130592 -4.130599 v 1.264464 1.264468 h 4.130599 4.130592 z m 26.35713,-6.406634 v -0.42149 H 61.287418 50.581588 v 0.42149 0.42149 h 10.70583 10.705826 z"
   id="path1936" /></svg>
