<?xml version="1.0" encoding="UTF-8" standalone="no"?>
<!-- Generator: Adobe Illustrator 16.0.0, SVG Export Plug-In . SVG Version: 6.00 Build 0)  -->

<svg
   version="1.1"
   x="0px"
   y="0px"
   width="19.833"
   height="22"
   viewBox="0 0 19.833 22"
   enable-background="new 0 0 19.833 32"
   xml:space="preserve"
   id="svg2422"
   sodipodi:docname="c4.svg"
   inkscape:version="1.1.1 (3bf5ae0d25, 2021-09-20)"
   xmlns:inkscape="http://www.inkscape.org/namespaces/inkscape"
   xmlns:sodipodi="http://sodipodi.sourceforge.net/DTD/sodipodi-0.dtd"
   xmlns="http://www.w3.org/2000/svg"
   xmlns:svg="http://www.w3.org/2000/svg"><defs
   id="defs2426" /><sodipodi:namedview
   id="namedview2424"
   pagecolor="#505050"
   bordercolor="#eeeeee"
   borderopacity="1"
   inkscape:pageshadow="0"
   inkscape:pageopacity="0"
   inkscape:pagecheckerboard="0"
   showgrid="false"
   height="31px"
   inkscape:zoom="19.375"
   inkscape:cx="2.0903226"
   inkscape:cy="10.787097"
   inkscape:window-width="1440"
   inkscape:window-height="848"
   inkscape:window-x="1358"
   inkscape:window-y="-8"
   inkscape:window-maximized="1"
   inkscape:current-layer="svg2422" />

<g
   id="guides">
</g>
<path
   style="fill:#ffffff;stroke-width:0.0118723"
   d="m 17.019849,16.460705 c 0.319075,-0.04168 0.611223,-0.237871 0.772305,-0.518649 0.115719,-0.201709 0.120858,-0.240929 0.121103,-0.924521 l 2.38e-4,-0.571277 0.08607,-0.0063 c 0.20322,-0.01491 0.765128,-0.240343 1.041793,-0.417967 0.287173,-0.184369 0.456604,-0.362837 0.510684,-0.537927 0.02313,-0.07491 0.02357,-0.11505 0.02357,-2.175203 0,-2.0525911 -4.74e-4,-2.1005591 -0.02332,-2.1743471 -0.110405,-0.357235 -0.615958,-0.683465 -1.414128,-0.912527 -0.09918,-0.02847 -0.141482,-0.04645 -0.157399,-0.06692 -0.01197,-0.01539 -0.03182,-0.02798 -0.04412,-0.02798 -0.02166,0 -0.02246,-0.02883 -0.02601,-0.94088 l -0.0037,-0.940879 -0.02723,-0.08904 c -0.04925,-0.161087 -0.113831,-0.266194 -0.245235,-0.399153 -0.166223,-0.16819 -0.312361,-0.251004 -0.527914,-0.299162 -0.08335,-0.01862 -0.630345,-0.01998 -8.0201341,-0.01998 h -7.930659 l -0.1009141,0.02654 c -0.16537401,0.0435 -0.30338266,0.118972 -0.42081431,0.23013 -0.16533824,0.156507 -0.2541822,0.314231 -0.29679249,0.526897 -0.0172998,0.08634 -0.0187406,0.520428 -0.0157816,4.7726601 l 0.003288,4.677682 0.0274437,0.08904 c 0.10138317,0.328952 0.36580213,0.586917 0.6967668,0.679758 l 0.09498,0.02664 7.9010095,0.0015 c 4.3455556,8.39e-4 7.9342986,-0.0028 7.9749856,-0.0081 z M 8.7053662,15.375436 c -0.068658,-0.02038 -0.1303741,-0.07795 -0.147466,-0.137548 -0.00677,-0.02364 -0.011672,-0.240199 -0.011672,-0.516487 0,-0.530855 0.00387,-0.563857 0.073879,-0.630651 0.075301,-0.07184 0.1018154,-0.07502 0.6240352,-0.07495 0.2834845,3.6e-5 0.4888733,0.0049 0.5150532,0.01216 0.051213,0.01422 0.1076728,0.07407 0.1303148,0.138127 0.02261,0.06395 0.02348,1.033912 9.49e-4,1.097246 -0.01825,0.05138 -0.06987,0.103236 -0.1167191,0.117257 -0.018905,0.0057 -0.2537876,0.01074 -0.5219557,0.01131 -0.3970481,8.39e-4 -0.4985067,-0.0022 -0.5464491,-0.01647 z m -1.8688553,0.0044 c -0.042626,-0.0092 -0.074121,-0.02589 -0.1060644,-0.0564 -0.070195,-0.06704 -0.074257,-0.104701 -0.069692,-0.645968 0.00348,-0.415741 0.00619,-0.470997 0.025055,-0.512982 0.027279,-0.06079 0.050903,-0.08618 0.1092555,-0.117453 0.046416,-0.02487 0.05891,-0.02545 0.5520616,-0.02545 h 0.5045698 l 0.05656,0.02786 c 0.040711,0.02005 0.06566,0.04334 0.089042,0.0831 l 0.032482,0.05526 0.00348,0.510484 c 0.003,0.441914 9.487e-4,0.51707 -0.015269,0.559513 -0.023934,0.06266 -0.050401,0.08604 -0.1276626,0.112725 -0.056019,0.01935 -0.1096753,0.02158 -0.5277607,0.02193 -0.2939543,2.38e-4 -0.4877401,-0.0044 -0.5260394,-0.01262 z m -1.8865689,2.38e-4 c -0.078627,-0.01686 -0.1322191,-0.05409 -0.1612952,-0.112052 -0.02228,-0.04442 -0.023972,-0.0751 -0.027376,-0.497219 -0.00213,-0.26389 0.00135,-0.48172 0.00832,-0.52689 0.015066,-0.09677 0.055893,-0.157994 0.1298877,-0.194799 0.055236,-0.02747 0.056338,-0.02753 0.5539792,-0.02753 h 0.4986788 l 0.05656,0.02786 c 0.040711,0.02005 0.065669,0.04334 0.089042,0.08311 l 0.032482,0.05525 0.00348,0.510484 c 0.003,0.441913 9.487e-4,0.517069 -0.015269,0.559512 -0.023934,0.06266 -0.050401,0.08604 -0.1276627,0.112725 -0.055961,0.01933 -0.1094731,0.02158 -0.5218242,0.02193 -0.2843973,2.38e-4 -0.482141,-0.0044 -0.5189773,-0.01238 z m -1.9474673,-0.02285 c -0.029049,-0.01632 -0.063774,-0.04838 -0.077167,-0.07123 -0.023556,-0.0402 -0.024349,-0.05863 -0.024349,-0.563935 v -0.522363 l 0.02785,-0.05656 c 0.020046,-0.04071 0.043341,-0.06566 0.083105,-0.08904 l 0.055255,-0.03248 0.4689559,-0.0039 c 0.5177763,-0.0043 0.5686845,4.75e-4 0.6351432,0.05883 0.080861,0.071 0.083134,0.08845 0.083134,0.639532 0,0.5335 -0.00174,0.550585 -0.064113,0.610287 -0.065573,0.06283 -0.093239,0.06556 -0.6363548,0.06292 l -0.4986363,-0.0024 z m 5.6916636,-1.921862 c -0.02639,-0.01199 -0.062314,-0.03883 -0.079846,-0.05966 -0.063561,-0.07553 -0.068068,-0.116886 -0.068068,-0.624422 0,-0.515872 0.00416,-0.551013 0.074527,-0.631166 0.070118,-0.07986 0.071791,-0.08011 0.5664216,-0.08486 0.24478,-0.0023 0.4729033,-8.39e-4 0.50694,0.0035 0.086112,0.01075 0.1334365,0.04596 0.1758725,0.130833 l 0.03561,0.07123 v 0.498636 c 0,0.527238 -0.0025,0.555354 -0.05661,0.636342 -0.05497,0.0823 -0.05219,0.08192 -0.6082435,0.08165 -0.4581148,-2.38e-4 -0.5025353,-0.002 -0.5466174,-0.02204 z m -1.8761688,-1.19e-4 c -0.026583,-0.01207 -0.06478,-0.04191 -0.084884,-0.0663 -0.065457,-0.07941 -0.068619,-0.108392 -0.068619,-0.629503 0,-0.43135 0.00193,-0.480042 0.02168,-0.531068 0.026341,-0.06826 0.1113502,-0.147172 0.1725967,-0.160208 0.02375,-0.005 0.2461898,-0.0092 0.4943215,-0.0092 0.5090587,0 0.5258401,0.0024 0.6030539,0.08791 0.080561,0.08918 0.081006,0.0929 0.077138,0.642299 -0.00338,0.478704 -0.00416,0.493977 -0.029097,0.540123 -0.014089,0.02612 -0.040808,0.06189 -0.059365,0.07949 -0.07123,0.06756 -0.074905,0.06797 -0.5976696,0.06819 -0.4426465,2.37e-4 -0.4846659,-0.0015 -0.5291561,-0.02175 z m -1.8609828,0.0097 c -0.059723,-0.01658 -0.1363473,-0.0869 -0.1672733,-0.153483 -0.023518,-0.05065 -0.025007,-0.07636 -0.028556,-0.494737 -0.00242,-0.280857 9.128e-4,-0.46647 0.00909,-0.510508 0.019185,-0.103838 0.064654,-0.168554 0.1485965,-0.211484 l 0.070002,-0.0358 h 0.4697942 c 0.4544034,0 0.4715881,8.38e-4 0.5245087,0.0253 0.059974,0.02773 0.1114555,0.08663 0.1361123,0.155726 0.012252,0.03433 0.016014,0.154987 0.01642,0.526226 4.371e-4,0.416528 -0.00213,0.489422 -0.018982,0.538915 -0.023015,0.06754 -0.093984,0.143237 -0.1492211,0.159169 -0.055313,0.01595 -0.9532708,0.01655 -1.0104432,7.29e-4 z m -1.9510636,-0.02943 c -0.025084,-0.01992 -0.058968,-0.06266 -0.075291,-0.09498 l -0.029678,-0.05876 v -0.511348 -0.511347 l 0.035644,-0.0697 c 0.029397,-0.05748 0.045991,-0.07503 0.094641,-0.100076 l 0.058997,-0.03036 h 0.4692905 c 0.2581092,0 0.4897958,0.0044 0.5148578,0.0097 0.064325,0.01361 0.1408932,0.09297 0.1629014,0.168836 0.013654,0.04707 0.017106,0.157157 0.017106,0.545735 0,0.482116 -2.379e-4,0.487326 -0.027163,0.545691 -0.034774,0.07543 -0.056705,0.09954 -0.1153004,0.126766 -0.044279,0.02058 -0.081673,0.02186 -0.5539424,0.0191 l -0.5064536,-0.003 z M 11.858596,11.186664 V 9.5330149 l 0.30571,-0.177583 c 0.655488,-0.380761 1.241852,-0.642456 1.876284,-0.837385 0.571332,-0.175543 0.883073,-0.227112 1.36782,-0.226272 0.655075,0.0012 1.308229,0.08107 1.99864,0.244597 0.426442,0.101005 1.073682,0.327861 1.310996,0.459504 0.115386,0.06401 0.308442,0.199064 0.346485,0.242392 l 0.03617,0.04118 V 10.9649 c 0,0.926998 -0.0015,1.685451 -0.0033,1.685451 -0.0018,0 -0.04692,-0.01838 -0.100195,-0.04086 -0.283266,-0.119464 -0.935932,-0.320513 -1.160686,-0.357539 -0.09152,-0.01508 -0.227843,-0.04072 -0.302935,-0.05699 -0.319124,-0.06911 -0.703634,-0.115197 -1.145676,-0.137314 -1.01466,-0.05077 -1.64317,-0.0091 -2.515715,0.166673 -0.562849,0.113402 -1.041304,0.254803 -1.698948,0.502099 -0.163244,0.06139 -0.300814,0.11212 -0.305712,0.112741 -0.0049,5.84e-4 -0.0089,-0.74301 -0.0089,-1.652518 z m -8.9186355,0.260958 c -0.037849,-0.01859 -0.088636,-0.05694 -0.1148633,-0.08673 -0.091353,-0.103788 -0.08442,0.08637 -0.08442,-2.3137711 0,-2.402749 -0.00696,-2.21497 0.085193,-2.309898 0.026206,-0.027 0.077854,-0.06326 0.114785,-0.08057 l 0.067147,-0.03148 h 3.3717312 c 2.8391493,0 3.379073,0.0026 3.418222,0.01641 0.0653,0.02305 0.141725,0.09776 0.174768,0.17085 l 0.02806,0.06206 v 2.166692 c 0,1.7275601 -0.0031,2.1753471 -0.01516,2.2093951 -0.04327,0.121898 -0.133157,0.206319 -0.2388349,0.224329 -0.030074,0.0051 -1.5586039,0.0086 -3.3967306,0.0076 l -3.342051,-0.0016 z M 8.5936109,9.5784029 c 0,-0.0049 -0.010212,-0.06767 -0.02256,-0.1395 -0.012349,-0.07183 -0.021371,-0.131769 -0.020046,-0.133202 0.00135,-0.0015 0.054027,0.0319 0.1170971,0.07408 l 0.1146834,0.07669 0.071539,-0.09397 0.071539,-0.09397 -0.097807,-0.05293 c -0.053795,-0.02911 -0.1215792,-0.06489 -0.1506368,-0.07951 l -0.052828,-0.02658 0.1062579,-0.04443 c 0.058431,-0.02444 0.1266221,-0.05303 0.1515236,-0.06355 l 0.045275,-0.01913 -0.072593,-0.09537 -0.072593,-0.09537 -0.1188802,0.09628 -0.1188812,0.09628 0.00687,-0.03979 c 0.00822,-0.0476 0.042171,-0.280458 0.042171,-0.289026 0,-0.0033 -0.053427,-0.006 -0.1187236,-0.006 H 8.3562904 v 0.166795 0.166795 l -0.1187767,-0.09619 c -0.1146389,-0.09283 -0.1191462,-0.09524 -0.1292998,-0.06885 -0.0058,0.01504 -0.024108,0.05793 -0.040721,0.09532 l -0.0302,0.06798 0.1196741,0.06436 0.1196722,0.06436 -0.1193192,0.07944 -0.1193164,0.07944 0.021526,0.0494 c 0.011836,0.02717 0.029842,0.06964 0.040005,0.09438 l 0.01847,0.04498 0.1161716,-0.07771 0.1161697,-0.07771 0.00329,0.142555 0.00329,0.142553 H 8.475282 c 0.065099,0 0.1183107,-0.0041 0.1182526,-0.0089 z m -1.3301616,-0.0059 c -3.568e-4,-0.0081 -0.00725,-0.07193 -0.015453,-0.141709 -0.010096,-0.08614 -0.010869,-0.124578 -0.00242,-0.119728 0.00687,0.004 0.05658,0.0387 0.1104817,0.07726 l 0.098,0.07012 0.031399,-0.03732 c 0.098233,-0.116722 0.1211489,-0.147482 0.1160421,-0.155745 -0.00309,-0.005 -0.054945,-0.03587 -0.1151834,-0.06851 -0.174548,-0.09458 -0.1728567,-0.08257 -0.020994,-0.148958 0.072516,-0.0317 0.1339926,-0.06112 0.1366219,-0.06537 0.00261,-0.0043 -0.029997,-0.04908 -0.072516,-0.0996 l -0.077293,-0.09187 -0.085155,0.07401 c -0.146527,0.127342 -0.131371,0.127585 -0.121846,-0.0019 0.00454,-0.06203 0.011401,-0.135493 0.015201,-0.163245 l 0.00687,-0.05046 H 7.1468667 7.0265302 v 0.166823 0.166823 l -0.1098184,-0.09506 -0.1098203,-0.09506 -0.043931,0.08554 c -0.024165,0.04705 -0.044163,0.09088 -0.044434,0.09741 -2.379e-4,0.0066 0.051039,0.03935 0.1140297,0.07292 l 0.1145374,0.06106 -0.1143382,0.07548 c -0.062885,0.04151 -0.114199,0.08082 -0.1140307,0.08735 1.19e-4,0.0066 0.020133,0.05059 0.044366,0.09791 l 0.044067,0.08603 0.1067201,-0.07623 0.1067181,-0.07623 0.00329,0.141566 0.00329,0.141567 h 0.1183525 c 0.087069,0 0.1182052,-0.004 0.1177865,-0.01484 z m -1.305382,-0.008 c 0,-0.01257 -0.011237,-0.07166 -0.024978,-0.131339 -0.013741,-0.05967 -0.022202,-0.111267 -0.018808,-0.114662 0.00338,-0.0034 0.055148,0.02677 0.1150209,0.06702 0.059868,0.04026 0.1112157,0.07082 0.114107,0.06793 0.02931,-0.02931 0.1332316,-0.180255 0.128912,-0.187245 -0.00309,-0.005 -0.062498,-0.04237 -0.1319784,-0.08299 l -0.1263242,-0.07384 0.1337828,-0.06367 0.1337818,-0.06367 -0.033459,-0.04462 c -0.018402,-0.02454 -0.050497,-0.06726 -0.071317,-0.09495 l -0.037858,-0.05033 -0.1112148,0.08893 c -0.061976,0.04955 -0.1125588,0.08235 -0.1142492,0.07408 -0.00164,-0.0081 0.00957,-0.08029 0.025036,-0.160279 l 0.028072,-0.145436 H 5.8495457 5.7324989 v 0.16028 c 0,0.08815 -0.00396,0.160254 -0.0089,0.160229 -0.00493,-2.4e-5 -0.0595,-0.04048 -0.1213423,-0.0899 l -0.112439,-0.08985 -0.047838,0.09758 c -0.026312,0.05367 -0.0425,0.09959 -0.035963,0.102044 0.00658,0.0024 0.056464,0.03031 0.110975,0.06191 l 0.099104,0.05744 -0.1050394,0.07498 c -0.057769,0.04124 -0.1073864,0.07683 -0.1102536,0.07908 -0.00522,0.0042 0.083791,0.193521 0.090967,0.193521 0.00213,0 0.055796,-0.03476 0.1193144,-0.07725 l 0.1154899,-0.07725 0.00329,0.142554 0.00329,0.142553 h 0.1124216 c 0.1030358,0 0.1124206,-0.0019 0.1124206,-0.02285 z"
   id="path2440" /></svg>
