<?xml version="1.0" encoding="UTF-8" standalone="no"?>
<!-- Generator: Adobe Illustrator 16.0.0, SVG Export Plug-In . SVG Version: 6.00 Build 0)  -->

<svg
   version="1.1"
   x="0px"
   y="0px"
   width="50.75px"
   height="32px"
   viewBox="0 0 50.75 32"
   enable-background="new 0 0 50.75 32"
   xml:space="preserve"
   id="svg2160"
   sodipodi:docname="deagle.svg"
   inkscape:version="1.1.1 (3bf5ae0d25, 2021-09-20)"
   xmlns:inkscape="http://www.inkscape.org/namespaces/inkscape"
   xmlns:sodipodi="http://sodipodi.sourceforge.net/DTD/sodipodi-0.dtd"
   xmlns="http://www.w3.org/2000/svg"
   xmlns:svg="http://www.w3.org/2000/svg"><defs
   id="defs2164" /><sodipodi:namedview
   id="namedview2162"
   pagecolor="#505050"
   bordercolor="#eeeeee"
   borderopacity="1"
   inkscape:pageshadow="0"
   inkscape:pageopacity="0"
   inkscape:pagecheckerboard="0"
   showgrid="false"
   inkscape:zoom="9.6875"
   inkscape:cx="30.967742"
   inkscape:cy="24.464516"
   inkscape:window-width="1440"
   inkscape:window-height="848"
   inkscape:window-x="1358"
   inkscape:window-y="-8"
   inkscape:window-maximized="1"
   inkscape:current-layer="svg2160" />

<g
   id="guides">
</g>
<path
   style="fill:#ffffff;stroke-width:0.0358685"
   d="m 14.834713,29.879488 c 0.128228,-0.02631 0.313851,-0.04875 0.412487,-0.04984 0.09864,-0.0012 0.264524,-0.0122 0.368628,-0.02473 0.180544,-0.02168 0.197753,-0.03336 0.372356,-0.252789 0.18071,-0.227102 0.182776,-0.232524 0.160581,-0.421396 -0.01237,-0.105229 -0.07054,-0.334331 -0.129261,-0.509101 -0.05873,-0.17477 -0.132662,-0.430754 -0.164313,-0.568841 -0.03167,-0.138101 -0.08859,-0.301412 -0.126519,-0.362925 -0.03796,-0.06151 -0.06898,-0.15892 -0.06898,-0.216485 0,-0.05755 0.129449,-0.749702 0.287667,-1.53811 0.158216,-0.788409 0.376312,-1.917703 0.484663,-2.509528 0.28092,-1.534474 0.842965,-4.401983 0.875281,-4.465637 0.01504,-0.02958 0.06419,-0.0725 0.109253,-0.09535 0.107863,-0.05468 0.574594,-0.518787 0.574594,-0.571346 0,-0.0225 0.07666,-0.07137 0.170373,-0.108575 0.248216,-0.09853 0.634137,-0.08134 1.282302,0.05715 0.625912,0.133747 1.094194,0.162844 3.246106,0.201741 1.822676,0.03295 2.442629,-0.03105 2.777861,-0.286742 0.187928,-0.143334 0.223893,-0.314393 0.287399,-1.366925 0.03092,-0.512913 0.06431,-0.993107 0.07414,-1.067088 0.01326,-0.09969 0.0047,-0.134502 -0.03218,-0.134502 -0.05309,0 -0.0205,-0.121407 0.322547,-1.201602 0.18742,-0.590152 0.38504,-0.91525 0.859388,-1.413697 0.685681,-0.720529 1.454289,-1.106512 2.363675,-1.187022 0.244515,-0.02165 3.975818,-0.03512 9.781071,-0.03531 h 9.385745 l 0.212006,-0.254987 0.212009,-0.255003 0.762876,-2.1212932 0.762878,-2.121293 -0.0578,-0.3506216 C 50.369742,6.4547928 50.301525,6.1561884 50.24994,5.9840722 50.162065,5.6908519 50.156599,5.62984 50.163195,5.0164028 50.171048,4.2885274 50.188378,4.351615 49.891849,4.0301401 49.778523,3.907274 49.751342,3.8956254 49.577931,3.8956254 c -0.104417,0 -0.281316,-0.018367 -0.393109,-0.040824 L 48.981563,3.8139929 V 3.4618112 3.1096417 l -0.288801,-0.091228 c -0.158839,-0.050181 -0.308141,-0.091165 -0.331783,-0.091077 -0.02364,1.133e-4 -0.172112,0.05037 -0.329933,0.1117208 -0.323187,0.1256337 -1.305638,0.7721806 -1.422285,0.9360066 l -0.07115,0.099908 h -1.237338 -1.23734 l -0.09055,0.1076069 c -0.0791,0.093996 -0.113982,0.1076068 -0.275926,0.1076068 h -0.185373 l 0.01283,-0.1614105 0.01284,-0.16141 h -5.722045 -5.722046 l -0.07434,0.094512 c -0.04088,0.051979 -0.07434,0.1246148 -0.07434,0.16141 0,0.058986 -0.03004,0.066899 -0.254197,0.066899 -0.249495,0 -0.254941,-0.00199 -0.294812,-0.1076068 L 31.354366,4.0749718 H 26.397823 21.44128 L 21.296792,3.9978457 C 21.217323,3.9554281 21.070199,3.8585755 20.969858,3.7826316 L 20.787405,3.6445439 h -3.69146 c -3.563484,0 -3.701803,0.00252 -3.989653,0.07149 -0.26369,0.063214 -0.423669,0.071516 -1.382763,0.07173 H 10.638958 L 10.551276,3.6488716 C 10.503051,3.5724746 10.377753,3.4573954 10.272841,3.3931383 10.167929,3.3288811 9.9972728,3.1829563 9.8936032,3.0688711 L 9.7051139,2.8614437 9.3813514,2.8172018 C 9.2032831,2.7928583 9.0509893,2.7622784 9.0429272,2.7492334 c -0.00807,-0.013047 -0.2133517,-0.00367 -0.4561998,0.020769 -0.2428429,0.024469 -0.4617143,0.045578 -0.4863725,0.046899 -0.033758,0.00178 -0.044819,0.1349677 -0.044819,0.539179 0,0.6167209 0.00315,0.611035 -0.3275366,0.611035 H 7.5392222 L 7.1427751,4.3527468 C 6.9247319,4.564853 6.6979137,4.7801427 6.638727,4.8311661 6.5795456,4.8822014 6.4893582,4.9709516 6.4383123,5.0283905 6.3872557,5.0858423 6.2863907,5.1856877 6.214136,5.2502846 6.141881,5.3148816 6.0827628,5.3850886 6.0827628,5.4063231 c 0,0.021225 -0.043717,0.1338107 -0.097133,0.2502109 C 5.9127932,5.815202 5.8701711,5.8678729 5.8152515,5.8670304 5.4250999,5.8609918 4.5924876,5.791099 4.5632481,5.7618512 4.5428046,5.7414077 4.4828474,5.7246806 4.430014,5.7246806 c -0.052828,0 -0.1572527,-0.025575 -0.2320445,-0.056822 C 4.07296,5.6156276 4.0443391,5.6159526 3.8438667,5.6719992 3.4172891,5.7912175 3.2493271,5.923896 3.1748551,6.2004858 c -0.044189,0.1640524 -0.026,0.2700742 0.065634,0.3832668 l 0.063983,0.079025 0.097878,-0.090712 c 0.080794,-0.074874 0.097878,-0.1212181 0.097878,-0.2655074 0,-0.2093391 0.072213,-0.292768 0.338812,-0.3914558 l 0.1774022,-0.065679 0.2464493,0.1177337 c 0.2429896,0.1160731 0.2570276,0.118249 0.9976649,0.1547302 0.4131636,0.020354 0.7661394,0.027777 0.7843866,0.016507 0.018241,-0.011323 0.06674,-0.1102114 0.1077531,-0.2198437 0.100656,-0.2690168 0.3451338,-0.6242807 0.4296127,-0.6242807 0.040311,0 0.1665152,-0.1237844 0.3207956,-0.314644 0.2413541,-0.2985799 0.4434934,-0.4916783 0.655671,-0.6263193 0.0648,-0.041123 0.1904444,-0.063678 0.3945547,-0.070811 L 8.2528113,4.2720536 8.2707383,3.6443504 8.2886653,3.0166478 8.48594,3.0044448 c 0.1085027,-0.00667 0.386933,0.00842 0.618731,0.033637 0.4015475,0.043649 0.4214564,0.049689 0.4214564,0.127684 0,0.080372 -0.00833,0.08207 -0.4573216,0.093078 l -0.4573268,0.011197 0.5248271,0.0078 0.5248272,0.0078 0.1746086,0.1632593 c 0.096037,0.089781 0.2361961,0.1955644 0.3114641,0.2350649 0.07527,0.039498 0.170563,0.128942 0.211759,0.1987719 l 0.0749,0.1269421 1.461361,-0.012329 c 1.33102,-0.011197 1.467546,-0.017891 1.530696,-0.075063 0.06507,-0.058911 0.292719,-0.062773 3.703496,-0.062773 h 3.634166 l -0.02238,0.33179 c -0.08458,1.2539967 -0.06308,1.7811623 0.102977,2.5252399 0.169043,0.7574378 0.435742,1.2971331 0.763477,1.5450026 l 0.155229,0.117408 h 13.918054 c 11.119434,0 13.914697,0.009 13.901357,0.04484 -0.140576,0.377505 -0.887693,2.6167575 -0.887693,2.6605975 0,0.09757 -0.09144,0.245657 -0.228766,0.370498 l -0.128449,0.116778 -9.425202,-0.01671 c -5.183861,-0.0091 -9.530115,-0.01797 -9.658343,-0.01947 -0.665049,-0.0079 -1.659621,0.445637 -2.271428,1.035776 -0.444992,0.42922 -0.855602,1.040368 -1.031779,1.535671 -0.42078,1.18297 -0.451513,1.354281 -0.481407,2.683203 -0.01977,0.878617 -0.0323,1.050066 -0.08055,1.103794 -0.126388,0.140668 -0.908327,0.275407 -1.604801,0.276528 -0.360409,0 -1.92004,-0.05156 -3.622728,-0.121105 -0.217001,-0.0089 -0.53982,-0.04931 -0.717369,-0.0899 -0.177549,-0.04058 -0.374766,-0.07412 -0.438262,-0.07456 -0.08243,0 -0.110091,-0.01474 -0.09672,-0.04956 0.02343,-0.06114 -0.154349,-0.09375 -0.51417,-0.09429 -0.225807,0 -0.260048,0.008 -0.260048,0.06361 0,0.03521 -0.05142,0.09437 -0.114237,0.131483 -0.06283,0.03712 -0.268622,0.216925 -0.457327,0.399582 -0.188693,0.182657 -0.381643,0.362724 -0.428778,0.400161 -0.07961,0.06322 -0.143934,0.37119 -0.905172,4.333839 -0.450716,2.34618 -0.819711,4.305069 -0.81999,4.353098 -3.77e-4,0.04802 0.02269,0.177147 0.05106,0.286944 0.02836,0.109796 0.07559,0.296479 0.10497,0.414841 0.02941,0.118363 0.07856,0.287849 0.109283,0.376625 0.03072,0.08878 0.09742,0.298491 0.148211,0.466054 l 0.09235,0.304643 -0.0828,0.06494 c -0.04555,0.03571 -0.107013,0.08449 -0.136604,0.108374 -0.02961,0.0239 -0.207145,0.07549 -0.394555,0.114651 -0.329859,0.06892 -0.513394,0.07151 -5.7418459,0.08117 l -5.4010897,0.01 L 3.921622,29.425884 C 3.592837,29.112722 3.6001652,29.141341 3.4278159,27.496908 3.3889733,27.126474 3.4257224,26.463156 3.5197851,25.825264 3.7410364,24.32858 4.783913,21.42196 6.2074584,18.334419 6.3979815,17.921188 6.649678,17.396613 6.766788,17.168681 7.0614944,16.595109 7.093533,16.454971 7.1137669,15.651102 7.1291263,15.04013 7.1234618,14.951204 7.0520113,14.682653 6.9096508,14.147626 6.7615559,13.890799 6.3741091,13.506941 5.9762468,13.11278 5.6393376,12.914575 5.1457365,12.784274 4.8544687,12.707387 4.7788119,12.704569 2.6662831,12.692265 l -2.17901737,-0.0127 v -0.176406 c 0,-0.172707 0.004194,-0.17955 0.20148403,-0.325261 0.55840164,-0.412514 0.97052214,-0.588718 1.66398734,-0.711421 0.8369369,-0.148089 1.7064104,-0.439649 1.9261311,-0.64588 0.078513,-0.0737 0.100346,-0.07434 2.4997187,-0.07434 1.331277,0 2.4272961,0.01207 2.4355941,0.0269 0.00828,0.0148 -0.2716367,0.886406 -0.6220754,1.936913 -0.3504387,1.050494 -0.6239416,1.909991 -0.6077702,1.909991 0.039838,0 0.097521,-0.161926 0.4152551,-1.165725 0.2613102,-0.825557 0.6148888,-1.85137 0.8345098,-2.421131 l 0.1036959,-0.269016 8.1735658,-0.008 c 4.495468,-0.0044 8.209889,-0.01684 8.254278,-0.02757 0.04996,-0.01208 0.0807,-0.04657 0.0807,-0.09057 0,-0.05188 0.02422,-0.07106 0.08967,-0.07106 0.04933,0 0.08992,0.02017 0.09022,0.04484 3.77e-4,0.03266 0.0077,0.03363 0.02689,0.0036 0.01877,-0.02941 0.384264,-0.04487 1.271912,-0.0538 l 1.24556,-0.01258 0.0217,0.09893 c 0.01195,0.05442 0.05164,0.114953 0.08818,0.134515 0.04345,0.02325 3.259883,0.03556 9.286275,0.03556 h 9.219812 l -0.042,0.09864 c -0.0231,0.05426 -0.07244,0.123872 -0.109629,0.154704 -0.06178,0.05122 -0.06262,0.06021 -0.0098,0.104047 0.04836,0.04013 0.07344,0.03977 0.153388,-0.0022 0.162868,-0.08562 0.375578,-0.308619 0.361942,-0.379443 -0.01212,-0.063 -0.350358,-0.06568 -9.382758,-0.07439 l -9.370169,-0.009 v -0.08727 c 0,-0.140554 -0.0617,-0.263256 -0.145794,-0.28995 -0.04299,-0.01364 -0.701653,-0.0047 -1.463694,0.02001 -1.112619,0.03599 -1.397456,0.05509 -1.446048,0.09699 -0.03329,0.0287 -0.07766,0.04156 -0.09864,0.02861 -0.02222,-0.01372 -0.03811,0.0073 -0.03811,0.05029 v 0.07384 h -3.369045 -3.369046 l 0.124438,-0.47525 c 0.171248,-0.6540702 0.389061,-1.4402012 0.806387,-2.9104312 0.195382,-0.6883371 0.355245,-1.2734322 0.355245,-1.3002395 0,-0.026797 -0.02033,-0.048723 -0.04513,-0.048723 -0.04676,0 -0.442681,1.3422688 -0.777676,2.6363305 -0.09703,0.374826 -0.250197,0.961594 -0.340369,1.303938 -0.09017,0.3423332 -0.163952,0.6611162 -0.163952,0.7084032 0,0.08571 -0.001,0.08597 -0.409887,0.08597 h -0.409888 l 0.124438,-0.475249 C 18.29211,9.4732198 18.50986,8.6873398 18.928135,7.2137778 19.124062,6.523541 19.278347,5.9344074 19.270993,5.9045809 c -0.01185,-0.048006 -0.01557,-0.048053 -0.0325,0 -0.04,0.1124127 -0.967011,3.4543029 -1.12679,4.0621169 L 17.944339,10.60337 h -0.424958 c -0.233728,0 -0.424921,-0.01207 -0.424874,-0.02691 0,-0.0148 0.08834,-0.381128 0.196215,-0.8140712 0.107885,-0.432944 0.19142,-0.791906 0.185654,-0.797667 -0.01793,-0.01792 -0.355838,1.1780772 -0.397128,1.4054942 l -0.03905,0.215213 -0.45437,0.01006 -0.454371,0.01006 0.141333,-0.530109 c 0.243834,-0.9145962 0.394891,-1.5248142 0.380916,-1.5387902 -0.0074,-0.0074 -0.08135,0.23265 -0.164314,0.533469 -0.08297,0.300818 -0.218846,0.768696 -0.301951,1.0397392 l -0.151109,0.49281 h -0.403524 c -0.221932,0 -0.403518,-0.0088 -0.403518,-0.02005 0,-0.04449 0.454915,-1.7126652 0.776933,-2.8490412 0.467427,-1.6494904 0.513216,-1.8257576 0.479688,-1.8464763 -0.01609,-0.00994 -0.04,0.039388 -0.05317,0.1095946 -0.01316,0.07022 -0.184742,0.6955326 -0.381267,1.3895933 -0.331376,1.1701074 -0.525316,1.8743574 -0.777233,2.8221396 l -0.100109,0.376611 -0.404714,0.01019 -0.404714,0.01019 0.02432,-0.13571 c 0.01336,-0.07462 0.111067,-0.4874522 0.217059,-0.9173632 0.105996,-0.429925 0.191587,-0.793088 0.190197,-0.807053 -0.0061,-0.06091 -0.120134,0.30711 -0.270074,0.871348 -0.08911,0.335375 -0.185748,0.6945142 -0.214731,0.7980822 l -0.0527,0.188307 h -0.448976 -0.448982 l 0.02412,-0.134503 c 0.01326,-0.07398 0.11084,-0.4862702 0.216838,-0.9161812 0.105997,-0.429925 0.191587,-0.793088 0.190193,-0.807053 -0.0061,-0.06091 -0.120135,0.30711 -0.27007,0.871348 -0.08912,0.335375 -0.185748,0.6945142 -0.214735,0.7980822 l -0.0527,0.188307 h -0.425721 -0.425759 l 0.06997,-0.273106 c 0.09372,-0.3658192 0.062,-0.3770772 -0.0412,-0.01462 l -0.08193,0.287723 h -1.375955 c -0.99356,0 -1.3759587,-0.0112 -1.3759587,-0.04027 0,-0.02214 0.073786,-0.322292 0.1639571,-0.6669882 0.090182,-0.34471 0.1573889,-0.633302 0.1493583,-0.64134 -0.00802,-0.008 -0.092175,0.274703 -0.1869902,0.628294 -0.094811,0.3535912 -0.1834884,0.6608512 -0.197044,0.6827902 -0.016407,0.02654 -0.162893,0.03649 -0.4374233,0.02974 L 8.677003,10.584892 9.0460977,9.2660468 c 0.2029937,-0.725371 0.3790334,-1.3349594 0.3911894,-1.3546215 0.012161,-0.019674 0.037847,-0.026046 0.057122,-0.014136 0.019237,0.011951 0.2367517,0.032347 0.4833215,0.045426 l 0.4483044,0.02378 -0.315421,0.2585505 c -0.1734822,0.142201 -0.3426549,0.279395 -0.3759411,0.304882 -0.033286,0.02549 -0.071227,0.105971 -0.084322,0.178859 -0.020129,0.11211 -0.00969,0.146629 0.067852,0.224182 0.050428,0.0504 0.1249833,0.09165 0.1657131,0.09165 0.059501,0 0.069954,0.01632 0.053206,0.08306 -0.020758,0.08261 -0.019552,0.08292 0.223495,0.0559 0.134387,-0.01494 0.325042,-0.05213 0.423685,-0.08266 0.270975,-0.08388 0.281491,-0.07997 0.258029,0.09615 -0.01117,0.08384 -0.02961,0.192797 -0.04099,0.242108 -0.01137,0.04933 0.02191,-0.01872 0.07396,-0.151207 0.09319,-0.237153 0.0975,-0.241694 0.278457,-0.293988 0.101095,-0.02921 0.283332,-0.069 0.404976,-0.08842 0.273938,-0.04376 0.365635,-0.09061 0.705207,-0.360459 0.242398,-0.192621 0.572393,-0.5447146 0.664074,-0.7085408 0.02951,-0.052743 0.04875,-0.055578 0.129009,-0.019004 0.07418,0.0338 0.09771,0.033444 0.110175,-0.00163 0.05116,-0.1439752 0.519758,-1.842237 0.519758,-1.8836499 0,-0.027526 -0.01846,-0.043891 -0.04105,-0.036358 -0.02259,0.00755 -0.09426,0.2227369 -0.15926,0.4782432 -0.06502,0.2555069 -0.143378,0.5351915 -0.174153,0.6215136 -0.03077,0.086322 -0.05594,0.1877024 -0.05594,0.2253028 0,0.078397 -0.09557,0.1283511 -0.147068,0.07685 -0.03915,-0.039146 0.06522,-0.5114917 0.208456,-0.9433281 0.06082,-0.1833874 0.09516,-0.3832034 0.107858,-0.6277027 0.02217,-0.426327 -0.02149,-0.5660623 -0.225398,-0.7216107 L 13.064901,4.881822 10.758411,4.872135 8.4519207,4.8624478 8.091774,5.0431806 C 7.5197642,5.3302249 7.4098148,5.4586512 7.3546382,5.9041742 c -0.013419,0.1085002 -0.040258,0.2168744 -0.059596,0.2408137 -0.019343,0.02395 -0.04875,0.1530827 -0.065393,0.2869564 -0.025528,0.2057032 -0.019605,0.2674699 0.038476,0.3987771 0.1417155,0.3205685 0.4951421,0.6251361 0.9046153,0.7795398 0.1427274,0.053828 0.2659494,0.103292 0.2738228,0.1099087 0.00787,0.00671 -0.1764382,0.6579699 -0.4095834,1.4474229 L 7.6130758,10.602952 H 6.6865544 c -0.5095837,0 -0.9265215,-0.0045 -0.9265215,-0.01006 0,-0.0055 0.096635,-0.298994 0.2147409,-0.6520822 0.1181112,-0.3531 0.2090534,-0.647692 0.2020973,-0.654649 -0.00697,-0.0069 -0.1156999,0.286453 -0.2416425,0.652008 L 5.7062298,10.60283 h -0.564928 c -0.3648749,2.5e-5 -0.5649331,-0.01306 -0.5649331,-0.03698 0,-0.0204 0.043613,-0.121268 0.096934,-0.224182 C 4.7631707,10.16818 4.7713057,10.115609 4.7849505,9.6200058 4.8086962,8.7576848 4.7136862,8.1033248 4.5051518,7.6929621 4.391187,7.4686782 4.1540894,7.1236419 4.1139414,7.1236419 c -0.013891,0 -0.1111289,-0.085945 -0.2160566,-0.190998 L 3.7071101,6.7416589 3.5854868,6.796783 3.4638741,6.8519077 3.7421418,7.108974 c 0.421273,0.3891786 0.6498158,0.8199458 0.7458636,1.4058218 0.060828,0.371064 0.069135,1.397921 0.012948,1.6038762 -0.060187,0.220723 -0.3532798,0.48315 -0.7553619,0.676324 -0.3791907,0.182166 -0.7522326,0.281546 -1.371708,0.36539 -0.8906195,0.120551 -1.45429974,0.368699 -2.02106236,0.889726 l -0.15244053,0.140139 v 0.389983 0.389984 l 2.30455639,0.0012 2.3045563,0.0012 0.3509943,0.139181 c 0.4752124,0.188432 0.8088979,0.393369 1.1169765,0.686023 0.2824246,0.268275 0.4099241,0.482142 0.5228562,0.877045 0.1024221,0.358158 0.1201136,0.62057 0.076181,1.130288 -0.043875,0.509239 -0.088258,0.655944 -0.3902983,1.290415 -1.3891742,2.918142 -2.509411,5.796885 -2.9491931,7.578702 -0.3051799,1.236448 -0.3391633,1.502132 -0.3404686,2.661768 -0.00105,1.020366 0.027206,1.348357 0.1488499,1.721697 0.092588,0.284152 0.2033082,0.426504 0.4666889,0.600016 0.135032,0.08896 0.2673698,0.188079 0.2940722,0.220258 0.044504,0.05364 0.4828918,0.05814 5.2720019,0.05423 4.2008448,-0.0035 5.2690968,-0.01365 5.4566008,-0.05213 z M 7.6949914,10.504104 C 8.2966391,8.4568428 8.5008698,7.7808707 8.5260573,7.7533845 c 0.018923,-0.020691 0.1174978,-0.00325 0.2554339,0.045202 0.1235156,0.043373 0.2820211,0.078707 0.3522314,0.078514 0.2763965,-0.00122 0.2809045,-0.047275 -0.1363425,1.4074813 L 8.6193059,10.602743 H 8.1426573 7.6660035 Z m 0.8643783,-0.233153 c 0.096892,-0.3665732 0.4359712,-1.5443242 0.5324804,-1.8494822 0.073256,-0.231631 0.092792,-0.337917 0.063731,-0.346698 -0.023064,-0.0069 -0.1459195,-0.04632 -0.273052,-0.087427 -0.2775286,-0.089743 -0.2889508,-0.090434 -0.2889508,-0.01755 0,0.031463 -0.1440902,0.511656 -0.3202033,1.0671 -0.1761182,0.555433 -0.3447249,1.0946242 -0.3746878,1.1981942 l -0.054479,0.188305 H 8.1816413 8.5190801 Z M 10.032111,8.9313878 c -0.1273688,-0.07524 -0.2140021,-0.259847 -0.1430369,-0.304794 0.027259,-0.01728 0.068837,-0.03165 0.092374,-0.03194 0.023536,0 0.1486719,-0.09037 0.2780789,-0.200155 0.200781,-0.170342 0.23207,-0.212422 0.213362,-0.286956 -0.01667,-0.066381 -0.0075,-0.087346 0.0379,-0.087346 0.03286,0 0.04985,-0.016138 0.03764,-0.035863 -0.01216,-0.019725 -0.0031,-0.035863 0.01982,-0.035863 0.09632,0 1.420867,-0.8523382 1.55516,-1.0007289 0.06457,-0.071352 0.06503,-0.07134 0.267118,0.00415 0.111333,0.041589 0.278808,0.1254572 0.372161,0.1863684 0.133051,0.086825 0.16987,0.1318355 0.170374,0.2082823 0.0015,0.1982313 -0.539369,0.8656982 -0.905109,1.1173552 -0.129312,0.08898 -0.336511,0.174104 -0.661888,0.271911 -0.836491,0.251469 -1.159199,0.29878 -1.333923,0.195577 z M 21.689243,8.1263228 C 21.501802,7.9905372 21.286196,7.6620682 21.197246,7.3767852 c -0.03716,-0.1192429 -0.08503,-0.2169499 -0.106338,-0.217126 -0.0547,0 -0.151529,-0.5417832 -0.198931,-1.112223 -0.03827,-0.4602923 -0.02961,-1.7712625 0.01195,-1.8128132 0.01074,-0.010694 0.106306,0.013398 0.212319,0.05369 0.190675,0.072472 0.245531,0.073264 5.111583,0.073277 l 4.918837,1.26e-5 0.05875,0.089681 c 0.05744,0.087655 0.06874,0.089669 0.502742,0.089669 h 0.443987 l 0.07407,-0.1255458 0.07406,-0.1255332 h 5.457224 5.457222 l -0.02375,0.1265899 -0.02375,0.1265895 0.477084,-0.010061 c 0.46396,-0.00968 0.477397,-0.012203 0.488541,-0.090725 l 0.01146,-0.080711 h 1.288671 1.288668 l 0.143577,-0.1297094 c 0.07897,-0.07134 0.143579,-0.1601147 0.143579,-0.1972753 0,-0.03716 0.01364,-0.067565 0.03031,-0.067565 0.01668,0 0.198259,-0.1263509 0.403522,-0.2807918 0.20526,-0.1544413 0.425809,-0.2912583 0.490108,-0.3040517 0.0643,-0.012795 0.163151,-0.057452 0.219684,-0.099255 0.135005,-0.099807 0.334779,-0.1040466 0.461352,-0.00982 0.09932,0.073969 0.102409,0.083894 0.172058,0.5535451 0.02339,0.1577119 0.0328,0.1684552 0.226639,0.2589156 0.111232,0.051905 0.312269,0.1140105 0.44675,0.1380122 0.385896,0.068886 0.461084,0.1993763 0.389497,0.6759966 l -0.02425,0.1614105 -11.208927,0.018017 -11.208925,0.018027 11.217892,0.00893 11.217895,0.00893 v 0.175393 c 0,0.2114022 0.112075,0.7742312 0.233949,1.1748703 0.04888,0.1606683 0.08887,0.3241792 0.08887,0.3633527 0,0.039163 -0.06444,0.1982309 -0.143216,0.35349 -0.07877,0.1552591 -0.187653,0.4558009 -0.241967,0.667883 l -0.09874,0.385581 H 35.760581 21.839854 Z M 49.627218,7.9704096 c 0,-0.095231 0.18241,-0.6785122 0.270269,-0.864227 0.04863,-0.1027885 0.08824,-0.2095529 0.08802,-0.2372408 C 49.985128,6.8412548 49.937087,6.6652636 49.878385,6.477851 49.780125,6.1641132 49.678008,5.680976 49.65474,5.419733 l -0.0096,-0.1076068 -11.024519,-0.00905 -11.024514,-0.00905 0.02349,0.0987 c 0.123982,0.5207374 0.645717,0.96689 1.411164,1.2067345 0.362815,0.1136958 0.959074,0.2237056 1.390296,0.2565258 0.176742,0.013461 0.357096,0.046847 0.400788,0.074221 0.06704,0.041993 1.174192,0.049767 7.093008,0.049767 h 7.013567 v 0.5200833 0.5200961 h 2.349391 c 1.98029,0 2.349391,-0.00782 2.349391,-0.049785 z M 44.533883,7.6615147 V 7.3028289 H 32.948334 c -9.244534,0 -11.585537,0.00905 -11.585516,0.044834 7.3e-5,0.087793 0.206589,0.4768974 0.304623,0.5738991 l 0.09968,0.098636 H 33.150505 44.533883 Z M 30.638599,7.0973773 c -0.02354,-0.023526 -0.787605,-0.148592 -0.918433,-0.1503407 -0.04173,0 -0.03974,0.00742 0.0089,0.035855 0.03454,0.020103 0.06277,0.059968 0.06277,0.088574 0,0.042607 0.07904,0.052031 0.436401,0.052031 0.240017,0 0.424648,-0.0117 0.410291,-0.026115 z M 28.802866,6.8061567 C 28.272513,6.5748911 27.755706,6.2664361 27.588515,6.0813761 27.513544,5.9983874 27.41183,5.8423111 27.362483,5.7345156 27.273669,5.5405239 27.184567,5.0159997 27.223288,4.9150852 c 0.01703,-0.044358 1.538769,-0.051313 11.225908,-0.051313 10.185514,0 11.208198,-0.00514 11.227988,-0.056748 0.03802,-0.099052 0.02348,-0.3277395 -0.02307,-0.3629501 -0.02465,-0.018655 -0.157822,-0.055274 -0.295916,-0.081377 -0.13809,-0.026089 -0.368096,-0.1051162 -0.511122,-0.1756133 L 48.587029,4.0589214 V 3.7878288 c 0,-0.2810188 -0.05704,-0.4305411 -0.16424,-0.4305411 -0.08038,0 -0.579456,0.2689293 -0.833413,0.4490959 L 47.362899,3.967052 h 0.576196 0.576197 v 0.1614105 0.16141 h -0.627701 -0.6277 L 47.258391,4.1553577 47.256891,4.0208551 47.01047,4.280903 46.764046,4.5409515 H 45.53756 44.31107 l -0.07054,0.089667 c -0.06432,0.081781 -0.09478,0.089656 -0.345912,0.089493 -0.151458,-1.132e-4 -0.432041,-0.010568 -0.623518,-0.023247 -0.319663,-0.021172 -0.345336,-0.028291 -0.31385,-0.087127 0.01886,-0.035236 0.03429,-0.089392 0.03429,-0.1203499 0,-0.050909 -0.505159,-0.055414 -5.298522,-0.047198 l -5.298523,0.00905 -0.03832,0.076874 c -0.095,0.1905326 -0.100455,0.1921303 -0.653495,0.1921303 -0.511026,0 -0.520655,-0.00152 -0.589843,-0.089416 l -0.07033,-0.089416 -4.920556,-0.00968 c -2.706308,-0.00528 -4.956873,-0.023463 -5.001262,-0.040305 l -0.08071,-0.030628 0.001,0.5691189 c 0.001,0.6381943 0.04686,1.3590874 0.10867,1.7138864 l 0.0411,0.2361714 h 4.004635 4.004624 L 28.802813,6.8067763 Z M 9.5377286,7.6960459 C 8.7299631,7.5889548 8.0386522,7.3932144 7.7842196,7.1995624 7.5561327,7.0259623 7.4891408,6.9266701 7.4464716,6.6989775 7.373745,6.3108426 7.5642472,5.6568108 7.8010304,5.4817513 7.8554731,5.4414986 8.0406232,5.3344049 8.2124693,5.2437683 L 8.5249198,5.0789736 h 2.2415062 c 2.471224,0 2.37061,-0.00919 2.451514,0.2229381 0.05358,0.153686 0.04812,0.356446 -0.01295,0.4799663 -0.0283,0.057275 -0.09345,0.3535529 -0.14475,0.6583973 -0.05132,0.3048318 -0.09806,0.5590302 -0.103906,0.5648797 -0.0058,0.00578 -0.13804,-0.061992 -0.293773,-0.1507301 -0.164555,-0.093782 -0.328821,-0.1613597 -0.392207,-0.1613597 -0.07836,0 -0.204807,0.070082 -0.449223,0.2490026 -0.187089,0.1369427 -0.541921,0.3706238 -0.788516,0.5192781 l -0.448358,0.270275 -0.382992,0.00122 c -0.2106409,0 -0.5092527,-0.015924 -0.6635646,-0.036394 z M 10.81743,7.4039824 c 0.128228,-0.087844 0.343183,-0.2211764 0.477676,-0.2962775 0.26835,-0.1498746 0.788648,-0.5121579 0.807614,-0.562351 0.02516,-0.06661 0.284521,-0.027069 0.504263,0.076887 0.126099,0.059653 0.234681,0.1030532 0.241285,0.096449 0.03203,-0.032029 0.205688,-0.9989555 0.208142,-1.1589696 C 13.06171,5.2331256 13.253066,5.258323 10.763716,5.258323 H 8.5666718 l -0.340998,0.1582652 c -0.3336173,0.1548434 -0.45707,0.2595699 -0.45707,0.3877444 0,0.035058 -0.013786,0.063754 -0.030613,0.063754 -0.038109,0 -0.1128639,0.4404289 -0.1128639,0.665065 0,0.2870061 0.1568333,0.5040062 0.4858167,0.6721972 0.2880021,0.1472327 1.1954428,0.3033095 1.9532474,0.3359536 l 0.520093,0.022394 z M 8.4230534,7.2319926 C 8.2312355,7.1449284 8.1051042,7.0118599 7.99722,6.7827331 7.7768022,6.3146168 8.01022,5.6835425 8.4681969,5.5093134 8.7817743,5.3900323 9.2118745,5.5142408 9.4666428,5.797565 9.7188215,6.0780422 9.7741815,6.4210285 9.6198748,6.7468683 9.4006837,7.2097265 8.8583327,7.4295698 8.4230534,7.2319926 Z M 9.0240038,7.0663807 C 9.2949906,6.949188 9.5274859,6.6307072 9.5245871,6.3806478 9.5224903,6.2140797 9.4479449,5.9959221 9.359199,5.8976994 9.3228199,5.8574204 9.2135992,5.7841928 9.1165292,5.7349685 8.9689006,5.6601064 8.9013165,5.6476652 8.7032345,5.6588483 8.2898717,5.6822064 8.1126002,5.8904032 8.1105034,6.3549597 c -0.00105,0.2210637 0.012895,0.2764269 0.1077269,0.4300002 0.187011,0.3027559 0.50203,0.4127909 0.8057735,0.2814208 z M 8.4859723,6.8403482 C 8.2357645,6.6612005 8.1732021,6.3909 8.3182725,6.1158444 8.4809348,5.8074277 8.7840703,5.7120229 9.0751179,5.8776475 9.4191248,6.0734005 9.4836686,6.6264806 9.1853189,6.8219695 8.9858217,6.9526853 8.6550088,6.9613775 8.4859723,6.8403477 Z M 9.0961852,6.6640438 C 9.253443,6.5367116 9.1822629,6.1298833 8.9848623,6.0277989 8.7745667,5.9190597 8.5868374,5.9994296 8.468459,6.2488877 c -0.052367,0.1103872 -0.055816,0.1539507 -0.02123,0.2694074 0.022698,0.075755 0.071914,0.1541389 0.1093782,0.1741787 0.1160195,0.062093 0.4494744,0.04453 0.5395674,-0.028432 z M 14.798843,29.433272 c 0.128228,-0.01378 0.355025,-0.03755 0.504,-0.05282 0.173833,-0.01782 0.299534,-0.05099 0.350921,-0.09261 l 0.08007,-0.06483 -0.236715,-0.710654 c -0.167946,-0.504182 -0.241957,-0.78359 -0.254742,-0.96172 -0.01593,-0.222031 0.07702,-0.744052 0.803451,-4.51169 l 0.821473,-4.2606 0.303775,-0.294705 c 0.167081,-0.16209 0.365059,-0.364334 0.439956,-0.449436 l 0.136174,-0.154743 -0.138077,0.02506 c -0.396358,0.07193 -0.582279,0.15907 -0.858057,0.40216 -0.615135,0.542237 -0.742341,0.838313 -1.090095,2.537279 -0.09854,0.481464 -0.269116,1.364234 -0.37904,1.961732 -0.109923,0.597487 -0.247497,1.317285 -0.305719,1.599549 -0.05822,0.282264 -0.187315,0.984401 -0.286886,1.560288 -0.180401,1.043413 -0.343613,1.923174 -0.378902,2.04243 -0.01022,0.03452 -0.04922,0.06276 -0.08664,0.06276 -0.124144,0 -0.15342,-0.128188 -0.134671,-0.589775 l 0.01756,-0.432479 -0.09537,0.475401 c -0.103443,0.515593 -0.162153,0.634319 -0.362573,0.733184 -0.281817,0.139005 -0.60256,0.147358 -4.8846075,0.127054 L 4.648377,28.364598 4.4240277,28.257897 C 4.0653434,28.087316 3.7843394,27.765124 3.6574533,27.378965 c -0.048121,-0.146429 -0.049221,-0.140504 -0.035279,0.189601 0.019186,0.454782 0.1154167,1.159384 0.1883582,1.379139 0.035068,0.105595 0.1241866,0.247293 0.2199828,0.349717 l 0.1610582,0.172179 5.187067,-0.0057 c 2.8528895,-0.0032 5.2919795,-0.01691 5.4202125,-0.03068 z M 13.495595,28.03486 c 0.05742,-0.02315 0.08772,-0.08105 0.116134,-0.221906 0.04414,-0.218711 0.973552,-5.294288 1.509461,-8.243075 0.198978,-1.094888 0.440322,-2.394221 0.536312,-2.887423 0.208168,-1.06954 0.417127,-2.305082 0.393795,-2.328417 -0.03895,-0.03894 -2.410616,-0.130314 -3.583912,-0.138076 -1.200035,-0.0079 -1.300141,-0.0037 -1.738948,0.07566 -0.7633812,0.137874 -1.1932822,0.297724 -1.9734489,0.733801 -0.5633659,0.314895 -0.5998602,0.347136 -0.6900528,0.609537 -0.044137,0.128477 -0.1918284,0.481288 -0.3281605,0.784018 -0.1363269,0.302744 -0.3773298,0.865183 -0.5355626,1.24987 -0.1582277,0.384689 -0.6016634,1.44999 -0.985404,2.367329 -1.0272189,2.455598 -1.6480993,4.075514 -1.9040468,4.967793 -0.07357,0.256462 -0.1657394,0.579283 -0.2048285,0.717371 -0.039105,0.138101 -0.088269,0.412904 -0.1092889,0.610695 -0.069927,0.657895 0.045447,1.150742 0.3476604,1.485274 0.2484465,0.275006 -0.150978,0.253671 4.7038187,0.251155 2.4028319,-0.0012 4.4037389,-0.01638 4.4464719,-0.0336 z M 4.1772115,27.911416 c -0.3569807,-0.45175 -0.4605139,-1.03194 -0.3234952,-1.812814 0.039734,-0.22651 0.067354,-0.416753 0.061357,-0.422741 -0.00603,-0.006 -0.039105,0.09863 -0.073512,0.232498 -0.08006,0.311249 -0.1126281,1.009636 -0.058793,1.260665 0.052157,0.24314 0.2026739,0.550135 0.342885,0.699293 0.060445,0.06431 0.083645,0.0837 0.05158,0.0431 z m 9.9731625,-0.967557 c 0.0015,-0.03781 -0.0069,-0.059 -0.01882,-0.04707 -0.0119,0.01195 -0.01321,0.04284 -0.0026,0.06875 0.01143,0.02861 0.01997,0.0201 0.02165,-0.02168 z m 0.215213,-0.07175 c 0.0015,-0.0378 -0.0069,-0.05898 -0.01882,-0.04707 -0.0119,0.01195 -0.01321,0.04285 -0.0026,0.06875 0.01142,0.02862 0.01992,0.02011 0.02165,-0.02168 z m 0.248787,-1.363416 c 0.12426,-0.682676 0.219359,-1.260902 0.211344,-1.284955 -0.01683,-0.05047 -0.232553,1.053665 -0.368523,1.886178 -0.167448,1.025235 -0.07333,0.665229 0.157179,-0.601223 z M 4.0528939,24.688856 C 4.721654,22.82297 6.266723,19.006409 7.214296,16.879744 c 0.2329303,-0.522788 0.4811882,-1.10504 0.5516816,-1.293886 0.1123555,-0.30102 0.1513816,-0.36392 0.3163347,-0.509945 0.4290571,-0.379806 1.1882299,-0.817228 1.6893321,-0.973368 0.6969606,-0.217164 0.7262166,-0.218774 3.7717986,-0.207968 2.535012,0.0089 2.790064,0.01523 2.896239,0.07085 0.08926,0.04675 0.111684,0.07794 0.09613,0.133609 -0.01117,0.03994 0.05195,-0.04035 0.140227,-0.178456 0.293643,-0.459261 0.433885,-0.634685 0.721494,-0.902469 l 0.285155,-0.265508 -0.464502,0.01006 c -0.441282,0.0096 -0.463975,0.01368 -0.45402,0.08183 0.0058,0.03946 0.01914,0.176658 0.02968,0.304883 l 0.01919,0.233153 -0.132227,0.0836 c -0.09204,0.05819 -0.159984,0.07664 -0.223543,0.06068 -0.05163,-0.01296 -0.101693,-0.0062 -0.115196,0.01573 -0.01688,0.02732 -0.464671,0.0122 -1.527818,-0.05161 -0.827161,-0.04965 -1.555842,-0.09032 -1.619289,-0.09038 h -0.115354 l -0.01017,-0.385581 -0.01017,-0.385594 -0.483185,-0.01793 -0.483186,-0.01794 -0.08115,-0.143472 c -0.06878,-0.121596 -0.08125,-0.196809 -0.08175,-0.4932 l -5.24e-4,-0.349704 h 0.103712 c 0.0876,0 0.11267,0.0224 0.161403,0.144201 0.03172,0.07931 0.0577,0.214007 0.0577,0.299322 0,0.284364 -0.0597,0.273848 1.554137,0.273848 h 1.422953 l 3.78e-4,-0.116576 c 3.78e-4,-0.113632 0.0082,-0.11952 0.313849,-0.233531 0.220958,-0.08244 0.374264,-0.116839 0.519324,-0.116575 h 0.205819 l 0.02296,-0.143472 c 0.02118,-0.132515 0.0315,-0.143309 0.134932,-0.14127 0.06159,0.0012 0.216906,0.02218 0.345134,0.04659 l 0.233145,0.04438 0.01017,0.383833 0.01017,0.383832 h 0.529115 0.529115 l 0.115307,0.233819 c 0.06341,0.128603 0.115301,0.239393 0.115301,0.246211 0,0.0068 -0.07413,0.04069 -0.164743,0.07529 -0.271217,0.10358 -0.674201,0.396047 -0.837692,0.607965 -0.215365,0.279157 -0.604672,0.97338 -0.668529,1.192154 -0.04686,0.160606 -0.04739,0.201376 -0.0037,0.304883 0.08675,0.205829 0.344742,0.49583 0.571481,0.642383 0.220806,0.142717 0.59942,0.334947 0.617814,0.313688 0.0055,-0.0064 -0.05477,-0.229504 -0.133989,-0.49583 -0.123484,-0.415206 -0.144572,-0.535367 -0.147885,-0.842916 -0.0037,-0.3471 -3.78e-4,-0.363894 0.109121,-0.520096 0.228417,-0.326281 0.42543,-0.44897 0.62932,-0.391884 0.0632,0.01768 0.10175,0.01261 0.111333,-0.01471 0.02007,-0.05718 0.16695,0.07588 0.211213,0.191388 0.01892,0.04931 0.05006,0.339853 0.06921,0.645628 0.05914,0.943669 0.137921,1.190885 0.56279,1.766168 0.225377,0.305146 0.279547,0.356207 0.485622,0.45765 0.311843,0.153523 0.384601,0.137521 0.244447,-0.05377 -0.05781,-0.07891 -0.213231,-0.332796 -0.345369,-0.564188 -0.209216,-0.366358 -0.247712,-0.462819 -0.298035,-0.746744 -0.09587,-0.540878 0.01232,-1.120451 0.32502,-1.740782 0.29846,-0.592114 0.727695,-1.100725 1.044968,-1.238183 0.393868,-0.170657 1.073311,-0.125118 2.239593,0.150088 0.243787,0.05753 0.50648,0.104588 0.583757,0.104588 0.147461,0 0.462616,0.142 0.885823,0.399104 0.125776,0.07641 0.234561,0.13893 0.241742,0.13893 0.0072,0 -0.02055,-0.05695 -0.0616,-0.126551 -0.154453,-0.261784 -0.06372,-0.648875 0.203786,-0.869385 l 0.128778,-0.106148 -0.112817,-0.02257 c -0.262611,-0.05252 -0.45838,-0.296718 -0.70148,-0.87502 L 23.96461,10.961079 h -6.192479 c -5.015363,0 -6.199781,0.0088 -6.230909,0.04632 -0.02113,0.02546 -0.09079,0.198986 -0.154782,0.385581 -0.09274,0.270452 -0.116492,0.397494 -0.117053,0.626231 -3.77e-4,0.157813 0.01132,0.319223 0.02599,0.358686 0.02201,0.05907 0,0.08609 -0.124486,0.153045 -0.08316,0.04473 -0.164596,0.06791 -0.180972,0.05153 -0.01635,-0.01638 -0.05232,-0.137433 -0.07984,-0.268992 -0.07814,-0.373504 0.0042,-0.861383 0.201578,-1.190998 0.03538,-0.05918 0.06442,-0.119708 0.0645,-0.134502 0,-0.0148 -0.39134,-0.02691 -0.869798,-0.02691 H 9.4364545 l -0.2603614,0.744279 c -0.1431989,0.409345 -0.443378,1.268854 -0.6670669,1.910005 l -0.4067107,1.165724 -0.1377947,-0.0086 c -0.075778,-0.0048 -0.1511824,-0.02209 -0.1675477,-0.03845 -0.016355,-0.01636 0.012686,-0.141585 0.064528,-0.278263 0.1591764,-0.419484 1.0831869,-3.2171 1.1097897,-3.360081 l 0.025004,-0.134515 H 6.6854063 4.3745177 l -0.3742789,0.190073 c -0.4177399,0.212157 -0.9643105,0.383971 -1.5612509,0.490797 -0.4649382,0.08319 -0.8217615,0.187828 -1.0727503,0.314544 -0.2262259,0.114224 -0.55289766,0.335463 -0.64222537,0.434957 l -0.0683286,0.0761 H 2.7416202 c 1.7224243,0 2.0859364,0.0084 2.0859364,0.04819 0,0.03161 0.1064165,0.07054 0.3090956,0.113067 0.7341427,0.154064 1.4774691,0.702866 1.7970591,1.32677 0.140447,0.274188 0.3656298,0.979432 0.3895539,1.220044 0.032238,0.324431 -0.042041,1.147408 -0.1267393,1.404287 -0.040049,0.121344 -0.1844688,0.453486 -0.321,0.738103 -1.0032423,2.091327 -1.8199297,4.04877 -2.3739177,5.689806 -0.3166649,0.938032 -0.6994306,2.21983 -0.6712761,2.247983 0.00787,0.0079 0.1080938,-0.247431 0.22274,-0.567308 z M 18.376024,12.668633 c -0.258076,-0.126162 -0.379668,-0.44063 -0.306433,-0.79256 0.06664,-0.320292 0.428177,-0.592215 0.786557,-0.591636 0.479175,0.0012 0.75737,0.350696 0.702387,0.883435 -0.02563,0.24855 -0.131237,0.417081 -0.321839,0.513731 -0.125575,0.06369 -0.200755,0.07483 -0.438513,0.065 -0.184956,-0.0077 -0.335001,-0.03537 -0.422159,-0.07797 z m 0.693916,-0.318116 c 0.168853,-0.113784 0.228674,-0.233366 0.198145,-0.396085 -0.03098,-0.165197 -0.144625,-0.244889 -0.381686,-0.267671 -0.223683,-0.02149 -0.34082,0.04897 -0.390964,0.235178 -0.105001,0.389971 0.244688,0.650849 0.574505,0.428578 z m -0.746723,-0.04401 c -0.05647,-0.223492 -0.02799,-0.512901 0.06262,-0.63671 0.05371,-0.07336 0.06196,-0.09757 0.02228,-0.06535 -0.162043,0.131622 -0.223049,0.52899 -0.110537,0.719988 l 0.05282,0.08968 z m -3.4583,11.782818 c 0,-0.04931 -0.0081,-0.06949 -0.01809,-0.04484 -0.01,0.02465 -0.01,0.06501 0,0.08967 0.01,0.02465 0.01809,0.0045 0.01809,-0.04484 z m 0.03585,-0.215213 c 0,-0.04931 -0.0081,-0.06949 -0.01809,-0.04484 -0.01,0.02465 -0.01,0.06501 0,0.08967 0.01,0.02466 0.01809,0.0045 0.01809,-0.04484 z m 0.03869,-1.055137 c 0.0015,-0.0378 -0.0069,-0.05898 -0.01882,-0.04707 -0.0119,0.01195 -0.01321,0.04285 -0.0026,0.06875 0.01143,0.02862 0.01997,0.02011 0.02165,-0.02168 z m 0.03585,-0.179336 c 0.0015,-0.03781 -0.0069,-0.059 -0.01887,-0.04707 -0.01195,0.01195 -0.01321,0.04284 -0.0026,0.06875 0.01142,0.02861 0.01997,0.0201 0.02165,-0.02168 z m 0.03303,-0.200269 c 0,-0.04931 -0.0081,-0.06949 -0.01809,-0.04484 -0.01,0.02465 -0.01,0.06501 0,0.08967 0.01,0.02466 0.01809,0.0045 0.01809,-0.04484 z m 0.180286,-0.868189 c 0.08111,-0.420113 0.204844,-1.102789 0.27497,-1.517065 0.174017,-1.028027 0.218789,-1.121305 0.842866,-1.75609 0.693659,-0.705572 0.819811,-0.75569 1.83878,-0.730454 l 0.630011,0.01561 -0.114095,-0.08415 c -0.296578,-0.218748 -0.653785,-0.649566 -0.725237,-0.87468 -0.012,-0.03788 -0.105415,-0.110852 -0.207522,-0.162139 l -0.185659,-0.09324 0.07622,0.08502 c 0.129801,0.144767 0.164975,0.248387 0.163622,0.482005 -0.0021,0.345112 -0.121991,0.521077 -0.414621,0.607977 -0.605795,0.179903 -0.998833,-0.11221 -0.945303,-0.702564 0.03554,-0.391908 0.234105,-0.571421 0.632093,-0.571421 0.11787,0 0.255712,0.01575 0.306311,0.03499 0.05059,0.01923 0.09201,0.0298 0.09201,0.02348 0,-0.0063 -0.136227,-0.09475 -0.302726,-0.196494 -0.334126,-0.204182 -0.592769,-0.469577 -0.742059,-0.761438 -0.09415,-0.184067 -0.09545,-0.184985 -0.11668,-0.08272 -0.0648,0.312066 -0.654984,3.557457 -0.81134,4.461448 -0.100658,0.581963 -0.247623,1.394852 -0.326588,1.80641 -0.07896,0.411571 -0.136584,0.755299 -0.128044,0.763827 0.0085,0.0085 0.08189,-0.328191 0.162997,-0.748291 z m -0.323758,0.617109 c 0,-0.04931 -0.0081,-0.06949 -0.01808,-0.04484 -0.01,0.02465 -0.01,0.06501 0,0.08967 0.01,0.02466 0.01808,0.0045 0.01808,-0.04484 z m 0.03869,-0.194292 c 0.0015,-0.0378 -0.0069,-0.05898 -0.01882,-0.04707 -0.0119,0.01195 -0.01321,0.04285 -0.0026,0.06875 0.01143,0.02862 0.01997,0.02011 0.02164,-0.02168 z m 0.140641,-0.845899 c 0,-0.04931 -0.0081,-0.06949 -0.01809,-0.04484 -0.01,0.02466 -0.01,0.06501 0,0.08968 0.01,0.02465 0.01809,0.0045 0.01809,-0.04485 z m 0.03585,-0.179336 c 0,-0.04933 -0.0081,-0.0695 -0.01809,-0.04484 -0.01,0.02465 -0.01,0.06501 0,0.08967 0.01,0.02465 0.01809,0.0045 0.01809,-0.04484 z m 0.39739,-0.01495 c 0.0015,-0.03781 -0.0069,-0.059 -0.01882,-0.04709 -0.0119,0.01195 -0.01321,0.04285 -0.0026,0.06875 0.01142,0.02862 0.01997,0.02011 0.02164,-0.02167 z m -0.36152,-0.200269 c 0,-0.04931 -0.0081,-0.06949 -0.01808,-0.04484 -0.01,0.02465 -0.01,0.06501 0,0.08967 0.01,0.02465 0.01808,0.0045 0.01808,-0.04484 z m 0.03585,-0.179337 c 0,-0.04933 -0.0081,-0.0695 -0.01808,-0.04485 -0.01,0.02466 -0.01,0.06501 0,0.08968 0.01,0.02465 0.01808,0.0045 0.01808,-0.04484 z m 0.324528,-1.675404 c 0.164974,-0.863887 0.355119,-1.869308 0.422542,-2.234272 0.257211,-1.392273 0.44331,-2.388146 0.460084,-2.462027 0.01724,-0.076 0.01,-0.077 -0.726537,-0.09911 -1.547486,-0.04646 -2.043812,-0.05258 -1.784159,-0.02202 0.138093,0.01626 0.739342,0.0417 1.336105,0.05653 0.905864,0.02252 1.085022,0.03548 1.085022,0.07842 0,0.05752 -0.349894,2.010552 -0.810439,4.523692 -0.167611,0.914646 -0.29976,1.677958 -0.293664,1.696249 0.0061,0.01829 0.146067,-0.673568 0.311046,-1.537455 z m 0.287378,0.663391 c 0.144662,-0.564854 0.213021,-0.677921 0.698251,-1.154918 0.239069,-0.235015 0.483196,-0.456883 0.542504,-0.49305 0.05931,-0.03618 0.09082,-0.06583 0.07003,-0.0659 -0.162333,0 -0.956863,0.770922 -1.139465,1.106424 -0.09414,0.172958 -0.291064,0.837167 -0.268381,0.905224 0.0064,0.0194 0.05016,-0.114601 0.09706,-0.297774 z m 8.210307,-1.572502 c 0.282143,-0.0141 0.522909,-0.03558 0.535039,-0.0477 0.01216,-0.01221 -0.759424,-0.0198 -1.714572,-0.01704 -1.076985,0.0031 -1.607207,0.01512 -1.395889,0.03159 0.541239,0.0422 2.01482,0.06118 2.575422,0.03314 z m 1.136975,-0.09572 c 0.14602,-0.03589 0.161499,-0.07834 0.158878,-0.435761 -0.0026,-0.326996 -0.0053,-0.338558 -0.04948,-0.21783 -0.134639,0.365466 -0.310307,0.572188 -0.54644,0.643075 -0.07862,0.0236 -0.04933,0.03007 0.132176,0.02923 0.128227,0 0.265425,-0.009 0.30488,-0.01871 z m -0.46629,-0.19657 c 0.177465,-0.06186 0.291713,-0.198923 0.377377,-0.452744 0.10016,-0.296781 0.128134,-0.721888 0.07418,-1.127294 -0.02254,-0.16955 -0.0563,-0.668611 -0.07497,-1.109041 -0.0528,-1.245857 -0.09554,-1.331663 -0.901816,-1.810548 -0.415553,-0.246814 -0.420177,-0.24816 -1.716564,-0.500182 -1.240277,-0.241116 -1.554452,-0.208685 -1.99263,0.205728 -0.214363,0.202735 -0.445066,0.529203 -0.617473,0.873787 -0.348127,0.695798 -0.415229,1.612733 -0.156467,2.138 0.168203,0.341437 0.564923,0.963279 0.715446,1.121419 l 0.132154,0.138854 -0.233146,-0.01941 c -0.516377,-0.043 -0.780627,-0.19325 -1.119062,-0.63632 -0.39574,-0.518095 -0.526793,-0.861837 -0.602942,-1.581447 -0.02375,-0.224321 -0.05399,-0.504698 -0.06722,-0.623061 l -0.02407,-0.215214 -0.06704,0.100323 c -0.0628,0.09398 -0.06432,0.130263 -0.02406,0.573899 0.02364,0.260464 0.07611,0.610772 0.116601,0.778446 0.17994,0.745085 0.66238,1.424956 1.207411,1.701559 0.267196,0.135597 1.118412,0.223931 1.118412,0.11606 0,-0.02615 -0.04194,-0.08668 -0.09316,-0.134502 -0.05127,-0.04782 -0.123311,-0.145749 -0.160156,-0.217592 -0.03685,-0.07185 -0.12002,-0.187388 -0.18482,-0.256777 -0.06481,-0.06939 -0.242785,-0.367114 -0.395509,-0.661618 -0.218001,-0.420377 -0.284417,-0.584679 -0.309002,-0.764456 -0.06651,-0.486383 0.08167,-1.094197 0.397292,-1.629477 0.200535,-0.340118 0.608441,-0.790861 0.808289,-0.893185 0.353585,-0.181035 1.188461,-0.118312 2.312441,0.173726 0.488915,0.12703 0.70778,0.216371 1.003709,0.409734 0.548111,0.358132 0.629194,0.500132 0.674463,1.181236 0.05414,0.81465 0.119045,2.202243 0.110955,2.372434 -0.0093,0.196847 -0.133757,0.454782 -0.267469,0.554601 -0.09931,0.07413 -0.122928,0.07484 -2.509767,0.07484 -2.554471,0 -2.680702,-0.0072 -3.035528,-0.171865 -0.220759,-0.102474 -0.566663,-0.455184 -0.746036,-0.76072 -0.277555,-0.472771 -0.558978,-1.742329 -0.472136,-2.129847 0.03869,-0.172556 0.119417,-0.291283 0.198103,-0.291283 0.04817,0 0.132354,-0.240638 0.101593,-0.290403 -0.02563,-0.04149 -0.214321,0.03317 -0.287111,0.113607 -0.06868,0.07588 -0.133045,0.180455 -0.197133,0.320279 -0.07249,0.158127 -0.01515,0.720617 0.127971,1.255394 0.07127,0.266325 0.152829,0.53109 0.18123,0.588378 0.06717,0.135471 0.06788,0.133823 -0.04702,0.109293 -0.08459,-0.01807 -0.09097,-0.0142 -0.04482,0.02706 0.02961,0.02646 0.117645,0.173538 0.19566,0.326822 0.09351,0.183688 0.210495,0.344156 0.343205,0.470733 0.21039,0.200684 0.684879,0.469299 0.967613,0.547771 0.209919,0.05827 5.016495,0.06106 5.18301,0.003 z m -7.891388,-0.429585 c -0.05901,-0.06922 -0.11429,-0.120024 -0.122835,-0.112903 -0.02475,0.02062 0.122236,0.202773 0.178823,0.22163 0.02825,0.0095 0.0032,-0.03951 -0.05598,-0.108727 z m 0.702848,0.03224 c 0.09675,-0.07429 0.140367,-0.192847 0.140367,-0.38153 0,-0.14922 -0.01741,-0.198911 -0.09865,-0.282062 -0.05425,-0.05552 -0.07064,-0.0671 -0.03643,-0.02574 0.136647,0.165135 0.124166,0.479828 -0.02543,0.641264 -0.09036,0.09751 -0.07914,0.124288 0.02013,0.04807 z m -0.245858,-0.06723 c 0.07115,-0.02599 0.108136,-0.07342 0.134949,-0.173021 0.0661,-0.245469 -0.04508,-0.401898 -0.290282,-0.408325 -0.183599,-0.0048 -0.24776,0.07256 -0.247,0.297887 5.24e-4,0.183941 0.01955,0.224699 0.131598,0.283699 0.09183,0.04833 0.137937,0.04828 0.270735,0 z m -0.313467,-0.747228 c 0.01258,-0.02034 -0.0015,-0.02636 -0.03376,-0.01411 -0.06213,0.02385 -0.0735,0.04956 -0.02191,0.04956 0.01856,0 0.04362,-0.01596 0.05566,-0.03547 z m 8.406917,-0.584795 c 0.0064,-0.346797 0.08732,-0.701822 0.332721,-1.460127 0.271904,-0.84025 0.246114,-0.780974 0.518201,-1.190696 0.480601,-0.723698 1.249293,-1.368749 1.941846,-1.629489 0.327269,-0.123218 0.954844,-0.261129 1.175225,-0.258261 1.595628,0.02074 17.737004,0.02238 17.737004,0.0018 0,-0.01577 -0.07722,-0.104739 -0.171606,-0.197704 L 46.665503,10.997288 H 37.670026 28.67446 l -0.104849,-0.104851 c -0.05767,-0.05767 -0.104851,-0.122224 -0.104851,-0.143472 0,-0.04241 -0.690345,-0.04532 -1.646096,-0.007 l -0.552106,0.02215 -0.04287,0.143485 c -0.132175,0.442013 -0.457212,0.873082 -0.807718,1.071226 l -0.197275,0.111505 0.175322,0.0251 c 0.227038,0.03251 0.405819,0.174518 0.533083,0.423446 0.15016,0.293724 0.119626,0.610003 -0.08094,0.838438 -0.167831,0.191149 -0.535007,0.257947 -0.833084,0.151548 -0.141275,-0.05043 -0.142214,-0.04439 -0.01929,0.124665 0.117372,0.161397 0.163936,0.46033 0.189658,1.217541 0.01374,0.404426 0.04545,0.856364 0.07043,1.004327 l 0.04545,0.269017 z m -8.119711,0.06039 c -0.180863,-0.183123 -0.514774,-0.473387 -0.443201,-0.385279 0.05048,0.06214 0.146633,0.159385 0.213688,0.216095 0.137789,0.116551 0.283887,0.224233 0.229513,0.169184 z M 9.2929253,14.561341 c 0.3212411,-0.140427 0.5892661,-0.230787 0.9863837,-0.332545 0.147954,-0.03791 0.242838,-0.07031 0.210841,-0.07199 -0.199817,-0.01057 -1.3563592,0.381291 -1.4823804,0.502245 -0.04875,0.0468 -0.033339,0.04151 0.2851557,-0.09771 z M 16.689223,14.28977 c 0.06268,-0.124149 0.156178,-0.294315 0.207769,-0.378159 0.05158,-0.08384 0.08556,-0.15244 0.07549,-0.15244 -0.03502,0 -0.423091,0.678675 -0.410196,0.71737 0.0071,0.02142 0.06427,-0.06263 0.126943,-0.186771 z m -6.006395,-0.1598 c -0.02463,-0.01 -0.06501,-0.01 -0.08967,0 -0.02463,0.01 -0.0047,0.01809 0.04482,0.01809 0.04933,0 0.0695,-0.0081 0.04482,-0.01809 z m 6.463822,-0.583975 c 0.16173,-0.220322 0.403875,-0.425145 0.723245,-0.611777 0.135053,-0.07892 0.219637,-0.143497 0.187955,-0.143497 -0.08942,0 -0.570218,0.33189 -0.733938,0.506623 -0.163287,0.174279 -0.356242,0.425962 -0.326562,0.425962 0.01054,0 0.07771,-0.0798 0.1493,-0.177311 z m 8.577484,-0.297951 0.06833,-0.0807 -0.08071,0.06832 c -0.07584,0.06421 -0.09703,0.09309 -0.06833,0.09309 0.0068,0 0.04314,-0.03632 0.0807,-0.08071 z m -0.31797,-0.01592 c 0.216842,-0.04276 0.311958,-0.454694 0.141873,-0.614482 -0.125072,-0.117507 -0.46042,-0.111707 -0.582185,0.01006 -0.139687,0.139686 -0.105871,0.42737 0.0628,0.534261 0.0966,0.06121 0.264545,0.09244 0.377509,0.07017 z m -8.993331,-0.1513 v -0.182495 l -0.170379,-2.4e-5 c -0.09371,-1.3e-5 -0.452839,-0.03162 -0.798073,-0.07024 -0.922758,-0.103229 -1.418183,-0.144679 -1.73066,-0.144818 h -0.277979 l -5.04e-4,0.09864 c -3.77e-4,0.05426 -0.0097,0.132994 -0.02096,0.174971 -0.01897,0.07072 -0.0037,0.07768 0.206731,0.09474 0.124973,0.01019 0.404772,0.03553 0.621777,0.05643 0.217,0.02089 0.733514,0.05563 1.147794,0.07716 0.41428,0.02155 0.813767,0.04797 0.887747,0.05871 l 0.134508,0.01954 v -0.182493 z m -2.779816,0.140327 c -0.160524,-0.04084 -0.376618,-0.04084 -0.376618,0 0,0.02078 0.101789,0.03407 0.24211,0.03163 0.187084,-0.0033 0.217655,-0.01045 0.134508,-0.03163 z m -0.34907,-0.5739 c 0,-0.06905 -0.0074,-0.09729 -0.0164,-0.06277 -0.009,0.03453 -0.009,0.09101 0,0.125545 0.009,0.03452 0.0164,0.0063 0.0164,-0.06277 z m 2.465315,0.01504 c -0.05919,-0.0084 -0.192562,-0.02451 -0.296399,-0.03575 -0.103833,-0.0112 -0.179553,-0.03539 -0.168256,-0.05368 0.01227,-0.01986 -0.185805,-0.03159 -0.49271,-0.02916 l -0.513243,0.0041 0.430421,0.04709 c 0.404745,0.0443 1.27329,0.100598 1.040187,0.06744 z M 16.64895,12.49103 c 0.03596,-0.09377 -0.0015,-0.501252 -0.0478,-0.516461 -0.02463,-0.0081 -0.04482,0.0096 -0.04482,0.03937 0,0.119922 -0.164413,0.191073 -0.495834,0.214597 -0.405228,0.02877 -0.5174,0.06824 -0.502004,0.176644 0.01028,0.07225 0.03758,0.08299 0.262538,0.103091 0.474058,0.04238 0.807728,0.03543 0.827946,-0.01724 z m 8.922455,-0.129534 c -0.05578,-0.06041 -0.330614,-0.08756 -0.442513,-0.04369 -0.07238,0.02837 -0.04356,0.03507 0.149379,0.03481 0.131478,0 0.260602,0.01195 0.286948,0.02687 0.03696,0.02101 0.03837,0.01691 0.0062,-0.01799 z m -14.431801,-0.04392 c -3.77e-4,-0.02582 -0.0162,-0.07117 -0.03533,-0.10076 -0.02825,-0.04374 -0.03486,-0.03911 -0.03533,0.02479 -3.77e-4,0.04324 0.01562,0.08858 0.03533,0.10076 0.01971,0.0122 0.03565,0.0012 0.03533,-0.02479 z m 13.989288,-0.172493 c 0.06557,-0.04238 0.0089,-0.04238 -0.08967,0 -0.04729,0.02032 -0.05341,0.0315 -0.01793,0.03279 0.02961,0.0012 0.07802,-0.01368 0.107607,-0.03279 z m 0.111836,-0.260476 c 0.24341,-0.140302 0.29986,-0.185136 0.462061,-0.366963 l 0.125543,-0.140729 -0.155627,0.135785 c -0.230467,0.201087 -0.621477,0.444618 -0.742572,0.462493 l -0.106122,0.01566 0.107606,0.0049 c 0.06333,0.0028 0.190518,-0.04283 0.309111,-0.111192 z m -0.01509,-0.23748 c 0.207564,-0.13415 0.412005,-0.345087 0.558082,-0.575799 l 0.06958,-0.109909 h -0.738824 c -0.406353,0 -0.738771,0.0041 -0.738698,0.0089 5.25e-4,0.0438 0.22241,0.588706 0.2678,0.657983 0.05974,0.09118 0.187813,0.158025 0.302743,0.158025 0.03512,0 0.160801,-0.06267 0.279311,-0.139268 z M 11.259708,11.27826 c 0.03245,-0.08262 0.05314,-0.156102 0.04598,-0.163284 -0.0072,-0.0072 -0.03995,0.05419 -0.07285,0.136388 -0.03287,0.08219 -0.05357,0.155662 -0.04597,0.163286 0.0076,0.0075 0.04042,-0.05377 0.07285,-0.13639 z m 37.105343,0.02403 c 0.05854,-0.04927 0.117593,-0.134011 0.131214,-0.188318 0.01363,-0.05431 0.158937,-0.461915 0.322918,-0.905778 0.258287,-0.6991552 0.556857,-1.5738472 0.556857,-1.6313622 0,-0.01019 -1.000734,-0.0186 -2.223852,-0.0186 h -2.22385 v 0.986389 0.9863752 h 1.300234 c 1.453072,0 1.472183,0.0035 1.49029,0.217416 0.0136,0.160643 -0.0732,0.274589 -0.354795,0.465826 -0.116533,0.07912 -0.211879,0.151347 -0.211879,0.16048 0,0.009 0.248946,0.01659 0.553212,0.01659 0.537587,0 0.556218,-0.0025 0.659651,-0.08957 z M 11.368865,11.013849 c 0.03459,-0.09021 0.02443,-0.113482 -0.01788,-0.04076 -0.02091,0.03599 -0.03051,0.07302 -0.02128,0.08224 0.0092,0.0091 0.02684,-0.0095 0.03916,-0.04149 z M 44.533783,9.5446258 V 8.5582378 H 33.125794 c -9.86782,0 -11.421491,-0.007 -11.50803,-0.05175 -0.286047,-0.147918 -0.653611,-0.690494 -0.841806,-1.242618 -0.18665,-0.547608 -0.218437,-0.8473825 -0.219418,-2.0694144 l -10e-4,-1.1219851 -3.658594,0.010945 c -3.02085,0.00893 -3.680474,0.019574 -3.784133,0.060747 -0.09678,0.038454 -0.42143,0.052684 -1.416804,0.062094 l -1.291318,0.012203 -0.13628,-0.1810348 C 10.193457,3.9378565 10.094149,3.8419486 10.047716,3.8242995 10.001272,3.8066395 9.9520507,3.7739928 9.9383011,3.7517523 9.9245672,3.7295003 9.8479302,3.6639458 9.7680275,3.6060665 9.6267942,3.5037556 9.6109322,3.5008243 9.1977162,3.5008243 H 8.7726691 V 3.8057064 4.1105885 H 8.6291974 c -0.1402477,0 -0.1434715,0.00289 -0.1434715,0.1264264 0,0.1633349 -0.081968,0.1963941 -0.4868756,0.1963941 -0.3454903,0 -0.333523,-0.0068 -0.7864623,0.4493728 -0.6647815,0.6695935 -0.7512785,0.7793894 -0.9669892,1.2274789 -0.076176,0.1582402 -0.1471042,0.2600479 -0.181161,0.2600479 -0.044242,0 -0.048174,0.014568 -0.018819,0.069377 0.057751,0.1079093 0.044032,0.2349642 -0.036326,0.3371493 -0.040416,0.05136 -0.1503018,0.2835469 -0.244211,0.5159699 -0.2557589,0.6329602 -0.6654524,1.516787 -0.6897803,1.488042 -0.011741,-0.0139 -0.040782,-0.114047 -0.06445,-0.222547 -0.023694,-0.108501 -0.068392,-0.229568 -0.099355,-0.269018 -0.052975,-0.0675 -0.054788,-0.06325 -0.030718,0.07175 0.071338,0.399821 0.088552,0.62052 0.088138,1.12986 -3.773e-4,0.44292 -0.013682,0.5942412 -0.065503,0.7442672 l -0.065057,0.188306 h 0.3800758 0.3800766 l 0.228459,-0.6185752 c 0.125649,-0.340218 0.3293504,-0.92525 0.4526668,-1.300076 0.4216555,-1.2816094 0.7018104,-2.0695651 0.7546228,-2.1223749 0.02904,-0.029035 0.052796,-0.1032666 0.052796,-0.1649577 0,-0.061678 0.040101,-0.2435809 0.089081,-0.4041989 C 7.2416428,5.5978512 7.3032039,5.4778529 7.4105796,5.3558549 7.5800039,5.1633854 7.9763357,4.88999 8.213187,4.8022092 c 0.090717,-0.033601 0.1649373,-0.073767 0.1649373,-0.089241 0,-0.015474 1.0334725,-0.028128 2.2966087,-0.028128 h 2.296611 l 0.205221,0.1040088 c 0.342847,0.1737637 0.412565,0.282465 0.455303,0.7099114 0.02485,0.2484119 0.02973,0.2588029 0.131379,0.281132 0.07623,0.016742 0.1008,0.039775 0.08836,0.0828 -0.0095,0.032794 -0.114137,0.4147158 -0.232579,0.8487286 -0.691547,2.5341345 -0.976268,3.560186 -1.008154,3.633136 l -0.0359,0.08214 0.291257,-0.01045 0.291252,-0.01045 0.139215,-0.4662925 c 0.198403,-0.664535 0.828446,-2.9593028 1.001766,-3.6486966 0.08061,-0.3206068 0.150264,-0.5866301 0.154799,-0.5911585 0.0047,-0.00451 0.06924,0.010442 0.143786,0.03336 0.109691,0.033664 0.132384,0.055677 0.118965,0.1154063 -0.0196,0.087165 -1.000118,3.9360558 -1.099699,4.3166303 l -0.06839,0.261406 0.306936,-0.01032 0.306935,-0.01031 0.139222,-0.4662925 c 0.198358,-0.664347 0.828413,-2.9591523 1.001773,-3.6486971 0.08061,-0.3206069 0.150266,-0.5866301 0.154795,-0.5911586 0.0047,-0.00451 0.06924,0.010442 0.143791,0.03336 0.109692,0.033664 0.132384,0.055677 0.118966,0.1154064 -0.0195,0.086699 -0.999626,3.9341433 -1.099328,4.3152588 l -0.06803,0.260056 h 0.246182 0.246182 l 0.08928,-0.295913 c 0.04912,-0.1627555 0.180039,-0.6429355 0.290973,-1.0670865 0.197988,-0.75701 0.910209,-3.2942768 0.938185,-3.3422934 0.0078,-0.013446 0.08258,-0.0043 0.166085,0.020302 0.118516,0.034922 0.149422,0.059968 0.140814,0.1141105 -0.0061,0.038156 -0.149489,0.5697485 -0.318708,1.1812987 C 16.182757,7.6457364 15.904217,8.6585805 15.733,9.2849375 l -0.311303,1.1388155 h 0.243101 0.243093 l 0.145548,-0.4552725 c 0.08006,-0.250398 0.235053,-0.779011 0.344452,-1.174693 0.159036,-0.575221 0.470484,-1.6756318 0.845099,-2.9858597 l 0.03271,-0.1143249 0.133439,0.047639 c 0.07339,0.026205 0.131049,0.061502 0.128123,0.078459 -0.0032,0.016947 -0.09475,0.3455647 -0.204068,0.7302526 -0.225114,0.7922332 -0.640799,2.379819 -0.826463,3.156429 -0.06838,0.286062 -0.141328,0.5644885 -0.162092,0.6187315 l -0.03774,0.09864 h 0.301826 0.301825 l 0.08928,-0.295913 c 0.04912,-0.1627555 0.180034,-0.6429365 0.29097,-1.0670855 0.195717,-0.748318 0.91004,-3.2939506 0.937617,-3.3413758 0.0196,-0.033674 0.264693,0.046821 0.264693,0.086938 0,0.018394 -0.104241,0.3990287 -0.231647,0.8458603 -0.127399,0.4468314 -0.400215,1.4782295 -0.606244,2.2919995 L 17.28062,10.423753 h 0.281009 c 0.23658,0 0.283977,-0.01 0.299765,-0.06276 0.01033,-0.03453 0.122892,-0.4259475 0.250182,-0.8698105 0.370395,-1.29161 0.633508,-2.2611292 0.994478,-3.6645225 0.03381,-0.1313701 0.03391,-0.131433 0.167762,-0.095305 0.07367,0.019888 0.14602,0.047539 0.160781,0.061452 0.01479,0.013912 -0.09502,0.4683931 -0.243954,1.0099499 -0.148934,0.5415699 -0.423181,1.5415186 -0.609448,2.2221316 -0.186261,0.680601 -0.354569,1.2737725 -0.374012,1.3181665 -0.0347,0.07921 -0.03087,0.0807 0.205993,0.08042 h 0.241344 l 0.139288,-0.4749855 c 0.220736,-0.752759 0.677853,-2.4102122 0.917771,-3.3277773 0.121041,-0.4629084 0.22622,-0.8603772 0.233738,-0.8832723 0.01016,-0.030822 0.05384,-0.031866 0.16847,-0.00403 0.08514,0.020679 0.166877,0.048257 0.181638,0.061276 0.01479,0.013021 -0.09502,0.4667702 -0.243955,1.0083396 -0.148933,0.5415573 -0.423185,1.54152 -0.609447,2.222121 -0.186261,0.680613 -0.354606,1.2738715 -0.3741,1.3183655 l -0.03544,0.08089 3.271839,-0.0091 3.271839,-0.0091 0.04717,-0.09841 c 0.02595,-0.05415 0.08265,-0.105582 0.126022,-0.114324 0.04335,-0.0086 0.735966,-0.02432 1.539114,-0.03461 l 1.46026,-0.01869 0.07222,0.10143 c 0.03973,0.05579 0.08837,0.1439 0.1081,0.195791 l 0.03585,0.09438 h 7.784366 7.784367 z M 12.247235,10.288893 c 0.138911,-0.4338752 0.614605,-2.0300152 0.614605,-2.0622442 0,-0.02116 -0.100881,0.05821 -0.224182,0.17638 -0.123295,0.118161 -0.309913,0.276288 -0.414704,0.35139 -0.117613,0.0843 -0.177744,0.14932 -0.157127,0.169939 0.0206,0.02062 -0.02138,0.186872 -0.109703,0.434441 -0.108404,0.3038 -0.306323,0.9711032 -0.313101,1.0556392 -3.77e-4,0.0049 0.125701,0.0089 0.280213,0.0089 h 0.280931 z m -0.94977,0.08967 c 0.0064,-0.02465 0.09259,-0.332281 0.191603,-0.6835952 0.108691,-0.385669 0.162725,-0.632131 0.136379,-0.622017 -0.024,0.0091 -0.138969,0.02825 -0.255496,0.04233 -0.116529,0.01407 -0.234137,0.03755 -0.261358,0.05215 -0.0272,0.0146 -0.104414,0.207943 -0.171542,0.429623 -0.06712,0.22168 -0.160744,0.4982952 -0.208042,0.6146952 l -0.086,0.211641 h 0.321429 c 0.227055,0 0.324838,-0.01316 0.333026,-0.04484 z M 10.458646,9.9119678 c 0.168806,-0.686261 0.164288,-0.647805 0.07268,-0.618732 -0.04214,0.01338 -0.16857,0.02984 -0.280914,0.03658 -0.182372,0.01094 -0.205463,0.02117 -0.215496,0.09558 -0.01164,0.08648 -0.2129478,0.8611822 -0.2464228,0.9484102 -0.015202,0.03964 0.037533,0.04949 0.2627888,0.04905 h 0.281815 L 10.458642,9.9124968 Z M 9.4150256,10.342698 c 0.016879,-0.04439 0.1003674,-0.337892 0.1855694,-0.6522342 0.1056774,-0.389857 0.1418256,-0.575887 0.1137289,-0.585245 -0.1320651,-0.04402 -0.221765,-0.165524 -0.2607125,-0.353139 -0.049536,-0.2387 -0.029355,-0.270777 0.2638,-0.419219 0.3064166,-0.155158 0.3150606,-0.190633 0.053117,-0.218019 -0.1502284,-0.0157 -0.230257,-0.01006 -0.2473037,0.01756 -0.027415,0.04436 -0.1954191,0.611172 -0.4238939,1.43015 -0.079803,0.286051 -0.169005,0.5967702 -0.1982182,0.6904762 l -0.053122,0.170367 h 0.2681875 c 0.245123,0 0.2708242,-0.0069 0.2988476,-0.0807 z M 7.5721677,10.217148 C 7.6050867,10.103717 7.7362035,9.6800198 7.8635614,9.2756068 8.2889491,7.924796 8.3155204,7.804987 8.1896985,7.804987 8.1636465,7.804987 8.0791619,7.772772 8.001922,7.733393 7.924682,7.694008 7.8503465,7.67383 7.8367384,7.688561 7.8119444,7.715379 7.460499,8.7001588 7.1039587,9.7418978 6.9993036,10.047673 6.902527,10.3261 6.888898,10.360632 c -0.022488,0.05697 0.00524,0.06276 0.2993246,0.06276 H 7.5123364 Z M 6.5651303,10.378561 C 6.7290769,9.8500108 7.0387857,8.9419308 7.2649226,8.3267198 7.4235224,7.8952489 7.5532916,7.5250274 7.5532916,7.5040193 c 0,-0.02101 -0.061064,-0.095053 -0.1356979,-0.1645304 C 7.3429644,7.2700113 7.2472677,7.1647439 7.2049392,7.1055567 7.1468586,7.0243546 7.1233066,7.011146 7.1089333,7.0517531 7.0984494,7.0813385 6.8872783,7.7392223 6.63966,8.5137048 6.3920365,9.2881878 6.1492724,10.028556 6.1001922,10.158969 c -0.049065,0.130401 -0.089249,0.243254 -0.089249,0.250764 0,0.0075 0.1215603,0.01366 0.2701376,0.01366 0.1847832,0 0.2745355,-0.01417 0.2840496,-0.04484 z M 12.590261,9.9007458 c 0.01321,-0.05257 0.01709,-0.102501 0.0086,-0.110954 -0.0084,-0.0084 -0.02616,0.02763 -0.03937,0.08021 -0.01321,0.05256 -0.01709,0.102487 -0.0086,0.11094 0.0084,0.0084 0.02616,-0.02764 0.03937,-0.08019 z m 0.05354,-0.209667 c 0.0015,-0.03781 -0.0069,-0.059 -0.01882,-0.04707 -0.0119,0.01195 -0.01321,0.04286 -0.0026,0.06875 0.01143,0.02861 0.01997,0.02011 0.02165,-0.02168 z M 11.88608,9.1988338 c 0.01798,-0.06628 0.02359,-0.13649 0.01253,-0.156013 -0.01106,-0.01954 -0.03318,0.02729 -0.04912,0.104047 -0.03622,0.174342 -0.0076,0.215012 0.03653,0.05197 z m 4.829074,-0.804573 c 0.01321,-0.05257 0.01709,-0.102487 0.0086,-0.11094 -0.0084,-0.0084 -0.02616,0.02763 -0.03937,0.08019 -0.01321,0.05257 -0.01709,0.102487 -0.0086,0.110953 0.0084,0.0084 0.02616,-0.02763 0.03937,-0.08021 z M 5.185963,8.2354168 c 0.021124,-0.03945 0.030351,-0.07175 0.020444,-0.07175 -0.00986,0 -0.035226,0.03229 -0.056325,0.07175 -0.021124,0.03945 -0.030351,0.07175 -0.020444,0.07175 0.00986,0 0.035226,-0.0323 0.056325,-0.07175 z m 11.600923,-0.09223 c 0.01321,-0.05257 0.01708,-0.1024873 0.0086,-0.1109404 -0.0084,-0.00843 -0.02616,0.027621 -0.03937,0.080201 -0.01321,0.05257 -0.01709,0.102486 -0.0086,0.11094 0.0084,0.0084 0.02616,-0.02762 0.03937,-0.08019 z m 0.143277,-0.5202999 c 0.05362,-0.1995393 0.09093,-0.3693658 0.08292,-0.3773791 -0.008,-0.00805 -0.05836,0.1487806 -0.111899,0.348408 -0.05354,0.1996405 -0.09085,0.3694666 -0.08294,0.3773912 0.0079,0.00793 0.05828,-0.1488683 0.111904,-0.3484201 z M 5.2630352,7.598557 c 0.071982,-0.2119684 0.171495,-0.4822438 0.2211465,-0.6006065 0.049641,-0.1183623 0.09567,-0.2555567 0.10227,-0.3048816 l 0.012004,-0.089669 -0.6171114,-0.00982 -0.6171113,-0.00982 0.2416424,0.4761045 c 0.1919385,0.378159 0.5012019,0.9253135 0.522416,0.9242698 0.00209,0 0.062762,-0.1736258 0.1347438,-0.3855934 z M 5.6445008,7.1782183 c 0.083179,-0.1908848 0.1512297,-0.3733035 0.1512297,-0.4053568 0,-0.099166 -0.059113,-0.00199 -0.1260475,0.2071631 -0.034701,0.1085 -0.09414,0.2590037 -0.1320441,0.3344571 -0.037899,0.075453 -0.063396,0.1537494 -0.05665,0.1740027 0.00676,0.020239 0.080327,-0.1193692 0.1635119,-0.3102661 z m 11.4111292,-0.0338 c 0.0015,-0.037815 -0.0069,-0.059 -0.01882,-0.047073 -0.01195,0.011952 -0.01321,0.042848 -0.0026,0.068748 0.01142,0.028605 0.01997,0.020103 0.02165,-0.021675 z M 4.1985199,6.9441494 C 4.0887119,6.7231738 3.9947714,6.6145227 3.867555,6.5613738 3.7993103,6.5328577 3.7376128,6.5153811 3.7304629,6.5225415 c -0.00718,0.00717 0.109268,0.1331817 0.2587154,0.2800747 0.2316618,0.2276932 0.2625262,0.2485629 0.2093416,0.1415348 z M 5.8431333,6.4772906 C 5.8192824,6.4521556 5.6865621,6.4279274 5.5382522,6.4216381 l -0.2626155,-0.011197 0.2152127,0.027887 c 0.1183628,0.015333 0.2555598,0.040379 0.3048811,0.055652 0.07074,0.021901 0.080747,0.018368 0.047387,-0.016742 z M 3.9126304,6.3300328 c 0.098638,-0.015071 0.258946,-0.037825 0.356231,-0.050569 L 4.4457503,6.2563051 4.2207352,6.1360803 C 4.0316588,6.0350527 3.9804924,6.0216427 3.9004376,6.0520732 3.7699608,6.1016775 3.6794851,6.1893179 3.6794851,6.2660917 c 0,0.088058 0.026943,0.095443 0.2331453,0.063944 z"
   id="path2178" /></svg>
