<?xml version="1.0" encoding="UTF-8" standalone="no"?>
<!-- Generator: Adobe Illustrator 16.0.0, SVG Export Plug-In . SVG Version: 6.00 Build 0)  -->

<svg
   version="1.1"
   x="0px"
   y="0px"
   width="50.75px"
   height="32px"
   viewBox="0 0 50.75 32"
   enable-background="new 0 0 50.75 32"
   xml:space="preserve"
   id="svg2160"
   sodipodi:docname="elite.svg"
   inkscape:version="1.1.1 (3bf5ae0d25, 2021-09-20)"
   xmlns:inkscape="http://www.inkscape.org/namespaces/inkscape"
   xmlns:sodipodi="http://sodipodi.sourceforge.net/DTD/sodipodi-0.dtd"
   xmlns="http://www.w3.org/2000/svg"
   xmlns:svg="http://www.w3.org/2000/svg"><defs
   id="defs2164" /><sodipodi:namedview
   id="namedview2162"
   pagecolor="#505050"
   bordercolor="#eeeeee"
   borderopacity="1"
   inkscape:pageshadow="0"
   inkscape:pageopacity="0"
   inkscape:pagecheckerboard="0"
   showgrid="false"
   inkscape:zoom="9.6875"
   inkscape:cx="26.735484"
   inkscape:cy="14.03871"
   inkscape:window-width="1440"
   inkscape:window-height="848"
   inkscape:window-x="1358"
   inkscape:window-y="-8"
   inkscape:window-maximized="1"
   inkscape:current-layer="svg2160" />

<g
   id="guides">
</g>
<path
   style="fill:#ffffff;stroke-width:0.0303224"
   d="m 27.399282,30.521579 c 0.178427,-0.202461 0.288523,-0.417844 0.358234,-0.700849 0.06833,-0.277339 0.06826,-1.006571 0,-1.656723 -0.02983,-0.283515 -0.0624,-0.795208 -0.07239,-1.137092 l -0.01817,-0.62162 0.719608,-2.562249 c 0.42851,-1.525768 0.748992,-2.613287 0.792262,-2.68842 0.164144,-0.285063 0.604579,-0.584696 0.97475,-0.663139 0.392952,-0.08327 0.677251,-0.05963 2.206552,0.183488 1.106946,0.175965 1.413338,0.206789 1.661519,0.167148 0.399211,-0.06378 2.873202,-0.779154 3.158797,-0.9134 0.0914,-0.04296 0.168666,-0.114021 0.245836,-0.226068 0.149375,-0.21687 0.168898,-0.392325 0.06924,-0.622087 -0.06706,-0.154596 -0.07137,-0.200053 -0.06883,-0.72589 0.0023,-0.497773 0.0098,-0.576918 0.06544,-0.702568 0.164168,-0.370526 0.592802,-0.877906 1.050944,-1.244023 0.402736,-0.321842 0.595277,-0.43665 0.888487,-0.52977 0.129958,-0.04127 0.32497,-0.107084 0.433377,-0.146248 0.411171,-0.148553 0.717488,-0.178343 1.618655,-0.157416 0.452274,0.01051 1.077119,0.03427 1.388571,0.05283 0.714242,0.04256 4.198994,0.02169 4.374789,-0.02619 0.131359,-0.03577 0.220341,-0.127356 0.24848,-0.255739 l 0.0182,-0.08302 1.110629,-0.0079 1.11064,-0.0079 0.0067,-0.166773 c 0.01404,-0.347249 0.07388,-1.129738 0.132961,-1.739053 0.03372,-0.347756 0.0537,-0.639904 0.04437,-0.649222 -0.0094,-0.0094 -0.600356,0.135508 -1.313408,0.321831 l -1.296457,0.338772 -10.415776,-6.33e-4 -10.415775,-5.18e-4 -0.03357,-0.07243 c -0.02154,-0.04648 -0.02492,-0.125174 -0.0094,-0.219602 0.01329,-0.08094 0.02501,-0.30067 0.02598,-0.488291 l 0.0018,-0.341129 h -2.754514 -2.754545 l -0.03857,0.128871 c -0.05125,0.171249 -0.193803,0.450847 -0.343994,0.674676 -0.147392,0.219667 -0.697974,0.790561 -0.824781,0.855225 -0.05002,0.02551 -0.122488,0.07522 -0.161016,0.110478 -0.04624,0.04232 -0.16145,0.08153 -0.33905,0.115408 -0.379699,0.07242 -0.522209,0.141581 -0.591178,0.28689 -0.08013,0.16882 -0.09764,0.523676 -0.03388,0.686643 0.05805,0.148375 0.177791,0.295347 0.240626,0.295347 0.02378,0 0.09048,0.01974 0.148209,0.04387 0.05774,0.02412 0.243247,0.05805 0.412241,0.07539 0.372453,0.03822 1.261364,0.171571 1.456354,0.218477 0.224731,0.05406 0.617651,0.251273 0.723556,0.363172 0.05343,0.05645 0.136674,0.198157 0.184995,0.314898 0.04831,0.116742 0.151286,0.332238 0.228816,0.47888 0.174863,0.330719 0.184551,0.472043 0.05306,0.774423 -0.04836,0.111198 -0.163286,0.386383 -0.255406,0.611529 -0.09211,0.225146 -0.299569,0.709549 -0.461019,1.076452 -0.161451,0.366903 -0.563475,1.287942 -0.893411,2.046767 -0.329924,0.758815 -0.6576,1.5093 -0.728172,1.667737 -0.468477,1.051868 -0.714514,1.661784 -0.807304,2.00128 -0.250493,0.916529 -0.349968,1.67388 -0.289774,2.206244 0.02025,0.179128 0.05709,0.421196 0.08185,0.537924 0.02476,0.116737 0.04503,0.290984 0.04503,0.387222 0,0.255376 0.08606,0.37727 0.352834,0.499693 0.264978,0.121609 0.48156,0.156942 1.10265,0.179882 l 0.50032,0.01848 0.0018,0.488331 c 0.002,0.501772 0.04134,0.785266 0.129926,0.936869 0.05003,0.08562 0.361492,0.264045 0.460934,0.264045 0.02886,0 0.111963,0.027 0.184666,0.05997 0.12861,0.05836 0.208105,0.06 2.942088,0.06064 l 2.809889,0.001 0.153662,-0.174353 z m -7.81432,-2.307798 c -0.0257,-0.0163 -0.09141,-0.374881 -0.187436,-1.022922 l -0.147859,-0.997817 2.052265,-4.578693 2.052274,-4.578696 v -0.394191 c 0,-0.360878 -0.0067,-0.408351 -0.07859,-0.561722 -0.04782,-0.101944 -0.166522,-0.257628 -0.303218,-0.397677 -0.406267,-0.416215 -0.922048,-0.586683 -1.937861,-0.640467 l -0.136452,-0.0072 -0.0082,-0.680098 c -0.0063,-0.523851 0.001,-0.685712 0.03033,-0.704534 0.02117,-0.01343 1.228056,-0.02464 2.68197,-0.0249 2.36312,-4.32e-4 2.648523,0.0046 2.691126,0.04719 0.03966,0.03968 0.04764,0.136121 0.04764,0.576127 v 0.528472 h 1.365379 1.365377 l 0.173982,0.08783 c 0.193876,0.09787 0.422332,0.323834 0.519026,0.513362 0.158162,0.310036 0.195543,0.802075 0.09483,1.248483 -0.06787,0.300813 -0.108323,0.419314 -0.63153,1.849666 -0.216562,0.592049 -0.580939,1.615438 -0.809714,2.274194 -0.228774,0.658747 -0.627551,1.791297 -0.886163,2.516763 -0.258621,0.725465 -0.742824,2.117264 -1.076017,3.092895 -0.333193,0.97562 -0.627147,1.797748 -0.65325,1.826927 -0.04461,0.04988 -0.231373,0.05304 -3.112906,0.0526 -1.685998,0 -3.083261,-0.01175 -3.105023,-0.02556 z m 6.189683,-0.254303 c 0.05145,-0.123688 0.391244,-1.103404 0.880805,-2.53966 0.207489,-0.608717 0.598107,-1.734445 0.86805,-2.501601 0.269932,-0.767165 0.65448,-1.865591 0.854543,-2.440959 0.200063,-0.575369 0.566806,-1.600859 0.814998,-2.278852 0.24818,-0.677994 0.479745,-1.332965 0.51458,-1.45548 0.08996,-0.316394 0.112005,-0.754878 0.0486,-0.966708 -0.07812,-0.260954 -0.304321,-0.56798 -0.529786,-0.719106 l -0.192263,-0.128871 h -1.419164 c -1.266115,0 -1.421146,-0.0051 -1.437572,-0.04796 -0.01008,-0.02639 -0.0184,-0.278814 -0.0184,-0.560967 v -0.513005 h -2.562251 -2.56225 v 0.554887 0.554886 l 0.405292,0.03661 c 0.736905,0.06656 1.214443,0.243789 1.581133,0.586807 0.34339,0.321227 0.487121,0.704778 0.4633,1.236395 -0.01162,0.259443 -0.02678,0.322119 -0.14355,0.593311 -0.35748,0.830234 -1.490243,3.387232 -2.63959,5.958362 l -1.280929,2.865479 0.117745,0.924838 0.117745,0.924838 3.038951,0.0077 3.038951,0.0077 z M 22.83222,26.309811 c -0.327475,-0.154691 -0.513828,-0.482303 -0.486983,-0.856145 0.0169,-0.235491 0.0916,-0.397303 0.255916,-0.554318 0.232275,-0.221962 0.515992,-0.305223 0.805044,-0.236223 0.432317,0.10321 0.713624,0.480446 0.685676,0.919501 -0.03985,0.625917 -0.685272,0.998518 -1.259653,0.727185 z m 0.677143,-0.174449 c 0.249307,-0.116079 0.383064,-0.328482 0.383064,-0.608281 0,-0.397058 -0.282687,-0.683385 -0.674673,-0.683385 -0.390076,0 -0.677072,0.288936 -0.677697,0.682249 0,0.275662 0.137768,0.493794 0.386087,0.609417 0.199945,0.09311 0.383263,0.09311 0.583219,0 z m 1.520315,-9.205546 c -0.173971,-0.06509 -0.374935,-0.24802 -0.461571,-0.420145 -0.07623,-0.151456 -0.105638,-0.390087 -0.07159,-0.580789 0.07335,-0.410732 0.397398,-0.696907 0.79454,-0.701649 0.334063,-0.0039 0.536672,0.08374 0.715332,0.309777 0.141365,0.178839 0.18872,0.329393 0.186693,0.593605 -0.0047,0.606103 -0.595221,1.011789 -1.163406,0.799201 z m 0.583336,-0.198624 c 0.152326,-0.06833 0.240892,-0.15964 0.322317,-0.33231 0.113205,-0.24006 0.08169,-0.581434 -0.06906,-0.748135 -0.22333,-0.246956 -0.7808,-0.262268 -1.015356,-0.02789 -0.271535,0.271335 -0.219576,0.789314 0.105023,1.046932 0.101172,0.08028 0.143656,0.09308 0.333554,0.100459 0.148165,0.0057 0.251406,-0.0067 0.323526,-0.03907 z m 7.063888,3.381901 c -0.292055,-0.05953 -0.57871,-0.153737 -0.961263,-0.31594 -0.104218,-0.04421 -0.281605,-0.10235 -0.394183,-0.129248 -0.342648,-0.08184 -0.463512,-0.21288 -0.56965,-0.61762 -0.06867,-0.261879 -0.04502,-0.557075 0.09072,-1.132359 0.107209,-0.454355 0.161577,-0.64646 0.385205,-1.361128 l 0.121375,-0.387892 0.2167,0.0089 0.216698,0.0089 0.126935,0.436419 c 0.257371,0.884889 0.48259,1.438134 0.751801,1.846768 0.179573,0.272575 0.54045,0.683045 0.814563,0.926504 l 0.206152,0.183095 0.263853,-0.05453 c 0.14511,-0.02998 0.269254,-0.05966 0.275864,-0.06594 0.0066,-0.0063 -0.08208,-0.110924 -0.197102,-0.232542 -0.42282,-0.447108 -0.824907,-1.095084 -0.994984,-1.603457 -0.0992,-0.296531 -0.126521,-0.655339 -0.08023,-1.053598 0.01999,-0.171998 0.04371,-0.331882 0.0527,-0.3553 0.01369,-0.03568 0.236456,-0.04258 1.374875,-0.04258 h 1.358523 l 0.249359,0.265321 c 0.314773,0.334912 0.553108,0.648999 0.631626,0.832355 0.202332,0.47249 0.271842,1.397232 0.128864,1.714477 -0.0955,0.211894 -0.259406,0.35312 -0.5921,0.510167 -0.36285,0.171265 -0.820017,0.304056 -1.306288,0.379402 -0.217082,0.03363 -0.62666,0.114127 -0.910175,0.178862 -0.602297,0.137545 -0.830223,0.148591 -1.259845,0.06104 z M 9.4047718,23.168373 C 9.8012774,22.71772 9.9039044,22.093014 9.7771293,20.901764 9.7478463,20.626592 9.7095263,20.109835 9.6919863,19.753426 l -0.0319,-0.648019 0.7339217,-2.611647 c 0.578011,-2.056849 0.75213,-2.638323 0.819656,-2.737232 0.158458,-0.232109 0.535918,-0.513496 0.791961,-0.590392 0.20417,-0.06132 0.609005,-0.0851 0.930367,-0.05465 0.17603,0.01668 0.794965,0.105195 1.375416,0.196698 1.272185,0.200557 1.525141,0.22143 1.860328,0.153511 0.302805,-0.06135 2.086802,-0.569059 2.668633,-0.759457 0.235808,-0.07716 0.463172,-0.167383 0.505242,-0.20048 0.109597,-0.08621 0.23356,-0.351425 0.232764,-0.498004 0,-0.0676 -0.02765,-0.182398 -0.06064,-0.2551 -0.05337,-0.117617 -0.05998,-0.199197 -0.05998,-0.740447 v -0.608269 l 0.095,-0.169224 c 0.233995,-0.4168444 0.718304,-0.942254 1.207918,-1.3104352 0.33244,-0.2499791 0.47668,-0.3259494 0.922186,-0.4857125 0.505943,-0.181431 0.606043,-0.1920862 1.747145,-0.1859979 5.323851,0.028401 5.802918,0.02599 5.904791,-0.029685 0.09754,-0.053308 0.190024,-0.1888394 0.190024,-0.2784637 0,-0.041604 0.130362,-0.046991 1.137102,-0.046991 h 1.137093 V 7.673588 c 0,-0.1209104 0.02683,-0.5814334 0.05932,-1.0233835 0.09597,-1.3049403 0.0976,-1.3341895 0.07392,-1.3341895 -0.01247,0 -0.597269,0.1500972 -1.29954,0.3335473 L 29.355875,5.9831096 18.941074,5.9821573 8.5262859,5.981205 8.47198,5.9065818 C 8.421435,5.8371188 8.420902,5.8210788 8.46431,5.6746115 8.493832,5.5752365 8.511038,5.3964089 8.511038,5.189225 V 4.8611812 H 5.7573541 3.0036685 L 2.9190175,5.0778925 C 2.7145946,5.6012703 2.2430296,6.2026197 1.8112978,6.4904716 1.7187402,6.552187 1.6157136,6.6251452 1.5823529,6.6526032 1.5490061,6.6800601 1.4031711,6.7268168 1.2582844,6.7565112 0.77239437,6.8560968 0.65497954,6.9766774 0.63282382,7.3988114 c -0.0141798,0.2702893 0.0355747,0.4713753 0.13949639,0.5636766 0.0705195,0.06264 0.44143169,0.1735209 0.58044139,0.1735209 0.1965187,0 1.3730694,0.1828805 1.5941085,0.247783 0.2381435,0.069932 0.4661861,0.1780931 0.6156785,0.2920213 0.072989,0.055618 0.166713,0.20971 0.3451508,0.5674146 0.2738268,0.5489128 0.308269,0.6920318 0.2224715,0.9243872 -0.027713,0.07505 -0.062917,0.186548 -0.078243,0.247775 -0.032806,0.131154 -0.3158132,0.804169 -0.832993,1.980928 -0.4212823,0.958567 -1.2314199,2.818969 -1.7891964,4.108696 -0.320757,0.741705 -0.3931414,0.939857 -0.51065481,1.398106 -0.20087678,0.783335 -0.24605736,1.116518 -0.24624705,1.816072 0,0.503812 0.007749,0.606553 0.0529012,0.694494 0.0384799,0.07486 0.0530632,0.175223 0.0530632,0.365301 v 0.262091 l 0.11371225,0.1107 c 0.12925021,0.12582 0.38250151,0.250749 0.60163121,0.296767 0.081872,0.0172 0.3978739,0.03959 0.7022377,0.04978 l 0.5533837,0.01851 v 0.38231 c 0.00105,0.468075 0.045444,0.917909 0.1023813,1.028015 0.063151,0.122138 0.1364837,0.175754 0.3216062,0.235193 0.091728,0.02944 0.230705,0.07867 0.3088419,0.109385 0.1343927,0.05282 0.2944856,0.05585 2.9616732,0.05585 h 2.819599 l 0.1400706,-0.1592 z M 1.5770934,20.833539 c -0.013373,-0.02084 -0.080841,-0.48137 -0.1499266,-1.023378 L 1.3015483,18.824683 3.3127587,14.291468 C 4.4189208,11.798203 5.3380721,9.6968556 5.3553031,9.6218063 5.4267988,9.3105553 5.3642089,8.8167164 5.2226715,8.5751927 5.1066238,8.377171 4.8062597,8.1238904 4.5279336,7.9893655 4.1708668,7.8167784 3.8477007,7.74667 3.1670118,7.6941328 L 2.9320092,7.6759929 V 6.9811623 6.2863328 H 5.642627 c 2.4437614,0 2.7124312,0.00472 2.7290264,0.047964 0.01008,0.026381 0.0184,0.278815 0.0184,0.5609657 v 0.5130016 h 1.359818 1.3598076 l 0.179309,0.1158927 c 0.332089,0.2146401 0.572471,0.5626943 0.651562,0.9434235 0.05005,0.240881 0.01851,0.63954 -0.07212,0.9116446 -0.04167,0.1250812 -0.241921,0.6777091 -0.445018,1.2280621 -0.46139,1.250302 -0.767801,2.11908 -1.5721136,4.457405 -0.349926,1.017319 -0.8300861,2.395472 -1.0670303,3.062569 -0.2369338,0.667097 -0.5454037,1.545153 -0.6854739,1.951229 -0.1400814,0.406077 -0.2622725,0.750624 -0.2715567,0.765648 -0.00987,0.01591 -1.3123783,0.02731 -3.1213625,0.02731 -2.4503952,0 -3.1095958,-0.0079 -3.12878,-0.03792 z m 6.1783618,-0.178406 c 0.050222,-0.09384 0.2151719,-0.562211 0.7407764,-2.103354 0.2559485,-0.750485 0.679204,-1.971722 0.9405733,-2.713863 0.26136,-0.742144 0.5885781,-1.676833 0.7271421,-2.07709 C 10.64312,12.376701 10.85341,11.785577 11.231869,10.7589 11.688229,9.5209113 11.78418,9.2047358 11.806972,8.8637438 11.842472,8.3325429 11.63891,7.9125704 11.226987,7.6671915 L 11.046842,7.5598775 H 9.6458866 c -1.2495111,0 -1.4029394,-0.00519 -1.4193538,-0.047964 C 8.2164528,7.4855345 8.2081248,7.233102 8.2081248,6.9509478 V 6.4379461 H 5.6307123 3.0532999 v 0.5603896 c 0,0.6501719 -0.050965,0.5776826 0.4245177,0.6038483 0.5263583,0.02896 1.0034735,0.1691197 1.3431065,0.3945558 0.1993514,0.1323245 0.5228783,0.4934923 0.6000702,0.669909 0.08828,0.201722 0.12808,0.4813779 0.1112516,0.7815523 L 5.5165567,9.7279356 4.4256742,12.153734 C 3.8256895,13.487923 2.9966437,15.343659 2.5833406,16.277592 2.1700392,17.211524 1.740534,18.173503 1.6288983,18.415328 l -0.2029888,0.43967 0.085637,0.636772 c 0.047107,0.350233 0.110488,0.766401 0.1408449,0.924838 l 0.055194,0.288067 3.0065455,0.0077 3.0065454,0.0077 z M 4.8581348,18.958207 C 4.5616542,18.810136 4.3862719,18.511778 4.388819,18.159762 c 0.00291,-0.394448 0.2395332,-0.737817 0.5774367,-0.837719 0.142681,-0.04218 0.4118391,-0.04297 0.563082,-0.0016 0.277678,0.07587 0.5361623,0.416405 0.5768542,0.759901 0.047171,0.398363 -0.2246894,0.824271 -0.5989349,0.938272 -0.1683578,0.05128 -0.4844042,0.02189 -0.6491222,-0.06038 z m 0.6664494,-0.161461 c 0.1213953,-0.05435 0.2741021,-0.218864 0.3320041,-0.357704 0.057906,-0.138807 0.061012,-0.416804 0.00614,-0.547749 -0.2693066,-0.642664 -1.1758203,-0.50692 -1.2768434,0.191203 -0.039376,0.27215 0.125491,0.593269 0.359061,0.699332 0.1480284,0.06723 0.4456864,0.07489 0.5796448,0.01492 z M 6.9766502,9.5373734 C 6.7867532,9.4396717 6.5793911,9.1910179 6.521372,8.9914353 6.3591049,8.4332404 6.7883447,7.8631018 7.3708643,7.8631018 c 0.6421204,0 1.072983,0.686338 0.791729,1.2611893 C 8.0701857,9.3131626 7.8626642,9.5076594 7.6828045,9.5739668 7.5032103,9.6401713 7.1398623,9.6213434 6.9766502,9.5373777 Z M 7.5372917,9.4094907 C 7.9238663,9.3182193 8.1619888,8.8411514 7.9995087,8.4834613 7.8922359,8.2472977 7.6542513,8.1052606 7.3676498,8.106349 7.1586211,8.107097 6.9888204,8.1782411 6.8530476,8.3218177 6.7303152,8.4516157 6.6918305,8.5548429 6.6926691,8.7520092 c 0.00129,0.3117871 0.2235756,0.5922491 0.5196736,0.6557507 0.1670214,0.035824 0.1802528,0.035895 0.324949,0.00171 z m 6.9135463,3.2945203 c -0.160475,-0.04294 -0.416592,-0.132996 -0.569151,-0.200131 -0.152559,-0.06713 -0.39416,-0.154951 -0.536884,-0.195149 -0.302327,-0.08514 -0.376548,-0.144466 -0.497317,-0.397528 -0.174841,-0.366342 -0.175339,-0.747009 -0.0019,-1.416221 0.07443,-0.287121 0.322498,-1.0522511 0.494474,-1.5251097 l 0.04411,-0.1212904 h 0.206492 0.206492 l 0.110074,0.3638712 c 0.413514,1.3670229 0.872464,2.1853799 1.585377,2.8269409 l 0.204222,0.183779 0.250622,-0.05668 c 0.137831,-0.03117 0.261889,-0.05704 0.275673,-0.05746 0.01379,-4.31e-4 -0.07225,-0.106529 -0.191171,-0.235778 -0.425028,-0.461955 -0.836092,-1.124893 -1.00116,-1.614671 -0.08531,-0.253098 -0.113905,-0.7929367 -0.06156,-1.1617881 l 0.0374,-0.2633689 h 1.38714 1.38714 l 0.301977,0.3411278 c 0.519961,0.5873798 0.651755,0.8327312 0.725624,1.3507552 0.135434,0.949791 0.01464,1.306338 -0.536873,1.584744 -0.292458,0.147628 -0.855911,0.321102 -1.22518,0.377205 -0.396995,0.06031 -1.151554,0.211257 -1.363829,0.272826 -0.241751,0.07012 -0.866469,0.04168 -1.231781,-0.05607 z m 34.146824,0.02323 c 0.742145,-0.188869 1.359585,-0.344002 1.372096,-0.344742 0.01252,-7.47e-4 0.02275,-0.127557 0.02275,-0.281823 0,-0.154266 0.02195,-0.389644 0.04875,-0.523063 0.09534,-0.474446 0.05429,-0.945072 -0.109771,-1.258382 -0.03056,-0.05837 -0.07794,-0.235455 -0.105258,-0.3935204 -0.06409,-0.3706112 -0.117511,-0.4820298 -0.260372,-0.5430448 -0.07554,-0.032262 -0.122975,-0.078008 -0.145525,-0.1403699 -0.03242,-0.089661 -0.04256,-0.093868 -0.329511,-0.1369746 -0.40162,-0.060328 -0.687892,-0.057087 -0.861112,0.00976 l -0.140545,0.05424 -0.02161,0.2594877 c -0.03259,0.3913266 -0.123688,0.789374 -0.230124,1.005569 -0.123878,0.251623 -0.432379,0.601941 -0.638479,0.725012 -0.180197,0.107602 -0.460562,0.190797 -0.642968,0.190797 -0.09798,0 -0.112525,0.0073 -0.08357,0.04225 0.02718,0.03276 -0.0095,0.219769 -0.163064,0.833005 -0.108958,0.434915 -0.198118,0.805301 -0.198118,0.823082 0,0.02117 0.09635,0.02931 0.279374,0.02361 l 0.279377,-0.0088 0.184752,-0.758062 c 0.101607,-0.416934 0.19447,-0.795586 0.206354,-0.841449 0.02166,-0.0835 0.09613,-0.114103 0.11801,-0.04847 0.0063,0.0192 -0.06729,0.384207 -0.163763,0.811127 -0.09647,0.426916 -0.175626,0.793268 -0.175882,0.814115 0,0.02701 0.05832,0.03677 0.20419,0.03393 0.151754,-0.0029 0.553619,-0.09277 1.554023,-0.347368 z m -2.625118,0.324614 c 0.0092,-0.01469 0.09242,-0.37288 0.185186,-0.795964 0.09277,-0.423083 0.175755,-0.793124 0.184411,-0.82231 0.01427,-0.04808 -0.01309,-0.05306 -0.291313,-0.05306 -0.186598,0 -0.300054,0.01132 -0.289221,0.02886 0.01361,0.02202 -0.210769,1.08613 -0.337577,1.600971 -0.01648,0.06696 -0.01173,0.06823 0.257605,0.06823 0.150913,0 0.281827,-0.01203 0.290909,-0.02672 z m -0.72695,-0.0013 c 0.01662,-0.02688 0.410787,-1.610746 0.410787,-1.650626 0,-0.01069 -0.136016,-0.01943 -0.302273,-0.01943 -0.24048,0 -0.299079,0.0084 -0.286644,0.04072 0.0086,0.02239 -0.07371,0.397243 -0.182884,0.833003 -0.109184,0.435761 -0.198512,0.799505 -0.198512,0.808319 0,0.02855 0.541656,0.01695 0.559526,-0.01197 z m -0.665898,-0.04022 c 0.0088,-0.03753 0.0844,-0.382063 0.1679,-0.765642 0.08349,-0.38358 0.164509,-0.734943 0.180019,-0.780804 l 0.02819,-0.08339 H 44.65416 c -0.275683,0 -0.301648,0.0049 -0.301648,0.05736 0,0.03155 -0.07505,0.3878 -0.166777,0.791669 -0.09172,0.403867 -0.166775,0.760117 -0.166775,0.791667 0,0.05202 0.0254,0.05737 0.272329,0.05737 0.257424,0 0.273201,-0.0037 0.288395,-0.06823 z m -0.726994,0 c 0.0093,-0.03753 0.102923,-0.419588 0.208158,-0.84903 l 0.19135,-0.780778 h -0.298547 -0.298561 v 0.07674 c 0,0.0422 -0.08187,0.40338 -0.181941,0.802612 -0.100057,0.399231 -0.181926,0.74676 -0.181926,0.772289 0,0.03823 0.04803,0.04642 0.272317,0.04642 0.257212,0 0.273266,-0.0038 0.28915,-0.06823 z m -0.698196,0.03032 c 0.0071,-0.02085 0.09295,-0.402389 0.190703,-0.847871 0.144464,-0.658388 0.169769,-0.813026 0.135202,-0.826289 -0.02339,-0.009 -0.164888,-0.01632 -0.314456,-0.01632 -0.237243,0 -0.268552,0.006 -0.245508,0.04722 0.01718,0.03071 -0.03507,0.3194 -0.149619,0.826286 -0.09684,0.428491 -0.176261,0.796129 -0.176529,0.816977 0,0.02756 0.07424,0.03791 0.273371,0.03791 0.191945,0 0.277731,-0.01134 0.286836,-0.03791 z m -0.727152,0 c 0.0074,-0.02085 0.09566,-0.379032 0.195976,-0.795965 0.100338,-0.416936 0.195054,-0.787036 0.210502,-0.82245 l 0.02808,-0.06438 -2.188395,-0.01893 C 39.469895,11.32852 37.26885,11.31141 35.782299,11.30091 l -2.702818,-0.0191 0.01523,0.07967 c 0.01378,0.07205 0.0063,0.07967 -0.07811,0.07967 -0.0823,0 -0.09688,0.01343 -0.123305,0.113708 -0.09534,0.361653 -0.366553,1.465962 -0.366553,1.492476 0,0.02158 1.327275,0.02904 4.237562,0.02376 l 4.237573,-0.0076 0.209432,-0.841449 c 0.198078,-0.795832 0.242462,-0.914011 0.30515,-0.812588 0.0136,0.02202 -0.210779,1.086129 -0.337575,1.600972 -0.01651,0.06696 -0.01173,0.06823 0.257593,0.06823 0.150914,0 0.281825,-0.01203 0.290909,-0.02672 0.0092,-0.01469 0.09242,-0.372881 0.185186,-0.795965 0.09277,-0.423083 0.175752,-0.793124 0.184422,-0.82231 0.01662,-0.05607 0.117132,-0.07286 0.146988,-0.02455 0.0097,0.01568 -0.07138,0.38371 -0.180146,0.817842 -0.108768,0.434133 -0.197771,0.803364 -0.197771,0.820518 0,0.04764 0.544153,0.04113 0.561279,-0.0067 z m -10.038614,0.01011 c 0.0233,-0.03769 0.349906,-1.489789 0.350106,-1.556554 0,-0.04732 -0.03582,-0.05306 -0.332216,-0.05306 h -0.332376 l -0.02998,0.113711 c -0.09515,0.360945 -0.366553,1.465936 -0.366553,1.492369 0,0.03956 0.686631,0.04297 0.711014,0.0035 z m -0.849036,0 c 0.0233,-0.03769 0.349916,-1.489789 0.350117,-1.556554 0,-0.04732 -0.03582,-0.05306 -0.332217,-0.05306 h -0.332387 l -0.02997,0.113708 c -0.09516,0.360973 -0.366564,1.465963 -0.366564,1.492396 0,0.03956 0.686642,0.04297 0.711013,0.0035 z m -0.849025,0 c 0.0233,-0.03769 0.349915,-1.489787 0.350106,-1.556552 0,-0.04732 -0.03581,-0.05306 -0.332217,-0.05306 h -0.332376 l -0.02998,0.113709 c -0.09515,0.360971 -0.366554,1.465962 -0.366554,1.492394 0,0.03956 0.686642,0.04298 0.711014,0.0035 z m -0.849025,0 c 0.02329,-0.03769 0.349904,-1.489789 0.350106,-1.556554 0,-0.04732 -0.03583,-0.05306 -0.332217,-0.05306 h -0.332376 l -0.02998,0.113711 c -0.09516,0.360945 -0.366563,1.465936 -0.366563,1.492369 0,0.03956 0.686642,0.04297 0.711025,0.0035 z m -0.849037,0 c 0.0233,-0.03769 0.349916,-1.489789 0.350118,-1.556554 0,-0.04732 -0.03582,-0.05306 -0.332228,-0.05306 h -0.332376 l -0.02998,0.113711 c -0.09514,0.360945 -0.366552,1.465936 -0.366552,1.492369 0,0.03956 0.686641,0.04297 0.711014,0.0035 z m -0.849026,0 c 0.0233,-0.03769 0.349906,-1.489789 0.350107,-1.556554 0,-0.04732 -0.03582,-0.05306 -0.332217,-0.05306 h -0.332376 l -0.02998,0.113711 c -0.09515,0.360945 -0.366552,1.465936 -0.366552,1.492369 0,0.03956 0.686642,0.04297 0.711013,0.0035 z m -0.849025,0 c 0.02329,-0.03769 0.349905,-1.489789 0.350106,-1.556554 0,-0.04732 -0.03577,-0.05306 -0.331346,-0.05306 -0.289372,0 -0.333542,0.0067 -0.347591,0.05306 -0.184052,0.606773 -0.230579,0.851428 -0.230579,1.212607 v 0.371744 h 0.271111 c 0.14911,0 0.278845,-0.01251 0.288299,-0.02779 z m -0.547929,-1.320177 c 0.02704,-0.10766 0.04917,-0.216822 0.04917,-0.24258 0,-0.04185 -0.269339,-0.04683 -2.534037,-0.04683 h -2.534035 l 0.0097,-0.06823 0.0097,-0.06823 5.58692,-0.0076 5.586918,-0.0076 -10e-4,-0.811045 -10e-4,-0.8110487 -0.07329,-0.053294 c -0.108225,-0.078726 -0.594719,-0.1070687 -2.246858,-0.1310076 -1.133781,-0.016423 -1.483081,-0.012196 -1.698061,0.020549 -0.197951,0.030159 -0.644476,0.041379 -1.662379,0.041792 l -1.391724,5.182e-4 -0.04231,-0.1212894 C 25.781061,9.3579845 25.752371,9.208835 25.740591,9.0932584 L 25.719161,8.8831177 25.577074,8.8123247 C 25.427678,8.7378887 25.033782,8.6671447 24.576573,8.6326286 L 24.309155,8.6124436 V 8.9806651 9.3488835 H 24.14138 c -0.120642,0 -0.211553,0.022189 -0.32359,0.078954 -0.08571,0.043422 -0.279695,0.1103217 -0.431097,0.1486591 -0.151392,0.03834 -0.411722,0.124374 -0.578499,0.191192 -0.403318,0.161591 -1.200776,0.3108204 -1.773864,0.3319464 -0.225145,0.0083 -0.43222,0.02692 -0.460179,0.04139 -0.09862,0.05103 -0.246165,0.309141 -0.260745,0.456134 -0.01799,0.181348 0.0994,0.498899 0.288152,0.779421 0.0744,0.110553 0.162851,0.255583 0.196571,0.322292 0.127221,0.251605 -0.19465,0.227418 3.026887,0.227418 h 2.872248 l 0.04917,-0.195746 z m 20.096686,-0.721315 c 0.423933,-0.149128 0.638382,-0.395909 0.812312,-0.934754 0.07359,-0.2279954 0.155199,-0.634629 0.127368,-0.634629 -0.01062,0 -0.07722,0.053002 -0.148092,0.1177885 -0.09877,0.090295 -0.128855,0.1398231 -0.128855,0.2121931 v 0.09441 l -7.148527,0.0076 -7.148518,0.0076 v 0.5609604 0.560966 l 2.274184,0.01846 c 1.250806,0.01015 4.273191,0.02784 6.716423,0.03932 l 4.442252,0.02086 z M 30.434498,5.41904 c 0.608728,-0.1569642 1.204351,-0.3075674 1.323625,-0.334672 0.201134,-0.045712 0.218153,-0.055812 0.234864,-0.1393295 0.04974,-0.2487499 0.09393,-0.8456938 0.09261,-1.2512624 -0.0014,-0.4194125 -0.0077,-0.4701871 -0.08139,-0.6519334 C 31.960277,2.9334399 31.909657,2.762875 31.891757,2.6628112 31.824687,2.2880069 31.687228,2.0108779 31.5684,2.0108779 c -0.02054,0 -0.06658,-0.047293 -0.102297,-0.1050976 -0.04569,-0.073929 -0.09364,-0.1100008 -0.161662,-0.1216235 -0.693517,-0.1184884 -0.884294,-0.1187153 -1.111319,-0.00129 -0.104025,0.053793 -0.112131,0.080831 -0.136578,0.4554562 -0.0394,0.6036202 -0.161376,0.9249634 -0.485699,1.2795238 -0.24242,0.2650341 -0.50711,0.4107328 -0.84528,0.4652827 -0.196731,0.031736 -0.224233,0.04406 -0.22505,0.1008313 0,0.035572 -0.07726,0.4050753 -0.170565,0.8211209 -0.09329,0.4160433 -0.169631,0.7679172 -0.169631,0.7819413 0,0.014024 0.126192,0.021575 0.280427,0.016779 l 0.280437,-0.00872 0.17883,-0.8187067 C 28.998363,4.4260861 29.0939,4.0476552 29.11232,4.035417 c 0.05085,-0.033786 0.09311,-0.010198 0.103167,0.057586 0.005,0.033501 -0.0787,0.4110851 -0.185951,0.8390751 l -0.19498,0.7781661 0.24659,-0.00291 c 0.206949,-0.00242 0.424497,-0.048773 1.353357,-0.2882847 z m -2.440324,0.2532775 c 0.0076,-0.020847 0.09662,-0.3790307 0.197728,-0.7959654 0.101097,-0.4169336 0.190853,-0.7819401 0.199446,-0.8111258 0.01422,-0.048249 -0.01413,-0.053022 -0.312374,-0.0526 -0.18353,3.164e-4 -0.310678,0.011458 -0.288672,0.025426 0.03097,0.019644 -0.003,0.1937395 -0.15919,0.8173796 -0.109193,0.4358278 -0.198534,0.8064507 -0.198534,0.8236037 0,0.047631 0.544057,0.041123 0.561596,-0.00671 z M 27.474309,4.914255 c 0.09464,-0.4377802 0.185494,-0.819843 0.201888,-0.8490287 0.02754,-0.049055 0.0058,-0.053064 -0.287898,-0.053064 -0.242853,0 -0.314241,0.00899 -0.303047,0.038166 0.01139,0.029695 -0.14754,0.7839978 -0.335379,1.5916664 -0.01559,0.067028 -0.01088,0.068226 0.268246,0.068226 h 0.284118 z M 26.783243,4.861146 26.992898,4.0120675 h -0.307962 c -0.280819,3.08e-5 -0.30672,0.00483 -0.293796,0.054245 0.01083,0.041402 -0.279439,1.2831101 -0.371868,1.5907983 -0.01439,0.047904 0.01177,0.053064 0.269179,0.053064 h 0.285138 l 0.209654,-0.849077 z m -0.885812,0.79601 c 0.0085,-0.029186 0.08495,-0.3737242 0.169981,-0.7656424 0.08502,-0.3919182 0.167,-0.7501023 0.182173,-0.7959654 l 0.02758,-0.083386 h -0.301659 c -0.292299,0 -0.301669,0.00213 -0.302645,0.068225 -0.001,0.037524 -0.08047,0.4195875 -0.177589,0.8490298 L 25.31868,5.7102209 h 0.281679 c 0.242186,0 0.283833,-0.00744 0.297065,-0.053064 z M 25.186353,5.596511 c 0.01665,-0.062541 0.110604,-0.4446041 0.208763,-0.8490299 l 0.17847,-0.7353198 h -0.309522 c -0.304745,0 -0.309318,0.00107 -0.296469,0.06831 0.0071,0.037569 -0.07497,0.4196327 -0.182566,0.8490295 l -0.195627,0.7807194 h 0.283324 0.283323 z m -0.71564,0.090967 C 24.478013,5.674971 24.562673,5.30314 24.658785,4.8611899 24.754885,4.4192398 24.84707,4.0488726 24.863622,4.038154 24.925792,3.997883 24.11301,3.983197 20.958722,3.967599 19.174247,3.958769 17.132011,3.94256 16.420413,3.93157 l -1.293809,-0.019981 -0.01008,0.088188 c -0.0084,0.073463 -0.02553,0.089703 -0.102689,0.09725 l -0.09264,0.00906 -0.172687,0.7796302 c -0.09497,0.4287963 -0.172688,0.7897244 -0.172688,0.8020654 0,0.012338 1.908354,0.022431 4.240778,0.022431 h 4.240766 l 0.176041,-0.811127 c 0.162819,-0.7502717 0.20211,-0.8877169 0.253359,-0.8864679 0.102052,0.00248 0.09504,0.061069 -0.100822,0.8428045 -0.109193,0.435828 -0.198533,0.8069631 -0.198533,0.8247445 0,0.021178 0.09647,0.029314 0.279789,0.023605 l 0.279801,-0.00872 0.189049,-0.7732226 c 0.103973,-0.4252735 0.196655,-0.8039253 0.20594,-0.8414496 0.01775,-0.071703 0.09324,-0.093432 0.113501,-0.032665 0.0064,0.019555 -0.06739,0.390477 -0.164241,0.8242741 -0.09686,0.4337927 -0.176104,0.7998553 -0.176104,0.8134695 0,0.031059 0.537395,0.03301 0.555548,0.00201 z M 14.409074,5.6723159 c 0.02571,-0.073469 0.37902,-1.5070843 0.37902,-1.5379323 0,-0.01969 -0.132303,-0.031256 -0.357629,-0.031256 H 14.072837 L 13.899831,4.88424 c -0.09517,0.4296091 -0.173016,0.7912043 -0.173016,0.8035456 0,0.041405 0.667649,0.026269 0.682259,-0.01547 z m -0.849025,0 c 0.02569,-0.073469 0.37902,-1.5070843 0.37902,-1.5379323 0,-0.01969 -0.132304,-0.031256 -0.357628,-0.031256 H 13.223812 L 13.050795,4.88424 c -0.09516,0.4296091 -0.173016,0.7912043 -0.173016,0.8035456 0,0.041405 0.667659,0.026269 0.68227,-0.01547 z m -0.849036,0 c 0.02571,-0.073469 0.379031,-1.5070843 0.379031,-1.5379323 0,-0.01969 -0.132314,-0.031256 -0.357629,-0.031256 H 12.374786 L 12.201771,4.88424 c -0.09516,0.4296091 -0.173017,0.7912043 -0.173017,0.8035456 0,0.041405 0.667659,0.026269 0.682259,-0.01547 z m -0.849025,0 c 0.02571,-0.073469 0.379019,-1.5070843 0.379019,-1.5379323 0,-0.01969 -0.132302,-0.031256 -0.357629,-0.031256 H 11.525749 L 11.352734,4.88424 c -0.09516,0.4296091 -0.173005,0.7912043 -0.173005,0.8035456 0,0.041405 0.667648,0.026269 0.682259,-0.01547 z m -0.849026,0 c 0.0257,-0.073469 0.379019,-1.5070843 0.379019,-1.5379323 0,-0.01969 -0.132313,-0.031256 -0.357629,-0.031256 h -0.357629 l -0.173015,0.7811127 c -0.09516,0.4296091 -0.173016,0.7912043 -0.173016,0.8035456 0,0.041405 0.667659,0.026269 0.68227,-0.01547 z m -0.849036,0 c 0.02571,-0.073469 0.37903,-1.5070843 0.37903,-1.5379323 0,-0.01969 -0.132314,-0.031256 -0.357629,-0.031256 H 9.8276984 l -0.1730158,0.781113 c -0.095156,0.4296091 -0.1730158,0.7912043 -0.1730158,0.8035456 0,0.041405 0.6676582,0.026269 0.6822592,-0.01547 z m -0.8490255,0 c 0.025712,-0.073469 0.3790198,-1.5070843 0.3790198,-1.5379323 0,-0.019693 -0.1325257,-0.031256 -0.3583184,-0.031256 H 8.9772721 l -0.096948,0.447257 c -0.078484,0.3620893 -0.096865,0.5151023 -0.096514,0.803545 v 0.3562889 h 0.2586964 c 0.179658,0 0.2627389,-0.011578 0.2719489,-0.037902 z M 8.7942189,4.3686015 c 0.028295,-0.1209936 0.051279,-0.2301456 0.051062,-0.2425556 0,-0.012416 -1.1363383,-0.026059 -2.5247311,-0.030323 l -2.5243485,-0.00776 v -0.075807 -0.075807 l 5.5717553,-0.00766 5.5717564,-0.00766 V 3.1228585 c 0,-0.7887544 -0.0011,-0.798927 -0.06823,-0.8615378 -0.08723,-0.081009 -0.220848,-0.089141 -2.160471,-0.1315116 -1.30459,-0.028498 -1.529449,-0.026635 -1.843649,0.015279 -0.279313,0.037257 -0.649409,0.047731 -1.6864747,0.047731 H 7.8522478 l -0.04948,-0.1763434 c -0.027213,-0.09699 -0.049488,-0.2189077 -0.049488,-0.270929 0,-0.3017719 -0.1990335,-0.3800194 -1.2204806,-0.479795 L 6.3281323,1.2457555 V 1.6131579 1.9805593 H 6.1898028 c -0.083887,0 -0.2002536,0.02928 -0.2956428,0.074394 C 5.807631,2.0958673 5.614031,2.1636107 5.4639342,2.2054917 5.1741173,2.2863617 4.7460761,2.4336719 4.6452338,2.4872489 4.530098,2.5484179 3.528175,2.7177474 3.0760798,2.7524429 L 2.6226369,2.7872416 2.4899311,2.9372855 c -0.1752976,0.198215 -0.2113215,0.3261881 -0.1461077,0.5189853 0.065177,0.192696 0.2091659,0.4771515 0.3268898,0.645832 0.05199,0.074481 0.1354547,0.2109327 0.1854937,0.3032244 l 0.090965,0.1678051 2.8977982,0.00773 2.8977983,0.00773 z M 28.761741,3.6927467 c 0.10564,-0.022929 0.251185,-0.076332 0.323431,-0.118671 0.301267,-0.1765554 0.551379,-0.5943963 0.65183,-1.0889557 0.07787,-0.3833914 0.07827,-0.4085406 0.0053,-0.3424918 -0.0305,0.027601 -0.06931,0.050183 -0.08626,0.050183 -0.06348,0 -0.13119,0.1147034 -0.13119,0.2222277 V 2.5263587 H 22.368724 15.21262 v 0.5569456 0.5569474 l 3.009505,0.020832 c 1.655228,0.011458 4.155703,0.033528 5.556595,0.049046 3.5271,0.039072 4.742466,0.034833 4.983029,-0.017384 z"
   id="path2761" /></svg>
