<?xml version="1.0" encoding="UTF-8" standalone="no"?>
<!-- Generator: Adobe Illustrator 16.0.0, SVG Export Plug-In . SVG Version: 6.00 Build 0)  -->

<svg
   version="1.1"
   x="0px"
   y="0px"
   width="77.833px"
   height="32px"
   viewBox="0 0 77.833 32"
   enable-background="new 0 0 77.833 32"
   xml:space="preserve"
   id="svg2904"
   sodipodi:docname="famas.svg"
   inkscape:version="1.1.1 (3bf5ae0d25, 2021-09-20)"
   xmlns:inkscape="http://www.inkscape.org/namespaces/inkscape"
   xmlns:sodipodi="http://sodipodi.sourceforge.net/DTD/sodipodi-0.dtd"
   xmlns="http://www.w3.org/2000/svg"
   xmlns:svg="http://www.w3.org/2000/svg"><defs
   id="defs2908" /><sodipodi:namedview
   id="namedview2906"
   pagecolor="#505050"
   bordercolor="#eeeeee"
   borderopacity="1"
   inkscape:pageshadow="0"
   inkscape:pageopacity="0"
   inkscape:pagecheckerboard="0"
   showgrid="false"
   inkscape:zoom="7.1627716"
   inkscape:cx="34.76308"
   inkscape:cy="12.983801"
   inkscape:window-width="1440"
   inkscape:window-height="848"
   inkscape:window-x="1358"
   inkscape:window-y="-8"
   inkscape:window-maximized="1"
   inkscape:current-layer="svg2904" />

<g
   id="guides">
</g>
<path
   style="fill:#ffffff;stroke-width:0.0363526"
   d="m 19.601096,28.907151 c 1.614656,-0.123749 3.330157,-0.699935 4.329268,-1.454076 0.189943,-0.14337 0.357359,-0.271433 0.372027,-0.284584 0.01469,-0.01314 -0.01378,-0.669521 -0.06323,-1.458603 -0.09342,-1.490733 -0.308793,-5.495036 -0.308793,-5.741321 v -0.140918 l 0.345383,-0.133824 c 0.189955,-0.07361 0.470884,-0.209831 0.624276,-0.30273 0.306009,-0.185321 0.261512,-0.121606 0.663718,-0.950489 0.520721,-1.073122 1.402436,-1.979182 2.419931,-2.486749 0.41722,-0.208127 1.178072,-0.496358 1.599517,-0.605948 0.273588,-0.07115 0.419453,-0.08523 0.890636,-0.08605 0.78326,-0.0013 1.128871,0.05706 1.532286,0.259011 0.399406,0.19994 0.441088,0.265431 0.437966,0.688133 -0.0011,0.164163 -0.02883,0.404647 -0.06137,0.534406 -0.0575,0.229272 -0.07271,0.249627 -0.538862,0.721185 -0.536612,0.542839 -0.821869,0.939908 -1.132093,1.575832 -0.567254,1.16281 -0.827903,2.466954 -0.948777,4.747118 -0.02774,0.523241 -0.01322,0.572989 0.242251,0.828432 0.189606,0.189606 0.345179,0.282365 0.827003,0.493088 0.842191,0.368333 1.801968,0.624964 2.80427,0.749823 0.3299,0.0411 0.702058,0.09604 0.82702,0.122106 0.124961,0.02606 0.227205,0.04441 0.227205,0.04077 0,-0.0036 -0.0266,-0.09547 -0.05912,-0.204069 -0.0465,-0.155316 -0.05431,-0.283115 -0.03662,-0.598914 0.03587,-0.640145 0.18878,-1.025054 0.620386,-1.561575 0.265429,-0.329944 0.27395,-0.368626 0.169666,-0.770085 -0.122803,-0.472732 -0.02419,-0.717909 0.509309,-1.26625 l 0.359531,-0.369539 v -0.534809 c 0,-0.908398 0.12321,-1.237165 0.571983,-1.52626 0.471324,-0.303627 0.543979,-0.329866 0.791239,-0.285762 1.030557,0.183828 1.362624,0.236699 1.981213,0.315443 1.542379,0.19634 2.859015,0.258165 3.253555,0.152775 0.371098,-0.09913 0.682374,-0.33432 0.872793,-0.659462 0.183258,-0.312918 0.272058,-0.925753 0.272209,-1.878648 0,-0.738804 4.33e-4,-0.740092 0.299992,-0.772059 0.10498,-0.01119 3.102711,-0.03897 6.661627,-0.06171 3.558915,-0.02273 7.25597,-0.05162 8.215679,-0.06418 l 1.744923,-0.02286 0.202741,-0.09949 c 0.379246,-0.186111 0.815061,-0.727096 1.061755,-1.317975 0.141881,-0.339839 0.244083,-0.702046 0.244688,-0.867198 3.72e-4,-0.08287 0.02246,-0.22398 0.04925,-0.313574 l 0.0487,-0.162897 0.05882,0.113734 c 0.03568,0.06901 0.122106,0.144374 0.219745,0.191641 0.150053,0.07264 0.182672,0.07521 0.482663,0.03806 0.529571,-0.06559 0.82296,-0.149974 0.963446,-0.277113 0.03447,-0.03124 0.223223,-0.0996 0.419384,-0.151949 l 0.356658,-0.09518 3.558368,-0.0111 c 3.497041,-0.01093 3.560958,-0.0099 3.708712,0.06166 0.295592,0.143095 0.633876,0.165679 2.366348,0.15798 0.899726,-0.0039 1.883747,-0.01793 2.186706,-0.03093 0.523996,-0.02251 0.551755,-0.02748 0.569677,-0.101787 0.01036,-0.04299 0.08112,-0.225363 0.157254,-0.405308 0.123373,-0.291613 0.138498,-0.360751 0.139194,-0.636167 8.58e-4,-0.274163 -0.01719,-0.359203 -0.158602,-0.754319 -0.09658,-0.269838 -0.178653,-0.445316 -0.208288,-0.445316 -0.02687,0 -0.08215,-0.06517 -0.122784,-0.144828 -0.04837,-0.0948 -0.108268,-0.15445 -0.173418,-0.172678 -0.171684,-0.04803 -3.140162,-0.03223 -3.706422,0.01974 -0.641891,0.0589 -1.073528,0.127369 -1.269083,0.201306 -0.311501,0.117765 -0.738183,0.132826 -3.763099,0.132826 h -3.006342 l -0.10308,-0.08674 c -0.0573,-0.04821 -0.310874,-0.153167 -0.570887,-0.236294 -0.461989,-0.147692 -0.47457,-0.14955 -1.012349,-0.14955 -0.456904,0 -0.54134,-0.0083 -0.524628,-0.05192 0.03443,-0.08976 0.128829,-0.7637561 0.265081,-1.8929491 C 63.686093,5.7172167 63.507089,4.4161701 62.702552,3.6519351 62.300723,3.2702345 62.344088,3.2788669 60.646448,3.2426609 59.252397,3.2129357 58.56156,3.1941674 54.739158,3.0822659 53.739463,3.053016 52.267181,3.0120143 51.467427,2.9911894 50.667673,2.9703645 49.129957,2.9293714 48.050289,2.9000869 39.183701,2.6596025 32.853826,2.6326079 30.546531,2.8254456 29.292868,2.9302183 28.330796,3.0628323 27.929147,3.1862176 l -0.163588,0.050256 0.209515,0.02683 c 0.169978,0.021732 0.248875,0.01227 0.418054,-0.050252 0.470098,-0.1737367 2.647319,-0.344907 5.203424,-0.4090927 3.328223,-0.083577 8.41383,0.070148 15.180786,0.4588608 2.533215,0.1455193 3.847262,0.1826456 8.451967,0.2388123 1.574506,0.019183 2.967744,0.051687 3.108148,0.072468 0.139955,0.020696 0.58982,0.05185 0.999694,0.069193 0.409875,0.017368 0.794306,0.04804 0.854283,0.068217 0.05998,0.020177 0.152817,0.046221 0.206306,0.057874 0.120892,0.026355 0.361393,0.2747375 0.484234,0.5001346 0.243233,0.4462924 0.329872,1.2408445 0.296717,2.7211581 -0.02286,1.0204122 -0.08724,1.5996772 -0.227874,2.0500172 -0.03823,0.122495 -0.0663,0.411145 -0.08338,0.858259 -0.01417,0.3705271 -0.0372,0.6922071 -0.05118,0.7148421 -0.01772,0.02865 0.06014,0.04777 0.256513,0.06297 0.155073,0.01201 0.442033,0.03793 0.637688,0.05765 0.195659,0.0197 0.426236,0.03581 0.512391,0.03581 0.254285,0 0.275645,0.0479 0.284913,0.639035 l 0.008,0.506071 0.01136,-0.490055 c 0.0063,-0.269531 0.02644,-0.505155 0.04489,-0.523603 0.08432,-0.08432 0.259905,-0.02536 0.472125,0.158472 l 0.214298,0.185653 3.192367,-0.01218 c 3.156835,-0.01201 3.195728,-0.01305 3.494574,-0.09237 0.166219,-0.04411 0.324363,-0.0802 0.351431,-0.0802 0.05898,0 0.156433,0.241789 0.198225,0.491788 l 0.0302,0.180736 0.0043,-0.177544 c 0.0021,-0.09765 -0.01507,-0.242074 -0.03867,-0.320945 -0.03409,-0.113811 -0.03339,-0.149308 0.0034,-0.172051 0.05238,-0.03236 0.839571,-0.126708 1.548201,-0.185537 0.259919,-0.02156 0.941411,-0.03918 1.51442,-0.03914 0.938131,0 1.140695,0.0088 1.396746,0.06038 0.05477,0.01102 0.114999,0.103303 0.218118,0.33417 0.134406,0.30092 0.142304,0.338426 0.139919,0.664276 -0.0021,0.28349 -0.01672,0.371145 -0.08179,0.489359 -0.04359,0.07921 -0.07927,0.187718 -0.07927,0.241146 0,0.07556 -0.0222,0.102772 -0.09997,0.122543 -0.124358,0.03163 -4.266465,0.07174 -4.383098,0.04247 -0.04669,-0.01171 -0.104461,-0.06426 -0.12838,-0.116757 -0.03612,-0.07929 -0.05269,-0.08782 -0.0978,-0.05039 -0.04383,0.03638 -0.06699,0.03357 -0.120103,-0.01447 -0.06002,-0.05432 -0.383389,-0.05954 -3.684659,-0.05954 -3.093574,0 -3.637346,0.0077 -3.746133,0.05318 -0.13721,0.05733 -0.165687,0.04264 -0.279152,-0.144055 l -0.04418,-0.07271 0.02402,0.07271 c 0.01318,0.04001 0.03279,0.125053 0.04356,0.18904 0.01763,0.104894 0.0093,0.118616 -0.08488,0.139587 -0.170742,0.03802 -0.356373,0.09704 -0.395253,0.125672 -0.02,0.01473 -0.194424,0.03573 -0.387625,0.04669 -0.241153,0.01365 -0.404815,0.0436 -0.522078,0.09548 l -0.17095,0.07555 -0.06742,-0.08571 c -0.03707,-0.04714 -0.121139,-0.106604 -0.186798,-0.132147 -0.06566,-0.02553 -0.181073,-0.08748 -0.256475,-0.137635 -0.189662,-0.126168 -0.279559,-0.07958 -0.419868,0.217594 -0.142374,0.301533 -0.211783,0.533157 -0.259348,0.865448 -0.05689,0.397371 -0.248724,1.027048 -0.379173,1.24456 -0.200537,0.334374 -0.521344,0.463319 -1.153894,0.463799 -0.303435,3.71e-4 -0.313661,-0.0058 -0.401126,-0.23826 -0.100266,-0.266437 -0.367784,-0.684992 -0.562039,-0.879372 -0.164382,-0.164473 -0.210171,-0.19085 -0.331379,-0.19085 -0.238402,0 -0.480295,0.149974 -0.688182,0.426665 -0.101596,0.135223 -0.230918,0.319472 -0.287387,0.409446 -0.05646,0.08997 -0.157751,0.233109 -0.225082,0.318081 l -0.122418,0.154502 -0.661001,-4.32e-4 c -0.36355,-3.72e-4 -0.678148,-0.01257 -0.699102,-0.02726 -0.02095,-0.01469 -0.06711,-0.133038 -0.102557,-0.262999 -0.151114,-0.554016 -0.445178,-0.952445 -0.737625,-0.999418 -0.07677,-0.01231 -0.165441,-0.03629 -0.197041,-0.05325 -0.07961,-0.04268 -0.381186,0.01914 -0.524109,0.107451 -0.06517,0.04027 -0.182322,0.142655 -0.260334,0.227497 -0.166486,0.181069 -0.484973,0.681026 -0.484973,0.76131 0,0.03063 -0.03392,0.09877 -0.07534,0.151447 -0.07448,0.09469 -0.08075,0.09578 -0.547145,0.09578 h -0.47177 l -0.05449,-0.136321 c -0.213606,-0.534404 -0.519161,-0.939327 -0.823516,-1.091328 -0.202148,-0.100957 -0.280812,-0.101454 -0.473862,-0.003 -0.314166,0.160236 -0.875358,0.818903 -0.931326,1.093096 l -0.02437,0.119354 -0.507493,0.01046 c -0.569194,0.01176 -0.67108,-0.0021 -0.67108,-0.09266 0,-0.0867 -0.309799,-0.696386 -0.413094,-0.81298 -0.162706,-0.183652 -0.261054,-0.225128 -0.468569,-0.197603 -0.360936,0.04788 -0.678563,0.26627 -1.007783,0.692908 -0.07714,0.09997 -0.145705,0.230841 -0.152367,0.290823 l -0.0121,0.109058 -0.643006,0.0099 -0.643005,0.0099 -0.112066,-0.234812 c -0.14745,-0.308955 -0.362016,-0.575994 -0.52493,-0.653301 -0.109236,-0.05184 -0.164668,-0.05616 -0.329535,-0.02566 -0.109015,0.02014 -0.264182,0.0703 -0.344816,0.111436 -0.154692,0.07892 -0.459228,0.422507 -0.685243,0.773118 l -0.134541,0.208706 -2.396405,3.72e-4 c -2.179144,3.72e-4 -2.402432,-0.0051 -2.462886,-0.05984 -0.06186,-0.05598 -0.06648,-0.05598 -0.06648,0 0,0.05488 -0.115932,0.06016 -1.319598,0.06016 -0.873415,0 -1.332508,0.01292 -1.357781,0.03819 -0.02668,0.02666 -0.184994,8.58e-4 -0.525293,-0.08582 -3.654742,-0.930321 -3.589921,-0.918556 -5.031183,-0.913341 -0.53784,0.0017 -0.722313,0.01707 -1.036048,0.08493 -0.560535,0.121255 -1.303108,0.378685 -1.799453,0.623822 -1.210272,0.597745 -2.251556,1.672387 -2.93082,3.024722 -0.202005,0.402184 -0.229385,0.438429 -0.45778,0.606145 -0.286524,0.210393 -0.593268,0.311933 -0.833515,0.275904 -0.0871,-0.01305 -0.158369,-0.03725 -0.158369,-0.05374 0,-0.03622 -0.731092,-0.518145 -1.329251,-0.876225 -0.92253,-0.552258 -2.4764,-1.243864 -3.338608,-1.485965 -0.217965,-0.0612 -0.572097,-0.13083 -0.786956,-0.154717 -0.339139,-0.03772 -0.433085,-0.0353 -0.712385,0.01823 -0.176955,0.03392 -0.362625,0.06179 -0.412613,0.06196 -0.04999,3.72e-4 -0.156317,0.02389 -0.23629,0.05269 -0.07997,0.02882 -0.197408,0.0531 -0.260964,0.05398 -0.06355,8.58e-4 -0.141708,0.02778 -0.173684,0.05973 -0.07643,0.07643 -0.165118,0.0087 -0.165303,-0.126207 0,-0.07462 0.105265,-0.198895 0.481673,-0.568101 0.521361,-0.511385 0.813372,-0.708219 1.303578,-0.878698 0.342739,-0.11919 0.676633,-0.118374 1.697761,0.0043 0.426042,0.05112 0.859546,0.09298 0.963343,0.09302 0.103804,3.4e-5 0.41775,0.02441 0.697664,0.05414 0.279917,0.02972 0.574369,0.05212 0.654347,0.04972 0.179224,-0.0053 -0.451287,-0.08884 -0.936568,-0.124003 -0.34155,-0.02475 -0.355812,-0.02925 -0.378322,-0.118918 -0.01927,-0.07681 -0.0017,-0.109543 0.09879,-0.186132 0.119355,-0.09078 0.806088,-0.701692 1.045721,-0.93026 0.06625,-0.06318 0.252548,-0.193469 0.414014,-0.289509 0.344303,-0.204806 1.84268,-0.919066 2.199697,-1.048564 0.384423,-0.139445 0.947525,-0.41128 1.096691,-0.52942 0.455733,-0.360949 0.604574,-1.359377 0.387538,-2.5995781 -0.06096,-0.348363 -0.08234,-0.554751 -0.05981,-0.57729 0.01931,-0.01931 0.187536,-0.04903 0.373876,-0.06607 0.578876,-0.05296 0.811825,-0.139107 0.850153,-0.314404 0.01197,-0.05474 0.03785,-0.148604 0.05748,-0.208585 0.01966,-0.05998 0.0502,-0.485308 0.06789,-0.945166 0.08827,-2.2936732 0.242226,-3.4873073 0.521923,-4.0463782 0.08425,-0.1683965 0.08447,-0.1718745 0.01767,-0.2795764 -0.0372,-0.059982 -0.05954,-0.1305748 -0.04966,-0.1568738 0.02264,-0.060319 -0.08703,-0.030243 -0.290581,0.07971 -0.13216,0.071388 -0.147563,0.095038 -0.169019,0.2596156 -0.01296,0.099592 -0.05866,0.2586003 -0.101497,0.3533536 -0.176761,0.3909854 -0.252219,0.950268 -0.347071,2.5723421 -0.113747,1.9451571 -0.116314,1.9741481 -0.187494,2.1172011 -0.03707,0.07448 -0.100094,0.146983 -0.140084,0.161103 -0.123943,0.04378 -0.487376,0.02169 -0.74564,-0.04528 -0.240649,-0.06242 -0.386803,-0.05936 -5.966814,0.124858 -3.146068,0.103866 -5.76397,0.188379 -5.817562,0.187818 -0.07376,-8.58e-4 -0.100267,0.01884 -0.109058,0.08076 -0.0098,0.06906 -0.0767,0.104302 -0.429672,0.226395 l -0.418058,0.144599 -0.751299,0.01305 c -0.643706,0.01119 -0.769553,0.0044 -0.878759,-0.04746 -0.199664,-0.094734 -0.77879,-0.779285 -1.061261,-1.254461 -0.07725,-0.129957 -0.16428,-0.264916 -0.193388,-0.299904 -0.04983,-0.059914 -0.2949433,-0.063621 -4.2032162,-0.063621 H 1.7681698 L 1.504575,8.0673879 c -0.2938861,0.188029 -0.2859493,0.17505 -0.61963594,1.012812 -0.31191557,0.783119 -0.40216688,1.3248601 -0.42828444,2.5709721 -0.0205653,0.981912 0.0128751,1.553097 0.15698176,2.681613 0.19642375,1.537987 0.51803462,2.860446 1.25222912,5.149087 l 0.2347899,0.731886 0.7088763,0.02589 c 2.0942981,0.07649 4.8239763,-0.438063 6.6888682,-1.260878 0.2699195,-0.119091 0.5096831,-0.224542 0.5328101,-0.234336 0.02528,-0.01067 0.138023,0.18179 0.282584,0.48241 0.231839,0.482114 0.242559,0.497335 0.296275,0.420643 0.04226,-0.06033 0.0926,-0.07958 0.208176,-0.07962 0.08383,-2.4e-5 0.283305,-0.02375 0.443255,-0.05271 0.363221,-0.06576 1.360147,-0.269874 1.443209,-0.295469 0.126747,-0.03907 0.200649,-0.236532 0.224766,-0.600583 0.01271,-0.191943 0.04896,-0.424815 0.08053,-0.51749 0.05101,-0.149706 0.07378,-0.172912 0.204084,-0.207999 0.591976,-0.159405 2.419383,-0.403809 3.904168,-0.522165 l 0.258463,-0.02061 0.02467,0.517801 c 0.01356,0.284792 0.04861,0.934952 0.07789,1.444794 0.08106,1.411785 0.22106,4.410017 0.326748,6.99787 0.05226,1.27961 0.102293,2.363171 0.11118,2.407915 0.0098,0.0494 0.07247,0.110077 0.15954,0.154497 0.124979,0.06376 0.207713,0.07248 0.644678,0.06797 0.275713,-0.0028 0.671568,-0.01822 0.879683,-0.03417 z M 33.236619,25.307053 C 33.026684,25.264923 32.53679,25.141842 32.147962,25.033527 31.123187,24.748055 30.55035,24.507932 30.319984,24.267279 l -0.09931,-0.10375 0.05388,-0.743923 c 0.118339,-1.634028 0.213364,-2.266747 0.477512,-3.179547 0.277528,-0.959028 0.763492,-1.85374 1.356006,-2.496556 0.250749,-0.272037 0.687922,-0.64794 0.75355,-0.64794 0.06725,0 0.120522,-0.342284 0.120326,-0.773014 -3.72e-4,-0.657198 -0.07231,-0.836975 -0.437045,-1.090996 -0.199911,-0.139233 -0.26016,-0.231709 -0.182311,-0.279827 0.127888,-0.07904 3.906561,0.894468 4.032898,1.039003 0.0156,0.01785 0.048,0.261456 0.07202,0.541369 0.06855,0.799037 0.220489,1.36725 0.490859,1.835806 0.05192,0.08997 0.09345,0.18812 0.09229,0.218113 -0.0011,0.02999 -0.103199,0.129374 -0.226762,0.220848 -0.272786,0.201945 -0.610763,0.595224 -0.732289,0.852106 -0.130473,0.275803 -0.163941,0.451422 -0.189591,0.994948 l -0.02296,0.486564 -0.234931,0.240486 c -0.363821,0.372428 -0.557565,0.68606 -0.628696,1.017727 -0.03347,0.1561 -0.02867,0.201556 0.03648,0.344557 0.04721,0.103618 0.07504,0.240058 0.07504,0.367775 0,0.1864 -0.01039,0.212167 -0.12679,0.314369 -0.177371,0.155731 -0.463823,0.524291 -0.578046,0.743735 -0.121796,0.233993 -0.202534,0.612159 -0.203345,0.952432 -5.61e-4,0.236345 -0.0089,0.267788 -0.07782,0.293279 -0.08952,0.03312 -0.36678,7.3e-5 -0.904337,-0.10779 z m 0.778555,-0.150309 c 0.0091,-0.04499 0.02548,-0.183702 0.03641,-0.30826 0.04069,-0.463685 0.297913,-0.970867 0.745395,-1.469752 0.106292,-0.118506 0.184563,-0.240483 0.184563,-0.287629 0,-0.04502 -0.04272,-0.15476 -0.09494,-0.24386 -0.214429,-0.365893 -0.0167,-0.912396 0.53001,-1.464856 l 0.317579,-0.320924 0.02554,-0.4925 c 0.02795,-0.538964 0.08324,-0.808188 0.226848,-1.104598 0.108916,-0.22481 0.462062,-0.616602 0.701549,-0.778328 0.09106,-0.06149 0.170599,-0.115548 0.176755,-0.120127 0.0062,-0.0045 -0.03771,-0.08781 -0.09746,-0.184962 -0.299845,-0.487462 -0.471224,-1.183001 -0.522744,-2.121496 l -0.009,-0.163584 -0.308997,-0.100685 C 35.2285,15.767691 33.526992,15.334576 33.019313,15.255122 l -0.162748,-0.02545 0.09882,0.11744 c 0.159169,0.189157 0.22196,0.467537 0.222204,0.985065 3.72e-4,0.412364 -0.04034,0.713318 -0.126074,0.93608 -0.021,0.05456 -0.06168,0.08179 -0.122205,0.08179 -0.103458,0 -0.47103,0.301183 -0.779001,0.6383 -0.751148,0.822238 -1.284274,2.129111 -1.511745,3.705832 -0.03171,0.219933 -0.105516,0.84974 -0.163977,1.399573 l -0.106284,0.999696 0.116364,0.102755 c 0.249471,0.220282 0.655711,0.376712 1.606821,0.618737 0.633425,0.161185 1.791261,0.423615 1.868975,0.423615 0.02099,0 0.04559,-0.03681 0.05469,-0.08179 z M 2.4923364,19.776564 C 2.4386323,19.707377 2.1154618,18.75787 1.8891703,18.004376 1.1808125,15.645744 0.87569742,13.799543 0.87685108,11.878969 0.87771517,10.412463 1.0512401,9.6235409 1.5338076,8.8917999 1.8665178,8.3872929 1.9791884,8.2982429 2.2847786,8.2982429 h 0.1612202 l 8.666e-4,0.536198 c 0.0013,0.82576 0.06613,3.3111161 0.1079308,4.1292411 0.1473816,2.884362 0.4366317,5.00855 0.8758039,6.431725 0.06028,0.195334 0.099661,0.371229 0.087521,0.390877 -0.034176,0.05532 -0.9821577,0.04634 -1.025674,-0.0097 z m 0.8261264,-0.153935 c 0,-0.0097 -0.06492,-0.247326 -0.1442664,-0.528076 C 2.9217528,18.201314 2.6954613,16.89208 2.5578917,15.528848 2.4163471,14.126183 2.3506881,12.684049 2.3158777,10.212989 l -0.023979,-1.7023321 -0.095622,0.0235 c -0.1458002,0.03582 -0.2451117,0.111923 -0.3973582,0.304528 -0.3275256,0.41435 -0.6023667,1.117217 -0.7197509,1.8406581 -0.076923,0.474068 -0.0863629,1.736369 -0.018232,2.435623 0.1711659,1.756356 0.5944041,3.584688 1.3441567,5.806618 0.1196222,0.354509 0.2278037,0.661235 0.240398,0.681613 0.022294,0.03608 0.6729597,0.05488 0.6729597,0.01944 z M 41.088773,18.981872 c -0.552995,-0.04148 -1.061415,-0.111435 -1.547982,-0.21295 -0.181593,-0.03789 -0.696232,-0.121393 -1.143646,-0.185571 l -0.813471,-0.116684 -0.1575,-0.147623 c -0.376537,-0.352918 -0.570074,-0.925451 -0.64237,-1.900268 -0.0169,-0.227929 -0.01041,-0.304606 0.02852,-0.336914 0.0357,-0.02964 0.308233,-0.03901 0.934046,-0.0321 l 0.883646,0.0098 0.05778,0.23708 c 0.03178,0.130397 0.100787,0.310343 0.153352,0.399881 0.136148,0.231908 0.685296,0.769269 1.047991,1.025493 0.169948,0.120058 0.351879,0.258298 0.404288,0.307197 0.07665,0.07151 0.126295,0.08667 0.25382,0.07749 l 0.158527,-0.0114 -0.13159,-0.145412 c -0.289547,-0.319947 -0.365739,-0.602898 -0.371973,-1.381394 l -0.004,-0.50894 H 41.888605 43.579 l 0.0076,0.218117 c 0.0043,0.119963 0.02657,0.422598 0.04969,0.672523 0.04692,0.507156 0.0013,1.177899 -0.09604,1.410771 -0.05056,0.121 -0.353747,0.475823 -0.497102,0.581762 -0.152335,0.112575 -0.80256,0.125613 -1.95436,0.03918 z m -1.172664,-1.401814 c -0.484344,-0.349677 -0.800091,-0.606018 -0.917549,-0.744914 -0.156625,-0.185212 -0.279022,-0.479115 -0.265866,-0.6384 l 0.01134,-0.137228 0.631388,-0.01 c 0.396763,-0.0063 0.64824,0.0039 0.676741,0.02765 0.03009,0.02498 0.05407,0.21794 0.07126,0.573433 0.02046,0.423398 0.04472,0.592282 0.115605,0.80511 0.07989,0.239859 0.0912,0.366848 0.03266,0.366848 -0.01078,0 -0.170794,-0.10915 -0.355578,-0.242555 z m 0.06629,-0.23072 c -0.01576,-0.0496 -0.03684,-0.323301 -0.04683,-0.608213 L 39.917409,16.2231 h -0.507344 -0.507343 l 0.02529,0.08179 c 0.10645,0.344276 0.467845,0.738796 0.976651,1.06617 l 0.106407,0.06847 z M 16.098983,12.603424 c -0.03141,-0.03141 -0.05712,-0.07486 -0.05712,-0.09654 0,-0.02169 -0.03837,-0.09004 -0.08526,-0.151901 -0.293398,-0.387101 -0.0013,-1.072746 0.698251,-1.637783 l 0.249338,-0.201453 h 3.839745 3.839749 l 0.08998,0.136321 c 0.04949,0.07498 0.115361,0.208482 0.146379,0.296677 0.07635,0.217089 0.07882,0.63922 0.0047,0.810909 -0.03205,0.07434 -0.05831,0.17337 -0.05831,0.22007 0,0.09469 -0.175697,0.279309 -0.345352,0.36288 -0.252836,0.124553 -0.695374,0.150622 -4.162366,0.245229 -0.809756,0.02208 -1.603146,0.0442 -1.7631,0.04913 -0.15995,0.0049 -0.751784,0.01227 -1.315183,0.01624 -0.889275,0.0063 -1.031896,-3.71e-4 -1.081491,-0.04981 z m 4.85047,-0.236466 c 1.19124,-0.03158 2.687056,-0.09995 3.10158,-0.141717 0.235408,-0.02372 0.306756,-0.04686 0.415215,-0.134641 0.109412,-0.08855 0.139224,-0.144594 0.181185,-0.340573 0.06166,-0.288023 0.04239,-0.664228 -0.04328,-0.844765 l -0.06408,-0.135047 h -3.80961 -3.809613 l -0.175941,0.139912 c -0.476838,0.37919 -0.729913,0.782398 -0.688246,1.096539 0.01279,0.09646 0.04083,0.22579 0.06232,0.287397 l 0.03906,0.112017 1.877684,-0.0058 c 1.032729,-0.003 2.343912,-0.01819 2.913736,-0.03331 z m 3.256837,6.765995 c 0.303768,-0.15188 0.48787,-0.358315 0.742404,-0.83247 0.586117,-1.091834 1.196253,-1.809066 2.005378,-2.357383 0.943307,-0.639248 1.603867,-0.949746 2.538236,-1.193094 0.468539,-0.12203 0.800752,-0.160572 1.381397,-0.160262 0.9304,4.33e-4 1.57825,0.05638 2.072095,0.178732 0.413484,0.102448 2.288634,0.607379 2.817325,0.75864 0.195242,0.05585 0.368694,0.06036 1.65404,0.04294 l 1.435926,-0.01949 -0.0088,-0.09088 c -0.02468,-0.255515 -0.0074,-2.040546 0.02616,-2.704601 0.02113,-0.417855 0.0298,-0.768361 0.01926,-0.778899 -0.01054,-0.01055 -0.612002,0.03288 -1.336593,0.09644 -0.724587,0.06358 -1.710039,0.140884 -2.189894,0.171785 -0.479854,0.03089 -1.083102,0.07997 -1.340555,0.109054 l -0.468089,0.05287 -0.234445,0.219309 c -0.737848,0.690225 -1.240802,0.897174 -1.819861,0.748824 -0.307852,-0.07887 -0.51018,-0.187121 -0.668969,-0.357933 l -0.133258,-0.143338 -1.229961,-0.01755 c -0.676481,-0.0096 -1.392067,-0.0043 -1.590193,0.01184 l -0.360228,0.02933 -0.187156,0.472583 c -0.307068,0.775378 -0.684102,1.442176 -1.08347,1.916176 -0.321369,0.381419 -1.016764,0.921161 -1.504452,1.167694 -0.103101,0.05211 -0.194462,0.115707 -0.20303,0.141311 -0.01123,0.03362 -0.105701,0.04544 -0.339657,0.04256 -0.398991,-0.0049 -0.624925,-0.08485 -0.966107,-0.341736 -0.133176,-0.100266 -0.310706,-0.206499 -0.394516,-0.236068 -0.260285,-0.09183 -1.582204,-0.264623 -2.217018,-0.289791 -0.329897,-0.01309 -0.864424,-0.05543 -1.187836,-0.09411 -1.345729,-0.160965 -1.600916,-0.08614 -2.444925,0.716934 -0.222793,0.211986 -0.3991,0.391409 -0.391789,0.398715 0.02489,0.02488 0.859468,-0.09156 0.931136,-0.129918 0.182058,-0.09743 1.01,-0.0069 1.621927,0.177482 0.68663,0.206811 1.986286,0.754216 2.743824,1.155679 0.975798,0.517127 1.926688,1.104776 1.926688,1.190685 0,0.08667 0.147356,0.06674 0.384984,-0.05207 z m 0.617662,-2.930899 c 0.473525,-0.29729 0.755119,-0.504736 1.014484,-0.747355 0.236138,-0.220899 0.602198,-0.721125 0.741215,-1.012876 0.08569,-0.17982 0.08058,-0.173101 -0.226667,0.298254 -0.296889,0.455469 -0.618539,0.782882 -1.032608,1.051117 -0.76713,0.496946 -1.383828,0.616577 -1.817224,0.352511 -0.166565,-0.101493 -0.229782,-0.06252 -0.07924,0.04885 0.213274,0.157773 0.407486,0.212306 0.756108,0.212306 h 0.320889 z m -0.49371,-0.149714 c 0.04999,-0.0085 0.25447,-0.09468 0.45441,-0.19152 0.601443,-0.291294 1.061302,-0.740248 1.602395,-1.564404 0.363407,-0.553515 0.798147,-1.447081 0.848938,-1.744924 l 0.02169,-0.127235 0.453874,-0.02748 c 0.660768,-0.04001 2.739175,-0.0503 3.026576,-0.01499 0.23349,0.02869 0.248725,0.03642 0.296591,0.150994 0.02775,0.06642 0.08384,0.131348 0.124625,0.144296 0.0408,0.01296 0.123403,0.06953 0.183575,0.125736 0.179007,0.167217 0.59933,0.200403 0.873432,0.06896 0.160849,-0.07714 0.637795,-0.523491 0.857746,-0.802722 l 0.107984,-0.137094 5.943645,-0.399311 c 7.368255,-0.49502 8.491936,-0.575588 12.967342,-0.929741 l 1.207287,-0.09554 0.137755,0.107145 c 0.171248,0.133188 0.585473,0.299442 0.813316,0.326423 0.11201,0.01326 0.231826,-3.71e-4 0.345205,-0.03884 0.0955,-0.03253 0.250803,-0.05917 0.345102,-0.05917 0.203047,0 0.601995,-0.115889 0.839162,-0.24376 0.228922,-0.123433 0.315963,-0.108535 1.284818,0.21985 0.439867,0.149093 0.971525,0.307552 1.181459,0.352126 0.209934,0.04458 0.40215,0.0866 0.427144,0.09339 0.0671,0.01823 0.06225,0.47298 -0.0053,0.498908 -0.103087,0.03958 -0.612381,-0.09702 -1.64556,-0.441285 l -1.060144,-0.353259 -0.121312,0.08347 c -0.173844,0.119605 -0.431995,0.189088 -0.848359,0.228339 -0.199941,0.01884 -0.453499,0.05107 -0.563465,0.0716 -0.362855,0.06774 -0.721747,-0.02627 -1.11596,-0.292322 -0.119048,-0.08034 -0.192393,-0.106207 -0.260955,-0.09203 -0.369962,0.07653 -2.887969,0.265916 -7.529465,0.56633 -1.249618,0.08088 -2.535383,0.170094 -2.857249,0.198251 -0.321868,0.02817 -1.107083,0.07746 -1.744921,0.109565 -0.637842,0.0321 -1.26604,0.06989 -1.396,0.08397 l -0.236292,0.02562 -0.02988,0.345348 c -0.04357,0.503639 -0.04674,2.896044 -0.0041,3.089966 l 0.03598,0.163588 2.332116,0.0094 2.332115,0.0093 0.02523,-0.08206 c 0.02999,-0.09754 0.347164,-0.492508 0.568041,-0.707399 0.28633,-0.278569 0.758147,-0.409792 1.02246,-0.284367 0.173066,0.08213 0.386522,0.317722 0.538518,0.594369 l 0.122845,0.223596 0.527112,-4.32e-4 0.527112,-4.32e-4 0.145411,-0.219738 c 0.22167,-0.334974 0.622359,-0.699431 0.871419,-0.792616 0.230854,-0.08638 0.512414,-0.106657 0.627274,-0.04518 0.150519,0.08055 0.365257,0.373431 0.522062,0.712026 l 0.1604,0.346354 0.457149,4.32e-4 0.45715,4.32e-4 0.169865,-0.268149 c 0.214717,-0.338953 0.610066,-0.768011 0.794255,-0.861978 0.07775,-0.03966 0.214708,-0.08582 0.304345,-0.102569 0.140218,-0.02619 0.1921,-0.01655 0.371505,0.06913 0.393832,0.18806 0.690285,0.549255 0.843101,1.027242 l 0.04359,0.136321 h 0.414618 0.414623 l 0.09548,-0.19085 c 0.133988,-0.267838 0.453279,-0.685416 0.639368,-0.836172 0.274305,-0.222216 0.374879,-0.257204 0.674312,-0.23456 0.348346,0.02636 0.55567,0.128263 0.74541,0.366449 0.125097,0.157029 0.35967,0.600617 0.439709,0.831518 0.01987,0.05727 0.08284,0.06344 0.6321,0.06192 l 0.610049,-0.0017 0.251268,-0.363399 c 0.345313,-0.499422 0.499582,-0.665615 0.719617,-0.775266 0.49215,-0.245249 0.917281,0.01944 1.34201,0.835524 l 0.159077,0.305668 0.313514,3.72e-4 c 0.487662,8.58e-4 0.74306,-0.123537 0.906242,-0.440719 0.106591,-0.207195 0.325776,-0.966829 0.36247,-1.256234 0.07066,-0.557356 0.418209,-1.188511 0.631954,-1.147647 0.04942,0.0095 0.117911,0.04818 0.152199,0.08606 0.0343,0.03789 0.09024,0.06888 0.124336,0.06888 0.06346,0 0.326497,0.162305 0.367667,0.226861 0.0146,0.0229 0.106652,0.01517 0.254465,-0.02139 0.127378,-0.0315 0.346105,-0.07443 0.486059,-0.09539 0.139959,-0.02095 0.328705,-0.0551 0.419432,-0.07586 l 0.164966,-0.03776 -0.01413,-0.807064 c -0.0077,-0.443886 -0.02475,-0.817741 -0.03772,-0.83078 -0.01301,-0.01305 -0.387897,-0.04688 -0.83313,-0.07519 -0.44523,-0.0283 -0.825911,-0.06788 -0.845958,-0.08792 -0.05818,-0.05818 0.05865,-1.6096571 0.146081,-1.9398011 0.175102,-0.66121 0.258234,-2.0776747 0.185108,-3.1541061 C 62.909222,4.7489927 62.789442,4.327621 62.507313,4.0784135 62.413533,3.9955805 62.29591,3.9120476 62.245925,3.892791 62.195945,3.873521 61.786974,3.843351 61.337113,3.825732 60.887248,3.8081045 60.38831,3.7774029 60.22836,3.7574983 60.068405,3.7375807 58.931483,3.7123705 57.701854,3.7014482 54.041147,3.6689579 51.08729,3.5920613 49.231709,3.4809851 43.678451,3.1485686 39.722421,3.0165897 35.290503,3.0158682 c -3.075136,-4.321e-4 -4.415215,0.043464 -5.2893,0.1735164 -0.189939,0.028256 -0.558008,0.069867 -0.81793,0.092463 -0.608692,0.052913 -1.15443,0.1805934 -1.180884,0.2762799 -0.01046,0.037804 -0.0472,0.120361 -0.08167,0.1834795 -0.135245,0.2476263 -0.279373,0.9424824 -0.353207,1.7028678 -0.07788,0.8019965 -0.152168,1.8344061 -0.183112,2.5446781 -0.03621,0.831743 -0.08153,1.015681 -0.292102,1.186108 -0.132976,0.107628 -0.600214,0.249817 -0.820899,0.249817 -0.0656,0 -0.127213,0.01283 -0.136916,0.02855 -0.0097,0.01573 0.0083,0.191559 0.03997,0.390791 0.08122,0.5108501 0.08212,1.5900851 0.0017,1.9090471 -0.192176,0.761142 -0.388665,0.967339 -1.176848,1.23493 -0.161908,0.05497 -0.358214,0.141847 -0.436235,0.193054 -0.07802,0.0512 -0.379048,0.193481 -0.668958,0.316158 -0.943183,0.399121 -1.614549,0.743159 -1.803493,0.924203 -0.09491,0.09093 -0.192639,0.165333 -0.217193,0.165333 -0.02454,0 -0.110696,0.0789 -0.191429,0.175326 -0.08074,0.09643 -0.253831,0.264105 -0.384661,0.372615 -0.130824,0.10851 -0.23806,0.208379 -0.238293,0.221937 -3.76e-4,0.01356 0.09363,0.03491 0.208595,0.04745 0.487803,0.0532 1.42269,0.212829 1.64305,0.280527 0.131006,0.04027 0.328169,0.128039 0.438135,0.195085 0.284532,0.173482 0.623805,0.232988 0.981518,0.172164 z m -0.418054,-0.785169 c -0.177517,-0.100443 -0.247267,-0.269872 -0.199193,-0.483859 0.04058,-0.180563 0.172553,-0.293955 0.378002,-0.324769 0.328762,-0.0493 0.498402,0.09473 0.501375,0.425679 0.0017,0.203445 -0.0473,0.341036 -0.149922,0.419821 -0.09546,0.0733 -0.369193,0.05426 -0.530262,-0.03685 z m 0.453128,-0.168608 c 0.02069,-0.03867 0.03763,-0.144426 0.03763,-0.23501 0,-0.126929 -0.01651,-0.173534 -0.07196,-0.203211 -0.08045,-0.04304 -0.231628,-0.0178 -0.355186,0.05929 -0.115124,0.07184 -0.115738,0.312292 -8.58e-4,0.392654 0.117375,0.08221 0.343421,0.07427 0.390511,-0.01374 z m 25.261198,-1.044079 c -0.183807,-0.107637 -0.26101,-0.240986 -0.278357,-0.480779 -0.0086,-0.118114 0.0034,-0.272919 0.02713,-0.344021 0.05299,-0.160551 0.246629,-0.334815 0.428021,-0.385183 0.185644,-0.05156 0.48087,-0.04758 0.590632,0.008 0.21022,0.106375 0.330887,0.475672 0.275693,0.843737 -0.02579,0.17193 -0.158006,0.364465 -0.289817,0.422002 -0.124612,0.0544 -0.623688,0.01218 -0.753299,-0.06372 z m 0.789334,-0.24188 c 0.12409,-0.106738 0.160132,-0.378633 0.07666,-0.578396 -0.07318,-0.175133 -0.274538,-0.239024 -0.555299,-0.176196 -0.31891,0.07137 -0.489488,0.351963 -0.377829,0.621525 0.06492,0.156756 0.205031,0.216997 0.504641,0.216997 0.213174,0 0.270006,-0.01356 0.351824,-0.08393 z M 32.004017,10.059901 C 31.526069,9.9472339 31.067626,9.5979419 30.843143,9.1754079 c -0.182252,-0.343049 -0.223989,-0.651106 -0.223276,-1.648123 8.58e-4,-1.2507165 0.07572,-1.5417856 0.517799,-2.0143769 0.240919,-0.2575418 0.579777,-0.4470571 0.928372,-0.5192228 0.260452,-0.053916 26.335758,-0.056828 26.621499,-0.00302 0.471287,0.088826 0.982711,0.4433112 1.22803,0.8511984 0.230292,0.3828931 0.258302,0.5665497 0.258302,1.6935913 0,1.090996 -0.02212,1.261614 -0.209415,1.614306 -0.134758,0.253779 -0.52725,0.634875 -0.780027,0.75737 -0.452734,0.2193961 0.594896,0.2037381 -13.769698,0.2057601 -11.63056,0.0017 -13.205153,-0.0045 -13.410712,-0.05304 z m 26.7521,-0.1836481 c 0.328424,-0.08717 0.558496,-0.220304 0.777477,-0.449884 0.2306,-0.241758 0.367037,-0.504303 0.424992,-0.817813 0.02346,-0.127041 0.03366,-0.596366 0.02596,-1.19579 C 59.972628,6.4851025 59.966882,6.4135807 59.88846,6.2169798 59.670974,5.6716914 59.199324,5.3122371 58.566598,5.20956 58.414204,5.1848035 54.020219,5.1727924 45.378377,5.1734837 c -13.991676,0.0013 -13.281478,-0.00873 -13.712717,0.1891869 -0.247623,0.1136426 -0.568566,0.4083625 -0.692332,0.63576 -0.182839,0.3359334 -0.208684,0.5242908 -0.208684,1.5209223 0,1.000434 0.02294,1.197419 0.177541,1.523977 0.193422,0.408578 0.558958,0.694994 1.045951,0.819546 0.274268,0.07014 0.482816,0.07121 13.423318,0.06885 11.402758,-0.0021 13.17122,-0.0094 13.344663,-0.05546 z m -5.972038,-0.423433 c 0.02333,-0.398884 0.481971,-0.768016 1.23175,-0.991395 0.157906,-0.04704 0.264325,-0.08665 0.236488,-0.08801 -0.113249,-0.0055 -0.585107,0.159349 -0.85316,0.298125 -0.341865,0.176981 -0.612719,0.438066 -0.700166,0.674904 -0.03443,0.09328 -0.07816,0.190055 -0.09717,0.215045 -0.02748,0.03617 -2.07283,0.04521 -10.017956,0.04432 -6.13179,-8.58e-4 -10.086702,-0.01452 -10.251127,-0.03586 -0.342307,-0.04444 -0.550821,-0.149978 -0.769892,-0.38968 -0.307285,-0.336219 -0.338715,-0.46739 -0.355066,-1.48183 -0.0092,-0.5703522 7.34e-4,-0.9567059 0.02879,-1.1157529 0.07977,-0.4527688 0.395099,-0.8570917 0.794316,-1.0184673 l 0.206031,-0.083287 12.959688,-0.010024 c 9.014958,-0.00696 13.036359,0.00172 13.211583,0.028602 0.33264,0.051012 0.629097,0.2128417 0.873479,0.4768039 0.316417,0.3417617 0.355678,0.48608 0.375033,1.3785083 0.01793,0.826057 -0.01426,1.136854 -0.147532,1.425953 -0.192328,0.417146 -0.609253,0.735124 -1.035957,0.790089 -0.114325,0.01473 -1.442941,0.0248 -2.952478,0.02233 l -2.744619,-0.0044 z m -2.09823,-0.114908 c 0,-0.140746 0.107693,-0.717375 0.172816,-0.925296 0.03422,-0.109318 0.121317,-0.263202 0.198654,-0.35106 0.199681,-0.226852 0.363978,-0.272149 0.989139,-0.272698 0.549406,-4.32e-4 2.076865,-0.07251 3.401576,-0.160395 0.449861,-0.02986 1.071493,-0.06354 1.381399,-0.07489 0.309902,-0.01136 0.656797,-0.02912 0.770867,-0.03949 0.175755,-0.01599 0.218752,-0.0075 0.281733,0.05548 0.117012,0.117012 0.09538,0.23873 -0.062,0.34889 -0.139052,0.09734 -0.136852,0.0979 0.111141,0.02843 0.152575,-0.04273 0.151335,-0.339009 -0.0017,-0.439371 -0.08246,-0.05403 -0.19142,-0.05528 -1.240416,-0.01417 -0.632502,0.02476 -1.657127,0.07716 -2.27694,0.116412 -0.619808,0.03927 -1.552254,0.09294 -2.072095,0.119311 -1.031018,0.05229 -1.11828,0.0721 -1.331804,0.302298 -0.146574,0.15801 -0.197672,0.285348 -0.296746,0.739466 -0.12816,0.587439 -0.131007,0.611573 -0.07463,0.633206 0.03266,0.01253 0.04914,-0.0097 0.04914,-0.06612 z m 1.833313,-0.04299 c 0.09112,-0.363023 0.590732,-0.737971 1.300519,-0.975979 0.721027,-0.241777 2.083774,-0.450311 3.445982,-0.527311 l 0.490759,-0.02774 -0.593345,-0.0055 c -0.326342,-0.003 -1.176992,0.02627 -1.890336,0.06507 -0.713343,0.0388 -1.763208,0.08933 -2.333032,0.112295 -1.263286,0.05092 -1.488411,0.0757 -1.634834,0.179963 -0.157957,0.112471 -0.216311,0.245427 -0.347356,0.791402 l -0.115609,0.481669 h 0.826844 0.82684 z m -4.038385,0.06935 c 0.0799,-0.0799 -0.01763,-0.531255 -0.145299,-0.672424 -0.08296,-0.09173 -0.314404,-0.212548 -0.401886,-0.209787 -0.03577,0.0013 -0.0078,0.02156 0.06217,0.04544 0.09922,0.03383 0.148474,0.08529 0.223716,0.233705 0.05307,0.104682 0.107659,0.271532 0.121307,0.370787 0.02381,0.173262 0.08971,0.282566 0.139993,0.23228 z m -0.316179,-0.226866 c -0.03012,-0.324073 -0.0413,-0.349133 -0.199708,-0.447636 -0.129978,-0.08082 -0.155245,-0.08259 -1.223295,-0.08553 -1.217591,-0.0034 -1.247204,-0.0084 -1.483622,-0.251812 -0.226543,-0.233261 -0.382362,-0.785799 -0.38947,-1.3810546 l -0.0034,-0.2908185 -0.228132,0.8571521 c -0.125473,0.471434 -0.27116,0.978554 -0.32375,1.12693 -0.05259,0.148375 -0.113495,0.34339 -0.135353,0.433361 -0.02186,0.08997 -0.04805,0.192216 -0.0582,0.227203 -0.01741,0.06005 0.09604,0.06362 2.024951,0.06362 h 2.04341 z m -4.220185,0.120352 c 0.09318,-0.405809 0.259646,-1.022554 0.468474,-1.735652 0.133794,-0.4568686 0.237465,-0.8364608 0.230388,-0.8435378 -0.02104,-0.021041 -0.575588,1.7400118 -0.574547,1.8245298 8.58e-4,0.07459 -0.05321,0.284338 -0.16278,0.63083 -0.03084,0.09754 -0.03837,0.176411 -0.01866,0.196109 0.0197,0.0197 0.04264,-0.0094 0.05712,-0.07228 z m 3.306118,-0.85433 c -0.09997,-0.01741 -0.494726,-0.04507 -0.877238,-0.06142 -0.763039,-0.03262 -0.824429,-0.05004 -0.959419,-0.272016 -0.103939,-0.170911 -0.144941,-0.423056 -0.194972,-1.1989787 -0.04165,-0.645654 -0.08306,-0.8629762 -0.164513,-0.8629762 -0.01685,0 -0.02493,0.069526 -0.01793,0.1544975 0.0069,0.084976 0.02069,0.4162388 0.03054,0.7361387 0.01957,0.6368667 0.06961,0.9092917 0.211317,1.1504677 0.114737,0.19527 0.265003,0.309211 0.470215,0.356538 0.08634,0.01992 0.500502,0.0347 0.920375,0.03284 0.557796,-0.0026 0.714449,-0.01193 0.581641,-0.03508 z m 7.169785,-0.05444 c -0.0121,-0.0121 -0.04343,-0.01335 -0.06968,-0.003 -0.02899,0.01158 -0.02039,0.02022 0.02195,0.02195 0.03833,0.0013 0.05979,-0.007 0.04771,-0.0191 z M 44.905789,6.1352701 c 0.0261,-0.03141 0.02963,-0.054529 0.0083,-0.054529 -0.02031,0 -0.04633,0.02454 -0.05784,0.054529 -0.02666,0.069469 -0.0082,0.069469 0.0495,0 z M 28.87293,9.7432619 c -0.212677,-0.107248 -0.325789,-0.320513 -0.325789,-0.614243 0,-0.114425 0.01741,-0.254095 0.03867,-0.310382 0.101925,-0.269769 0.37518,-0.398404 0.777694,-0.36609 0.425181,0.03413 0.610752,0.235381 0.608112,0.659496 -0.003,0.491481 -0.216375,0.708699 -0.698805,0.71159 -0.176277,0.0013 -0.279581,-0.0197 -0.399877,-0.08037 z m 0.676986,-0.151641 c 0.238208,-0.103714 0.350913,-0.386475 0.262265,-0.657968 -0.109902,-0.336581 -0.732748,-0.418995 -0.989451,-0.130925 -0.100002,0.112222 -0.117017,0.421714 -0.03223,0.586096 0.116922,0.226676 0.481164,0.323944 0.759409,0.202797 z m 2.805027,3.5450381 c 0.250074,-0.11754 0.479722,-0.290443 0.816085,-0.614422 0.371175,-0.357509 0.232064,-0.322003 1.737809,-0.443548 0.509845,-0.04113 1.069119,-0.0907 1.24283,-0.1101 0.338745,-0.03785 2.526742,-0.179418 2.783217,-0.180087 l 0.154498,-3.73e-4 0.0028,0.154498 0.0028,0.154497 0.04366,-0.145411 c 0.03717,-0.123796 0.06242,-0.149369 0.169883,-0.172034 0.113846,-0.02402 1.056622,-0.09324 5.07017,-0.372312 0.69979,-0.04866 1.853075,-0.122465 2.562859,-0.164012 3.150937,-0.184447 6.315541,-0.432306 5.96182,-0.466945 -0.265842,-0.026 -4.352479,0.224396 -7.016044,0.429941 -0.769765,0.0594 -3.853372,0.271963 -6.852459,0.472357 -2.999087,0.20039 -5.521609,0.373306 -5.605604,0.384254 -0.135252,0.01762 -0.173511,0.04636 -0.334437,0.251131 -0.346375,0.440757 -0.734397,0.755904 -0.986427,0.801166 -0.191974,0.03448 -0.744032,-0.07322 -0.920563,-0.179583 -0.0828,-0.04988 -0.191128,-0.146465 -0.240745,-0.214621 -0.08497,-0.116723 -0.105882,-0.125248 -0.359916,-0.146725 -0.631492,-0.05338 -2.977465,0.01508 -3.148773,0.09186 -0.04598,0.02061 0.05149,0.02566 0.265163,0.01378 1.009053,-0.05619 2.024427,-0.06397 2.583213,-0.01979 0.590225,0.04666 0.594507,0.04763 0.627519,0.141846 0.0752,0.214644 0.410029,0.353907 0.926464,0.385335 0.312729,0.01906 0.380029,0.0124 0.514195,-0.05066 z m 43.696312,-0.589617 c 0.205159,-0.01689 0.499616,-0.04323 0.654342,-0.05856 l 0.281336,-0.02787 0.08244,-0.236294 c 0.108441,-0.310787 0.09456,-0.566169 -0.04812,-0.885464 -0.09529,-0.213244 -0.121014,-0.242645 -0.234276,-0.267769 -0.255347,-0.05664 -2.631896,-0.02903 -3.380789,0.03927 -0.38988,0.03556 -0.721311,0.0768 -0.736506,0.09165 -0.01521,0.01486 -0.0124,0.107814 0.0063,0.206586 0.04721,0.250214 0.05656,0.643528 0.0222,0.933889 l -0.02903,0.245379 1.504564,-0.0051 c 0.82751,-0.0026 1.672421,-0.01888 1.877581,-0.03573 z m -1.550886,-0.157276 c -0.05602,-0.02899 -0.151632,-0.109361 -0.212461,-0.178641 -0.293484,-0.334265 -0.227764,-0.746991 0.147896,-0.928846 0.145835,-0.0706 0.21861,-0.07582 1.055416,-0.07582 0.819387,0 0.911068,0.0063 1.03775,0.07089 0.260303,0.132796 0.349786,0.552695 0.188699,0.885452 -0.129659,0.267851 -0.173236,0.277861 -1.21391,0.278816 -0.717375,8.58e-4 -0.922341,-0.0099 -1.00339,-0.05185 z m 1.951722,-0.18386 c 0.155893,-0.06773 0.240333,-0.259641 0.205859,-0.467868 -0.05635,-0.340397 -0.0886,-0.349837 -1.194161,-0.349764 -0.761483,3.5e-5 -0.892714,0.0084 -1.002856,0.06361 -0.317745,0.159362 -0.276756,0.573809 0.07473,0.755568 0.147269,0.07616 1.740542,0.07487 1.916432,-0.0013 z m -3.926786,0.09112 c 0,-0.06998 -0.0075,-0.0986 -0.01664,-0.06361 -0.0092,0.035 -0.0092,0.09224 0,0.127234 0.0092,0.035 0.01664,0.0063 0.01664,-0.06362 z m -7.49837,0.0471 c 0.167494,-0.03491 1.039686,-0.04353 3.757967,-0.0372 l 3.539849,0.0082 -0.0184,-0.436234 c -0.01011,-0.239923 -0.03578,-0.479893 -0.05707,-0.533256 l -0.03871,-0.09703 -0.247397,0.08584 c -0.435349,0.151059 -0.710263,0.162741 -3.828987,0.162741 -3.089447,0 -3.052754,0.0017 -3.052754,-0.149788 0,-0.03975 -0.03918,-0.07115 -0.107408,-0.08614 -0.06027,-0.01322 -0.117185,-0.0544 -0.129684,-0.09377 -0.01227,-0.03858 -0.03755,-0.07018 -0.05617,-0.07018 -0.04005,0 -0.04588,1.199596 -0.0061,1.25499 0.01802,0.0251 0.0975,0.02242 0.244822,-0.0082 z M 58.538,11.484606 c 0,-0.0312 -0.148838,-0.09228 -0.408963,-0.167882 -1.458215,-0.423818 -1.90499,-0.546326 -1.987673,-0.545038 -0.109667,0.0017 2.194004,0.758657 2.314844,0.760619 0.04505,8.58e-4 0.08179,-0.02069 0.08179,-0.0477 z m -3.579364,-0.350571 c 0.286968,-0.02519 0.692147,-0.166807 0.780009,-0.272673 0.06136,-0.07394 -0.140361,-0.01953 -0.280718,0.07573 -0.172328,0.116948 -0.466728,0.16971 -0.973235,0.174428 -0.421951,0.0039 -0.444188,0 -0.67932,-0.114088 -0.133699,-0.06498 -0.265021,-0.118144 -0.291821,-0.118144 -0.02679,0 -0.08615,-0.02623 -0.131875,-0.05824 -0.04573,-0.03201 -0.09181,-0.04957 -0.102405,-0.03897 -0.03353,0.03357 0.287435,0.215961 0.532898,0.30286 0.252158,0.08926 0.545366,0.101817 1.146467,0.04911 z"
   id="path2922" /></svg>
