<?xml version="1.0" encoding="UTF-8" standalone="no"?>
<!-- Generator: Adobe Illustrator 16.0.0, SVG Export Plug-In . SVG Version: 6.00 Build 0)  -->

<svg
   version="1.1"
   x="0px"
   y="0px"
   width="39px"
   height="32px"
   viewBox="0 0 39 32"
   enable-background="new 0 0 39 32"
   xml:space="preserve"
   id="svg3145"
   sodipodi:docname="fiveseven.svg"
   inkscape:version="1.1.1 (3bf5ae0d25, 2021-09-20)"
   xmlns:inkscape="http://www.inkscape.org/namespaces/inkscape"
   xmlns:sodipodi="http://sodipodi.sourceforge.net/DTD/sodipodi-0.dtd"
   xmlns="http://www.w3.org/2000/svg"
   xmlns:svg="http://www.w3.org/2000/svg"><defs
   id="defs3149" /><sodipodi:namedview
   id="namedview3147"
   pagecolor="#505050"
   bordercolor="#eeeeee"
   borderopacity="1"
   inkscape:pageshadow="0"
   inkscape:pageopacity="0"
   inkscape:pagecheckerboard="0"
   showgrid="false"
   inkscape:zoom="9.6875"
   inkscape:cx="15.225806"
   inkscape:cy="20.645161"
   inkscape:window-width="1440"
   inkscape:window-height="848"
   inkscape:window-x="1358"
   inkscape:window-y="-8"
   inkscape:window-maximized="1"
   inkscape:current-layer="svg3145" />

<g
   id="guides">
</g>
<path
   style="fill:#ffffff;stroke-width:0.0359177"
   d="m 3.7583058,28.419749 c 0.2009335,-0.01124 0.3725082,-0.02853 0.381277,-0.03841 0.041421,-0.04667 0.4211497,-1.396657 0.4209478,-1.496575 0,-0.06255 0.01443,-0.119127 0.032239,-0.125713 0.01786,-0.0065 0.1646477,-0.448379 0.3261572,-0.981757 0.8971317,-2.962675 2.1767712,-6.983288 2.4977974,-7.848053 0.2199187,-0.592402 0.22397,-0.599554 0.3531343,-0.622655 0.062047,-0.01111 0.2340404,-0.04661 0.3822002,-0.07892 0.8213868,-0.179102 2.0200853,-0.115901 3.1068983,0.163814 0.526174,0.135424 0.889852,0.262173 1.587815,0.553397 l 0.582121,0.242886 0.107494,-0.07654 c 0.05913,-0.0421 0.199662,-0.118737 0.312304,-0.170306 0.234181,-0.107212 0.106672,-0.102856 2.295092,-0.07842 0.730931,0.0082 1.345218,0.02503 1.365087,0.03749 0.10811,0.06779 1.470195,0.151623 2.478126,0.152526 0.966857,10e-4 1.124492,-0.0074 1.534628,-0.08095 1.121685,-0.201038 1.79463,-0.600426 2.071195,-1.229237 0.09297,-0.211374 0.245847,-1.008001 0.290708,-1.514848 0.04922,-0.556045 0.0442,-1.277383 -0.01149,-1.647531 l -0.04642,-0.308545 0.507388,-0.235746 c 0.279066,-0.129657 0.574496,-0.25585 0.656513,-0.28042 0.256229,-0.07678 0.26618,-0.10147 0.491113,-1.219366 0.113284,-0.563014 0.26913,-1.318349 0.346325,-1.678528 0.07719,-0.3601776 0.140355,-0.6713153 0.140355,-0.6914189 0,-0.024714 -4.121079,-0.036549 -12.731502,-0.036549 H 0.50431672 l -0.036881,0.136904 c -0.020282,0.075291 -0.0768446,0.3139996 -0.12570317,0.5304565 -0.0488383,0.2164564 -0.11756009,0.4498254 -0.15265506,0.5185994 -0.09440721,0.185008 -0.0840897,0.658262 0.0218964,1.004598 0.10579448,0.345703 0.17711961,0.482423 0.35974363,0.689567 0.13658585,0.154918 0.38542415,0.342555 0.41335484,0.311687 0.006505,-0.0071 0.14455744,-0.433317 0.30677824,-0.946941 0.1622208,-0.513625 0.306425,-0.946052 0.3204611,-0.960948 0.014025,-0.0149 0.9620947,0.0052 2.1068084,0.0447 1.1447085,0.03948 2.1257432,0.07187 2.1800708,0.07198 0.07751,1.43e-4 0.098772,0.01707 0.098772,0.07857 0,0.04311 0.034055,0.204576 0.075674,0.358832 0.060059,0.222573 0.1006284,0.302368 0.1965692,0.386601 0.3149415,0.276521 0.9513331,0.232808 1.1803282,-0.08108 0.058464,-0.08014 0.076566,-0.168477 0.086491,-0.422035 l 0.012563,-0.320686 h 0.1145935 c 0.1741378,0 0.5159606,0.09866 0.7196387,0.207707 0.4029716,0.215755 0.7639009,0.730694 0.8991901,1.282883 0.1726041,0.704462 0.1639262,1.626476 -0.021291,2.262827 -0.1424182,0.489294 -0.527358,1.094944 -0.9369439,1.474148 -0.4762948,0.440963 -1.1339269,0.770717 -1.5370549,0.770717 -0.3996669,0 -0.8392371,0.318994 -1.0702503,0.77667 -0.1295477,0.256673 -0.2461189,0.629721 -0.7617921,2.43798 C 4.7349666,20.51355 4.315285,21.95206 4.0220534,22.939802 3.3198462,25.305173 2.4703117,28.230321 2.44951,28.35442 L 2.432962,28.4532 2.9129499,28.4468 c 0.263993,-0.0036 0.644392,-0.01574 0.8453254,-0.02699 z M 14.832813,16.525542 c -0.199283,-0.09021 -0.341798,-0.222066 -0.443284,-0.410151 -0.0746,-0.138223 -0.07752,-0.185189 -0.07752,-1.239166 0,-1.216273 0.004,-1.240957 0.252622,-1.489392 0.230594,-0.230597 0.318337,-0.25141 1.113573,-0.264162 l 0.719674,-0.01152 -0.01433,0.253607 c -0.03315,0.586733 0.143575,1.365533 0.409032,1.802524 0.122267,0.201266 0.358281,0.441008 0.778119,0.790402 0.250352,0.208342 0.404843,0.232915 0.550233,0.08753 0.120965,-0.120964 0.110668,-0.231215 -0.04006,-0.4286 -0.314412,-0.411765 -0.403859,-0.776446 -0.434903,-1.773 l -0.02265,-0.727336 h 2.19001 c 2.413907,0 2.416751,2.91e-4 2.683597,0.22091 0.07663,0.06338 0.177488,0.197177 0.224135,0.297352 0.08308,0.17844 0.08481,0.203627 0.08496,1.24171 1.05e-4,0.646813 -0.01489,1.11382 -0.03851,1.198818 -0.05024,0.180925 -0.264085,0.406977 -0.445827,0.471265 -0.120148,0.04251 -0.731806,0.05095 -3.735459,0.05162 -3.537549,7.07e-4 -3.594227,-2.91e-4 -3.753416,-0.07237 z m 0.28372,-3.699595 c -0.223127,-0.07105 -0.279507,-0.113749 -0.335727,-0.254259 -0.132625,-0.331471 -0.01518,-0.705395 0.266143,-0.847254 0.199012,-0.100356 0.503318,-0.10834 0.682586,-0.01792 0.362827,0.183029 0.385268,0.923243 0.03325,1.096645 -0.139835,0.06889 -0.465431,0.08035 -0.64626,0.02278 z m 0.49063,-0.335372 c 0.09011,-0.06589 0.0869,-0.353493 -0.005,-0.45512 -0.135688,-0.149929 -0.487687,-0.03087 -0.529694,0.179154 -0.02674,0.133649 0.01977,0.272628 0.101808,0.304098 0.106249,0.04077 0.361398,0.0242 0.432946,-0.02812 z m 7.239666,0.09556 c -0.186952,-0.13958 -0.236822,-0.248142 -0.248448,-0.54086 -0.01233,-0.310424 0.04539,-0.46873 0.216691,-0.594318 0.124069,-0.09096 0.472258,-0.120257 0.693401,-0.05834 0.554862,0.155351 0.530507,0.961245 -0.03711,1.227858 -0.17745,0.08336 -0.489917,0.06617 -0.624537,-0.03433 z m 0.495279,-0.255174 c 0.230069,-0.0653 0.313555,-0.447864 0.131845,-0.604164 -0.136101,-0.117069 -0.40748,-0.117093 -0.517444,-3.4e-5 -0.110011,0.1171 -0.108583,0.382091 0.0028,0.504836 0.08795,0.09699 0.246398,0.138111 0.382881,0.09937 z m -6.658662,-0.797728 c -0.431103,-0.243295 -0.5283,-0.517088 -0.289997,-0.816853 0.06778,-0.08525 0.188704,-0.202436 0.268727,-0.260405 l 0.145495,-0.105394 0.979073,0.0027 0.979072,0.0026 0.09824,0.118461 c 0.136188,0.164216 0.314817,0.512952 0.314817,0.614624 0,0.04645 -0.01877,0.125717 -0.04177,0.176145 -0.04495,0.0987 -0.318811,0.270872 -0.430805,0.270872 -0.03763,0 -0.07774,0.02423 -0.08912,0.05388 -0.01755,0.04582 -0.149219,0.05389 -0.879403,0.05389 h -0.858732 z m 2.002453,-0.283249 c 0.23698,-0.150286 0.2552,-0.252968 0.07722,-0.435237 l -0.137589,-0.140906 -0.845762,3.48e-4 -0.845759,3.46e-4 -0.152651,0.141781 c -0.08396,0.07799 -0.152649,0.157834 -0.152649,0.177453 0,0.08449 0.08424,0.207783 0.192764,0.282154 0.112309,0.07695 0.148534,0.08015 0.9069,0.08015 h 0.789914 z m 0.561004,-0.383782 c -0.242037,-0.242038 -0.206604,-0.747382 0.06414,-0.9147126 0.155375,-0.09603 0.556752,-0.1034769 0.730627,-0.013567 0.211831,0.1095436 0.29189,0.5181216 0.15602,0.7962916 -0.09761,0.199842 -0.255477,0.26941 -0.578839,0.255075 -0.236014,-0.01045 -0.270856,-0.02198 -0.371954,-0.123086 z m 0.630332,-0.23627 c 0.07576,-0.108154 0.07086,-0.290618 -0.0098,-0.363579 -0.08041,-0.07277 -0.325562,-0.07848 -0.419525,-0.0098 -0.08977,0.06564 -0.0905,0.280992 -0.0015,0.37956 0.09648,0.106598 0.354184,0.102883 0.430593,-0.0062 z M 4.9247092,28.364142 c 0.00949,-0.0096 0.484927,-0.03341 1.0565825,-0.05319 0.5716607,-0.01979 1.3141544,-0.06074 1.6499885,-0.09101 0.3358291,-0.03027 1.0954918,-0.06994 1.6881357,-0.08817 0.9140131,-0.02813 1.1075391,-0.04363 1.2752461,-0.102321 0.329925,-0.115451 0.628404,-0.282652 0.74825,-0.41915 0.09817,-0.111805 0.113618,-0.15634 0.113618,-0.327486 0,-0.108949 -0.02467,-0.245769 -0.0548,-0.304053 -0.04581,-0.08863 -0.07669,-0.105946 -0.188573,-0.105824 -0.07358,0 -1.4833822,0.08078 -3.1329115,0.179339 -1.6495242,0.09855 -3.0492464,0.1793 -3.1104962,0.17944 l -0.1113544,2.9e-4 -0.1477208,0.51442 C 4.6294201,28.02936 4.55254,28.28797 4.5398207,28.321113 c -0.019878,0.05186 0.00404,0.06027 0.1722762,0.06027 0.1074746,0 0.2031482,-0.0077 0.2126081,-0.01718 z m -2.8270373,-0.02615 c 0.076461,-0.242606 0.1893898,-0.629179 0.5958829,-2.039894 0.2589996,-0.898843 0.7272016,-2.507064 1.040448,-3.573824 0.3132513,-1.06676 0.7817409,-2.683064 1.0410885,-3.591788 0.5527206,-1.936671 0.5786735,-2.013101 0.7731288,-2.276927 0.2717236,-0.368662 0.6739031,-0.594121 1.158356,-0.649373 0.9084684,-0.103613 1.874685,-0.967854 2.2212555,-1.9868 0.2295047,-0.674792 0.1729118,-1.979529 -0.1100628,-2.537294 -0.1298504,-0.255933 -0.740168,-0.792755 -0.9012991,-0.792755 -0.023108,0 -0.051967,0.07302 -0.064201,0.162251 -0.040514,0.295664 -0.2304886,0.561704 -0.5083321,0.711904 -0.1212735,0.06556 -0.2024722,0.07767 -0.5208093,0.07767 -0.3206478,0 -0.3994247,-0.0119 -0.5259301,-0.07958 C 6.0945029,11.653184 5.9182511,11.437204 5.7778257,11.125142 L 5.6602404,10.863841 5.011498,10.839851 c -0.3568122,-0.0132 -1.1013091,-0.03949 -1.6544434,-0.05844 -0.5531393,-0.01895 -1.1221764,-0.04342 -1.264534,-0.0544 l -0.2588329,-0.01996 -0.1786232,0.567062 c -0.098247,0.311884 -0.2268257,0.72549 -0.2857293,0.919122 L 1.2622339,12.5453 1.4655688,12.63679 c 0.7219494,0.324859 1.1048913,0.483697 1.2539439,0.520112 0.093832,0.02292 0.2186424,0.06583 0.2773543,0.09535 0.058712,0.02951 0.1991827,0.07524 0.3121616,0.101594 0.1901364,0.04436 0.6046921,0.270011 0.604793,0.329208 2.52e-5,0.0142 0.039757,0.07201 0.088267,0.128419 0.1246739,0.144964 0.1755202,0.326164 0.1515702,0.540128 -0.011604,0.103517 -0.1629575,0.549522 -0.3475189,1.023966 -1.0291313,2.645533 -1.8914353,5.279169 -2.4212151,7.394835 -0.44476158,1.776129 -0.60035303,2.706425 -0.60803195,3.635452 -0.004037,0.471261 0.004541,0.567759 0.0552156,0.628564 0.0328948,0.03951 0.17972805,0.233469 0.32628845,0.431013 0.2620215,0.353172 0.6834589,0.790846 0.8432884,0.875777 0.064655,0.03436 0.084352,0.03371 0.095987,-0.0032 z m 6.1082961,-1.766087 2.873429,-0.184272 0.07854,-0.233332 c 0.12807,-0.380478 0.489745,-1.74161 0.749164,-2.819422 0.282389,-1.173236 0.330995,-1.326242 0.504241,-1.587245 0.157886,-0.23787 0.384157,-0.725962 0.438066,-0.944966 0.07909,-0.321307 0.08601,-0.387865 0.115618,-1.113297 0.02038,-0.499655 0.04955,-0.805771 0.09062,-0.951982 0.0333,-0.118528 0.06293,-0.237977 0.06581,-0.265443 0.0059,-0.0567 -0.784409,-0.402662 -1.359612,-0.595107 C 10.50113,17.455041 9.0928304,17.349197 7.9470574,17.590128 7.8367422,17.613322 7.8270049,17.62992 7.7192932,17.97833 7.6574024,18.17851 7.3915922,19.004978 7.1285969,19.814925 6.5190815,21.692103 6.4549408,21.899094 5.8932598,23.80181 5.636667,24.671022 5.331034,25.693333 5.2140793,26.073613 l -0.2126434,0.691417 0.1655558,-0.0044 c 0.091058,-0.0024 1.4586007,-0.08735 3.0389894,-0.188699 z M 35.409433,12.200983 c 0.150083,-0.208985 0.311336,-0.601155 0.413786,-1.006337 l 0.08174,-0.323261 0.373975,-0.0284 c 0.205692,-0.01562 0.632594,-0.02355 0.94867,-0.01753 0.516879,0.0098 0.590167,0.0191 0.728569,0.09261 0.08463,0.04497 0.16949,0.07212 0.188567,0.06032 0.01907,-0.0118 0.03507,-0.121503 0.03552,-0.243809 3.48e-4,-0.122298 0.01494,-0.282975 0.03214,-0.357056 l 0.03128,-0.134692 H 32.254758 26.26583 l -0.149989,0.727335 c -0.215727,1.046086 -0.272265,1.351871 -0.253441,1.37069 0.0091,0.0091 0.1446,-3.46e-4 0.301021,-0.02138 0.20083,-0.02683 1.271907,-0.02608 3.644924,0.0024 1.84829,0.02233 3.838632,0.04046 4.422991,0.04026 l 1.06247,-2.91e-4 z m 3.144563,-2.3378641 c 0.04334,-0.043333 0.05643,-0.1351303 0.05643,-0.3952011 v -0.338757 l -6.078681,0.00912 -6.078681,0.00912 -0.06192,0.3232613 c -0.03406,0.1777924 -0.06254,0.3515461 -0.06327,0.3861166 -0.0014,0.059624 0.311866,0.062852 6.084163,0.062852 5.484392,0 6.091093,-0.00553 6.141955,-0.056438 z M 38.65827,8.4559082 C 38.713636,8.3635676 38.760089,7.4267706 38.746904,6.668993 38.732527,5.8437031 38.727731,5.79472 38.633602,5.5196215 38.455038,4.9976422 38.204666,4.5294074 38.0035,4.3412381 l -0.182418,-0.1706263 -0.475284,0.010024 -0.475287,0.010024 -0.126762,0.2436189 c -0.06971,0.1339911 -0.191408,0.3191473 -0.270427,0.4114608 -0.07902,0.092311 -0.152484,0.2008849 -0.16325,0.2412719 l -0.01957,0.073431 -5.039659,0.0091 c -4.778977,0.00863 -5.038411,0.012351 -5.015548,0.071836 0.01326,0.034504 0.155136,0.49896 0.315276,1.0321308 l 0.29116,0.9693961 -0.113933,0.5768447 c -0.06265,0.3172631 -0.113931,0.5962494 -0.113931,0.6199668 0,0.033372 1.358742,0.043128 6.014124,0.043128 3.307767,0 6.021391,-0.012122 6.030275,-0.026938 z M 26.126833,8.2942765 c 0.03048,-0.1037115 0.08824,-0.3668015 0.12838,-0.5846422 l 0.07297,-0.3960748 -0.18538,-0.627585 C 26.04085,6.3408031 25.889299,5.7997818 25.806025,5.4837041 L 25.654624,4.9090184 16.068265,4.8910572 6.4819098,4.873096 5.9980976,4.6651599 C 5.2570115,4.3466482 4.546303,4.1482859 3.9137762,4.0834167 3.6781716,4.059255 3.2014683,4.1033659 2.941379,4.1734009 l -0.1410559,0.03798 V 4.5275727 4.8437624 L 2.6598423,4.8858505 C 2.4412202,4.9513513 1.9055022,5.322854 1.6845996,5.5621502 1.4897458,5.7732246 1.2363264,6.2064054 1.1278781,6.5137827 1.0697469,6.6785375 0.71709135,8.3144293 0.71709135,8.4193191 c 0,0.060628 0.57724575,0.063518 12.67717065,0.063518 h 12.677171 z"
   id="path3163" /></svg>
