<?xml version="1.0" encoding="UTF-8" standalone="no"?>
<!-- Generator: Adobe Illustrator 16.0.0, SVG Export Plug-In . SVG Version: 6.00 Build 0)  -->

<svg
   version="1.1"
   x="0px"
   y="0px"
   width="25.458"
   height="22"
   viewBox="0 0 25.458 22"
   enable-background="new 0 0 25.458 32"
   xml:space="preserve"
   id="svg24"
   sodipodi:docname="flashbang.svg"
   inkscape:version="1.1.1 (3bf5ae0d25, 2021-09-20)"
   xmlns:inkscape="http://www.inkscape.org/namespaces/inkscape"
   xmlns:sodipodi="http://sodipodi.sourceforge.net/DTD/sodipodi-0.dtd"
   xmlns="http://www.w3.org/2000/svg"
   xmlns:svg="http://www.w3.org/2000/svg"><defs
   id="defs28" /><sodipodi:namedview
   id="namedview26"
   pagecolor="#505050"
   bordercolor="#eeeeee"
   borderopacity="1"
   inkscape:pageshadow="0"
   inkscape:pageopacity="0"
   inkscape:pagecheckerboard="0"
   showgrid="false"
   inkscape:zoom="19.375"
   inkscape:cx="30.270968"
   inkscape:cy="12.025806"
   inkscape:window-width="1440"
   inkscape:window-height="848"
   inkscape:window-x="1358"
   inkscape:window-y="-8"
   inkscape:window-maximized="1"
   inkscape:current-layer="svg24"
   height="31px" />

<g
   id="guides">
</g>
<path
   style="fill:#ffffff;stroke-width:0.0179798"
   d="M 2.745167,18.840637 C 2.2962,18.384699 2.1249799,18.179358 1.8638725,17.78369 1.627496,17.425512 1.464346,17.139075 1.2545135,16.713895 0.70718734,15.60488 0.44442665,14.585183 0.38118398,13.324715 0.33280631,12.360707 0.43377129,11.404569 0.68087899,10.486616 L 0.72759095,10.313109 9.9537649,7.8061526 C 15.028163,6.4273261 19.226664,5.2842301 19.283771,5.2659399 c 0.08484,-0.027177 0.116976,-0.029715 0.175774,-0.013883 0.07921,0.021329 0.502549,0.03383 0.502537,0.014842 -9e-6,-0.00653 -0.03674,-0.087839 -0.08162,-0.180677 -0.117435,-0.242912 -0.158034,-0.4503862 -0.157562,-0.8053161 0,-0.3968299 0.07493,-0.7223898 0.248622,-1.0877735 0.180636,-0.3800073 0.509528,-0.7675402 0.86256,-1.0163616 0.729552,-0.5141987 1.574266,-0.6427801 2.400297,-0.3653738 0.383798,0.128889 0.701511,0.3308411 0.987325,0.6275827 0.350404,0.3637964 0.577677,0.7958614 0.688089,1.3081366 0.05267,0.2443193 0.0577,0.7200583 0.0099,0.9411985 -0.120919,0.5601438 -0.420657,1.0772686 -0.821052,1.4165394 -0.06938,0.058785 -0.122736,0.1102888 -0.118578,0.1144515 0.0042,0.00418 0.03218,-9.798e-4 0.06226,-0.011495 0.05273,-0.018385 0.05636,-0.016188 0.102036,0.061749 0.07238,0.1235072 1.192733,4.2397284 1.193223,4.3839794 0.0012,0.206021 -0.121412,0.349342 -0.422153,0.495437 -0.203782,0.09899 -0.3938,0.142898 -0.631897,0.146005 -0.207441,0.0027 -0.296907,-0.02241 -0.368499,-0.10345 -0.04389,-0.04969 -0.165907,-0.303433 -0.214906,-0.446913 -0.02365,-0.06922 -0.04399,-0.128148 -0.04523,-0.130948 -0.0021,-0.0049 -1.443375,0.390582 -1.567979,0.430208 -0.04285,0.01363 -0.08694,0.05588 -0.15671,0.150234 -0.05339,0.0722 -0.118697,0.148275 -0.145111,0.169057 -0.05799,0.04561 -0.17087,0.08064 -0.356174,0.110537 -0.101365,0.01635 -0.135816,0.02866 -0.129107,0.04614 0.01914,0.04991 0.116486,0.580405 0.134867,0.735068 0.01058,0.089 0.03954,0.325874 0.06434,0.526387 0.02483,0.200514 0.0544,0.499877 0.06574,0.665251 0.01799,0.262176 0.01678,0.324837 -0.0095,0.489333 -0.03262,0.204071 -0.06775,0.275133 -0.188364,0.381031 -0.107911,0.09475 -0.207256,0.128759 -0.339886,0.116375 -0.111258,-0.01039 -0.410771,0.06935 -8.981839,2.391201 -4.8766931,1.321072 -8.8754482,2.405297 -8.8861036,2.409389 -0.010675,0.0041 -0.1969333,-0.172874 -0.4139469,-0.393251 z m 1.0980595,-0.169778 c 0.3461079,-0.09556 0.6324535,-0.17628 0.636312,-0.179376 0.00382,-0.0031 -0.042695,-0.07259 -0.1034455,-0.15444 C 4.1929566,18.090315 3.8656465,17.592022 3.718492,17.335913 3.0998349,16.259206 2.5336352,14.662226 2.2166602,13.099968 2.0594485,12.325128 1.9284637,11.18336 1.9284096,10.587301 c -9.3e-6,-0.116195 -0.00608,-0.211323 -0.013516,-0.211396 -0.045433,-4.22e-4 -0.8808432,0.224703 -0.9001855,0.242607 -0.0283016,0.02619 -0.0750625,0.23271 -0.14664144,0.647524 -0.20279014,1.175197 -0.1871454,2.281387 0.0471606,3.33524 0.0500021,0.224881 0.19602313,0.780747 0.26922603,1.024846 0.097718,0.325841 0.2340909,0.655547 0.4462209,1.078784 0.4536351,0.905124 0.6601321,1.203238 1.3170472,1.901357 0.1232927,0.131028 0.2336315,0.238258 0.245194,0.238288 0.011552,0 0.3041945,-0.07813 0.6503023,-0.173692 z M 3.0553358,18.534345 C 2.5055606,17.934687 2.1894107,17.500197 1.8568972,16.887341 1.5415455,16.306108 1.3398136,15.778845 1.1473705,15.032791 0.93815833,14.221757 0.86355586,13.655168 0.86208921,12.866232 c -0.001186,-0.522954 0.0188385,-0.816275 0.0873108,-1.292251 0.0351655,-0.244493 0.14558266,-0.838676 0.15795846,-0.850043 0.014213,-0.01306 0.6486124,-0.186082 0.6822653,-0.186082 0.00418,0 0.013063,0.115296 0.019834,0.256211 0.085406,1.781845 0.5040002,3.605585 1.2248228,5.33639 0.3061598,0.735146 0.6018695,1.289891 1.0564029,1.981817 0.1089723,0.165888 0.1949681,0.303643 0.1910977,0.306127 -0.00382,0.0025 -0.0839,0.02358 -0.1778452,0.04689 -0.093948,0.0233 -0.3227561,0.0858 -0.5084596,0.138871 -0.1857009,0.05307 -0.3488962,0.0965 -0.3626597,0.0965 -0.013759,0 -0.093625,-0.07484 -0.1774822,-0.166312 z m 8.7888792,-2.045829 c 3.253429,-0.883218 5.921576,-1.611081 5.929195,-1.617472 0.0076,-0.0064 -0.02972,-0.07237 -0.08299,-0.146617 C 17.023412,13.794823 16.595082,12.937613 16.168965,11.679568 15.916901,10.93542 15.767031,10.377066 15.611573,9.6029092 15.426641,8.682071 15.331094,7.9271855 15.277617,6.9645432 c -0.0067,-0.1210494 -0.0179,-0.2165876 -0.02482,-0.2123063 -0.007,0.00428 -2.689767,0.7326372 -5.9618547,1.6185699 -3.2721,0.8859321 -5.9514346,1.612956 -5.9540864,1.6156082 -0.00653,0.00648 0.023072,0.463292 0.057186,0.884066 0.1103693,1.361374 0.4308279,2.854389 0.9001103,4.193523 0.4093815,1.168223 0.8240236,1.990437 1.433331,2.842222 0.099258,0.138762 0.1544089,0.201014 0.1734547,0.195793 0.015358,-0.0042 2.6898296,-0.730284 5.9432711,-1.613503 z M 5.8092518,17.779195 C 5.2887275,17.075433 4.9812738,16.515934 4.6162316,15.608142 4.2003616,14.573963 3.9123347,13.537466 3.7194109,12.380779 3.5595805,11.422559 3.4577172,10.560775 3.45684,10.159547 v -0.08164 l 0.1213696,-0.03189 C 3.6449565,10.028474 4.0474797,9.9181092 4.4726988,9.8007574 4.8979204,9.6834056 5.8809576,9.4163966 6.6572342,9.2074046 7.4335078,8.9984122 8.525777,8.7030635 9.0845053,8.5510733 9.6432217,8.399083 10.614131,8.1361099 11.242067,7.9666901 12.619675,7.5950087 13.611553,7.3256899 14.442458,7.0977084 14.783628,7.0040998 15.08294,6.9246813 15.107594,6.9212245 l 0.04483,-0.00628 0.03105,0.359595 c 0.151827,1.7588259 0.248242,2.3122718 0.649885,3.7307965 0.332109,1.172937 0.735591,2.170478 1.20357,2.975646 0.06215,0.106943 0.420036,0.653316 0.508735,0.776668 0.02785,0.03874 0.02655,0.04002 -0.06755,0.06645 -0.962787,0.270461 -2.629737,0.727834 -3.610993,0.990773 -0.687276,0.184162 -1.686495,0.455285 -2.220493,0.602496 -1.108158,0.305489 -2.1388723,0.583914 -3.5599967,0.961645 -0.5438849,0.144564 -1.2423633,0.335212 -1.552166,0.42366 -0.3098156,0.08845 -0.5690087,0.160816 -0.5760088,0.160816 -0.00695,0 -0.074049,-0.08293 -0.1490141,-0.184293 z M 20.103262,14.248387 c 0.441505,-0.114978 0.811378,-0.215883 0.821937,-0.224234 0.01119,-0.0088 0.04742,-7.1e-5 0.08679,0.02104 0.07464,0.04 0.126667,0.03315 0.15534,-0.02043 0.02631,-0.04916 0.0093,-0.734516 -0.02673,-1.077618 -0.04537,-0.431964 -0.09472,-0.801764 -0.161931,-1.213632 -0.09193,-0.563331 -0.09036,-0.548382 -0.05779,-0.548382 0.01539,0 0.03255,-0.0074 0.03816,-0.01652 0.02023,-0.03275 -0.412176,-1.7892133 -0.70827,-2.8769697 C 20.192709,8.0783424 20.095256,7.7136915 20.034206,7.4813039 19.84006,6.7423571 19.526323,5.6852676 19.481225,5.6181118 c -0.0098,-0.014594 -0.06142,-0.00831 -0.184406,0.022443 -0.09395,0.02349 -0.186994,0.049863 -0.206775,0.05861 -0.01977,0.00874 -0.557628,0.1548755 -1.195222,0.3247358 -0.637596,0.1698602 -1.163077,0.3126493 -1.167736,0.3173097 -0.01775,0.017756 0.164916,1.7947027 0.224397,2.1829194 0.274484,1.7913563 0.860334,3.5642363 1.60547,4.8584443 0.248526,0.431672 0.68359,1.074869 0.727031,1.074869 0.0091,0 0.377781,-0.09407 0.819279,-0.209051 z M 19.16783,14.102339 C 18.55864,13.265384 18.047459,12.233788 17.700005,11.140178 17.373399,10.112165 17.124701,8.9859596 16.987334,7.912814 16.915531,7.351877 16.838555,6.5044684 16.854949,6.4553028 c 0.0075,-0.022335 0.250313,-0.092336 1.021468,-0.2944184 0.242276,-0.063489 0.58504,-0.1564583 0.7617,-0.2065976 0.176659,-0.050141 0.334972,-0.091163 0.351813,-0.091163 0.03514,0 0.175357,0.4290038 0.493614,1.5102987 0.103319,0.3510539 0.216457,0.7353714 0.251414,0.8540372 0.127117,0.4315339 0.423683,1.6591074 0.575527,2.3823153 0.202361,0.963803 0.42007,2.420719 0.470659,3.149705 l 0.01206,0.174058 -0.07846,0.02059 c -0.04315,0.01133 -0.280725,0.07602 -0.52795,0.143764 -0.520374,0.142593 -0.805225,0.215705 -0.840406,0.215705 -0.01363,0 -0.09399,-0.09507 -0.178573,-0.211262 z m 1.855036,-0.279994 c 0,-0.138154 -0.220124,-1.744316 -0.333914,-2.436407 C 20.461574,10.002904 19.980311,8.0976517 19.35802,6.1168608 19.304,5.9449187 19.262065,5.8022507 19.264822,5.7998213 c 0.0027,-0.00242 0.03055,-0.00989 0.06175,-0.016559 l 0.05671,-0.012145 0.05369,0.1403953 c 0.152219,0.3981212 0.237777,0.6964011 0.769957,2.6845278 0.05427,0.2027221 0.187037,0.7205384 0.295057,1.1507041 0.108011,0.4301645 0.227753,0.9013035 0.266087,1.0469745 0.03833,0.14567 0.06549,0.269057 0.06036,0.274191 -0.0052,0.0051 -0.02498,0.0093 -0.04406,0.0093 -0.03192,0 -0.03374,0.0091 -0.02256,0.112372 0.0067,0.06181 0.01929,0.140692 0.02794,0.175303 0.02437,0.09735 0.118545,0.674495 0.168665,1.033834 0.111814,0.801619 0.14971,1.50131 0.08132,1.50131 -0.0093,0 -0.01687,-0.03497 -0.01687,-0.07772 z m 0.327492,-2.7185 c 0.128505,-0.03482 0.247863,-0.07092 0.265249,-0.08022 0.04788,-0.02562 0.134193,-0.129963 0.160952,-0.194572 0.01482,-0.03579 0.03654,-0.05746 0.05758,-0.05746 0.04273,0 0.04446,-0.0669 0.0068,-0.263619 -0.03341,-0.174574 -0.03251,-0.181459 0.009,-0.06901 0.01917,0.05195 0.03376,0.141124 0.03457,0.211262 0.0012,0.06675 0.0041,0.121363 0.0073,0.121363 0.0032,0 0.288432,-0.082 0.63379,-0.182214 0.345349,-0.100218 0.806934,-0.228178 1.025743,-0.284357 l 0.397831,-0.102142 0.01068,0.100064 c 0.0059,0.05504 0.02597,0.14861 0.04473,0.207943 0.01875,0.05933 0.05129,0.164914 0.07235,0.234624 0.05575,0.184647 0.05638,0.185148 0.254277,0.202556 0.09394,0.0083 0.198729,0.0088 0.232839,0.0013 0.07405,-0.01642 0.130495,-0.08132 0.117929,-0.135562 -0.007,-0.02989 0.0054,-0.0472 0.05387,-0.07581 0.03456,-0.02039 0.06284,-0.031 0.06284,-0.02358 0,0.0074 0.02428,0.02783 0.05394,0.04536 0.05363,0.03168 0.05417,0.03158 0.09832,-0.0186 0.0534,-0.0607 0.05329,-0.05907 0.01246,-0.194295 l -0.03258,-0.107878 -0.0335,0.06293 -0.03349,0.06293 -0.01908,-0.06293 c -0.01046,-0.03461 -0.02631,-0.07411 -0.03509,-0.08777 -0.01046,-0.01626 -0.0074,-0.02981 0.009,-0.03922 0.01373,-0.0079 0.04001,-0.02556 0.05836,-0.03923 0.03183,-0.02371 0.0086,-0.113983 -0.507795,-1.9732014 -0.411324,-1.4809542 -0.550536,-1.9583745 -0.58031,-1.9900611 -0.02153,-0.022928 -0.03576,-0.04436 -0.0316,-0.04763 0.0042,-0.00325 0.06858,-0.051291 0.143158,-0.1067222 0.478429,-0.3555937 0.855548,-0.9730868 0.960417,-1.5725722 0.03559,-0.2034946 0.0353,-0.5631545 -0.0012,-0.769142 C 24.820563,3.6523439 24.706953,3.3127421 24.60232,3.1072244 24.47328,2.8537669 24.330273,2.6604584 24.106792,2.4374116 23.735316,2.0666399 23.3335,1.8471628 22.819347,1.7341893 c -0.211266,-0.046423 -0.699193,-0.046232 -0.916024,3.326e-4 -0.618594,0.1329007 -1.180678,0.4699518 -1.542655,0.9250542 -0.35269,0.4434232 -0.53621,0.9113395 -0.57247,1.4595656 -0.02138,0.3232702 0.07052,0.8202678 0.200459,1.0840238 0.03452,0.070061 0.06276,0.1417752 0.06276,0.1593631 0,0.019215 0.0095,0.028317 0.02389,0.022809 0.01509,-0.00579 0.03665,0.019132 0.05843,0.067568 0.01899,0.042205 0.06515,0.1254735 0.102581,0.1850388 0.06238,0.099286 0.04214,0.088145 -0.03684,-0.020277 -0.02957,-0.040606 -0.03734,-0.042767 -0.0814,-0.022691 -0.02794,0.012722 -0.0487,0.036676 -0.0487,0.056147 0,0.031731 -0.01563,0.033768 -0.238237,0.03104 -0.267914,-0.0033 -0.271632,-0.00124 -0.219738,0.1207482 0.04178,0.098222 0.155341,0.428796 0.230669,0.67151 0.134192,0.4323962 0.577108,2.0599016 0.732857,2.6929172 0.08935,0.3631682 0.197637,0.7897596 0.240619,0.9479812 0.04299,0.158221 0.09531,0.380721 0.116271,0.494443 0.06168,0.334654 0.12719,0.557371 0.16393,0.557371 0.01122,0 0.125548,-0.02849 0.254044,-0.0633 z m -0.208614,-0.165941 c -0.01533,-0.04697 -0.0485,-0.182494 -0.07372,-0.30116 -0.02522,-0.118666 -0.08575,-0.365438 -0.134498,-0.548382 C 20.884772,9.9054184 20.771773,9.4604207 20.682412,9.0994772 20.59306,8.7385337 20.443886,8.1762173 20.350933,7.8498849 20.25797,7.523553 20.156503,7.151372 20.125435,7.0228171 c -0.03107,-0.1285558 -0.06085,-0.2478962 -0.06618,-0.265201 -0.0088,-0.028296 0.0054,-0.031313 0.139835,-0.029988 0.08224,8.251e-4 0.25402,0.010928 0.381736,0.022474 l 0.232189,0.020994 0.09546,0.2876756 c 0.08735,0.2632661 0.101801,0.2933968 0.170162,0.3551001 0.04109,0.037084 0.08815,0.067424 0.104558,0.067424 0.01642,0 0.0619,0.016595 0.101075,0.036872 0.0548,0.028369 0.08952,0.034232 0.150574,0.025429 0.111537,-0.01609 1.068008,-0.2688975 1.528216,-0.4039305 0.366775,-0.107618 0.386087,-0.111394 0.409043,-0.080001 0.03407,0.046599 0.03562,1.596858 0.0015,1.6264142 -0.01237,0.010747 -0.0508,0.034139 -0.0854,0.051981 -0.1015,0.052325 -0.143841,0.1310008 -0.143841,0.267288 v 0.1163137 l 0.124242,0.1237526 c 0.06834,0.068065 0.132941,0.1237532 0.143575,0.1237532 0.02011,0 0.03179,0.015878 0.206464,0.2804265 0.05812,0.088043 0.137014,0.1976089 0.175305,0.2434813 0.03828,0.045871 0.0696,0.091408 0.0696,0.1011903 0,0.00978 0.0182,0.030024 0.04046,0.044984 0.02225,0.01496 0.03641,0.03055 0.03146,0.03465 -0.005,0.0041 -0.130356,0.0371 -0.278687,0.07335 -0.3018,0.07374 -1.381799,0.37035 -1.542001,0.423486 l -0.103629,0.03437 -0.0072,-0.03812 c -0.03416,-0.183031 -0.123985,-0.498186 -0.179962,-0.6314501 -0.02494,-0.059333 -0.04552,-0.1170738 -0.04575,-0.1283119 0,-0.011237 0.03743,-0.02611 0.0837,-0.033051 0.102849,-0.015425 0.782227,-0.2053439 0.802341,-0.2242938 0.01243,-0.011717 -0.179962,-0.7483613 -0.216926,-0.830526 -0.01167,-0.025965 -0.08649,-0.00831 -0.621363,0.1466094 -0.334449,0.09687 -0.61199,0.1800272 -0.616758,0.1847959 -0.0048,0.00474 0.03915,0.1936571 0.0976,0.4197527 0.106106,0.410465 0.106342,0.4110828 0.155618,0.4110828 0.04592,0 0.05372,0.011851 0.112389,0.170807 0.08615,0.233432 0.167012,0.515977 0.167012,0.583565 0,0.04126 -0.02567,0.08682 -0.0981,0.174082 -0.09797,0.118041 -0.09833,0.118255 -0.269443,0.165727 -0.09424,0.02614 -0.178892,0.04753 -0.188126,0.04753 -0.0092,0 -0.02933,-0.03843 -0.04464,-0.0854 z m 3.074323,-0.134847 c -0.02195,-0.03413 -0.05988,-0.186061 -0.07071,-0.28318 -0.0018,-0.01753 0.01587,-0.0291 0.05094,-0.03306 0.02966,-0.0034 0.06404,-0.01446 0.07641,-0.02468 0.01745,-0.01443 0.02249,9.79e-4 0.02259,0.06902 0,0.08521 0.01702,0.131705 0.09228,0.253454 l 0.0364,0.0589 h -0.09095 c -0.07462,0 -0.09561,-0.0073 -0.116952,-0.04046 z m 0.306864,-0.136201 c -0.05889,-0.06147 -0.08577,-0.146318 -0.06776,-0.213862 0.02963,-0.111123 0.204574,-0.123925 0.295955,-0.02166 0.0429,0.04801 0.04969,0.06825 0.04108,0.122473 -0.01282,0.08063 -0.0993,0.163844 -0.1703,0.163844 -0.03172,0 -0.06827,-0.01876 -0.09897,-0.0508 z m 0.168989,-0.03973 c 0.07597,-0.04066 0.01702,-0.197145 -0.07428,-0.197145 -0.0968,0 -0.131747,0.0692 -0.08584,0.169961 0.02271,0.04987 0.09486,0.06211 0.160118,0.02718 z m 0.196588,0.0505 c 0,-0.05668 0.02736,-0.0802 0.04373,-0.03758 0.0065,0.01695 0,0.04211 -0.01609,0.05769 -0.02486,0.02485 -0.02764,0.02283 -0.02764,-0.02011 z m -3.151797,-0.534074 c -0.07838,-0.2298672 -0.08714,-0.2992364 -0.0146,-0.115388 0.05193,0.131593 0.09835,0.293452 0.08732,0.30448 -0.0034,0.0034 -0.03611,-0.0817 -0.07272,-0.189092 z m 2.594427,0.151964 c 0,-0.111047 -0.04512,-0.183107 -0.226384,-0.3616091 C 23.964161,9.7954576 23.900842,9.7169291 23.837546,9.6024987 23.791917,9.5200164 23.719106,9.4145932 23.675729,9.3682236 23.559448,9.243913 23.557044,9.2140907 23.619111,8.6679635 c 0.02739,-0.2409925 0.02749,-0.3144084 0.0012,-0.9709058 -0.02688,-0.6686004 -0.03087,-0.7144114 -0.06805,-0.7821185 -0.03438,-0.062588 -0.05072,-0.074088 -0.12592,-0.088645 -0.07112,-0.013769 -0.110853,-0.0095 -0.224537,0.024129 -0.07596,0.022474 -0.486027,0.1348572 -0.911246,0.2497475 -0.675105,0.1824082 -0.791259,0.2089847 -0.916163,0.2096087 -0.142955,7.736e-4 -0.143072,6.189e-4 -0.184409,-0.06054 -0.05103,-0.075583 -0.117209,-0.2817672 -0.159228,-0.4961183 -0.01745,-0.088999 -0.03918,-0.166778 -0.0483,-0.1728411 -0.0091,-0.00606 -0.0907,-0.016544 -0.181297,-0.023294 -0.153291,-0.011423 -0.82679,-0.097235 -0.829678,-0.1057145 -0.0012,-0.00206 -0.04397,-0.1292119 -0.09615,-0.2824903 -0.05217,-0.1532769 -0.09942,-0.2968897 -0.104996,-0.3191389 -0.01004,-0.040224 -0.009,-0.040457 0.199957,-0.040457 h 0.210089 l 0.192059,0.1948732 c 0.105625,0.1071801 0.252738,0.2397378 0.326902,0.294572 0.352724,0.2607851 0.755586,0.4322008 1.193513,0.5078254 0.186771,0.032252 0.618294,0.036615 0.80778,0.00815 0.291456,-0.043767 0.660153,-0.1555792 0.884264,-0.2681633 0.07799,-0.039183 0.144599,-0.068447 0.148019,-0.065032 0.007,0.00703 0.0388,0.1237486 0.220817,0.8110957 0.07071,0.2669993 0.18506,0.6917702 0.254126,0.9439364 0.06906,0.2521652 0.205418,0.7709046 0.303009,1.152754 0.0976,0.3818499 0.18974,0.7236893 0.204768,0.7596443 l 0.0273,0.06537 h -0.107539 c -0.10991,0 -0.214725,0.03251 -0.272038,0.08438 -0.02969,0.02688 -0.03212,0.02665 -0.03212,-0.0031 z M 23.432149,9.239496 c 0,-0.01199 -0.02225,-0.040018 -0.04943,-0.062282 l -0.04945,-0.040482 0.05844,-6.189e-4 c 0.03498,-4.233e-4 0.05853,0.00838 0.05868,0.02183 0,0.012361 0.0052,0.040678 0.01107,0.062929 0.0065,0.024274 0.0027,0.040456 -0.0092,0.040456 -0.01104,0 -0.02008,-0.00981 -0.02008,-0.021799 z M 23.311615,9.0598896 c -0.03386,-0.042726 -0.01058,-0.1636996 0.04002,-0.2076346 0.06182,-0.053713 0.105232,-0.054031 0.08828,-6.188e-4 -0.007,0.021891 -0.0176,0.080552 -0.02368,0.1303536 -0.009,0.073764 -0.01802,0.091541 -0.04859,0.09591 -0.02065,0.00294 -0.04586,-0.00516 -0.05603,-0.017982 z M 22.083671,6.6179045 c -0.787165,-0.077608 -1.468553,-0.5192299 -1.807042,-1.1711706 -0.04446,-0.085627 -0.08083,-0.1685575 -0.08083,-0.184293 0,-0.015734 -0.01255,-0.028606 -0.02791,-0.028606 -0.0419,0 -0.127589,-0.1995072 -0.190199,-0.4428658 -0.271494,-1.0552122 0.285598,-2.2030552 1.318287,-2.7161942 0.377675,-0.1876663 0.674228,-0.2495805 1.118535,-0.2335216 0.633449,0.022897 1.149238,0.2332266 1.586159,0.64681 0.363881,0.3444422 0.555789,0.6750941 0.691145,1.1908492 0.138072,0.5261015 0.07094,1.1093363 -0.186383,1.6190892 -0.205363,0.4068452 -0.558707,0.779804 -0.956408,1.0095218 -0.389785,0.2251498 -1.005995,0.355671 -1.465348,0.3103829 z m 0.548385,-0.1258546 c 0.227804,-0.031917 0.713521,-0.1629659 0.840553,-0.2267871 0.09685,-0.048661 0.121357,-0.069308 0.121357,-0.1022311 0,-0.030225 0.03246,-0.064874 0.121369,-0.1295774 0.62117,-0.4520535 0.984727,-1.2616324 0.904407,-2.0139852 C 24.595128,3.7887838 24.580018,3.7178469 24.508215,3.495603 24.294431,2.8338929 23.720687,2.255648 23.057456,2.0334434 22.808951,1.950186 22.584799,1.9205823 22.281448,1.9309576 21.90573,1.9438088 21.676767,1.99907 21.33751,2.1587823 c -0.686111,0.3230093 -1.149289,0.9422594 -1.277274,1.7076569 -0.03684,0.2202645 -0.02773,0.6773332 0.0179,0.8999199 0.04501,0.219504 0.183124,0.4784768 0.408837,0.7665465 0.04752,0.060656 0.08641,0.1224041 0.08641,0.137217 0,0.043324 0.335272,0.3514897 0.497342,0.4571362 0.292514,0.1906697 0.659238,0.3214126 1.039927,0.3707557 0.110871,0.014373 0.399848,0.011062 0.521411,-0.00596 z M 22.083671,6.2403886 c -0.241036,-0.0335 -0.488688,-0.1085406 -0.68886,-0.2087305 -0.118705,-0.05941 -0.3949,-0.2414685 -0.383553,-0.2528175 0.0047,-0.00474 0.07197,0.00402 0.149444,0.019488 0.236011,0.047063 0.868692,0.1497073 1.393147,0.2260239 0.273428,0.039786 0.516058,0.079337 0.539171,0.087886 0.03709,0.013723 0.02948,0.019194 -0.0651,0.046686 -0.278705,0.081021 -0.691306,0.116617 -0.944247,0.081462 z m 1.258582,-0.090501 c 0.0777,-0.062355 0.107881,-0.075423 0.107881,-0.046722 0,0.014053 -0.02751,0.03861 -0.06115,0.054572 -0.08242,0.039105 -0.101298,0.035934 -0.04673,-0.00785 z M 23.108516,5.9961837 c -0.08405,-0.013805 -0.379374,-0.065277 -0.656265,-0.114385 -0.483684,-0.085785 -0.745306,-0.1276059 -1.429385,-0.2284853 -0.203558,-0.030019 -0.324169,-0.055937 -0.341609,-0.073413 -0.02401,-0.024021 -0.02014,-0.025739 0.03492,-0.015486 0.08458,0.01575 0.702944,0.098278 1.628202,0.2173174 1.138904,0.1465248 1.222677,0.1620108 1.176626,0.2174947 -0.02718,0.032767 -0.202318,0.031473 -0.412492,-0.00304 z"
   id="path3408" /></svg>
