<?xml version="1.0" encoding="UTF-8" standalone="no"?>
<!-- Generator: Adobe Illustrator 16.0.0, SVG Export Plug-In . SVG Version: 6.00 Build 0)  -->

<svg
   version="1.1"
   x="0px"
   y="0px"
   width="93.25px"
   height="32px"
   viewBox="0 0 93.25 32"
   enable-background="new 0 0 93.25 32"
   xml:space="preserve"
   id="svg3631"
   sodipodi:docname="g3sg1.svg"
   inkscape:version="1.1.1 (3bf5ae0d25, 2021-09-20)"
   xmlns:inkscape="http://www.inkscape.org/namespaces/inkscape"
   xmlns:sodipodi="http://sodipodi.sourceforge.net/DTD/sodipodi-0.dtd"
   xmlns="http://www.w3.org/2000/svg"
   xmlns:svg="http://www.w3.org/2000/svg"><defs
   id="defs3635" /><sodipodi:namedview
   id="namedview3633"
   pagecolor="#505050"
   bordercolor="#eeeeee"
   borderopacity="1"
   inkscape:pageshadow="0"
   inkscape:pageopacity="0"
   inkscape:pagecheckerboard="0"
   showgrid="false"
   inkscape:zoom="11.957105"
   inkscape:cx="47.795852"
   inkscape:cy="17.479148"
   inkscape:window-width="1440"
   inkscape:window-height="848"
   inkscape:window-x="1358"
   inkscape:window-y="-8"
   inkscape:window-maximized="1"
   inkscape:current-layer="svg3631" />

<g
   id="guides">
</g>
<path
   style="fill:#ffffff;stroke-width:0.0480884"
   d="m 43.469131,29.590252 c 0.277713,-0.04648 0.905265,-0.143648 1.394561,-0.215921 0.489298,-0.07227 1.225044,-0.203358 1.634997,-0.291297 0.409957,-0.08794 1.059147,-0.217589 1.442649,-0.288112 0.3835,-0.07052 0.877294,-0.172819 1.097314,-0.227324 0.565495,-0.140092 0.560474,-0.129013 0.520363,-1.149164 -0.01768,-0.449548 -0.07462,-1.35172 -0.12658,-2.004822 -0.05194,-0.653103 -0.159339,-1.998948 -0.238655,-2.990768 -0.07931,-0.991819 -0.188469,-2.365941 -0.242535,-3.053603 -0.05408,-0.687661 -0.10812,-1.309803 -0.120113,-1.382536 l -0.0218,-0.132243 h 2.475343 2.475335 v 0.146653 c 0,0.23825 0.129633,0.429341 0.360559,0.531485 0.207014,0.09157 0.212218,0.09156 0.44724,-0.0011 0.279791,-0.110284 0.676283,-0.166969 1.885151,-0.269511 0.900573,-0.07639 1.542046,-0.159395 2.229397,-0.288477 0.32096,-0.06027 1.316716,-0.07099 6.600102,-0.07099 h 6.22211 v 0.206214 c 0,0.18606 0.0215,0.224196 0.22011,0.390199 0.194646,0.162703 0.263263,0.189202 0.593119,0.229083 0.205165,0.0248 0.511878,0.03856 0.681554,0.03057 l 0.308527,-0.01453 0.01438,-0.276036 0.01438,-0.276036 1.596555,0.02074 c 1.213463,0.01576 1.67155,0.03856 1.909111,0.095 0.414941,0.09858 1.273737,0.100489 1.460179,0.0032 0.07575,-0.03951 0.167724,-0.07184 0.204367,-0.07184 0.05408,0 0.06664,-0.149311 0.06664,-0.793457 v -0.793455 h 0.314633 c 0.29409,0 0.331775,-0.01294 0.577053,-0.198131 0.259583,-0.195975 0.262419,-0.200889 0.262419,-0.451511 0,-0.177414 0.02744,-0.287258 0.09152,-0.366377 0.09007,-0.111226 0.105887,-0.11305 1.008969,-0.11635 0.894569,-0.0033 0.920508,-0.0062 1.037752,-0.116333 0.06616,-0.06214 0.132921,-0.152838 0.14838,-0.201552 0.02684,-0.08461 0.145531,-0.08857 2.655069,-0.08857 h 2.626959 l 0.13391,0.128293 0.133911,0.128293 2.585712,0.004 2.585693,0.004 0.150359,-0.107252 c 0.250132,-0.178414 0.326604,-0.401814 0.31954,-0.93353 -0.0053,-0.403042 -0.106599,-1.190402 -0.186322,-1.44897 -0.02486,-0.08078 -0.168048,-0.08399 -2.679577,-0.06006 -1.459301,0.01391 -3.883278,0.0366 -5.386615,0.05043 l -2.733374,0.02515 -0.165614,-0.145422 c -0.143717,-0.126185 -0.20264,-0.145424 -0.445312,-0.145424 -0.333622,0 -0.566566,0.0726 -0.633363,0.197411 -0.0335,0.06258 -0.101066,0.09112 -0.215784,0.09112 -0.150438,0 -0.161505,-0.0088 -0.111486,-0.08892 0.07501,-0.120106 0.02493,-0.290986 -0.149812,-0.510817 -0.143539,-0.180615 -0.145353,-0.19018 -0.14621,-0.765369 -0.0013,-0.702393 -0.08822,-1.292524 -0.281394,-1.904895 -0.07927,-0.251262 -0.167697,-0.597497 -0.196512,-0.769413 -0.02882,-0.171914 -0.062,-0.356706 -0.07372,-0.410647 -0.02744,-0.126302 -0.742633,-0.430169 -0.912244,-0.387599 -0.52431,0.131594 -0.793746,0.376733 -0.938737,0.854074 -0.09738,0.320645 -0.101573,0.386006 -0.05467,0.854982 0.0279,0.279286 0.08387,0.633278 0.12438,0.786648 0.04049,0.153369 0.07364,0.299437 0.07364,0.324595 0,0.02854 -1.424524,0.04575 -3.788702,0.04575 H 70.51522 L 70.336152,10.68991 c -0.09851,-0.131927 -0.215328,-0.315865 -0.259616,-0.408749 l -0.08053,-0.168883 h -0.852221 -0.85222 l -0.210455,0.234075 -0.210461,0.234076 -0.960145,0.02618 c -0.85468,0.0233 -1.099083,0.05043 -2.225102,0.246915 L 63.42036,11.07426 52.897402,11.06213 42.37446,11.05 42.592799,10.665295 c 0.120086,-0.211589 0.252767,-0.412195 0.294826,-0.445793 0.153611,-0.122664 0.89119,-0.549778 1.527316,-0.88443 0.571065,-0.300421 0.669364,-0.370179 0.790288,-0.560846 0.07595,-0.119763 0.15106,-0.295079 0.166916,-0.389591 0.05963,-0.355387 -0.03191,-0.325998 1.091748,-0.350594 0.998457,-0.02186 1.03248,-0.01937 1.573538,0.114994 0.503723,0.125093 0.677314,0.142054 1.947569,0.190292 1.434924,0.05449 4.197744,0.02422 4.802457,-0.0526 0.275977,-0.03507 0.356282,-0.0672 0.488774,-0.195617 0.447767,-0.4339928 0.72878,-1.7112546 0.602683,-2.7392696 C 55.75271,4.3231427 55.617446,4.0549958 55.162331,3.9313194 55.012535,3.8906134 54.727688,3.8094053 54.529311,3.7508545 54.193355,3.6516888 54.078124,3.644713 52.846237,3.6489557 c -1.65074,0.00567 -3.8463,0.1837988 -5.433972,0.4408275 C 46.749039,4.1971521 45.205097,4.1917914 44.238434,4.0787691 43.854935,4.0339279 43.378863,3.9872453 43.180504,3.9750335 42.533262,3.9351783 42.519709,3.9300868 42.391198,3.6782334 42.246769,3.395166 42.043674,3.1996059 41.830724,3.1385331 c -0.0904,-0.025926 -0.545645,-0.047143 -1.011638,-0.047143 h -0.847271 l -0.186949,0.1484053 c -0.190697,0.1513857 -0.451422,0.519933 -0.451422,0.6381082 0,0.1273519 -0.701073,0.1714136 -3.534491,0.2221437 -1.560465,0.027938 -3.042782,0.062404 -3.294041,0.076601 -0.339223,0.019159 -0.679691,-0.00495 -1.322427,-0.093492 -0.667897,-0.092049 -1.162126,-0.1253786 -2.163974,-0.1459328 -1.410517,-0.02894 -4.10165,-0.180389 -5.221897,-0.2938744 -0.513433,-0.05201 -1.322769,-0.071075 -3.017538,-0.071075 -2.274866,0 -2.315934,0.00171 -2.315934,0.095068 0,0.052287 -0.05397,0.1304345 -0.11994,0.1736612 -0.153783,0.1007578 -0.252281,0.4290865 -0.293824,0.9794705 -0.02678,0.354872 0.06357,3.7482342 0.100944,3.7910272 0.0068,0.0077 0.518069,0.0434 1.136315,0.07932 0.936535,0.05442 1.184258,0.05467 1.484742,0.0015 0.289717,-0.05124 0.828924,-0.05547 2.741032,-0.02152 4.54167,0.08065 4.429385,0.08141 5.097351,-0.03466 0.70829,-0.123081 2.013626,-0.277188 2.048916,-0.241894 0.01354,0.01355 0.07527,0.229142 0.137166,0.479098 0.143578,0.579797 0.260539,0.806314 0.609588,1.180548 l 0.281977,0.30231 v 0.31081 c 0,0.309822 -9.89e-4,0.310814 -0.137372,0.310814 -0.132997,0 -0.141829,-0.01564 -0.278141,-0.492904 L 31.131121,9.992019 30.726404,9.958359 C 30.435278,9.934149 30.260281,9.891519 30.102895,9.806461 29.735576,9.607963 29.53921,9.575914 29.147568,9.650538 c -0.296409,0.05648 -0.39813,0.10499 -0.70601,0.336723 -0.34379,0.258753 -0.74465,0.696331 -0.746209,0.814555 -0.0023,0.158746 -0.09071,0.179036 -1.084753,0.24835 -0.553489,0.03859 -1.406684,0.09163 -1.895983,0.117867 -1.128847,0.06052 -1.458962,0.146236 -1.838723,0.477433 -0.08631,0.07528 -0.503174,0.348229 -0.926348,0.606561 -0.77035,0.470266 -1.370469,0.861192 -1.731179,1.127704 -0.170632,0.126076 -0.244812,0.145809 -0.656968,0.17477 -0.25554,0.01795 -0.520099,0.01872 -0.587913,0.0017 -0.08839,-0.02219 -0.253606,-0.214482 -0.583787,-0.679513 l -0.460498,-0.648566 -1.091516,3.78e-4 c -1.782246,6.11e-4 -7.9148353,0.181584 -9.8435792,0.290484 -0.9456862,0.0534 -1.1318132,0.08734 -1.3708539,0.250032 -0.2323293,0.158122 -0.3274231,0.30936 -0.4789493,0.761749 l -0.1354832,0.404494 -0.2576539,0.01055 c -3.119987,0.127691 -3.89254563,0.205495 -4.12140986,0.415065 -0.0620812,0.05685 -0.15691253,0.189256 -0.21073384,0.294239 -0.0538239,0.104983 -0.1386575,0.246067 -0.18852759,0.313521 -0.079192,0.107115 -0.0845269,0.15601 -0.0421108,0.386181 0.026724,0.144946 0.15982302,0.490018 0.29580548,0.766827 l 0.24723665,0.503289 0.0332533,1.564506 c 0.0447291,2.104549 -0.0312879,3.607581 -0.22990562,4.545976 -0.0783728,0.370278 -0.15722844,0.803889 -0.17523219,0.963577 -0.0442344,0.392309 0.0542131,1.240843 0.17709536,1.526492 0.12151245,0.282466 0.46107945,0.592169 0.72966361,0.665497 0.4282865,0.116917 2.141341,-0.08954 3.2370002,-0.390125 0.1910826,-0.05242 1.468049,-0.530524 2.837715,-1.062448 1.3696569,-0.531926 2.9663678,-1.151082 3.5482378,-1.375904 0.933488,-0.360681 5.369368,-2.109133 8.295219,-3.269654 0.568641,-0.225548 1.239475,-0.506377 1.490734,-0.624064 0.818341,-0.3833 0.666221,-0.36994 4.409333,-0.387219 l 3.327347,-0.01536 0.161623,0.141912 c 0.32669,0.286834 0.56361,0.886766 0.56465,1.429829 9.9e-4,0.478433 -0.150331,0.875459 -0.506512,1.329521 -0.170286,0.217085 -0.412583,0.529541 -0.538431,0.694347 -0.169866,0.22245 -0.275981,0.314441 -0.411878,0.357069 -0.10068,0.03158 -0.225217,0.116634 -0.276755,0.189005 -0.05153,0.07237 -0.414517,0.7881 -0.806631,1.590506 -0.392113,0.802405 -0.771778,1.528254 -0.843708,1.612997 l -0.130784,0.154076 0.19472,0.09934 c 0.107088,0.05464 0.416537,0.285333 0.687663,0.512667 1.231587,1.03263 2.965848,2.133437 3.361139,2.133437 0.281126,0 0.671177,-0.63325 1.63445,-2.653554 0.336464,-0.705673 0.691431,-1.506342 0.788813,-1.779266 0.218074,-0.611151 0.556578,-1.316886 0.717263,-1.49539 l 0.120229,-0.133578 0.181494,0.112875 c 0.09982,0.06208 0.322144,0.178674 0.494068,0.259096 0.171914,0.08042 0.439465,0.245606 0.594557,0.367072 0.390299,0.305675 0.59178,0.340666 1.76176,0.305964 0.955728,-0.02835 1.401607,-0.09124 1.9569,-0.276029 0.369659,-0.123014 0.660844,-0.399931 0.87239,-0.829651 0.183546,-0.372831 0.777333,-2.072439 0.777333,-2.224972 0,-0.06586 0.04266,-0.135546 0.102631,-0.167639 0.130017,-0.06958 0.666779,-0.120445 0.666779,-0.06318 0,0.0236 -0.04175,0.188871 -0.09277,0.367281 l -0.09276,0.324383 0.114745,0.0288 c 0.184943,0.04642 0.224359,0.0087 0.384407,-0.368202 l 0.151933,-0.357757 0.320237,-0.01422 c 0.260401,-0.01156 0.320232,-5.87e-4 0.320232,0.05871 0,0.395652 0.310246,5.111959 0.435184,6.615729 0.126628,1.523996 0.216809,2.136695 0.350344,2.380367 0.09734,0.177611 0.121953,0.192914 0.321159,0.199674 0.118658,0.004 0.442956,-0.03071 0.720669,-0.07719 z M 28.814528,27.903255 c -1.098997,-0.744864 -2.428624,-1.703193 -2.483482,-1.789974 -0.02963,-0.04687 0.03387,-0.197251 0.207125,-0.490586 0.137415,-0.232651 0.402635,-0.728609 0.589358,-1.102125 0.571065,-1.14229 0.677804,-1.303386 0.965877,-1.457768 0.219849,-0.117813 0.306271,-0.214746 0.677735,-0.760178 0.499922,-0.734043 0.6661,-1.063017 0.801638,-1.586912 0.07509,-0.290258 0.09166,-0.455542 0.06752,-0.673235 -0.08076,-0.728035 -0.442606,-1.377508 -0.874707,-1.569984 -0.125326,-0.05582 -0.260317,-0.117138 -0.299988,-0.136256 -0.157627,-0.07596 -0.108099,-0.235684 0.154501,-0.498289 0.328488,-0.328489 0.617738,-0.433935 1.120675,-0.408538 0.301916,0.01525 0.385222,0.03974 0.564122,0.165834 0.115437,0.08137 0.273286,0.163856 0.350765,0.183302 0.137444,0.0345 0.136315,0.03174 -0.04655,-0.113585 -0.240411,-0.191051 -0.635656,-0.305717 -1.061535,-0.307962 -0.424524,-0.0022 -0.649297,0.107184 -1.085832,0.52861 l -0.316424,0.30547 h -2.585645 -2.58564 l -0.127489,-0.133987 c -0.149545,-0.157161 -0.961801,-0.648388 -1.264229,-0.764566 -0.145239,-0.05579 -0.35762,-0.08077 -0.690619,-0.08121 -0.41813,-5.55e-4 -0.521675,0.01666 -0.793453,0.131954 -0.365643,0.155104 -4.35851,1.717736 -7.694125,3.011142 -1.282751,0.497395 -2.8408116,1.103474 -3.4623499,1.346841 -2.5259299,0.98904 -4.6735185,1.750343 -4.8128546,1.70612 -0.045798,-0.01453 -0.092742,-0.05265 -0.1043279,-0.08471 -0.039354,-0.108881 0.1302591,-6.210979 0.2061264,-7.41578 0.067218,-1.067344 0.085972,-1.17779 0.2077521,-1.223484 0.3337421,-0.125222 0.6218272,-0.196573 0.9061312,-0.224418 0.3020763,-0.02959 0.3229147,-0.03933 0.3366216,-0.157404 l 0.014582,-0.125866 7.0689671,-0.02404 7.06898,-0.02404 0.27093,-0.139527 c 0.149014,-0.07674 0.301718,-0.127713 0.339343,-0.113275 0.03763,0.01444 0.106644,0.163784 0.153372,0.33188 0.178035,0.6405 0.423993,0.985331 0.894371,1.253928 0.321486,0.183572 0.561247,0.192625 1.139109,0.04301 0.386993,-0.100197 0.462391,-0.101679 5.172318,-0.101679 5.243,0 5.00657,-0.01328 4.905893,0.275546 -0.05893,0.169062 -0.02359,0.238191 0.330729,0.646497 0.122233,0.140866 0.256695,0.323844 0.298797,0.406619 0.0421,0.08278 0.150263,0.193994 0.240362,0.247154 0.09011,0.05316 0.204505,0.155409 0.254219,0.22722 0.183993,0.265732 0.757918,0.868477 0.902661,0.948 0.251798,0.138332 0.363049,0.109749 0.640906,-0.16465 0.242029,-0.239022 0.253971,-0.262614 0.253971,-0.501542 v -0.250725 l -0.492904,-0.426346 c -0.658446,-0.569532 -0.992284,-0.836042 -1.257204,-1.003643 -0.254983,-0.161316 -0.294031,-0.228559 -0.191984,-0.330608 0.06465,-0.06465 0.502646,-0.07352 3.627642,-0.07352 h 3.55412 l 0.09408,0.184405 c 0.05174,0.101424 0.125428,0.334051 0.163748,0.51695 0.07805,0.372509 0.03063,0.537014 -0.147337,0.510991 -0.07339,-0.01074 -0.118543,0.04064 -0.197983,0.225311 -0.198453,0.461324 -0.08693,0.802841 0.322461,0.98745 0.1823,0.08221 0.199507,0.08262 0.275443,0.0067 0.04455,-0.04455 0.110667,-0.06961 0.146935,-0.0557 0.09436,0.03621 0.08414,-0.124965 -0.03481,-0.549706 -0.190176,-0.679054 -0.03522,-1.378147 0.410142,-1.850373 l 0.159585,-0.169208 2.590684,0.01245 2.590695,0.01244 0.111893,0.216397 c 0.09536,0.184408 0.108194,0.264635 0.08681,0.542713 -0.03168,0.411997 -0.177102,0.689191 -0.439275,0.837316 -0.10572,0.05973 -0.560099,0.2743 -1.009717,0.476826 -0.449624,0.202526 -1.227703,0.560975 -1.729064,0.796554 -0.501354,0.235579 -1.154688,0.525602 -1.45186,0.644496 -0.519185,0.207721 -0.546803,0.213456 -0.706509,0.146726 -0.09142,-0.03819 -0.191493,-0.10934 -0.222401,-0.158103 -0.04719,-0.07443 -0.05171,-0.06207 -0.02829,0.07703 0.05658,0.335646 0.128038,0.53159 0.193899,0.53159 0.0371,0 0.08082,-0.02164 0.09716,-0.04809 0.06299,-0.101917 0.125633,-0.04106 0.111251,0.108057 -0.01175,0.121601 -0.04925,0.172214 -0.169552,0.228776 -0.08497,0.03995 -0.185963,0.115749 -0.224437,0.168451 -0.06469,0.0886 -0.145392,0.09805 -1.071773,0.1254 -0.656984,0.0194 -1.068018,0.05252 -1.194163,0.09621 l -0.192358,0.06663 -0.02884,0.360631 c -0.04289,0.536391 -0.58851,1.923733 -0.941158,2.39306 -0.246437,0.327983 -0.91997,0.550722 -1.928085,0.63762 -0.654593,0.05642 -1.237586,0.02686 -1.487439,-0.07544 -0.08456,-0.03462 -0.279697,-0.14848 -0.433624,-0.253013 -0.153937,-0.104534 -0.49405,-0.281217 -0.755822,-0.392631 -0.261771,-0.111413 -0.535553,-0.246647 -0.608425,-0.300518 -0.192743,-0.142506 -0.339627,-0.0858 -0.524653,0.202542 -0.085,0.132467 -0.184759,0.240849 -0.221674,0.240849 -0.03691,0 -0.0684,0.02705 -0.06996,0.06011 -0.02019,0.42789 -0.166099,0.789546 -0.562758,1.395037 -0.134458,0.205239 -0.259409,0.443276 -0.27767,0.52897 -0.05541,0.260077 -0.476842,1.369953 -0.758585,1.997851 -0.431193,0.960967 -0.83912,1.592141 -1.030692,1.59478 -0.06033,7.92e-4 -0.484415,-0.253691 -0.961763,-0.57722 z m 1.300331,-0.415962 c 0.388807,-0.76525 0.83202,-1.797851 1.066826,-2.485489 0.109382,-0.320321 0.261316,-0.646183 0.392384,-0.841545 0.314236,-0.468381 0.469302,-0.814743 0.401402,-0.896561 -0.03011,-0.03627 -0.223725,-0.122227 -0.430277,-0.191014 -0.407206,-0.135613 -0.530914,-0.232102 -0.530914,-0.4141 0,-0.101504 -0.06196,-0.145776 -0.458922,-0.327861 -0.252405,-0.115781 -0.477622,-0.245208 -0.500487,-0.287614 -0.02287,-0.04241 -0.129659,-0.169492 -0.237322,-0.282413 l -0.195758,-0.205311 -0.07291,0.174504 c -0.0401,0.09598 -0.176733,0.307385 -0.303636,0.469796 -0.126898,0.16241 -0.342536,0.457812 -0.479177,0.656448 -0.237655,0.345464 -0.447142,0.528476 -0.604941,0.528476 -0.04217,0 -0.127901,0.117313 -0.202081,0.276508 -0.352736,0.757033 -0.915325,1.810555 -1.187677,2.224081 -0.07885,0.119717 -0.07793,0.121175 0.218453,0.348714 0.667771,0.512665 2.520158,1.759763 2.732934,1.839914 0.06258,0.02358 0.144005,-0.09822 0.392107,-0.586533 z m 6.501703,-4.324023 c 0.70661,-0.08823 1.25463,-0.240113 1.436023,-0.397995 0.240743,-0.209545 1.043172,-2.090225 1.036895,-2.430243 -0.0034,-0.188456 -0.0091,-0.180859 -0.139931,0.188326 -0.207663,0.586052 -0.744691,1.63172 -0.900015,1.752471 -0.84333,0.655612 -1.510442,0.777686 -2.642956,0.483633 -0.305597,-0.07935 -0.602543,-0.144265 -0.659895,-0.144265 -0.05735,0 -0.3462,-0.119018 -0.641891,-0.264485 -0.295691,-0.145467 -0.558477,-0.264486 -0.583982,-0.264486 -0.07263,0 -0.621933,-0.628945 -0.708342,-0.811041 -0.102217,-0.215412 -0.07153,-0.645502 0.06474,-0.906917 l 0.102885,-0.197394 -0.783286,-0.01611 c -0.553205,-0.01138 -0.80545,-0.03454 -0.858765,-0.07886 -0.115258,-0.0958 -0.446672,-0.676951 -0.540119,-0.9471 -0.04573,-0.132242 -0.09418,-0.391919 -0.107645,-0.577058 -0.02653,-0.364708 -0.103914,-0.504927 -0.278663,-0.504927 -0.05878,0 -0.135007,-0.03389 -0.169379,-0.0753 -0.157628,-0.189929 -0.540905,-0.286333 -0.833401,-0.209621 -0.20525,0.05383 -0.55853,0.267821 -0.55853,0.338318 0,0.02217 0.06391,0.07336 0.142025,0.113756 0.563789,0.291545 1.00095,1.282252 0.954695,2.163535 -0.01184,0.225689 -0.01504,0.410346 -0.0071,0.410346 0.008,0 0.05716,-0.08374 0.109376,-0.186086 0.07866,-0.154181 0.131952,-0.195404 0.3108,-0.240441 0.324242,-0.08164 0.741276,-0.06334 1.038875,0.04561 0.145461,0.05325 0.36286,0.125162 0.483099,0.159799 0.434499,0.125174 0.526752,0.249346 0.526752,0.709027 0,0.248912 0.01971,0.221305 -0.648662,0.909076 l -0.165913,0.170731 0.315896,0.155778 c 0.354599,0.174857 0.381238,0.168217 0.553274,-0.137874 0.11454,-0.203801 0.25874,-0.287233 0.496437,-0.287233 0.209653,0 1.486747,0.58253 1.901468,0.867331 l 0.312574,0.214654 0.649191,0.0065 c 0.357058,0.0036 0.714114,-0.0016 0.793455,-0.01148 z M 5.3832476,22.68333 c 1.6504924,-0.600578 2.8798172,-1.06058 4.616467,-1.727447 2.1003784,-0.806533 7.9007274,-3.087781 9.1367734,-3.593442 0.974193,-0.398542 1.204264,-0.460349 1.735502,-0.466234 0.649784,-0.0072 1.819907,0.434829 2.090625,0.789758 l 0.128521,0.168497 h 2.470835 2.47084 l 0.281606,-0.281605 c 0.359316,-0.359318 0.723504,-0.542765 1.077528,-0.542765 0.314722,0 1.023841,0.161509 1.273968,0.290159 0.368528,0.189546 0.633895,0.614575 0.635839,1.018387 0.0026,0.528556 0.338899,1.093211 0.713126,1.197149 0.09766,0.02713 0.599538,0.04935 1.115284,0.0494 0.79515,4.9e-5 1.029113,-0.01764 1.53882,-0.116457 0.886635,-0.171896 1.528595,-0.239975 1.61179,-0.170927 0.0685,0.05685 0.295554,0.03342 0.480053,-0.04954 0.0529,-0.02378 0.28123,-0.09826 0.507403,-0.165508 0.410965,-0.12218 0.714062,-0.149669 1.006148,-0.09125 0.195346,0.03907 0.713425,0.510816 0.751112,0.683932 0.05503,0.252742 0.05307,0.251849 0.283188,0.129496 0.120413,-0.06403 0.342974,-0.129843 0.494581,-0.14626 0.151608,-0.01642 0.356312,-0.04139 0.454901,-0.05549 l 0.179248,-0.02564 -0.09509,-0.186394 c -0.108938,-0.213535 -0.126592,-0.631102 -0.03427,-0.810736 0.09205,-0.179122 0.291374,-0.301314 0.536578,-0.328954 l 0.223683,-0.02521 -0.24012,-0.161708 c -0.137173,-0.09238 -0.294138,-0.253876 -0.366113,-0.376689 -0.111764,-0.190712 -0.122269,-0.246374 -0.09306,-0.49305 0.03695,-0.312191 0.161007,-0.631214 0.333271,-0.857064 0.104624,-0.13717 0.11066,-0.170783 0.06378,-0.355446 -0.02845,-0.112172 -0.0757,-0.213094 -0.104964,-0.224271 -0.02926,-0.01117 -1.456542,-0.01471 -3.17174,-0.0079 l -3.118515,0.01246 0.477207,0.371973 c 0.262467,0.204586 0.610867,0.497199 0.774219,0.65025 l 0.297016,0.278276 v 0.415838 0.415839 l -0.251873,0.275592 c -0.310457,0.339692 -0.479599,0.418561 -0.778053,0.362803 -0.12066,-0.02254 -0.246646,-0.06248 -0.279981,-0.08874 -0.03333,-0.02627 -0.11733,-0.06128 -0.186658,-0.07779 -0.06933,-0.01652 -0.186185,-0.111474 -0.25969,-0.211007 -0.07351,-0.09953 -0.21924,-0.270678 -0.323855,-0.380323 -0.104608,-0.109645 -0.215285,-0.249653 -0.245934,-0.31113 -0.03064,-0.06147 -0.129415,-0.161437 -0.219478,-0.222132 -0.09007,-0.0607 -0.205759,-0.179419 -0.2571,-0.263827 -0.05132,-0.08441 -0.196652,-0.273435 -0.322947,-0.420059 -0.235171,-0.273031 -0.432955,-0.613626 -0.432955,-0.745553 0,-0.06616 -0.497903,-0.07405 -4.676586,-0.07402 -4.656216,2.4e-5 -4.677731,4.89e-4 -4.941068,0.10241 -0.172822,0.0669 -0.381148,0.103825 -0.601105,0.106538 -0.300578,0.0037 -0.377176,-0.01622 -0.715481,-0.18617 -0.208375,-0.104676 -0.465174,-0.27408 -0.570664,-0.376455 -0.180971,-0.175623 -0.517162,-0.801503 -0.517162,-0.962784 0,-0.116716 -0.07272,-0.13022 -0.289452,-0.05375 -0.176877,0.0624 -1.108048,0.07181 -7.112233,0.07181 H 6.0282769 l -0.046009,0.156286 -0.046009,0.156287 -0.4327957,0.02897 c -0.4033459,0.027 -0.6959243,0.09627 -0.8229273,0.194815 -0.1010718,0.07843 -0.1833793,1.490706 -0.2826341,4.849521 -0.08185,2.769885 -0.086996,3.223099 -0.036538,3.218937 0.019839,-0.0016 0.4796802,-0.164394 1.0218735,-0.361686 z m 0.042902,-1.54685 c -0.166508,-0.178502 -0.1871637,-0.227561 -0.1871637,-0.444495 0,-0.319759 0.094572,-0.534583 0.3065228,-0.696242 0.3041478,-0.231984 0.8743902,-0.153204 1.071789,0.148068 0.1849978,0.282336 0.1607852,0.792784 -0.048482,1.021976 -0.1531315,0.167724 -0.260718,0.19948 -0.6257184,0.184697 C 5.6247538,21.337594 5.6068121,21.330164 5.4261474,21.13648 Z M 6.176646,21.026857 c 0.1774548,-0.05506 0.2645452,-0.167683 0.2645452,-0.342118 0,-0.431455 -0.4461069,-0.671433 -0.7547085,-0.405985 -0.1111401,0.0956 -0.1349213,0.154706 -0.1349213,0.335282 0,0.348877 0.2656737,0.524333 0.6250846,0.412821 z m 4.593283,-1.802905 c -0.608054,-0.08572 -0.644671,-0.127929 -0.6019,-0.693897 0.07204,-0.953492 0.299987,-2.040125 0.482192,-2.298572 l 0.07628,-0.108198 h 1.509211 c 0.83007,0 1.52111,0.01924 1.535635,0.04275 0.08018,0.129742 0.18384,0.833407 0.206222,1.399898 0.04305,1.090007 -0.105832,1.445005 -0.67551,1.610614 -0.560451,0.162928 -1.577607,0.18197 -2.532129,0.04741 z m 2.042951,-0.310054 c 0.508627,-0.05894 0.646162,-0.127544 0.76094,-0.379591 0.08792,-0.193078 0.100435,-0.303679 0.09322,-0.82411 -0.0046,-0.330607 -0.03652,-0.741762 -0.07096,-0.913676 l -0.06262,-0.312574 h -1.319978 -1.319976 l -0.105395,0.336617 c -0.126719,0.404697 -0.307504,1.437143 -0.307504,1.756103 0,0.169946 0.02081,0.237256 0.08043,0.260133 0.0969,0.03718 1.384698,0.123983 1.722878,0.116121 0.13224,-0.0031 0.37028,-0.02063 0.52897,-0.03902 z M 5.3696825,18.028968 C 4.9833089,17.864336 4.7999328,17.357142 4.9571158,16.887851 c 0.1123015,-0.335279 0.366847,-0.487135 0.8165595,-0.487135 0.4309649,0 0.7156013,0.328583 0.7156013,0.826081 0,0.528672 -0.2870087,0.868106 -0.7340324,0.868106 -0.1269515,0 -0.3004578,-0.02967 -0.3855617,-0.06593 z M 6.0188563,17.66677 c 0.1444488,-0.129061 0.1562464,-0.162115 0.1562464,-0.437648 0,-0.266516 -0.014193,-0.310247 -0.1341253,-0.41341 -0.1531473,-0.131736 -0.3016911,-0.144865 -0.5351852,-0.04731 -0.201445,0.08417 -0.2668061,0.20061 -0.2668061,0.475307 0,0.266039 0.1307518,0.444849 0.3748728,0.512648 0.2390671,0.0664 0.2275788,0.06894 0.4049974,-0.08959 z M 26.982876,17.292986 c -0.156752,-0.09939 -0.258868,-0.373368 -0.2657,-0.712863 -0.0072,-0.356255 0.08279,-0.582792 0.269827,-0.67951 0.183461,-0.09487 0.514089,-0.09462 0.698101,5.54e-4 0.184988,0.09566 0.393964,0.344136 0.40225,0.478285 0.01553,0.251196 -0.02199,0.547328 -0.08478,0.669093 -0.168551,0.326919 -0.69181,0.452362 -1.019698,0.244456 z m 0.507955,-0.289833 c 0.144671,-0.02794 0.301535,-0.259329 0.301535,-0.444771 0,-0.167876 -0.178427,-0.369614 -0.369281,-0.417515 -0.14488,-0.03636 -0.341408,0.0916 -0.380615,0.247828 -0.04352,0.173443 0.01922,0.44654 0.12743,0.554772 0.0935,0.0935 0.120207,0.09846 0.320931,0.05969 z m -2.693495,0.208755 c -0.216245,-0.09153 -0.328993,-0.234268 -0.374505,-0.474119 -0.14254,-0.751342 0.636891,-1.22374 1.148398,-0.696011 0.186554,0.192478 0.254066,0.401157 0.203014,0.62751 -0.106122,0.470515 -0.55638,0.720611 -0.976907,0.54262 z m 0.562308,-0.419077 c 0.163138,-0.193887 0.158256,-0.354649 -0.01609,-0.52898 -0.177796,-0.177798 -0.310477,-0.177798 -0.48828,0 -0.169063,0.169064 -0.183882,0.368452 -0.0409,0.550228 0.144687,0.183942 0.380325,0.17476 0.545251,-0.02125 z m 11.540665,5.771572 c 0.131552,-0.02204 0.322752,-0.101591 0.432796,-0.180067 0.108425,-0.07732 0.268698,-0.177223 0.356158,-0.222 0.173121,-0.08863 0.408746,-0.42229 0.491935,-0.696603 0.02884,-0.09513 0.14916,-0.367719 0.267351,-0.605757 0.118214,-0.238036 0.23984,-0.554935 0.270291,-0.704218 0.04817,-0.236135 0.04464,-0.287801 -0.02715,-0.397371 -0.130094,-0.198545 -0.516654,-0.458735 -0.68354,-0.460086 -0.148896,-0.0012 -0.738291,0.139342 -1.116766,0.266303 -0.113333,0.03801 -0.357398,0.06912 -0.542356,0.06912 -0.46598,0 -1.648979,0.128912 -1.984145,0.216209 -0.152703,0.03978 -0.406435,0.07232 -0.563841,0.07232 -0.157392,0 -0.286177,0.02145 -0.286177,0.04767 0,0.02622 -0.07343,0.143863 -0.163167,0.261429 -0.247755,0.324584 -0.341019,0.604672 -0.271478,0.815373 0.07329,0.222064 0.47002,0.702879 0.579969,0.702879 0.047,0 0.200424,0.07737 0.340944,0.171932 0.358442,0.241217 0.491312,0.289238 1.394012,0.503838 0.796589,0.189372 1.059626,0.213667 1.505159,0.139024 z m -1.193152,-1.155102 c -0.06847,-0.08137 -0.124494,-0.176949 -0.124494,-0.212389 0,-0.03544 -0.01775,-0.07165 -0.03946,-0.08047 -0.0217,-0.0088 -0.12149,-0.228925 -0.221775,-0.489131 -0.138432,-0.359239 -0.168873,-0.486548 -0.126472,-0.528971 0.06202,-0.06204 0.802667,-0.106884 0.989759,-0.05992 0.152276,0.03822 0.149409,0.08648 -0.02561,0.431606 -0.186238,0.367254 -0.186417,0.548356 -9.89e-4,0.730577 0.237631,0.233188 0.195173,0.356654 -0.122629,0.356654 -0.168883,0 -0.225591,-0.02554 -0.328597,-0.147955 z m 0.103376,-0.885943 c 0.05082,-0.165594 0.04941,-0.168308 -0.0881,-0.168308 -0.152051,0 -0.163747,0.02685 -0.09287,0.213267 0.06409,0.168573 0.119682,0.154764 0.180972,-0.04496 z m -4.334297,1.430626 c 0.114872,-0.125631 0.297387,-0.318474 0.405581,-0.428539 0.171161,-0.174124 0.194747,-0.223936 0.181536,-0.383438 -0.01347,-0.162992 -0.03384,-0.188878 -0.183481,-0.233475 -0.09257,-0.02759 -0.23643,-0.08708 -0.319687,-0.132208 -0.236317,-0.128088 -0.591806,-0.190088 -0.891676,-0.155515 l -0.273645,0.03155 -0.192734,0.320207 c -0.262594,0.436273 -0.270554,0.466017 -0.152155,0.568952 0.05559,0.04833 0.155072,0.140195 0.221089,0.204144 0.214075,0.207391 0.66057,0.434184 0.857748,0.435687 0.104641,7.92e-4 0.189695,-0.05487 0.347424,-0.227363 z m 0.207034,-2.188015 c -0.01116,-0.0066 -0.09119,-0.07624 -0.177866,-0.154734 l -0.157575,-0.142713 0.07719,0.154735 c 0.05008,0.100395 0.112543,0.154734 0.177865,0.154734 0.05537,0 0.09154,-0.0054 0.08039,-0.01202 z m 9.926447,-0.212389 c 0.04397,-0.04396 0.04064,-0.256544 -0.004,-0.256167 -0.01984,1.45e-4 -0.07293,0.06509 -0.117982,0.144264 -0.07781,0.13674 -0.07761,0.143961 0.004,0.143961 0.04725,0 0.100354,-0.01443 0.117982,-0.03206 z m -0.404218,-0.287001 c 0.112759,-0.143351 0.138798,-0.536248 0.04195,-0.633087 -0.09093,-0.09093 -0.491351,-0.07262 -0.578341,0.02645 -0.116755,0.132955 -0.144834,0.288398 -0.0849,0.469985 0.09598,0.29084 0.440404,0.366599 0.621284,0.136655 z m 1.278165,-0.782985 c 0.3559,-0.12537 2.192578,-0.925004 3.10135,-1.350232 0.436398,-0.204197 0.927788,-0.433851 1.091969,-0.510342 0.286941,-0.133681 0.30224,-0.149905 0.394553,-0.418455 0.08227,-0.239367 0.0877,-0.304796 0.03789,-0.456838 l -0.05813,-0.177456 -2.455198,-0.01245 -2.455205,-0.01245 -0.201305,0.397159 c -0.244179,0.481724 -0.29033,0.731513 -0.186801,1.011 0.0415,0.112013 0.120181,0.420058 0.17485,0.684543 0.198283,0.95916 0.2049,0.969222 0.556024,0.845529 z m 1.932382,9.335295 c -0.06556,-0.07244 -0.118648,-0.711732 -0.336501,-4.051434 -0.157865,-2.420213 -0.242208,-3.998212 -0.21645,-4.049574 0.05388,-0.107403 0.05517,-0.107597 -0.279782,0.04208 -0.348194,0.155598 -1.210943,0.450823 -1.317453,0.450823 -0.108765,0 -0.299652,-0.214341 -0.279789,-0.314174 0.0107,-0.05387 0.56471,-0.359529 1.603285,-0.884583 1.605607,-0.811726 4.260844,-2.201664 4.479173,-2.344719 l 0.11883,-0.07786 -0.196691,-0.200415 -0.196691,-0.200415 0.01357,-0.597704 0.01357,-0.597704 h 3.288805 c 3.63788,0 3.338884,-0.02808 3.393971,0.318739 0.0152,0.09596 0.08072,0.231689 0.145535,0.301615 0.116504,0.125715 0.123095,0.12678 0.588005,0.09505 0.37841,-0.02583 0.596853,-0.0753 1.119363,-0.253526 l 0.649183,-0.221436 10.988174,-0.01351 c 6.043471,-0.0074 11.037668,-0.0014 11.098193,0.0134 0.10561,0.02582 0.109501,0.04387 0.09618,0.446299 l -0.01385,0.419391 -0.492903,0.01371 -0.492897,0.0137 v 0.791773 c 0,0.924421 -0.0046,0.93468 -0.461524,1.024569 -0.249723,0.04913 -0.328477,0.04391 -0.640136,-0.04247 -0.19549,-0.05417 -0.400853,-0.123491 -0.456405,-0.154053 -0.06678,-0.03675 -0.438058,-0.05637 -1.096245,-0.05795 -0.729324,-0.0017 -1.011377,-0.01844 -1.055533,-0.06249 -0.07547,-0.07527 -0.544109,-0.07801 -1.102127,-0.0065 l -0.418404,0.05366 -0.02427,0.215009 c -0.01339,0.118255 -0.04465,0.235391 -0.06953,0.260303 -0.02579,0.0258 -0.165877,0.03112 -0.325516,0.01236 -0.372876,-0.04383 -0.457559,-0.1317 -0.457559,-0.474767 v -0.264473 h -6.561069 c -5.561889,0 -6.607286,0.01063 -6.864585,0.06977 -0.41428,0.09523 -3.540848,0.50598 -3.958246,0.520013 l -0.336634,0.01132 -0.01403,-0.372683 -0.01403,-0.372685 h -2.874901 -2.874897 l -0.102262,0.108856 c -0.05624,0.05987 -0.134348,0.185655 -0.173569,0.279523 -0.06366,0.152358 -0.123208,0.192831 -0.555054,0.377224 l -0.483733,0.206554 0.0233,0.175135 c 0.01279,0.09632 0.145871,1.891061 0.295706,3.988303 0.195315,2.733794 0.257704,3.82789 0.220415,3.865178 -0.08203,0.08203 -0.294937,0.0044 -0.321492,-0.117203 -0.01289,-0.05911 -0.134785,-1.827822 -0.270849,-3.930481 -0.136051,-2.102658 -0.255185,-3.831548 -0.264715,-3.841979 -0.0095,-0.01043 -0.289655,0.09244 -0.622465,0.228597 -0.431915,0.1767 -0.640136,0.238773 -0.727449,0.216859 -0.09464,-0.02376 -0.145666,-0.0029 -0.225474,0.09217 -0.06287,0.07489 -0.337887,0.221481 -0.704258,0.375375 -0.330601,0.138875 -0.608011,0.257508 -0.616455,0.263627 -0.0085,0.0061 0.0078,0.05111 0.03603,0.09997 0.05946,0.10284 0.642782,8.0505 0.599195,8.164088 -0.03883,0.101196 -0.177871,0.09597 -0.274055,-0.0103 z m -0.09753,-8.74158 c 0.374589,-0.168306 1.196894,-0.514524 1.827347,-0.769376 1.748542,-0.706819 1.843561,-0.747768 1.843561,-0.794465 0,-0.09509 0.352416,-0.52669 0.449517,-0.550519 0.05693,-0.01397 1.462186,-0.01926 3.122802,-0.01176 2.621449,0.01185 3.025307,0.02315 3.064891,0.08577 0.02509,0.03967 0.04591,0.19656 0.04632,0.348639 0.0016,0.240978 0.01272,0.276508 0.09366,0.276508 0.164707,0 2.366476,-0.239389 2.912581,-0.316673 0.637,-0.09014 1.185467,-0.206851 1.24789,-0.265533 0.02636,-0.02477 2.879621,-0.04294 6.743458,-0.04294 h 6.697782 l 0.0246,0.108198 c 0.01352,0.05951 0.03021,0.237827 0.037,0.396261 0.0099,0.230211 0.02928,0.291279 0.09654,0.304078 0.07008,0.01334 0.08416,-0.02028 0.08416,-0.20107 0,-0.121489 0.02645,-0.233698 0.06008,-0.25481 0.0641,-0.04022 0.476547,-0.09102 1.142082,-0.14065 0.308117,-0.02298 0.484659,-0.01057 0.71701,0.05037 0.241314,0.0633 0.491928,0.07877 1.154125,0.07123 0.863511,-0.0098 1.296702,0.04998 1.652127,0.228139 0.103592,0.05193 0.175421,0.05527 0.324592,0.0151 l 0.191573,-0.05158 v -0.812211 c 0,-0.674256 0.01286,-0.825047 0.07557,-0.887779 0.05804,-0.05801 0.180908,-0.07557 0.528966,-0.07557 0.452079,0 0.453398,-3.25e-4 0.453398,-0.120731 v -0.12073 l -10.976128,0.01253 -10.976142,0.01253 -0.504923,0.175848 c -0.277727,0.09672 -0.602318,0.189516 -0.721335,0.206221 -0.119012,0.01671 -0.408315,0.06716 -0.642908,0.112122 l -0.426499,0.08175 -0.143917,-0.16775 c -0.07917,-0.09226 -0.197191,-0.281359 -0.262288,-0.420213 L 54.137671,15.30578 h -3.002005 -3.001985 v 0.398535 0.398536 l 0.240447,0.236826 c 0.132243,0.130254 0.240437,0.274243 0.240437,0.319973 0,0.05961 -0.282483,0.228757 -0.997825,0.597487 -4.134542,2.131175 -4.16293,2.146208 -4.024984,2.131159 0.02512,-0.0028 0.352158,-0.142688 0.726754,-0.310992 z m 2.876075,-0.807143 c 0.120155,-0.08786 0.06341,-0.235429 -0.08256,-0.214703 -0.0777,0.01103 -0.112723,0.05286 -0.12363,0.147638 -0.01703,0.148133 0.06073,0.173429 0.206192,0.06707 z m -1.222884,8.757127 c -0.02421,-0.05951 -0.164397,-1.817735 -0.311512,-3.90717 -0.147111,-2.089433 -0.276633,-3.867367 -0.287831,-3.950964 -0.01762,-0.131562 -0.0013,-0.159904 0.121731,-0.210847 0.07815,-0.03237 0.150211,-0.05053 0.160133,-0.04036 0.0099,0.01017 0.149323,1.822488 0.309775,4.02737 0.205112,2.818861 0.27731,4.035784 0.243201,4.099521 -0.06579,0.122927 -0.181845,0.114277 -0.235497,-0.01755 z M 87.758403,14.704682 c -0.01471,-0.146945 -0.03918,-0.217067 -0.06292,-0.180331 -0.0304,0.04692 -0.639015,0.06011 -2.775406,0.06011 -2.656275,0 -2.737951,-0.0028 -2.786287,-0.09302 -0.07715,-0.144172 -0.06397,-0.94135 0.01662,-1.008277 0.04867,-0.04038 0.807669,-0.0516 2.837229,-0.04195 1.523935,0.0072 2.770783,-0.0032 2.770769,-0.02333 0,-0.02008 1.098204,-0.0309 2.440472,-0.02404 l 2.440472,0.01247 0.01339,0.719211 c 0.0073,0.395566 0.0026,0.747412 -0.01075,0.781879 -0.01939,0.05058 -0.490437,0.06026 -2.441824,0.0502 l -2.417764,-0.01247 z m 4.606191,-0.540992 -0.01372,-0.468861 H 90.210949 88.07103 l -0.01372,0.468861 -0.01372,0.468859 h 2.167448 2.167454 z m -4.942807,-0.156288 v -0.240441 h -2.500601 -2.500581 v 0.240441 0.240442 h 2.500581 2.500601 z m -33.458279,0.358367 c -0.366768,-0.153243 -0.509364,-0.404963 -0.504773,-0.891089 0.0087,-0.922469 1.047678,-1.344198 1.624945,-0.65957 0.185036,0.219448 0.263426,0.428101 0.262189,0.697843 -0.0026,0.542789 -0.38543,0.927244 -0.923578,0.927244 -0.154351,0 -0.360808,-0.03349 -0.458783,-0.07443 z m 0.743628,-0.305524 c 0.174515,-0.109397 0.281606,-0.256106 0.329695,-0.451656 0.04584,-0.186377 -0.09467,-0.530826 -0.280252,-0.686977 -0.129104,-0.108628 -0.183865,-0.12357 -0.382821,-0.104452 -0.475229,0.04567 -0.743315,0.546584 -0.545677,1.019608 0.08179,0.195746 0.176299,0.251945 0.488655,0.290553 0.188486,0.0233 0.268066,0.0096 0.3904,-0.06708 z M 5.680452,13.897639 c -0.02065,-0.179785 0.1240021,-0.602378 0.2237621,-0.653718 0.0711,-0.03659 0.3461155,-0.09061 0.873594,-0.171605 0.2713931,-0.04167 3.2038535,-0.120064 6.4919119,-0.173545 1.679482,-0.02732 3.334923,-0.06544 3.678751,-0.08472 l 0.625144,-0.03505 0.168309,0.183912 c 0.196701,0.214935 0.520539,0.730098 0.561581,0.893361 0.01778,0.07073 0.0034,0.129265 -0.03812,0.155653 -0.03768,0.02393 -2.781578,0.03735 -6.318089,0.03091 l -6.2514725,-0.01139 z m 12.15765,-0.169351 c 0,-0.06322 -0.266595,-0.459991 -0.365405,-0.543833 -0.08057,-0.06836 -0.197141,-0.07316 -0.981067,-0.04036 -0.880778,0.03685 -3.672197,0.10584 -7.670075,0.189566 -2.4066393,0.0504 -2.7650747,0.09487 -2.7650747,0.34301 0,0.08783 0.1601198,0.09029 5.8908137,0.09029 3.239947,0 5.890808,-0.01741 5.890808,-0.03867 z m 16.13676,-1.771786 c -0.160427,-0.04361 -0.312249,-0.0977 -0.337365,-0.12022 -0.02512,-0.02252 -0.08354,-0.04094 -0.129803,-0.04094 -0.04625,0 -0.140237,-0.07359 -0.208845,-0.163542 l -0.124745,-0.163543 0.07155,-0.444529 c 0.03935,-0.244491 0.09437,-0.46734 0.122253,-0.495219 0.03551,-0.03553 0.96767,0.0037 3.116358,0.131148 1.686124,0.100011 3.152226,0.196883 3.258025,0.215274 l 0.192349,0.03344 0.01465,0.282188 c 0.008,0.155203 -0.0053,0.302105 -0.02963,0.32645 -0.02434,0.02434 -0.755854,0.09569 -1.625588,0.158554 -0.869728,0.06286 -2.03576,0.158344 -2.591174,0.212185 -0.555424,0.05384 -1.096413,0.105539 -1.202209,0.114883 -0.105792,0.0093 -0.201751,0.02063 -0.213239,0.02507 -0.01148,0.0044 -0.152149,-0.02759 -0.312575,-0.0712 z m 1.319274,-0.356257 c 0.357045,-0.0199 1.100308,-0.08276 1.651693,-0.13968 0.551375,-0.05692 1.39532,-0.131212 1.875441,-0.165097 0.480111,-0.03389 0.840475,-0.07432 0.800801,-0.08987 -0.03967,-0.01554 -0.829522,-0.07497 -1.755221,-0.132065 -0.925696,-0.0571 -2.256537,-0.143075 -2.957421,-0.191072 -0.700884,-0.04799 -1.281341,-0.08064 -1.289903,-0.07255 -0.0085,0.0081 -0.03375,0.141158 -0.05597,0.295698 -0.03672,0.255265 -0.03119,0.287583 0.06021,0.353114 0.265632,0.190418 0.475028,0.208158 1.670372,0.141519 z M 31.759647,8.656836 c -0.288,-0.142762 -0.420227,-0.385888 -0.423179,-0.7781049 -0.0026,-0.3617845 0.07395,-0.5998544 0.243964,-0.7575155 0.576526,-0.5346675 1.519244,-0.060835 1.51187,0.759897 -0.0026,0.2977784 -0.09829,0.5002894 -0.313822,0.6646854 -0.265073,0.202184 -0.732241,0.2531 -1.018833,0.111038 z m 0.782635,-0.321191 c 0.19472,-0.122256 0.266721,-0.298508 0.23614,-0.5780623 -0.05222,-0.477379 -0.60732,-0.7035544 -0.957906,-0.3903024 -0.147111,0.1314449 -0.157043,0.1602721 -0.157043,0.4557459 0,0.2774238 0.01543,0.3308418 0.127963,0.4433868 0.176279,0.176284 0.528591,0.20877 0.750846,0.06923 z m 1.310895,0.192859 c -0.02738,-0.05116 -0.04977,-0.14883 -0.04977,-0.217048 0,-0.06822 -0.02506,-0.164155 -0.05568,-0.21319 -0.135212,-0.2165024 -0.06876,-0.2329319 1.097989,-0.2714845 1.248278,-0.041247 7.160897,-4.247e-4 7.28898,0.050355 0.158677,0.062881 0.07959,0.3072985 -0.198088,0.6121385 l -0.120461,0.132242 h -3.956593 c -3.862544,0 -3.957769,-0.0022 -4.00637,-0.09302 z m 7.884782,-0.286691 c 0,-0.07329 -1.323039,-0.117915 -3.606623,-0.121646 -2.232301,-0.0036 -3.991323,0.05103 -3.991323,0.124065 0,0.02237 1.70954,0.04067 3.798974,0.04067 2.206745,0 3.798972,-0.01806 3.798972,-0.043089 z m 1.876156,0.27957 C 43.223095,8.431293 43.07338,8.20049 43.073149,7.6874533 c 0,-0.4144319 0.05919,-0.5773224 0.245514,-0.6736798 0.425982,-0.2202845 1.018036,-0.1064937 1.17581,0.2259867 0.172779,0.3641153 0.04847,1.0519288 -0.215775,1.1938768 -0.09123,0.04901 -0.297068,0.113783 -0.424857,0.133696 -0.01321,0.002 -0.121105,-0.01862 -0.239726,-0.04595 z m 0.471122,-0.363761 c 0.217347,-0.176015 0.231361,-0.7042538 0.02287,-0.8623976 -0.04728,-0.035865 -0.178917,-0.065893 -0.292533,-0.066735 -0.158961,-0.00119 -0.235024,0.026942 -0.330122,0.1220441 -0.111258,0.1112509 -0.121505,0.1521501 -0.102843,0.4102062 0.0248,0.3429063 0.09701,0.4301423 0.382681,0.4623403 0.158155,0.01783 0.237018,0.0017 0.319942,-0.06546 z M 39.231123,5.1024516 39.152753,4.9988994 39.119663,5.10315 39.086573,5.2074007 35.117198,5.2067412 c -3.490302,-5.877e-4 -3.962272,-0.00927 -3.910582,-0.071543 0.03233,-0.038952 0.04989,-0.1468633 0.03904,-0.2397978 l -0.01974,-0.1689707 h 3.930386 3.930386 l 0.02062,0.108198 c 0.01132,0.059509 0.01099,0.013197 -9.89e-4,-0.1029158 -0.02215,-0.2188091 0.02467,-0.2915997 0.188515,-0.2930764 0.119365,-0.00112 0.501667,-0.2720856 0.653042,-0.4629328 0.202881,-0.2557735 0.496748,-0.3053026 1.396575,-0.2353823 0.55186,0.042882 0.665288,0.097692 0.755282,0.364972 0.04434,0.1316731 0.09657,0.175595 0.290826,0.2445524 0.13058,0.046352 0.37964,0.084952 0.555277,0.086054 0.213873,0.00132 0.392377,0.034691 0.543446,0.101513 0.259194,0.114656 0.734555,0.1679365 1.975273,0.2213971 1.256823,0.054154 1.557512,0.039446 2.534713,-0.1239824 1.531065,-0.2560631 3.500155,-0.4425026 4.967049,-0.4702984 1.338567,-0.025365 1.404242,-0.019416 1.986843,0.1799828 0.226864,0.077646 0.315113,0.133843 0.348638,0.2220249 0.05162,0.1357418 0.06056,0.5610044 0.01272,0.60876 -0.01768,0.017656 -3.626092,0.031796 -8.018719,0.031433 L 39.309197,5.2060691 39.230821,5.1025182 Z M 55.033265,4.872391 c 0.04162,-0.067329 -0.150292,-0.2421946 -0.265789,-0.2421946 -0.05419,0 -0.157274,-0.030365 -0.229027,-0.06747 -0.303273,-0.1568301 -1.632789,-0.1403314 -3.663723,0.045461 -0.985537,0.090159 -1.949423,0.2078846 -2.139931,0.2613656 -0.08222,0.023084 1.234998,0.042361 3.062798,0.044835 2.010109,0.0027 3.217737,-0.01296 3.235672,-0.041999 z M 43.324871,4.8465903 c -0.154879,-0.088535 -0.192358,-0.088535 -0.192358,0 0,0.049669 0.04867,0.071602 0.15629,0.070428 l 0.156288,-0.00171 z m -0.801476,0.040073 c 0.06394,-0.063928 0.02754,-0.096377 -0.225764,-0.2013725 C 42.020296,4.5703406 41.885442,4.4495609 41.779731,4.2214433 41.714941,4.0816461 41.699481,4.0760303 41.280602,4.04009 40.652036,3.986161 40.361011,4.025686 40.202829,4.1864752 c -0.07096,0.07213 -0.263442,0.2463061 -0.427719,0.3870628 -0.164295,0.1407542 -0.286291,0.2760013 -0.271123,0.3005501 0.03135,0.050737 2.969016,0.062972 3.019408,0.012577 z m -23.94158,0.2192114 c -0.05335,-0.1681126 0.02502,-0.6047316 0.138922,-0.7738064 l 0.106918,-0.158715 0.983938,-0.014404 c 1.147053,-0.016785 3.549018,0.059318 5.095476,0.1614527 0.595095,0.039301 2.030765,0.084944 3.190379,0.1014319 2.086661,0.029666 2.112847,0.031268 2.541183,0.1554484 l 0.432802,0.1254742 0.0084,0.2522451 0.0084,0.2522444 h -6.23716 -6.237119 z M 30.365087,4.8490761 C 30.260009,4.8040568 29.704938,4.7792843 28.321333,4.757855 27.276621,4.7416702 25.880864,4.6950945 25.21965,4.654347 23.621413,4.5558526 22.149152,4.4939567 20.474835,4.4548666 l -1.378638,-0.032185 -0.0999,0.1638653 c -0.05495,0.090127 -0.09998,0.2017359 -0.10008,0.2480201 0,0.079705 0.30683,0.083947 5.80648,0.080232 4.775445,-0.00323 5.781035,-0.014899 5.662387,-0.065723 z"
   id="path3649" /></svg>
