<?xml version="1.0" encoding="UTF-8" standalone="no"?>
<!-- Generator: Adobe Illustrator 16.0.0, SVG Export Plug-In . SVG Version: 6.00 Build 0)  -->

<svg
   version="1.1"
   x="0px"
   y="0px"
   width="90.25px"
   height="32px"
   viewBox="0 0 90.25 32"
   enable-background="new 0 0 90.25 32"
   xml:space="preserve"
   id="svg4042"
   sodipodi:docname="galilar.svg"
   inkscape:version="1.1.1 (3bf5ae0d25, 2021-09-20)"
   xmlns:inkscape="http://www.inkscape.org/namespaces/inkscape"
   xmlns:sodipodi="http://sodipodi.sourceforge.net/DTD/sodipodi-0.dtd"
   xmlns="http://www.w3.org/2000/svg"
   xmlns:svg="http://www.w3.org/2000/svg"><defs
   id="defs4046" /><sodipodi:namedview
   id="namedview4044"
   pagecolor="#505050"
   bordercolor="#eeeeee"
   borderopacity="1"
   inkscape:pageshadow="0"
   inkscape:pageopacity="0"
   inkscape:pagecheckerboard="0"
   showgrid="false"
   inkscape:zoom="8.7360007"
   inkscape:cx="62.786167"
   inkscape:cy="17.97161"
   inkscape:window-width="1440"
   inkscape:window-height="848"
   inkscape:window-x="1358"
   inkscape:window-y="-8"
   inkscape:window-maximized="1"
   inkscape:current-layer="svg4042" />

<g
   id="guides">
</g>
<path
   style="fill:#ffffff;stroke-width:0.0461827"
   d="m 41.489245,31.555563 c 0.149328,-0.115974 0.407549,-0.285747 0.573801,-0.377283 0.166252,-0.09154 0.309869,-0.172235 0.319145,-0.179323 0.0088,-0.007 -0.150006,-0.403626 -0.35397,-0.881193 -2.066813,-4.839561 -3.348354,-10.042614 -3.651832,-14.826645 -0.01971,-0.310943 -0.04469,-0.573246 -0.05549,-0.582898 -0.0113,-0.0097 -0.289782,0.03077 -0.619987,0.08982 -0.330231,0.05905 -0.665721,0.10834 -0.745564,0.10952 l -0.145186,0.0022 -0.03088,0.773561 c -0.01694,0.425458 -0.04821,1.074903 -0.06943,1.443211 l -0.03854,0.669649 0.430675,2.008947 c 0.952413,4.442557 1.463683,6.464541 2.154551,8.520679 0.542429,1.614405 1.108975,2.834144 1.514215,3.260156 0.234758,0.246776 0.368821,0.241104 0.71846,-0.0304 z m 2.030658,-1.224164 c 0.688657,-0.382581 1.21257,-0.682233 1.352571,-0.773631 0.04582,-0.02993 0,-0.185413 -0.201014,-0.679035 -1.501774,-3.690747 -2.717357,-8.091672 -3.226957,-11.682966 -0.0988,-0.696695 -0.303014,-2.53213 -0.303014,-2.724179 0,-0.08623 -0.01745,-0.167521 -0.03854,-0.180639 -0.03151,-0.01951 -0.751791,0.0752 -2.150309,0.282765 l -0.179973,0.02671 0.03138,0.789661 c 0.06641,1.666967 0.36085,3.582111 0.934551,6.077583 0.575534,2.503477 1.187638,4.581978 1.944852,6.604125 0.299574,0.800018 0.935995,2.367072 1.042402,2.566674 0.05461,0.102503 0.06164,0.09977 0.794048,-0.30707 z m 2.262994,-1.304511 c 0.253977,-0.132612 0.552259,-0.270716 0.662871,-0.306898 0.376781,-0.123254 0.377785,-0.162722 0.02636,-1.048061 -0.33023,-0.832018 -1.401908,-3.912688 -1.773591,-5.098493 -0.416928,-1.330085 -0.889734,-3.153949 -1.154634,-4.454014 -0.252874,-1.241092 -0.374245,-2.229883 -0.444057,-3.617577 -0.03013,-0.598592 -0.03364,-0.614923 -0.128765,-0.587575 -0.05373,0.01548 -0.326377,0.05983 -0.605789,0.09857 -0.279401,0.03876 -0.575547,0.08068 -0.658089,0.0932 l -0.150095,0.02275 v 0.345332 c 0,0.458506 0.157853,1.981025 0.30373,2.929456 0.45631,2.966723 1.423337,6.627078 2.537824,9.606003 0.37319,0.997519 0.845518,2.17592 0.892231,2.226044 0.01657,0.01779 0.237972,-0.07614 0.491976,-0.208749 z M 28.492229,25.629519 c 0.104825,-0.08491 0.108088,-0.11183 0.139348,-1.143021 0.03227,-1.066308 0.05925,-1.351823 0.230816,-2.441547 0.177714,-1.128652 0.506814,-2.339062 1.037506,-3.815745 0.16777,-0.466788 0.31612,-0.886088 0.329715,-0.931777 0.01356,-0.04568 0.121522,-0.132105 0.239731,-0.192039 l 0.21506,-0.108967 0.737267,0.366805 c 1.029295,0.512082 1.238544,0.572081 1.984208,0.568917 0.915796,-0.0039 1.702273,-0.233763 2.170597,-0.634434 0.101561,-0.08692 0.229611,-0.172206 0.284459,-0.189509 0.05486,-0.0173 0.122024,-0.05823 0.149115,-0.09097 0.028,-0.03366 0.07959,-0.58851 0.118886,-1.277433 0.0521,-0.912023 0.08587,-1.234267 0.134578,-1.282954 0.06415,-0.0642 3.796969,-0.726902 5.856727,-1.039775 0.765035,-0.116211 0.959621,-0.160191 0.975376,-0.220465 0.01368,-0.05244 0.116124,-0.09302 0.337424,-0.133706 0.174738,-0.03213 0.629453,-0.127516 1.010452,-0.211975 0.381024,-0.08446 0.973318,-0.196175 1.316215,-0.248258 0.342897,-0.05208 0.670216,-0.105429 0.727386,-0.118547 l 0.103947,-0.02385 v 1.143903 c 0,1.290238 0.02248,1.397483 0.323213,1.548176 0.152216,0.07628 0.562791,0.08031 7.053516,0.06927 l 6.891873,-0.01168 0.149944,-0.149958 0.149957,-0.149958 0.03176,-0.787796 c 0.04444,-1.1046 0.08838,-1.572396 0.149278,-1.590948 0.02862,-0.0087 0.129293,-0.02867 0.223799,-0.04437 0.103444,-0.01717 0.236741,-0.08972 0.334838,-0.182237 0.153873,-0.145129 0.162974,-0.170375 0.162974,-0.452524 v -0.298818 l 2.551596,-0.03128 c 1.453191,-0.01781 2.611214,-0.01366 2.690128,0.0097 0.0762,0.02253 0.221677,0.08391 0.323288,0.136411 0.101561,0.0525 0.330206,0.132031 0.507994,0.176728 0.177827,0.04469 0.366186,0.118722 0.418636,0.164502 0.05247,0.04577 0.115496,0.08323 0.140252,0.08323 0.02473,0 0.21422,0.150672 0.421146,0.334824 0.673154,0.599063 1.092944,0.799762 1.583111,0.756892 0.590235,-0.05162 0.891692,-0.211463 1.215634,-0.644581 0.108465,-0.144966 0.240771,-0.294134 0.294113,-0.331487 0.114115,-0.07991 0.396502,-0.549991 0.430172,-0.716022 0.02235,-0.110023 0.04306,-0.116865 0.438784,-0.145203 0.661817,-0.0474 7.68035,-0.03614 9.582616,0.01535 0.952519,0.0258 2.241027,0.05668 2.863333,0.06863 1.26786,0.02435 2.857247,-0.05011 2.936398,-0.137574 C 88.667904,11.063104 88.9168,9.6029599 88.802785,9.2790047 88.718421,9.0391673 88.541282,8.8219934 88.311057,8.6759789 88.137254,8.5657553 88.027859,8.5400873 87.520449,8.4904568 c -0.784954,-0.076779 -3.066614,-0.03981 -3.429115,0.055549 -0.304619,0.080144 -0.500507,0.1779154 -0.619179,0.3090592 l -0.08788,0.097092 H 78.534038 73.683814 L 73.010839,8.8160559 C 72.640687,8.7411964 72.098835,8.6597567 71.80673,8.6350692 71.262079,8.5890356 70.54348,8.411604 70.328871,8.2701661 l -0.115496,-0.076089 0.204516,-0.035601 c 0.112483,-0.019573 0.225318,-0.056408 0.250739,-0.081839 0.04607,-0.04607 0.304847,-1.534189 0.30609,-1.760384 0,-0.1495609 -0.149417,-0.2854742 -0.404073,-0.3654908 -0.261573,-0.082177 -0.287623,-0.1223631 -0.239792,-0.3699375 0.02209,-0.1143029 0.04105,-0.3042428 0.04218,-0.4220913 0.0025,-0.1178435 0.08499,-0.6002869 0.186501,-1.0720867 0.223371,-1.0385299 0.21825,-1.0703716 -0.178605,-1.1107224 -0.142939,-0.014537 -0.621343,-0.049211 -1.063128,-0.077068 l -0.803224,-0.050643 -0.102314,0.1078255 c -0.06076,0.064075 -0.179924,0.3573923 -0.293524,0.7228531 -0.1106,0.3556466 -0.249634,0.7000064 -0.329791,0.8165192 -0.0762,0.1108136 -0.138633,0.2193962 -0.138633,0.2412816 0,0.021883 -0.09353,0.1315735 -0.20783,0.243753 -0.226886,0.222679 -0.254179,0.3377493 -0.143805,0.6062821 0.03528,0.085655 0.07846,0.2232754 0.09604,0.3058276 l 0.03201,0.150093 -8.443561,-0.00728 c -4.643946,-0.00405 -8.298076,-0.022199 -8.120275,-0.04045 0.177788,-0.018237 0.644618,-0.035767 1.037393,-0.038915 l 0.714116,-0.00578 0.238462,-0.252172 c 0.312618,-0.3305819 0.559968,-0.7079276 0.676907,-1.0326849 0.138946,-0.3858204 0.161343,-1.3039562 0.05662,-2.3172442 l -0.0821,-0.7943371 -0.201629,-0.2362162 c -0.293899,-0.34429991 -0.87885,-0.67835557 -1.187864,-0.67835557 -0.06578,0 -0.118007,-0.0325037 -0.130824,-0.0812743 C 51.970415,0.50662793 51.845116,0.43453432 51.643764,0.36241835 51.344302,0.25515769 51.274666,0.24880569 50.50476,0.25857267 c -0.681288,0.008664 -0.866811,0.0261647 -1.096623,0.10358215 -0.30511,0.10277931 -0.528256,0.0965147 -1.164488,-0.032713 -0.345471,-0.0701623 -0.363411,-0.0693609 -0.585841,0.0263379 -0.300189,0.12912951 -0.701161,0.12966811 -1.079736,0.001372 -0.501417,-0.16982283 -1.160396,-0.0346121 -1.503495,0.30850233 l -0.201009,0.20101804 0.01594,0.46105751 c 0.01557,0.4484409 0.02009,0.4652898 0.166,0.6158146 0.08261,0.085116 0.150095,0.1781529 0.150095,0.2067456 0,0.099879 0.251706,0.3500018 0.436838,0.434093 0.240998,0.1094701 0.478041,0.1100224 0.599312,0.00138 0.204378,-0.1831113 0.590737,-0.237863 1.678483,-0.237863 0.975653,0 1.025203,-0.00426 1.072356,-0.092359 0.06277,-0.1173662 0.147797,-0.1173662 0.254003,0 0.04595,0.050806 0.109219,0.092359 0.140428,0.092359 0.03126,0 0.116374,0.031046 0.189112,0.068984 0.245894,0.1282412 0.573815,0.069463 0.940476,-0.1685775 0.0811,-0.052625 0.266784,-0.082215 0.623478,-0.099351 0.279412,-0.013407 0.611828,-0.056784 0.738747,-0.096364 0.217522,-0.067837 0.235663,-0.067022 0.317024,0.014339 0.04746,0.047463 0.103193,0.1664646 0.123782,0.2644493 0.02059,0.097983 0.09139,0.3755879 0.157263,0.6168917 0.207089,0.7588754 0.157,1.278238 -0.15602,1.6170017 l -0.164833,0.1784013 -1.03158,0.0496 c -2.066123,0.099351 -2.96487,0.3394525 -3.477748,0.929116 -0.149994,0.1724529 -0.265955,0.2678744 -0.306604,0.2522796 -0.18925,-0.072624 -0.710276,-0.114479 -0.991559,-0.079642 l -0.311726,0.038603 V 5.7644443 c 0,-0.3130582 -0.03502,-0.3223718 -1.204397,-0.3207134 -0.787771,0.00101 -1.054792,0.016158 -1.116282,0.06282 -0.10721,0.081349 -0.103821,0.3223054 0.0063,0.4802276 0.04821,0.068819 0.09955,0.1926749 0.114241,0.2752271 l 0.02674,0.1500959 H 39.375259 34.887084 L 34.709773,6.2389148 34.532474,6.0657285 32.763451,6.0526245 30.994454,6.0395205 30.936703,5.8447953 C 30.851838,5.5583125 30.578515,5.0303676 30.405521,4.8187638 30.313627,4.7063186 30.142316,4.5804027 29.967867,4.4970245 29.690614,4.3645067 29.677207,4.3625963 29.557404,4.4385005 29.343988,4.5737301 29.148825,4.6536521 28.964722,4.6812203 28.791151,4.7072189 28.783882,4.7024611 28.651451,4.4762891 28.15635,3.6306837 27.273019,3.3504 26.634264,3.8362254 c -0.63091,0.4798579 -0.644067,0.5161462 -0.68326,1.8831232 -0.03226,1.1238016 -0.07357,1.317833 -0.306943,1.4432133 -0.05913,0.031746 -0.221526,0.1357876 -0.360925,0.2311962 -0.139386,0.09541 -0.444798,0.2360075 -0.678665,0.3124366 -0.233904,0.076428 -0.521125,0.2083303 -0.638304,0.2931063 -0.117127,0.084777 -0.356493,0.2334877 -0.531795,0.3304659 -0.301043,0.1665376 -0.345887,0.1774894 -0.808184,0.1973057 -0.269218,0.011552 -0.541425,0.047463 -0.604935,0.07983 -0.222557,0.1134372 -0.546824,0.437453 -0.577468,0.5770058 l -0.03025,0.1376864 -8.736407,1.856e-4 C 3.0657533,9.3219655 3.4069046,9.312366 2.825593,9.5985745 2.4902897,9.7636457 2.1782776,10.090514 1.987898,10.476171 1.8708934,10.71328 1.8624823,10.770117 1.8629877,11.330552 c 0,0.492267 0.02332,0.6973 0.1273722,1.138656 0.3165173,1.342719 0.5136258,3.154405 0.7454978,6.851767 0.1013086,1.615844 0.1198925,1.785132 0.233316,2.124405 0.1530676,0.457956 0.3061784,0.725055 0.4910566,0.856697 0.186452,0.132771 0.4930709,0.167113 0.6709097,0.07515 0.1520279,-0.07861 1.0760793,-0.924299 1.2308435,-1.126458 0.7296503,-0.953073 2.9075619,-2.99993 4.5594223,-4.285039 1.5461262,-1.202866 3.1245032,-2.069443 4.1564482,-2.282011 0.469707,-0.09676 2.271307,-0.195151 4.31807,-0.235827 1.117625,-0.02221 2.863322,-0.07308 3.879348,-0.113022 1.790401,-0.0704 2.444033,-0.06411 2.806214,0.027 0.237557,0.05977 0.475291,0.280715 0.62,0.576268 0.0703,0.14358 0.161431,0.25957 0.21776,0.277123 0.05323,0.01661 0.112106,0.05335 0.130762,0.08169 0.08486,0.128885 0.02448,0.54427 -0.177588,1.220728 -0.254531,0.852142 -1.56369,4.731417 -1.929511,5.717571 -0.329415,0.887968 -0.342182,1.089659 -0.08587,1.354826 0.28235,0.292094 3.070022,1.804179 3.746013,2.031902 0.361715,0.121848 0.74343,0.125087 0.888591,0.0075 z M 4.8734604,17.969329 c -0.027002,-0.634506 -0.2126023,-3.924084 -0.3042436,-5.391831 -0.022237,-0.355607 -0.037543,-0.649215 -0.033933,-0.652464 0.00881,-0.008 1.924373,-0.131634 4.2090514,-0.271516 1.0414096,-0.06376 2.5266868,-0.167707 3.3005868,-0.230988 1.774158,-0.145073 1.710226,-0.144975 1.710226,-0.0027 0,0.06185 -0.01942,0.163537 -0.04317,0.225974 -0.02635,0.06935 -0.569991,0.518735 -1.397023,1.15485 -0.744631,0.572729 -2.7047275,2.122111 -4.3557504,3.443071 -1.6510303,1.320959 -3.0142349,2.402862 -3.0293243,2.404225 -0.015162,0.0014 -0.040575,-0.304056 -0.056387,-0.678713 z M 32.432789,16.069242 c -0.407312,-0.184997 -0.614025,-0.643286 -0.558474,-1.238185 0.05047,-0.540495 0.37756,-0.937353 0.772568,-0.937353 0.08436,0 0.08938,0.03864 0.08938,0.70065 0,0.799263 0.02598,0.869562 0.321606,0.869562 0.328587,0 0.3462,-0.04129 0.362846,-0.85056 l 0.01469,-0.719652 0.516292,0.001 c 0.587222,0.0012 0.804304,0.06922 1.013453,0.317773 0.178102,0.211668 0.23074,0.439032 0.212048,0.916196 -0.01469,0.378232 -0.03013,0.439286 -0.154991,0.616434 -0.0762,0.108139 -0.23015,0.244977 -0.342106,0.304079 -0.193745,0.102289 -0.248166,0.10741 -1.131472,0.106444 -0.802672,-7.94e-4 -0.953319,-0.01256 -1.115918,-0.0864 z M 15.912707,12.81547 c -0.196762,-0.08237 -0.477238,-0.398334 -0.517878,-0.583412 -0.08512,-0.387464 0.137307,-0.837596 0.500789,-1.013557 0.193015,-0.09344 0.261314,-0.09576 2.812656,-0.09576 1.735189,0 2.658554,0.01652 2.744824,0.04912 0.678352,0.256297 0.765651,1.358115 0.130009,1.64063 -0.204553,0.09092 -5.453769,0.09366 -5.6704,0.003 z m 34.67643,-0.287454 c -0.08712,-0.0871 -0.09014,-0.122249 -0.0172,-0.195287 0.07708,-0.07704 7.290184,-0.08058 7.367139,-0.0036 0.05574,0.05572 0.02762,0.180913 -0.05298,0.236125 -0.02724,0.01867 -1.663896,0.03425 -3.636982,0.03463 -3.200294,6.14e-4 -3.595215,-0.0071 -3.65998,-0.07187 z m 8.896369,-1.157101 c -0.137177,-0.08837 -0.194222,-0.244577 -0.194222,-0.531828 0,-0.194248 0.02172,-0.253165 0.135005,-0.366454 0.233226,-0.23324 0.77071,-0.178973 0.874856,0.08833 0.149304,0.383172 0.0051,0.840411 -0.284057,0.900217 -0.151752,0.0314 -0.411115,-0.01266 -0.531582,-0.09026 z m -10.830839,0.0211 c -0.275873,-0.147639 -0.277605,-0.804539 -0.0025,-0.984729 0.151676,-0.09938 0.527816,-0.10033 0.678325,-0.0017 0.333093,0.21826 0.26234,0.89847 -0.106959,1.027794 -0.165888,0.0581 -0.417117,0.03985 -0.568793,-0.04134 z m 1.908107,-0.500194 c -0.03515,-0.06562 -0.03515,-0.119112 0,-0.184731 0.04883,-0.09117 0.09666,-0.09236 3.697717,-0.09236 h 3.648293 l 0.0393,0.103908 c 0.02235,0.05918 0.02097,0.138703 -0.0025,0.18473 -0.0398,0.07593 -0.262866,0.08082 -3.687536,0.08082 -3.597927,0 -3.645821,-0.0012 -3.69463,-0.09237 z M 62.692993,9.6398 C 62.464913,9.5358915 62.409965,9.2006287 62.591306,9.0193265 l 0.113362,-0.1133614 h 1.980782 c 1.828213,0 1.986355,0.00628 2.052941,0.080822 0.131929,0.1477964 0.120894,0.4785375 -0.02034,0.6101232 -0.0983,0.091606 -0.152757,0.094167 -2.006769,0.094167 -1.298275,0 -1.941562,-0.016346 -2.018229,-0.051268 z M 50.567619,9.2581938 c -0.07093,-0.085492 -0.02109,-0.19852 0.102189,-0.2315861 0.130912,-0.03511 7.04311,-0.035377 7.173947,-2.043e-4 0.114115,0.030605 0.16772,0.1710882 0.09365,0.2452113 -0.03515,0.035124 -1.134447,0.050077 -3.683632,0.050077 -3.024427,0 -3.642355,-0.010671 -3.686169,-0.063426 z"
   id="path4060" /></svg>
