<?xml version="1.0" encoding="UTF-8" standalone="no"?>
<!-- Generator: Adobe Illustrator 16.0.0, SVG Export Plug-In . SVG Version: 6.00 Build 0)  -->

<svg
   version="1.1"
   x="0px"
   y="0px"
   width="44.875px"
   height="32px"
   viewBox="0 0 44.875 32"
   enable-background="new 0 0 44.875 32"
   xml:space="preserve"
   id="svg4288"
   sodipodi:docname="glock.svg"
   inkscape:version="1.1.1 (3bf5ae0d25, 2021-09-20)"
   xmlns:inkscape="http://www.inkscape.org/namespaces/inkscape"
   xmlns:sodipodi="http://sodipodi.sourceforge.net/DTD/sodipodi-0.dtd"
   xmlns="http://www.w3.org/2000/svg"
   xmlns:svg="http://www.w3.org/2000/svg"><defs
   id="defs4292" /><sodipodi:namedview
   id="namedview4290"
   pagecolor="#505050"
   bordercolor="#eeeeee"
   borderopacity="1"
   inkscape:pageshadow="0"
   inkscape:pageopacity="0"
   inkscape:pagecheckerboard="0"
   showgrid="false"
   inkscape:zoom="13.700194"
   inkscape:cx="16.605604"
   inkscape:cy="12.70055"
   inkscape:window-width="1440"
   inkscape:window-height="848"
   inkscape:window-x="1358"
   inkscape:window-y="-8"
   inkscape:window-maximized="1"
   inkscape:current-layer="svg4288" />

<g
   id="guides">
</g>
<path
   style="fill:#ffffff;stroke-width:0.0371057"
   d="m 12.22171,30.161012 c 0.130573,-0.03494 0.331515,-0.198774 0.4455,-0.363268 0.124408,-0.179528 0.193973,-0.407511 0.242592,-0.795065 0.05501,-0.438448 1.027358,-3.418097 1.751398,-5.366902 0.672368,-1.809753 1.358491,-3.432878 1.921412,-4.545441 0.542377,-1.071959 0.954722,-1.697777 1.459203,-2.214651 0.257794,-0.26415 0.400578,-0.352863 0.738157,-0.458644 l 0.211264,-0.06621 0.295969,0.135293 c 0.543702,0.248533 1.082605,0.37004 2.120065,0.478017 0.625557,0.06511 4.337125,0.06481 5.380328,-4.02e-4 0.41835,-0.02616 1.094614,-0.06227 1.502762,-0.08023 0.408168,-0.01797 0.786113,-0.04943 0.839873,-0.06991 0.06014,-0.02292 0.208411,-0.190916 0.385556,-0.436849 l 0.287836,-0.399606 -0.154412,-0.855261 c -0.241326,-1.336837 -0.315951,-2.166641 -0.231305,-2.572323 0.133144,-0.638232 0.159753,-0.685798 0.475423,-0.850285 0.485263,-0.252859 1.06178,-0.338796 2.57143,-0.383316 0.642846,-0.01896 1.424722,-0.05212 1.73752,-0.07368 0.312779,-0.02157 1.055815,-0.05525 1.651188,-0.07486 0.595394,-0.0196 1.474908,-0.06788 1.954488,-0.107281 0.4796,-0.0394 1.693803,-0.126089 2.698267,-0.192639 1.656852,-0.109775 1.832409,-0.115639 1.892394,-0.06321 0.106274,0.0929 0.332861,0.149848 0.490344,0.123243 0.184495,-0.03117 0.408409,-0.176278 0.517334,-0.335242 0.219096,-0.319742 0.369049,-1.18829 0.401683,-2.3267447 0.02038,-0.7102668 0.02741,-0.7708805 0.092,-0.7913803 0.06547,-0.020779 0.06836,-0.052433 0.04498,-0.4950954 -0.02683,-0.5080041 0,-0.819945 0.07119,-0.8201679 0.02426,-7.43e-5 0.07752,-0.079391 0.118324,-0.1762523 0.06087,-0.1444363 0.07382,-0.256199 0.07205,-0.6213795 -0.0022,-0.4407111 -0.0048,-0.4540878 -0.259741,-1.3072807 -0.2301,-0.7700714 -0.265947,-0.8620875 -0.335973,-0.8627059 -0.0431,-4.018e-4 -0.141418,-0.050789 -0.218453,-0.1120095 -0.07703,-0.061228 -0.154471,-0.1113171 -0.172083,-0.1113171 -0.01767,0 -0.03199,-0.041742 -0.03199,-0.092765 V 2.7824287 H 42.634586 42.080883 L 41.864639,2.5448499 41.648396,2.3072726 41.262217,2.5096579 C 41.049809,2.6209686 40.83467,2.7445757 40.784103,2.78434 40.693313,2.855756 40.490704,2.856628 24.138816,2.855756 L 7.5854253,2.8549665 7.4820829,2.531173 C 7.4252316,2.3530872 7.3639801,2.1835406 7.3459468,2.1544011 7.3130514,2.101259 6.6739806,2.0101742 6.3009358,2.0054627 L 6.1295955,2.0033103 5.9310241,2.4300245 5.7324528,2.8567401 H 5.5814754 c -0.2515477,0 -0.9935407,0.102214 -1.34096,0.1847252 -0.3353511,0.079645 -0.4641978,0.1413391 -0.5770588,0.276287 -0.075588,0.090395 -0.088441,0.3560368 -0.020505,0.4239082 0.034962,0.034919 0.052252,0.4503265 0.070225,1.6864505 0.013653,0.9379593 0.040744,1.711603 0.063316,1.8070933 0.05838,0.246889 0.051126,1.0255071 -0.012649,1.358753 l -0.055323,0.289216 0.149752,0.2520782 c 0.083019,0.1397532 0.1755775,0.2520802 0.2076888,0.2520802 0.031848,0 0.1075397,0.041752 0.1681878,0.092785 0.060647,0.05103 0.1767219,0.1034086 0.2579337,0.1163976 0.1488882,0.02381 1.2614758,0.6537337 1.6217879,0.9182367 0.3651528,0.26804 0.6242919,0.704769 0.8427447,1.420317 0.097056,0.317843 0.1397105,0.536705 0.1543703,0.79177 0.036289,0.632105 -0.1454745,1.689896 -0.429254,2.497975 -0.2007001,0.571499 -0.357923,0.978573 -0.3980468,1.030642 -0.022091,0.02864 -0.1366985,0.269144 -0.2547009,0.53445 -0.317779,0.714512 -0.5486625,1.094467 -1.7812398,2.931344 -1.0081201,1.502386 -2.9402362,4.498979 -3.1274817,4.850582 -0.040465,0.07599 -0.082658,0.129106 -0.093723,0.118033 -0.061974,-0.06199 -0.36691918,1.028388 -0.43692579,1.562396 -0.0695862,0.530683 -0.0317475,1.190573 0.093141,1.624835 0.10428601,0.362656 0.10535071,0.364361 0.37836619,0.615937 0.4721098,0.435028 0.7437399,0.523179 1.6121287,0.523179 0.5129762,0 0.5557912,0.0052 0.5388621,0.06494 -0.010044,0.03571 -0.029523,0.190166 -0.043119,0.343226 -0.01526,0.171014 -0.061214,0.360838 -0.1193878,0.492421 -0.052073,0.117772 -0.086875,0.221935 -0.077336,0.231476 0.02707,0.02707 9.1489099,0.03975 9.2494209,0.01287 z M 3.7205073,29.312669 c 0.013051,-0.183821 0.048938,-0.39458 0.079765,-0.468352 C 3.9157241,28.567972 3.9207047,28.570846 3.3275605,28.570657 3.036732,28.570544 2.6108113,28.559647 2.381032,28.546417 L 1.9632858,28.522343 1.6881811,28.277569 C 1.536883,28.142943 1.377672,28.007748 1.3343749,27.977135 1.2332824,27.905669 1.1509053,27.662315 1.1085324,27.309971 c -0.035586,-0.295827 0.049842,-1.478694 0.1158535,-1.604161 0.018274,-0.03495 0.067613,-0.19114 0.1094072,-0.347096 0.1016551,-0.379312 0.1455347,-0.458682 0.700884,-1.267482 0.2630751,-0.383154 0.7574957,-1.130777 1.0987105,-1.661388 0.3412141,-0.53061 1.1193346,-1.711884 1.7291668,-2.625054 0.6098323,-0.913168 1.1087715,-1.674538 1.1087715,-1.691935 0,-0.01739 0.1486069,-0.338899 0.3302298,-0.714454 C 7.3197367,15.293079 7.7589316,13.699087 7.6393228,12.54309 7.5949194,12.113734 7.4424785,11.507096 7.3229093,11.283854 7.0569428,10.787295 6.7222547,10.378789 6.3609382,10.109697 6.2180946,10.003304 6.0686834,9.8799303 6.0289614,9.8355308 5.9892214,9.7911331 5.905718,9.7320961 5.8434233,9.7043407 5.7811265,9.6765851 5.554824,9.5766729 5.3405482,9.4823112 5.1262523,9.3879496 4.9258729,9.2943531 4.8952683,9.2743192 4.8646616,9.254277 4.7619433,9.1875828 4.667015,9.1260934 4.5720875,9.0646023 4.468745,8.9750923 4.4373369,8.9271845 4.3200972,8.7482552 4.2644698,8.4079746 4.2644698,7.8698032 V 7.3464041 H 23.800591 43.336712 l -0.003,0.2875692 c -0.002,0.1581624 -0.01847,0.4294974 -0.03742,0.6029663 -0.01888,0.1734689 -0.04984,0.4907215 -0.0687,0.7050072 -0.01888,0.2142838 -0.04591,0.4689225 -0.06019,0.5658606 -0.01747,0.1191591 -0.01265,0.1762504 0.01486,0.1762504 0.02245,0 2e-5,0.060122 -0.04986,0.133602 -0.08657,0.1275714 -0.116757,0.2319562 -0.138486,0.4786422 -0.008,0.09021 -0.02872,0.113502 -0.109588,0.12284 -0.09951,0.01149 -0.190961,-0.05465 -0.273899,-0.198094 -0.03773,-0.06525 -0.06414,-0.06635 -0.519483,-0.02168 -0.263859,0.02588 -0.650559,0.07035 -0.859373,0.09882 -0.208793,0.02847 -0.684678,0.06951 -1.057502,0.09121 -0.372843,0.0217 -1.10367,0.07169 -1.624077,0.111088 -2.278853,0.172519 -4.069692,0.258332 -5.408142,0.259147 -0.637124,4.02e-4 -0.788482,0.0101 -0.788482,0.05059 0,0.03969 -0.156339,0.0548 -0.751391,0.07266 -1.154268,0.03463 -1.805048,0.206964 -2.230808,0.59073 -0.384933,0.346976 -0.450521,0.576147 -0.448955,1.568499 0,0.495754 0.02116,0.831663 0.06864,1.131723 0.03713,0.234693 0.08117,0.533038 0.09786,0.662989 0.01667,0.129952 0.04841,0.254348 0.0705,0.276438 0.02209,0.02209 0.04016,0.115129 0.04016,0.206757 0,0.09163 0.01968,0.261682 0.04364,0.377897 l 0.04364,0.211295 -0.172405,0.201813 c -0.113062,0.132346 -0.220682,0.217495 -0.312658,0.247375 -0.07714,0.02506 -0.424094,0.06056 -0.771032,0.07889 -0.346937,0.01833 -0.973096,0.0543 -1.391466,0.07995 -0.423912,0.02599 -1.540977,0.04677 -2.523191,0.04696 -1.823333,4.01e-4 -2.60824,-0.04217 -3.455985,-0.187154 -0.691044,-0.118188 -1.36775,-0.364021 -1.36775,-0.496876 0,-0.107921 -0.06577,-0.122802 -0.172324,-0.03899 -0.05358,0.04214 -0.128565,0.07662 -0.166621,0.07662 -0.05509,0 -0.0692,0.02805 -0.0692,0.137402 V 16.1926 l -0.140716,-0.137399 c -0.0774,-0.07557 -0.173408,-0.137245 -0.213352,-0.137052 -0.232951,0.0012 -0.848046,0.531486 -1.250209,1.077984 -1.058546,1.438453 -2.277006,4.178617 -3.719682,8.365051 -0.189876,0.551018 -0.432809,1.277362 -0.539826,1.614094 -0.107038,0.336735 -0.250744,0.74018 -0.319385,0.896547 -0.09774,0.222667 -0.12479,0.334264 -0.12479,0.514747 0,0.190288 -0.0088,0.22313 -0.05057,0.188486 -0.04147,-0.03442 -0.05418,-2.01e-4 -0.07079,0.19026 -0.01105,0.12772 -0.06631,0.378322 -0.122621,0.556892 l -0.102399,0.324675 H 7.9631874 3.6966913 Z m 8.3116477,0.08376 c 0.0092,-0.0153 0.03637,-0.102969 0.06006,-0.194804 0.02368,-0.09184 0.05155,-0.196196 0.06191,-0.23191 0.01787,-0.06157 -0.192145,-0.06494 -4.0431034,-0.06494 H 4.0491064 l -0.040744,0.116853 c -0.022413,0.06427 -0.040723,0.181152 -0.040723,0.259739 v 0.142886 h 4.0237644 c 2.2130642,0 4.0314142,-0.01253 4.0407532,-0.02783 z m -0.06967,-1.12463 c -0.101274,-0.103242 -0.236387,-0.220249 -0.300268,-0.260015 -0.188731,-0.117494 -0.370876,-0.636889 -0.461104,-1.31482 -0.03611,-0.271387 -0.03315,-0.339367 0.02211,-0.509094 0.214999,-0.66009 3.208211,-7.924792 4.20858,-10.214403 0.432306,-0.98946 0.399994,-0.903587 0.310288,-0.825004 -0.04115,0.03604 -0.09581,0.135669 -0.121497,0.221389 -0.02569,0.08572 -0.463956,1.06643 -0.97394,2.179359 -0.509964,1.112926 -1.227758,2.699751 -1.595079,3.526279 -0.367322,0.826528 -0.873711,1.953612 -1.125299,2.50463 -0.251609,0.55102 -0.554807,1.22642 -0.673754,1.500892 l -0.216284,0.49904 -0.327579,0.168862 -0.327558,0.168862 -3.2510061,0.0099 c -3.6576814,0.0111 -3.4513981,0.02584 -3.7685544,-0.269551 -0.098663,-0.09188 -0.192346,-0.167065 -0.2081903,-0.167065 -0.015863,0 -0.038133,-0.102599 -0.049519,-0.227995 -0.017068,-0.187926 -0.0056,-0.261288 0.064966,-0.417439 0.153528,-0.339632 0.2051383,-0.469474 0.2051383,-0.516014 0,-0.02517 0.072155,-0.128961 0.1603359,-0.230651 0.2026882,-0.233769 1.8151978,-2.662614 2.4999369,-3.765586 1.4861533,-2.393829 2.4607565,-4.265725 2.6983676,-5.182695 0.1326621,-0.51199 0.055309,-0.435863 -0.2328113,0.229095 -0.6129453,1.414657 -1.1170056,2.430649 -1.760897,3.549263 -0.6914057,1.201149 -1.6462883,2.671304 -2.382256,3.667782 -0.5326568,0.721173 -1.1627916,1.805182 -1.4285378,2.457431 -0.082979,0.203687 -0.083863,0.215557 -0.021086,0.284909 0.063617,0.0703 0.059822,0.07561 -0.1326621,0.185995 -0.1089854,0.0625 -0.209456,0.113788 -0.2232727,0.113978 C 2.537199,25.63932 2.501312,25.590073 2.471166,25.529686 2.373969,25.334844 2.4449,25.114766 2.8483075,24.359337 3.2341245,23.636897 3.4610921,23.27462 3.9240034,22.642423 4.6127187,21.701792 5.3496901,20.590774 6.0804971,19.391346 6.699487,18.375441 7.3334373,17.147139 7.91156,15.843594 c 0.6028844,-1.359397 0.6432291,-1.475817 0.6902212,-1.991535 0.057174,-0.627267 0.057798,-0.617375 -0.036447,-0.566933 -0.079083,0.04232 -0.4315635,0.03106 -0.5769978,-0.01844 -0.074184,-0.02525 -0.081152,-0.01145 -0.1049288,0.208143 -0.1048686,0.968444 -0.5751912,2.36368 -1.3801008,4.094172 -0.3262931,0.701545 -0.2370486,0.544835 -0.7327542,1.286572 -0.22267,0.333197 -0.8080829,1.223623 -1.3009165,1.978723 -1.4856719,2.276288 -2.0548178,3.142577 -2.2193107,3.377967 -0.2553832,0.365463 -0.486106,0.720352 -0.554606,0.853028 -0.1007116,0.195125 -0.2141552,0.664368 -0.2141552,0.885807 0,0.110918 -0.016466,0.207236 -0.036691,0.21404 -0.060891,0.02053 -0.1224205,0.617384 -0.100571,0.975428 0.031044,0.508344 0.05424,0.556632 0.4164215,0.866715 l 0.3169153,0.271338 1.00569,0.02218 c 0.9349208,0.02061 1.0069355,0.02697 1.0235232,0.09044 0.017269,0.06576 0.1654162,0.06827 4.0288253,0.06827 h 4.0109515 z m 0.491488,-0.45735 c 0.06545,-0.145213 0.321996,-0.881834 0.57009,-1.636933 1.725672,-5.252167 3.293721,-8.677428 4.557265,-9.954982 0.329326,-0.332966 0.694719,-0.524196 1.058747,-0.55407 0.13708,-0.01125 0.316413,-0.06055 0.457469,-0.125766 0.127602,-0.05899 0.24687,-0.107264 0.265044,-0.107264 0.03988,0 0.07808,0.09155 0.07808,0.187119 0,0.236581 0.728557,0.466859 1.81817,0.574684 1.288748,0.127525 3.433734,0.16723 4.972162,0.09203 2.016983,-0.09859 2.216157,-0.112471 2.400551,-0.167341 0.118765,-0.03534 0.223051,-0.09586 0.27165,-0.157647 0.07149,-0.09088 0.07667,-0.129959 0.05522,-0.416606 -0.01305,-0.173977 -0.03886,-0.358066 -0.05743,-0.409086 -0.11254,-0.308955 -0.278398,-1.946192 -0.244098,-2.409339 0.06059,-0.817899 0.175277,-1.128904 0.534826,-1.450231 0.464318,-0.41497 1.08636,-0.584485 2.391775,-0.651802 L 32.0937,10.600905 V 9.1035252 7.6061436 h -2.152135 c -1.917317,0 -2.152136,0.00626 -2.152136,0.057402 0,0.031571 -0.131738,0.4030914 -0.292757,0.8256001 -0.161018,0.4225088 -0.321614,0.8600349 -0.356878,0.9722776 -0.03526,0.1122448 -0.08302,0.2229471 -0.106114,0.2460054 -0.02312,0.023056 -0.293359,0.1357648 -0.600554,0.2504616 L 25.874587,10.166431 H 25.450293 25.026019 L 24.46342,9.920062 23.900821,9.6736911 23.938494,9.5656636 c 0.02071,-0.059415 0.03153,-0.1141385 0.02408,-0.121609 -0.01807,-0.018134 -0.840836,0.1501738 -0.963819,0.1971839 -0.06639,0.025386 -0.104186,0.07388 -0.120291,0.1543568 -0.05912,0.2955857 -0.302195,0.4559617 -0.691085,0.4559617 -0.332117,0 -0.483154,-0.08393 -0.650237,-0.3613249 -0.03438,-0.057092 -0.04934,-0.057208 -0.204074,-0.00161 -0.234981,0.084437 -1.317163,0.3819409 -1.77654,0.4883839 -0.211787,0.04908 -0.437207,0.111257 -0.500928,0.138183 -0.178248,0.07532 -0.694981,0.472862 -0.852785,0.656073 -0.303581,0.352452 -0.690944,1.063093 -0.973157,1.785324 -0.0742,0.189894 -0.306794,0.708703 -0.516833,1.152906 -0.332117,0.702331 -0.373928,0.811848 -0.32053,0.839909 0.03376,0.01775 0.211665,0.06941 0.395336,0.114809 0.18367,0.0454 0.390255,0.105748 0.459076,0.134112 0.06882,0.02837 0.137542,0.05157 0.152724,0.05157 0.01526,0 0.06545,-0.10436 0.111697,-0.231911 0.04625,-0.12755 0.283438,-0.716139 0.527094,-1.307974 0.243636,-0.591835 0.498538,-1.23469 0.566415,-1.428566 0.252552,-0.7213 0.516431,-1.300863 0.589991,-1.295822 0.02309,0.0016 0.120512,0.0308 0.216525,0.06494 l 0.174554,0.06206 -0.954903,2.252212 c -0.525206,1.238715 -0.963778,2.261073 -0.974603,2.271905 -0.01085,0.01083 -0.227389,-0.0456 -0.481246,-0.125404 -0.511189,-0.160711 -0.921084,-0.24555 -0.96157,-0.199021 -0.01446,0.01669 -0.189695,0.414393 -0.389311,0.883779 -0.199596,0.469387 -0.705061,1.638214 -1.123251,2.597394 -1.286819,2.951528 -2.616171,6.160286 -2.959193,7.142835 -0.13184,0.377585 -0.135233,0.400487 -0.110472,0.742113 0.02914,0.401568 0.136197,0.791732 0.242149,0.882457 0.03963,0.03392 0.07203,0.08173 0.07203,0.106242 0,0.05891 0.166039,0.254187 0.290487,0.341668 l 0.09913,0.06967 0.119026,-0.264027 z m 8.109805,-12.161038 c -0.138125,-0.08419 -0.322157,-0.218188 -0.408992,-0.297761 -0.08682,-0.07957 -0.260826,-0.211223 -0.38666,-0.292558 -0.384331,-0.248401 -0.573464,-0.678147 -0.611861,-1.390175 -0.02484,-0.46054 0.03398,-0.725855 0.251207,-1.133455 0.06326,-0.118646 0.104005,-0.233488 0.09059,-0.255199 -0.02558,-0.0414 0.100893,-0.232363 0.292937,-0.442263 0.175558,-0.191894 0.767015,-0.473628 1.059691,-0.504771 0.132642,-0.01412 0.362422,-0.0579 0.510607,-0.0973 0.23731,-0.0631 0.400356,-0.07164 1.367188,-0.07164 1.062702,0 1.10132,-0.0025 1.209422,-0.07952 0.154793,-0.110217 0.48689,-0.138711 1.644561,-0.141111 l 0.965586,-0.002 0.129951,0.10713 c 0.0715,0.05892 0.254802,0.152069 0.407345,0.206996 0.254601,0.09166 0.291512,0.118673 0.449397,0.32886 0.09461,0.125948 0.240704,0.341997 0.324667,0.480112 l 0.152664,0.251116 v 1.14177 1.141769 l -0.295669,0.33919 c -0.250905,0.287838 -0.336575,0.359043 -0.565852,0.470322 -0.148608,0.07212 -0.370394,0.148262 -0.492834,0.169202 -0.722373,0.123524 -2.185633,0.185186 -5.147758,0.216922 l -0.695081,0.0074 z m 2.438224,-0.969366 c 0,-0.02551 -0.03386,-0.119169 -0.07422,-0.208133 -0.04036,-0.08896 -0.0734,-0.183775 -0.0734,-0.210695 0,-0.02692 -0.06621,-0.204594 -0.147161,-0.394833 -0.113464,-0.266686 -0.168689,-0.475391 -0.241186,-0.911435 -0.05171,-0.311049 -0.09431,-0.653348 -0.09465,-0.760665 0,-0.107317 -0.02986,-0.33815 -0.06561,-0.512962 l -0.06501,-0.317841 -0.110633,0.06718 c -0.0882,0.05356 -0.189996,0.06722 -0.502091,0.06738 -0.215301,1.1e-4 -0.407325,0.01444 -0.426724,0.03183 -0.04071,0.03655 -0.298079,0.103551 -0.527375,0.137299 -0.100933,0.01486 -0.171903,0.04893 -0.196102,0.09415 -0.02086,0.03898 -0.05424,0.07087 -0.07414,0.07087 -0.01988,0 -0.136779,0.06863 -0.259661,0.152507 -0.148989,0.101704 -0.241548,0.195919 -0.277856,0.282824 -0.02996,0.07167 -0.05446,0.135454 -0.05446,0.141734 0,0.0317 0.686486,0.461982 0.737916,0.462526 0.193692,0.0021 0.550771,0.333933 1.014426,0.942843 0.158909,0.208707 0.274241,0.308101 0.613507,0.528755 0.229779,0.149453 0.438492,0.272265 0.463815,0.272913 0.0253,6.03e-4 0.07844,0.0257 0.118063,0.05566 0.08796,0.06654 0.243656,0.07174 0.242552,0.0081 z M 10.257041,25.38215 c 0.06121,-0.0149 0.166098,-0.05564 0.233072,-0.09052 0.138586,-0.07219 0.17871,-0.148169 0.560992,-1.062161 0.140836,-0.336734 0.405899,-0.929497 0.589007,-1.31725 0.183129,-0.387754 0.516853,-1.130795 0.741612,-1.651202 0.224758,-0.520407 0.542135,-1.230051 0.705282,-1.576989 0.388066,-0.825258 0.644212,-1.41486 0.862444,-1.985151 0.201966,-0.527767 0.325792,-0.819691 0.747596,-1.762517 0.394352,-0.881464 0.402264,-0.900727 0.402264,-0.978808 0,-0.169254 -0.251688,-0.260933 -0.975909,-0.355485 -0.581054,-0.07586 -1.151506,-0.07656 -1.226572,-0.0016 -0.07485,0.07485 -0.923174,0.07623 -1.33821,0.0022 -0.164853,-0.02942 -0.5335,-0.07266 -0.819208,-0.0961 -0.285727,-0.02344 -0.536913,-0.05699 -0.5582,-0.07457 -0.02129,-0.01757 -0.154873,-0.04177 -0.296853,-0.05377 -0.1419605,-0.01201 -0.3207314,-0.02971 -0.397264,-0.03936 -0.1369598,-0.01727 -0.1391487,-0.01556 -0.1391487,0.10866 0,0.711255 -0.6872689,2.430724 -1.7073576,4.271684 -1.043464,1.883094 -2.7076256,4.472384 -3.5386822,5.505838 -0.2309639,0.28724 -0.302315,0.42135 -0.4151366,0.780427 l -0.063136,0.20094 0.1256131,0.104183 0.1256132,0.104182 3.135434,-0.0028 c 1.7244881,-0.0016 3.1855188,-0.015 3.2467498,-0.0299 z m 5.9462,-11.161928 c 0.144833,-0.321427 0.307838,-0.692948 0.362221,-0.8256 0.21287,-0.519163 0.765007,-1.594926 0.993741,-1.936146 0.419414,-0.625694 0.876562,-1.129673 1.21356,-1.337886 0.08643,-0.05339 0.825514,-0.2328378 1.873838,-0.4549575 0.791133,-0.1676231 0.812742,-0.1768368 0.969884,-0.4135642 0.155897,-0.2348679 0.290005,-0.3101215 0.552699,-0.3101215 0.201443,0 0.285988,0.038352 0.468113,0.2123439 0.157142,0.1501356 0.09372,0.1559233 1.033424,-0.094267 L 24.208739,8.916778 24.420685,8.2892896 c 0.116557,-0.3451185 0.212569,-0.6400117 0.213352,-0.6553163 0,-0.015303 -1.609879,-0.027829 -3.579268,-0.027829 h -3.580693 v 0.313208 c 0,0.172264 -0.01667,0.3235262 -0.03711,0.3361398 -0.04414,0.027291 -0.05029,0.204082 -0.007,0.204082 0.01647,0 0.06243,-0.024516 0.102037,-0.054479 0.04484,-0.033906 0.15889,-0.054924 0.302055,-0.05566 l 0.23,-0.00121 0.06286,0.1993648 c 0.05982,0.1897937 0.05962,0.203598 -0.0044,0.2875672 -0.03693,0.048512 -0.292275,0.259354 -0.567379,0.4685369 L 17.054827,9.6840314 15.900791,9.6826252 14.746754,9.6812189 14.449921,9.5046835 14.153068,9.32815 V 9.0329194 8.7376889 l 0.23492,-0.1242237 c 0.233373,-0.1234043 0.236506,-0.1239285 0.473575,-0.0792 0.131237,0.024763 0.247753,0.059794 0.258898,0.077842 0.01125,0.018054 0.04852,0.032553 0.08304,0.03223 0.03661,-4.016e-4 -0.0024,-0.042797 -0.0936,-0.1019286 l -0.156362,-0.1013422 -0.01064,-0.2969556 -0.01065,-0.2969576 -4.638216,-0.00556 c -3.3044237,-0.00395 -4.6008418,0.0057 -4.5083235,0.033605 0.07143,0.021544 0.3283816,0.095293 0.5710135,0.1638898 0.7767946,0.2196215 1.2805133,0.5000978 1.8147163,1.0104596 0.3577823,0.3418129 0.814408,0.9382003 0.966189,1.2619574 l 0.1116155,0.238008 -0.064306,1.012693 c -0.035363,0.556983 -0.087999,1.234662 -0.1169376,1.505955 -0.028957,0.271295 -0.052956,0.529185 -0.053357,0.57309 0,0.07582 0.021129,0.08107 0.435239,0.104577 0.3237425,0.01838 0.5267528,0.05269 0.7885018,0.133291 0.273116,0.0841 0.473656,0.116565 0.890539,0.144189 0.29591,0.0196 0.621521,0.05212 0.723557,0.07224 0.277836,0.05479 0.64588,0.04808 1.029669,-0.01878 0.353444,-0.06158 0.763861,-0.05511 1.474948,0.02326 0.173469,0.01912 0.411822,0.04476 0.529644,0.05698 0.194957,0.02022 0.233815,0.04033 0.431383,0.223245 0.119428,0.110561 0.237933,0.25124 0.263356,0.312617 0.04103,0.09904 0.06378,0.111594 0.202287,0.111594 h 0.156058 z M 12.501915,13.909649 C 11.719638,13.76783 10.96417,13.375269 10.192517,12.709599 9.9431177,12.49446 9.8423257,12.429876 9.7559934,12.429876 H 9.6437142 l 0.1123997,-0.222634 c 0.061816,-0.122449 0.1272396,-0.222634 0.1453942,-0.222634 0.018073,0 0.2725529,0.117201 0.5653289,0.260448 0.579409,0.283495 1.098831,0.466521 1.702679,0.599978 0.34258,0.07572 0.483737,0.08555 1.204382,0.0839 0.886785,-0.002 0.884957,-0.0018 1.706876,-0.2649 0.224478,-0.07188 0.564447,-0.205233 0.755488,-0.296346 l 0.347339,-0.165661 0.08866,0.08328 c 0.09774,0.09182 0.127139,0.351793 0.04227,0.373747 -0.02553,0.0066 -0.363646,0.222678 -0.751391,0.480177 -0.398147,0.264394 -0.826136,0.517525 -0.983298,0.581546 -0.267875,0.109124 -0.726509,0.212557 -1.076078,0.242678 -0.226967,0.01956 -0.752957,-0.0087 -1.001854,-0.05382 z m 1.187393,-0.367725 c 0.200117,-0.04164 0.971128,-0.301711 0.951789,-0.321052 -0.0074,-0.0075 -0.17879,0.01446 -0.380655,0.04875 -0.250504,0.04255 -0.596799,0.06336 -1.090617,0.06555 -0.730667,0.0032 -0.997296,-0.02877 -1.536922,-0.184468 -0.10041,-0.02897 -0.18845,-0.04678 -0.195639,-0.03959 -0.02569,0.02568 0.517615,0.24954 0.834711,0.343936 0.253516,0.07547 0.422165,0.09881 0.786535,0.108844 0.255102,0.007 0.538962,-0.0028 0.630798,-0.02197 z M 8.3964168,12.893729 c 0.1636283,-0.163626 -0.00844,-0.375131 -0.2219067,-0.272807 -0.0582,0.02789 -0.1106728,0.07595 -0.1165968,0.106799 -0.028799,0.149465 0.2287548,0.275763 0.3385035,0.166008 z m 0.3713573,-0.747324 c 0.013051,-0.09469 0.023597,-0.48988 0.023597,-0.878209 V 10.56214 L 8.620031,10.243693 C 8.2592368,9.5731103 8.0132917,9.3052155 7.4373982,8.9555946 7.0415605,8.7152785 6.6531528,8.5518647 6.2115686,8.4398468 5.8204496,8.3406334 4.9381242,8.199834 4.7075212,8.199834 h -0.156359 l 0.020082,0.2492807 c 0.021488,0.2675977 0.00703,0.2468368 0.3699117,0.5326127 0.06663,0.052491 0.229699,0.1345499 0.3623611,0.1823533 0.1326421,0.047801 0.3079786,0.1241775 0.3896123,0.1697236 0.081634,0.045544 0.1901571,0.095127 0.2411855,0.1101804 0.1103313,0.032559 0.7377951,0.5704633 0.9996656,0.8570003 0.5838057,0.638767 0.7638013,0.979949 0.8703968,1.649839 0.025642,0.161205 0.057016,0.303474 0.069687,0.316156 0.012649,0.01267 0.076492,0.0044 0.1417997,-0.01834 0.1676246,-0.05843 0.4780332,-0.05098 0.6035667,0.0145 0.058458,0.03049 0.1104511,0.05543 0.1155522,0.05543 0.00502,0 0.019881,-0.07747 0.032874,-0.172153 z M 35.099247,10.475902 c 0.112259,-0.0059 0.554727,-0.02861 0.983298,-0.05044 2.248771,-0.11452 6.060168,-0.4255792 6.135315,-0.5007203 0.01004,-0.010101 -1.992383,-0.014117 -4.449946,-0.00892 l -4.468281,0.00942 -0.01085,0.2875693 -0.01084,0.287567 0.808604,-0.0069 c 0.444738,-0.0038 0.90044,-0.01171 1.012679,-0.01761 z M 32.835817,9.0532638 V 7.6061436 h -0.166983 -0.166982 v 1.4471202 1.4471182 h 0.166982 0.166983 z M 22.401694,9.82506 c 0.0577,-0.057673 0.0577,-0.3356457 0,-0.3933194 -0.06497,-0.064979 -0.347199,-0.055643 -0.416623,0.013776 -0.07979,0.079768 -0.07432,0.286756 0.0094,0.3626541 0.07928,0.071745 0.341355,0.082614 0.407084,0.016889 z m 3.38415,-0.1049228 c 0.0741,-0.061809 0.297476,-0.166394 0.519484,-0.24322 0.214235,-0.074129 0.410236,-0.1516217 0.4356,-0.1722038 0.02534,-0.020582 0.08143,-0.1565437 0.124649,-0.3021348 0.04322,-0.145593 0.168569,-0.5114803 0.278579,-0.8130849 0.110009,-0.3016026 0.200017,-0.5562393 0.200017,-0.5658606 0,-0.00962 -0.499281,-0.017492 -1.109534,-0.017492 h -1.109535 l -0.04282,0.1205929 c -0.02354,0.066327 -0.152302,0.4378474 -0.286129,0.8256001 -0.133807,0.3877547 -0.267694,0.7524773 -0.297496,0.8104964 -0.02982,0.058019 -0.04834,0.111355 -0.04117,0.1185264 0.0072,0.00717 0.150575,0.089108 0.318642,0.1820801 0.290547,0.1607128 0.319746,0.1689465 0.592662,0.1670889 0.261448,-0.00181 0.29868,-0.011628 0.417044,-0.1103912 z m 17.105589,-0.29118 c 0,-0.017853 0.01045,-0.08471 0.02322,-0.1485611 l 0.02324,-0.1160945 -4.819135,0.00942 -4.819115,0.00942 -0.01144,0.1391467 -0.01144,0.1391447 h 4.807427 c 2.722346,0 4.807407,-0.014077 4.807407,-0.032466 z M 17.057131,9.1450408 c 0.230683,-0.1553508 0.25195,-0.1969047 0.04737,-0.092532 -0.134088,0.068404 -0.217469,0.074966 -0.952694,0.074966 -0.767918,0 -0.818625,-0.00446 -1.080737,-0.09492 -0.439355,-0.1516458 -0.643992,-0.066988 -0.341555,0.1413015 l 0.148165,0.102039 h 0.992577 0.992556 z M 43.0156,8.3795364 c 0.01325,-0.248102 0.02426,-0.523612 0.02426,-0.6122442 V 7.6061436 h -4.8794 -4.879381 v 0.6122422 0.6122441 h 4.855143 4.855122 z M 16.95148,8.3521926 C 17.058035,8.2176648 17.065907,8.1869774 17.065907,7.9069248 V 7.6061436 H 16.193944 15.32196 v 0.2900112 0.2900133 l 0.139128,0.077579 c 0.08157,0.045468 0.246669,0.088094 0.398891,0.1029849 0.142864,0.013977 0.399693,0.04893 0.570732,0.077678 0.411341,0.069138 0.389974,0.072922 0.520769,-0.092217 z M 27.657715,7.2008693 c -0.01948,-0.018817 -0.09786,-0.045725 -0.174393,-0.059789 -0.113806,-0.020912 -0.139149,-0.01468 -0.139149,0.034218 0,0.054772 -0.593144,0.059789 -7.068628,0.059789 H 13.206936 V 5.3426992 3.4503133 h 13.841307 13.841328 l 0.03406,-0.08959 c 0.01867,-0.049275 0.06692,-0.1000164 0.107077,-0.1127627 0.04016,-0.012749 0.0983,-0.061773 0.129209,-0.1089452 0.03093,-0.047173 0.116857,-0.1145543 0.191,-0.1497319 l 0.134791,-0.063961 0.16399,0.1511776 0.16401,0.1511775 h 0.613086 0.613065 V 3.338994 c 0,0.085168 0.01687,0.1113171 0.07149,0.1113171 0.07894,0 0.239177,0.3069426 0.299665,0.5739718 0.01868,0.082272 0.06798,0.2482124 0.109648,0.368753 0.06489,0.1876469 0.07573,0.3103846 0.07537,0.8534299 0,0.4777645 -0.01506,0.6800412 -0.05964,0.8197924 -0.03561,0.1114916 -0.067,0.381724 -0.07864,0.6771775 l -0.01948,0.4916493 h -7.872698 c -4.755354,0 -7.886632,-0.013556 -7.907939,-0.034218 z M 43.201982,6.6692266 c 0.01365,-0.1887755 0.04884,-0.4434122 0.07838,-0.5658606 0.03521,-0.1459987 0.05428,-0.4333852 0.05539,-0.834878 0.002,-0.6481068 0.01345,-0.5810628 -0.228936,-1.3172495 L 43.021305,3.6914987 28.243992,3.682179 13.466679,3.6728592 V 5.342784 7.0127087 l 5.408142,-0.0094 5.408143,-0.0094 0.01124,-0.1762504 0.01125,-0.1762523 h 1.316139 1.316159 l 0.265264,0.133588 c 0.508076,0.2558616 -0.164612,0.236625 8.289519,0.2370668 L 43.1772,7.0124625 Z M 39.263707,6.3980845 C 39.227037,6.3866977 39.218844,6.18461 39.226593,5.4827557 l 0.01004,-0.9007212 0.883351,-0.00996 c 0.485825,-0.00548 0.904114,0.00287 0.929518,0.018556 0.0254,0.015684 0.149692,0.1407934 0.276209,0.2780343 l 0.23002,0.2495258 v 0.417444 0.4174421 l -0.250463,0.252534 -0.250464,0.2525321 -0.871984,-0.022727 c -0.47958,-0.012511 -0.89315,-0.029302 -0.919015,-0.037334 z m 1.785998,-0.4272823 c 0.09326,-0.073366 0.09776,-0.093004 0.09776,-0.4267139 0,-0.22022 -0.01446,-0.3498117 -0.03906,-0.3498117 -0.02151,0 -0.100511,-0.041742 -0.175598,-0.092763 -0.131357,-0.089255 -0.158648,-0.092765 -0.721589,-0.092765 H 39.626149 V 5.505348 c 0,0.4836244 0.0022,0.4971819 0.08348,0.5189709 0.04591,0.01231 0.344227,0.022603 0.66289,0.022882 0.530427,4.016e-4 0.587681,-0.00601 0.677187,-0.076398 z M 37.102956,5.4169105 V 4.9716428 h 0.389612 0.389612 V 5.4169105 5.8621783 H 37.492568 37.102956 Z M 25.526003,5.454016 V 5.2313821 h 0.909075 0.909095 V 5.454016 5.6766499 H 26.435078 25.526003 Z M 31.611312,5.379393 V 5.1563475 l 1.530616,0.00968 1.530615,0.00968 0.01104,0.2133559 0.01105,0.213358 h -1.541742 -1.54174 z M 41.48143,3.2855278 c 0,-0.039166 -0.07122,-0.055617 -0.0924,-0.021352 -0.01285,0.020742 0.0028,0.03771 0.03454,0.03771 0.03181,0 0.05786,-0.00737 0.05786,-0.016365 z M 11.685598,5.268488 V 3.3018907 H 12.3906 13.095621 V 5.268488 7.2350872 H 12.3906 11.685598 Z m 1.170384,1.6975837 c 0.0098,-0.025511 0.01345,-0.8058956 0.008,-1.7341873 -0.009,-1.5735028 -0.01406,-1.6886497 -0.07461,-1.7003033 -0.06109,-0.011766 -0.06492,0.090653 -0.06492,1.7341857 0,1.5437832 0.0066,1.7466865 0.05681,1.7466865 0.03125,0 0.06482,-0.020872 0.07461,-0.046381 z M 12.16797,5.268488 V 3.5198212 l -0.120593,0.01163 -0.120593,0.01163 V 5.268493 6.9939045 l 0.120593,0.011628 0.120593,0.011628 z m -2.077911,0 V 3.3018907 h 0.760667 0.760669 V 5.268488 7.2350872 h -0.760669 -0.760667 z m 1.281697,1.6975837 c 0.0098,-0.025511 0.01345,-0.8061205 0.008,-1.7346894 l -0.0096,-1.6883061 -0.120592,-0.01163 -0.120593,-0.01163 v 1.7463171 1.7463149 h 0.11248 c 0.06185,0 0.120471,-0.020871 0.130252,-0.046381 z M 10.535317,5.268488 V 3.5245249 h -0.09276 -0.09276 V 5.268488 7.0124533 h 0.09276 0.09276 z m -1.2986867,0 V 3.3018907 H 9.607687 9.9787438 V 5.268488 7.2350872 H 9.607687 9.2366303 Z m 0.5024935,1.6975837 c 0.00984,-0.025511 0.013452,-0.8061205 0.00804,-1.7346894 l -0.00965,-1.6883061 -0.1205924,-0.01163 -0.1205931,-0.01163 v 1.7463171 1.7463149 h 0.1124794 c 0.061852,0 0.1204926,-0.020871 0.130273,-0.046381 z M 7.715293,5.268488 V 3.3018907 H 8.4388501 9.1624273 V 5.268488 7.2350872 H 8.4388501 7.715293 Z m 1.1873925,0 c 0,-1.7192266 -0.00201,-1.7439631 -0.074223,-1.7439631 -0.073159,0 -0.074203,0.024738 -0.074203,1.7439631 0,1.7192282 0.00201,1.7439653 0.074203,1.7439653 0.073159,0 0.074223,-0.024737 0.074223,-1.7439653 z m -0.7050209,0 V 3.5245249 H 8.0863497 7.9750347 V 5.268488 7.0124533 h 0.111315 0.1113149 z M 4.2866005,7.0773887 C 4.2759535,6.9906542 4.2587058,6.2684848 4.2485035,5.47257 4.2382654,4.6766532 4.2148691,3.9586589 4.1964305,3.8770272 4.177956,3.7953959 4.1505634,3.6826869 4.135461,3.6265638 4.1107589,3.5347501 4.1173882,3.5245249 4.2025934,3.5245249 c 0.05203,0 0.1049289,-0.016688 0.1175404,-0.037107 0.013854,-0.022507 0.2848642,-0.037107 0.6886349,-0.037107 0.6409792,0 0.6657207,-0.00273 0.6657207,-0.074211 0,-0.064758 0.024824,-0.074242 0.1947961,-0.074446 0.1801356,-2.009e-4 0.2002179,-0.0093 0.2665089,-0.1205931 0.1436069,-0.2410614 0.2414064,-0.456092 0.2425314,-0.5332552 0.00201,-0.1363155 0.078501,-0.1666833 0.2920532,-0.115954 l 0.1914829,0.045487 v 0.3066168 0.3066169 h 0.1444499 c 0.094185,0 0.1519008,0.019378 0.1658181,0.05566 0.016064,0.041613 0.082517,0.05566 0.2637179,0.05566 H 7.6781976 V 5.2684901 7.2350893 H 5.9921673 4.3061168 Z M 7.3633552,6.9686744 c 0.010446,-0.026942 0.014457,-0.8087232 0.00904,-1.7372921 L 7.3627525,3.5430762 H 7.2699932 7.1772338 V 5.268488 6.9938995 l 0.083642,0.011888 c 0.046011,0.00653 0.092116,-0.010161 0.1024393,-0.037105 z m -0.7413501,-0.00201 c 0.00984,-0.025874 0.013653,-0.7733867 0.00844,-1.6611388 L 6.6207998,3.691432 H 5.7117247 4.8026295 v 1.6512003 1.6512002 l 0.900721,0.00994 c 0.7004429,0.00773 0.9047374,-6.025e-4 0.9187752,-0.037106 z m -0.00743,-3.6895776 c 0.013653,-0.013596 0.024745,-0.1162977 0.024745,-0.2282031 V 2.8454207 L 6.5326213,2.9926946 C 6.4739623,3.0736956 6.414398,3.1763873 6.4002605,3.220897 c -0.02237,0.070469 -0.011852,0.080927 0.081954,0.080927 0.059183,0 0.1187658,-0.011128 0.1323609,-0.024738 z"
   id="path4306" /></svg>
