<?xml version="1.0" encoding="UTF-8" standalone="no"?>
<!-- Generator: Adobe Illustrator 16.0.0, SVG Export Plug-In . SVG Version: 6.00 Build 0)  -->

<svg
   version="1.1"
   x="0px"
   y="0px"
   width="19.438px"
   height="32px"
   viewBox="0 0 19.438 32"
   enable-background="new 0 0 19.438 32"
   xml:space="preserve"
   id="svg1059"
   sodipodi:docname="hegrenade.svg"
   inkscape:version="1.1.1 (3bf5ae0d25, 2021-09-20)"
   xmlns:inkscape="http://www.inkscape.org/namespaces/inkscape"
   xmlns:sodipodi="http://sodipodi.sourceforge.net/DTD/sodipodi-0.dtd"
   xmlns="http://www.w3.org/2000/svg"
   xmlns:svg="http://www.w3.org/2000/svg"><defs
   id="defs1063" /><sodipodi:namedview
   id="namedview1061"
   pagecolor="#505050"
   bordercolor="#eeeeee"
   borderopacity="1"
   inkscape:pageshadow="0"
   inkscape:pageopacity="0"
   inkscape:pagecheckerboard="0"
   showgrid="false"
   inkscape:zoom="13.700194"
   inkscape:cx="16.678596"
   inkscape:cy="16.569108"
   inkscape:window-width="1440"
   inkscape:window-height="848"
   inkscape:window-x="1358"
   inkscape:window-y="-8"
   inkscape:window-maximized="1"
   inkscape:current-layer="svg1059" />

<g
   id="guides">
</g>
<path
   style="fill:#ffffff;stroke-width:0.0246809"
   d="M 10.827277,31.664466 C 9.7845766,31.467481 8.6276774,30.969411 8.5131518,30.668187 8.5004227,30.634692 8.4688097,30.46704 8.4429136,30.295638 8.3730499,29.833193 8.4027765,29.877467 7.9863159,29.615651 7.2295176,29.139876 6.5070147,28.449932 6.0405226,27.757543 5.9612775,27.63993 5.7705124,27.28825 5.6166,26.976035 5.317653,26.369618 5.1521117,26.069339 4.962253,25.789099 4.829378,25.59297 4.4810245,24.909731 4.3112843,24.51233 4.123015,24.071547 4.0561885,23.73749 4.0326861,23.119622 c -0.011878,-0.312186 -0.022619,-0.401069 -0.048487,-0.401069 -0.042241,0 -0.041718,-0.01909 0.00406,-0.148893 0.033648,-0.09536 0.033468,-0.109984 -0.00171,-0.148969 -0.021509,-0.02377 -0.067775,-0.05043 -0.1027981,-0.05921 C 3.7757431,22.334381 3.60755,22.20229 3.5589458,22.106408 3.5145208,22.018758 3.4646558,21.761394 3.440097,21.492934 3.426179,21.340696 3.48269,21.193971 3.6108752,21.049568 c 0.046727,-0.05264 0.1206999,-0.148452 0.1643823,-0.212923 l 0.079427,-0.117221 -0.053875,-0.364061 c -0.048008,-0.324452 -0.052214,-0.42582 -0.038676,-0.931725 0.034018,-1.270776 0.1260333,-1.813386 0.4897011,-2.887684 0.260393,-0.769215 0.3662121,-0.994978 0.6021415,-1.284631 L 4.963365,15.117019 4.7743095,14.937969 C 4.6703281,14.839491 4.4948051,14.646727 4.3842547,14.509603 L 4.1832526,14.260287 4.0251874,14.546625 c -0.086937,0.157486 -0.4402656,0.775022 -0.7851812,1.372304 -0.3449075,0.597282 -0.7192537,1.258117 -0.8318765,1.468522 l -0.2047658,0.382557 -0.027791,0.876176 c -0.1008449,3.179308 -0.1067009,4.180143 -0.025805,4.40947 0.021247,0.06024 0.01288,0.278929 -0.036817,0.962561 -0.035372,0.486541 -0.068569,0.897199 -0.073786,0.912579 -0.014658,0.04327 -0.2578189,0.174143 -0.4114813,0.221458 l -0.1381839,0.04256 -0.015624,0.184762 c -0.00857,0.101618 -0.015633,0.386778 -0.015633,0.633687 v 0.448924 L 1.242283,26.512655 1.0263251,26.563125 0.989301,26.511245 C 0.87968331,26.357623 0.85758894,26.343006 0.78587766,26.376642 l -0.0676758,0.03174 -2.1842e-4,0.473447 -2.2023e-4,0.473445 -0.28288909,0.09311 c -0.1555876,0.0512 -0.28717186,0.08805 -0.29240866,0.08187 -0.005235,-0.0061 0.079247,-1.899327 0.18774942,-4.207006 L 0.52749014,19.127474 1.932221,15.807871 c 0.7726019,-1.82578 1.4249182,-3.33626 1.4495975,-3.356622 0.040671,-0.03356 0.042494,-0.05546 0.019577,-0.234004 -0.018277,-0.142425 -0.017447,-0.226263 0.00298,-0.302698 0.015561,-0.05814 0.028278,-0.170237 0.028278,-0.249097 0,-0.306925 0.1178812,-0.809473 0.2740916,-1.168503 C 3.9094038,10.031165 4.3026349,9.4763416 4.6842568,9.1177351 4.8721353,8.9411884 5.1930602,8.7115607 5.3078465,8.6715454 5.3873371,8.643836 5.3975815,8.6260073 5.3572179,8.5856446 5.3400326,8.5684593 5.5268731,8.1920496 5.9433939,7.4047702 L 6.5548133,6.2491283 6.7152403,6.1769098 C 7.0307524,6.0348776 7.1105849,6.0268095 8.0233348,6.0446825 c 0.4547499,0.00891 1.3099475,0.032202 1.900442,0.051773 0.5904932,0.019578 1.4290312,0.047256 1.8634192,0.061527 1.336009,0.043895 2.511997,0.1002628 2.553347,0.1223919 0.02166,0.011587 0.164327,0.054244 0.317047,0.094791 0.42582,0.1130485 0.480684,0.1662177 0.484095,0.4691421 0.002,0.1693757 -0.0074,0.209402 -0.08779,0.3777396 -0.169931,0.3558364 -0.353347,0.4858685 -0.785367,0.5567837 -0.284206,0.046653 -0.451106,0.02455 -0.605429,-0.080176 -0.0488,-0.033115 -0.09378,-0.060212 -0.09997,-0.060212 -0.0062,0 -0.0115,0.1027346 -0.01181,0.2283001 -2.19e-4,0.1255659 -0.02279,0.6114741 -0.04994,1.0797971 -0.02715,0.4683225 -0.06022,1.189848 -0.07349,1.603391 -0.01326,0.413545 -0.03083,0.773043 -0.03903,0.798885 -0.02345,0.0739 0.04322,0.03779 0.109813,-0.05948 0.03754,-0.05482 0.07482,-0.08234 0.106183,-0.07837 0.10154,0.01282 0.757958,0.354756 0.869448,0.452892 0.397948,0.35029 1.846301,2.2029 2.559601,3.27403 0.429396,0.644805 0.574325,0.922247 0.723076,1.384205 0.157723,0.489819 0.637046,2.433698 0.706969,2.867085 0.03906,0.242023 0.173087,0.704773 0.271665,0.937879 0.04305,0.101811 0.09273,0.24064 0.110381,0.308513 0.01765,0.06787 0.07338,0.21629 0.123842,0.329812 0.07457,0.16778 0.09417,0.245363 0.104728,0.41458 0.02239,0.358938 -0.04681,0.508194 -0.341712,0.737001 -0.0561,0.04352 -0.0656,0.07318 -0.07907,0.2466 -0.0084,0.108422 -0.05509,0.408153 -0.103709,0.666071 -0.352371,1.869149 -0.939832,3.947991 -1.259022,4.455363 -0.03828,0.06084 -0.148377,0.199483 -0.244661,0.30808 -0.09628,0.108596 -0.443126,0.525089 -0.770759,0.925538 -0.327635,0.400451 -0.700039,0.850263 -0.827564,0.999584 -0.214749,0.251449 -0.237725,0.288881 -0.311241,0.507056 -0.04366,0.129558 -0.07937,0.2582 -0.07937,0.285869 0,0.07015 -0.161244,0.192837 -0.402375,0.306173 -0.11127,0.05231 -0.289559,0.144946 -0.396199,0.205888 -0.223334,0.127624 -1.17836,0.513836 -1.5957,0.645302 -0.547138,0.172348 -0.761622,0.211434 -1.221501,0.222604 -0.305504,0.0074 -0.47254,2.2e-4 -0.614385,-0.02661 z m 0.848854,-0.442994 c 0.670756,-0.05091 1.723604,-0.429363 2.612333,-0.939027 l 0.290431,-0.166557 0.02948,-0.126806 c 0.01622,-0.06974 0.02948,-0.156934 0.02948,-0.193748 0,-0.04021 0.01971,-0.07925 0.04936,-0.09777 0.02715,-0.01694 0.04936,-0.05149 0.04936,-0.07675 0,-0.02525 0.04888,-0.09755 0.108631,-0.16066 0.05975,-0.06311 0.311448,-0.370186 0.559335,-0.682402 0.599981,-0.755683 0.918524,-1.131597 1.223486,-1.443845 0.220967,-0.226245 0.267163,-0.288921 0.363828,-0.493621 0.132504,-0.280583 0.295205,-0.74902 0.458627,-1.320437 0.207827,-0.726671 0.245543,-0.882444 0.347525,-1.435264 0.05471,-0.29657 0.154796,-0.822435 0.222414,-1.168588 0.06761,-0.34615 0.129994,-0.705279 0.138619,-0.798063 l 0.01567,-0.168701 -0.253296,0.127111 c -1.296076,0.650401 -2.974206,1.027791 -5.159335,1.160271 -0.524729,0.03182 -2.04944,0.03178 -2.653212,-7.4e-5 C 8.5040709,23.151901 6.6844883,22.903033 4.8041976,22.51098 4.6422667,22.47721 4.5001032,22.45557 4.4882775,22.46288 c -0.050545,0.03124 0.02678,1.021981 0.1066368,1.366308 0.087939,0.379177 0.2615087,0.75615 0.5852398,1.271073 0.1024118,0.162896 0.2963971,0.523856 0.43108,0.802136 0.1346837,0.278277 0.3315109,0.684459 0.4373886,0.90262 0.3451979,0.711266 0.753714,1.241502 1.3823499,1.794234 0.3294649,0.289686 0.7405469,0.60659 1.0930103,0.842603 0.2213419,0.148215 0.2983719,0.228344 0.3262361,0.339366 0.014377,0.05725 0.040315,0.06824 0.3039849,0.12872 0.8954861,0.205423 2.2513391,0.300885 3.0648911,0.215792 0.550901,-0.05762 1.218431,-0.161764 1.851079,-0.288794 0.04751,-0.0096 0.08083,-0.01119 0.07405,-0.0037 -0.02079,0.02302 -0.708498,0.184865 -1.061286,0.249763 -0.569782,0.104816 -0.969145,0.142401 -1.65363,0.155628 -0.899866,0.01738 -1.409244,-0.03943 -2.2390393,-0.24978 -0.1376948,-0.0349 -0.2577978,-0.06346 -0.2668954,-0.06346 -0.02513,0 0.014355,0.347618 0.049066,0.431919 0.060704,0.147463 0.2353473,0.2931 0.4706161,0.392454 0.6725986,0.284035 1.6251386,0.523669 1.9615706,0.493478 0.04751,-0.0042 0.169681,-0.01407 0.271491,-0.0218 z m -0.678728,-0.170776 c -0.48909,-0.09517 -1.3022157,-0.351484 -1.6205502,-0.510829 -0.1574686,-0.07882 -0.2304273,-0.165144 -0.2563423,-0.303291 -0.015913,-0.08478 -0.01297,-0.09305 0.028729,-0.08103 0.1395712,0.04025 0.7577228,0.171202 0.9654895,0.204535 0.330819,0.05308 1.346522,0.07305 1.832892,0.03604 0.725037,-0.05517 1.391619,-0.16554 2.152052,-0.356302 0.223986,-0.05619 0.316054,-0.07043 0.316054,-0.04887 0,0.03812 -0.399112,0.263214 -0.828517,0.467252 -0.96231,0.457261 -2.029756,0.70147 -2.589808,0.592493 z m -0.02468,-1.066316 c -0.0543,-0.0057 -0.28198,-0.02736 -0.50596,-0.04815 C 9.9995209,29.892849 9.4506355,29.817051 9.1917416,29.760163 9.0358554,29.72591 9.0100719,29.71229 8.9845714,29.650728 8.9484708,29.563583 8.8082467,29.434917 8.6496085,29.343386 8.1677957,29.065395 7.2357529,28.234241 6.811365,27.704123 6.4491634,27.251687 6.2913325,26.979377 5.9244534,26.173898 5.7740415,25.843678 5.5502302,25.422725 5.3398909,25.074444 5.1442466,24.750495 4.9086638,24.276054 4.8441145,24.07601 4.7626382,23.823493 4.7163979,23.529568 4.6876271,23.081333 c -0.01464,-0.228069 -0.022511,-0.418776 -0.017492,-0.423789 0.00505,-0.005 0.1201376,0.01778 0.2558323,0.05066 1.2817934,0.310575 3.1861888,0.588995 4.8250503,0.705414 0.8580893,0.06096 2.5803193,0.03433 3.5664123,-0.05513 1.764064,-0.160045 3.185588,-0.491279 4.378543,-1.020259 0.141244,-0.06263 0.259839,-0.110843 0.263544,-0.10714 0.0037,0.0037 -0.0091,0.08237 -0.0285,0.174812 -0.01938,0.09244 -0.07946,0.431835 -0.133527,0.754208 -0.239092,1.425715 -0.487855,2.449762 -0.776561,3.196753 -0.179022,0.463197 -0.240738,0.564253 -0.52805,0.864648 -0.366683,0.38338 -0.521981,0.562243 -1.042497,1.200699 -0.552826,0.678089 -0.713798,0.882144 -0.730766,0.926367 -0.0071,0.01859 -0.04788,0.04285 -0.09056,0.0539 -0.05958,0.01543 -0.08045,0.03662 -0.08994,0.09127 -0.01225,0.07055 -0.01602,0.07199 -0.431918,0.164808 -0.481945,0.107562 -1.163833,0.225006 -1.628934,0.280561 -0.308376,0.03683 -1.301082,0.06667 -1.505543,0.04526 z m 3.202884,-0.172595 c 0.0082,-0.0082 0.02949,-0.0091 0.0473,-0.002 0.01969,0.0079 0.01385,0.01372 -0.0149,0.0149 -0.02602,0.0011 -0.0406,-0.0048 -0.03239,-0.01297 z M 0.56348794,27.293674 c 0.0550035,-0.01475 0.055536,-0.01913 0.055536,-0.46336 v -0.448479 l 0.12432115,-0.122453 c 0.10185221,-0.10032 0.12854887,-0.115766 0.14770804,-0.08546 0.0128618,0.02034 0.0235575,0.04915 0.0237651,0.06402 6.3993e-4,0.04855 0.0910844,0.110521 0.18298197,0.125435 0.19069,0.03094 0.2290156,-0.08799 0.2532915,-0.786101 l 0.016373,-0.471069 0.1255658,-0.06047 c 0.069057,-0.03326 0.1533311,-0.07468 0.1872683,-0.09204 0.033937,-0.01737 0.1061278,-0.05258 0.1604273,-0.07826 l 0.098724,-0.0467 0.015516,-1.604243 c 0.015208,-1.572762 0.056935,-3.69508 0.082713,-4.208098 0.00713,-0.142531 0.025236,-0.486586 0.040156,-0.764565 l 0.027141,-0.505417 0.099352,-0.197993 C 2.3285407,17.300876 2.9103217,16.2347 3.4754392,15.218974 3.9928641,14.28897 4.0412598,14.20552 4.1003818,14.14139 4.145493,14.092451 4.1447258,14.089482 4.0587997,13.980963 3.8603131,13.73031 3.6824606,13.304724 3.5707224,12.813054 l -0.055193,-0.242869 -0.5089496,1.156069 c -0.2799241,0.635838 -0.6492204,1.489261 -0.8206592,1.896501 -0.171437,0.407236 -0.382085,0.895921 -0.4681031,1.085966 -0.086016,0.190043 -0.2786352,0.639856 -0.4280419,0.999583 -0.31571162,0.760133 -0.61494017,1.436638 -0.6437588,1.455422 -0.0110657,0.0072 -0.0266082,0.396273 -0.034569,0.864596 -0.007943,0.468323 -0.02585,1.034753 -0.0397589,1.258734 -0.0139179,0.22398 -0.0369428,0.757092 -0.0511946,1.18469 -0.095748,2.873502 -0.11802833,3.388126 -0.17257876,3.985992 -0.0123744,0.135745 -0.028964,0.382864 -0.0368345,0.549151 l -0.014306,0.302343 0.10558981,-4.39e-4 c 0.0580723,-2.19e-4 0.13057968,-0.007 0.16112135,-0.01521 z M 0.52847666,26.15539 c 0.0181781,-0.03033 0.0643002,-0.833825 0.0903072,-1.573416 0.0133673,-0.380088 0.0358055,-0.896541 0.0498678,-1.14767 0.0140713,-0.251128 0.0358958,-0.878645 0.048523,-1.394479 0.0126181,-0.515834 0.041194,-1.3585 0.0634788,-1.872591 l 0.040517,-0.93471 L 0.94340849,18.9616 C 1.1371104,18.532284 1.3317664,18.07127 1.6552574,17.275702 c 0.1654339,-0.406864 0.4900739,-1.167351 0.7214163,-1.689971 0.2313425,-0.522623 0.479223,-1.094607 0.5508422,-1.271077 0.2295491,-0.565598 0.5236257,-1.227071 0.5359649,-1.205555 0.00659,0.01148 0.031708,0.08195 0.055843,0.15661 0.056303,0.174205 0.2025843,0.490081 0.3131148,0.676134 l 0.086432,0.145491 -0.091327,0.150682 c -0.050229,0.08287 -0.5026008,0.894817 -1.0052676,1.804312 l -0.9139386,1.65363 -0.074409,2.54215 c -0.055013,1.879469 -0.071187,2.769269 -0.062044,3.413416 0.00677,0.479199 0.00533,0.918031 -0.00325,0.975185 -0.013936,0.09293 -0.028513,0.111182 -0.1379276,0.172685 -0.067288,0.03782 -0.1851897,0.0904 -0.2620024,0.116823 -0.076819,0.02643 -0.1547554,0.06058 -0.1732042,0.07588 -0.02594,0.02154 -0.033955,0.132001 -0.035363,0.487583 -0.00199,0.501685 -0.018458,0.672305 -0.066394,0.688211 -0.017447,0.0058 -0.046492,-0.02599 -0.065853,-0.07203 C 1.0088362,26.050551 0.9613156,25.98306 0.92229412,25.945887 L 0.85134192,25.878297 0.70508253,26.0261 c -0.0804384,0.08129 -0.15559301,0.147802 -0.16699807,0.147802 -0.0114177,0 -0.0157411,-0.0083 -0.009631,-0.0185 z M 12.539968,22.323545 c 1.130499,-0.06131 2.022118,-0.184728 3.04811,-0.421899 0.9916,-0.229223 1.881922,-0.568114 2.655426,-1.010757 l 0.219104,-0.125383 -0.06453,-0.127954 c -0.03549,-0.07037 -0.07248,-0.133504 -0.08218,-0.140293 -0.0097,-0.0068 -0.02434,-0.06251 -0.03253,-0.12384 -0.0082,-0.06133 -0.05519,-0.215895 -0.104471,-0.343489 -0.112602,-0.291563 -0.233411,-0.747123 -0.23362,-0.880944 -9.9e-5,-0.05603 -0.01774,-0.143972 -0.03924,-0.195413 -0.02148,-0.05145 -0.115704,-0.424592 -0.209356,-0.829221 -0.223934,-0.967517 -0.349255,-1.462923 -0.44246,-1.749054 -0.108735,-0.333806 -0.306336,-0.72882 -0.54313,-1.085741 -0.255082,-0.38449 -0.825868,-1.15173 -1.145402,-1.539629 -0.17379,-0.210971 -0.232672,-0.298725 -0.209893,-0.312802 0.02551,-0.01576 0.02497,-0.02833 -0.0027,-0.06464 -0.06699,-0.08785 -0.33441,-0.394105 -0.567361,-0.649759 -0.129877,-0.142533 -0.316035,-0.355434 -0.413686,-0.473113 -0.09765,-0.117679 -0.213844,-0.239314 -0.258205,-0.270303 -0.04436,-0.03099 -0.08656,-0.0647 -0.09376,-0.07491 -0.0072,-0.0102 -0.129376,-0.06493 -0.271491,-0.121595 -0.142116,-0.05666 -0.262672,-0.106799 -0.267906,-0.11142 -0.0052,-0.0046 0.0085,-0.03585 0.03045,-0.0694 l 0.03998,-0.061 -0.17533,0.01471 -0.175332,0.0147 0.01469,-0.108722 c 0.03937,-0.291418 0.06723,-0.769076 0.10278,-1.7623519 0.0392,-1.095306 0.07107,-1.8078177 0.09964,-2.2274669 0.01357,-0.1993119 0.02129,-0.2282996 0.06081,-0.2282996 0.06147,0 0.147574,0.1149027 0.147574,0.1969523 0,0.1177187 0.179766,0.2226262 0.381488,0.2226262 0.128972,0 0.454998,-0.083933 0.581072,-0.1495912 0.113124,-0.058915 0.248676,-0.1872049 0.333943,-0.3160517 0.05455,-0.082427 0.07068,-0.1396713 0.07937,-0.2816724 0.006,-0.098024 -8.68e-4,-0.2083131 -0.0151,-0.2450867 -0.03568,-0.0916 -0.164134,-0.1512506 -0.485054,-0.2252317 C 14.208461,6.3779063 13.654585,6.3487245 12.070991,6.3174339 11.138553,6.2990203 9.4992992,6.2394186 8.7020273,6.1949653 7.4628109,6.1258698 7.2382246,6.1221349 7.0607388,6.1676667 6.7467434,6.2482152 6.7159773,6.2733818 6.5060443,6.6214182 6.2477886,7.0495591 5.7629136,8.0142116 5.5130663,8.5969305 c -0.00812,0.018966 0.048956,0.00109 0.1346178,-0.042137 0.5325543,-0.2688354 1.3778,-0.4474079 2.1177283,-0.4474079 0.3433301,0 0.3566114,-0.00197 0.3566114,-0.050715 0,-0.074073 0.1697666,-0.3091886 0.3495043,-0.4840428 C 8.7794195,7.2731048 9.3733607,6.9379529 9.9047386,6.7638845 10.319706,6.6279526 10.432923,6.6139381 10.841597,6.6479153 c 0.416703,0.034645 1.045359,0.1156249 1.275805,0.1643425 l 0.163377,0.034539 -0.160427,-0.00983 c -0.08824,-0.0054 -0.382554,-0.037425 -0.654046,-0.071159 -0.756245,-0.093968 -0.85901,-0.099038 -1.108563,-0.05469 -0.305281,0.054252 -0.3831281,0.077063 -0.6931543,0.2031114 -0.3358961,0.1365665 -0.625489,0.2908677 -0.9069998,0.4832634 -0.2978472,0.2035679 -0.462524,0.3906368 -0.6054228,0.68776 -0.00393,0.00819 0.079295,0.022116 0.1849641,0.030951 0.4270941,0.035699 1.0654417,0.2438134 1.5250759,0.497208 0.5445799,0.3002243 1.0783359,0.7809595 1.4118179,1.2715756 0.21246,0.3125688 0.500794,0.9874398 0.500794,1.1721518 0,0.03373 0.0038,0.06133 0.0084,0.06133 0.0046,0 0.09551,-0.02228 0.201984,-0.04951 0.106474,-0.02723 0.318798,-0.05666 0.471827,-0.0654 l 0.278239,-0.01589 0.04274,-0.113533 c 0.03796,-0.10086 0.04441,-0.269208 0.05768,-1.5080147 l 0.01495,-1.3944791 0.0035,1.3080971 c 0.0031,1.1582557 -0.01126,1.6920917 -0.04655,1.7273727 -0.006,0.0061 -0.115992,0.02265 -0.244256,0.03682 -0.267352,0.02955 -0.602254,0.09048 -0.683641,0.124394 -0.0669,0.02787 -0.07027,0.0861 -0.01701,0.294013 0.07252,0.283076 0.04175,0.863961 -0.06482,1.223731 -0.02809,0.09483 -0.07109,0.250165 -0.09554,0.345187 -0.08933,0.347122 -0.31811,0.822441 -0.561277,1.16612 -0.589355,0.832972 -1.5547042,1.428963 -2.6118163,1.61249 -0.2685788,0.04663 -0.4034706,0.05522 -0.8279371,0.05274 -0.7230982,-0.0042 -1.1596433,-0.0784 -1.6409598,-0.278772 -0.2103343,-0.08756 -0.4966722,-0.259896 -0.6616205,-0.3982 l -0.1194246,-0.100136 0.018395,0.145232 c 0.010118,0.07988 0.017916,0.156338 0.017294,0.169914 -6.399e-4,0.01357 -0.073308,0.132895 -0.1615753,0.265157 -0.1882143,0.282038 -0.348471,0.635114 -0.474322,1.04502 -0.04966,0.161751 -0.1285416,0.405157 -0.1752883,0.540902 -0.1103293,0.320371 -0.1506685,0.541658 -0.1806271,0.990769 -0.036067,0.540718 -0.056394,1.982593 -0.031951,2.267131 l 0.021202,0.246809 -0.1173794,0.23447 c -0.064553,0.128959 -0.1320716,0.254189 -0.150034,0.278292 -0.019315,0.02592 -0.029154,0.08788 -0.024081,0.151695 l 0.00857,0.107879 0.1396335,0.01677 c 0.076801,0.0092 0.3562115,0.05996 0.6209162,0.112732 1.314062,0.261996 2.542607,0.438714 3.6774759,0.528985 0.2647048,0.02105 0.6700916,0.05537 0.9008582,0.07624 0.9072276,0.08207 2.2847336,0.108163 3.1715156,0.06007 z M 10.096543,22.124076 C 9.9132879,22.113317 9.6356266,22.092729 9.4795191,22.078351 9.3234107,22.063973 8.9957701,22.04065 8.751428,22.026534 7.7777057,21.970276 7.0081842,21.882819 6.0241703,21.716566 5.4616027,21.621519 4.3176033,21.402968 4.2310057,21.373998 c -0.037123,-0.01242 0.1659276,-0.428497 0.2391561,-0.490061 0.043008,-0.03616 0.050509,-0.06093 0.037331,-0.123404 -0.052612,-0.249544 -0.062639,-0.416062 -0.062766,-1.041862 -2.202e-4,-0.792224 0.03586,-1.610367 0.087244,-1.981219 0.028738,-0.207464 0.053496,-0.289832 0.1335094,-0.444261 0.054029,-0.104266 0.1380278,-0.328406 0.1866799,-0.49809 0.1544747,-0.538779 0.3512346,-0.955627 0.566604,-1.200375 l 0.103151,-0.117227 0.072189,0.05137 c 0.1246551,0.0887 0.4590517,0.245569 0.6645337,0.311752 0.4202263,0.135352 0.8282617,0.187738 1.4700934,0.188739 0.9952953,0.0015 1.7866044,-0.227635 2.5430908,-0.73655 0.618111,-0.415825 1.074526,-0.947837 1.357923,-1.582832 0.104057,-0.233159 0.122705,-0.260011 0.185916,-0.267742 0.08998,-0.01099 2.999969,0.06583 3.229433,0.08528 l 0.172766,0.01464 0.158289,0.198943 c 0.323098,0.40608 0.98887,1.299255 1.194693,1.602756 0.348663,0.514128 0.522028,0.901832 0.654466,1.463609 0.106404,0.451349 0.478114,2.078428 0.510279,2.233633 0.03841,0.185367 0.202839,0.815194 0.283503,1.085967 0.03033,0.101811 0.09899,0.272333 0.152572,0.378941 0.05359,0.106608 0.09395,0.197279 0.0897,0.201494 -0.0322,0.03191 -0.632201,0.330029 -0.871567,0.433048 -1.245444,0.536007 -2.886656,0.869932 -4.842704,0.985309 -0.483965,0.02854 -1.952654,0.02749 -2.450548,-0.0017 z m 3.73918,-8.921219 c -0.898498,-0.03158 -1.831713,-0.07941 -1.928508,-0.09886 -0.05207,-0.01047 -0.05146,-0.01481 0.04775,-0.337849 l 0.100505,-0.327253 0.0015,-0.431918 c 8.82e-4,-0.237553 -0.0076,-0.488698 -0.01874,-0.558098 L 12.0179,11.3227 12.129777,11.29453 c 0.06153,-0.0155 0.214805,-0.03882 0.340605,-0.05184 0.211626,-0.02188 0.232585,-0.02004 0.280291,0.02477 0.02836,0.02664 0.05802,0.04844 0.06591,0.04844 0.0079,0 0.04786,-0.05275 0.08883,-0.117234 0.117213,-0.184477 0.14045,-0.478878 0.139775,-1.7708666 -2.19e-4,-0.5972816 -0.0099,-1.3608508 -0.02123,-1.6968218 -0.0199,-0.5885352 -0.02248,-0.6108547 -0.07028,-0.6108547 -0.02873,0 -0.135484,-0.083829 -0.253684,-0.1992004 -0.173936,-0.1697829 -0.22649,-0.2061699 -0.35597,-0.2464683 -0.191063,-0.059466 -0.555711,-0.1178572 -1.001149,-0.1603151 -0.326185,-0.031092 -0.280576,-0.032494 0.814476,-0.025048 1.114979,0.00757 1.461289,0.025084 2.201374,0.1112816 0.254328,0.029623 0.446733,0.1082587 0.467519,0.1910831 0.05941,0.2366955 -0.141556,0.5154891 -0.443112,0.6147204 -0.07034,0.023149 -0.135702,0.054146 -0.145247,0.068887 -0.0095,0.014752 -0.08251,0.0268 -0.16214,0.0268 -0.169332,0 -0.262676,-0.049212 -0.288337,-0.1520164 -0.0095,-0.03811 -0.03163,-0.085951 -0.04917,-0.1063119 -0.01754,-0.020368 -0.0427,-0.07034 -0.05592,-0.1110643 l -0.02405,-0.074043 -0.207476,0.00894 c -0.114113,0.00492 -0.20992,0.011063 -0.212903,0.013652 -0.003,0.0026 -0.01719,0.3762033 -0.03154,0.8302305 -0.01435,0.4540254 -0.03646,0.9254608 -0.04911,1.0476307 -0.01265,0.1221722 -0.0345,0.5886429 -0.04854,1.0366055 -0.03427,1.0930727 -0.04457,1.2602927 -0.08737,1.4191597 -0.02013,0.07466 -0.03672,0.182949 -0.03687,0.240642 -2.2e-4,0.09476 0.0055,0.104894 0.05981,0.104894 0.03305,0 0.08838,-0.01076 0.122956,-0.0239 0.05038,-0.01916 0.06741,-0.01541 0.08577,0.01892 0.0126,0.02355 0.06556,0.05749 0.117684,0.07543 0.476033,0.163785 0.563049,0.207141 0.719825,0.358666 0.08586,0.08298 0.213326,0.22308 0.283246,0.311315 0.06992,0.08824 0.23568,0.284099 0.368355,0.435254 0.132675,0.151154 0.241228,0.281654 0.241228,0.290001 0,0.01758 0.01645,0.01791 -1.14767,-0.023 z M 11.840085,10.697773 C 11.504572,9.6361478 10.599243,8.7085561 9.4565438,8.2556151 9.1986608,8.1533964 8.7554212,8.0283378 8.5354686,7.9957372 8.4690221,7.9858801 8.4182347,7.9652885 8.4182347,7.9481908 c 0,-0.050864 0.3236199,-0.3459421 0.5156206,-0.470147 0.09983,-0.06458 0.3050924,-0.1758814 0.4561409,-0.2473381 0.2678367,-0.126705 0.7829508,-0.3080252 0.8750678,-0.3080252 0.02531,0 0.08269,-0.018281 0.127505,-0.040649 0.06898,-0.034407 0.134891,-0.038325 0.42954,-0.025509 0.191435,0.00832 0.498,0.038234 0.681257,0.066455 0.183256,0.028225 0.438705,0.064177 0.567663,0.079895 l 0.23447,0.028577 0.151147,0.1529797 0.15115,0.1529799 0.02756,0.4034902 c 0.02125,0.3109181 0.02522,2.4768107 0.0055,2.9747257 -0.0035,0.09048 -0.06787,0.131298 -0.207514,0.131766 -0.0703,2.19e-4 -0.205555,0.0169 -0.300572,0.03702 -0.09506,0.02013 -0.18391,0.03657 -0.197491,0.03654 -0.01358,-2.4e-5 -0.05642,-0.10046 -0.09521,-0.223183 z M 5.8514048,8.2739688 c 0,-0.026942 0.6037957,-1.216098 0.7514354,-1.4799243 C 6.691808,6.6350594 6.7647095,6.4962301 6.764841,6.4855321 6.7650606,6.4748437 6.8660128,6.4282712 6.9893789,6.3820602 l 0.2243032,-0.084023 0.435678,0.016286 c 0.8776779,0.032805 2.7734469,0.1375331 2.7906639,0.154166 0.0057,0.00547 -0.02766,0.010141 -0.07404,0.010405 -0.09275,4.39e-4 -0.5676322,0.1470031 -0.8684692,0.2678915 C 8.8652736,7.0008473 8.3699335,7.3537886 8.10839,7.7365697 l -0.1184455,0.173353 -0.2486248,1.977e-4 c -0.577308,4.388e-4 -1.3150983,0.1434475 -1.8467244,0.3578733 -0.023756,0.00959 -0.043189,0.012268 -0.043189,0.00598 z M 12.816271,7.8482203 c -4.39e-4,-0.040722 0.0046,-0.060373 0.01137,-0.043662 0.0068,0.016701 0.0072,0.05003 8.67e-4,0.074045 -0.0062,0.024011 -0.01179,0.010336 -0.01229,-0.03038 z m -0.02505,-0.4469866 c -0.0054,-0.093899 -0.09843,-0.2373382 -0.235169,-0.3627457 -0.05636,-0.05169 -0.08412,-0.085011 -0.06168,-0.074045 0.02243,0.010976 0.103513,0.079407 0.180183,0.1520909 0.135559,0.128509 0.13915,0.1353133 0.130263,0.2468118 -0.0058,0.072728 -0.01076,0.086582 -0.01358,0.037886 z M 10.806127,6.4620754 c 0.01697,-0.00685 0.04473,-0.00685 0.0617,0 0.01697,0.00685 0.0031,0.012446 -0.03085,0.012446 -0.03394,0 -0.04782,-0.0056 -0.03085,-0.012446 z M 8.28249,15.475757 c 0.4898503,-0.100412 1.1278739,-0.374184 1.5862842,-0.680666 0.2917128,-0.195034 0.4382468,-0.327373 0.6686078,-0.603842 0.706036,-0.847344 0.962387,-1.725368 0.793009,-2.716125 C 11.130838,10.307856 10.454759,9.4086797 9.3572432,8.8508599 8.8269121,8.5813178 8.3793133,8.4659563 7.7497886,8.4365709 7.1658695,8.4093137 6.6036863,8.5032954 6.0488535,8.7209242 4.9338486,9.1582793 4.0596057,10.222427 3.8617618,11.383094 c -0.049245,0.288884 -0.034957,1.05654 0.024469,1.314951 0.255909,1.11285 1.1186837,2.088256 2.2558198,2.550316 0.2882429,0.117123 0.7445593,0.226422 1.1408568,0.273265 0.1837829,0.02172 0.8100285,-0.007 0.9995843,-0.04587 z m -1.0859668,-0.16165 c -0.1079427,-0.01786 -0.098665,-0.01949 0.074043,-0.01308 0.3013661,0.01121 0.8246293,-0.02972 1.0924702,-0.08548 0.8954101,-0.186405 1.6145899,-0.626217 2.1050436,-1.287335 0.138834,-0.187144 0.433896,-0.729143 0.409969,-0.753069 -0.0069,-0.0069 0.02131,-0.08643 0.06254,-0.176889 0.04122,-0.09046 0.106956,-0.247768 0.146067,-0.349576 0.0562,-0.146315 0.06806,-0.164418 0.05659,-0.08639 -0.08905,0.605611 -0.443108,1.238022 -0.988489,1.765612 -0.4841985,0.468404 -1.072071,0.782333 -1.7612069,0.940502 -0.2338989,0.05369 -0.9772886,0.08206 -1.1970305,0.0457 z m -0.2411091,-0.04074 c 0.016701,-0.0068 0.050028,-0.0072 0.074043,-8.68e-4 0.024012,0.0062 0.010336,0.01179 -0.03038,0.01229 -0.040726,4.39e-4 -0.060372,-0.0046 -0.043662,-0.01137 z m -0.1229365,-0.02484 c 0.016966,-0.0069 0.044735,-0.0069 0.061702,0 0.016966,0.0069 0.00306,0.01245 -0.03085,0.01245 -0.033937,0 -0.04782,-0.0056 -0.03085,-0.01245 z m -0.1105525,-0.02325 c 0.00821,-0.0082 0.02949,-0.0091 0.047307,-0.002 0.019687,0.0079 0.013847,0.01372 -0.014903,0.0149 -0.026015,0.0011 -0.040594,-0.0048 -0.032394,-0.01297 z M 6.3450265,15.11981 C 5.8923271,14.957094 5.3512779,14.652984 5.3774258,14.575946 c 0.0065,-0.01919 0.092926,-0.155419 0.1920385,-0.302747 0.1835398,-0.272832 0.2927878,-0.461268 0.4834938,-0.833973 0.074719,-0.146026 0.1329998,-0.226333 0.1933439,-0.266429 0.047511,-0.03156 0.1011389,-0.09299 0.1191698,-0.136501 0.018044,-0.04351 0.080812,-0.129084 0.1395078,-0.19017 0.1209476,-0.125875 0.2571562,-0.342046 0.420676,-0.667632 0.061609,-0.122674 0.1273041,-0.228909 0.1459911,-0.236077 0.018678,-0.0072 0.046861,-0.04416 0.062616,-0.08219 0.02324,-0.0561 0.048433,-0.07186 0.1335486,-0.08353 0.057701,-0.0079 0.1344745,-0.02562 0.1706072,-0.03936 0.057756,-0.02196 0.063795,-0.03449 0.049947,-0.103729 l -0.015761,-0.07875 0.2938723,0.01585 c 0.1616278,0.0087 0.7770043,0.02196 1.3674973,0.02942 0.9605839,0.01214 1.4751769,0.03364 1.8325699,0.07654 l 0.117233,0.01407 -4.38e-4,-0.119551 c -0.0013,-0.395797 -0.209786,-0.937351 -0.582537,-1.514025 -0.126906,-0.1963308 -0.156006,-0.2533959 -0.0944,-0.185106 0.431021,0.477754 0.722152,1.200487 0.768638,1.908148 l 0.01541,0.234657 -0.21994,-0.01683 c -0.75536,-0.05783 -1.0665832,-0.0488 -2.0093177,0.05829 -0.2239804,0.02545 -0.6682384,0.05911 -0.9872423,0.07482 -0.5310925,0.02615 -0.583647,0.03275 -0.6231971,0.07833 -0.023755,0.02738 -0.043191,0.06601 -0.043191,0.08585 0,0.06768 -0.4790493,0.827965 -0.5388688,0.855219 -0.031686,0.01444 -0.08575,0.08177 -0.1201332,0.149622 -0.092227,0.182003 -0.6036754,0.992969 -0.7890129,1.251079 -0.088381,0.123089 -0.1569198,0.226137 -0.152304,0.228994 0.1178379,0.07301 0.6744589,0.329378 0.810525,0.373306 0.1018101,0.03287 0.1628943,0.05969 0.1357457,0.05959 -0.027148,-9.8e-5 -0.1659803,-0.04209 -0.3085123,-0.09332 z M 7.0484359,15.08082 C 6.7905136,15.04513 6.4994966,14.966503 6.2856786,14.874724 6.1194787,14.803383 5.9748112,14.724018 5.9748112,14.70418 c 0,-0.007 0.1149753,-0.191997 0.2555053,-0.41097 0.2826371,-0.44041 0.4515166,-0.717397 0.5286608,-0.867077 0.027984,-0.0543 0.072697,-0.111873 0.099359,-0.127946 0.036891,-0.02224 0.3189931,-0.02397 1.1805731,-0.0072 1.8734014,0.0364 2.5759386,0.05594 2.5759386,0.07167 0,0.03628 -0.208102,0.366076 -0.318703,0.505071 -0.583421,0.733195 -1.3958638,1.137221 -2.4606716,1.223687 -0.3795988,0.03082 -0.4995366,0.02922 -0.7870371,-0.01055 z M 5.0001634,14.296145 c -0.6299863,-0.647159 -0.9419422,-1.29149 -0.9828465,-2.030018 -0.00677,-0.12217 -0.00731,-0.188809 -0.00135,-0.148085 0.072342,0.486896 0.1660549,0.825224 0.3238015,1.169046 l 0.072089,0.157123 0.049335,-0.09542 c 0.084536,-0.163502 0.4680048,-0.813936 0.550891,-0.934409 0.043405,-0.06308 0.085439,-0.108182 0.093404,-0.100215 0.00794,0.0079 0.00316,0.02581 -0.010687,0.03966 -0.013936,0.01394 -0.018521,0.06611 -0.010298,0.116824 l 0.014875,0.09165 0.4235055,0.0068 c 0.3969493,0.0063 0.4244336,0.0039 0.4383206,-0.03994 0.00814,-0.02568 0.038215,-0.06759 0.066816,-0.09313 l 0.051999,-0.04645 -0.053132,0.104894 -0.05313,0.104895 H 5.4436124 c -0.3789702,0 -0.5301423,0.0079 -0.5301423,0.02801 0,0.01541 -0.071638,0.15146 -0.1591862,0.302343 -0.1621684,0.279464 -0.2494637,0.458689 -0.2867567,0.588719 l -0.020832,0.07261 0.1360972,-0.0084 0.1361026,-0.0084 -0.063145,0.05029 c -0.034731,0.02765 -0.063145,0.06423 -0.063145,0.08127 0,0.05796 0.1984604,0.30542 0.5526573,0.68909 0.1466186,0.158821 0.025092,0.07617 -0.1451663,-0.09872 z M 5.1581446,14.17029 C 4.992986,13.991043 4.8010811,13.739429 4.8179035,13.724188 c 0.00505,-0.0046 0.080041,-0.04387 0.1665856,-0.08725 0.1065032,-0.0534 0.2729832,-0.102513 0.5152406,-0.152014 0.1968412,-0.04022 0.3614293,-0.0696 0.3657509,-0.06527 0.00866,0.0087 -0.4965553,0.882138 -0.5262476,0.909876 C 5.32907,14.33903 5.247585,14.26737 5.1581446,14.170298 Z M 4.9553933,13.426139 c 0.078543,-0.05501 0.7818183,-0.208807 0.8128645,-0.177759 0.013846,0.01385 -0.1074555,0.04152 -0.4598346,0.104921 -0.1289595,0.02321 -0.2644637,0.05741 -0.3011204,0.07602 -0.088471,0.04491 -0.1180003,0.04311 -0.051908,-0.0032 z M 4.7561937,13.282775 c 0.021933,-0.04332 0.094821,-0.170397 0.1619662,-0.282387 l 0.1220818,-0.203618 0.4981367,-0.0011 0.4981358,-0.0011 0.1665966,-0.244821 c 0.091628,-0.13465 0.166597,-0.254152 0.166597,-0.265556 0,-0.01142 -0.054657,-0.04792 -0.1214589,-0.08112 -0.1159583,-0.05766 -0.1190315,-0.06175 -0.067873,-0.09037 0.029472,-0.01648 0.095234,-0.03037 0.1461385,-0.03085 0.050906,-4.39e-4 0.092554,-0.01199 0.092554,-0.02555 0,-0.01356 0.013894,-0.02493 0.03085,-0.02524 0.037439,-6.39e-4 0.2573402,-0.108709 0.425329,-0.208967 l 0.1229821,-0.0734 -0.054771,0.07692 c -0.030125,0.04229 -0.076914,0.125382 -0.1039747,0.184633 -0.027061,0.05925 -0.092517,0.168814 -0.14546,0.243475 -0.052943,0.07466 -0.1592792,0.23015 -0.2363024,0.345534 -0.2960872,0.443548 -0.2648189,0.413751 -0.4523969,0.431095 -0.091444,0.0085 -0.2384529,0.03236 -0.3266887,0.05312 -0.088237,0.02077 -0.260384,0.05845 -0.3825579,0.08377 -0.1221694,0.02532 -0.3025989,0.07937 -0.4009518,0.120131 l -0.1788228,0.0741 z m 4.5011974,-0.217431 c -0.674523,-0.01982 -2.1252528,-0.09026 -2.1388526,-0.10386 -0.00393,-0.004 0.049385,-0.08422 0.1184388,-0.178468 0.069049,-0.09424 0.1541062,-0.229118 0.1890116,-0.299722 0.062098,-0.125605 0.066154,-0.128634 0.188491,-0.140725 0.068764,-0.0068 0.3860273,-0.03514 0.7050312,-0.06298 0.3190021,-0.02784 0.7132824,-0.06659 0.8761766,-0.08611 0.6093532,-0.07301 1.0906463,-0.09159 1.3327763,-0.05143 0.122172,0.02025 0.274886,0.03702 0.339366,0.03727 l 0.117233,4.39e-4 v 0.106585 c 0,0.143434 -0.05661,0.330836 -0.178424,0.590655 l -0.101253,0.21596 -0.384632,-0.0039 c -0.211548,-0.0022 -0.6900619,-0.0128 -1.0633629,-0.02376 z m -4.89672,-0.240218 C 4.2684937,12.524626 4.2243176,12.257335 4.223415,11.994636 4.218902,10.679676 5.1358517,9.4753784 6.4931114,9.0136597 6.6972807,8.9442049 7.1417387,8.8429626 7.1299454,8.8685968 7.1258386,8.8775324 7.0272616,9.012547 6.910886,9.1686567 6.6468684,9.5228098 6.243789,10.111192 5.6427777,11.019736 c -0.4443218,0.67168 -0.6305278,0.988947 -0.6305278,1.074325 0,0.02151 -0.05448,0.106422 -0.1210665,0.188712 -0.1033477,0.127728 -0.3710951,0.576826 -0.4272927,0.716711 -0.00974,0.02425 -0.021888,0.04409 -0.02696,0.04409 -0.00505,0 -0.039398,-0.09831 -0.076259,-0.218457 z M 5.3778275,12.198255 C 5.4445827,12.09984 5.5783756,11.877901 5.6751372,11.705057 6.2699939,10.642481 7.217425,9.3201751 7.6379961,8.9655435 7.7582215,8.8641699 7.7650189,8.8618474 7.9230977,8.8681928 c 0.8601753,0.03453 1.9040159,0.544701 2.3327073,1.1401022 0.193562,0.268833 0.343152,0.537314 0.445421,0.799445 0.08807,0.225701 0.202352,0.647244 0.181217,0.668379 -0.0065,0.0065 -0.116533,-1.24e-4 -0.244577,-0.01464 -0.269794,-0.03062 -0.410564,-0.03506 -2.3354484,-0.07372 l -1.4362524,-0.02884 -0.1050064,0.07722 c -0.057752,0.04248 -0.1206491,0.07722 -0.1397707,0.07722 -0.019117,0 -0.064837,0.0253 -0.1015932,0.05623 -0.07289,0.06133 -0.1119551,0.07489 -0.5696655,0.197633 l -0.3085124,0.08274 -0.00722,0.217372 c -0.00587,0.176685 6.39e-4,0.226028 0.034677,0.263617 0.040625,0.0449 0.035192,0.04625 -0.185409,0.04625 H 5.2564027 Z m 0.5167687,0.06387 c 0.016969,-0.0069 0.044735,-0.0069 0.061702,0 0.016966,0.0069 0.0031,0.01245 -0.03085,0.01245 -0.033937,0 -0.047817,-0.0056 -0.03085,-0.01245 z m -0.064174,-0.148794 c -0.00199,-0.07046 0.00614,-0.13422 0.018241,-0.141678 0.012067,-0.0075 0.1007457,-0.03014 0.19706,-0.0504 0.1063406,-0.02237 0.3068029,-0.100601 0.5103882,-0.199181 0.1843934,-0.08929 0.3460627,-0.158743 0.3592626,-0.154342 0.030522,0.01018 -0.2051943,0.191173 -0.2658347,0.204131 -0.024952,0.0053 -0.089363,0.03265 -0.143138,0.0607 -0.053772,0.02806 -0.1235484,0.05101 -0.1550518,0.05101 -0.071995,0 -0.4375721,0.139655 -0.4708269,0.179861 -0.013611,0.01646 -0.029623,0.06325 -0.03558,0.103971 -0.00704,0.04841 -0.012095,0.02968 -0.014532,-0.05407 z m -0.6309881,-0.05259 c 0.055139,-0.136512 0.3797193,-0.652146 0.4301187,-0.683296 0.046754,-0.0289 -0.313614,0.626158 -0.399309,0.725833 l -0.090517,0.105284 z M 4.0354471,11.59974 C 4.0710361,10.895118 4.3849696,10.244081 4.9732104,9.6550459 5.459979,9.1676164 6.0436923,8.8463035 6.7155655,8.6959375 c 0.2301172,-0.051499 0.319061,-0.057778 0.8018107,-0.056608 0.5489325,0.00133 0.7563065,0.024513 1.122988,0.1255459 0.447535,0.1233095 0.9790628,0.3899807 1.2710752,0.6377097 0.040725,0.034549 -0.033125,-0.00779 -0.1641116,-0.094093 C 9.1462721,8.9124903 8.5663187,8.7181893 7.8314629,8.6666205 L 7.7012924,8.6574891 7.484193,8.8618579 C 7.3647886,8.9742608 7.146945,9.216999 7.0000978,9.4012759 6.8532525,9.5855528 6.7285518,9.7363247 6.7229875,9.7363247 c -0.042534,0 0.4803423,-0.667365 0.6907516,-0.8816263 0.096255,-0.09802 0.167317,-0.1859078 0.1579162,-0.1953109 C 7.5470509,8.634783 7.0395621,8.6936216 6.766003,8.7527893 5.350369,9.0589818 4.3518257,10.118276 4.0590588,11.624425 l -0.033585,0.172767 z M 10.019354,9.4956791 c -0.030697,-0.039141 -0.02983,-0.040019 0.0093,-0.00933 0.04111,0.032243 0.05419,0.052511 0.03387,0.052511 -0.0051,0 -0.02456,-0.019445 -0.04319,-0.043191 z"
   id="path4555" /></svg>
