<?xml version="1.0" encoding="UTF-8" standalone="no"?>
<!-- Generator: Adobe Illustrator 16.0.0, SVG Export Plug-In . SVG Version: 6.00 Build 0)  -->

<svg
   version="1.1"
   id="Layer_1"
   x="0px"
   y="0px"
   width="92.059px"
   height="32px"
   viewBox="0 0 92.059 32"
   enable-background="new 0 0 92.059 32"
   xml:space="preserve"
   sodipodi:docname="knife_css.svg"
   inkscape:version="1.1.1 (3bf5ae0d25, 2021-09-20)"
   xmlns:inkscape="http://www.inkscape.org/namespaces/inkscape"
   xmlns:sodipodi="http://sodipodi.sourceforge.net/DTD/sodipodi-0.dtd"
   xmlns="http://www.w3.org/2000/svg"
   xmlns:svg="http://www.w3.org/2000/svg"><defs
   id="defs4849" /><sodipodi:namedview
   id="namedview4847"
   pagecolor="#505050"
   bordercolor="#eeeeee"
   borderopacity="1"
   inkscape:pageshadow="0"
   inkscape:pageopacity="0"
   inkscape:pagecheckerboard="0"
   showgrid="false"
   inkscape:zoom="5.6568543"
   inkscape:cx="51.176853"
   inkscape:cy="20.85965"
   inkscape:window-width="1440"
   inkscape:window-height="848"
   inkscape:window-x="1358"
   inkscape:window-y="-8"
   inkscape:window-maximized="1"
   inkscape:current-layer="Layer_1" />
<g
   id="guides">
</g>

<path
   style="fill:#ffffff;stroke-width:0.0430933"
   d="m 37.545269,23.729098 c 0.08644,-0.225252 3.802327,-1.251385 8.72186,-2.408508 0.941819,-0.22153 1.071488,-0.241503 1.853,-0.285437 1.024204,-0.05758 1.672386,-0.05816 2.520967,-0.0022 2.535021,0.166893 5.394222,0.556798 9.954524,1.357486 2.098433,0.368437 2.705048,0.446206 4.223138,0.541424 2.447577,0.153517 5.515288,-0.194336 8.618653,-0.977286 2.014767,-0.508305 4.442055,-1.408788 6.291615,-2.33408 1.075585,-0.538094 2.923765,-1.610777 3.875815,-2.249537 L 84.075218,17.05537 83.79697,16.942963 C 83.643914,16.881183 83.305969,16.711624 83.045951,16.566206 80.565924,15.179231 77.72209,14.126064 73.825259,13.15147 68.424833,11.800835 60.957294,10.842633 53.63607,10.560887 51.845526,10.491979 48.768704,10.43197 47.007169,10.431594 l -1.608545,-2.43e-4 -0.129281,-0.129279 c -0.260407,-0.260405 -0.614128,-0.131634 -0.834834,0.303916 l -0.104636,0.206503 -0.13025,-0.121672 c -0.07165,-0.06692 -0.130252,-0.149647 -0.130252,-0.183836 0,-0.03834 -0.113504,-0.100802 -0.296232,-0.16301 -0.290981,-0.09906 -0.299751,-0.0995 -0.495113,-0.02489 -0.109389,0.04178 -0.23582,0.122908 -0.280962,0.180301 -0.102598,0.130429 -0.289322,0.140759 -0.328237,0.01816 -0.02475,-0.07801 -0.0652,-0.08619 -0.426322,-0.08619 -0.361323,0 -0.407813,0.0094 -0.492669,0.09974 -0.05154,0.05485 -0.0937,0.143736 -0.0937,0.197512 0,0.154882 -0.101146,0.08335 -0.16569,-0.117189 l -0.05795,-0.180059 h -0.397002 -0.397001 l -0.136684,0.193919 c -0.125625,0.178218 -0.224652,0.24748 -0.224652,0.157119 0,-0.02023 -0.04848,-0.08911 -0.107733,-0.153047 -0.05925,-0.06393 -0.107734,-0.131733 -0.107734,-0.150665 0,-0.01893 -0.178197,-0.04707 -0.396,-0.06253 -0.436394,-0.03097 -0.435024,-0.03163 -0.510632,0.241444 -0.02462,0.08888 -0.05569,0.161599 -0.06907,0.161599 -0.01339,0 -0.121382,-0.08726 -0.240008,-0.193919 l -0.215688,-0.193919 h -0.37815 c -0.341912,0 -0.380318,0.0083 -0.400693,0.08618 -0.02867,0.109613 -0.161105,0.112399 -0.189456,0.0041 -0.01181,-0.04521 -0.06333,-0.09343 -0.11447,-0.107144 -0.05114,-0.01372 -0.901442,-0.02521 -1.889575,-0.02554 -1.11824,-2.42e-4 -1.806393,-0.01643 -1.82253,-0.04255 -0.01429,-0.02308 0.04478,-0.396373 0.131206,-0.8295449 0.20356,-1.0202204 0.218047,-1.4962761 0.05616,-1.8456453 C 33.862617,7.3255594 33.241172,6.6856295 33.037491,6.6566149 32.626567,6.5980819 32.295359,7.0984414 31.936507,8.3198874 31.757034,8.930766 31.562095,9.2781669 31.189974,9.6502851 30.61538,10.224882 29.998877,10.431459 28.858651,10.431459 c -0.403962,0 -0.442062,0.0071 -0.462747,0.08619 -0.02245,0.08589 -0.05878,0.08618 -10.556559,0.08618 H 7.3053164 l -0.1328613,0.118506 c -0.4489873,0.400502 -0.5511387,0.526471 -0.5511387,0.679643 0,0.123548 -0.020695,0.159909 -0.1105381,0.194062 -0.060797,0.02312 -0.1634224,0.04202 -0.2280603,0.04202 -0.099429,0 -0.1437772,0.04465 -0.2880725,0.289999 -0.093806,0.159497 -0.180249,0.356285 -0.1920983,0.437305 -0.011861,0.08102 -0.050638,0.16091 -0.086194,0.177537 -0.035529,0.01663 -0.1228152,0.05991 -0.1939194,0.09616 -0.1677141,0.08553 -0.6248535,0.74267 -0.6248535,0.898226 0,0.134782 -0.058579,0.193287 -0.2372493,0.236923 -0.070975,0.01734 -0.240545,0.127468 -0.3768291,0.244741 -0.2389444,0.205617 -0.2477856,0.220762 -0.2477856,0.424427 v 0.211204 H 3.8893828 c -0.1534843,0 -0.274957,0.111281 -0.4586144,0.420158 -0.050012,0.08411 -0.1179594,0.140054 -0.1700947,0.140054 -0.074039,0 -0.08682,0.02827 -0.08682,0.191951 v 0.191952 l -0.2900694,0.01275 -0.2900656,0.01275 -0.1425285,0.510452 -0.1425322,0.51045 0.5196498,1.589094 0.5196452,1.589098 0.1176484,-0.02094 c 0.2085504,-0.03713 22.7096276,-2.734526 22.8107696,-2.734526 0.05371,0 0.139246,-0.03908 0.190092,-0.08684 l 0.09243,-0.08684 0.182877,0.216879 c 0.100583,0.119285 0.254153,0.253893 0.341272,0.299128 0.275984,0.143304 0.86099,0.644297 1.172264,1.003921 l 0.300472,0.347141 -4.51e-4,0.262959 c -4.51e-4,0.144628 -0.03761,0.786539 -0.08303,1.426476 -0.146536,2.064688 -0.145282,2.012175 -0.05065,2.122332 0.04581,0.05333 0.196535,0.134245 0.334951,0.179829 0.138407,0.04559 0.338922,0.115063 0.445579,0.1544 0.138501,0.05108 0.257823,0.06355 0.417538,0.04364 0.196427,-0.0245 0.234292,-0.04597 0.311396,-0.176649 0.04827,-0.08182 0.138633,-0.356912 0.200796,-0.611307 0.287328,-1.175895 0.746204,-1.899863 1.522477,-2.402033 0.555246,-0.359187 1.113744,-0.545762 1.999455,-0.667955 0.867153,-0.119632 1.634355,0.108264 2.182992,0.648449 0.570264,0.561481 0.841439,1.289407 1.010717,2.713136 0.08529,0.717335 0.163846,0.964484 0.372076,1.170646 0.173955,0.172221 0.285827,0.20806 0.325636,0.104316 z m -0.123351,-0.708591 c -0.01944,-0.01943 -0.09309,-0.390886 -0.163711,-0.825465 -0.146235,-0.899968 -0.208506,-1.168937 -0.386338,-1.668716 -0.331348,-0.931189 -0.838102,-1.587794 -1.468582,-1.902849 l -0.267995,-0.133921 -0.844213,0.0015 c -1.012791,0.0017 -1.345614,0.05403 -1.899995,0.29818 -0.536346,0.236204 -0.645576,0.275714 -0.676579,0.244709 -0.01421,-0.01418 0.259226,-1.124066 0.607572,-2.466411 0.34835,-1.342347 0.626436,-2.447549 0.617978,-2.45601 -0.0085,-0.0085 -0.320465,1.103765 -0.693343,2.47161 -0.402389,1.476103 -0.65972,2.493072 -0.633083,2.50195 0.06675,0.02225 0.05432,0.137056 -0.01483,0.137056 -0.03282,0 -0.115259,0.02897 -0.183149,0.06438 -0.17564,0.0916 -0.329792,0.08619 -0.299668,-0.01052 0.08279,-0.265793 1.233444,-4.850162 1.220594,-4.863012 -0.0087,-0.0087 -0.316469,1.093965 -0.683816,2.450483 -0.505113,1.865291 -0.653638,2.469878 -0.609388,2.480675 0.09283,0.02266 0.02858,0.147044 -0.206355,0.399544 -0.461937,0.49645 -0.824712,1.17248 -1.054251,1.964579 -0.0586,0.202215 -0.106543,0.45552 -0.106543,0.5629 v 0.195238 l -0.249432,-0.02607 c -0.13719,-0.01435 -0.34262,-0.06729 -0.456508,-0.117675 -0.17927,-0.0793 -0.202892,-0.104112 -0.175843,-0.184758 0.01718,-0.05124 0.0479,-0.510088 0.06826,-1.019667 0.02038,-0.509578 0.06629,-1.229552 0.10207,-1.599942 0.0358,-0.370392 0.06505,-0.780658 0.06505,-0.911701 V 18.3683 l -0.570988,-0.501622 c -0.314039,-0.275892 -0.739296,-0.612219 -0.945007,-0.747391 -0.205714,-0.13517 -0.375394,-0.270006 -0.377067,-0.299634 -0.0018,-0.02963 -0.04315,-0.05387 -0.09213,-0.05387 -0.06483,0 -0.08286,-0.02053 -0.06622,-0.07541 0.01258,-0.04147 0.04369,-0.172374 0.06912,-0.290881 0.02543,-0.118507 0.05654,-0.249402 0.06912,-0.290879 0.02967,-0.0979 -0.09821,-0.10145 -0.20405,-0.0057 -0.06877,0.06223 -0.158782,0.0628 -0.339098,0.0022 -0.01186,-0.004 -0.03125,0.0604 -0.0431,0.143088 -0.01528,0.106742 -0.04654,0.154895 -0.107733,0.166048 -0.0474,0.0086 -0.11622,0.04227 -0.152926,0.07474 -0.04897,0.0433 -0.244017,0.0622 -0.732588,0.07097 -0.653561,0.01173 -0.666095,0.01372 -0.679618,0.108901 -0.0075,0.05333 -0.03797,0.09696 -0.06753,0.09696 -0.02957,0 -0.896005,0.09636 -1.925421,0.214123 -1.02942,0.117768 -2.359488,0.263435 -2.955715,0.323706 -0.596222,0.06028 -2.331804,0.263492 -3.856842,0.451601 -3.630198,0.447771 -6.2463188,0.733278 -6.7266065,0.7341 l -0.118505,2.16e-4 v -3.684488 -3.684475 h 9.4133225 c 6.229073,0 9.422345,0.01457 9.439969,0.04309 0.01465,0.0237 0.0949,0.04309 0.178342,0.04309 0.147204,0 0.151014,0.0041 0.128425,0.140054 -0.02295,0.138113 -0.02255,0.137897 0.0289,-0.01561 0.02867,-0.08562 0.113148,-0.206818 0.187675,-0.269332 0.13154,-0.110339 0.152326,-0.113672 0.711039,-0.113988 1.157814,-7.22e-4 1.399514,-0.0936 2.106662,-0.810129 0.468993,-0.4752098 0.511457,-0.5330981 0.746163,-1.0170749 0.272179,-0.5612765 0.459133,-1.0732859 0.459133,-1.2574642 0,-0.064846 0.05224,-0.2068646 0.116093,-0.3156009 0.06385,-0.1087391 0.126873,-0.261605 0.140052,-0.3397035 l 0.02399,-0.1419967 0.150825,0.1110101 c 0.297257,0.2187793 0.556514,0.5051688 0.628903,0.6947108 0.09697,0.2539048 0.06071,0.8515335 -0.0912,1.5036569 -0.119759,0.5140644 -0.172272,0.7914554 -0.210084,1.1096504 -0.02407,0.202717 -0.02313,0.204693 0.10061,0.204693 0.190389,0 0.261263,0.04216 0.261263,0.155437 v 0.103123 h 1.815 1.815004 l 0.14724,0.12928 c 0.08099,0.0711 0.182458,0.129281 0.225499,0.129281 0.127009,0 0.364448,-0.09202 0.460187,-0.178344 0.132528,-0.119501 0.33767,-0.104532 0.426557,0.03113 0.06725,0.10263 0.365926,0.273331 0.482136,0.275548 0.02727,4.96e-4 0.136707,-0.0874 0.243165,-0.195385 0.187513,-0.190199 0.200768,-0.195922 0.424423,-0.183146 0.209313,0.01194 0.232231,0.02324 0.245564,0.120918 0.04921,0.360625 0.478159,0.374554 0.695687,0.02259 0.08629,-0.139623 0.110538,-0.151872 0.30062,-0.151872 0.191977,0 0.217834,0.0135 0.361594,0.18895 0.180077,0.219763 0.334856,0.276673 0.484968,0.178315 0.07608,-0.04986 0.10317,-0.106931 0.10317,-0.217432 v -0.149834 h 0.208785 c 0.157447,0 0.228948,0.02228 0.290778,0.09059 0.144138,0.159272 0.313371,0.221717 0.517801,0.191062 0.153823,-0.02308 0.208559,-0.05823 0.306748,-0.197042 0.101033,-0.142843 0.143592,-0.169107 0.275299,-0.169885 0.162177,-10e-4 0.259617,0.05752 0.586606,0.352089 0.100198,0.09026 0.207788,0.164111 0.239056,0.164111 0.06843,0 0.324418,-0.262763 0.468267,-0.480644 0.102063,-0.154576 0.106477,-0.15638 0.242859,-0.09904 0.07639,0.03212 0.138907,0.07873 0.138907,0.103577 0,0.03095 0.749518,0.04531 2.380897,0.04559 4.889522,10e-4 9.930721,0.259227 14.748671,0.755859 4.585831,0.472705 9.167005,1.321871 13.358898,2.4762 2.495785,0.687271 4.441108,1.409746 6.33471,2.352674 0.891189,0.443763 0.992596,0.505113 0.949695,0.574508 -0.100609,0.162791 -2.412548,1.545142 -3.470635,2.075162 -2.38206,1.193207 -5.382711,2.149614 -8.360114,2.664651 -2.197974,0.380212 -3.025129,0.455598 -4.998811,0.455598 -2.219472,0 -2.892448,-0.06635 -5.903762,-0.582029 -4.962795,-0.849865 -8.205407,-1.214478 -10.881053,-1.223521 -2.040481,-0.0069 -2.400871,0.04007 -4.955739,0.645715 -2.654252,0.629214 -6.126218,1.623994 -6.608738,1.893517 -0.112544,0.06287 -0.334688,0.05382 -0.404999,-0.01648 z m 0.420464,-0.288302 c 0.823981,-0.380344 5.992464,-1.77424 8.634059,-2.328531 0.688492,-0.144469 2.218215,-0.248117 3.15194,-0.213564 3.187834,0.117969 6.310565,0.490888 11.204258,1.338022 0.921534,0.159527 2.125531,0.322146 3.081165,0.416163 0.756912,0.07446 3.66781,0.07465 4.330876,2.43e-4 3.408174,-0.382287 5.645055,-0.873129 8.18771,-1.796641 1.122292,-0.407618 1.865556,-0.723435 2.801076,-1.190174 1.190547,-0.593985 3.188903,-1.748215 3.188903,-1.841883 0,-0.05585 -1.458371,-0.747157 -2.391682,-1.133742 C 75.532426,14.118907 68.997881,12.672303 61.780689,11.941947 57.103847,11.468668 52.644298,11.250748 47.623821,11.250161 l -2.629426,-2.42e-4 -0.22168,0.193919 c -0.17606,0.154015 -0.254103,0.19392 -0.379168,0.19392 -0.199719,0 -0.290147,-0.04873 -0.580632,-0.312946 l -0.234891,-0.213645 -0.152943,0.174667 c -0.102246,0.116767 -0.210873,0.189561 -0.327696,0.219601 -0.199736,0.05137 -0.327363,0.02361 -0.65519,-0.142526 -0.212189,-0.107522 -0.225846,-0.109417 -0.225846,-0.03136 0,0.14591 -0.240085,0.30621 -0.458618,0.30621 -0.221072,0 -0.307785,-0.03784 -0.5671,-0.247441 l -0.185393,-0.149861 -0.160519,0.173873 c -0.183161,0.198396 -0.310323,0.242549 -0.614402,0.213331 -0.232461,-0.02234 -0.427188,-0.158658 -0.427188,-0.299067 0,-0.136289 -0.14568,-0.08759 -0.344748,0.115245 -0.159815,0.162842 -0.216725,0.19392 -0.355101,0.19392 -0.223321,0 -0.438865,-0.0968 -0.59418,-0.26685 -0.110736,-0.121239 -0.139823,-0.133677 -0.204014,-0.08724 -0.291585,0.210973 -0.644724,0.240114 -0.890288,0.07347 l -0.159504,-0.108244 -1.63797,0.0113 -1.637974,0.01127 -0.16625,0.646399 c -0.09143,0.355517 -0.371729,1.412381 -0.622869,2.348582 -0.513216,1.913145 -1.112324,4.269069 -1.091039,4.290357 0.0077,0.0077 0.209787,-0.05299 0.449038,-0.134906 0.479449,-0.164153 0.979242,-0.230988 1.741254,-0.232852 l 0.454771,-0.0012 -0.01826,-1.993064 c -0.01673,-1.825966 0.0091,-2.519979 0.09726,-2.608107 0.01267,-0.01267 0.134795,0.03718 0.271394,0.110758 l 0.248355,0.133794 -0.0067,0.939377 c -0.0036,0.516658 -0.0193,1.51191 -0.03467,2.211672 l -0.02796,1.272293 0.207049,0.100247 c 0.347887,0.168433 0.733656,0.469414 0.962063,0.75061 0.237534,0.292433 0.07778,-0.09372 0,0 0.243094,0.298261 0.268228,0.461536 0.388371,0.654452 0,0 0.256939,0.414332 0.403037,0.876801 0.121189,0.383628 0.266467,1.099238 0.31059,1.529912 0.01632,0.15945 0.04636,0.300205 0.06672,0.312789 0.02038,0.01258 0.03702,0.08961 0.03702,0.171161 0,0.163899 0.0082,0.167343 0.19392,0.08161 z m -1.055729,-3.224953 c 0.02051,-0.02094 0.208298,-0.05655 0.41725,-0.07912 0.208956,-0.02256 0.573841,-0.08687 0.810856,-0.142924 0.75606,-0.178776 0.928242,-0.194697 1.988169,-0.183822 l 1.028357,0.01055 0.559629,-0.184488 c 0.710593,-0.234255 0.948704,-0.256482 1.531585,-0.14296 0.249512,0.04859 0.627829,0.101504 0.840708,0.117574 l 0.387028,0.02922 0.143362,-0.145452 c 0.07884,-0.08 0.192567,-0.232716 0.252724,-0.339371 0.06013,-0.106656 0.224473,-0.589089 0.496879,-0.730765 v 0 l 0.34644,0.138687 c 0.194848,0.09561 0.435573,0.183078 0.534948,0.194366 0.176569,0.02007 0.187426,0.01353 0.476315,-0.286453 l 0.295624,-0.30698 h 0.268234 c 0.231735,0 0.334117,0.03026 0.751872,0.222194 0.597116,0.274357 0.868113,0.300342 1.216261,0.116634 0.822281,-0.433885 0.881833,-0.45947 1.138967,-0.489314 0.509472,-0.05913 0.729647,0.01699 2.068209,0.715222 0.35452,0.184922 0.372361,0.189299 0.754488,0.185254 0.474398,-0.0051 0.608919,-0.05769 1.241541,-0.485989 0.791161,-0.53564 1.084068,-0.617042 1.587941,-0.441299 0.356002,0.124169 0.559864,0.257082 1.108117,0.722425 0.914671,0.776363 1.079874,0.865407 1.468642,0.791674 0.378929,-0.07186 0.736067,-0.273423 1.163593,-0.656709 0.683545,-0.612799 1.036784,-0.77403 1.53283,-0.699642 0.43969,0.06593 0.799809,0.259765 1.289456,0.694009 1.010024,0.895727 1.015746,0.898781 1.685692,0.897635 0.388065,-7.22e-4 0.50918,-0.01706 0.667935,-0.09046 0.279507,-0.129205 0.65313,-0.449497 0.931959,-0.798955 0.27102,-0.339701 0.737786,-0.675327 1.06756,-0.767659 0.36029,-0.100879 0.54801,-0.04528 1.663905,0.492827 1.514141,0.730135 1.694926,0.789869 2.162611,0.714548 0.363708,-0.05857 0.648913,-0.202235 1.388205,-0.699249 0.847025,-0.569448 1.041409,-0.656387 1.382866,-0.618535 0.354379,0.03928 0.824563,0.269366 1.002223,0.490435 0.306505,0.381425 0.832363,0.500851 1.389463,0.315563 0.764568,-0.254295 0.861012,-0.271664 1.637528,-0.294937 0.835979,-0.02505 1.145536,0.0197 1.56252,0.225855 0.27868,0.137775 0.764523,0.458377 0.764523,0.504489 0,0.09439 -0.143244,0.06059 -0.412497,-0.09731 -0.164184,-0.09629 -0.453678,-0.227623 -0.643286,-0.291855 -0.330527,-0.111977 -0.379367,-0.116621 -1.185069,-0.112701 -0.891428,0.0043 -0.961113,0.01566 -1.57289,0.255736 -0.22844,0.08965 -0.380116,0.119198 -0.624868,0.121765 -0.379921,0.004 -0.561387,-0.07423 -0.916881,-0.395232 -0.273589,-0.247016 -0.766073,-0.480897 -1.081086,-0.51341 -0.307452,-0.03174 -0.545684,0.07946 -1.169387,0.545785 -0.754293,0.563996 -1.191635,0.745957 -1.785138,0.742731 -0.41519,-0.0022 -0.803448,-0.139015 -1.822661,-0.64201 -1.161771,-0.573367 -1.402474,-0.644957 -1.761651,-0.523998 -0.257571,0.08674 -0.693964,0.429768 -1.15518,0.908 -0.616508,0.639246 -0.747462,0.701759 -1.470125,0.701759 -0.519871,0 -0.5499,-0.0051 -0.819301,-0.1377 -0.174338,-0.08584 -0.426967,-0.274053 -0.670894,-0.499789 -0.719223,-0.665573 -1.112937,-0.906496 -1.56884,-0.959979 -0.433658,-0.05088 -0.542682,0.0061 -1.496642,0.78204 -0.892181,0.725679 -1.477033,0.770742 -2.209002,0.170203 -0.95549,-0.783918 -1.172684,-0.927334 -1.632397,-1.077883 -0.397277,-0.130094 -0.747652,-0.03648 -1.211753,0.323706 -0.238836,0.185364 -0.883578,0.518152 -1.129633,0.583058 -0.167678,0.04423 -0.296478,0.04911 -0.507341,0.01919 -0.387144,-0.0549 -0.591565,-0.133456 -1.119917,-0.430303 -0.780471,-0.438519 -1.019307,-0.503836 -1.572917,-0.430171 -0.282679,0.03761 -0.406775,0.08111 -0.67969,0.238264 -0.601403,0.346276 -0.983097,0.379028 -1.565887,0.134358 -0.402462,-0.168967 -0.872329,-0.29911 -0.981231,-0.27178 -0.05487,0.01377 -0.191525,0.141835 -0.303668,0.284587 -0.112148,0.142752 -0.236559,0.276869 -0.276453,0.29804 -0.112004,0.05945 -0.525178,-0.02288 -0.853014,-0.169975 l -0.293153,-0.131531 -0.07562,0.09916 c -0.04157,0.05454 -0.135363,0.216278 -0.208393,0.359418 -0.19744,0.387072 -0.431475,0.676145 -0.581555,0.718336 -0.163796,0.04604 -0.504987,0.01115 -1.177765,-0.120491 -0.292254,-0.05718 -0.590043,-0.103969 -0.661747,-0.103969 -0.07171,0 -0.422836,0.09696 -0.78029,0.215467 l -0.649913,0.215467 -1.209295,0.0025 c -1.029354,0.0022 -1.250975,0.01408 -1.489401,0.08041 -0.896176,0.24932 -0.927867,0.207141 -1.104118,0.213117 -0.122288,0.0041 -0.119629,0.0043 -0.339504,0.01528 -0.157616,0.0078 -0.179086,0.04896 -0.22334,-0.0083 -0.02881,-0.03732 -0.03477,-0.08251 -0.01362,-0.104053 z m -7.285676,2.173682 c 0.297153,-0.956468 0.550412,-1.456131 1.016592,-2.005657 l 0.245419,-0.289302 0.314706,-1.234662 c 0.173089,-0.679063 0.58675,-2.25274 0.919252,-3.497059 0.847432,-3.171331 1.126725,-4.270878 1.126725,-4.435729 0,-0.07846 0.05669,-0.397223 0.125986,-0.7083815 C 33.407379,8.8018489 33.477226,8.3025905 33.44364,8.1235488 33.42795,8.0400048 33.34403,7.9129537 33.231608,7.8026273 33.048609,7.6230224 32.951299,7.605744 32.951299,7.7528543 c 0,0.1041777 -0.228154,0.7971374 -0.362395,1.1006755 -0.0614,0.1388321 -0.111634,0.2716416 -0.111634,0.2951322 0,0.121919 -0.467378,0.720958 -0.938329,1.202654 -0.671155,0.686466 -0.859429,0.796676 -1.460882,0.855173 -0.232866,0.02264 -0.599392,0.04169 -0.814499,0.04229 -0.353184,10e-4 -0.400251,0.01086 -0.485517,0.101618 -0.122577,0.13048 -0.401817,1.094819 -0.9784,3.378881 -0.341055,1.351034 -0.439333,1.801674 -0.409832,1.879258 0.02133,0.05613 0.128415,0.154572 0.237943,0.218761 0.351855,0.206198 1.522108,1.214474 1.639621,1.412676 0.04351,0.07334 0.03612,0.302848 -0.06278,1.951772 -0.113744,1.896844 -0.113072,1.872677 -0.05275,1.895721 0.179536,0.0686 0.213983,0.02849 0.349131,-0.406527 z M 11.124564,18.033956 c 2.592567,-0.291903 5.484466,-0.631276 7.864518,-0.922925 1.339122,-0.164095 3.123187,-0.369101 3.964581,-0.455565 0.841394,-0.08647 1.545048,-0.171391 1.563673,-0.18872 0.05451,-0.05074 1.28048,-4.805745 1.28048,-4.966475 0,-0.075 -0.313281,-0.078 -8.144623,-0.078 H 9.5085654 v 3.38282 3.38282 l 0.1616004,-0.0042 c 0.088881,-0.0024 0.7433582,-0.0697 1.4543982,-0.149753 z m 0.163116,-0.389969 c -0.145937,-0.0908 -0.191486,-0.212404 -0.21655,-0.578062 -0.02182,-0.318132 -0.01727,-0.341063 0.08868,-0.446997 0.112662,-0.112663 0.244296,-0.137998 0.589604,-0.11348 0.206882,0.01469 0.280272,0.06162 0.346551,0.221645 0.08187,0.197651 9.02e-4,0.738578 -0.13171,0.879715 -0.143084,0.152304 -0.463281,0.1699 -0.676575,0.03718 z m 0.479119,-0.28563 c 0.03436,-0.05333 0.06817,-0.193919 0.07514,-0.312426 0.01267,-0.215442 0.01267,-0.215471 -0.144719,-0.254668 -0.124808,-0.03108 -0.181336,-0.02351 -0.273054,0.03658 -0.108252,0.07093 -0.113834,0.09 -0.08718,0.297761 0.01637,0.127583 0.05864,0.244885 0.09941,0.275846 0.110241,0.08372 0.261412,0.064 0.330406,-0.04309 z m 8.963456,-0.898405 c -0.175853,-0.05425 -0.247322,-0.19946 -0.247051,-0.501939 4.5e-4,-0.425485 0.188323,-0.660406 0.532134,-0.665151 0.195119,-0.0027 0.341714,0.0816 0.492037,0.282948 0.136131,0.182333 0.126725,0.625637 -0.0165,0.778103 -0.176294,0.187658 -0.39655,0.218365 -0.760609,0.106039 z m 0.514541,-0.290053 c 0.10258,-0.113342 0.09401,-0.415626 -0.01483,-0.524499 -0.265934,-0.265931 -0.630354,0.188568 -0.406943,0.507531 0.08458,0.120741 0.31935,0.130187 0.421809,0.01697 z m 2.373876,-0.156654 c -0.2092,-0.08741 -0.294367,-0.300605 -0.265209,-0.663889 0.02764,-0.344244 0.140509,-0.478263 0.430335,-0.51093 0.287351,-0.03239 0.501059,0.05262 0.574567,0.22855 0.08066,0.193046 0.07697,0.593888 -0.0069,0.75619 -0.117672,0.227551 -0.44181,0.311635 -0.732732,0.190079 z m 0.480143,-0.390357 c 0.08537,-0.204322 0.03183,-0.410595 -0.126472,-0.487284 -0.101444,-0.04915 -0.133348,-0.04747 -0.223754,0.01175 -0.08624,0.05651 -0.105435,0.104725 -0.105435,0.264845 0,0.27694 0.0568,0.362466 0.240726,0.362466 0.132609,0 0.159427,-0.01893 0.214935,-0.151791 z M 11.342854,13.147066 c -0.356196,-0.135426 -0.385734,-0.889595 -0.04533,-1.157359 0.182909,-0.143876 0.412638,-0.126047 0.584009,0.04533 0.24095,0.24095 0.314309,0.54219 0.206999,0.850023 -0.08748,0.250938 -0.444682,0.376446 -0.745681,0.262007 z m 0.397108,-0.283721 c 0.134553,-0.09424 0.138457,-0.49331 0.0062,-0.625644 -0.04923,-0.04923 -0.11869,-0.07833 -0.15435,-0.06463 -0.03567,0.01369 -0.08363,0.02487 -0.106602,0.02487 -0.07516,0 -0.175014,0.308206 -0.147451,0.455116 0.0418,0.222714 0.238061,0.325317 0.402284,0.21029 z m 12.592685,0.03479 c -0.216888,-0.108347 -0.312002,-0.316106 -0.286751,-0.626327 0.03332,-0.409128 0.213342,-0.594691 0.579733,-0.597529 0.260542,-0.0019 0.374083,0.05364 0.463953,0.227423 0.08391,0.162275 0.09324,0.633503 0.01623,0.819458 -0.09805,0.23671 -0.479016,0.323914 -0.773149,0.176975 z m 0.50009,-0.33475 c 0.08044,-0.122773 0.06524,-0.44936 -0.02606,-0.559345 -0.08041,-0.09688 -0.249116,-0.07805 -0.368276,0.04111 -0.134028,0.134029 -0.149124,0.444943 -0.02696,0.555492 0.122505,0.110862 0.336637,0.09193 0.421286,-0.03726 z m -4.378484,0.242306 c -0.250839,-0.17904 -0.277965,-0.703683 -0.0496,-0.959274 0.145612,-0.162963 0.402867,-0.219972 0.634038,-0.1405 0.224029,0.07702 0.274884,0.141421 0.315734,0.399853 0.06437,0.407195 -0.06811,0.744367 -0.312997,0.796608 -0.161388,0.03443 -0.476072,-0.01737 -0.587178,-0.09669 z m 0.57508,-0.255629 c 0.09364,-0.103476 0.09595,-0.45062 0.0036,-0.542967 -0.181344,-0.181345 -0.492498,0.01813 -0.492498,0.315719 0,0.128774 0.02404,0.188713 0.09578,0.238973 0.128551,0.09004 0.305807,0.08475 0.393114,-0.01173 z m 5.122218,3.644774 c 0.03769,-0.02963 0.137406,-0.305962 0.221554,-0.614078 0.144138,-0.527786 0.895667,-3.461911 0.982349,-3.835299 0.022,-0.09481 0.0503,-0.20631 0.06287,-0.247788 0.02092,-0.06914 -0.02399,-0.07541 -0.540268,-0.07541 -0.487899,0 -0.563115,0.0092 -0.563115,0.06908 0,0.08511 -0.571853,2.470905 -0.887867,3.704231 -0.127906,0.499185 -0.23256,0.940354 -0.23256,0.980372 0,0.06359 0.05605,0.07276 0.444245,0.07276 0.290101,0 0.468028,-0.01869 0.512796,-0.05387 z m 8.895196,-1.734505 c 0,-0.260713 -0.0069,-0.372925 -0.0156,-0.24936 -0.0087,0.123568 -0.0087,0.336879 0,0.474027 0.0086,0.137148 0.01569,0.03604 0.01578,-0.224667 z M 3.5186265,19.097679 c 0,-0.151117 -0.1407967,-0.64813 -0.4582574,-1.617646 -0.2437873,-0.74452 -0.2525475,-0.810363 -0.158088,-1.188238 0.035713,-0.142772 0.048494,-0.151525 0.2398462,-0.16392 0.2353326,-0.01525 0.4242433,-0.170791 0.5051494,-0.415937 0.078189,-0.236923 0.3536803,-0.626754 0.4429095,-0.626754 0.1857812,0 0.3236471,-0.122305 0.378312,-0.335615 0.065196,-0.254366 0.2010969,-0.420995 0.3744251,-0.459064 C 5.078716,14.238715 5.274958,13.944466 5.293786,13.61447 L 5.307,13.383 5.4946565,13.36952 c 0.1730172,-0.0124 0.1860876,-0.02167 0.1675743,-0.118507 -0.017226,-0.0902 -0.00359,-0.105035 0.095456,-0.105035 0.070744,0 0.1533408,-0.04348 0.2130548,-0.112166 0.1401121,-0.161141 0.3058598,-0.487484 0.3058598,-0.602212 0,-0.128788 0.095168,-0.219567 0.2688883,-0.256493 0.077278,-0.01644 0.1761137,-0.06132 0.2196461,-0.09977 0.1249482,-0.110355 0.3302348,-0.434091 0.3302348,-0.520778 0,-0.04336 0.091552,-0.153891 0.2034556,-0.245628 L 7.5022729,11.14214 h 0.8200176 0.8200087 l 0.011047,3.629454 0.011002,3.629453 -0.097201,0.0636 c -0.180966,0.118404 -0.6120581,0.203223 -1.1577595,0.22779 l -0.5434336,0.02447 -0.088693,-0.296827 c -0.048781,-0.163256 -0.112765,-0.379369 -0.14219,-0.480254 -0.0294,-0.100883 -0.061073,-0.175847 -0.07033,-0.166586 -0.00924,0.0093 0.051798,0.25524 0.1356883,0.546624 0.083891,0.291382 0.1462929,0.536016 0.1386775,0.543632 -0.01808,0.01808 -1.4001257,0.167541 -2.1256298,0.229861 -0.3121631,0.02681 -0.6612176,0.06448 -0.7756775,0.08369 -0.1144609,0.01922 -0.3680952,0.03722 -0.5636286,0.04001 l -0.3555198,0.0051 z m 0.7541303,-0.206635 c 0.5187931,-0.04501 1.9914202,-0.195082 2.3185935,-0.236296 0.3223754,-0.04061 0.3749892,-0.05823 0.3500686,-0.117265 -0.1102583,-0.261164 -1.3112255,-4.394187 -1.3112255,-4.512471 0,-0.106272 -0.061368,-0.06063 -0.1939194,0.14422 -0.093044,0.143792 -0.2047721,0.240853 -0.3986105,0.346276 -0.2143946,0.116603 -0.2693337,0.167494 -0.2693337,0.249475 0,0.05665 -0.031967,0.182874 -0.07103,0.280504 -0.05684,0.142049 -0.1092121,0.193884 -0.2621332,0.259434 -0.1051098,0.04505 -0.218587,0.08192 -0.2521694,0.08192 -0.033587,0 -0.061073,0.02647 -0.061073,0.05883 0,0.03235 -0.038777,0.108135 -0.086185,0.168397 -0.047399,0.06026 -0.086185,0.133083 -0.086185,0.161822 0,0.02874 -0.053325,0.135359 -0.1185051,0.236935 -0.1205295,0.187836 -0.2741316,0.306675 -0.5039725,0.389911 -0.2342054,0.08481 -0.2273113,0.216423 0.056592,1.080235 0.1391109,0.423266 0.2881047,0.919861 0.3311053,1.103547 l 0.07817,0.333973 0.1537189,-0.0073 c 0.084547,-0.004 0.2312893,-0.01396 0.3260958,-0.0222 z M 4.6760382,18.43954 C 4.4206546,18.363025 4.1953273,18.142986 4.0570685,17.835107 3.8445998,17.361948 3.906353,16.760975 4.1996282,16.447793 4.45531,16.174755 4.9710775,16.070643 5.2984394,16.225986 c 0.2174956,0.103209 0.4468185,0.370096 0.5056095,0.588439 0.1731875,0.643161 -0.079965,1.339252 -0.5832424,1.603737 -0.1558382,0.0819 -0.3211267,0.08838 -0.5447683,0.02138 z m 0.5389886,-0.340978 c 0.062463,-0.04914 0.1668887,-0.180032 0.2320503,-0.290881 0.102571,-0.174483 0.1184774,-0.247822 0.1184774,-0.546287 0,-0.561383 -0.2120085,-0.819968 -0.6700809,-0.81728 -0.4127953,0.0024 -0.6326944,0.233266 -0.6758753,0.709513 -0.062398,0.688056 0.5649315,1.283561 0.9954285,0.944935 z m 2.9792152,0.301691 c 0.1659108,-0.01917 0.3840696,-0.05794 0.4848009,-0.08612 l 0.1831435,-0.05125 V 14.842576 11.422263 H 8.2289192 c -0.6285283,0 -0.6341733,0.001 -0.7541349,0.115795 -0.066474,0.06369 -0.1208586,0.132913 -0.1208586,0.153834 0,0.100424 -0.2844833,0.432051 -0.5141218,0.599323 -0.2217211,0.16151 -0.2657403,0.217454 -0.3247789,0.412763 -0.039633,0.131182 -0.1508148,0.327254 -0.2650861,0.467542 -0.1703928,0.209204 -0.193266,0.260417 -0.1704968,0.381796 0.014475,0.0771 0.2457933,0.847544 0.5140633,1.712097 0.2682654,0.864554 0.592742,1.933717 0.7210493,2.375921 l 0.2332905,0.804004 0.1723719,-0.0052 c 0.094807,-0.0028 0.3081186,-0.02079 0.4740249,-0.03998 z M 7.8777684,17.905456 c -0.2040733,-0.08166 -0.2653345,-0.203561 -0.2651271,-0.527584 4.509e-4,-0.431354 0.2497341,-0.662553 0.6382764,-0.591586 0.3395226,0.06201 0.4693313,0.275476 0.4255462,0.699754 -0.027053,0.262011 -0.078765,0.344746 -0.2667368,0.426669 -0.1732826,0.07552 -0.3304463,0.07338 -0.5319587,-0.0073 z M 8.3344796,17.62104 c 0.065085,-0.06508 0.07068,-0.355099 0.00906,-0.470213 -0.043961,-0.08218 -0.1854204,-0.10813 -0.3160723,-0.05799 -0.036341,0.01394 -0.087732,0.09096 -0.1141947,0.171148 -0.071726,0.217321 0.017539,0.381144 0.2168063,0.397997 0.08289,0.007 0.1748653,-0.01142 0.204389,-0.04094 z M 6.4565275,14.236038 C 6.3076423,14.125627 6.2407177,13.823504 6.3122552,13.584729 6.3851532,13.341418 6.6323081,13.102894 6.81152,13.102894 c 0.3674593,0 0.6559962,0.55748 0.5003836,0.966773 -0.02313,0.06079 -0.1055288,0.150392 -0.1831438,0.199126 -0.1753655,0.110098 -0.500992,0.09423 -0.6722323,-0.03276 z m 0.5406835,-0.23896 c 0.082854,-0.107083 0.098143,-0.217063 0.053307,-0.383573 -0.067634,-0.251179 -0.3222852,-0.3225 -0.4303792,-0.120535 -0.058754,0.109794 -0.052276,0.444174 0.00983,0.506263 0.067919,0.06792 0.3141516,0.06648 0.3672568,-0.0022 z"
   id="path4863"
   sodipodi:nodetypes="csscsssssccsssccssccsssscscsscccssssscsscsscsccsssssscsccscsscccsccscssssccccccccsccsssccsscscscssssscccccsccscssssscsscccsscccsccscsscsssccccccscsscsccccsssscscscssccssccssccccssscsccssssscsccscssssscsssccsssssscccsssscssscsccssscsccssscsssssscsccccsssccsscccccssccsccscccccscssscccccccscscssscssssssscccssssscsssssscsscscccssscsssssssccscssscscccssssccssscccsscssscccssssccsscscccssssccssccccsssccsccsscsscssccsccscsscccccccssccccscsscccscscccccsccccccccccccssccccscsccccsccccsccssssscccsccccsccsscsccccscsccsccccccsccsccssccccccscssssccsscsscscccccscsscssscssccccccccscsccccccccccccscsccccccccccsscccccscccc" /></svg>
