<?xml version="1.0" encoding="UTF-8" standalone="no"?>
<!-- Generator: Adobe Illustrator 16.0.0, SVG Export Plug-In . SVG Version: 6.00 Build 0)  -->

<svg
   version="1.1"
   x="0px"
   y="0px"
   width="96.583px"
   height="32px"
   viewBox="0 0 96.583 32"
   enable-background="new 0 0 96.583 32"
   xml:space="preserve"
   id="svg7227"
   sodipodi:docname="m249.svg"
   inkscape:version="1.1.1 (3bf5ae0d25, 2021-09-20)"
   xmlns:inkscape="http://www.inkscape.org/namespaces/inkscape"
   xmlns:sodipodi="http://sodipodi.sourceforge.net/DTD/sodipodi-0.dtd"
   xmlns="http://www.w3.org/2000/svg"
   xmlns:svg="http://www.w3.org/2000/svg"><defs
   id="defs7231" /><sodipodi:namedview
   id="namedview7229"
   pagecolor="#505050"
   bordercolor="#eeeeee"
   borderopacity="1"
   inkscape:pageshadow="0"
   inkscape:pageopacity="0"
   inkscape:pagecheckerboard="0"
   showgrid="false"
   inkscape:zoom="5.7722373"
   inkscape:cx="49.460891"
   inkscape:cy="18.017277"
   inkscape:window-width="1440"
   inkscape:window-height="848"
   inkscape:window-x="1358"
   inkscape:window-y="-8"
   inkscape:window-maximized="1"
   inkscape:current-layer="svg7227" />

<g
   id="guides">
</g>
<path
   style="fill:#ffffff;stroke-width:0.0492138"
   d="m 22.100979,31.067543 c -0.05338,-0.250375 -0.100352,-0.643473 -0.104363,-0.873546 -0.0069,-0.398884 0.0062,-0.45377 0.281433,-1.181137 0.507938,-1.341928 0.66105,-1.706749 1.612232,-3.841348 l 0.933201,-2.094248 4.67853,-0.425139 c 2.573184,-0.233828 4.684121,-0.43195 4.690978,-0.440272 0.0069,-0.0082 -0.02762,-1.321762 -0.07659,-2.918754 -0.04898,-1.596995 -0.09023,-3.108479 -0.09166,-3.358858 l -0.0026,-0.455228 h 5.831859 5.831859 v 0.703177 c 0,0.631538 0.01127,0.725475 0.110726,0.922104 0.06474,0.128001 0.199364,0.280519 0.32413,0.367226 l 0.213404,0.148303 h 7.193303 c 7.104797,0 7.195366,-0.0012 7.36041,-0.09843 0.0919,-0.05413 0.213715,-0.160889 0.270682,-0.237234 0.099,-0.132693 0.104665,-0.209559 0.128624,-1.747096 0.02826,-1.813281 0.02714,-1.80766 0.405629,-2.066586 0.48197,-0.329713 0.06641,-0.304524 5.023888,-0.304524 h 4.499781 l 0.02959,-0.135339 c 0.01626,-0.07443 0.04435,-0.351263 0.06239,-0.615175 l 0.03282,-0.479837 h 1.715055 1.715056 v 0.270679 c 0,0.488228 0.120765,0.533685 1.351647,0.50878 l 0.822445,-0.01664 0.118698,-0.138084 c 0.09082,-0.105663 0.118696,-0.195213 0.118696,-0.381407 v -0.243332 h 0.887349 0.887363 l 0.145907,0.166183 c 0.08026,0.09141 0.212715,0.193856 0.294355,0.227673 0.199318,0.08256 0.613902,0.03794 0.778443,-0.08382 0.240274,-0.177772 0.279315,-0.324299 0.279315,-1.048243 0,-0.581559 -0.01261,-0.685842 -0.101093,-0.836471 -0.144108,-0.245321 -0.385953,-0.393879 -0.641193,-0.393879 -0.28352,0 -0.420047,0.0586 -0.622749,0.267318 l -0.170565,0.17561 H 78.051408 77.182835 V 9.893221 9.3764711 h 4.530864 4.530857 l 0.129874,0.1543375 c 0.243564,0.2894614 0.235253,0.2885884 2.755397,0.2885884 2.292518,0 2.305309,-4.3e-4 2.520945,-0.110731 0.349329,-0.1784727 0.419294,-0.369402 0.419294,-1.1442231 0,-0.5567359 -0.01314,-0.6621196 -0.101093,-0.8118635 -0.139128,-0.2368381 -0.37317,-0.3816447 -0.676516,-0.4185628 -0.14074,-0.01712 -1.208178,-0.024132 -2.372095,-0.015531 -2.327644,0.017165 -2.247712,0.00683 -2.556026,0.3311072 l -0.144542,0.1520327 h -4.518479 -4.51848 l -0.0016,-0.3321917 c -0.0023,-0.4532541 -0.1354,-0.6028733 -0.536663,-0.6028733 H 76.444481 V 6.2759939 5.6854228 h 0.174489 c 0.119639,0 0.212459,-0.037983 0.295281,-0.1207954 0.11194,-0.1119391 0.120805,-0.156428 0.120805,-0.6065976 0,-0.714365 0.02366,-0.699809 -1.138821,-0.699809 -0.88864,0 -0.913639,0.0026 -1.018021,0.1139008 -0.09473,0.1008372 -0.107004,0.168842 -0.107004,0.5928074 0,0.4428441 0.0091,0.4879961 0.120799,0.5996984 0.09282,0.09282 0.172602,0.1207954 0.344497,0.1207954 h 0.223711 v 0.5905711 0.5905666 h -0.216014 c -0.346008,0 -0.443262,0.1129373 -0.472985,0.549218 l -0.0246,0.3612422 -1.728519,0.012948 -1.728519,0.012904 -0.03088,-0.154415 C 71.24171,7.5635247 71.22782,7.4339517 71.22782,7.3605055 V 7.2269689 l -1.16883,-0.00171 -1.168833,-0.00171 -0.09844,0.1496534 C 68.581736,7.6924598 68.254692,7.8216824 67.847185,7.7463989 67.573798,7.6959049 67.405076,7.5862974 67.26608,7.3689189 L 67.16765,7.2149813 h -0.516751 -0.516746 l -0.09843,0.1539376 c -0.205942,0.3220788 -0.534232,0.4532796 -0.944527,0.37748 -0.2734,-0.050498 -0.442114,-0.1601015 -0.581108,-0.37748 l -0.09844,-0.1539376 h -0.516739 -0.516751 l -0.09844,0.1539376 c -0.205939,0.3220788 -0.534228,0.4532796 -0.944527,0.37748 -0.273388,-0.050498 -0.44211,-0.1601015 -0.581104,-0.37748 l -0.09843,-0.1539376 h -0.516733 -0.516746 l -0.09843,0.1539376 c -0.205921,0.3220828 -0.53422,0.4532836 -0.944511,0.377484 -0.273395,-0.050498 -0.442109,-0.1601015 -0.581104,-0.37748 l -0.09842,-0.153958 h -1.894736 -1.894742 l -0.09843,0.1539376 C 54.805872,7.690981 54.477573,7.8221818 54.067282,7.7463822 53.793887,7.6958844 53.625172,7.5862807 53.486178,7.3689025 l -0.09844,-0.1539376 h -0.516752 -0.516737 l -0.09844,0.1539376 C 52.049882,7.690981 51.721586,7.8221818 51.311287,7.7463822 51.03789,7.6958844 50.869173,7.5862807 50.730179,7.3689025 l -0.09842,-0.1539376 h -0.516746 -0.51675 l -0.09843,0.1539376 C 49.293895,7.690981 48.965597,7.8221818 48.555306,7.7463822 48.28191,7.6958844 48.113197,7.5862807 47.974202,7.3689025 l -0.09844,-0.1539376 -0.627476,-0.00171 -0.627478,-0.00171 V 4.6262335 c 0,-2.7629233 -0.0093,-2.8760969 -0.241574,-2.9498307 -0.0861,-0.027311 -0.102923,-0.072356 -0.102923,-0.2754179 0,-0.1335147 -0.0166,-0.2429033 -0.03691,-0.2430882 -0.02029,-1.59e-4 -2.63908,-0.099646 -5.819534,-0.2210263 -3.180444,-0.12138065 -5.91106,-0.22088915 -6.068025,-0.22112975 l -0.285384,-4.3e-4 -0.09494,0.20915925 c -0.08651,0.1905809 -0.09504,0.3326511 -0.09602,1.5994552 l -0.0012,1.3903009 0.110736,-3.141e-4 c 0.06088,-1.591e-4 2.602177,-0.099693 5.647296,-0.221134 3.045111,-0.1214408 5.619624,-0.2209488 5.721124,-0.2211294 l 0.184551,-3.187e-4 v 1.6980045 1.698 L 35.635361,6.8549011 25.732775,6.8424677 25.609953,6.3363586 C 25.509431,5.9220842 25.468928,5.826056 25.386772,5.8071125 25.331565,5.7943822 23.4704,5.5185328 21.250852,5.1941059 19.031305,4.8696745 17.169394,4.5934954 17.113277,4.580372 17.020067,4.558566 16.97744,4.655426 16.620691,5.6994879 L 16.23014,6.8424677 14.869328,6.8670747 13.50851,6.8916817 11.763405,8.7973821 C 10.47481,10.204557 10.01018,10.743662 9.9872703,10.858217 c -0.01708,0.08532 -0.03119,0.556538 -0.03131,1.04714 0,0.490603 -0.01454,1.074709 -0.03192,1.29802 l -0.03162,0.406015 -3.8437002,3.14e-4 c -2.5049051,1.6e-4 -3.9077871,0.01807 -4.0276754,0.05136 -0.101185,0.02809 -0.2063802,0.09296 -0.2337627,0.144132 -0.0274,0.05117 -0.049799,0.422829 -0.049799,0.825908 0,0.702424 0.00471,0.737312 0.1139055,0.839875 l 0.1138992,0.107004 H 5.943438 9.9215783 l -0.03531,1.230678 -0.03531,1.23068 0.7047037,-0.02702 c 0.864217,-0.03312 6.336915,-0.170527 6.790753,-0.170523 l 0.328008,4e-6 0.745359,1.400296 c 0.674526,1.267222 0.739644,1.411039 0.685266,1.51333 -0.03303,0.06217 -1.121215,1.947664 -2.41815,4.189992 -1.296935,2.242322 -2.347495,4.087529 -2.334566,4.100449 0.01294,0.0129 1.459635,0.532894 3.214921,1.155489 2.927597,1.038422 3.242264,1.139755 3.806584,1.225832 0.338355,0.05161 0.662145,0.09434 0.719539,0.09497 l 0.104368,0.0012 -0.09707,-0.455227 z m 3.062648,-9.084781 c 0,-0.118835 0.89815,-4.368694 0.930186,-4.401484 0.02072,-0.02121 0.301579,-0.03226 0.624148,-0.0246 l 0.586471,0.01393 0.08566,0.688996 c 0.114334,0.919691 0.161741,1.131537 0.335284,1.498497 0.299049,0.632337 1.187052,1.342087 1.573083,1.257298 0.284683,-0.06253 0.279994,-0.221685 -0.01664,-0.564276 -0.36708,-0.423966 -0.667811,-1.40118 -0.708502,-2.30225 L 28.546077,17.546 h 2.368911 2.36892 v 2.06699 c 0,1.136842 -0.0056,2.068967 -0.0123,2.07139 -0.01996,0.0071 -7.515523,0.326867 -7.825024,0.333774 -0.155637,0.0034 -0.282975,-0.01243 -0.282975,-0.0354 z M 10.202574,15.57758 v -0.196721 l 8.649353,-0.01243 8.649363,-0.01243 0.147287,-0.294946 c 0.183114,-0.366684 0.234545,-0.931963 0.103048,-1.132657 l -0.08036,-0.122636 h -8.685136 -8.685132 v -0.147644 -0.147644 h 8.731708 8.731704 l 0.150492,0.126628 c 0.195618,0.164601 0.269709,0.443576 0.234339,0.882261 -0.02254,0.279589 -0.07106,0.430267 -0.257468,0.799725 l -0.229685,0.455232 h -8.729764 -8.72975 z m 36.329765,-0.0592 c -0.09041,-0.09041 -0.07027,-0.275976 0.03613,-0.332922 0.118928,-0.06365 13.430612,-0.07011 13.530925,-0.0066 0.03721,0.02357 0.06767,0.103263 0.06767,0.177092 0,0.07383 -0.03046,0.153516 -0.06767,0.177092 -0.111921,0.07089 -13.495973,0.05641 -13.567061,-0.01466 z m -2.2372,-0.964598 c -0.225857,-0.195914 -0.226671,-0.716923 -0.0012,-0.925643 0.19423,-0.180004 0.562767,-0.167251 0.756179,0.02616 0.172236,0.172227 0.205223,0.449223 0.08905,0.747718 -0.103578,0.266147 -0.607433,0.356769 -0.843769,0.151757 z m 2.2372,-0.413392 c -0.09041,-0.09041 -0.07027,-0.275977 0.03613,-0.332922 0.118928,-0.06365 13.430612,-0.07011 13.530925,-0.0066 0.03721,0.02357 0.06767,0.103268 0.06767,0.177093 0,0.07383 -0.03046,0.15352 -0.06767,0.177092 -0.111921,0.0709 -13.495973,0.05642 -13.567061,-0.01466 z m 4.724537,-1.37799 c -0.09041,-0.09041 -0.07027,-0.275982 0.03613,-0.332927 0.118555,-0.06345 8.706464,-0.06985 8.80638,-0.0066 0.08758,0.05548 0.08758,0.298709 0,0.354184 -0.111525,0.07065 -8.771572,0.05626 -8.842524,-0.01466 z m 20.217107,-2.715377 c 0,-0.199624 -0.01386,-0.4321611 -0.03075,-0.5167474 l -0.03075,-0.1537952 h 1.679436 1.679421 V 9.893231 10.409977 H 73.122656 71.473993 Z M 20.528485,6.7317779 c -0.196113,-0.1961218 -0.204669,-0.6897657 -0.01557,-0.898718 0.119992,-0.1325857 0.418128,-0.1695907 0.635301,-0.078849 0.404399,0.1689668 0.41387,0.8944377 0.0139,1.0652969 -0.166691,0.071213 -0.524176,0.021726 -0.633632,-0.087731 z m 22.583189,19.8984741 0.138088,-0.118762 0.01462,-4.814938 c 0.008,-2.648218 0.0012,-4.909528 -0.01548,-5.025136 -0.0172,-0.12009 -0.07493,-0.251949 -0.134646,-0.307587 -0.102121,-0.09513 -0.184851,-0.09739 -3.567083,-0.09739 h -3.46255 l -0.120796,0.120799 -0.120794,0.120797 v 4.990272 4.990267 l 0.120682,0.130221 0.120689,0.130224 h 3.444584 3.444581 z M 64.70706,17.086169 c 0.81611,-0.269379 1.301504,-0.924526 1.303423,-1.759279 8.89e-4,-0.412751 -0.09575,-0.732442 -0.320085,-1.058164 -0.372035,-0.540173 -0.909337,-0.819319 -1.573904,-0.817689 -0.546203,0.0013 -0.875997,0.132155 -1.275643,0.506003 -0.447985,0.419065 -0.592438,0.753842 -0.593032,1.374333 -8.9e-4,0.405117 0.01725,0.505438 0.132112,0.751494 0.1656,0.354734 0.563693,0.749245 0.923688,0.915378 0.219361,0.101236 0.361333,0.127952 0.739055,0.139098 0.291715,0.0086 0.541561,-0.01062 0.664386,-0.05117 z m -0.987055,-0.920208 c -0.172765,-0.06399 -0.425777,-0.305708 -0.496056,-0.473909 -0.08575,-0.205245 -0.08606,-0.564616 -8.9e-4,-0.769044 0.134773,-0.322547 0.549097,-0.574917 0.945044,-0.575641 0.262363,-4.3e-4 0.648102,0.2296 0.789527,0.470916 0.149158,0.254521 0.174271,0.65657 0.05524,0.884597 -0.235445,0.451075 -0.789681,0.649555 -1.293115,0.463081 z"
   id="path7245" /></svg>
