<?xml version="1.0" encoding="UTF-8" standalone="no"?>
<!-- Generator: Adobe Illustrator 16.0.0, SVG Export Plug-In . SVG Version: 6.00 Build 0)  -->

<svg
   version="1.1"
   x="0px"
   y="0px"
   width="44.625"
   height="44"
   viewBox="0 0 44.625 44"
   enable-background="new 0 0 44.625 32"
   xml:space="preserve"
   id="svg7473"
   sodipodi:docname="mac10.svg"
   inkscape:version="1.1.1 (3bf5ae0d25, 2021-09-20)"
   xmlns:inkscape="http://www.inkscape.org/namespaces/inkscape"
   xmlns:sodipodi="http://sodipodi.sourceforge.net/DTD/sodipodi-0.dtd"
   xmlns="http://www.w3.org/2000/svg"
   xmlns:svg="http://www.w3.org/2000/svg"><defs
   id="defs7477" /><sodipodi:namedview
   id="namedview7475"
   pagecolor="#505050"
   bordercolor="#eeeeee"
   borderopacity="1"
   inkscape:pageshadow="0"
   inkscape:pageopacity="0"
   inkscape:pagecheckerboard="0"
   showgrid="false"
   height="33px"
   inkscape:zoom="9.6875"
   inkscape:cx="7.8967742"
   inkscape:cy="25.909677"
   inkscape:window-width="1440"
   inkscape:window-height="848"
   inkscape:window-x="1358"
   inkscape:window-y="-8"
   inkscape:window-maximized="1"
   inkscape:current-layer="svg7473" />

<g
   id="guides">
</g>
<path
   style="fill:#ffffff;stroke-width:0.0369365"
   d="m 23.521998,43.31133 0.297622,-0.143935 0.103296,-0.28315 0.103267,-0.283145 -0.02435,-1.336641 c -0.01347,-0.735151 -0.04938,-1.594268 -0.07995,-1.909146 -0.03057,-0.314885 -0.07171,-1.303861 -0.09145,-2.197727 -0.01963,-0.89386 -0.06094,-2.605867 -0.09149,-3.804463 -0.03057,-1.198588 -0.07216,-3.051878 -0.09243,-4.118418 -0.02038,-1.06654 -0.0474,-2.274219 -0.06039,-2.68372 l -0.0236,-0.744556 0.253694,-0.02387 c 0.139536,-0.01313 0.285729,-0.02709 0.324884,-0.03111 0.05074,-0.0054 0.101038,-0.08032 0.17543,-0.262196 l 0.104308,-0.254938 v -4.501591 -4.501585 l 0.212363,0.215921 c 0.326553,0.331972 0.70672,0.469561 1.90576,0.689734 0.945948,0.173699 1.65717,0.246491 2.609746,0.267098 1.404673,0.03037 1.799572,-0.07016 2.255041,-0.574163 0.170533,-0.1887 0.263706,-0.263664 0.328085,-0.26392 0.177715,-8.21e-4 0.398134,-0.141645 0.458854,-0.293403 0.121707,-0.304235 0.245377,-1.226628 0.245377,-1.830491 v -0.572832 h 0.992764 c 0.84342,0 0.999755,-0.0085 1.039361,-0.05617 0.02572,-0.03089 0.119115,-0.07443 0.207678,-0.09673 l 0.161047,-0.04055 v -0.5866 c 0,-0.565689 0.0027,-0.586601 0.07532,-0.586601 0.04138,0 0.143962,-0.06407 0.227916,-0.142359 l 0.152627,-0.142361 -0.04322,-0.261822 c -0.02387,-0.144002 -0.04329,-0.304328 -0.04329,-0.356283 v -0.09445 h 2.512919 2.512921 l 0.185977,-0.09424 0.186011,-0.09425 0.115263,0.112715 c 0.0634,0.06199 0.12685,0.112715 0.140973,0.112715 0.01402,0 0.05218,0.04044 0.08456,0.08987 0.05396,0.08233 0.05389,0.103252 0,0.249322 -0.04275,0.113752 -0.0619,0.30236 -0.06675,0.658092 -0.0034,0.275509 -0.02825,0.573023 -0.05464,0.664857 -0.02619,0.09142 -0.08494,0.377262 -0.130372,0.635208 -0.0705,0.400396 -0.07479,0.471983 -0.02934,0.48941 0.10218,0.03922 0.190087,0.0199 0.211118,-0.0464 0.06429,-0.202508 0.248529,-1.453081 0.267714,-1.816948 0.03365,-0.638256 0.0225,-0.631465 0.398661,-0.244467 l 0.31879,0.32805 -0.02407,0.207531 c -0.01327,0.114141 -0.07135,0.481784 -0.12921,0.816984 -0.05786,0.335196 -0.110313,0.675936 -0.116563,0.757197 -0.0093,0.120892 -0.02647,0.149891 -0.0945,0.15955 -0.08239,0.01171 -0.08308,0.01701 -0.08308,0.630452 0,0.674373 -0.01374,0.749153 -0.250807,1.370785 -0.12144,0.318372 -0.133868,0.385134 -0.134025,0.720263 0,0.315541 0.01512,0.409727 0.104171,0.646384 0.05739,0.152367 0.117411,0.394359 0.133415,0.537759 0.01586,0.143402 0.06409,0.37393 0.10679,0.512291 0.132787,0.429924 0.300085,2.173543 0.306788,3.197652 0.0054,0.817704 -0.125523,2.143641 -0.339028,3.435096 -0.153845,0.93047 -0.266223,2.60523 -0.271421,4.044545 -0.0027,0.839733 0.0068,1.014684 0.07712,1.392937 0.131569,0.706481 0.277193,1.074515 0.639462,1.616086 0.237929,0.355729 0.678213,0.797656 0.899058,0.902456 0.141417,0.06709 0.146369,0.06696 0.302806,-0.009 0.252504,-0.122678 0.339959,-0.341259 0.438247,-1.095184 0.141288,-1.083845 0.192181,-3.154345 0.09808,-3.989222 -0.02517,-0.223471 -0.08586,-0.692119 -0.134797,-1.041448 -0.13795,-0.984454 -0.190982,-1.698951 -0.349096,-4.702187 -0.08075,-1.533786 -0.156362,-2.963231 -0.168016,-3.176539 -0.01162,-0.213306 -0.03714,-0.786748 -0.05663,-1.274306 -0.04049,-1.012845 -0.08868,-1.333916 -0.257914,-1.719513 -0.116885,-0.266313 -0.119504,-0.2836 -0.09741,-0.643727 0.01245,-0.203533 0.04897,-0.443708 0.08109,-0.53372 0.08775,-0.246094 0.04411,-0.430091 -0.145337,-0.613019 -0.144865,-0.139878 -0.363903,-0.239079 -0.527946,-0.239079 -0.06586,0 -0.06976,-0.01581 -0.04309,-0.175448 0.117604,-0.703754 0.15366,-0.912257 0.202808,-1.172735 0.03228,-0.171068 0.05855,-0.544333 0.06238,-0.886476 0.0061,-0.551307 0,-0.60406 -0.08136,-0.785752 -0.108623,-0.240361 -0.263337,-0.377747 -0.425396,-0.377747 -0.106578,0 -0.138929,-0.02774 -0.290544,-0.249321 -0.09383,-0.137129 -0.238038,-0.315025 -0.32048,-0.39533 L 40.821677,10.271254 V 9.3923072 8.5133278 l 0.138504,-1.85e-5 c 0.07619,-1.09e-5 0.225952,-0.033253 0.332825,-0.073873 0.179308,-0.068147 0.283848,-0.073854 1.352085,-0.073854 h 1.157764 L 44.04828,8.1406907 44.293711,7.9157995 V 6.9037811 5.8917626 L 44.036072,5.7620222 43.778452,5.6322791 H 42.555973 41.333488 L 41.169924,5.5364285 41.006353,5.4405773 V 4.289822 c 0,-0.8042543 -0.02202,-1.4018067 -0.07081,-1.9845046 -0.06546,-0.7802884 -0.07646,-0.8444862 -0.171148,-1.0012436 -0.05561,-0.092123 -0.133285,-0.1875606 -0.17257,-0.2120825 -0.109048,-0.068107 -0.790867,-0.18758455 -1.07044,-0.18758455 -0.358636,0 -0.602789,0.0939372 -1.524498,0.58657385 L 37.1843,1.9253 37.160976,2.4213716 c -0.01272,0.2728415 -0.02517,0.5085397 -0.0277,0.5237751 -0.0027,0.015231 -1.085171,0.027706 -2.406151,0.027706 H 32.325347 L 32.286226,2.8712772 C 32.264751,2.8154132 32.216259,2.6117992 32.178513,2.4188048 32.062524,1.8259497 32.009778,1.6909183 31.854634,1.5896845 31.497037,1.3563787 30.601445,1.3154682 29.313822,1.4736222 28.88554,1.5262234 28.5157,1.5692664 28.49196,1.5692664 c -0.03125,0 -0.04316,0.1802568 -0.04316,0.6556221 -2.8e-5,0.5544751 -0.01087,0.6841171 -0.07018,0.8403054 l -0.07015,0.1846839 -8.884587,0.0093 -8.884612,0.0093 -0.01163,0.1199677 c -0.01033,0.1061034 -0.02435,0.1199696 -0.122397,0.1199696 -0.106503,0 -0.110374,-0.00575 -0.10004,-0.1482485 l 0.01087,-0.1482399 -0.306227,-0.069268 C 9.7735704,3.0892129 9.4589381,3.0663516 8.6324462,3.0425875 8.0433221,3.02566 7.4427078,3.0017837 7.2977401,2.9895617 L 7.0342118,2.9673337 7.0725123,2.8500451 c 0.021202,-0.06451 0.043567,-0.1380673 0.049996,-0.1634607 0.018808,-0.073692 0.2476816,-0.054011 0.5491412,0.047192 0.3641219,0.1222266 0.8500193,0.1921915 1.6441403,0.236739 1.1033512,0.06189 3.1374862,0.08283 4.4693322,0.046002 1.195722,-0.033068 1.293348,-0.040926 1.583236,-0.1274697 0.392908,-0.117305 0.525086,-0.236443 0.548662,-0.4945198 C 15.93692,2.1762195 15.86258,1.9838372 15.70783,1.8536413 15.457289,1.6428272 14.532002,1.3779207 13.618905,1.2555853 13.375122,1.2229272 13.009441,1.1713726 12.806291,1.141025 12.424187,1.0839434 12.314798,1.0767278 9.4820073,0.92178978 6.6075435,0.76457073 5.0856161,0.60954035 4.2310349,0.38690331 3.617966,0.22718109 3.1972618,0.20649536 2.741109,0.31364802 2.5481083,0.3589863 2.3710299,0.40656586 2.3476118,0.41938629 2.3242894,0.43221013 2.1711693,0.61503508 2.0075507,0.8256738 1.7266981,1.1872421 1.7007085,1.2368099 1.5422604,1.7121957 L 1.3744561,2.2157358 v 0.8125601 c 0,0.446906 -0.016414,1.2478063 -0.035291,1.7797757 -0.018808,0.5319695 -0.044866,1.6206738 -0.057793,2.4193409 -0.012995,0.7986693 -0.03748,1.5462449 -0.05451,1.6612793 -0.020655,0.1396219 -0.068667,0.2611865 -0.1443588,0.3656711 L 0.96911311,9.410885 v 1.210728 1.21073 l -0.28055844,0.547446 c -0.38083066,0.743096 -0.45816359,0.976123 -0.45816359,1.380438 0,0.636436 0.30182892,1.199388 0.95577672,1.78261 l 0.2354938,0.210044 h 0.7303779 0.7303848 l 0.1256806,0.12568 c 0.2038889,0.203899 0.4077232,0.243684 1.248523,0.243684 h 0.725481 L 5.2471897,15.952644 5.5122775,15.78304 v -1.898843 -1.89884 h 2.2457396 c 1.6974466,0 2.2565729,0.01081 2.2900859,0.04432 0.02435,0.02437 0.04432,0.08217 0.04432,0.128425 0,0.125727 0.150186,0.203285 0.576479,0.29769 0.120386,0.02667 0.211863,0.01629 0.443226,-0.05027 0.160336,-0.04612 0.362186,-0.101998 0.44852,-0.124164 l 0.15697,-0.0403 v -0.201726 -0.201729 h 1.386289 c 1.077858,0 1.388989,0.01028 1.398523,0.04617 0.06306,0.237361 0.0904,0.272139 0.353841,0.450504 0.403374,0.273101 0.876592,0.768611 1.20984,1.266842 l 0.287028,0.429156 0.01272,0.300444 c 0.02148,0.507095 -0.129975,1.165645 -0.509692,2.216069 -0.117548,0.325162 -0.239973,0.682622 -0.272057,0.794357 -0.184123,0.641459 -0.455359,2.094965 -0.989056,5.300388 -0.186032,1.117329 -0.345253,2.073065 -0.353836,2.123855 -0.0085,0.05081 0.02332,0.20869 0.07076,0.350894 l 0.08634,0.258557 0.275607,0.136821 0.275579,0.136822 1.553669,0.0014 1.553663,0.0014 0.09925,0.103596 0.09924,0.103597 v 8.461995 8.462003 l 0.30475,0.332777 0.304715,0.33277 2.181203,0.0034 2.181203,0.0034 0.29765,-0.143936 z M 42.608664,33.284374 c -0.541145,-0.393777 -1.092961,-1.230269 -1.271154,-1.926991 -0.06634,-0.259554 -0.07357,-0.410281 -0.07357,-1.542103 0,-1.394647 0.05033,-2.651514 0.13419,-3.350813 0.09717,-0.810536 0.119401,-1.03956 0.16145,-1.662142 0.0225,-0.335199 0.05636,-0.709183 0.07489,-0.831074 0.05875,-0.386132 0.146582,-1.237615 0.146582,-1.421054 0,-0.118875 0.0199,-0.19313 0.0608,-0.227067 0.152737,-0.126754 -0.08281,-2.687673 -0.317355,-3.450436 -0.03768,-0.122617 -0.08056,-0.322074 -0.09521,-0.44324 -0.01457,-0.121159 -0.03919,-0.236923 -0.05444,-0.257236 -0.01539,-0.02031 -0.037,-0.0868 -0.04835,-0.147744 -0.01142,-0.06094 -0.04726,-0.202227 -0.07986,-0.313962 -0.136513,-0.46856 -0.09148,-0.936228 0.132494,-1.375242 0.106495,-0.20873 0.179992,-0.704467 0.180176,-1.215026 0,-0.496932 0.01881,-0.530866 0.29354,-0.530866 0.127643,0 0.200284,0.02353 0.28527,0.09234 0.2125,0.172086 0.215229,0.183833 0.215338,0.923413 v 0.683325 l 0.13527,0.315805 c 0.07442,0.173692 0.154508,0.414706 0.177981,0.535579 0.02462,0.126528 0.05656,0.917176 0.07531,1.863452 0.01798,0.904016 0.0502,1.976104 0.07179,2.382405 0.224871,4.239714 0.258781,4.737724 0.389817,5.72516 0.222034,1.672893 0.296932,2.753612 0.239365,3.453561 -0.01908,0.233627 -0.05198,0.632541 -0.07273,0.88648 -0.07811,0.954505 -0.164228,1.476289 -0.2822,1.709771 -0.06265,0.123998 -0.19536,0.2848 -0.235022,0.2848 -0.01272,0 -0.12274,-0.07249 -0.244501,-0.161095 z M 23.054246,25.230115 c 0,-0.115654 0.05396,-0.132301 0.428733,-0.132301 h 0.383881 v -4.892787 c 0,-4.62246 0.0034,-4.894633 0.06463,-4.926168 0.03556,-0.01835 0.168735,-0.04472 0.295955,-0.05858 0.1975,-0.02153 0.234775,-0.01611 0.255177,0.03709 0.02969,0.07728 0.223546,0.359271 0.499227,0.726084 0.23931,0.318438 0.333838,0.368215 0.953451,0.502136 1.214716,0.262543 3.679604,0.454444 4.392999,0.342011 0.293677,-0.04628 0.609472,-0.192274 0.685081,-0.316692 0.269588,-0.443725 0.292295,-0.462537 0.558655,-0.462537 0.06491,0 0.09267,-0.02578 0.109197,-0.101576 0.01218,-0.05587 0.03727,-0.143127 0.05568,-0.193916 0.110395,-0.30441 0.14518,-0.662523 0.14518,-1.493822 0,-0.644134 0.01162,-0.870563 0.04616,-0.898751 0.02791,-0.02275 0.477615,-0.0448 1.135803,-0.05566 0.599295,-0.0099 1.127028,-0.03014 1.17273,-0.04502 0.08126,-0.02644 0.0831,-0.03932 0.0831,-0.576789 v -0.549738 h -0.493481 c -0.271415,0 -0.570596,-0.01057 -0.664864,-0.0235 l -0.171354,-0.0235 v -0.161192 -0.161196 h 0.816562 c 0.763336,0 0.814783,-0.0043 0.789483,-0.06464 -0.01484,-0.03555 -0.03912,-0.122813 -0.0539,-0.193917 -0.01484,-0.0711 -0.04842,-0.19939 -0.07474,-0.285086 -0.08867,-0.28836 -0.308983,-0.267341 2.913093,-0.27797 l 2.867467,-0.0094 0.02175,-1.4405241 c 0.01191,-0.7922869 0.0344,-1.4696118 0.05013,-1.5051622 0.02407,-0.054304 0.07959,-0.064735 0.347775,-0.06522 0.175595,-2.647e-4 0.418982,-0.024663 0.540873,-0.054086 0.159064,-0.03841 0.458752,-0.053887 1.061911,-0.054825 l 0.840328,-0.0013 V 6.9989176 6.186313 h -0.879115 c -0.48349,0 -0.894872,-0.014041 -0.914159,-0.031187 -0.01936,-0.017167 -0.201317,-0.1024739 -0.404461,-0.1896008 -0.20315,-0.087127 -0.390132,-0.1748543 -0.41554,-0.1949519 -0.03529,-0.027925 -0.04616,-0.3273131 -0.04616,-1.2698352 V 3.2674432 l -1.39384,0.00967 c -1.360688,0.00945 -1.394202,0.011442 -1.407873,0.083553 -0.0077,0.040626 -0.03283,0.086083 -0.05588,0.1010088 -0.0658,0.042616 -5.375942,0.033903 -5.530662,-0.00909 -0.07314,-0.02032 -0.162983,-0.07009 -0.199649,-0.1106045 -0.06443,-0.07121 -0.114922,-0.073666 -1.515306,-0.073666 h -1.448651 l -0.02066,0.1015758 c -0.01142,0.055864 -0.05581,0.1805269 -0.09868,0.2770238 l -0.07803,0.1754487 h -8.696936 -8.696913 l 0.138607,0.1242826 c 0.07625,0.068359 0.321465,0.2775251 0.544935,0.4648211 0.223463,0.1872931 0.630681,0.5519103 0.90494,0.8102572 0.274252,0.2583495 0.68971,0.643398 0.923239,0.8556631 0.233538,0.2122658 0.637048,0.5812384 0.896726,0.8199411 0.336936,0.3097291 0.498276,0.4340042 0.563449,0.4340042 0.105682,0 0.103719,0.00803 0.05013,-0.204789 -0.08934,-0.3547329 0.05211,-0.6607962 0.388594,-0.8408436 l 0.151252,-0.080933 h 10.249866 c 9.658204,0 10.256643,0.0037 10.367017,0.064086 0.24829,0.1358335 0.364382,0.4611988 0.303019,0.849334 -0.03515,0.222518 -0.117227,0.3486766 -0.294729,0.4532331 -0.124546,0.073361 -0.199833,0.073935 -10.837,0.082636 l -10.711572,0.00876 -0.46172,-0.4100943 C 14.23124,7.0271786 13.749207,6.5902971 13.414024,6.2818819 13.078806,5.9734659 12.571871,5.5203129 12.28744,5.2748734 12.003045,5.0294338 11.529725,4.6022136 11.235652,4.3254969 10.725353,3.8453132 10.693953,3.8223732 10.547057,3.8223732 c -0.09506,0 -0.161239,-0.019048 -0.173057,-0.049797 C 10.36237,3.7424072 10.266628,3.7135512 10.130956,3.6993712 10.007792,3.6864924 9.8115631,3.6424194 9.6949174,3.6014221 9.4985997,3.5324243 9.3865637,3.526606 8.1887753,3.5232259 7.4770483,3.5211057 6.8033073,3.5087607 6.6915586,3.4955264 L 6.4884152,3.4714723 v -0.22162 c 0,-0.1218908 0.014294,-0.3088817 0.031187,-0.4155364 0.026264,-0.1656246 0.022023,-0.1939164 -0.028247,-0.1939164 -0.1067629,0 -0.2066452,-0.1387588 -0.206057,-0.286257 0,-0.1843393 0.035428,-0.2297507 0.2064263,-0.270441 0.2060639,-0.049032 0.9788324,-0.00363 1.3258833,0.07795 0.5723813,0.1344958 1.6716689,0.2261635 3.5089662,0.2925991 1.475119,0.053341 3.81247,-0.021058 3.955899,-0.1259411 0.05068,-0.037042 0.03824,-0.056398 -0.09161,-0.1422954 C 14.986472,2.0507419 14.517865,1.9207977 13.905644,1.8296013 13.335898,1.7447348 11.421103,1.5560402 10.513701,1.4953399 10.188796,1.4736181 8.9672615,1.3896626 7.7991492,1.3087992 6.63103,1.2279378 5.6467125,1.1620369 5.6117974,1.1623577 5.5711715,1.1626223 5.5558512,1.1825201 5.569188,1.2173531 5.58273,1.2523229 5.4484593,1.422664 5.1936785,1.6940986 4.5645029,2.3644528 4.0361056,3.1518733 3.9211286,3.590488 3.7896415,4.0920966 3.7664901,4.5441719 3.7360207,7.202061 3.7177595,8.7939533 3.6908808,9.8826176 3.6675926,9.9723012 3.6195118,10.157406 3.409105,10.360275 3.2657241,10.359787 3.0995885,10.359257 2.7920829,10.156975 2.629073,9.9410614 2.3151384,9.5252334 2.1198876,9.1535497 2.0679835,8.8729625 2.0054715,8.5349013 2.0068394,6.1907662 2.0707192,4.8011884 2.0948623,4.272997 2.129196,3.4668565 2.1470673,3.0097666 2.1819481,2.1158207 2.2336744,1.8179257 2.4299032,1.3806654 2.6152233,0.96769849 2.9309908,0.80263535 3.4562351,0.84415729 c 0.1642547,0.0129811 0.365148,0.0316454 0.4464067,0.0414673 l 0.1477444,0.017858 -0.1662107,-0.0590305 C 3.6754101,0.77030901 3.1267477,0.75958761 2.8426123,0.82410422 2.6402075,0.87006487 2.6264056,0.88098732 2.4824913,1.1088538 2.4001793,1.2391825 2.3328387,1.3567815 2.3328387,1.370184 c 0,0.013405 -0.038505,0.060043 -0.085547,0.1036427 -0.047055,0.043601 -0.1425601,0.2117194 -0.2122602,0.3736007 L 1.908318,2.141759 1.8852693,3.7854343 C 1.8616734,5.4505258 1.7998044,7.8979911 1.7600607,8.7263083 1.7409788,9.1212835 1.7243591,9.210554 1.6293463,9.4223108 L 1.5203539,9.6652249 v 1.0975831 1.097581 l -0.1110032,0.304214 c -0.1283069,0.35157 -0.2833421,0.670279 -0.3260472,0.670279 -0.048628,0 -0.19085308,0.28033 -0.19085308,0.376239 0,0.04904 -0.0198342,0.108964 -0.0440457,0.133173 -0.0759035,0.07592 -0.0844322,0.672824 -0.0129948,0.89933 0.0997183,0.315491 0.16348867,0.409056 0.39929708,0.585828 0.1219736,0.09142 0.2703061,0.211614 0.3296515,0.2671 l 0.107905,0.100887 0.838153,0.0099 0.838153,0.0099 0.011353,0.138512 c 0.00718,0.08634 0.030298,0.138514 0.061555,0.138514 0.027563,0 0.05704,0.02072 0.065453,0.04602 0.011149,0.03332 0.1742197,0.04967 0.5913195,0.05929 0.4927641,0.01137 0.5976803,0.0037 0.7261444,-0.05298 l 0.1501588,-0.06626 0.0095,-1.922969 0.0095,-1.922968 0.2400762,-0.118105 0.240076,-0.118101 2.3872944,-0.0018 2.3872872,-0.0018 0.218697,0.215996 c 0.306575,0.30281 0.369046,0.338013 0.554968,0.31284 l 0.155514,-0.02106 0.0106,-0.281591 0.0106,-0.281592 2.253133,-0.02273 c 1.623818,-0.01637 3.52722,-0.07049 6.814782,-0.193742 4.500541,-0.168732 4.606428,-0.171018 7.904408,-0.170632 1.838522,2.2e-4 3.363842,0.01377 3.389592,0.03012 0.09657,0.06129 0.126584,0.30987 0.154556,1.280382 0.02435,0.844672 0.01798,1.118811 -0.04138,1.79142 -0.07349,0.832091 -0.16206,1.511539 -0.201824,1.548196 -0.013,0.0119 -0.01327,-0.03657 0,-0.10767 0.09654,-0.557336 0.115695,-0.929298 0.113123,-2.197723 -0.0027,-0.949941 -0.01881,-1.490539 -0.05512,-1.772952 l -0.05246,-0.406303 -1.503728,-0.0096 -1.503728,-0.0096 -0.132143,0.19433 -0.132151,0.194329 0.0249,-0.193916 0.02489,-0.193916 h -0.667435 c -0.367083,0 -0.676387,0.01446 -0.687303,0.03216 -0.01087,0.0177 0.0048,0.126535 0.03474,0.24189 0.03009,0.115354 0.05492,0.271253 0.05527,0.346445 0,0.253263 0.107105,0.642021 0.317888,1.166527 0.291043,0.724346 0.673338,1.4753 0.677578,1.331042 0,-0.02201 -0.01033,-0.0514 -0.02407,-0.06531 -0.01402,-0.01391 -0.06353,-0.210954 -0.110319,-0.437858 -0.06217,-0.301687 -0.07831,-0.46777 -0.06012,-0.618011 l 0.02489,-0.205454 0.04897,0.387833 c 0.02694,0.213309 0.08416,0.520805 0.127164,0.683326 0.134976,0.51008 0.136063,0.506655 -0.08656,0.275235 -0.29683,-0.308571 -0.439595,-0.55138 -0.690403,-1.174143 -0.23801,-0.59095 -0.316827,-0.868732 -0.378819,-1.334758 -0.02038,-0.152909 -0.04821,-0.352812 -0.0619,-0.444231 l -0.0249,-0.166216 -0.991307,-0.0098 c -0.667401,-0.0066 -2.658709,0.05069 -6.094686,0.175448 -3.880763,0.140899 -5.486097,0.185291 -6.700735,0.185291 h -1.597325 v 0.23187 c 0,0.321989 -0.05732,0.39605 -0.306282,0.39605 -0.237962,0 -0.531153,-0.139932 -0.711521,-0.339546 L 10.201333,11.6162 H 7.8173556 c -2.3190714,0 -2.3879578,0.0021 -2.5302511,0.07462 l -0.1462604,0.07462 v 1.900398 1.900397 l -0.206009,0.09745 c -0.1763878,0.08344 -0.2706004,0.100206 -0.6556167,0.116636 -0.3451496,0.01474 -0.5039738,0.0052 -0.6834599,-0.04096 -0.1286213,-0.03308 -0.2639728,-0.06015 -0.3007755,-0.06015 -0.073886,0 -0.1117967,-0.0699 -0.1117967,-0.206172 v -0.08937 h -0.8270527 -0.82708 l -0.022228,-0.08854 C 1.4946514,15.246436 1.4239254,15.17078 1.349718,15.127011 1.1192855,14.99105 0.90294886,14.79512 0.83192184,14.658079 0.79451035,14.58584 0.73582852,14.474384 0.70160419,14.410395 0.56158829,14.148639 0.51588752,13.631159 0.61589981,13.439504 c 0.0303668,-0.05819 0.0660001,-0.162841 0.0792343,-0.232558 0.0132684,-0.06972 0.0785777,-0.198201 0.14523435,-0.285518 0.066684,-0.08732 0.13310128,-0.196493 0.14769653,-0.242608 0.0145678,-0.04611 0.0625803,-0.133708 0.10674221,-0.194653 0.1829057,-0.25258 0.2046276,-0.434029 0.2046276,-1.708924 0,-0.9257201 0.010601,-1.1960077 0.048218,-1.2341252 C 1.3741893,9.5142725 1.4319001,9.425823 1.4759047,9.3445614 1.5496059,9.2084796 1.5592016,9.1107077 1.5970302,8.1071777 1.6579008,6.492645 1.6989713,4.6513655 1.7025483,3.3759726 L 1.7059681,2.2460747 1.8114383,1.9302011 C 1.9117926,1.6295773 2.0458172,1.3847307 2.110039,1.3847307 c 0.016415,0 0.1272194,-0.1482266 0.2464573,-0.3293951 L 2.5732638,0.72594332 2.9709466,0.6647034 c 0.4403881,-0.0678127 0.6991973,-0.0471028 1.1407001,0.0912731 0.2928489,0.0917808 0.8355541,0.16342022 1.9528361,0.2577853 1.0338005,0.087314 3.6391755,0.2734161 4.9310192,0.3522188 2.048922,0.1249843 3.431338,0.3152608 4.063002,0.5592381 0.214142,0.082708 0.46172,0.2961946 0.46172,0.3981467 0,0.2256517 -0.207438,0.2621297 -1.830622,0.3218846 C 11.56014,2.7236471 8.7862914,2.5649953 7.7780839,2.3071436 7.4908775,2.2336845 6.8404247,2.2065192 6.5862047,2.2573597 6.407006,2.293198 6.442345,2.4624639 6.6365425,2.4985157 c 0.068989,0.012796 0.072724,0.03865 0.061349,0.4232055 l -0.012174,0.4095731 0.1972342,0.023685 c 0.1084932,0.013036 0.743154,0.023815 1.4103976,0.023999 1.1060175,2.648e-4 1.2348783,0.00684 1.4590119,0.07419 0.2317799,0.069655 0.5291898,0.1278281 0.8804338,0.1722082 0.135693,0.017139 0.227621,0.084666 0.757188,0.5561282 0.331532,0.2951372 0.802226,0.7228553 1.045988,0.9504837 0.243783,0.2276312 0.93056,0.8568739 1.526165,1.3983227 l 1.082921,0.9844529 10.599434,0.00102 c 9.524863,0.00102 10.610725,-0.00479 10.71071,-0.056486 0.334466,-0.172966 0.3519,-0.8357729 0.02681,-1.0211716 -0.06957,-0.039689 -1.92738,-0.05027 -10.200513,-0.058094 -7.091766,-0.0067 -10.159257,0.00212 -10.262081,0.02993 -0.08067,0.021722 -0.20765,0.095385 -0.2822,0.1637041 -0.129442,0.1186265 -0.135535,0.1350177 -0.135535,0.3641672 0,0.2017844 0.01402,0.2548095 0.08777,0.3333872 0.143538,0.1527762 0.08625,0.2080056 -0.215673,0.2080056 H 15.114253 L 13.922845,6.398213 C 13.26758,5.8036515 12.440581,5.0615467 12.085043,4.7490915 11.306926,4.0652097 10.97696,3.7483799 10.97696,3.6851498 c 0,-0.038102 1.693288,-0.04895 8.81271,-0.056472 l 8.812712,-0.0093 0.07763,-0.2400857 c 0.04268,-0.1320474 0.09518,-0.2523008 0.116673,-0.2672244 0.02148,-0.014917 0.722164,-0.027392 1.557034,-0.027706 l 1.517981,-5.293e-4 0.133101,0.1292766 0.133122,0.1292795 h 2.65892 2.658921 l 0.01162,-0.1200442 0.01169,-0.1200442 1.55131,-0.00973 c 1.425656,-0.00893 1.555098,-0.00458 1.597516,0.053231 0.03481,0.047425 0.04616,0.3708985 0.04616,1.3117279 0,0.8242485 0.01272,1.2487822 0.03769,1.2487822 0.02065,0 0.17634,0.066486 0.345785,0.1477444 l 0.308087,0.1477478 h 0.964784 0.964765 l 0.02038,0.083108 c 0.01115,0.045708 0.01566,0.4820202 0.01006,0.9695828 l -0.01033,0.8864767 -0.960366,0.018466 c -0.811473,0.015601 -0.981609,0.028486 -1.097675,0.083108 -0.09474,0.044592 -0.228209,0.064639 -0.430429,0.064639 h -0.293115 l -0.0249,0.1939164 c -0.01374,0.106654 -0.03276,0.7695936 -0.04227,1.4731963 l -0.01723,1.2792814 -0.113657,0.02273 c -0.06251,0.0125 -1.368268,0.02273 -2.901699,0.02273 -2.347632,0 -2.78497,0.008 -2.768597,0.05069 0.0106,0.02788 0.0316,0.13165 0.04644,0.230611 0.01484,0.09896 0.05916,0.223482 0.09853,0.276717 0.03939,0.05324 0.066,0.136449 0.05909,0.184925 l -0.01245,0.08813 -0.73875,0.01966 -0.738728,0.01966 0.615668,0.0081 c 0.338631,0.0045 0.641972,0.01814 0.674082,0.03047 0.0928,0.03561 0.06812,0.114851 -0.05239,0.168181 l -0.110792,0.04905 v 0.558976 c 0,0.474626 -0.0093,0.566625 -0.06101,0.609671 -0.04808,0.03999 -0.301727,0.05306 -1.200415,0.0619 l -1.139428,0.01121 v 0.315668 c 0,0.581337 -0.07648,1.578304 -0.130105,1.695932 -0.02838,0.06232 -0.0711,0.23106 -0.09487,0.374976 -0.02387,0.143914 -0.05615,0.282578 -0.07193,0.308138 -0.01586,0.02557 -0.12168,0.05418 -0.235282,0.06361 -0.13254,0.011 -0.206536,0.03382 -0.206536,0.06371 0,0.02562 -0.04158,0.07381 -0.09235,0.10709 -0.05081,0.03328 -0.09233,0.08378 -0.09233,0.112223 0,0.09486 -0.180916,0.268287 -0.36043,0.345511 -0.296322,0.127475 -0.756558,0.167739 -1.597221,0.139738 -2.263939,-0.07542 -3.855683,-0.335082 -4.189439,-0.683441 -0.0567,-0.05919 -0.230747,-0.287688 -0.38674,-0.507771 -0.279204,-0.393907 -0.285906,-0.40015 -0.43006,-0.40015 h -0.146376 l -0.0093,4.921788 -0.0092,4.921792 h -0.498515 c -0.274178,0 -0.498516,-0.0069 -0.498516,-0.01545 z M 3.4020193,10.072345 3.5051299,9.9692266 3.5255112,7.4775556 C 3.5495855,4.5246222 3.5991102,3.7951012 3.8069725,3.3237396 3.8818982,3.1538807 4.6255717,2.1075594 4.8999336,1.7860275 5.2296331,1.3996358 5.2957631,1.3106999 5.2532905,1.3106999 c -0.06853,0 -1.2885812,-0.1826521 -1.6337787,-0.2445923 C 2.9208959,0.94076018 2.5963603,1.1598999 2.4241582,1.8732735 2.391261,2.0096344 2.3535822,2.4465056 2.3325447,2.9359061 2.3129155,3.3929966 2.2712634,4.1991344 2.2400625,4.7273258 2.1611091,6.0633484 2.127753,8.2233139 2.1796712,8.6389454 c 0.037959,0.3041742 0.05834,0.3580713 0.2720503,0.7202623 0.2775696,0.4704818 0.5929884,0.8162553 0.744556,0.8162553 0.063059,0 0.1423687,-0.03975 0.2057418,-0.103118 z M 17.513762,25.149027 c 0,-0.09158 -0.008,-0.09567 -0.15697,-0.07973 -0.08634,0.0092 -0.127911,0.01 -0.09235,0.0014 0.06128,-0.01437 0.06463,-0.365579 0.06463,-6.735051 v -6.719879 l -0.0831,5.3e-4 c -0.417292,0.0029 -2.147663,0.07795 -2.174077,0.09427 -0.01881,0.01159 0.06176,0.09217 0.178905,0.179086 0.271209,0.201229 1.077695,1.031844 1.329939,1.36974 0.249583,0.334347 0.325357,0.627857 0.319447,1.237374 -0.0061,0.636584 -0.181633,1.353343 -0.552957,2.258625 -0.212999,0.519316 -0.321383,0.902677 -0.49446,1.748989 -0.349972,1.711352 -0.948842,5.25708 -0.997531,5.90607 -0.03386,0.451413 -0.0072,0.581655 0.131958,0.64507 0.06176,0.02818 0.427011,0.042 1.106257,0.042 0.557705,0 1.014015,0.0069 1.014015,0.01545 0,0.0085 0.01006,0.04172 0.0225,0.07387 0.02011,0.05245 -0.09039,0.05841 -1.08554,0.05841 -1.250301,0 -1.193418,0.01245 -1.347126,-0.295496 l -0.08296,-0.166211 0.249562,-1.551337 c 0.636329,-3.955579 0.934643,-5.428331 1.309065,-6.462724 0.520395,-1.437665 0.661546,-2.384445 0.449368,-3.014305 -0.04439,-0.131731 -0.25833,-0.452232 -0.491676,-0.736507 -0.283452,-0.345309 -0.963389,-0.997757 -1.113151,-1.068159 -0.128116,-0.06022 -0.158427,-0.09525 -0.179459,-0.207423 -0.01402,-0.07423 -0.01457,-0.145731 -0.0027,-0.158892 0.04268,-0.0428 2.581328,-0.180083 2.631105,-0.142281 0.03666,0.02783 0.04616,1.436738 0.04616,6.826854 l -2.7e-5,6.791797 h 2.567094 2.567095 v -6.870193 c 0,-3.778607 0.0041,-6.870362 0.0093,-6.870562 0.0048,-1.84e-4 0.398845,-0.02474 0.875031,-0.05453 0.476206,-0.02979 0.8688,-0.0504 0.872486,-0.0458 0.0034,0.0046 0.02653,0.714775 0.05089,1.578166 0.02435,0.863392 0.06134,1.636289 0.08231,1.717547 0.127986,0.496385 0.544956,1.044918 1.052185,1.384179 0.301836,0.201883 0.325569,0.257698 0.02982,0.07014 -0.230385,-0.146096 -0.805543,-0.685681 -0.984127,-0.923251 -0.07482,-0.09951 -0.178692,-0.271141 -0.230863,-0.381409 l -0.09484,-0.200489 v -1.535183 -1.535153 l -0.101572,-2.23e-4 c -0.05588,-1.49e-4 -0.388306,0.01981 -0.738722,0.0443 l -0.637157,0.04455 v 6.786498 6.786497 l 0.08311,0.01552 c 0.04569,0.0086 0.0041,0.0081 -0.09235,-0.0014 -0.168467,-0.01586 -0.175438,-0.01272 -0.175438,0.07926 v 0.09581 h -2.567094 -2.567095 v -0.09654 z m 10.325953,-8.561054 c -0.242571,-0.05397 -0.444819,-0.10189 -0.449402,-0.106482 -0.02148,-0.02138 0.965216,0.0096 1.269035,0.03987 0.619874,0.06171 1.639927,-0.100421 2.132376,-0.33893 0.142608,-0.06907 0.317464,-0.137143 0.388539,-0.151279 0.119272,-0.02371 0.110662,-0.01308 -0.110791,0.136817 -0.323743,0.219139 -0.475652,0.274695 -1.145043,0.418744 -0.527207,0.113458 -0.614868,0.122265 -1.10809,0.111299 -0.411163,-0.0091 -0.638019,-0.0347 -0.976624,-0.110039 z m 3.576815,-0.898966 c 0.01218,-0.01226 0.02093,0.0095 0.01936,0.04848 -0.0027,0.04303 -0.0106,0.05179 -0.02223,0.02231 -0.0106,-0.02666 -0.0093,-0.05851 0.0027,-0.07079 z M 41.705182,12.01125 c -0.02934,-0.155634 -0.05588,-0.230156 -0.06395,-0.179626 -0.01162,0.07323 -0.02886,0.08266 -0.112461,0.06201 -0.05423,-0.0134 -0.141049,-0.06472 -0.192946,-0.114061 -0.05191,-0.04934 -0.11421,-0.08971 -0.138504,-0.08971 -0.06463,0 -0.05383,-0.06235 0.02038,-0.118512 0.03557,-0.02686 0.08247,-0.08083 0.104226,-0.119937 0.02175,-0.03911 0.05916,-0.07764 0.08308,-0.08561 0.03953,-0.01319 0.05362,0.01033 0.103377,0.172373 0.0088,0.0283 0.02387,0.04336 0.03379,0.03347 0.0098,-0.0099 -0.0075,-0.09005 -0.03851,-0.178125 -0.05732,-0.162503 -0.03714,-0.218621 0.07912,-0.220192 0.06463,-8.21e-4 0.30371,0.280718 0.335793,0.395569 0.05096,0.1823 0.03468,0.673987 -0.02332,0.7099 -0.09681,0.0598 -0.139749,-5.3e-4 -0.190039,-0.267534 z m -0.727656,-0.58918 c -0.100642,-0.06602 -0.211358,-0.136664 -0.246007,-0.156981 -0.05574,-0.03265 -0.05956,-0.0755 -0.0331,-0.369365 0.02694,-0.299119 0.03775,-0.333546 0.108117,-0.343584 0.05964,-0.0085 0.122001,0.04846 0.262865,0.240085 0.267865,0.36444 0.283554,0.401554 0.228367,0.540855 -0.04336,0.10946 -0.103822,0.209034 -0.12698,0.209034 -0.0054,0 -0.09259,-0.05402 -0.193267,-0.120044 z m 0.0803,-0.313958 c -0.116701,-0.21961 -0.163085,-0.268783 -0.163748,-0.173602 0,0.03962 -0.0106,0.109423 -0.02278,0.155131 -0.01778,0.06585 -0.0069,0.0831 0.05137,0.0831 0.04049,0 0.09434,0.02493 0.119642,0.0554 0.0962,0.11593 0.104936,0.04828 0.01566,-0.120041 z M 37.86044,10.387708 c -0.344513,-0.2031 -0.485083,-0.449727 -0.48312,-0.8476795 0.0027,-0.4727241 0.196126,-0.7978008 0.548266,-0.9196411 0.213375,-0.073817 0.632806,-0.064208 0.78975,0.018097 0.182086,0.095504 0.362796,0.2743565 0.451995,0.4473621 0.09383,0.1819865 0.126214,0.5689454 0.06621,0.7908055 -0.05527,0.204363 -0.331984,0.50232 -0.536694,0.577925 -0.228099,0.08425 -0.635269,0.05171 -0.836402,-0.06686 z m 0.763789,-0.116211 c 0.259179,-0.112905 0.460468,-0.416782 0.460468,-0.6951311 0,-0.3757893 -0.209264,-0.7328853 -0.491813,-0.8392274 -0.367665,-0.138382 -0.832244,0.064099 -0.969073,0.4223532 -0.09813,0.2569958 -0.06312,0.6367452 0.07738,0.8389302 0.197214,0.2838331 0.614793,0.4073661 0.923037,0.2730751 z m -14.14449,-0.02218 C 24.288543,10.068489 24.279693,10.064642 24.05506,10.064642 h -0.2294 l 0.01142,-0.1569806 0.01135,-0.1569788 0.331798,-0.010816 c 0.275019,-0.00895 0.339452,-2.646e-4 0.376673,0.050617 0.02462,0.033771 0.120571,0.141317 0.213026,0.2389824 0.184554,0.194921 0.197822,0.23665 0.107009,0.33698 -0.09715,0.107371 -0.188097,0.08055 -0.397129,-0.117134 z m 0.0772,-0.203148 C 24.412073,9.8849518 24.401397,9.880112 24.201858,9.885156 l -0.205742,0.00516 0.184677,0.02384 c 0.147457,0.019025 0.211864,0.051502 0.319502,0.161015 0.190833,0.194144 0.236266,0.170844 0.05663,-0.02904 z M 4.5675122,10.092395 C 4.4862602,10.059402 4.3435976,10.022441 4.2505272,10.010256 4.1199222,9.9931715 4.050564,9.9566764 3.94692,9.8505189 L 3.8125808,9.7129367 3.8863841,9.4757436 c 0.040626,-0.1304556 0.09201,-0.259091 0.1142109,-0.2858542 0.031051,-0.037404 0.2184089,-0.048662 0.8102278,-0.048662 0.8898382,0 0.8474546,-0.01889 0.8447257,0.3761712 -0.00273,0.2929068 -0.04856,0.5395464 -0.1141357,0.6044504 -0.069248,0.06855 -0.6963315,0.12684 -0.7707509,0.07164 -0.030435,-0.02262 -0.1218915,-0.06811 -0.2031497,-0.101091 z M 26.403328,9.7437816 c -0.131561,-0.067249 -0.209476,-0.2504173 -0.209476,-0.492389 0,-0.3426922 0.156171,-0.4938919 0.504685,-0.4886249 0.351134,0.00526 0.503598,0.1610149 0.500451,0.5110697 -0.0027,0.1952358 -0.0675,0.3699502 -0.171859,0.4565439 -0.138614,0.1150477 -0.413394,0.1209508 -0.623801,0.013403 z m 0.512448,-0.2130391 c 0.06968,-0.069662 0.09068,-0.1295472 0.09068,-0.2585561 0,-0.2255329 -0.08962,-0.3156398 -0.313962,-0.3156398 -0.240371,0 -0.328249,0.097069 -0.305174,0.3370914 0.0225,0.2339492 0.106661,0.3277658 0.294101,0.3277658 0.103323,0 0.169179,-0.025484 0.234351,-0.090661 z M 32.220267,9.669419 C 32.005647,9.603852 31.591536,9.3687534 31.536246,9.281109 31.43449,9.1197946 31.666406,8.9012003 32.02981,8.8158913 c 0.245849,-0.057717 0.915055,-0.1290065 0.97938,-0.1043341 0.04439,0.017037 0.05096,0.061875 0.03242,0.2198903 -0.01908,0.1630974 -0.0077,0.2325185 0.06422,0.3892605 0.04808,0.1049166 0.116598,0.1999948 0.15215,0.2112824 0.03556,0.011283 0.0647,0.034646 0.0647,0.051911 0,0.029501 -0.224024,0.1234797 -0.387855,0.162705 -0.120489,0.028849 -0.502517,-0.012431 -0.714483,-0.07719 z m 0.742196,-0.1104111 c 0.08058,-0.021058 0.08276,-0.00671 -0.03221,-0.212435 -0.0758,-0.1356189 -0.09254,-0.2055995 -0.07696,-0.32167 l 0.01983,-0.1483436 -0.320083,0.024211 c -0.506914,0.038355 -0.916122,0.1866413 -0.842735,0.3053793 0.03926,0.063572 0.355874,0.2294453 0.586094,0.3070827 0.194006,0.065421 0.508214,0.087014 0.666033,0.045773 z m 0.42775,-0.057776 C 33.115379,9.340167 33.033354,9.0804474 33.174006,8.8165587 c 0.112193,-0.2104828 0.166689,-0.2659161 0.301432,-0.3065803 0.169104,-0.051042 1.123533,-0.049374 1.509295,0.00267 0.418878,0.056472 0.461214,0.097909 0.426956,0.4178413 l -0.02572,0.2395261 -0.394586,0.1589306 C 34.262678,9.6224767 34.25592,9.6242119 33.893207,9.6117123 33.60979,9.6019371 33.533278,9.585149 33.390136,9.5012613 Z m 0.966616,-0.1176438 c 0.214456,-0.060032 0.698774,-0.2628268 0.804449,-0.3368632 0.06039,-0.042281 0.08202,-0.094648 0.08202,-0.1984707 0,-0.1698479 -0.0061,-0.1716549 -0.720262,-0.2267489 -0.759677,-0.058572 -1.075076,-0.0028 -1.175478,0.2077319 -0.182961,0.3837033 0.05561,0.6129982 0.628539,0.6041753 0.117973,-0.00185 0.289299,-0.024239 0.380728,-0.049829 z M 4.507989,8.8080144 C 4.2424225,8.7576491 4.1509457,8.6609799 4.1053476,8.3825088 3.9905279,7.6812988 4.1498719,5.1731778 4.3863026,3.9597354 4.505308,3.3489393 4.6010046,3.038343 4.7458628,2.7924425 4.8499514,2.6157702 4.8957616,2.577655 5.1565542,2.4507789 5.4851183,2.2909322 5.6751506,2.2693614 5.80791,2.3768479 L 5.892951,2.4457239 5.715421,2.921661 C 5.4466806,3.6421536 5.425588,3.8707197 5.4516323,5.780006 c 0.011627,0.8633911 0.031324,1.8580409 0.04343,2.2103362 L 5.5170856,8.6308764 5.3932311,8.7368047 C 5.2809285,8.8328858 5.2432844,8.842874 4.9881823,8.844233 4.8335163,8.8450537 4.617467,8.8287623 4.5080779,8.8080116 Z M 43.554585,6.9470142 c 0,-0.4691764 0.01457,-0.875109 0.03167,-0.9020678 0.0504,-0.079553 0.33095,0.010915 0.356489,0.114981 0.01115,0.044982 0.01539,0.4218766 0.0095,0.837545 l -0.0106,0.7557644 -0.126002,0.084875 c -0.118075,0.079545 -0.130262,0.081018 -0.193897,0.023418 -0.06224,-0.056316 -0.06784,-0.1328961 -0.06737,-0.914512 z M 15.75896,5.8219278 c -0.180785,-0.08213 -0.364197,-0.2841301 -0.424842,-0.467905 -0.104567,-0.316816 0.06682,-0.7334283 0.366824,-0.8918894 l 0.16327,-0.086234 10.252833,0.00948 10.252807,0.00948 0.135912,0.084501 c 0.366735,0.2280524 0.400596,0.8990694 0.06135,1.2155229 C 36.34534,5.901757 37.100039,5.8878429 26.064588,5.8885323 16.31782,5.8890617 15.901062,5.8864123 15.758981,5.8219033 Z M 36.317346,5.659082 c 0.201345,-0.1356907 0.292582,-0.3023994 0.292582,-0.5345821 0,-0.2464061 -0.08578,-0.4383992 -0.237108,-0.5306871 -0.110579,-0.06743 -0.399858,-0.069377 -10.334667,-0.069511 L 15.817266,4.5241529 15.690211,4.6357115 c -0.30594,0.2686046 -0.245617,0.8826091 0.102947,1.0480086 0.113869,0.054045 1.029327,0.059339 10.262292,0.059339 h 10.137275 z m 1.188863,-2.7281666 c -0.03125,-0.031263 -0.02647,-0.065433 0.01881,-0.1344377 0.04302,-0.065692 0.06107,-0.1785059 0.06224,-0.3890092 0,-0.1798089 0.01751,-0.301766 0.04185,-0.3099097 0.02223,-0.00739 0.196688,-0.1050544 0.387828,-0.2170397 0.191174,-0.1119874 0.532905,-0.2960646 0.759418,-0.4090588 l 0.411854,-0.2054463 0.362768,0.00465 c 0.523685,0.0067 0.917736,0.1341859 0.952918,0.308262 0.0093,0.045461 0.02599,0.35797 0.037,0.6944602 0.01484,0.4463766 0.0085,0.6236528 -0.0236,0.6556243 -0.06114,0.061103 -2.950081,0.062936 -3.011115,0.00185 z M 40.365572,2.2618005 C 40.35285,1.9723112 40.331578,1.6973932 40.318311,1.6508697 40.278432,1.5108072 40.102207,1.4505228 39.63972,1.4187108 c -0.374682,-0.025777 -0.444334,-0.021086 -0.580616,0.039142 -0.193868,0.085664 -1.216809,0.696285 -1.261237,0.7528769 -0.01798,0.023021 -0.04248,0.1623444 -0.05423,0.3096285 l -0.02148,0.2677886 h 1.333222 1.333194 z M 28.801825,2.9144051 c -0.03255,-0.084798 -0.02647,-0.9492068 0.0072,-1.0019275 0.03919,-0.061616 1.00569,-0.1587901 1.566992,-0.1575528 0.590122,0.0013 1.120722,0.053826 1.223408,0.1210988 0.066,0.043218 0.101784,0.1463621 0.186087,0.5355403 0.05738,0.2651083 0.09339,0.4998469 0.0799,0.52164 -0.01669,0.027166 -0.498864,0.039627 -1.532768,0.039627 -1.341251,0 -1.510724,-0.0065 -1.530675,-0.058422 z m 2.882542,-0.1908969 c -0.0119,-0.035551 -0.0608,-0.2047465 -0.108726,-0.3759876 -0.06347,-0.2267407 -0.110846,-0.3271141 -0.174425,-0.3693652 -0.117918,-0.078355 -1.199887,-0.096476 -1.88308,-0.031536 l -0.498647,0.047397 -0.0106,0.3970681 -0.01033,0.3970652 h 1.353726 c 1.272899,0 1.352455,-0.0039 1.332108,-0.064639 z"
   id="path7491" /></svg>
