<?xml version="1.0" encoding="UTF-8" standalone="no"?>
<!-- Generator: Adobe Illustrator 16.0.0, SVG Export Plug-In . SVG Version: 6.00 Build 0)  -->

<svg
   version="1.1"
   id="Layer_1"
   x="0px"
   y="0px"
   width="75.592003"
   height="39.133999"
   viewBox="0 0 75.592 39.134"
   enable-background="new 0 0 92.592 39.134"
   xml:space="preserve"
   sodipodi:docname="mp5sd.svg"
   inkscape:version="1.1.1 (3bf5ae0d25, 2021-09-20)"
   xmlns:inkscape="http://www.inkscape.org/namespaces/inkscape"
   xmlns:sodipodi="http://sodipodi.sourceforge.net/DTD/sodipodi-0.dtd"
   xmlns="http://www.w3.org/2000/svg"
   xmlns:svg="http://www.w3.org/2000/svg"><defs
   id="defs7711" /><sodipodi:namedview
   id="namedview7709"
   pagecolor="#505050"
   bordercolor="#eeeeee"
   borderopacity="1"
   inkscape:pageshadow="0"
   inkscape:pageopacity="0"
   inkscape:pagecheckerboard="0"
   showgrid="false"
   width="92.592px"
   inkscape:zoom="8.5150341"
   inkscape:cx="38.461384"
   inkscape:cy="16.441508"
   inkscape:window-width="1440"
   inkscape:window-height="848"
   inkscape:window-x="1358"
   inkscape:window-y="-8"
   inkscape:window-maximized="1"
   inkscape:current-layer="Layer_1" />

<path
   style="fill:#ffffff;stroke-width:0.0420564"
   d="m 45.570522,37.659785 c 0.809586,-0.50551 1.489483,-0.925834 1.510881,-0.934066 0.02141,-0.0082 -0.207322,-0.401843 -0.50826,-0.874677 -0.63944,-1.004692 -1.253361,-2.035108 -1.740007,-2.920469 -1.319974,-2.401449 -2.866144,-6.037613 -3.719708,-8.747734 -0.699205,-2.220027 -1.039171,-3.668696 -1.433555,-6.108697 -0.01213,-0.07517 -0.03079,-0.136683 -0.04142,-0.136683 -0.0196,0 -3.309539,1.639652 -3.333218,1.66123 -0.01445,0.01316 0.234954,1.018709 0.39639,1.598144 0.790777,2.838306 2.18808,7.156335 3.034883,9.378581 1.290172,3.385741 2.725659,6.164914 3.812348,7.380901 0.175711,0.196612 0.358944,0.418989 0.407194,0.494158 0.04824,0.07518 0.100047,0.134824 0.115113,0.132546 0.01509,-0.0029 0.689776,-0.417732 1.499361,-0.923234 z m 2.278497,-1.370754 0.217736,-0.149077 -0.152221,-0.237863 C 47.722339,35.601775 46.00208,32.202134 45.378782,30.89084 43.307408,26.533093 42.041156,23.286486 41.32531,20.497926 41.042026,19.394418 40.839174,18.163572 40.839174,17.548228 v -0.200496 l -0.336451,0.169163 c -0.226974,0.114122 -0.336408,0.19296 -0.336318,0.242296 2.51e-4,0.187744 0.270244,1.917222 0.401921,2.575487 0.408215,2.040788 1.1697,4.465431 2.22558,7.086505 0.995031,2.470017 1.735794,4.020719 2.852806,5.972009 0.675055,1.179245 1.84954,3.021633 1.935711,3.036492 0.02686,0.0045 0.14684,-0.05866 0.266596,-0.140653 z M 19.537594,32.354983 c 0.34162,-0.192237 0.650708,-0.600368 0.651481,-0.860251 3.93e-4,-0.07265 -0.0357,-0.212686 -0.0798,-0.311194 l -0.08018,-0.179101 0.138176,-0.29862 c 0.557207,-1.204259 1.588801,-3.421725 2.007389,-4.315016 0.276391,-0.589842 0.62759,-1.341442 0.780448,-1.670218 0.152849,-0.328773 0.307543,-0.610465 0.343764,-0.62598 0.03621,-0.01552 0.274034,-0.03715 0.528478,-0.04808 0.590756,-0.02537 0.983416,0.06343 1.819884,0.411609 0.771921,0.32131 1.092611,0.409158 1.691826,0.463456 0.713585,0.06466 1.374904,0.0027 2.334131,-0.218985 0.450479,-0.104068 0.599445,-0.159011 0.846123,-0.312072 0.86892,-0.539146 1.590564,-1.750392 2.097856,-3.521142 l 0.154046,-0.537716 -0.487088,-1.173472 -0.487085,-1.173463 V 15.311544 12.63835 l -8.043292,8.77e-4 c -5.087495,5.49e-4 -8.149247,0.01615 -8.331624,0.04252 -0.158579,0.02292 -0.830434,0.107809 -1.493002,0.188633 -0.662566,0.08081 -1.488553,0.190388 -1.835515,0.243488 l -0.630851,0.09655 0.01182,0.881058 c 0.0065,0.48458 0.02266,1.027731 0.03593,1.206997 l 0.02411,0.325936 h 1.754126 1.754123 l 0.11642,0.121514 c 0.262237,0.273716 0.890451,0.466289 1.523332,0.466957 0.339539,4.32e-4 0.297286,-0.02357 0.950626,0.538411 0.663079,0.570352 0.916486,1.053508 0.922338,1.758567 0.0035,0.446988 -0.0815,0.726657 -0.343831,1.12851 -0.309438,0.474006 -0.647044,1.011434 -1.335704,2.12628 -1.867818,3.02373 -3.589567,5.790071 -3.843476,6.175317 l -0.289659,0.439496 0.13344,0.08115 c 0.0734,0.04464 0.2585,0.18114 0.411345,0.303346 0.15285,0.122207 0.457695,0.342139 0.677441,0.488727 0.219747,0.146596 0.702342,0.493323 1.072441,0.770503 1.767882,1.324041 3.665527,2.385203 4.256885,2.380453 0.08747,-6.37e-4 0.196889,-0.0226 0.243147,-0.04864 z m 5.297505,-9.512296 c -0.252275,-0.117475 -0.532041,-0.419875 -0.600811,-0.649405 -0.07402,-0.247024 -0.06462,-2.541727 0.01127,-2.754492 0.140768,-0.394645 0.508176,-0.720293 0.867935,-0.769289 l 0.185833,-0.0253 0.116143,0.458439 c 0.219779,0.867532 0.415463,1.284867 0.914389,1.95017 0.580848,0.77454 0.924337,1.047247 1.243612,0.987352 0.323629,-0.06072 0.315883,-0.246911 -0.04129,-0.992159 -0.323021,-0.674011 -0.529569,-1.503875 -0.529569,-2.127722 v -0.267858 h 1.704634 c 1.379513,0 1.731969,0.01141 1.847946,0.05987 0.246302,0.102913 0.514763,0.386477 0.612042,0.646473 0.08402,0.224602 0.08762,0.30027 0.07515,1.583698 -0.01269,1.302732 -0.01626,1.353736 -0.107341,1.524141 -0.101586,0.190047 -0.292796,0.354301 -0.494547,0.424821 -0.08268,0.02891 -1.068577,0.04511 -2.859841,0.04702 l -2.733668,0.0027 -0.211885,-0.09867 z M 4.4526859,23.697926 C 4.6361622,23.586069 4.762936,23.30126 4.9014104,22.689836 5.518868,19.96353 6.7180098,16.141491 7.5298979,14.311999 7.7198942,13.883873 8.078509,13.257304 8.163678,13.204666 c 0.02396,-0.01479 0.03971,0.148695 0.03971,0.411576 0,0.239866 0.03822,0.709388 0.08489,1.043378 0.04669,0.333992 0.09671,0.777586 0.111146,0.985766 0.02078,0.299193 0.05188,0.429816 0.148553,0.623371 0.181438,0.363246 0.264883,0.389187 1.068621,0.332188 0.696767,-0.04941 0.880397,-0.102105 1.102433,-0.31633 0.306406,-0.295628 0.294643,-0.208412 0.262075,-1.942979 -0.01607,-0.855848 -0.02286,-1.564199 -0.01509,-1.574118 0.0078,-0.0099 1.078441,-0.156103 2.379282,-0.324864 l 2.365171,-0.306838 11.67066,0.0095 c 11.017291,0.0089 11.684781,0.01366 11.922992,0.08379 0.138788,0.04086 0.368811,0.132645 0.51117,0.20396 0.299473,0.150032 0.926529,0.683408 1.171091,0.99614 0.09252,0.118318 0.184866,0.215881 0.205211,0.216809 0.03441,0.0016 0.01103,-1.787553 -0.05295,-4.0567578 L 41.112577,8.6640156 28.679485,8.6534305 16.246386,8.6428454 16.201475,8.9454726 c -0.07509,0.5060014 -0.381921,0.8318972 -0.866779,0.9206572 -0.15374,0.028146 -0.662652,0.03982 -1.324776,0.030397 C 12.831923,9.8797461 12.773072,9.8688546 12.482475,9.6137009 12.398984,9.5404 12.286961,9.3913613 12.233526,9.2825027 12.14615,9.1044905 12.13635,9.0253655 12.136045,8.4957954 c 0,-0.3238347 0.01413,-0.6566803 0.03181,-0.7396581 0.04486,-0.2104047 0.301857,-0.4939159 0.55429,-0.6114594 0.208156,-0.09693 0.23865,-0.099008 1.453283,-0.099008 1.211258,0 1.245656,0.00226 1.451253,0.098066 0.345783,0.1610233 0.513557,0.4002724 0.586849,0.8368681 l 0.02646,0.1577119 H 28.686804 41.1336 V 7.4654105 6.7925083 h 11.645273 11.645275 l 0.204065,0.3259371 c 0.473751,0.7567064 0.786833,1.5216216 0.899429,2.1974482 0.06112,0.3668834 0.07731,1.6307794 0.02734,2.1343634 l -0.03445,0.346965 h 0.488311 c 0.278287,0 0.624704,0.02817 0.805426,0.0655 0.174412,0.03602 0.348144,0.05952 0.386065,0.05222 0.046,-0.0089 0.105078,-0.130556 0.177435,-0.365466 l 0.10848,-0.352186 0.439437,0.007 c 0.24169,0.0039 0.964846,0.02534 1.607019,0.04776 1.160209,0.04049 1.944992,0.01047 2.312322,-0.08844 0.114866,-0.03093 0.206841,-0.103299 0.33274,-0.261813 0.37322,-0.469922 0.414099,-0.77368 0.198369,-1.4741917 C 72.30379,9.192683 72.225771,8.9768162 72.202762,8.9479024 72.170748,8.907658 71.819078,8.895327 70.703456,8.895327 c -1.606604,0 -1.472606,0.020593 -1.830719,-0.2812538 -0.159193,-0.134178 -0.17863,-0.1393033 -0.528303,-0.1393033 -0.354596,0 -0.365197,0.00293 -0.456309,0.1261697 -0.05131,0.069392 -0.109111,0.1261687 -0.128463,0.1261687 -0.01937,0 -0.09424,-0.1621073 -0.166415,-0.3602386 l -0.131232,-0.3602293 0.07837,-0.154952 c 0.125836,-0.2487647 0.180114,-0.576136 0.203669,-1.228356 0.02647,-0.7323896 -0.03138,-1.232929 -0.174141,-1.5067621 C 67.476928,4.9381936 67.465884,4.8563511 67.4442,4.1850245 67.399159,2.7906595 67.205458,1.6992534 66.891848,1.0728498 66.729177,0.74793173 66.692034,0.73063318 66.102332,0.70516376 65.473737,0.6780175 65.073793,0.74000182 64.892331,0.89268784 L 64.7693,0.99621367 V 2.9691275 4.9420406 h -0.20538 c -0.170006,0 -0.209164,-0.014487 -0.227368,-0.084113 -0.02179,-0.083402 -0.05737,-0.084113 -4.210551,-0.084113 -2.303699,0 -4.188549,-0.015143 -4.188549,-0.033663 0,-0.064454 -0.43032,-0.5159539 -0.551446,-0.5785921 -0.06709,-0.034692 -0.275515,-0.082324 -0.463182,-0.1058583 -0.566474,-0.071028 -0.954478,0.050091 -1.447867,0.4519644 l -0.249303,0.2030625 -10.575881,-0.01144 -10.57588,-0.01144 -0.100452,-0.093704 c -0.05525,-0.051538 -0.136841,-0.1646737 -0.18132,-0.2514145 -0.04449,-0.086742 -0.08871,-0.1577124 -0.0983,-0.1577124 -0.0096,0 -0.160312,0.1135528 -0.33496,0.2523391 L 31.041327,4.6896962 H 30.413075 29.784824 L 29.658656,4.5635274 c -0.111963,-0.1119662 -0.15439,-0.1261696 -0.376848,-0.1261696 -0.239091,0 -0.257704,0.00777 -0.40266,0.1682255 L 28.727164,4.7738094 H 25.76413 c -2.629781,0 -2.990465,0.00781 -3.206913,0.069545 -0.134131,0.03825 -0.343702,0.07788 -0.465716,0.088067 -0.205927,0.017196 -0.233412,0.00806 -0.38326,-0.1273165 -0.08879,-0.08021 -0.194093,-0.1641193 -0.234025,-0.186465 -0.06704,-0.037519 -0.06419,-0.056426 0.03719,-0.2471372 0.150348,-0.2827535 0.659279,-1.4145768 0.643274,-1.4305832 -0.02911,-0.029111 -2.999662,-1.1516663 -3.04816,-1.1518811 -0.02891,-1.271e-4 -0.05258,0.027446 -0.05258,0.061275 0,0.03383 -0.03793,0.1629094 -0.08432,0.286848 l -0.08432,0.2253393 -0.375398,0.049982 c -0.505635,0.067317 -0.903207,0.2086474 -1.266633,0.4502502 -0.485829,0.3229801 -0.636891,0.6326685 -0.721514,1.4791786 -0.04687,0.468821 -0.04775,0.471453 -0.166356,0.4975046 -0.06558,0.014406 -0.119245,0.036409 -0.119245,0.048886 0,0.012484 0.101744,0.1860383 0.226094,0.3856802 0.124355,0.199642 0.271395,0.4481489 0.326762,0.5522387 l 0.100659,0.1892539 8.547149,0.010615 8.547145,0.010615 V 6.2248565 6.414009 H 25.326509 16.669041 L 16.252836,5.6949694 15.836632,4.9759307 15.500181,4.8279756 15.163728,4.6800214 13.923065,4.702923 C 12.323712,4.7324505 11.295356,4.8227743 10.951788,4.9639152 10.744161,5.0492088 10.327006,5.6676277 9.548086,7.0448555 9.33223,7.4265171 9.151763,7.7444603 9.147042,7.7513958 9.142293,7.7583358 8.421816,7.5800037 7.5459166,7.3551129 6.0183633,6.9629061 5.9343803,6.9460876 5.4880161,6.9429667 L 5.0226578,6.9396817 4.4786615,7.3080057 C 4.1794634,7.5105828 3.8474622,7.7572511 3.7408792,7.856157 l -0.1937935,0.1798275 0.032676,1.512615 c 0.03456,1.5994475 -0.013515,5.3845645 -0.086717,6.8327475 -0.1139387,2.253416 -0.3382581,4.120712 -0.5948073,4.95132 -0.047644,0.154263 -0.1624046,0.425209 -0.2550129,0.602106 l -0.1683781,0.321629 0.2883185,0.373571 c 0.4720982,0.611681 0.7638815,0.900192 1.0453391,1.033615 0.2984516,0.141485 0.4547535,0.149813 0.6441879,0.03432 z M 33.899865,19.722227 c 0.980243,-0.334349 1.980096,-0.616737 2.206678,-0.623227 0.139067,-0.0041 0.657394,-0.248435 2.572464,-1.213227 2.283489,-1.150395 2.402172,-1.215831 2.479004,-1.366834 0.04438,-0.08723 0.09474,-0.164853 0.111904,-0.172503 0.01716,-0.0077 0.01323,-0.0475 -0.0088,-0.08856 -0.03414,-0.06375 -0.312611,-1.461322 -0.400899,-2.011835 -0.05661,-0.353023 -0.81759,-1.181732 -1.268098,-1.380969 -0.500503,-0.221344 -0.598213,-0.226722 -4.118894,-0.226722 h -3.255631 v 2.633354 2.633355 l 0.291448,0.720643 c 0.294023,0.727011 0.579836,1.376998 0.60119,1.367216 0.0063,-0.0027 0.361698,-0.124729 0.789622,-0.270693 z m 19.862684,-6.138019 c 7.062381,-0.827064 10.906397,-1.293453 10.948462,-1.328364 0.235768,-0.195671 0.394854,-0.887445 0.394469,-1.71531 -3.93e-4,-1.1344253 -0.222592,-1.986285 -0.765983,-2.9384388 l -0.17401,-0.30491 H 52.902575 41.639669 l 0.02526,2.7862378 c 0.0139,1.532432 0.03723,3.21206 0.05186,3.732508 l 0.0266,0.94627 0.315423,0.04993 c 0.17348,0.02746 0.428973,0.0492 0.567761,0.04829 0.138785,-8.77e-4 5.149975,-0.575198 11.135977,-1.276211 z M 15.394452,9.3263407 C 15.619493,9.2134738 15.64606,9.1186156 15.646758,8.4254297 L 15.647488,7.808333 15.518087,7.6789286 15.388681,7.5495244 H 14.176724 12.964771 L 12.834159,7.6715388 12.70354,7.7935533 v 0.6466709 c 0,0.9829347 -0.03571,0.9598116 1.481137,0.9597152 0.928257,-4.23e-5 1.081891,-0.00941 1.209887,-0.073599 z"
   id="path7725" /></svg>
