<?xml version="1.0" encoding="UTF-8" standalone="no"?>
<!-- Generator: Adobe Illustrator 16.0.0, SVG Export Plug-In . SVG Version: 6.00 Build 0)  -->

<svg
   version="1.1"
   x="0px"
   y="0px"
   width="62.625"
   height="52"
   viewBox="0 0 62.625 52"
   enable-background="new 0 0 73.625 32"
   xml:space="preserve"
   id="svg7957"
   sodipodi:docname="mp9.svg"
   inkscape:version="1.1.1 (3bf5ae0d25, 2021-09-20)"
   xmlns:inkscape="http://www.inkscape.org/namespaces/inkscape"
   xmlns:sodipodi="http://sodipodi.sourceforge.net/DTD/sodipodi-0.dtd"
   xmlns="http://www.w3.org/2000/svg"
   xmlns:svg="http://www.w3.org/2000/svg"><defs
   id="defs7961" /><sodipodi:namedview
   id="namedview7959"
   pagecolor="#505050"
   bordercolor="#eeeeee"
   borderopacity="1"
   inkscape:pageshadow="0"
   inkscape:pageopacity="0"
   inkscape:pagecheckerboard="0"
   showgrid="false"
   width="74.625px"
   inkscape:zoom="5.354323"
   inkscape:cx="39.687557"
   inkscape:cy="28.201511"
   inkscape:window-width="1440"
   inkscape:window-height="848"
   inkscape:window-x="1358"
   inkscape:window-y="-8"
   inkscape:window-maximized="1"
   inkscape:current-layer="svg7957" />

<g
   id="guides">
</g>
<path
   style="fill:#ffffff;stroke-width:0.0416359"
   d="m 25.216248,50.498521 c 0.22691,-0.07917 0.4952,-0.341292 0.63028,-0.615797 l 0.10191,-0.207096 0.0101,-7.591597 c 0.006,-4.175384 0.0204,-7.608262 0.0329,-7.628622 0.0126,-0.02036 0.10174,-0.07393 0.19811,-0.11904 0.36256,-0.169713 0.33728,-0.02194 0.27976,-1.63557 -0.0322,-0.902856 -0.0443,-2.469861 -0.0329,-4.259549 0.0174,-2.737654 0.0211,-2.845016 0.11055,-3.247612 0.3064,-1.379026 1.48079,-4.238243 1.9128,-4.656986 l 0.16537,-0.160294 0.59771,0.189281 c 0.32874,0.104104 0.73823,0.208676 0.90998,0.232382 0.64666,0.08926 1.77318,0.140569 3.1227,0.142233 1.94284,0.0024 2.68954,-0.09002 3.3694,-0.417021 0.26065,-0.125369 0.39616,-0.233979 0.81661,-0.654477 0.27726,-0.27729 0.79919,-0.836048 1.15986,-1.241684 1.07641,-1.210639 1.65486,-1.718389 2.15822,-1.894456 0.25054,-0.08763 1.10428,-0.05061 1.54771,0.06712 0.18098,0.04805 0.53119,0.103071 0.77824,0.122273 0.39544,0.03073 0.46697,0.04847 0.59774,0.148213 0.16825,0.128328 0.26114,0.293933 0.39757,0.708758 0.0893,0.271495 0.0932,0.331182 0.0686,1.040901 -0.0426,1.230575 -0.0767,1.749196 -0.11844,1.801621 -0.0227,0.02848 -0.029,0.231594 -0.015,0.478815 0.0134,0.236143 0.0433,1.160061 0.0664,2.053155 0.0652,2.516493 0.18552,4.286872 0.37762,5.558409 0.18076,1.196501 0.58391,2.882039 1.08459,4.534588 0.31252,1.03152 0.45302,1.252824 0.79533,1.252824 0.25569,0 4.32677,-0.787191 5.735,-1.108929 0.67935,-0.15521 0.78835,-0.200273 0.901269,-0.372606 0.171351,-0.261521 0.15977,-0.403939 -0.21462,-2.639588 -0.629119,-3.75666 -0.7562,-4.397805 -1.172029,-5.913164 -0.289831,-1.056217 -1.31163,-5.023829 -1.53871,-5.974771 -0.20657,-0.865101 -0.30754,-1.519896 -0.30737,-1.99334 2.9e-4,-0.585104 0.0376,-0.641097 0.52516,-0.785629 0.453589,-0.134471 0.9621,-0.239644 1.158669,-0.239644 0.0808,0 0.32226,-0.04555 0.53651,-0.101213 0.51839,-0.13469 1.042271,-0.203697 1.297751,-0.170947 0.34767,0.04457 0.829319,0.216685 1.10501,0.394872 0.14359,0.09281 0.27406,0.16874 0.28993,0.16874 0.0159,0 0.0632,0.07624 0.10525,0.169414 0.042,0.09318 0.12663,0.195394 0.18804,0.227148 0.0968,0.05004 0.14295,0.153847 0.34663,0.779187 l 0.23499,0.721453 0.3025,0.30048 0.30249,0.30048 h 0.375889 0.375901 l 0.0861,-0.203903 c 0.0813,-0.192536 0.0829,-0.222407 0.0288,-0.535837 -0.0339,-0.196397 -0.133719,-0.506621 -0.244419,-0.759748 -0.10291,-0.235298 -0.1871,-0.48435 -0.1871,-0.553449 0,-0.150001 -0.10272,-0.521862 -0.21242,-0.769018 -0.0435,-0.09794 -0.079,-0.206045 -0.079,-0.240239 0,-0.0342 -0.0871,-0.235108 -0.19359,-0.446474 -0.266561,-0.529151 -0.71444,-1.622383 -0.78856,-1.924835 -0.0337,-0.137399 -0.0713,-0.282605 -0.0836,-0.322679 -0.0212,-0.06887 0.12402,-0.07286 2.64834,-0.07286 h 2.67074 l 0.28802,-0.197771 0.28802,-0.197772 2.9e-4,-2.0863494 2.9e-4,-2.086349 -0.17008,-0.193224 -0.17009,-0.193224 -3.2753,-0.0036 -3.2753,-0.0036 0.37473,-0.07711 c 0.2061,-0.04241 0.42625,-0.07825 0.48922,-0.07964 0.063,-0.0014 0.11489,-0.01658 0.11535,-0.03375 5.8e-4,-0.01718 -0.0783,-0.248596 -0.17507,-0.514269 l -0.175921,-0.483042 -0.70969,-0.02753 c -0.86617,-0.0336 -0.92377,-0.04461 -0.95855,-0.183161 -0.0409,-0.162945 -0.521471,-1.143052 -0.80102,-1.633659 -0.21693,-0.380692 -0.286241,-0.465258 -0.536431,-0.654508 -0.7218,-0.545972 -1.503439,-0.950165 -2.197589,-1.13639 l -0.43098,-0.115621 -0.223,0.121942 c -0.12264,0.06707 -0.2622,0.158787 -0.31013,0.203812 -0.0479,0.04503 -0.11723,0.08187 -0.15401,0.08187 -0.0368,0 -0.2323,0.05593 -0.43449,0.124299 -0.70388,0.237986 -0.785,0.263643 -0.95054,0.300637 -0.70276,0.157052 -0.34481,0.153862 -17.50077,0.155953 l -16.54315,0.002 -0.163261,-0.176953 c -0.0898,-0.09733 -0.22017,-0.263957 -0.28972,-0.370294 -0.0695,-0.106338 -0.18223,-0.216441 -0.2504,-0.244678 -0.0772,-0.03195 -0.134079,-0.09258 -0.15082,-0.160566 -0.0148,-0.06008 -0.0542,-0.151385 -0.0875,-0.202908 -0.0581,-0.08967 -0.0852,-0.09368 -0.63294,-0.09368 h -0.5723 l -0.0235,0.227928 c -0.0129,0.125361 -0.0354,0.247145 -0.0499,0.270635 -0.0174,0.02816 -0.67483,0.0427 -1.9325113,0.0427 h -1.90612 l -0.0474,-0.104091 -0.0474,-0.104087 -1.40612,-8.64e-4 -1.4061,-8.64e-4 -0.42677,0.155302 -0.42677,0.155302 v 1.427918 c 0,1.348372 0.005,1.436574 0.0833,1.583286 0.0458,0.08545 0.0833,0.179065 0.0833,0.208029 0,0.07127 -0.17788,0.06644 -0.360325,-0.0098 -0.08221,-0.03435 -0.165922,-0.06245 -0.186026,-0.06245 -0.0201,0 -0.03655,0.280143 -0.03655,0.62254 v 0.62254 l 0.18736,0.128909 c 0.181644,0.124973 0.231521,0.217609 0.145727,0.270634 -0.02514,0.01554 -0.04164,0.308648 -0.04164,0.739742 v 0.714009 l 0.150544,0.154172 0.15055,0.154172 -0.13257,0.118448 c -0.122076,0.109071 -0.128835,0.128317 -0.08544,0.243126 0.02592,0.06857 0.09297,0.1727504 0.149012,0.2315054 l 0.10188,0.106828 -0.0965,0.09063 c -0.0531,0.04985 -0.226568,0.136116 -0.385572,0.191705 l -0.2890999,0.101072 -0.01117,0.960957 -0.01117,0.960957 h 0.2481309 c 0.136468,0 0.258398,0.01662 0.270955,0.03694 0.01256,0.02032 0.0432,0.184259 0.0681,0.364315 0.0721,0.521093 0.25383,0.919753 0.55587,1.219104 0.22144,0.219478 0.28389,0.25764 0.48281,0.295047 1.04771,0.197019 9.9027603,1.642541 10.3252203,1.685515 1.16219,0.118222 1.73973,0.258273 2.46193,0.597014 0.53194,0.249501 0.5521,0.307202 0.70799,2.026654 0.0478,0.526696 0.0839,1.079414 0.0803,1.228263 -0.02,0.836208 -0.50433,2.682073 -1.49654,5.704136 -0.20677,0.629747 -0.47279,1.472875 -0.59116,1.873623 l -0.21524,0.728631 -0.0591,2.800928 -0.0591,2.800871 0.13606,0.22747 0.136049,0.22747 1.18769,0.01103 1.18768,0.01103 0.009,7.782378 c 0.007,5.646747 0.0224,7.821468 0.0565,7.92483 0.0259,0.07834 0.10402,0.207372 0.17369,0.286731 0.25035,0.285132 0.14102,0.274966 2.43934,0.226735 1.13808,-0.02387 2.16255,-0.03497 2.27659,-0.02465 0.11404,0.01034 0.60081,0.02687 1.08171,0.03673 0.71437,0.01466 0.90799,0.0062 1.05816,-0.04618 z m -0.954071,-8.046745 v -7.494487 h 0.541271 0.54127 v 7.291804 7.291798 l -0.0871,0.140897 c -0.12905,0.208809 -0.25827,0.260899 -0.65196,0.262811 l -0.3435,0.0017 z m -5.5157,7.37165 c -0.0563,-0.108788 -0.0635,-0.985463 -0.0635,-7.661032 v -7.538191 h 0.20818 0.208179 v 7.661029 7.661032 h -0.144649 c -0.11808,0 -0.15634,-0.02258 -0.20818,-0.122838 z m 5.39736,-15.877564 c -0.314949,-0.650683 -0.58865,-0.947406 -1.2431,-1.347653 -0.53498,-0.327186 -1.05936,-0.386435 -1.605209,-0.18137 -0.424071,0.159311 -0.58757,0.323183 -1.467591,1.470914 l -0.0833,0.108606 -0.74945,0.0058 c -0.4122,0.0032 -1.26785,0.0039 -1.90145,0.0017 l -1.152009,-0.0041 -0.0812,-0.135319 c -0.0778,-0.129671 -0.0804,-0.206522 -0.063,-1.842394 0.0132,-1.23937 0.0333,-1.761346 0.0733,-1.905154 0.0311,-0.111806 0.0389,-0.208081 0.0179,-0.221046 -0.0204,-0.01264 -0.0372,-0.385216 -0.0372,-0.82796 0,-0.657002 0.0109,-0.809162 0.0591,-0.827682 0.0418,-0.01604 0.0678,-0.133415 0.0886,-0.399996 0.0204,-0.260757 0.0458,-0.377312 0.0821,-0.377312 0.067,0 0.10318,-0.0944 0.10318,-0.268942 0,-0.07547 0.0281,-0.160546 0.0624,-0.189053 0.0344,-0.02851 0.0625,-0.08824 0.0625,-0.132745 0,-0.0445 0.0201,-0.118483 0.0447,-0.164408 0.0246,-0.04592 0.0716,-0.186743 0.10445,-0.312939 0.0329,-0.126193 0.0817,-0.270065 0.10861,-0.319716 0.0269,-0.04965 0.0539,-0.127748 0.06,-0.173548 0.006,-0.0458 0.0512,-0.214425 0.10009,-0.374723 0.0489,-0.160299 0.0954,-0.328926 0.10346,-0.374726 0.0256,-0.146507 0.10831,-0.368903 0.21607,-0.581006 0.12251,-0.241123 0.30894,-0.971594 0.25275,-0.990324 -0.0212,-0.0071 -10e-4,-0.06022 0.0443,-0.118136 0.0456,-0.05792 0.12434,-0.2542 0.17506,-0.436183 0.0507,-0.181984 0.16278,-0.547212 0.24898,-0.811621 0.279691,-0.857865 0.44827,-1.909692 0.39975,-2.494241 -0.0143,-0.172844 -0.0548,-0.698355 -0.09,-1.167801 -0.0784,-1.046991 -0.12334,-1.342843 -0.23946,-1.575619 -0.1012,-0.202868 -0.30759,-0.401375 -0.5032,-0.48398 -0.0718,-0.0303 -0.28036,-0.121536 -0.46356,-0.202741 -0.1832,-0.08121 -0.44587,-0.176247 -0.58371,-0.211204 -0.392,-0.09941 -1.42206,-0.257836 -2.85269,-0.43875 -2.1284,-0.269151 -3.4793103,-0.481454 -6.5354303,-1.027071 -2.59493,-0.46328 -2.71368,-0.496444 -2.99357,-0.835997 -0.17443,-0.211617 -0.25404,-0.472089 -0.25404,-0.83118 0,-0.246073 -0.0215,-0.3477 -0.11276,-0.533852 l -0.11277,-0.22992 h -0.220324 -0.220325 v -0.707813 c 0,-0.672881 0.004,-0.707813 0.08082,-0.707813 0.04445,0 0.09239,-0.01874 0.106547,-0.04164 0.01414,-0.0229 0.07615,-0.04293 0.137772,-0.04452 0.0847,-0.0022 0.15816,-0.06068 0.3008,-0.239407 l 0.18876,-0.236524 -0.13672,-0.202477 c -0.0752,-0.1113624 -0.13671,-0.2165474 -0.13671,-0.2337444 0,-0.0172 0.0747,-0.08304 0.16601,-0.146311 l 0.166,-0.115043 2.34257,0.04726 c 1.28841,0.02599 3.2529,0.04711 4.3655403,0.04693 1.11263,-1.67e-4 2.58811,0.01205 3.27883,0.0272 l 1.25587,0.02753 v 0.4096464 0.409646 h 4.41342 4.41342 v 1.083247 1.083246 l 3.42762,-0.01112 3.427621,-0.01112 0.17758,-0.117525 c 0.28041,-0.185584 0.34783,-0.384785 0.37006,-1.093269 0.0192,-0.611163 -0.0281,-1.115054 -0.14315,-1.5250184 l -0.0677,-0.241165 -1.56627,-1.25e-4 c -0.861451,-8.3e-5 -1.890371,-0.01242 -2.286471,-0.02744 l -0.72021,-0.02732 0.14312,-0.149506 c 0.30098,-0.314421 0.33747,-0.501452 0.3868,-1.982704 0.0248,-0.743965 0.0212,-0.802382 -0.0584,-0.957629 -0.0466,-0.09093 -0.12874,-0.205182 -0.18249,-0.253886 -0.22811,-0.206683 -0.14173,-0.202902 -4.63606,-0.202902 -4.698979,0 -4.317309,-0.02429 -4.70834,0.299684 -0.27147,0.224919 -0.34228,0.38918 -0.394869,0.916058 -0.0744,0.745877 -0.0968,1.694628 -0.0423,1.79647 0.0455,0.08492 0.0391,0.08967 -0.12002,0.08967 -0.11415,0 -0.16801,-0.01821 -0.16801,-0.0568 0,-0.03124 -0.089,-0.08999 -0.19777,-0.130556 -0.42732,-0.159366 -1.19529,-0.583157 -1.54113,-0.850432 -0.66229,-0.511855 -1.20809,-1.184541 -1.44868,-1.785473 -0.0851,-0.212648 -0.13225,-0.416546 -0.204901,-0.88676 l -0.0232,-0.150137 -1.113,-0.02954 c -0.61216,-0.01625 -1.15339,-0.03927 -1.20275,-0.05116 -0.0734,-0.01769 -0.12213,0.02623 -0.26835,0.242134 -0.6012,0.887754 -1.4676303,1.378153 -2.9103403,1.647236 -0.85096,0.158716 -3.29312,0.06892 -3.912129,-0.143854 -0.10396,-0.03573 -0.24991,-0.07904 -0.324331,-0.09624 -0.13242,-0.0306 -0.13532,-0.02822 -0.13532,0.111378 0,0.09748 0.0231,0.151471 0.0729,0.170512 0.0401,0.01533 0.15141,0.08776 0.24741,0.160966 0.096,0.0732 0.19905,0.141925 0.229,0.152712 0.0383,0.0138 0.0205,0.05582 -0.0601,0.141867 -0.063,0.06724 -0.1145,0.154203 -0.1145,0.19325 0,0.03904 -0.0375,0.103077 -0.0833,0.142292 -0.0736,0.06305 -0.0833,0.122823 -0.0833,0.51684 0,0.444264 2.9e-4,0.445916 0.13118,0.576721 l 0.13118,0.13118 3.52238,0.03674 c 1.93731,0.02021 4.5388203,0.04998 5.7811403,0.06617 l 2.25876,0.02943 v 0.367938 0.3679394 h 4.624651 c 4.382019,0 4.623919,-0.0038 4.610629,-0.07286 -0.0132,-0.06853 -0.2281,-0.0741 -3.61498,-0.09368 -3.451999,-0.01996 -3.61039,-0.02422 -3.82889,-0.103023 -0.21167,-0.07634 -0.54233,-0.34201 -0.54233,-0.435731 0,-0.02152 0.0703,-0.04494 0.15613,-0.05205 0.11257,-0.0093 0.18863,0.01293 0.27261,0.07973 0.0641,0.05096 0.21395,0.125561 0.33309,0.165779 0.19891,0.06715 0.51695,0.07416 3.89099,0.0858 l 3.67439,0.01267 v 0.352408 0.3524084 h -4.9547 -4.95468 V 9.9132036 9.5176616 l -0.551679,9.22e-4 c -0.303421,4.89e-4 -2.8656,-0.02045 -5.6937303,-0.04656 -4.516911,-0.0417 -5.14711,-0.05516 -5.18369,-0.110684 -0.0229,-0.03477 -0.10253,-0.119873 -0.17695,-0.189127 l -0.13532,-0.125916 v -0.615958 c 0,-0.606221 0.002,-0.617652 0.10717,-0.723124 0.0589,-0.05894 0.10008,-0.130053 0.0914,-0.158027 -0.009,-0.02798 -0.1224,-0.107071 -0.25277,-0.175771 l -0.23703,-0.124908 v -0.405951 c 0,-0.232241 0.01702,-0.405952 0.03993,-0.405952 0.02203,0 0.185978,0.0466 0.364318,0.103559 0.17835,0.05696 0.34796,0.103798 0.37691,0.10409 0.0341,3.45e-4 0.008,-0.08819 -0.0745,-0.251337 -0.0699,-0.138528 -0.17324,-0.379681 -0.2296,-0.535897 -0.1,-0.277149 -0.102449,-0.3133 -0.102449,-1.492732 v -1.208704 l 0.1516,-0.08944 c 0.31059,-0.183327 0.54006,-0.210236 1.79273,-0.210236 h 1.17749 l 0.0941,0.145211 0.0941,0.145211 2.15467,5.18e-4 2.1546603,5.19e-4 v -0.272142 -0.272141 l 0.404331,0.01192 0.404339,0.01192 0.0281,0.137637 c 0.0297,0.145917 0.137099,0.254388 0.253929,0.25658 0.0693,0.0013 0.60648,0.576604 0.69787,0.747366 l 0.0466,0.08699 16.642461,-0.01056 c 9.15336,-0.0058 16.67525,-0.02662 16.71533,-0.04624 0.0576,-0.02822 0.0729,-0.01734 0.0729,0.05204 0,0.081 0.0228,0.08773 0.29665,0.08773 h 0.29666 l -0.0232,-0.116158 -0.0232,-0.116158 0.69462,-0.194655 c 0.38203,-0.10706 0.75082,-0.207676 0.81952,-0.223591 0.0687,-0.01591 0.19985,-0.07737 0.29145,-0.136567 0.0916,-0.0592 0.2484,-0.148314 0.34845,-0.198038 0.21126,-0.105002 0.22494,-0.102313 0.983909,0.193473 0.475981,0.185505 0.91132,0.443037 1.121551,0.663467 0.0693,0.07262 0.165,0.128227 0.220789,0.128227 0.152261,0 0.376361,0.176198 0.536851,0.422099 0.189679,0.290601 0.3067,0.516991 0.3067,0.593351 0,0.03363 0.0295,0.09065 0.0656,0.126724 0.125391,0.125393 1.211021,2.965309 1.242551,3.250428 0.028,0.25301 0.156569,0.646792 0.35849,1.097837 0.11397,0.25458 0.20373,0.47707 0.19948,0.494421 -0.004,0.01735 0.0309,0.1533334 0.0781,0.3021824 0.0472,0.148849 0.0998,0.336211 0.11695,0.41636 0.0171,0.08015 0.0514,0.158594 0.0762,0.174321 0.0278,0.01767 0.0406,0.15685 0.0336,0.364315 -0.0114,0.335692 -0.0114,0.335721 0.0955,0.335721 0.0796,0 0.10693,0.02154 0.10693,0.08431 0,0.04637 0.0652,0.213845 0.14496,0.372163 0.13828,0.274592 0.14116,0.289056 0.0625,0.314036 -0.0974,0.03091 -0.10156,0.05745 -0.0264,0.167446 0.0743,0.108733 0.40804,0.929435 0.42203,1.037953 0.006,0.04679 0.12367,0.338014 0.261409,0.647162 0.523441,1.174825 0.552311,1.253165 0.619811,1.682165 0.0622,0.395053 0.22409,0.87535 0.49529,1.469087 0.0542,0.118751 0.110969,0.308976 0.12606,0.422721 0.0241,0.181497 0.017,0.212401 -0.0579,0.252494 -0.124801,0.06679 -0.51463,0.05666 -0.61847,-0.01607 -0.1218,-0.08531 -0.34644,-0.49517 -0.34805,-0.635019 -5.7e-4,-0.06332 -0.0288,-0.151499 -0.0624,-0.195951 -0.0336,-0.04445 -0.0611,-0.111833 -0.0611,-0.149738 0,-0.0379 -0.0259,-0.12332 -0.0575,-0.189813 -0.0316,-0.06649 -0.106851,-0.252049 -0.16724,-0.412348 -0.22945,-0.609187 -0.75947,-1.093373 -1.39263,-1.272202 -0.49489,-0.13978 -1.30632,-0.144767 -1.85928,-0.01143 -0.2061,0.0497 -0.580821,0.111747 -0.83272,0.137886 -0.550051,0.05708 -1.12989,0.18493 -1.419521,0.312993 -0.38113,0.168528 -0.482799,0.425311 -0.486329,1.228294 -0.004,0.955008 0.34934,2.582809 1.277589,5.882424 0.73742,2.621301 0.9207,3.397457 1.316541,5.575418 0.61224,3.368537 0.75943,4.48337 0.608509,4.608627 -0.031,0.02575 -0.41042,0.121986 -0.84313,0.213886 -0.43271,0.0919 -0.82625,0.175878 -0.87453,0.186617 -0.075,0.01667 -0.0848,0.004 -0.0674,-0.08698 0.024,-0.125761 0.0586,-0.140007 0.649219,-0.267352 0.777611,-0.167668 0.843401,-0.275223 0.71856,-1.17477 -0.11969,-0.862432 -0.814239,-4.972436 -0.944749,-5.59058 -0.196281,-0.929687 -0.57258,-2.482935 -0.77669,-3.205973 -0.62281,-2.206292 -1.03405,-3.858466 -1.22386,-4.916956 -0.0655,-0.365089 -0.0903,-0.682258 -0.0941,-1.203541 -0.006,-0.8074 0.0477,-1.050419 0.28297,-1.283241 0.235129,-0.232653 1.09604,-0.493251 1.81445,-0.549241 0.19465,-0.01517 0.540189,-0.07403 0.76786,-0.130796 1.118759,-0.27895 2.15753,-0.152871 2.78365,0.337861 0.34634,0.271447 0.696319,0.724754 0.83702,1.084148 0.0628,0.160299 0.17591,0.441342 0.25145,0.624541 0.0755,0.183198 0.158419,0.409873 0.18417,0.503722 0.0528,0.192283 0.21621,0.391453 0.32124,0.391453 0.11391,0 0.0461,-0.260131 -0.20841,-0.799737 -0.18628,-0.394939 -0.24693,-0.582478 -0.335751,-1.038173 -0.142779,-0.732553 -0.17717,-0.829703 -0.628019,-1.774017 l -0.22364,-0.468405 h -0.76697 c -0.84971,0 -0.79044,0.02166 -0.83972,-0.306947 l -0.0289,-0.192686 h 0.736829 c 0.405251,0 0.73048,-0.01405 0.72274,-0.03123 -0.008,-0.01718 -0.0412,-0.101487 -0.0743,-0.187362 l -0.0602,-0.156135 h -0.7543 -0.754301 l -0.0701,-0.222249 c -0.0385,-0.122237 -0.07,-0.234654 -0.07,-0.249816 0,-0.01516 0.32081,-0.02757 0.7129,-0.02757 0.650309,0 0.70804,-0.0059 0.657339,-0.06696 -0.0472,-0.0569 -0.0436,-0.07569 0.0239,-0.125064 0.0515,-0.03765 0.0652,-0.07236 0.039,-0.09861 -0.0224,-0.02243 -0.38195,-0.04559 -0.80552,-0.05189 l -0.765,-0.01138 -0.0497,-0.145726 c -0.0274,-0.08015 -0.0624,-0.197251 -0.0778,-0.260226 l -0.0281,-0.114499 h 0.79633 c 0.74233,0 0.794259,-0.0049 0.76571,-0.07286 -0.0168,-0.04007 -0.0398,-0.115019 -0.0509,-0.166544 -0.0202,-0.09321 -0.0243,-0.09368 -0.82355,-0.09368 h -0.803221 l -0.0844,-0.249816 -0.0844,-0.249816 h 0.77084 0.77085 l -0.0273,-0.135318 c -0.0615,-0.305695 0.0129,-0.281043 -0.84894,-0.281043 h -0.78067 l -0.0701,-0.2222494 c -0.0385,-0.122236 -0.0701,-0.244022 -0.0701,-0.270634 0,-0.03496 0.20788,-0.04838 0.74945,-0.04838 0.4122,0 0.74945,-0.01645 0.74945,-0.03655 0,-0.0201 -0.0284,-0.104416 -0.063,-0.187362 l -0.063,-0.150811 h -0.771741 -0.771739 l -0.0803,-0.176953 c -0.0442,-0.09732 -0.0807,-0.200374 -0.0812,-0.228998 -5.8e-4,-0.03979 0.1804,-0.05204 0.769349,-0.05204 0.42365,0 0.77027,-0.0066 0.77027,-0.01461 0,-0.008 -0.0204,-0.0732 -0.0454,-0.144821 l -0.0454,-0.130216 -0.77298,-0.01131 -0.77298,-0.01132 -0.0731,-0.215303 c -0.0402,-0.118416 -0.0623,-0.226149 -0.049,-0.239407 0.0132,-0.01326 0.36024,-0.0241 0.77106,-0.0241 0.695039,0 0.74489,-0.0051 0.71706,-0.07286 -0.0164,-0.04007 -0.13748,-0.391379 -0.26895,-0.780675 -0.13147,-0.389297 -0.31527,-0.85903 -0.40844,-1.043851 -0.0932,-0.18482 -0.182141,-0.403989 -0.19772,-0.487043 -0.0156,-0.08305 -0.0499,-0.178338 -0.0762,-0.211744 -0.0416,-0.0528 -1.414749,-0.0646 -10.50343,-0.09026 l -10.45561,-0.02952 -0.0303,0.202581 c -0.0747,0.49923 -0.37454,1.251369 -0.69755,1.749781 -0.56952,0.878754 -1.3305,1.47564 -2.465419,1.933778 l -0.24704,0.09972 0.4344,0.02613 c 0.23892,0.01437 1.06419,0.02842 1.833919,0.03123 l 1.39952,0.0051 0.0234,0.260225 c 0.0129,0.143124 0.0552,0.5225334 0.0939,0.8431304 0.0757,0.625933 0.0658,1.34238 -0.0234,1.694232 -0.0659,0.259632 -0.28098,0.501941 -0.57283,0.645258 l -0.23833,0.117036 -3.549469,0.01175 -3.54948,0.01175 V 11.850684 10.76681 h -4.43424 -4.43423 V 10.350433 9.9340726 h -0.89178 c -0.49047,0 -1.31018,-0.01768 -1.82157,-0.03929 -1.42382,-0.06017 -8.1536603,-0.09865 -8.1536603,-0.04663 0,0.02363 0.0537,0.103113 0.11941,0.1766194 l 0.11942,0.133646 -0.24689,0.356137 c -0.24309,0.350691 -0.35832,0.456036 -0.501981,0.458945 -0.0651,0.0013 -0.0729,0.05248 -0.0729,0.477896 v 0.47642 l 0.17248,0.0128 0.172469,0.0128 0.13715,0.353906 c 0.0975,0.251505 0.13804,0.42619 0.14025,0.603723 0.006,0.444354 0.138371,0.752269 0.376821,0.87332 0.17916,0.09095 0.962629,0.258118 2.62317,0.559696 2.86076,0.519557 4.3400503,0.751943 6.6409493,1.043251 1.592931,0.201676 2.51217,0.347234 2.93534,0.464802 0.27608,0.0767 0.42327,0.136096 0.99049,0.399671 0.23121,0.107435 0.532291,0.409891 0.62685,0.62971 0.17147,0.398579 0.29854,1.531945 0.3092,2.757764 0.009,1.016677 -0.11081,1.919414 -0.34444,2.598457 l -0.0787,0.228798 h 0.11431 c 0.1069,0 0.11336,0.01011 0.0998,0.156137 -0.0305,0.328709 -0.0398,0.343497 -0.2166,0.343497 -0.12731,0 -0.16811,0.0182 -0.18657,0.08327 -0.013,0.0458 -0.0343,0.120744 -0.0473,0.166542 -0.0207,0.07299 -0.004,0.08327 0.13737,0.08327 0.16085,0 0.16098,1.27e-4 0.1465,0.156134 -0.0319,0.343572 -0.0318,0.3435 -0.277,0.3435 -0.21048,0 -0.22461,0.0066 -0.2452,0.114259 -0.0307,0.160875 -0.01,0.177192 0.22763,0.177192 0.19806,0 0.20909,0.0056 0.18548,0.09368 -0.0138,0.05152 -0.0254,0.145208 -0.0257,0.208181 -5.8e-4,0.111967 -0.006,0.114501 -0.24736,0.114501 -0.21703,0 -0.25721,0.01325 -0.33309,0.109703 -0.14938,0.1899 -0.11863,0.223384 0.20516,0.223384 0.32833,0 0.32009,-0.01238 0.23522,0.353907 l -0.0482,0.208178 -0.338881,0.01201 c -0.309489,0.01097 -0.34102,0.02002 -0.36356,0.104091 -0.0136,0.05063 -0.0249,0.10612 -0.0253,0.123296 -2.8e-4,0.01716 0.14896,0.03122 0.33172,0.03122 h 0.33229 l -0.0236,0.197771 c -0.0377,0.316104 -0.0164,0.301861 -0.4499,0.301861 -0.21692,0 -0.40266,0.01405 -0.41277,0.03123 -0.0101,0.01716 -0.0314,0.09212 -0.0474,0.166545 l -0.029,0.135316 h 0.38134 0.38134 l -0.0294,0.135317 c -0.0707,0.325276 -0.0606,0.318324 -0.48559,0.331505 l -0.38677,0.01198 -0.013,0.135319 -0.013,0.135317 h 0.379911 0.37992 l -0.0265,0.19777 c -0.0427,0.318578 -0.0142,0.301861 -0.51338,0.301861 h -0.4541 l -0.026,0.130112 c -0.0143,0.07156 -0.026,0.146508 -0.026,0.166545 0,0.02004 0.2081,0.03643 0.462449,0.03643 0.40459,0 0.459291,0.0082 0.43718,0.06586 -0.0139,0.03622 -0.0253,0.129905 -0.0253,0.208181 v 0.14232 h -0.49964 -0.49963 v 0.166545 0.166544 h 0.45931 c 0.51492,0 0.53346,0.01106 0.46987,0.280531 l -0.037,0.156647 -0.4461,0.01181 -0.44611,0.01181 v 0.165137 0.165136 h 0.43718 0.43718 v 0.270633 0.270635 h -0.43718 -0.43718 v 0.124908 0.124909 h 0.43718 c 0.39849,0 0.43718,0.0069 0.43718,0.07746 0,0.0426 0.0119,0.164388 0.0265,0.270632 l 0.0265,0.193175 h -0.46365 -0.46366 v 0.10409 0.104091 h 0.45931 c 0.50491,0 0.47591,-0.01688 0.51858,0.301861 l 0.0265,0.19777 h -0.50219 -0.50218 v 0.144483 0.144483 l 0.52921,0.01166 0.52922,0.01166 0.0479,0.239407 0.0479,0.239406 h -0.59793 -0.59794 v 0.645359 0.645358 h 0.78434 c 0.43138,0 1.26113,0.01227 1.8439,0.02727 l 1.05956,0.02727 0.28739,-0.405418 c 0.34816,-0.491171 0.64642,-0.763969 1.06912,-0.977878 0.73956,-0.374254 1.69308,-0.304767 2.28845,0.166772 0.18149,0.14374 0.58176,0.642911 0.89239,1.112892 l 0.20146,0.304798 0.58728,-0.01333 c 0.48823,-0.01109 0.60726,-0.02647 0.70567,-0.09105 l 0.11838,-0.0777 -0.0282,-0.713385 c -0.0155,-0.392362 -0.0393,-0.802383 -0.0529,-0.911156 l -0.0247,-0.19777 h -0.38438 -0.38437 l -0.0254,-0.214183 c -0.014,-0.117798 -0.0155,-0.230214 -0.003,-0.249814 0.0121,-0.01961 0.19891,-0.03564 0.41511,-0.03564 h 0.39308 v -0.166556 -0.166542 h -0.41115 -0.41116 l -0.026,-0.130112 c -0.0143,-0.07156 -0.026,-0.183979 -0.026,-0.249817 v -0.119705 h 0.437181 0.43717 v -0.124906 -0.124908 h -0.43717 -0.43718 V 30.16916 29.919343 h 0.43718 c 0.40941,0 0.43717,-0.0053 0.43717,-0.08327 0,-0.07798 -0.0278,-0.08327 -0.43717,-0.08327 h -0.43718 V 29.46135 29.169896 h 0.41636 0.41636 v -0.10409 -0.104088 h -0.41636 -0.41636 v -0.270635 -0.270635 h 0.41636 0.416359 v -0.145724 -0.145727 h -0.39772 -0.39772 l 0.0126,-0.218588 0.0126,-0.218592 0.38513,-0.01198 0.38514,-0.01198 v -0.123345 -0.123345 h -0.37473 c -0.41665,0 -0.41465,0.002 -0.3487,-0.327885 l 0.026,-0.130113 h 0.3487 0.34871 v -0.18736 -0.187363 h -0.33309 -0.333089 v -0.119705 c 0,-0.06583 0.0117,-0.178254 0.026,-0.249814 l 0.026,-0.130115 h 0.302209 c 0.32968,0 0.35158,-0.01872 0.35298,-0.301861 l 5.8e-4,-0.114498 h -0.31227 -0.31228 l 5.81e-4,-0.114498 c 9.99e-4,-0.289616 0.0177,-0.301861 0.399829,-0.301861 h 0.34905 l 5.8e-4,-0.114501 c 2.9e-4,-0.06297 0.0119,-0.156656 0.0257,-0.208181 0.0246,-0.09192 0.0183,-0.09368 -0.33852,-0.09368 -0.35676,0 -0.36314,-0.0017 -0.33851,-0.09368 0.0138,-0.05153 0.0254,-0.145206 0.0257,-0.208181 l 5.7e-4,-0.114498 h 0.40618 0.40617 l 0.0456,-0.145727 0.0456,-0.145727 h -0.41015 c -0.45968,0 -0.44271,0.01521 -0.38342,-0.343497 l 0.0258,-0.156134 h 0.47336 c 0.44081,0 0.47337,-0.0056 0.47337,-0.08082 0,-0.04445 0.0188,-0.09239 0.0416,-0.106547 0.0229,-0.01414 0.0416,-0.05215 0.0416,-0.08445 0,-0.04654 -0.10155,-0.06114 -0.48968,-0.07041 l -0.48967,-0.01169 0.0349,-0.218589 0.0349,-0.218588 h 0.55007 0.55006 l 0.16173,-0.447588 c 0.20238,-0.560087 0.5066,-1.252978 0.71224,-1.622214 0.16707,-0.299975 0.55457,-0.713777 0.77528,-0.827912 0.19067,-0.0986 0.48868,-0.05615 1.168741,0.166488 0.438179,0.143453 0.677569,0.196529 1.03919,0.230403 0.81347,0.0762 0.772819,0.04762 -0.381371,-0.268079 -0.522259,-0.142854 -1.03625,-0.388086 -1.23591,-0.589681 -0.17815,-0.179864 -0.40993,-0.678034 -0.47493,-1.020764 -0.08,-0.42174 -0.0282,-1.284548 0.0857,-1.42888 0.0181,-0.0229 0.18368,-0.337254 0.36801,-0.698564 0.18434,-0.36131 0.4106,-0.764139 0.5028,-0.895175 0.16175,-0.229882 0.502731,-0.506252 0.680631,-0.551666 0.0473,-0.01208 0.093,-0.04278 0.101479,-0.06822 0.0279,-0.08362 -0.757949,-0.430538 -1.26573,-0.558779 -0.47662,-0.120371 -0.57646,-0.126416 -0.47905,-0.02901 0.0327,0.03268 0.0493,0.225178 0.0494,0.571802 0,0.513529 -0.003,0.528451 -0.15437,0.866029 l -0.15452,0.343498 h -1.07099 -1.07099 l -0.20852,-0.197772 -0.20852,-0.197771 -0.0465,-0.562086 c -0.0256,-0.309148 -0.0621,-0.577747 -0.0811,-0.596888 -0.019,-0.01914 -0.15378,0.0159 -0.29952,0.07787 -0.14574,0.06197 -0.47108,0.195895 -0.72297,0.297614 -0.43207,0.174471 -0.64759,0.268947 -1.60299,0.702662 -0.21755,0.09876 -0.58291,0.226345 -0.8119,0.283526 -0.71041,0.177388 -0.65805,0.17823 -0.78435,-0.01261 -0.061,-0.09211 -0.11083,-0.184599 -0.11083,-0.205523 0,-0.02092 0.13584,-0.07061 0.30186,-0.110405 0.39013,-0.09352 1.32427,-0.455744 2.6543,-1.029234 0.58394,-0.251789 1.19287,-0.495195 1.35317,-0.540901 0.1603,-0.04571 0.34959,-0.107439 0.42064,-0.137185 0.31229,-0.130736 0.96511,-0.19809 1.67749,-0.173075 1.0972,0.03853 1.69751,0.186479 2.593071,0.639088 0.52456,0.265111 0.52869,0.266364 0.71981,0.218238 0.10573,-0.02662 0.19874,-0.04131 0.20671,-0.03265 0.008,0.0087 0.0358,0.596576 0.0618,1.30647 0.0831,2.266422 0.0995,2.468598 0.221671,2.735414 0.26672,0.582608 0.86724,1.164887 1.41668,1.373655 0.2567,0.09754 0.36396,0.07045 0.36396,-0.09194 0,-0.09222 -0.0663,-0.18791 -0.28594,-0.412866 -0.46106,-0.472171 -0.68321,-0.993378 -0.74049,-1.737365 -0.0463,-0.601751 0.11249,-1.357452 0.38518,-1.832722 0.0633,-0.110396 0.36048,-0.446265 0.6603,-0.746374 l 0.54513,-0.545654 1.41369,-0.02093 c 1.94356,-0.02877 2.01607,-0.0086 2.7791,0.772784 0.56434,0.57792 0.6962,0.81813 0.727759,1.325729 0.0361,0.579731 -0.114239,1.013256 -0.552999,1.595156 -0.2198,0.29151 -0.53624,0.593852 -1.25495,1.199023 -0.2105,0.177248 -0.4173,0.366212 -0.45954,0.419919 -0.0937,0.119144 -0.24894,0.201638 -0.645101,0.342835 -0.380919,0.135767 -0.43152,0.180491 -0.154689,0.136729 0.72255,-0.114219 1.06932,-0.34233 1.81844,-1.196184 0.81366,-0.927421 1.16833,-1.303032 1.671809,-1.770547 1.118361,-1.038454 1.586311,-1.250571 2.55032,-1.15603 0.254701,0.02498 0.577721,0.0729 0.717821,0.106498 0.14009,0.03359 0.49522,0.08922 0.78915,0.12361 0.418979,0.04902 0.57265,0.08492 0.7113,0.166176 0.25165,0.147474 0.469009,0.404985 0.63259,0.749442 0.253099,0.532969 0.26437,0.655877 0.26561,2.897877 0.001,2.371212 0.0344,3.113331 0.231379,5.183685 0.361361,3.798942 0.505761,4.641118 1.251481,7.299401 0.226759,0.808358 0.34172,1.10543 0.44136,1.140653 0.0296,0.01045 0.31613,-0.03373 0.63672,-0.0982 0.48231,-0.09699 0.59993,-0.108491 0.68157,-0.06664 0.0823,0.04219 0.29545,0.01739 1.284379,-0.149361 0.652131,-0.109969 1.193591,-0.192055 1.203241,-0.182407 0.0163,0.01633 -1.16547,0.253209 -3.26461,0.654308 -0.48758,0.09316 -0.90459,0.158214 -0.9267,0.144552 -0.0221,-0.01365 -0.0673,-0.07727 -0.10044,-0.141352 -0.0759,-0.146726 -0.50356,-1.631484 -0.77243,-2.681555 -0.56581,-2.209786 -0.69511,-3.084252 -0.81063,-5.482222 -0.0358,-0.744245 -0.10452,-1.952731 -0.1526,-2.685526 -0.0763,-1.163092 -0.0828,-1.496323 -0.0511,-2.623068 0.02,-0.709895 0.0357,-1.581129 0.0349,-1.936076 -10e-4,-0.629955 -0.005,-0.65351 -0.13753,-0.986865 -0.14551,-0.365027 -0.41464,-0.712293 -0.64393,-0.83086 -0.0697,-0.03605 -0.28743,-0.08081 -0.48381,-0.09946 -0.19638,-0.01865 -0.52567,-0.06253 -0.73177,-0.09751 -0.2061,-0.03498 -0.50526,-0.08522 -0.66479,-0.111647 -0.15954,-0.02643 -0.45233,-0.04029 -0.65064,-0.03081 -0.41931,0.02005 -0.7049,0.139871 -1.16192,0.487503 -0.50237,0.382135 -1.70514,1.617004 -2.53639,2.604088 -0.85403,1.014133 -1.52541,1.188181 -4.58337,1.188181 -2.08167,0 -2.98751,-0.09228 -3.69839,-0.376766 -0.46005,-0.184108 -0.58849,-0.194712 -0.74664,-0.06164 -0.22639,0.1905 -0.5101,0.608129 -0.77922,1.147042 -0.27874,0.558164 -0.68807,1.535489 -0.68807,1.642836 0,0.03596 -0.0166,0.09791 -0.037,0.137669 -0.16532,0.323385 -0.25449,0.548649 -0.25449,0.642934 0,0.06129 -0.0161,0.121435 -0.0359,0.133648 -0.0447,0.02762 -0.12257,0.323065 -0.14359,0.544799 -0.009,0.0916 -0.0562,0.245425 -0.10551,0.341838 -0.0623,0.121767 -0.0897,0.251332 -0.0897,0.424311 0,0.13696 -0.0187,0.260599 -0.0416,0.27475 -0.0229,0.01417 -0.0416,0.117202 -0.0416,0.228999 0,0.111797 -0.0187,0.214845 -0.0416,0.228999 -0.0267,0.01647 -0.0416,0.64579 -0.0416,1.751171 0,1.122533 0.0145,1.725438 0.0416,1.725438 0.0271,0 0.0428,0.671852 0.045,1.925667 0.002,1.059116 0.0163,2.082126 0.0322,2.273354 l 0.0289,0.347684 -0.2716,0.139489 -0.27159,0.139489 -0.69384,0.002 -0.69383,0.002 -0.16712,-0.345251 z m 3.927341,-18.389583 c 0.0959,-0.189276 0.10471,-0.251888 0.10386,-0.73904 -8.6e-4,-0.464104 -0.0113,-0.545569 -0.0823,-0.636334 -0.0448,-0.05725 -0.0818,-0.157193 -0.0823,-0.222098 l -8.6e-4,-0.118008 -0.46841,0.02659 c -0.72237,0.041 -1.23912,0.106039 -1.46767,0.184722 l -0.20818,0.07167 -0.0127,0.455334 c -0.014,0.503115 0.0526,0.800006 0.2354,1.048647 l 0.0995,0.135317 h 0.88953 0.88953 l 0.1048,-0.206796 z m -1.88065,-0.0086 c -0.0659,-0.0619 -0.0964,-0.137621 -0.0964,-0.239423 0,-0.08189 -0.0278,-0.28004 -0.0617,-0.44033 -0.0339,-0.16029 -0.062,-0.380434 -0.0624,-0.489208 l -5.8e-4,-0.197771 h 0.83213 c 0.5185,0 0.90296,0.01895 1.02008,0.05027 l 0.18796,0.05027 v 0.547238 c 0,0.300981 -0.0206,0.606242 -0.0457,0.678359 l -0.0457,0.131121 h -0.81555 c -0.78005,0 -0.81975,-0.0039 -0.91192,-0.09053 z m 1.48581,-0.638101 v -0.437179 h -0.69195 -0.69195 l 0.0301,0.405952 c 0.0166,0.223273 0.0387,0.420003 0.049,0.437178 0.0104,0.01718 0.30821,0.03123 0.6618,0.03123 h 0.64291 z m -0.0625,-6.0657554 c 0.87493,-0.24188 1.78213,-0.862299 2.32264,-1.5884 0.30296,-0.406989 0.41678,-0.616079 0.54583,-1.002741 0.10609,-0.317886 0.22182,-0.883009 0.18759,-0.916081 -0.009,-0.0088 -3.79666,-0.02989 -8.4167,-0.04679 -8.35595,-0.03056 -8.40007,-0.03029 -8.40007,0.05176 0,0.205006 0.18722,0.778745 0.395359,1.211604 0.18909,0.393237 0.27543,0.520908 0.50947,0.753322 0.15499,0.153912 0.405161,0.367209 0.55594,0.473992 0.263621,0.186693 1.32194,0.76297 1.34455,0.732129 0.006,-0.0082 0.0403,-0.370981 0.0761,-0.806077 0.0934,-1.135772 0.223211,-1.415365 0.822071,-1.771144 l 0.28259,-0.167879 4.28792,0.0022 c 4.543489,0.0023 4.574609,0.0035 4.865649,0.194233 0.15342,0.100523 0.33878,0.389465 0.39624,0.617661 0.0558,0.22158 0.0276,1.477988 -0.0452,2.01691 -0.023,0.169973 -0.0372,0.312836 -0.0316,0.317475 0.006,0.0046 0.14132,-0.02782 0.30162,-0.07214 z M 7.5036277,6.6422066 c 1.300269,-0.128452 2.23467,-0.55912 2.6850603,-1.237555 l 0.1303,-0.196272 -0.26269,-0.02636 c -0.1444813,-0.0145 -0.8481913,-0.02855 -1.5638103,-0.03123 l -1.30113,-0.0049 v 0.116064 c 0,0.08348 -0.0559,0.171144 -0.1992,0.31227 l -0.1992,0.196206 h -1.44542 c -0.79498,0 -1.44542,0.01183 -1.44542,0.02629 0,0.01446 0.0785,0.173524 0.17434,0.353481 0.19257,0.361425 0.1322,0.328073 0.74165,0.409735 0.90339,0.121048 1.96392,0.153524 2.68552,0.08224 z m -0.9235,-1.398563 c 0.0351,-0.03507 0.0379,-1.93948 0.003,-2.030388 -0.0222,-0.05793 -0.16641,-0.06575 -1.19704,-0.06494 -1.06908,8.35e-4 -1.18734,0.008 -1.34949,0.08158 l -0.17772,0.08067 0.0112,0.969728 0.0112,0.969728 1.33526,0.01097 c 0.73439,0.006 1.348,-0.0018 1.36358,-0.01735 z m 33.9200703,-0.0769 0.10409,-0.0595 -0.13532,-0.0015 c -0.0932,-0.001 -0.13532,0.01797 -0.13532,0.06098 0,0.07666 0.0324,0.07666 0.16655,0 z m 0.31726,-0.206186 c 0.0416,-0.108429 -0.0268,-0.14772 -0.25727,-0.14772 -0.17361,0 -0.22654,-0.01459 -0.22654,-0.06245 0,-0.05469 -0.26138,-0.06245 -2.10262,-0.06245 h -2.10262 v -0.20818 -0.208181 h 2.30502 2.30502 l 0.023,0.253106 c 0.0126,0.139208 0.0312,0.261405 0.0414,0.271548 0.042,0.04199 11.105679,0.07117 11.105679,0.02929 0,-0.02348 -0.0468,-0.111711 -0.10409,-0.196073 -0.0572,-0.08436 -0.10409,-0.171024 -0.10409,-0.192582 0,-0.02156 -0.0783,-0.09099 -0.17391,-0.154286 l -0.173909,-0.11509 -19.25027,-0.01495 c -18.88507,-0.01467 -19.25107,-0.01646 -19.29275,-0.09433 -0.0233,-0.04366 -0.1213,-0.171216 -0.21762,-0.283458 -0.0963,-0.112243 -0.20732,-0.250505 -0.24665,-0.307249 -0.0393,-0.05674 -0.15361,-0.142912 -0.25394,-0.191485 -0.18005,-0.08716 -0.40318,-0.296388 -0.40318,-0.37806 0,-0.0231 -0.0449,-0.042 -0.0997,-0.042 -0.0861,0 -0.10191,0.02298 -0.11574,0.168052 -0.0173,0.181721 -0.0329,0.16989 0.29655,0.225353 0.30935,0.05208 0.46613,0.262861 0.46613,0.626678 0,0.295965 -0.0935,0.465889 -0.31057,0.564444 -0.22135,0.100494 -0.60882,0.10579 -0.80847,0.01105 -0.26539,-0.125935 -0.35888,-0.489534 -0.23629,-0.918992 l 0.0268,-0.09368 h -1.8588403 -1.85883 l 0.0116,0.572496 0.0116,0.572495 1.39481,0.0497 c 3.3742603,0.120241 4.3900403,0.136451 8.5874303,0.137037 l 4.44465,6.34e-4 v 0.10409 c 0,0.101603 0.007,0.10409 0.3065,0.10409 0.30448,0 0.30636,-6.91e-4 0.2866,-0.10409 l -0.0199,-0.10409 h 2.49611 c 1.37286,0 5.45017,0.01247 9.06069,0.02771 l 6.56459,0.02772 v 0.09719 c 0,0.09012 0.0168,0.09719 0.2303,0.09719 0.16293,0 0.23709,-0.01769 0.25351,-0.06046 z M 21.639067,4.7295656 c 0,-0.02715 -0.659239,-0.04164 -1.894439,-0.04164 h -1.894441 v -0.20818 -0.208181 h 2.13881 2.13881 l 0.0258,0.156135 c 0.0569,0.344222 0.0574,0.343498 -0.24391,0.343498 -0.15267,0 -0.27064,-0.01815 -0.27064,-0.04164 z m -10.02238,-0.733597 c 0.0602,-0.06017 0.0275,-0.222303 -0.0535,-0.265668 -0.12735,-0.06815 -0.258209,0.01783 -0.2419,0.158935 0.0105,0.09043 0.037,0.114057 0.1393,0.124081 0.0695,0.0068 0.13979,-10e-4 0.15614,-0.01735 z m 38.936531,-0.343279 c -0.0217,-0.01979 -0.133241,-0.05847 -0.24774,-0.08597 -0.11449,-0.0275 -0.27321,-0.08807 -0.35271,-0.1346 -0.20787,-0.121691 -0.66775,-0.281967 -0.73499,-0.256162 -0.0397,0.01522 -0.0573,0.0975 -0.0573,0.267343 v 0.245362 h 0.716139 c 0.405061,0 0.69896,-0.01563 0.676591,-0.03598 z m -1.89236,-0.06664 v -0.10261 l -0.17695,0.07534 c -0.0973,0.04143 -0.20506,0.08613 -0.23941,0.09932 -0.0343,0.01319 0.0453,0.02547 0.17695,0.02728 0.22758,0.0031 0.23941,-0.0018 0.23941,-0.09932 z m -24.75406,30.3616044 -0.066,-0.135316 0.0849,0.104087 c 0.0817,0.10022 0.10836,0.166545 0.067,0.166545 -0.0109,0 -0.0495,-0.06089 -0.0858,-0.135316 z m -3.01456,-0.492239 c 0.218249,-0.25194 0.38948,-0.399752 0.57265,-0.494339 0.1396,-0.07209 0.51741,-0.12494 0.59054,-0.0826 0.0431,0.02494 0.0107,0.03656 -0.10409,0.03746 -0.2572,0.002 -0.64064,0.207504 -0.96355,0.516409 -0.15704,0.150225 -0.29207,0.27376 -0.30006,0.274523 -0.008,8.64e-4 0.084,-0.11239 0.20451,-0.251447 z m 26.83801,-0.569519 c -0.53286,-1.641339 -1.02065,-3.55415 -1.25554,-4.923462 -0.14262,-0.831411 -0.19232,-2.425892 -0.0993,-3.185155 0.0504,-0.411084 0.20203,-0.980239 0.32588,-1.223004 0.11576,-0.226905 0.39014,-0.483049 0.5776,-0.539214 0.24465,-0.0733 0.542,-0.05989 0.7341,0.0331 0.63027,0.305107 1.33622,1.553136 1.807329,3.195128 0.671281,2.339641 0.902151,3.743364 0.989631,6.016992 0.0236,0.613934 0.0186,0.740936 -0.0299,0.75562 -0.032,0.0097 -0.67653,0.139665 -1.43222,0.288796 -0.7557,0.14913 -1.37787,0.272824 -1.38262,0.274871 -0.005,0.002 -0.11051,-0.310103 -0.23503,-0.693675 z m 1.47192,0.324032 c 1.067009,-0.168131 1.38132,-0.244216 1.35712,-0.328519 -0.0108,-0.03761 -0.0405,-0.38689 -0.0659,-0.776188 -0.13607,-2.08052 -0.1811,-2.473167 -0.41883,-3.651784 -0.34982,-1.734416 -0.72405,-2.986872 -1.14637,-3.836699 -0.46149,-0.928664 -0.88706,-1.366115 -1.32899,-1.366115 -0.46166,0 -0.70962,0.37341 -0.87551,1.318475 -0.13844,0.788686 -0.1175,2.558452 0.0404,3.414154 0.0858,0.465146 0.3959,1.933356 0.46604,2.20671 0.0535,0.208359 0.75431,2.564638 0.89476,3.008205 0.0535,0.168834 0.0787,0.169111 1.07729,0.01175 z m 1.36358,0.05434 c 0.0286,-0.01155 0.0755,-0.01155 0.104089,0 0.0286,0.01155 0.005,0.02099 -0.052,0.02099 -0.0573,0 -0.0807,-0.0094 -0.0521,-0.02099 z M 23.747418,20.764597 c -0.10246,-0.228303 -0.10978,-0.285217 -0.10978,-0.853539 0,-0.334909 0.0141,-0.609261 0.0312,-0.609672 0.0172,-4.03e-4 0.20922,-0.02818 0.42677,-0.06171 0.23662,-0.03647 0.69964,-0.06126 1.15243,-0.06171 0.87879,-8.64e-4 0.88559,-0.0035 0.89133,-0.347219 0.003,-0.180245 0.039,-0.277085 0.21947,-0.590339 l 0.21587,-0.374725 0.633,-0.01149 c 0.72616,-0.01318 0.63771,-0.07196 0.71671,0.476281 0.0419,0.290821 0.0367,0.324001 -0.20826,1.332353 l -0.25123,1.034105 -0.23781,0.155664 -0.23781,0.155665 -1.56608,4.61e-4 -1.56607,4.6e-4 z m 3.30252,-0.133468 0.18551,-0.121789 0.19742,-0.926283 c 0.18786,-0.881406 0.23294,-1.233953 0.17656,-1.380874 -0.0208,-0.05408 -0.10079,-0.06583 -0.44759,-0.06568 l -0.42231,1.67e-4 -0.149921,0.301683 c -0.0885,0.178146 -0.16825,0.418284 -0.194669,0.58643 -0.0713,0.453421 -0.0193,0.433598 -1.188601,0.453682 -0.67793,0.01165 -1.050799,0.03459 -1.141929,0.07027 l -0.13532,0.05298 v 0.443515 c 0,0.368675 0.0141,0.466347 0.0827,0.578831 l 0.0825,0.135317 1.385011,-0.0032 1.38501,-0.0032 0.18551,-0.12179 z m -2.8475,-0.07888 c -0.10471,-0.03981 -0.1068,-0.04867 -0.1068,-0.452549 v -0.411943 l 0.15613,-0.02581 c 0.0859,-0.0142 0.60964,-0.02601 1.16393,-0.02627 l 1.00778,-4.61e-4 0.0228,-0.156135 c 0.0617,-0.422126 0.11068,-0.611817 0.2252,-0.872028 l 0.1247,-0.283372 0.31516,-0.01216 c 0.2626,-0.01013 0.31516,-0.0014 0.31516,0.05261 0,0.03562 0.0211,0.09851 0.0468,0.139737 0.0359,0.05751 0.0267,0.166473 -0.0397,0.467841 -0.0476,0.21608 -0.1258,0.597027 -0.1738,0.846548 -0.10549,0.54837 -0.16014,0.664099 -0.34094,0.721991 -0.17818,0.05705 -2.57015,0.06761 -2.71644,0.01199 z m 20.94273,-4.706716 c -0.59091,-0.13063 -0.90486,-0.336169 -1.07989,-0.707 -0.0854,-0.181044 -0.0888,-0.250821 -0.10081,-2.068974 l -0.0124,-1.881613 0.23294,-0.428608 c 0.27014,-0.497054 0.35515,-0.599869 0.58289,-0.70498 0.27183,-0.1254594 0.90207,-0.09149 1.2364,0.06664 0.40935,0.193612 0.7255,0.479965 0.87215,0.78994 0.0654,0.138246 0.11893,0.274776 0.11895,0.303401 10e-6,0.02863 0.0188,0.05204 0.0417,0.05204 0.027,0 0.0416,0.527975 0.0416,1.500653 0,1.600671 -0.031,1.934199 -0.21597,2.322333 -0.20905,0.438688 -0.77092,0.830436 -1.19965,0.836416 -0.0802,0.0011 -0.31323,-0.03499 -0.51794,-0.08025 z m 0.80892,-0.301796 c 0.31993,-0.162805 0.58664,-0.466099 0.69442,-0.789679 0.0634,-0.190248 0.0749,-0.430596 0.0874,-1.81712 l 0.0143,-1.597872 -0.10689,-0.218481 c -0.0606,-0.123894 -0.20131,-0.303061 -0.32497,-0.413849 -0.11995,-0.107453 -0.25556,-0.229074 -0.30136,-0.270271 -0.13491,-0.121348 -0.34278,-0.169349 -0.73339,-0.169349 -0.3528,0 -0.3729,0.0051 -0.51729,0.1319 -0.0826,0.07255 -0.2238,0.278227 -0.31372,0.457072 l -0.1635,0.325173 2.9e-4,1.780864 c 0,1.127021 0.0165,1.839272 0.0444,1.939948 0.0949,0.341763 0.42908,0.574858 0.99626,0.694897 0.12595,0.02666 0.25776,0.05618 0.29291,0.06561 0.0352,0.0094 0.18418,-0.04405 0.33116,-0.118847 z m -0.69437,-0.13223 c -0.7003,-0.123245 -0.81883,-0.282899 -0.89141,-1.200652 -0.0318,-0.401808 -0.0295,-0.870759 0.009,-1.737029 l 0.0521,-1.186627 0.20252,-0.353906 c 0.28302,-0.494576 0.30538,-0.509027 0.74873,-0.484058 0.33858,0.01907 0.37832,0.03127 0.60372,0.185408 0.27519,0.188186 0.41749,0.334289 0.54663,0.561255 0.088,0.15458 0.0902,0.19621 0.0902,1.676891 0,1.41147 -0.006,1.535158 -0.0833,1.756742 -0.14642,0.418908 -0.36267,0.663589 -0.68935,0.779964 -0.20623,0.07346 -0.1828,0.07338 -0.58834,0.002 z m 0.51212,-0.290883 c 0.0126,-0.03275 0.078,-0.07875 0.14531,-0.102234 0.0934,-0.03255 0.15191,-0.104945 0.24645,-0.304771 l 0.12398,-0.262081 3e-5,-1.562496 c 4e-5,-1.77095 0.028,-1.625336 -0.37058,-1.928473 -0.27529,-0.209359 -0.6397,-0.318675 -0.7915,-0.237434 -0.10281,0.05503 -0.25671,0.256644 -0.37366,0.489542 -0.0849,0.169125 -0.088,0.230224 -0.088,1.735848 0,0.995456 0.0151,1.569871 0.0416,1.586285 0.0229,0.01415 0.0416,0.0724 0.0416,0.129433 0,0.157493 0.10746,0.332065 0.23744,0.385759 0.11604,0.04793 0.54923,0.129467 0.69027,0.129926 0.0408,1.25e-4 0.0845,-0.02655 0.097,-0.0593 z m -0.69164,-2.167983 v -1.644624 h 0.37473 0.37472 v 1.644624 1.644623 h -0.37472 -0.37473 z m 0.41636,0 c 0,-0.874357 -0.0147,-1.353172 -0.0416,-1.353172 -0.0269,0 -0.0416,0.478815 -0.0416,1.353172 0,0.874357 0.0147,1.353171 0.0416,1.353171 0.0269,0 0.0416,-0.478814 0.0416,-1.353171 z M 17.200587,13.17706 c -0.34899,-0.106627 -0.544919,-0.674774 -0.37388,-1.084128 0.11864,-0.283936 0.3094,-0.373442 0.79882,-0.374806 0.45012,-0.0013 0.65332,0.0958 0.774611,0.369987 0.1512,0.34183 0.0496,0.818113 -0.216881,1.016715 -0.1969,0.146736 -0.63373,0.178846 -0.98267,0.07223 z m 0.6673,-0.467285 c 0.12195,-0.121954 0.14403,-0.336277 0.0481,-0.467398 -0.0453,-0.06193 -0.10932,-0.08082 -0.27399,-0.08082 -0.2522,0 -0.33309,0.07583 -0.33309,0.31227 0,0.205917 0.0758,0.292792 0.27934,0.32009 0.14678,0.01969 0.18824,0.0072 0.27959,-0.08414 z m -8.4489603,0.358227 c -0.37119,-0.193718 -0.52462,-0.491008 -0.52838,-1.023826 -0.002,-0.279724 0.0147,-0.358736 0.1182,-0.561195 0.1038,-0.202945 0.154641,-0.253088 0.36649,-0.361435 0.22157,-0.113314 0.283471,-0.125614 0.62365,-0.123932 0.3028003,0.0015 0.4151603,0.02017 0.5667703,0.09419 0.25776,0.125845 0.47853,0.35008 0.56336,0.572213 0.0924,0.241985 0.0649,0.679511 -0.0578,0.919834 -0.10811,0.211715 -0.37756,0.448404 -0.60662,0.532867 -0.250279,0.09228 -0.8269803,0.06542 -1.0456793,-0.04872 z m 0.8944913,-0.504718 c 0.18948,-0.101623 0.293259,-0.246928 0.32029,-0.448458 0.0654,-0.487305 -0.46485,-0.789829 -0.9769403,-0.557412 -0.29063,0.131905 -0.37652,0.441192 -0.21513,0.774595 0.0639,0.132057 0.126429,0.192438 0.25066,0.242144 0.2191,0.08767 0.4447403,0.08372 0.6211203,-0.01087 z m 13.78222,-1.067905 v -1.020083 h 0.54126 0.54128 V 10.117129 9.7589626 l 2.88329,0.02969 c 1.58581,0.01633 2.89852,0.04378 2.91713,0.061 0.0923,0.08536 0.15955,0.7859454 0.14635,1.5234134 -0.0133,0.745171 -0.0158,0.763519 -0.11773,0.873996 -0.0573,0.06207 -0.17903,0.147435 -0.27064,0.189711 -0.15733,0.07262 -0.34548,0.07691 -3.40374,0.07778 l -3.2372,9.22e-4 z m 6.37031,0.728631 c 0,-0.0229 0.029,-0.04164 0.0645,-0.04164 0.0355,0 0.12164,-0.02954 0.19146,-0.06564 l 0.12693,-0.06564 -0.0195,-0.881579 c -0.0107,-0.48487 -0.0335,-0.923737 -0.0506,-0.975262 -0.0287,-0.0866 -0.0559,-0.09368 -0.35928,-0.09368 h -0.32823 v 1.082537 1.082537 h 0.18736 c 0.10305,0 0.18736,-0.01874 0.18736,-0.04164 z m -0.90211,0.01388 c 0.0153,-0.01527 0.0278,-0.499933 0.0278,-1.077036 v -1.049279 l -0.88477,-0.02598 c -0.48662,-0.01429 -1.41406,-0.03802 -2.06098,-0.05273 l -1.176221,-0.02675 v 0.380319 c 0,0.352561 -0.006,0.380318 -0.0833,0.380318 -0.0802,0 -0.0833,0.02776 -0.0833,0.749449 v 0.749449 h 2.11649 c 1.16408,0 2.128991,-0.01249 2.144261,-0.02776 z m -4.76039,-0.721692 V 10.76675 h -0.187361 -0.18736 v 0.749448 0.749449 h 0.18736 0.187361 z m 34.974269,0.312271 v -0.312271 h 0.499641 0.499629 V 11.245566 10.974931 H 60.277358 59.777717 V 9.3719436 7.7689556 h 0.437181 c 0.356179,0 0.437179,0.0113 0.437179,0.06099 0,0.03354 0.0375,0.08104 0.0833,0.105555 0.0815,0.0436 0.0833,0.08718 0.0833,2.018007 0,1.8904344 -0.003,1.9744794 -0.0778,1.9981274 -0.0428,0.01358 -0.111261,0.06168 -0.152171,0.106896 -0.0634,0.07005 -0.128869,0.08221 -0.442679,0.08221 h -0.36827 z m -4.843769,0.06308 c -0.0381,-0.137054 -0.0693,-0.277737 -0.0693,-0.312629 0,-0.05618 0.2584,-0.06221 2.25876,-0.05267 l 2.258749,0.01077 0.0122,0.301861 0.0122,0.301861 h -2.201709 -2.20171 z m -0.81177,-2.4259294 c -0.272681,-0.830118 -0.50886,-1.551462 -0.52482,-1.602987 l -0.029,-0.09368 h 2.917329 2.91733 v 1.602987 1.6029884 h -2.392509 -2.3925 z m -36.20791,0.01354 c -0.458261,-0.05573 -0.66157,-0.169763 -0.72779,-0.408219 -0.11479,-0.413361 8.7e-4,-2.020436 0.1698,-2.356876 0.0983,-0.196005 0.23671,-0.360611 0.30344,-0.360994 0.0246,-1.25e-4 0.10099,-0.03293 0.16969,-0.07286 0.11607,-0.06747 0.4107,-0.07343 4.16361,-0.08423 2.39788,-0.0069 4.14268,0.0044 4.29463,0.0278 0.30193,0.04651 0.56729,0.205675 0.64146,0.384742 0.0853,0.205842 0.005,1.604593 -0.13297,2.317895 -0.0509,0.263111 -0.25061,0.491052 -0.46195,0.527279 -0.54072,0.09268 -7.68936,0.114307 -8.41992,0.02547 z m 7.064219,-0.25335 c 1.41866,-0.02995 1.395701,-0.02602 1.51643,-0.259487 0.077,-0.148844 0.149181,-1.180229 0.131931,-1.884364 l -0.0122,-0.499633 -0.145731,-0.04969 c -0.108889,-0.03713 -1.19515,-0.05029 -4.296839,-0.05204 l -4.1511,-0.0024 -0.18497,0.124832 c -0.101731,0.06866 -0.19802,0.157654 -0.21398,0.197771 -0.0805,0.202345 -0.14508,0.894477 -0.14575,1.562458 -8.6e-4,0.733997 4e-5,0.740368 0.0949,0.776436 0.30727,0.116823 3.94705,0.159119 7.40734,0.08608 z m 28.30837,-2.395364 c -0.054,-0.195581 -0.0911,-0.36154 -0.0825,-0.368796 0.009,-0.0073 0.1468,0.0019 0.3071,0.02038 0.160299,0.01846 0.47179,0.03453 0.6922,0.03571 l 0.40075,0.0021 0.0249,0.124654 c 0.0137,0.06856 0.10164,0.207875 0.1954,0.309588 l 0.17047,0.184934 -0.15897,0.0165 c -0.0874,0.0091 -0.44974,0.01965 -0.80513,0.0235 l -0.64616,0.007 z m 0.807541,0.04394 0.333089,-0.05137 -0.425459,-0.0058 c -0.362601,-0.005 -0.42192,0.0034 -0.401501,0.05661 0.0272,0.07084 0.0383,0.07086 0.493871,6.05e-4 z"
   id="path7975" /></svg>
