<?xml version="1.0" encoding="UTF-8" standalone="no"?>
<!-- Generator: Adobe Illustrator 16.0.0, SVG Export Plug-In . SVG Version: 6.00 Build 0)  -->

<svg
   version="1.1"
   x="0px"
   y="0px"
   width="100.25px"
   height="32px"
   viewBox="0 0 100.25 32"
   enable-background="new 0 0 100.25 32"
   xml:space="preserve"
   id="svg8213"
   sodipodi:docname="nova.svg"
   inkscape:version="1.1.1 (3bf5ae0d25, 2021-09-20)"
   xmlns:inkscape="http://www.inkscape.org/namespaces/inkscape"
   xmlns:sodipodi="http://sodipodi.sourceforge.net/DTD/sodipodi-0.dtd"
   xmlns="http://www.w3.org/2000/svg"
   xmlns:svg="http://www.w3.org/2000/svg"><defs
   id="defs8217" /><sodipodi:namedview
   id="namedview8215"
   pagecolor="#505050"
   bordercolor="#eeeeee"
   borderopacity="1"
   inkscape:pageshadow="0"
   inkscape:pageopacity="0"
   inkscape:pagecheckerboard="0"
   showgrid="false"
   inkscape:zoom="5.5610973"
   inkscape:cx="56.733408"
   inkscape:cy="23.916143"
   inkscape:window-width="1440"
   inkscape:window-height="848"
   inkscape:window-x="1358"
   inkscape:window-y="-8"
   inkscape:window-maximized="1"
   inkscape:current-layer="svg8213" />

<g
   id="guides">
</g>
<path
   style="fill:#ffffff;stroke-width:0.0483482"
   d="M 2.7891294,28.57768 C 2.8043414,28.55277 3.1375882,28.364508 3.5292839,28.159319 4.6695,27.562014 5.9780518,26.853239 8.254377,25.59996 c 2.355588,-1.29692 5.372739,-2.940563 8.606001,-4.688273 1.170043,-0.632446 3.073749,-1.66559 4.230495,-2.295873 3.591811,-1.95711 5.644281,-3.012727 5.980799,-3.076027 0.20815,-0.03916 0.606856,0.216277 0.768713,0.492462 0.138572,0.236476 0.342653,0.803494 0.385409,1.070886 0.06857,0.428423 -0.322626,1.744752 -1.084037,3.64819 -0.542982,1.357371 -1.327007,3.114234 -1.449786,3.248766 -0.14117,0.154646 -0.236733,0.369234 -0.27343,0.614003 -0.0289,0.192839 -0.01762,0.238835 0.09177,0.368597 0.2568,0.305187 0.927415,0.497399 1.737197,0.497922 1.115651,7.16e-4 2.190054,0.324336 3.483039,1.049131 0.269146,0.150872 0.58987,0.346338 0.712724,0.434369 0.12283,0.08804 0.249422,0.160059 0.281302,0.160059 0.03194,0 0.250335,-0.124134 0.485472,-0.275868 l 0.427492,-0.275867 -0.134414,-0.268051 c -0.0739,-0.147429 -0.151007,-0.322445 -0.17134,-0.388924 -0.02041,-0.06648 -0.140055,-0.251411 -0.266141,-0.41096 -0.37556,-0.475265 -0.531485,-0.751168 -0.53132,-0.940173 0,-1.103772 1.581208,-6.192752 2.335344,-7.520793 0.107365,-0.189101 0.115096,-0.193079 0.349701,-0.179207 0.131943,0.0078 0.337786,0.03686 0.457446,0.06457 0.33923,0.07855 3.535694,-0.148534 3.784938,-0.268899 0.201192,-0.09716 0.609721,-0.642062 1.005866,-1.341589 0.122068,-0.215477 0.323602,-0.507196 0.447976,-0.648263 0.284877,-0.323127 0.910695,-0.741677 1.519274,-1.016129 l 0.470033,-0.211972 4.141765,-2.3e-4 4.141776,-2.33e-4 0.19929,0.226415 c 0.109645,0.124528 0.275876,0.278449 0.369462,0.342047 l 0.170186,0.115629 1.798218,-0.02157 c 0.989032,-0.01191 2.048427,-0.04514 2.354244,-0.07395 0.899528,-0.08476 4.369828,-0.17047 4.390527,-0.10843 0.01014,0.02886 0.09722,0.135504 0.194625,0.236982 0.09748,0.101484 0.229813,0.29712 0.294219,0.434755 l 0.116998,0.250249 h 0.934513 0.934526 v -1.591543 c 0,-0.875347 0.01318,-1.625956 0.02941,-1.668019 0.0379,-0.09892 0.193445,-0.09892 0.231409,0 0.01623,0.04206 0.02928,0.792672 0.02928,1.668019 v 1.591543 h 0.483481 0.483494 v -1.668025 c 0,-1.393512 0.01141,-1.668019 0.06731,-1.668019 0.03701,0 0.08049,0.03441 0.09672,0.07647 0.01623,0.04206 0.02928,0.792671 0.02928,1.668019 v 1.591543 h 0.483494 0.483482 v -1.671231 -1.67123 l 0.132957,0.0153 0.132957,0.0153 0.01268,1.655933 0.01268,1.655931 h 0.482848 0.48286 v -1.607583 c 0,-0.884171 0.01965,-1.637567 0.04297,-1.674214 0.127873,-0.201894 0.149701,0.03738 0.149701,1.640805 v 1.640992 h 0.483494 0.483482 V 13.25217 c 0,-0.875348 0.01318,-1.625956 0.02928,-1.668019 0.01623,-0.04206 0.05971,-0.07647 0.09672,-0.07647 0.05628,0 0.06731,0.274505 0.06731,1.668019 v 1.668019 h 0.483481 0.483469 v -1.607583 c 0,-0.884171 0.01914,-1.636683 0.0417,-1.672249 0.02269,-0.03557 0.09291,-0.05732 0.156407,-0.04835 l 0.11535,0.01632 0.01268,1.655931 0.01268,1.655933 h 0.482847 0.482848 v -1.671565 c 0,-1.565936 0.005,-1.670535 0.08455,-1.655283 0.07834,0.01507 0.08557,0.139384 0.09735,1.671564 l 0.01268,1.655284 h 0.482201 0.482214 l 0.01268,-1.655933 0.01268,-1.655931 0.108758,-0.01545 0.108759,-0.01546 v 1.671382 1.671382 h 0.483469 0.483506 v -1.591542 c 0,-0.875349 0.01318,-1.625957 0.02941,-1.66802 0.0379,-0.09892 0.193421,-0.09892 0.231385,0 0.01623,0.04206 0.02941,0.792671 0.02941,1.66802 v 1.591543 h 0.483494 0.483482 V 13.17233 11.500949 l 0.108758,0.01545 0.108759,0.01545 0.01268,1.655931 0.01268,1.655932 h 0.482202 0.482213 l 0.01268,-1.655932 c 0.01141,-1.434054 0.02244,-1.655931 0.08518,-1.655931 0.06274,0 0.07428,0.221877 0.0853,1.655931 l 0.01268,1.655932 h 0.4822 0.482227 l 0.01268,-1.655932 0.01268,-1.655931 0.115351,-0.01632 c 0.06351,-0.009 0.133857,0.01278 0.156407,0.04835 0.02244,0.03557 0.04132,0.788078 0.0417,1.672249 v 1.607583 h 0.380693 c 0.218392,0 0.470248,-0.03159 0.590668,-0.07408 0.24889,-0.08782 0.962565,-0.498511 0.962565,-0.553927 0,-0.02126 0.04893,-0.03845 0.108758,-0.0382 0.204132,8.33e-4 0.619215,-0.07272 0.644883,-0.11426 0.01407,-0.02279 0.06782,-0.04145 0.119407,-0.04145 0.09025,0 0.0938,0.04396 0.0938,1.156514 v 1.156513 l 0.30332,0.03249 c 0.265038,0.02838 0.991883,-0.05426 1.29462,-0.147215 0.0469,-0.01441 0.108759,-0.158783 0.16547,-0.386436 0.04981,-0.199877 0.119407,-0.387384 0.154671,-0.416679 0.04614,-0.03829 0.06414,-0.201065 0.06414,-0.579177 v -0.525912 l 0.229661,-0.0047 c 0.126251,-0.0027 0.371072,-0.04068 0.543919,-0.08461 l 0.314259,-0.07987 0.265915,-0.51964 0.265913,-0.519641 2.59644,-9.7e-5 2.596467,-9.7e-5 0.155405,0.193394 0.155407,0.193394 0.970981,-0.0015 c 0.932129,-0.0014 0.980614,-0.0062 1.212696,-0.120433 l 0.24175,-0.118912 3.433804,-4.39e-4 3.433805,-4.39e-4 0.186565,-0.153791 c 0.168254,-0.138687 0.192298,-0.145967 0.244842,-0.07413 0.0522,0.07147 0.07341,0.06366 0.205425,-0.07586 0.210762,-0.222726 0.242767,-0.304794 0.307109,-0.787436 0.06847,-0.513775 0.03396,-1.267801 -0.07134,-1.559939 -0.0416,-0.115261 -0.09989,-0.349144 -0.129609,-0.519745 l -0.054,-0.31021 H 94.040343 90.515862 V 9.597972 9.428752 h 4.52059 4.520563 V 7.8816116 6.3344639 L 99.0614,6.3329364 C 98.533807,6.3313191 98.444298,6.3003117 98.367701,6.0927321 98.343082,6.0262518 98.199231,5.7294903 98.047842,5.4332571 97.778641,4.9064838 97.76759,4.8929443 97.54415,4.8168158 c -0.125611,-0.042805 -0.311026,-0.077837 -0.411964,-0.077837 -0.178839,0 -0.188821,0.00951 -0.390266,0.3739485 -0.113696,0.2056702 -0.271995,0.5048263 -0.351764,0.6647906 L 96.24511,6.0685588 76.688188,6.0817398 C 65.931896,6.0889279 57.087678,6.0845252 57.034376,6.0717305 56.884421,6.0358083 56.553379,5.6924431 56.284461,5.2939161 L 56.040489,4.9323814 H 55.513682 54.986849 L 54.860218,5.209074 c -0.162999,0.3560152 -0.232589,0.4294131 -0.567992,0.5988647 l -0.276637,0.1397587 -9.12713,8.787e-4 c -9.748335,9.884e-4 -9.446612,-0.00584 -10.531739,0.235993 -0.650726,0.1450015 -1.23668,0.3643444 -1.858923,0.6958493 -0.305792,0.1629221 -0.724462,0.3841329 -0.930343,0.4915824 -0.348395,0.1818123 -0.374381,0.2061276 -0.37471,0.3506295 0,0.1417381 -0.01826,0.1600497 -0.205817,0.2101305 -0.283165,0.0756 -0.854921,0.3438432 -1.116462,0.5237902 -0.119533,0.08219 -0.337824,0.180865 -0.485257,0.219264 -0.147432,0.03839 -0.361362,0.124033 -0.475406,0.190296 -0.114083,0.06626 -0.347787,0.145591 -0.519456,0.176284 -0.171682,0.03068 -0.476282,0.106591 -0.676901,0.168674 -0.21227,0.0657 -5.932441,1.047516 -13.6847,2.348884 -7.3259963,1.229808 -13.33341385,2.248769 -13.34980436,2.264356 -0.0163528,0.01559 0.31436054,3.237464 0.73505906,7.159726 0.4206724,3.922261 0.7658732,7.175741 0.7671159,7.229953 0.00252,0.06607 0.086706,0.14977 0.2584475,0.253829 0.2792488,0.169253 0.3046639,0.177319 0.3462907,0.109976 z M 2.4964822,27.643917 c -0.063129,-0.05983 -0.1150957,-0.148288 -0.1156034,-0.196572 0,-0.04829 -0.021546,-0.126581 -0.047028,-0.174 C 2.2645128,27.143854 2.118792,25.951273 2.1547412,25.807994 2.1887132,25.672857 2.553244,25.474245 6.4896085,23.446502 10.50445,21.378325 19.786707,16.873555 23.242328,15.316242 c 3.297947,-1.486269 5.616407,-2.413553 6.00785,-2.402885 0.103435,0.0028 0.216414,0.09744 0.516223,0.432271 0.495587,0.553488 0.571438,0.685225 0.733752,1.274541 0.08835,0.320793 0.173102,0.52612 0.245912,0.595907 0.06668,0.06384 0.111166,0.163444 0.111166,0.248736 0,0.155979 0.166168,0.731364 0.268918,0.931167 0.119914,0.233117 0.904358,0.338921 1.29021,0.174016 0.312231,-0.133442 0.320306,-0.21608 0.111041,-1.135562 -0.101154,-0.444575 -0.203371,-0.85183 -0.227113,-0.905012 -0.03702,-0.0828 -0.03993,-0.07933 -0.02015,0.02417 0.331396,1.743471 0.332297,1.761287 0.09469,1.860552 -0.2343,0.0979 -0.650511,0.04981 -0.949648,-0.109709 -0.181581,-0.09683 -0.254403,-0.17452 -0.346963,-0.370168 -0.06439,-0.136188 -0.131892,-0.312182 -0.149929,-0.391099 -0.181949,-0.796246 -0.647672,-1.811232 -1.057633,-2.305046 -0.14808,-0.178378 -0.311357,-0.346856 -0.362795,-0.374396 -0.384864,-0.205968 -3.242566,0.847448 -7.208276,2.657118 -2.722565,1.242393 -7.352147,3.481439 -10.467421,5.06244 C 8.5035456,22.272559 2.6090944,25.218371 2.4444102,25.27491 2.1493675,25.376203 2.1587982,25.424985 2.0212148,23.087076 1.9523804,21.917045 1.8207594,19.948058 1.7287831,18.711548 1.4284429,14.67435 1.4120272,14.389843 1.4759513,14.33079 c 0.031942,-0.02947 0.3679796,-0.09059 0.7468222,-0.135821 0.3788552,-0.04524 0.9989318,-0.146517 1.3779388,-0.225075 1.0808295,-0.224029 6.5847887,-1.134317 9.7544317,-1.613265 0.624893,-0.09442 1.495164,-0.237595 1.933926,-0.318155 0.438748,-0.08055 1.722392,-0.288858 2.852556,-0.462887 1.130151,-0.174029 3.675674,-0.588204 5.656741,-0.920388 1.981081,-0.332185 3.72336,-0.622211 3.871744,-0.644505 0.533627,-0.08017 1.048874,-0.260301 1.817803,-0.635504 0.430204,-0.209916 0.810948,-0.382142 0.846111,-0.382727 0.102547,-0.0018 0.427772,-0.162452 0.740788,-0.366159 0.173722,-0.113068 0.348256,-0.188785 0.435123,-0.188785 0.112942,0 0.148435,-0.0237 0.160286,-0.1072 0.01775,-0.126035 0.290734,-0.300571 1.169308,-0.7481042 0.676889,-0.3448091 1.186242,-0.5223463 2.019779,-0.7040005 0.556101,-0.1211938 0.617237,-0.1241723 3.226012,-0.1570163 1.462537,-0.018419 4.236516,-0.062491 6.164408,-0.097933 2.956118,-0.05435 3.73629,-0.054063 4.979903,0.00189 0.811037,0.036506 2.253788,0.073821 3.206097,0.082923 l 1.731493,0.01655 0.243947,-0.2193194 C 54.64235,6.2974576 54.67001,6.28599 54.940385,6.28599 c 0.275522,0 0.283178,-0.00341 0.2244,-0.099645 -0.05083,-0.083318 -0.04792,-0.1092653 0.018,-0.1583389 0.04348,-0.032283 0.08708,-0.1016604 0.0971,-0.1541878 0.01457,-0.07622 0.06388,-0.09844 0.244847,-0.110127 0.265799,-0.017161 0.472758,0.074288 0.567117,0.2506018 0.05362,0.1001653 0.05438,0.137287 0.0038,0.1975182 -0.05324,0.064216 -0.03917,0.074162 0.104829,0.074162 0.140955,0 0.177005,0.023855 0.23558,0.155939 0.03803,0.085762 0.156191,0.2155691 0.262554,0.2884504 l 0.193408,0.1325087 19.798645,0.013729 19.798673,0.013729 V 7.7847732 8.679219 l -3.23935,0.02417 -3.239359,0.02417 -0.01429,0.701051 c -0.0081,0.385577 -0.0027,0.771209 0.01411,0.856959 l 0.02839,0.155907 2.592768,0.01331 c 2.01167,0.01027 2.597243,0.02676 2.612734,0.07332 0.0151,0.04508 0.03792,0.04206 0.09215,-0.01204 0.08158,-0.08161 0.52815,-0.09881 0.645369,-0.02484 0.05921,0.03738 0.07529,0.208776 0.08742,0.935677 0.01797,1.070826 0.01824,1.070184 -0.445433,1.030034 -0.162135,-0.01403 -0.316552,-0.02342 -0.343148,-0.02086 -0.0266,0.0025 -1.263584,0.01268 -2.748874,0.02241 l -2.700544,0.01775 -0.275902,0.216761 -0.275902,0.216762 h -0.710126 c -0.645656,0 -0.718909,-0.0087 -0.806816,-0.09669 -0.05324,-0.05319 -0.09938,-0.129332 -0.102801,-0.16922 -0.02332,-0.280498 0.143059,-0.265916 -3.035113,-0.265916 h -2.938752 l -0.05641,0.188391 c -0.03105,0.103612 -0.08785,0.20046 -0.126378,0.215213 -0.08366,0.03213 -0.26765,0.378052 -0.26765,0.50342 0,0.15497 -0.104576,0.204928 -0.432716,0.206703 -0.182835,9.88e-4 -0.367775,0.03092 -0.437556,0.07081 -0.06642,0.038 -0.208011,0.06987 -0.314513,0.07081 -0.17717,0.0015 -0.198009,0.01564 -0.244871,0.16536 -0.02814,0.09001 -0.03765,0.204228 -0.02104,0.25383 0.0166,0.0496 0.0076,0.415621 -0.02104,0.81338 -0.05818,0.819603 -0.03524,0.784705 -0.521776,0.794956 -0.199822,0.0042 -0.232234,-0.0091 -0.256432,-0.10554 -0.02079,-0.08307 -0.0089,-1.125304 0.018,-1.606013 0.0025,-0.0266 -0.0089,-0.181637 -0.02294,-0.344545 l -0.02561,-0.296195 -0.39489,-0.02605 c -0.329153,-0.02172 -0.437164,-0.0091 -0.64885,0.0755 L 77.65725,13.45951 77.556224,13.35108 c -0.15386,-0.165156 -0.288109,-0.117442 -0.360273,0.128054 -0.0881,0.299577 -0.197845,0.445945 -0.334426,0.445945 -0.06427,0 -0.130346,0.02175 -0.146761,0.04835 -0.04449,0.07203 -0.390758,0.05844 -0.454061,-0.01784 -0.03917,-0.04717 -0.05134,-0.523045 -0.04221,-1.655931 l 0.01268,-1.589737 0.11535,-0.01632 c 0.06351,-0.009 0.133857,0.01278 0.156407,0.04835 0.02244,0.03557 0.04132,0.725167 0.0417,1.532446 v 1.467779 l 0.129965,-0.03262 c 0.166256,-0.04173 0.236062,-0.136202 0.32729,-0.442934 0.04043,-0.136127 0.106477,-0.274815 0.14671,-0.308195 0.107364,-0.0891 0.367257,-0.02071 0.485649,0.127771 0.117759,0.147675 0.249727,0.128761 0.425692,-0.06101 l 0.110188,-0.118836 0.480565,0.103498 c 0.275573,0.05935 0.506324,0.136206 0.54098,0.180176 0.03321,0.04218 0.06046,0.170418 0.06046,0.284999 0,0.199241 0.0064,0.208326 0.145049,0.208326 0.126632,0 0.14505,-0.01719 0.14505,-0.135376 0,-0.209836 0.07935,-0.251376 0.481048,-0.251754 0.200785,-1.94e-4 0.5119,-0.01421 0.691403,-0.03117 0.298934,-0.02823 0.326352,-0.04012 0.326352,-0.141553 0,-0.143388 0.06984,-0.325066 0.15955,-0.414734 0.03904,-0.03903 0.119914,-0.167511 0.179782,-0.285505 0.05983,-0.117999 0.133045,-0.230521 0.162719,-0.250058 0.02966,-0.01953 1.415688,-0.03586 3.08005,-0.03626 l 3.026088,-7.38e-4 0.05336,0.11715 c 0.02941,0.06443 0.103562,0.124261 0.164912,0.132958 0.08075,0.01141 0.115731,0.05246 0.12681,0.148766 l 0.01521,0.132958 h 0.590376 c 0.638558,0 0.63426,0.0014 1.01948,-0.323332 l 0.19001,-0.160152 h 2.577934 2.577952 V 11.48392 10.783287 l -2.598743,-0.01255 -2.598719,-0.01255 -0.02421,-0.213523 c -0.02193,-0.193137 -0.0308,-0.205527 -0.09317,-0.12977 -0.193281,0.234615 -0.66614,0.299441 -0.891453,0.12222 -0.0701,-0.05511 -0.127708,-0.136699 -0.128127,-0.181306 0,-0.07003 -0.0076,-0.0712 -0.04766,-0.0086 -0.02573,0.03989 -0.04715,0.152556 -0.04766,0.250374 -0.0025,0.350286 0.203903,0.329806 -3.306567,0.329806 H 82.07507 l -0.166599,-0.172334 c -0.178957,-0.18509 -0.638519,-0.552892 -0.690845,-0.552892 -0.0995,0 0,0.319283 0.20995,0.676877 0.132957,0.225908 0.241753,0.446092 0.241753,0.489301 0,0.04321 -0.152604,0.200996 -0.339116,0.350637 l -0.339117,0.272075 H 79.589739 78.18835 l -0.317099,-0.255889 c -0.174394,-0.140738 -0.479019,-0.338132 -0.676927,-0.438653 -0.197907,-0.10052 -0.359841,-0.212001 -0.359841,-0.247737 0,-0.03573 -0.05768,-0.107009 -0.128242,-0.158391 -0.153339,-0.111699 -0.116238,-0.204736 0.08163,-0.204736 0.09507,0 0.165585,0.03737 0.216098,0.114514 0.04132,0.06298 0.183204,0.181743 0.3154,0.263918 l 0.240346,0.14941 v -0.1395 c 0,-0.118354 -0.04018,-0.162475 -0.2649,-0.291057 -0.145696,-0.08335 -0.277663,-0.172237 -0.293293,-0.197511 -0.03346,-0.05413 0.122956,-0.267082 0.376878,-0.513173 0.09976,-0.09664 0.181315,-0.217834 0.181315,-0.269323 0,-0.08268 -0.02129,-0.07617 -0.181315,0.05574 -0.09976,0.08215 -0.290239,0.235133 -0.423373,0.339951 l -0.242095,0.190579 -2.054473,0.05227 c -1.129949,0.02875 -2.968237,0.08563 -4.085091,0.126404 -1.11683,0.04077 -2.938701,0.0922 -4.04861,0.114285 l -2.017979,0.04015 -0.173139,-0.163301 C 64.23834,10.469132 64.109113,10.382786 64.046418,10.367054 63.92549,10.336711 63.738014,10.087409 63.615414,9.793971 63.520092,9.56597 63.39355,8.899193 63.39355,8.625445 V 8.41323 h 6.333634 6.333631 V 8.296321 c 0,-0.289701 0.16708,-0.3547639 0.416528,-0.162205 0.131777,0.10171 0.130396,0.09703 -0.0251,-0.08461 -0.274445,-0.320638 -0.346836,-0.3245869 -0.422714,-0.02305 -0.0166,0.06648 -0.05184,0.148068 -0.07795,0.181306 -0.03765,0.04786 -1.5013,0.06044 -7.028039,0.06044 -6.236165,0 -6.980401,0.0078 -6.980401,0.07404 0,0.04073 -0.0327,0.08656 -0.07251,0.101875 -0.03993,0.01531 -0.07251,0.06523 -0.07251,0.110927 0,0.0457 -0.04893,0.127657 -0.10876,0.182119 -0.107242,0.09758 -0.166882,0.09947 -4.097542,0.12964 -4.311671,0.03309 -4.371767,0.03027 -4.553234,-0.214065 -0.118772,-0.15985 -0.194714,-0.7926743 -0.155014,-1.291061 0.02269,-0.2844512 0.01598,-0.3988748 -0.0232,-0.3988748 -0.112814,0 -0.02484,1.5781238 0.105844,1.8984938 0.0507,0.124097 0.08733,0.146734 0.251399,0.15507 0.10559,0.0053 0.670742,0.03682 1.255757,0.0699 0.585028,0.03308 2.053611,0.07468 3.263506,0.09243 l 2.199865,0.03228 0.07935,0.386789 c 0.08328,0.405843 0.108379,0.372599 0.04652,-0.06159 C 60.037,9.356606 60.0436,9.266821 60.08479,9.232597 c 0.03486,-0.02891 0.32909,-0.04314 0.726565,-0.03511 l 0.667979,0.01349 0.05793,0.217569 c 0.07225,0.271399 0.08455,0.181573 0.01775,-0.130579 L 61.505454,9.065934 61.808912,8.739582 62.112385,8.41323 h 0.510012 c 0.332233,0 0.530255,0.02023 0.568067,0.05802 0.03194,0.03191 0.05882,0.16789 0.05971,0.302176 0.0038,0.642437 0.257978,1.439877 0.510392,1.605264 0.154176,0.101026 0.157028,0.294888 0.005,0.333073 -0.06135,0.0154 -0.550904,0.02126 -1.087891,0.013 -0.536973,-0.0083 -0.976317,0.0013 -0.976292,0.02127 5e-5,0.01994 -0.07378,0.03626 -0.164051,0.03626 -0.215552,0 -0.724703,0.161561 -0.988917,0.313803 -0.115604,0.06662 -0.230028,0.108924 -0.254176,0.094 -0.02421,-0.01493 -0.05705,0.0071 -0.07314,0.04907 -0.02624,0.0684 -0.375813,0.07601 -3.412447,0.07431 l -3.38323,-0.0019 -0.166637,0.146326 -0.166674,0.146327 h -9.538778 -9.538777 l -0.45557,0.19729 c -0.250563,0.108506 -0.493977,0.231859 -0.540941,0.274106 -0.07808,0.0703 -0.09038,0.06989 -0.14505,-0.0049 -0.03283,-0.04493 -0.276636,-0.710981 -0.54184,-1.480091 -0.265192,-0.769112 -0.48935,-1.391214 -0.49811,-1.38245 -0.0089,0.0087 0.148384,0.561026 0.349232,1.227252 0.200811,0.666227 0.365153,1.255958 0.365153,1.310515 0,0.05456 0.04348,0.126365 0.09672,0.159582 0.149372,0.09329 0.118519,0.220088 -0.07301,0.300112 -0.113956,0.04762 -0.213144,0.145707 -0.302167,0.298884 -0.07289,0.125403 -0.192355,0.287453 -0.265469,0.360121 -0.110914,0.110228 -0.132032,0.170967 -0.127406,0.366555 l 0.005,0.23443 0.03688,-0.191826 c 0.05882,-0.305977 0.518366,-0.70031 1.311783,-1.125667 l 0.65394,-0.350527 h 9.594881 9.594868 l 0.158816,-0.145044 0.158777,-0.145046 h 3.255381 c 3.579274,0 3.387641,-0.01734 3.232996,0.292666 -0.09469,0.189902 -0.06262,0.522814 0.09989,1.034556 0.09532,0.3004 0.104448,0.376198 0.05324,0.446168 -0.0578,0.07903 -0.07326,0.07681 -0.248205,-0.03553 l -0.186576,-0.119837 -1.885581,0.03184 c -1.037085,0.0175 -2.288101,0.05444 -2.780037,0.08208 -1.472298,0.08271 -3.905081,0.126048 -3.975103,0.07082 -0.0341,-0.02688 -0.121814,-0.06317 -0.194941,-0.08064 -0.07859,-0.01877 -0.132957,-0.06443 -0.132957,-0.111649 0,-0.04394 -0.036,-0.119673 -0.07999,-0.168298 -0.07644,-0.08442 -0.278437,-0.08841 -4.469345,-0.08841 h -4.389349 l -0.353377,0.126945 c -0.761627,0.273572 -1.408691,0.675874 -1.951508,1.213304 -0.192292,0.190369 -0.278576,0.330459 -0.405017,0.65756 -0.08835,0.22861 -0.175181,0.421983 -0.192863,0.429719 -0.01762,0.0077 -0.08227,0.09612 -0.143478,0.196407 -0.294383,0.482243 -0.804522,0.618827 -2.906289,0.778131 -0.82256,0.06234 -0.849673,0.06144 -0.976673,-0.03244 -0.11649,-0.08616 -0.176308,-0.09305 -0.554554,-0.06397 -0.513422,0.03946 -0.622345,0.120358 -0.814891,0.605172 -0.06984,0.175818 -0.158461,0.368623 -0.196958,0.428454 l -0.06997,0.108784 h -2.092387 c -1.562918,0 -2.107053,-0.01468 -2.150378,-0.05802 -0.03194,-0.03191 -0.05805,-0.157606 -0.05805,-0.279325 0,-0.19688 -0.267295,-0.951687 -0.472694,-1.334846 -0.07504,-0.140013 -0.762108,-0.740075 -0.918212,-0.80195 -0.37547,-0.148824 -0.931939,0.06068 -2.718724,1.023561 -0.332386,0.179126 -2.029414,1.087142 -3.771149,2.017814 -1.741747,0.930671 -4.428719,2.37723 -5.971038,3.214576 -1.542319,0.837345 -3.609203,1.952958 -4.593101,2.47914 -2.5003449,1.337184 -3.8751398,2.084032 -5.3509104,2.906827 -1.4510024,0.809006 -2.3175602,1.273494 -2.377999,1.274666 -0.022948,4.39e-4 -0.093167,-0.04814 -0.1563055,-0.107986 z m 1.383212,-0.839315 c 1.819426,-1.005549 3.6597664,-2.008749 6.3327948,-3.452092 1.342877,-0.725106 3.268348,-1.76897 4.278815,-2.319696 2.552481,-1.391136 3.412384,-1.85245 6.647915,-3.566443 1.555615,-0.824069 3.22899,-1.711469 3.718645,-1.971996 1.526689,-0.812305 2.096125,-1.030154 2.472041,-0.945695 0.252869,0.05682 0.675367,0.31034 0.975024,0.585095 0.20725,0.190007 0.271339,0.300248 0.505968,0.870271 0.147763,0.358986 0.293218,0.723412 0.323234,0.809834 l 0.05463,0.157133 h 1.913278 1.913276 l 0.08671,-0.275146 c 0.06427,-0.203783 0.156812,-0.348631 0.356989,-0.55848 l 0.270262,-0.283336 0.389135,0.03048 c 0.214044,0.01676 0.501303,0.06138 0.638355,0.09917 0.137051,0.03778 0.347837,0.0687 0.468397,0.0687 0.266953,0 1.651039,-0.173342 2.183311,-0.273435 0.212725,-0.04 0.483886,-0.09001 0.602583,-0.111116 0.297261,-0.05287 0.56993,-0.370552 0.769892,-0.896945 0.128469,-0.338232 0.19735,-0.440362 0.509771,-0.755815 0.466991,-0.471562 0.941865,-0.796555 1.706902,-1.168169 l 0.617148,-0.299776 4.460143,-0.01283 c 3.941663,-0.01128 4.460156,-0.0044 4.460156,0.05983 0,0.03996 0.08557,0.126683 0.190176,0.19272 0.104575,0.06603 0.233019,0.16601 0.28532,0.222169 l 0.09507,0.102104 1.63655,-0.07697 c 2.0897,-0.09829 3.801811,-0.161653 5.489509,-0.203179 0.73639,-0.01811 1.362805,-0.04774 1.39206,-0.06582 0.03777,-0.02338 0.03891,-0.09451 0.0038,-0.246323 -0.027,-0.117404 -0.04969,-0.327679 -0.05033,-0.467286 v -0.253828 h -3.046991 -3.04699 l -0.19233,0.127295 c -0.105844,0.07001 -0.192369,0.146162 -0.192369,0.16922 0,0.02352 -4.195434,0.04159 -9.56091,0.04117 l -9.560884,-7.63e-4 -0.577232,0.253521 c -0.449117,0.197253 -0.640535,0.312115 -0.8624,0.51752 -0.333261,0.308554 -0.33558,0.333524 -0.09443,1.019362 0.237964,0.676758 0.605271,2.325919 0.550258,2.470625 -0.07073,0.186087 -0.538064,0.486849 -0.763719,0.491537 -0.392444,0.0081 -1.100186,-0.105159 -1.22394,-0.195962 -0.147876,-0.108492 -0.328646,-0.608879 -0.372885,-1.032097 -0.02459,-0.235174 -0.05083,-0.301664 -0.134224,-0.339647 -0.07681,-0.03496 -0.126505,-0.137414 -0.191481,-0.394491 -0.1667,-0.659166 -0.347977,-1.018098 -0.709922,-1.40567 -0.333502,-0.35711 -0.334212,-0.357542 -0.520002,-0.315796 -0.6624,0.148831 -4.702453,1.867813 -7.748379,3.296829 -2.932351,1.375729 -9.173511,4.39283 -11.3324458,5.478336 C 7.876182,23.044527 3.17715,25.470036 2.6832486,25.753323 L 2.4777733,25.871184 V 26.1955 c 0,0.335343 0.1107873,1.069533 0.1798958,1.193051 0.031439,0.05608 0.2780061,-0.06168 1.2230025,-0.583953 z M 34.434859,15.765189 c -0.25268,-0.0511 -0.516261,-0.1145 -0.5857,-0.140898 -0.195068,-0.07416 -0.403902,-0.364481 -0.601975,-0.836821 l -0.180681,-0.430876 0.02966,-0.614639 c 0.018,-0.377161 0.06376,-0.726719 0.118139,-0.904727 l 0.08847,-0.290091 0.239814,-0.03042 c 0.131867,-0.01673 0.370337,-0.06893 0.529888,-0.115997 0.25922,-0.07647 0.428899,-0.0822 1.595494,-0.05386 1.402517,0.03407 2.132784,0.115262 2.438233,0.271095 0.556875,0.284101 0.898743,1.338067 0.62781,1.935645 -0.179275,0.395442 -0.393154,0.560408 -1.085495,0.83723 -1.04639,0.418382 -2.283272,0.562471 -3.213602,0.374366 z m 1.547313,-0.22129 c 1.051397,-0.130215 1.771257,-0.352426 2.199244,-0.678862 0.09811,-0.07481 0.232272,-0.257214 0.319342,-0.43408 0.142717,-0.289897 0.147458,-0.317849 0.09545,-0.562605 -0.07098,-0.33427 -0.38215,-0.998301 -0.48177,-1.028307 -0.304663,-0.09176 -0.889805,-0.136075 -2.091803,-0.158428 -1.415891,-0.02633 -2.151076,0.0071 -1.936145,0.08807 0.06097,0.02294 0.143706,0.112802 0.183965,0.199675 0.04145,0.08949 0.06388,0.111992 0.05159,0.05192 -0.01318,-0.06504 0.01483,-0.138881 0.07225,-0.190992 0.07681,-0.06954 0.118773,-0.07554 0.231461,-0.03304 0.07948,0.03002 0.165179,0.03441 0.203042,0.01039 0.179541,-0.113766 0.321674,0.01805 0.162174,0.150413 -0.117632,0.0976 -0.08366,0.152243 0.08467,0.136021 0.142046,-0.0137 0.157067,-0.03023 0.156662,-0.172281 0,-0.108861 0.02193,-0.156598 0.07251,-0.155391 0.981451,0.02342 2.43239,0.10199 2.552949,0.138234 0.08759,0.02633 0.203105,0.09807 0.256762,0.159425 0.170173,0.194616 0.332272,0.593625 0.361287,0.889286 0.02738,0.278672 0.02294,0.292655 -0.173367,0.550284 -0.110788,0.145391 -0.27158,0.312005 -0.357319,0.370253 -0.422118,0.286842 -1.239671,0.517416 -2.035485,0.574068 -0.543667,0.0387 -1.572767,-0.04082 -1.86142,-0.14383 -0.174293,-0.06221 -0.20313,-0.06399 -0.14505,-0.0089 0.03993,0.03781 0.246659,0.125732 0.459486,0.195372 0.441689,0.144536 0.790059,0.155994 1.619515,0.05326 z m -0.38679,-0.685782 c 0,-0.02604 -0.13051,-0.288239 -0.290011,-0.582667 -0.159499,-0.294427 -0.324779,-0.673205 -0.367281,-0.841727 -0.08125,-0.32215 -0.164634,-0.472744 -0.164634,-0.297401 0,0.136333 0.225148,0.806415 0.367878,1.094893 0.125237,0.253229 0.145442,0.394933 0.06338,0.445678 -0.06769,0.04187 -0.317897,-0.196712 -0.433425,-0.413389 -0.04956,-0.09307 -0.09114,-0.14284 -0.09241,-0.110596 -0.0038,0.104525 0.192913,0.583616 0.263784,0.642447 0.0881,0.0731 0.652691,0.127394 0.652691,0.06276 z m -1.932849,-0.244796 c -0.01686,-0.176919 -0.06617,-0.334153 -0.134731,-0.430512 -0.141285,-0.198414 -0.146393,-0.573328 -0.01141,-0.837925 0.117378,-0.230129 0.129446,-0.483482 0.02294,-0.483482 -0.12042,0 -0.177601,0.232321 -0.204195,0.829885 l -0.0251,0.563971 0.178045,0.318387 c 0.09786,0.175113 0.183216,0.318388 0.189554,0.318388 0.0064,0 0,-0.125415 -0.01508,-0.278712 z m 0.72033,-1.385277 c 0.0025,-0.05097 -0.0089,-0.07953 -0.02536,-0.06345 -0.01597,0.01606 -0.01774,0.05776 -0.0038,0.09267 0.01546,0.03857 0.02688,0.02712 0.02928,-0.0292 z M 3.1778843,24.66289 c 0.3457336,-0.175314 1.0202146,-0.498399 1.4988029,-0.71797 0.4786017,-0.21957 1.4793583,-0.72651 2.2239361,-1.126536 2.0986612,-1.127522 6.0010807,-3.066231 11.7919947,-5.858202 5.064983,-2.441986 8.625586,-3.93327 10.134327,-4.244556 0.714803,-0.14748 0.695865,-0.152251 1.105345,0.278576 0.477321,0.502251 0.657153,0.782466 0.832004,1.296559 0.08075,0.237447 0.19143,0.479191 0.245936,0.537212 0.0545,0.05802 0.128152,0.24402 0.163645,0.413333 0.107237,0.511449 0.222778,0.769351 0.385472,0.860236 0.155114,0.08664 0.574773,0.167584 0.644718,0.12435 0.09481,-0.05864 -0.380097,-2.456213 -0.51668,-2.608245 -0.13525,-0.150513 -0.09279,-0.570496 0.08582,-0.848848 0.08125,-0.126567 0.147661,-0.248792 0.147661,-0.2716 0,-0.0228 0.05844,-0.102497 0.129927,-0.177074 l 0.129902,-0.135604 h -2.977299 c -3.274307,0 -3.035988,0.02281 -3.035988,-0.290591 0,-0.302682 -0.140309,-0.289589 3.103398,-0.289589 2.787846,0 2.950096,-0.0047 2.927306,-0.08461 -0.04246,-0.148897 -0.875546,-2.694759 -0.88755,-2.71222 -0.0064,-0.0093 -0.279552,0.113538 -0.607134,0.272828 -0.327582,0.159293 -0.758801,0.368833 -0.958242,0.465643 -0.199429,0.09681 -0.471262,0.239326 -0.604079,0.316702 -0.363176,0.211592 -1.425664,0.452038 -3.312118,0.749544 -0.917427,0.144681 -2.679735,0.428368 -3.916224,0.630416 -1.236527,0.20205 -3.21639,0.518227 -4.399704,0.702615 -1.18334,0.18439 -2.401703,0.377354 -2.707507,0.428812 -0.305817,0.05145 -0.969397,0.150401 -1.47463,0.219876 -1.419769,0.195231 -3.072773,0.472158 -5.6325941,0.943623 -2.8273688,0.520747 -3.1585376,0.575023 -4.7502161,0.778555 L 1.7031282,14.47532 v 0.36557 c 0,0.201065 0.087847,1.486005 0.1952206,2.855427 0.1073641,1.369422 0.248485,3.262224 0.3135879,4.206226 0.1746728,2.53197 0.2268462,3.095381 0.2857387,3.086694 0.028393,-0.0042 0.3344385,-0.15104 0.6801721,-0.326352 z M 10.043279,20.426388 C 9.8305275,20.378426 9.6177007,20.303432 9.5702929,20.25976 9.5122405,20.206245 9.3193245,19.542782 8.9787249,18.225156 8.7007439,17.149799 8.4729974,16.232015 8.472629,16.185637 c 0,-0.06085 0.2180247,-0.193848 0.7845837,-0.47754 0.4318912,-0.216267 0.9159933,-0.482633 1.0757463,-0.591925 0.270516,-0.185054 0.320395,-0.201005 0.725616,-0.232076 0.239319,-0.01836 0.680552,-0.06755 0.980501,-0.10933 0.746733,-0.104018 1.126323,-0.0095 1.201859,0.299184 0.01774,0.07279 0.05222,0.145389 0.07644,0.16133 0.02421,0.01595 0.117506,0.3127 0.207276,0.659466 0.190277,0.735071 0.279058,1.566815 0.256799,2.405263 -0.01407,0.534335 -0.02294,0.581041 -0.111801,0.598092 -0.05298,0.01014 -0.183596,0.07715 -0.290099,0.148864 -0.228101,0.153578 -0.524348,0.279725 -1.088068,0.463332 -0.226022,0.07362 -0.491339,0.196849 -0.58959,0.273848 -0.293129,0.229747 -1.171374,0.765984 -1.223471,0.747039 -0.02662,-0.0096 -0.222397,-0.05682 -0.435124,-0.104804 z m 0.690972,-0.314467 c 0.114082,-0.07905 0.312535,-0.196953 0.440916,-0.262011 0.128393,-0.06505 0.285979,-0.180735 0.350221,-0.257064 0.09215,-0.109583 0.276688,-0.192882 0.877015,-0.395994 0.588805,-0.199196 0.798349,-0.293109 0.929037,-0.416357 0.142666,-0.134558 0.231385,-0.359031 0.141905,-0.359031 -0.01483,0 -0.158904,0.0897 -0.320342,0.199331 -0.45983,0.312258 -1.529441,0.786596 -1.660433,0.736334 -0.036,-0.01382 -0.07973,-0.09014 -0.09722,-0.169587 -0.01737,-0.07945 -0.0412,-0.134955 -0.05286,-0.123336 -0.01141,0.01166 0.005,0.120281 0.03777,0.241456 0.06921,0.258961 0.02472,0.344648 -0.20242,0.390088 -0.07935,0.01589 -0.214906,0.07692 -0.301089,0.135633 -0.401292,0.273402 -0.400088,0.272933 -0.629495,0.247077 C 10.123921,20.06455 9.9932071,20.01785 9.9567898,19.974633 9.8697068,19.871401 9.1776574,17.606359 9.0218208,16.914581 8.9548908,16.617349 8.9104,16.334774 8.9229498,16.286635 c 0.018761,-0.07162 0.00638,-0.079 -0.064647,-0.04065 -0.082896,0.04435 -0.078592,0.08002 0.078592,0.663952 0.1426663,0.529999 0.3067933,1.206909 0.6888049,2.841104 l 0.079095,0.338438 0.3142713,0.08132 c 0.426935,0.110469 0.476586,0.106375 0.715158,-0.05888 z m 0,-0.492842 c 0.191367,-0.110305 0.347939,-0.227509 0.347939,-0.260445 0,-0.03293 -0.207491,-0.719603 -0.461045,-1.525929 -0.253593,-0.806326 -0.484318,-1.557312 -0.512738,-1.668859 l -0.05172,-0.202813 -0.1762325,0.115844 c -0.096969,0.06372 -0.3008731,0.163261 -0.4531857,0.22121 -0.1523387,0.05795 -0.266269,0.122664 -0.2532003,0.143817 0.01293,0.02116 0.1854989,0.665575 0.3831653,1.432055 0.4885392,1.8943 0.4658622,1.825445 0.6081992,1.845454 0.06541,0.0093 0.141893,0.03551 0.169894,0.05848 0.03093,0.02534 0.187729,-0.03709 0.398883,-0.158809 z m 1.073161,-0.617878 c 0.09304,-0.0512 0.343262,-0.161078 0.555987,-0.244178 0.212751,-0.0831 0.492963,-0.208471 0.622726,-0.278601 l 0.235947,-0.127508 -0.0303,-0.394129 c -0.05248,-0.682227 -0.217125,-1.522561 -0.405183,-2.06768 l -0.181441,-0.525903 -0.362618,0.02835 c -0.199429,0.01559 -0.579691,0.08363 -0.844971,0.151202 -0.265318,0.06758 -0.542728,0.122854 -0.616464,0.122854 -0.07378,0 -0.134059,0.01269 -0.134059,0.0282 0,0.08569 0.237925,0.944091 0.508123,1.833207 0.169691,0.558424 0.343907,1.140416 0.38712,1.293318 0.04323,0.152901 0.08252,0.277092 0.08721,0.275976 0.005,-0.0011 0.0848,-0.04392 0.17788,-0.09511 z m -0.487309,-0.01255 c 0.0025,-0.02041 -0.204575,-0.766095 -0.459272,-1.657071 l -0.46311,-1.619955 0.09101,-0.155994 c 0.07048,-0.120776 0.134072,-0.162853 0.281783,-0.186384 0.104957,-0.01672 0.451843,-0.07727 0.770957,-0.134578 0.816311,-0.146592 1.153235,-0.147211 1.307373,-0.0024 0.210736,0.197983 0.468321,1.163694 0.573366,2.149653 0.01141,0.106363 0.01268,-0.04594 0.0025,-0.338439 -0.02624,-0.780207 -0.267992,-1.657587 -0.542829,-1.970197 -0.111928,-0.127289 -0.834614,-0.11881 -1.189461,0.01395 -0.144885,0.05422 -0.42729,0.116935 -0.627581,0.1394 -0.323855,0.03632 -0.448649,0.08487 -1.1283894,0.439091 -0.4203311,0.219041 -0.8077804,0.430618 -0.8609557,0.470174 -0.091392,0.06797 -0.088727,0.07011 0.048295,0.0391 0.1583712,-0.03582 0.8986521,-0.444996 0.9512311,-0.525769 0.02219,-0.03397 0.06756,-0.03445 0.141488,-0.0015 0.09355,0.04175 0.174483,0.272491 0.575369,1.640779 0.469271,1.601791 0.520951,1.768212 0.527961,1.70012 z m 2.170076,-1.268291 c 0,-0.07977 -0.0089,-0.118266 -0.02218,-0.08553 -0.01318,0.03273 -0.01407,0.09801 -0.0025,0.145045 0.01268,0.04704 0.02307,0.02025 0.02408,-0.05951 z M 79.38154,15.311782 c 0.120294,-0.05992 0.160616,-0.240442 0.161401,-0.721979 v -0.32635 h -0.145049 -0.145024 v 0.556006 c 0,0.305803 0.005,0.553334 0.01141,0.55007 0.0063,-0.0033 0.05894,-0.02926 0.11611,-0.05775 z M 32.254959,14.340005 c 0.0025,-0.05097 -0.0089,-0.07953 -0.02548,-0.06345 -0.01598,0.01606 -0.01775,0.05776 -0.0038,0.09267 0.01546,0.03857 0.02687,0.02712 0.02928,-0.0292 z m -0.04842,-0.193394 c 0.0025,-0.05097 -0.0089,-0.07953 -0.02536,-0.06345 -0.01598,0.01606 -0.01775,0.05776 -0.0038,0.09267 0.01546,0.03857 0.02687,0.02712 0.02928,-0.0292 z m 63.581935,-2.66319 V 10.782369 H 95.66767 95.54674 v 0.701052 0.701051 h 0.12093 0.120804 z m -14.770431,0.208447 c 0.183597,-0.103535 0.408973,-0.32484 0.360995,-0.354487 -0.0265,-0.01635 -0.09279,-0.117404 -0.147496,-0.224539 -0.115476,-0.226364 -0.159221,-0.224195 -0.09355,0.0047 0.03929,0.137174 0.02827,0.182391 -0.0791,0.32315 l -0.124857,0.163659 h -1.396369 c -1.153805,-10e-7 -1.396357,-0.01154 -1.396357,-0.0666 0,-0.08993 -0.0919,-0.160081 -0.266193,-0.203123 -0.136987,-0.03383 -0.131752,-0.02374 0.09697,0.187587 l 0.241753,0.223345 1.353754,4.4e-4 c 0.91617,3e-4 1.384986,-0.01718 1.450444,-0.05407 z m -47.527671,-0.163353 0.337227,-0.214314 h 7.608439 7.608438 L 48.82554,11.101443 c -0.302281,-0.293798 -0.357801,-0.695774 -0.151223,-1.095224 0.322498,-0.623676 1.338238,-0.530933 1.563411,0.142749 0.13941,0.417163 -0.0064,0.895289 -0.321915,1.051954 -0.178209,0.08863 -0.170654,0.08918 1.411695,0.101864 1.334904,0.01065 1.60836,0.0013 1.699524,-0.05844 l 0.108633,-0.0712 -0.237977,-0.925699 C 52.673922,9.377131 52.664009,9.313084 52.731939,9.176916 52.796339,9.04789 52.796079,9.016333 52.729439,8.88774 52.622583,8.681215 52.518374,8.148264 52.517373,7.8039455 c 0,-0.1622977 -0.01508,-0.4305326 -0.03233,-0.5960802 l -0.03144,-0.3009935 -8.272362,0.020809 c -7.345656,0.018482 -8.323836,0.029597 -8.731707,0.099226 -0.997499,0.1702962 -1.656249,0.3988954 -2.767742,0.9604344 -0.713155,0.3602948 -0.810037,0.4291418 -0.810037,0.5756008 0,0.108226 1.213749,3.188077 1.254439,3.183136 0.01483,-0.0018 0.178551,-0.09969 0.364024,-0.217567 z M 44.210435,9.370597 c -0.04157,-0.0415 -0.05805,-0.351598 -0.05805,-1.089035 V 7.2505446 l 0.12397,-0.047154 c 0.17499,-0.066534 7.538696,-0.063749 7.663237,0.00288 0.0881,0.047127 0.09355,0.1114711 0.09355,1.1039544 0,0.579648 -0.01457,1.06841 -0.03219,1.086137 -0.01775,0.01774 -1.764805,0.03224 -3.882379,0.03224 -2.930106,0 -3.864011,-0.01386 -3.908149,-0.05802 z M 51.759209,9.15464 c 0.01774,-0.01774 0.03233,-0.09932 0.03233,-0.181305 V 8.82426 l -0.97301,0.01496 c -0.535161,0.0083 -1.003723,0.0031 -1.041231,-0.01115 -0.05717,-0.02195 -0.05539,-0.04582 0.01141,-0.147918 0.0502,-0.07669 0.05945,-0.121739 0.02472,-0.121739 -0.0303,0 -0.07466,0.05142 -0.09862,0.114273 -0.119407,0.313931 -0.674278,0.190843 -0.752856,-0.166994 -0.08518,-0.387855 0.102168,-0.6725088 0.442501,-0.6725088 0.305196,0 0.473721,0.1607729 0.475622,0.4537288 0,0.122563 0.01775,0.222909 0.03777,0.222995 0.09152,3.92e-4 0.02636,-0.395589 -0.106858,-0.64881 -0.07872,-0.1495992 -0.130764,-0.3041059 -0.11573,-0.343349 0.02244,-0.058448 -0.03017,-0.07135 -0.290543,-0.07135 -0.25363,0 -0.312636,0.013783 -0.291785,0.068134 0.01432,0.037468 -0.03968,0.1589292 -0.12004,0.2699061 C 48.823768,8.017918 48.75902,8.341144 48.83671,8.56405 48.939131,8.857795 48.992331,8.850855 46.744578,8.836939 L 44.708269,8.824389 V 8.135381 c 0,-0.6823074 0,-0.6890076 -0.108759,-0.6889644 -0.108759,4.31e-5 -0.108759,4.76e-5 -0.108759,0.8703144 v 0.87027 h 3.618088 c 1.989927,0 3.63255,-0.0145 3.650284,-0.03224 z M 51.501343,8.123208 V 7.7364215 h -0.725222 c -0.39887,0 -0.725222,0.010396 -0.725222,0.02311 0,0.012705 0.05919,0.1438765 0.131638,0.2914885 0.110661,0.225648 0.122196,0.283559 0.07212,0.363683 -0.05818,0.09307 -0.04424,0.0953 0.593584,0.0953 h 0.653109 z m -1.96616,0.354556 c 0.01774,-0.01774 0.03219,-0.09122 0.03219,-0.163301 0,-0.25918 -0.273709,-0.3241117 -0.357851,-0.08489 -0.03258,0.09249 -0.02763,0.151193 0.01712,0.205011 0.06338,0.07634 0.249423,0.102357 0.308593,0.04317 z m 31.281388,2.804205 c 0.05501,-0.05493 0.03562,-0.256142 -0.03829,-0.399062 -0.03879,-0.07502 -0.0848,-0.28607 -0.102293,-0.468996 -0.05628,-0.588947 0.0521,-0.550161 -1.536869,-0.550161 H 77.77007 l -0.05476,0.108784 c -0.03017,0.05983 -0.131106,0.197348 -0.224425,0.305592 l -0.169704,0.196808 0.216655,0.152722 c 0.13264,0.09348 0.216693,0.189954 0.216693,0.248712 0,0.0528 0.04893,0.121751 0.108759,0.153226 0.05983,0.03147 0.1703,0.108391 0.245442,0.170919 0.135847,0.112993 0.144403,0.11369 1.406155,0.11369 0.698185,0 1.28396,-0.0145 1.301668,-0.03224 z M 49.812884,10.882784 c 0.117506,-0.117479 0.141196,-0.180703 0.140613,-0.374699 0,-0.306856 -0.081,-0.455561 -0.303953,-0.564711 -0.398592,-0.195122 -0.759004,0.05394 -0.759004,0.524487 0,0.142039 0.01344,0.29347 0.03005,0.336516 0.04678,0.121878 0.28158,0.219734 0.527289,0.219734 0.18276,0 0.249549,-0.02586 0.365013,-0.141327 z m -0.650878,0.03836 c -0.232437,-0.105906 -0.290822,-0.558933 -0.09925,-0.770558 0.204726,-0.226233 0.660917,-0.14589 0.779221,0.137237 0.191405,0.458136 -0.221105,0.842377 -0.679932,0.633321 z m 0.35486,-0.256982 c 0.09241,-0.111307 0.04297,-0.290395 -0.08505,-0.308551 -0.213841,-0.03032 -0.3217,0.155908 -0.175193,0.302435 0.09469,0.0947 0.184979,0.09682 0.26026,0.0061 z m 10.428089,0.23939 c -0.01521,-0.03971 -0.06224,-0.338874 -0.104449,-0.664791 -0.04234,-0.325917 -0.08886,-0.64153 -0.103562,-0.70136 l -0.02675,-0.108785 h -2.415203 c -1.328363,0 -2.731248,-0.02346 -3.117493,-0.05214 -0.38627,-0.02867 -0.710544,-0.04389 -0.720608,-0.03383 -0.0251,0.02515 0.06705,1.366512 0.104195,1.514073 l 0.02991,0.119039 h 3.190938 c 2.810422,0 3.187603,-0.0086 3.163202,-0.07221 z m 0.694242,-0.121169 c 0.271833,-0.09002 0.79769,-0.335385 0.79698,-0.371857 -0.0025,-0.129329 -0.08252,-0.647428 -0.123589,-0.800597 l -0.04855,-0.181307 h -0.464583 -0.464581 l 0.03219,0.471397 c 0.0417,0.610529 0.08379,0.931743 0.121308,0.926552 0.01635,-0.0022 0.08442,-0.02218 0.150893,-0.04419 z m 27.563288,-0.157138 c 0.0025,-0.0066 0.05159,-0.254583 0.108759,-0.550965 0.07263,-0.376223 0.09938,-0.671741 0.0886,-0.979055 l -0.01546,-0.440176 -4.432535,8.98e-4 -4.432522,8.99e-4 0.241728,0.151282 c 0.410962,0.257172 0.75894,0.578781 0.733119,0.677541 -0.01546,0.059 0.0038,0.08795 0.05742,0.08795 0.08759,0 0.297361,0.40372 0.297361,0.572094 0,0.0545 0.02522,0.114641 0.05603,0.133664 0.03942,0.02438 0.04626,2.31e-4 0.02307,-0.08176 -0.09241,-0.326466 -0.09139,-0.371813 0.01014,-0.403938 0.06477,-0.02056 0.166421,0.01115 0.294193,0.09182 0.107364,0.06777 0.228317,0.123247 0.268715,0.123247 0.04043,0 0.07352,0.04185 0.07352,0.09301 0,0.05116 0.06566,0.143628 0.145861,0.205482 0.08024,0.06186 0.208441,0.161414 0.284965,0.221244 l 0.139155,0.108784 h 3.026875 c 1.664767,0 3.02899,-0.0055 3.031588,-0.01204 z M 82.06495,9.809035 C 81.941234,9.699162 81.772011,9.580363 81.688972,9.545036 81.54083,9.482026 81.473102,9.367148 81.513424,9.247317 c 0.02979,-0.08839 6.359274,-0.08839 6.432414,0 0.04386,0.05297 -0.01014,0.394194 -0.111928,0.701051 -0.01571,0.0474 -0.615209,0.06044 -2.781977,0.06044 h -2.762025 z m 5.504289,-0.05438 c 0,-0.0068 0.02041,-0.08298 0.045,-0.169218 l 0.045,-0.156814 h -2.834494 -2.834492 l 0.164037,0.16922 0.164001,0.169218 h 2.625494 c 1.444043,0 2.625506,-0.0056 2.625506,-0.01242 z M 53.223393,10.259564 C 53.205773,10.14486 53.179663,9.916416 53.165213,9.751905 53.129973,9.34955 53.103863,9.23523 53.047581,9.23523 c -0.07859,0 -0.05362,0.370637 0.05336,0.789693 0.112307,0.440106 0.17125,0.552986 0.122448,0.234641 z m 16.239373,0.103483 c 0.425478,-0.0068 1.426285,-0.03756 2.224025,-0.06827 0.797767,-0.03071 2.236537,-0.06955 3.197314,-0.08629 l 1.746844,-0.03046 0.237608,-0.222322 c 0.130687,-0.122284 0.26926,-0.233516 0.307972,-0.247196 0.0573,-0.02024 0.05147,-0.04635 -0.03131,-0.14029 -0.0559,-0.06348 -0.190412,-0.278594 -0.29893,-0.47803 C 76.737784,8.890752 76.58343,8.664783 76.50328,8.588037 l -0.145708,-0.139538 -0.03194,0.127272 -0.03194,0.127272 -6.292168,0.01229 -6.292193,0.01229 0.01369,0.241743 c 0.03182,0.570268 0.229192,1.184535 0.380504,1.184535 0.04576,0 0.135314,0.04895 0.198972,0.108785 l 0.11573,0.108784 2.135561,0.0021 c 1.174567,0.0011 2.483664,-0.0035 2.909128,-0.0104 z M 63.301628,10.117581 C 63.132394,9.782221 63.003886,9.35344 62.964693,8.993483 l -0.0289,-0.265916 -0.369209,-0.01402 c -0.364342,-0.01384 -0.371605,-0.01179 -0.551272,0.157689 l -0.182063,0.171711 0.03068,0.567535 c 0.04678,0.86572 -0.03904,0.785106 0.835058,0.785106 h 0.743019 z M 89.34947,10.29226 c 0.116238,-0.0335 0.179592,-0.09185 0.229648,-0.211654 0.09748,-0.233149 0.08721,-0.279307 -0.04284,-0.194095 -0.0616,0.04033 -0.21516,0.08749 -0.341322,0.104778 -0.19067,0.02614 -0.253378,0.0137 -0.371554,-0.07367 -0.117378,-0.08681 -0.14216,-0.09182 -0.14216,-0.02873 0,0.140169 0.148244,0.365267 0.271365,0.412084 0.142261,0.05409 0.181911,0.05322 0.396842,-0.0087 z M 60.148098,10.153843 c 0,-0.06648 -0.01141,-0.09367 -0.02434,-0.06044 -0.01343,0.03324 -0.01343,0.08763 0,0.120877 0.01343,0.03323 0.02434,0.0061 0.02434,-0.06043 z M 89.300935,9.715999 c 0.160932,-0.06453 0.128697,-0.288266 -0.05413,-0.375474 -0.168475,-0.08038 -0.275509,-0.01001 -0.275509,0.181039 0,0.217992 0.109645,0.282654 0.329596,0.194435 z M 77.627725,9.583243 c 0.01483,-0.02413 -0.02814,-0.09583 -0.09583,-0.159339 -0.06756,-0.06351 -0.264659,-0.32775 -0.437937,-0.587209 -0.173291,-0.259458 -0.33487,-0.471742 -0.359107,-0.471742 -0.07276,0 -0.05184,0.05002 0.120927,0.290635 0.09076,0.126315 0.198187,0.293881 0.2388,0.372369 0.07986,0.154522 0.404714,0.560712 0.467397,0.58452 0.02129,0.0081 0.0507,-0.005 0.06566,-0.02923 z M 88.681264,9.322325 c 0,-0.04074 0.04512,-0.131387 0.100139,-0.201452 0.08442,-0.107301 0.13837,-0.12739 0.342172,-0.12739 0.202952,0 0.264709,0.02278 0.383266,0.141324 0.174204,0.174199 0.186436,0.113094 0.01762,-0.08763 -0.251412,-0.298802 -0.728023,-0.233405 -0.843247,0.115705 -0.03182,0.09653 -0.04487,0.188557 -0.0289,0.204503 0.01598,0.01595 0.02903,-0.0043 0.02903,-0.04506 z m -8.702705,-0.05838 c 0,-0.03917 -0.453465,-0.318819 -0.517009,-0.318819 -0.03587,0 -0.207529,-0.111814 -0.381428,-0.24847 -0.231816,-0.182164 -0.30185,-0.2628 -0.262466,-0.302176 0.03841,-0.03847 1.407739,-0.05755 4.825688,-0.06724 2.624607,-0.0075 4.820961,-0.0015 4.880778,0.013 0.08708,0.02123 0.108758,0.06034 0.108758,0.196067 v 0.16954 l 0.153454,-0.07935 c 0.205906,-0.106476 0.492443,-0.09601 0.698439,0.02553 0.09291,0.05483 0.177221,0.09968 0.187297,0.09968 0.01014,0 0.02509,-0.0707 0.03346,-0.157132 l 0.01521,-0.157132 3.263517,-0.02417 3.263529,-0.02417 V 7.784761 7.1804064 L 76.53665,7.1682407 56.825518,7.1560749 56.666779,7.0110887 c -0.08733,-0.079742 -0.194828,-0.1449871 -0.238927,-0.1449871 -0.04411,0 -0.138268,-0.076139 -0.209266,-0.1692189 L 56.089521,6.5276629 h -0.62365 c -0.61564,0 -0.62644,0.00189 -0.842855,0.147945 -0.120547,0.081369 -0.237862,0.1812912 -0.260678,0.2220492 -0.03435,0.061296 -0.134604,0.071233 -0.580477,0.057531 -0.44392,-0.013639 -0.544617,-0.00377 -0.570628,0.05595 -0.05527,0.1270494 -0.0772,1.2270939 -0.027,1.3562429 0.09038,0.232298 0.25893,0.252759 2.2817,0.276941 1.689144,0.02019 5.500348,-0.05376 5.886707,-0.114234 0.123335,-0.01931 0.172493,-0.06074 0.226999,-0.191152 0.03829,-0.09158 0.124223,-0.221112 0.190898,-0.287845 l 0.121311,-0.1213312 h 6.932437 6.932424 l 0.05616,-0.1231454 c 0.0308,-0.067729 0.05616,-0.1630974 0.05616,-0.2119284 0,-0.086661 0.122955,-0.1463681 0.304258,-0.14775 0.169653,-0.00126 0.611292,0.4714218 0.934272,0.999988 0.05628,0.09212 0.200646,0.269084 0.320762,0.393256 0.120167,0.124172 0.243464,0.274719 0.274076,0.334551 0.05527,0.108036 0.06326,0.108783 1.165949,0.108783 0.610646,0 1.110314,-0.0089 1.110314,-0.01962 z m 16.369879,3.181268 c -0.06613,-0.02539 -0.07646,-0.158256 -0.07646,-0.98597 0,-1.091587 -0.03459,-1.015315 0.460986,-1.015315 0.356194,0 0.534682,0.06576 0.573749,0.211374 0.03756,0.139646 0.03513,1.380062 -0.0027,1.522004 -0.0549,0.205049 -0.669844,0.377489 -0.955398,0.267907 z m 0.697078,-0.961794 V 10.78237 h -0.265912 -0.265913 v 0.701053 0.70105 h 0.265913 0.265912 z m 1.232891,-3.6744779 c 0,-0.8380384 0.0036,-0.8702704 0.09672,-0.8702704 0.06352,0 0.102043,0.037378 0.112179,0.1087837 0.01267,0.089123 0.046,0.1087846 0.184498,0.1087846 0.347722,0 0.356078,0.018509 0.356078,0.7913907 0,0.3802103 -0.01519,0.7066603 -0.03414,0.7254413 -0.01878,0.01879 -0.18741,0.02785 -0.374694,0.02014 l -0.340569,-0.01401 z m 0.473386,0.5741629 c 0.01878,-0.01885 0.03423,-0.237335 0.03423,-0.4855237 V 7.4463331 H 98.63922 98.492431 l 0.01393,0.4713957 c 0.01267,0.4323752 0.02192,0.4725662 0.112564,0.4855242 0.05427,0.0077 0.114084,-0.0013 0.132952,-0.02014 z m -2.081897,-0.7549824 -0.01294,-1.0510908 0.14306,-0.283372 c 0.177113,-0.3508811 0.372295,-0.5878715 0.484177,-0.5878715 0.105331,0 0.203331,0.1089239 0.336957,0.3747005 0.05679,0.1130175 0.120166,0.2054798 0.140669,0.2054798 0.02058,0 0.06272,0.095158 0.09392,0.2114522 0.03855,0.1439403 0.08796,0.2196789 0.155055,0.2372159 0.09482,0.024808 0.09849,0.06064 0.09849,0.9650248 0,0.5165945 -0.0151,0.9543375 -0.03342,0.9727645 -0.01851,0.01843 -0.339347,0.02749 -0.713134,0.02015 l -0.679656,-0.01336 z m 1.197545,0.083103 V 7.005527 L 97.726995,6.8270562 C 97.649814,6.7288946 97.57221,6.5793781 97.554689,6.4947939 97.537079,6.4102087 97.493681,6.3168487 97.4581,6.2873293 97.422519,6.2578044 97.378403,6.1747179 97.359867,6.1026822 97.328509,5.9807911 97.313055,5.9977638 97.1364,6.3475039 l -0.189881,0.3757966 0.01321,0.8329125 0.01321,0.832914 0.44723,0.01391 0.447213,0.01391 z"
   id="path8231" /></svg>
