<?xml version="1.0" encoding="UTF-8" standalone="no"?>
<!-- Generator: Adobe Illustrator 16.0.0, SVG Export Plug-In . SVG Version: 6.00 Build 0)  -->

<svg
   version="1.1"
   x="0px"
   y="0px"
   width="37.75px"
   height="32px"
   viewBox="0 0 37.75 32"
   enable-background="new 0 0 37.75 32"
   xml:space="preserve"
   id="svg8705"
   sodipodi:docname="p250.svg"
   inkscape:version="1.1.1 (3bf5ae0d25, 2021-09-20)"
   xmlns:inkscape="http://www.inkscape.org/namespaces/inkscape"
   xmlns:sodipodi="http://sodipodi.sourceforge.net/DTD/sodipodi-0.dtd"
   xmlns="http://www.w3.org/2000/svg"
   xmlns:svg="http://www.w3.org/2000/svg"><defs
   id="defs8709" /><sodipodi:namedview
   id="namedview8707"
   pagecolor="#505050"
   bordercolor="#eeeeee"
   borderopacity="1"
   inkscape:pageshadow="0"
   inkscape:pageopacity="0"
   inkscape:pagecheckerboard="0"
   showgrid="false"
   inkscape:zoom="9.6875"
   inkscape:cx="21.470968"
   inkscape:cy="6.5032258"
   inkscape:window-width="1440"
   inkscape:window-height="848"
   inkscape:window-x="1358"
   inkscape:window-y="-8"
   inkscape:window-maximized="1"
   inkscape:current-layer="svg8705" />

<g
   id="guides">
</g>
<path
   style="fill:#ffffff;stroke-width:0.0328604"
   d="m 10.53948,29.543213 c 1.092919,-0.07243 1.729532,-0.187073 1.953625,-0.35181 0.09607,-0.07064 0.248746,-0.274945 0.248746,-0.332896 0,-0.013 -0.04815,-0.09178 -0.106987,-0.175107 -0.05885,-0.08333 -0.202394,-0.336828 -0.319003,-0.563347 -0.116606,-0.226517 -0.243943,-0.466967 -0.282966,-0.534335 l -0.07095,-0.122486 0.431046,-1.404792 c 0.237074,-0.772635 0.512456,-1.713677 0.611958,-2.091207 0.390908,-1.483165 1.385904,-5.019514 1.454359,-5.168971 0.03983,-0.08697 0.105901,-0.202805 0.146815,-0.257405 0.07101,-0.09476 0.07833,-0.156223 0.161027,-1.351986 0.176004,-2.545001 0.326813,-4.215136 0.41334,-4.577513 0.0735,-0.307791 0.200002,-0.556336 0.374738,-0.736239 0.145661,-0.149965 0.695932,-0.516141 0.854633,-0.56871 0.05273,-0.01747 0.103156,-0.144051 0.257944,-0.647573 0.293759,-0.9555752 0.636113,-2.148543 0.636113,-2.2165852 0,-0.04001 -0.134732,-0.1570296 -0.393647,-0.3418958 L 16.516626,7.8192878 h -1.019174 -1.019176 l -0.08689,0.1630235 c -0.04779,0.08966 -0.149523,0.2672745 -0.22607,0.3946898 l -0.139177,0.2316641 h -0.833814 c -0.786178,0 -0.838389,0.00392 -0.913814,0.068643 -0.101119,0.086766 -0.154989,0.086766 -0.204661,0 -0.0362,-0.063236 -0.07337,-0.068643 -0.472204,-0.068643 -0.390957,0 -0.439006,0.00664 -0.495832,0.068643 -0.07997,0.087234 -0.146134,0.087234 -0.196075,0 -0.03627,-0.063356 -0.07337,-0.068643 -0.480944,-0.068643 -0.402713,0 -0.4463945,0.00609 -0.4955229,0.068643 -0.069034,0.087952 -0.1686597,0.087952 -0.2118081,0 -0.031132,-0.063464 -0.065875,-0.068643 -0.4602166,-0.068643 -0.3788984,0 -0.4354732,0.00773 -0.506535,0.068643 -0.1011182,0.086766 -0.1549876,0.086766 -0.2046606,0 -0.036208,-0.063236 -0.073371,-0.068643 -0.4722059,-0.068643 -0.3909559,0 -0.4390038,0.00664 -0.4958325,0.068643 -0.079972,0.087234 -0.1461313,0.087234 -0.1960758,0 -0.03626,-0.063356 -0.073371,-0.068643 -0.4809432,-0.068643 -0.4027099,0 -0.4463949,0.00609 -0.4955238,0.068643 -0.069027,0.087952 -0.1686591,0.087952 -0.2118053,0 -0.031132,-0.063464 -0.065875,-0.068643 -0.4602187,-0.068643 -0.3788962,0 -0.4354703,0.00773 -0.5065328,0.068643 -0.1011175,0.086766 -0.1549906,0.086766 -0.2046628,0 -0.036208,-0.063236 -0.073371,-0.068643 -0.472203,-0.068643 -0.3909589,0 -0.4390046,0.00664 -0.4958325,0.068643 -0.079971,0.087234 -0.1461343,0.087234 -0.1960766,0 -0.037644,-0.06576 -0.073067,-0.068621 -0.8418855,-0.068055 l -0.8025931,5.76e-4 -0.075959,0.1967596 C 1.9220537,9.3755307 1.5662298,10.115765 1.4284478,10.29038 c -0.2623417,0.332483 -0.3772105,0.711102 -0.4119755,1.357936 -0.015636,0.290867 -0.00956,0.366192 0.03845,0.476542 0.07449,0.171241 0.2711877,0.30523 0.5584155,0.380394 0.7138869,0.186816 1.3178158,0.440182 1.8865697,0.791471 0.442441,0.273271 0.5851677,0.436107 0.6920859,0.7896 0.1603364,0.530106 0.1990899,0.927898 0.1170873,1.201962 -0.021896,0.07318 -0.2129092,0.472832 -0.4244688,0.888115 -1.8037753,3.54069 -3.1462685,6.966687 -3.54219792,9.039589 -0.076255,0.399222 -0.0993851,0.62088 -0.11331846,1.086026 -0.0210011,0.700904 0.005253,0.868928 0.17952882,1.148865 0.093289,0.149856 0.12579257,0.236465 0.12579257,0.335185 0,0.207087 0.0947712,0.758568 0.15711955,0.914293 0.10080367,0.25177 0.25181603,0.373557 0.53613344,0.432376 0.1392982,0.02881 2.0443789,0.198989 2.8620088,0.255653 2.0515524,0.142173 5.4204552,0.22304 6.4498123,0.154819 z M 6.6854994,25.774204 C 6.4283747,25.64295 6.2185741,25.413695 6.0976832,25.131887 c -0.086451,-0.20152 -0.0942,-0.248056 -0.084145,-0.505356 0.00924,-0.236344 0.028238,-0.321425 0.1144803,-0.51244 0.2899176,-0.642147 1.0122827,-0.898375 1.6141729,-0.572553 0.1423988,0.07708 0.3951368,0.353785 0.4672051,0.511498 0.1494176,0.326986 0.1666491,0.795713 0.040648,1.105722 -0.081886,0.201469 -0.3265105,0.490871 -0.4942238,0.584687 -0.3454861,0.193255 -0.7303296,0.204318 -1.0703213,0.03076 z M 7.370121,25.561761 c 0.67045,-0.181538 0.9047777,-1.006626 0.4398674,-1.548807 -0.3340481,-0.389566 -0.8850975,-0.397499 -1.2424451,-0.01789 -0.1960632,0.208278 -0.2597695,0.369796 -0.2597695,0.658582 0,0.280816 0.053317,0.421523 0.2359684,0.622764 0.2247269,0.247595 0.5504419,0.360062 0.8263788,0.285349 z m 1.7850075,-8.839388 c -0.2955986,-0.101419 -0.6405608,-0.48086 -0.7435993,-0.817938 -0.072246,-0.236346 -0.064039,-0.57543 0.019839,-0.818902 0.094699,-0.274911 0.3535314,-0.573843 0.6214409,-0.717716 0.1847791,-0.09924 0.2350595,-0.110849 0.4769308,-0.110205 0.3492519,8.87e-4 0.5894151,0.110493 0.8166241,0.372557 0.196644,0.226813 0.277678,0.401338 0.32443,0.69873 0.03174,0.201895 0.02943,0.271735 -0.01559,0.47068 -0.170323,0.752909 -0.8237057,1.154845 -1.5000786,0.922794 z m 0.739368,-0.33499 c 0.1772285,-0.09021 0.3757055,-0.311147 0.4471875,-0.497769 0.07125,-0.186041 0.06448,-0.571139 -0.01341,-0.763059 -0.1405,-0.346124 -0.4414075,-0.556492 -0.7948516,-0.555699 -0.3529948,8.88e-4 -0.6523807,0.202649 -0.8048909,0.542687 -0.075986,0.16942 -0.083303,0.217364 -0.070366,0.461101 0.015348,0.289039 0.084448,0.452854 0.272598,0.646154 0.2420562,0.248683 0.6604135,0.320998 0.9637457,0.166585 z m 5.3014285,1.637649 c 0.427301,-0.238969 0.880976,-0.286677 1.638835,-0.172342 0.760399,0.114716 1.23663,0.134346 2.781647,0.114651 1.496836,-0.01907 2.041527,-0.04316 3.287829,-0.145377 1.346107,-0.110401 1.682298,-0.170722 2.255746,-0.404719 0.42181,-0.172127 0.631396,-0.281301 0.792131,-0.41263 0.05837,-0.04769 0.147341,-0.09659 0.197705,-0.108653 0.05036,-0.01207 0.113932,-0.05916 0.141259,-0.10465 0.02732,-0.0455 0.104663,-0.341456 0.171863,-0.657694 0.23025,-1.083526 0.528434,-2.072754 0.850103,-2.820206 0.174589,-0.405682 0.278918,-0.57119 0.381339,-0.604933 0.03894,-0.01282 0.197035,-0.109534 0.351312,-0.214894 l 0.280501,-0.191566 0.411674,-0.02585 c 0.226417,-0.0142 0.758547,-0.04269 1.182506,-0.06327 0.423958,-0.02061 1.082309,-0.05983 1.463008,-0.08723 0.380691,-0.02737 1.223101,-0.08159 1.872018,-0.120466 0.64891,-0.03888 1.236473,-0.0868 1.305692,-0.106489 0.298611,-0.08496 0.551637,-0.272353 0.693006,-0.513251 l 0.07237,-0.123305 0.356685,-0.02359 c 0.196172,-0.01297 0.448711,-0.04576 0.561183,-0.07284 0.112479,-0.02709 0.367326,-0.04999 0.566326,-0.05091 0.467832,-0.0023 0.486096,-0.0085 0.534439,-0.183722 0.08792,-0.318771 0.187804,-1.4500792 0.188581,-2.1356899 l 5.25e-4,-0.5511526 -0.228103,0.027174 c -0.125459,0.014925 -0.621197,0.05808 -1.101646,0.095871 -0.48045,0.037792 -0.907198,0.077922 -0.948319,0.08918 -0.04855,0.013282 -0.08073,0.052619 -0.09173,0.1120713 -0.03005,0.1621784 -0.260612,0.473593 -0.408514,0.5516966 -0.203255,0.107337 -0.573853,0.1478774 -0.960167,0.1050418 C 33.294278,9.169696 33.045344,9.0441798 32.678973,8.6622307 L 32.495919,8.4713875 h -7.480797 -7.480794 l -0.333312,1.1754883 c -0.183322,0.6465172 -0.37299,1.3185862 -0.421484,1.4934862 l -0.08818,0.317997 -0.17357,0.07042 c -0.55199,0.223983 -0.930713,0.625697 -1.081258,1.146899 -0.08825,0.305523 -0.204563,1.425422 -0.365377,3.517885 -0.122334,1.591729 -0.142588,1.957454 -0.108052,1.95106 0.01554,-0.003 0.12026,-0.05669 0.232738,-0.119596 z m 1.50665,-1.667128 c -0.180188,-0.115553 -0.322688,-0.289362 -0.378534,-0.461699 -0.03322,-0.102508 -0.04266,-0.439377 -0.04266,-1.52164 0,-1.37316 8.15e-4,-1.39173 0.07035,-1.533527 0.03868,-0.07895 0.08413,-0.152836 0.100987,-0.164199 0.01685,-0.01135 0.115398,0.169059 0.218977,0.400939 0.245863,0.550413 0.526789,1.010943 0.802924,1.316252 0.341946,0.378074 1.552476,1.215425 2.05592,1.422131 0.575987,0.236488 0.994346,0.0017 0.812943,-0.455975 -0.02406,-0.06075 -0.157944,-0.264885 -0.297498,-0.45365 -0.287128,-0.388374 -0.480964,-0.738035 -0.59559,-1.074376 -0.123271,-0.361704 -0.10157,-1.021174 0.04571,-1.388913 l 0.05185,-0.129475 2.566961,0.0094 2.566959,0.0094 0.127996,0.07474 c 0.164524,0.09607 0.34028,0.308864 0.395206,0.478494 0.03381,0.1044 0.04313,0.433573 0.04313,1.523181 v 1.389993 l -0.0873,0.193919 c -0.04802,0.106652 -0.136395,0.234767 -0.196402,0.284695 -0.241023,0.200537 0.02366,0.189169 -4.215436,0.181001 l -3.90135,-0.0075 z m 1.781183,-5.446307 c -0.147124,-0.07446 -0.312406,-0.254392 -0.359891,-0.391779 -0.01836,-0.05314 -0.03339,-0.250552 -0.03339,-0.438693 0,-0.4815212 0.08076,-0.6672807 0.36182,-0.832284 0.124026,-0.072809 0.151845,-0.074016 1.919468,-0.083524 l 1.793619,-0.00969 0.17121,0.095447 c 0.235101,0.1310617 0.340874,0.2862299 0.38244,0.5610378 0.06592,0.4358622 -0.02366,0.8375772 -0.220955,0.9908272 -0.225115,0.174856 -0.17916,0.171092 -2.095108,0.171722 -1.681431,5.76e-4 -1.801217,-0.0034 -1.919211,-0.0631 z m 3.71783,-0.17838 c 0.139333,-0.04401 0.254106,-0.206262 0.280208,-0.396137 0.03001,-0.218291 -0.0036,-0.6030812 -0.06373,-0.7299542 C 22.316694,9.393283 22.362916,9.3980455 20.388341,9.3980455 H 18.59295 l -0.117521,0.1174847 -0.117523,0.1174876 v 0.4460402 c 0,0.424903 0.0036,0.450245 0.07632,0.534664 0.04198,0.04875 0.126924,0.103953 0.188774,0.122696 0.143077,0.04335 3.440508,0.04042 3.578586,-0.0033 z M 34.540854,8.8663155 c 0.07539,-0.02564 0.170814,-0.081229 0.212054,-0.1234795 0.07763,-0.079565 0.201463,-0.3948747 0.201463,-0.5129847 0,-0.037041 0.01058,-0.067566 0.0236,-0.067816 0.158181,-0.00315 2.53376,-0.2380529 2.546413,-0.2518543 0.0095,-0.010335 -0.01272,-0.2353399 -0.04935,-0.49996 -0.04736,-0.3420895 -0.0666,-0.6450888 -0.0666,-1.0484954 0,-0.3408217 -0.01207,-0.5673657 -0.03027,-0.5673657 -0.01665,0 -0.09807,0.028907 -0.180907,0.064239 -0.233395,0.099548 -0.682536,0.2022029 -1.060628,0.2424148 -0.44086,0.046883 -17.3225,0.051678 -17.3225,0.00492 0,-0.017403 -0.06506,-0.1370946 -0.144586,-0.2659856 -0.199635,-0.3235697 -0.277437,-0.4998873 -0.356384,-0.8076202 -0.05677,-0.2212881 -0.19058,-1.0756853 -0.191066,-1.2199918 -1.26e-4,-0.03392 -0.470687,-0.042896 -2.247593,-0.042896 -2.113154,0 -2.248437,0.00363 -2.263981,0.060058 -0.198774,0.7220709 -1.183283,4.4151166 -1.183283,4.4386683 0,0.020288 0.28016,0.029361 0.731206,0.02365 l 0.731204,-0.00925 0.09469,-0.1789485 c 0.05208,-0.098417 0.143091,-0.2721719 0.202252,-0.38611 l 0.107568,-0.2071615 h 1.176301 1.176298 l 0.440175,0.3260493 0.440177,0.3260461 h 7.566335 7.566338 l 0.192932,0.2249889 c 0.226941,0.2646398 0.396948,0.3812311 0.681314,0.4672466 0.250495,0.075768 0.799661,0.082088 1.006844,0.011586 z M 12.109071,8.1882371 c 0.0882,-0.2998323 1.167644,-4.3533223 1.167644,-4.3846796 0,-0.023942 -0.139608,-0.032886 -0.413812,-0.026533 l -0.413813,0.00956 -0.591646,2.1965325 c -0.325407,1.2080922 -0.592253,2.2235585 -0.59299,2.2565929 -0.0013,0.054186 0.03848,0.06006 0.405233,0.06006 h 0.406574 z M 11.49709,6.0946676 C 11.823169,4.8818534 12.096705,3.862526 12.104951,3.829492 12.118681,3.774471 12.084621,3.769435 11.698866,3.769435 h -0.421078 l -0.594602,2.2222728 c -0.327031,1.2222487 -0.600851,2.2415778 -0.60849,2.265173 -0.01067,0.03294 0.08402,0.042905 0.407821,0.042905 h 0.421706 z M 9.7315635,8.2740382 C 9.7391735,8.2598852 10.009846,7.262598 10.333073,6.0578508 10.6563,4.8531034 10.928513,3.8453595 10.937989,3.818416 c 0.01439,-0.040942 -0.05266,-0.048982 -0.408756,-0.048982 -0.37843,0 -0.427836,0.0067 -0.442524,0.060058 -0.1958732,0.7115421 -1.1832804,4.4149326 -1.1832804,4.4380373 0,0.038227 0.8076941,0.04458 0.8281349,0.00653 z M 8.5852706,8.1882404 C 8.6734666,7.888408 9.7529161,3.8349181 9.7529161,3.8035607 c 0,-0.023942 -0.1396068,-0.032886 -0.4138136,-0.026533 L 8.9252912,3.7865894 8.3336447,5.9831218 C 8.0082362,7.1912137 7.7413937,8.20668 7.7406568,8.2397144 c -0.00134,0.054185 0.038487,0.06006 0.4052319,0.06006 H 8.5524599 Z M 7.9732914,6.0946676 C 8.2993681,4.8818534 8.5729068,3.862526 8.5811503,3.829492 8.5948846,3.7744716 8.5608374,3.7694346 8.1750674,3.7694346 H 7.75399 L 7.159388,5.9917078 c -0.3270306,1.2222487 -0.6008519,2.2415778 -0.608493,2.265173 -0.01067,0.03294 0.084026,0.042905 0.4078211,0.042905 h 0.4217086 z m -1.7587932,2.16221 C 6.2226882,8.2332824 6.5124292,7.1637602 6.8583957,5.8801616 7.2609096,4.3867528 7.5060064,3.5313828 7.5390339,3.5047969 7.5792452,3.4724192 7.5855351,3.4345282 7.567531,3.3331934 7.5548254,3.2616653 7.5351785,3.1421987 7.5238862,3.0677203 7.4912598,2.8525598 7.3938245,2.8109369 6.7873524,2.7530833 6.3463195,2.7110108 6.2440025,2.7109946 6.0403506,2.7529476 5.4687995,2.8707005 5.1008605,3.199945 5.0451255,3.6435021 5.027003,3.7877246 5.0167688,3.8037706 4.9427478,3.8039869 4.7778628,3.8045633 4.3259002,3.9456336 4.0693222,4.076796 3.6514986,4.2903825 3.4209878,4.5961594 3.2411053,5.1754446 3.113812,5.5853832 2.9352081,5.67663 2.2963086,5.6581325 1.4544357,5.6337543 1.4432706,5.6366927 1.2235763,5.9398792 1.097046,6.1144937 1.0946477,6.1228291 1.1062908,6.3476012 1.1229338,6.6685798 1.2535631,6.8786402 1.5569406,7.0721849 1.678069,7.1494609 1.9280839,7.3242513 2.1125218,7.4606 c 0.1844439,0.1363509 0.3525569,0.254166 0.3735868,0.2618135 0.027195,0.0099 0.013705,0.077955 -0.046694,0.2355716 -0.046716,0.1219152 -0.092597,0.248692 -0.1019611,0.2817264 -0.015902,0.056067 0.03407,0.060071 0.7516822,0.060071 H 3.8578434 L 4.4936371,5.9403538 C 4.8956071,4.448666 5.1504217,3.5580366 5.1864993,3.5186811 5.2552601,3.4436735 5.396405,3.4694325 5.4435849,3.5655974 5.467043,3.6134254 5.3239668,4.1758888 4.8449678,5.9188886 4.498769,7.1786337 4.2155188,8.2296842 4.2155188,8.2545554 c 0,0.035082 0.091171,0.045221 0.4065712,0.045221 H 5.0286643 L 5.0614453,8.1882328 C 5.0794873,8.1268828 5.3645615,7.0728045 5.6949762,5.8458342 6.0253923,4.6188638 6.3172828,3.5788698 6.3436222,3.534734 6.3816802,3.470971 6.4087342,3.459202 6.4753214,3.477428 c 0.1042084,0.028528 0.1628138,0.079851 0.1628138,0.1425694 0,0.026452 -0.275023,1.0477515 -0.611163,2.2695524 -0.3361356,1.2218 -0.6208333,2.2639265 -0.6326614,2.3158393 l -0.021497,0.09438 h 0.4134095 c 0.3018242,0 0.4174249,-0.011586 0.4282805,-0.042905 z M 36.096983,5.7883723 c 0.257386,-0.028818 0.994925,-0.2132295 1.19348,-0.2984061 0.100677,-0.043186 0.102401,-0.062019 0.05432,-0.592891 -0.07408,-0.8183781 -0.19163,-1.0946907 -0.549891,-1.2925661 -0.06919,-0.03823 -0.182475,-0.1339013 -0.251694,-0.2126071 -0.152254,-0.1731164 -0.323334,-0.2745665 -0.46303,-0.2745665 -0.05705,0 -0.153172,-0.015645 -0.213622,-0.034767 -0.242586,-0.076735 -0.740152,-0.171157 -0.901944,-0.171157 -0.256867,0 -0.450739,0.135904 -0.450739,0.3159728 0,0.053947 -0.02049,0.1516394 -0.04558,0.2171028 l -0.04558,0.1190201 -5.53114,0.0034 c -3.042127,0.00202 -5.566392,0.014118 -5.60948,0.027195 -0.05889,0.017863 -0.08277,0.053543 -0.09619,0.1436091 -0.0099,0.065901 -0.0285,0.1386018 -0.04149,0.1615567 -0.01823,0.032159 -0.558387,0.041733 -2.354079,0.041733 h -2.330431 l 0.02118,0.2346009 c 0.05424,0.6004626 0.233683,1.2050979 0.460998,1.5533364 l 0.06509,0.09971 8.406207,-0.0046 c 4.756078,-0.00258 8.526659,-0.018122 8.683604,-0.035688 z"
   id="path8723" /></svg>
