<?xml version="1.0" encoding="UTF-8" standalone="no"?>
<!-- Generator: Adobe Illustrator 16.0.0, SVG Export Plug-In . SVG Version: 6.00 Build 0)  -->

<svg
   version="1.1"
   x="0px"
   y="0px"
   width="68.375px"
   height="32px"
   viewBox="0 0 68.375 32"
   enable-background="new 0 0 68.375 32"
   xml:space="preserve"
   id="svg8459"
   sodipodi:docname="p90.svg"
   inkscape:version="1.1.1 (3bf5ae0d25, 2021-09-20)"
   xmlns:inkscape="http://www.inkscape.org/namespaces/inkscape"
   xmlns:sodipodi="http://sodipodi.sourceforge.net/DTD/sodipodi-0.dtd"
   xmlns="http://www.w3.org/2000/svg"
   xmlns:svg="http://www.w3.org/2000/svg"><defs
   id="defs8463" /><sodipodi:namedview
   id="namedview8461"
   pagecolor="#505050"
   bordercolor="#eeeeee"
   borderopacity="1"
   inkscape:pageshadow="0"
   inkscape:pageopacity="0"
   inkscape:pagecheckerboard="0"
   showgrid="false"
   inkscape:zoom="5.765441"
   inkscape:cx="47.611275"
   inkscape:cy="25.323301"
   inkscape:window-width="1440"
   inkscape:window-height="848"
   inkscape:window-x="1358"
   inkscape:window-y="-8"
   inkscape:window-maximized="1"
   inkscape:current-layer="svg8459" />

<g
   id="guides">
</g>
<path
   style="fill:#ffffff;stroke-width:0.035521"
   d="m 49.292913,30.053487 c 1.150235,-0.08975 2.086218,-0.298639 2.681638,-0.598488 0.292004,-0.14705 1.07851,-0.672155 1.651943,-1.102909 0.684312,-0.514041 1.225531,-1.119038 1.405477,-1.571086 0.04451,-0.111827 0.14054,-0.332159 0.213399,-0.489626 0.333746,-0.721358 0.71731,-2.240436 0.797706,-3.159248 0.01369,-0.156292 0.04502,-0.308145 0.06966,-0.33745 0.02463,-0.02931 0.05243,-0.137413 0.06175,-0.240239 0.02383,-0.262952 0.240054,-0.690861 0.398581,-0.788839 0.245205,-0.151544 0.559358,-0.184246 1.653411,-0.172109 1.177723,0.01307 1.213097,0.02109 1.346214,0.305777 0.130432,0.278935 0.139579,0.469712 0.04633,0.966452 -0.129208,0.688327 -0.07661,1.162436 0.157751,1.421841 0.274761,0.304132 0.754496,0.378298 2.037339,0.314971 0.45911,-0.02266 0.845738,-0.05108 0.859173,-0.06314 0.02178,-0.01958 0.81032,-5.082128 0.81032,-5.202518 0,-0.05126 -0.30001,-0.198424 -0.559456,-0.274445 -0.129027,-0.0378 -0.150964,-0.05806 -0.150964,-0.139391 0,-0.05233 -0.02387,-0.253607 -0.05307,-0.44727 -0.09964,-0.661074 -0.05806,-1.022413 0.125645,-1.091752 0.05701,-0.02151 0.1207,-0.0827 0.143582,-0.137936 0.05197,-0.125489 0.0883,-0.125211 0.153648,0.0011 0.02857,0.05524 0.122267,0.158066 0.208227,0.228504 l 0.156286,0.128066 0.113212,-0.113059 c 0.11309,-0.112946 0.113315,-0.112997 0.221817,-0.05089 0.09578,0.05482 0.216292,0.06208 1.020398,0.06148 1.498801,-0.0012 2.536438,-0.07943 2.676278,-0.201989 0.10474,-0.09179 0.150941,-0.510654 0.152009,-1.378023 0.0013,-1.002545 -0.03883,-1.227381 -0.282232,-1.583792 -0.08789,-0.128694 -0.203826,-0.256571 -0.257648,-0.284169 -0.07912,-0.04057 -0.407669,-0.0522 -1.715867,-0.06071 l -1.618016,-0.01052 -0.158038,0.125623 c -0.181893,0.144582 -0.263926,0.153275 -0.542369,0.05748 l -0.200079,-0.06884 -0.08688,0.11101 c -0.0705,0.09009 -0.09653,0.103001 -0.138082,0.06851 -0.0428,-0.03552 -0.05501,-0.341177 -0.07441,-1.86263 -0.01276,-1.001072 -0.03795,-1.948009 -0.05598,-2.104302 -0.01802,-0.156292 -0.04961,-0.6917747 -0.07018,-1.189958 C 62.407686,7.0904619 62.273391,5.7969184 62.058448,4.948326 61.938276,4.4738897 61.848522,4.347407 61.500006,4.1613907 61.395624,4.1056771 61.187827,3.9555468 61.038231,3.827768 L 60.766246,3.595442 60.215669,3.592106 C 59.912848,3.590256 59.568154,3.577061 59.449675,3.562744 L 59.234262,3.536711 59.103437,3.6815178 c -0.128654,0.1424034 -0.134839,0.144807 -0.372645,0.144807 -0.240014,0 -0.244467,-0.00178 -0.596154,-0.2403679 C 57.939754,3.4537538 57.63298,3.2315728 57.452915,3.0922212 57.272857,2.952869 57.056366,2.810248 56.971838,2.7752856 l -0.153695,-0.06357 -0.03961,-0.2685618 c -0.02178,-0.1477099 -0.07513,-0.4004344 -0.11854,-0.5616122 l -0.07892,-0.2930492 -4.159129,2.22e-5 -4.159133,2.31e-5 -0.195363,0.1544397 c -0.107454,0.084942 -0.467141,0.4175394 -0.799303,0.7391053 -0.702474,0.680054 -0.847038,0.7758594 -1.707295,1.1314333 -0.330828,0.1367421 -0.668088,0.2796609 -0.749468,0.3175971 l -0.147959,0.068976 -0.131526,-0.1909727 -0.13153,-0.190973 -0.981513,-0.016548 c -0.539826,-0.0091 -1.020576,-0.022202 -1.068322,-0.029114 -0.08264,-0.011961 -0.164577,0.1520334 -1.702009,3.4063419 l -1.615189,3.4189097 h -8.968747 -8.968744 l -0.11678,-0.08907 -0.11678,-0.08907 -9.068208,7.6e-4 -9.0682085,7.61e-4 -0.1003226,-0.07417 c -0.092647,-0.06849 -0.1389239,-0.0733 -0.6044351,-0.06271 -0.4998937,0.01137 -0.5065007,0.01259 -0.7881492,0.146397 -0.32156003,0.152763 -0.46398723,0.271112 -0.54293689,0.451169 -0.11066519,0.25235 -0.0967542,1.67195 0.0470204,4.795356 0.0910672,1.97908 0.10318468,3.384908 0.0383783,4.457902 -0.12436244,2.059934 -0.24189484,4.812329 -0.22524256,5.27489 0.0191427,0.531671 0.1466739,1.194983 0.29149858,1.516036 0.0677428,0.150078 0.11795057,0.204035 0.27258827,0.292716 l 0.1895962,0.108723 8.3559515,2.57e-4 8.3559516,2.58e-4 0.142873,-0.284169 0.142883,-0.284169 h 0.564551 0.564561 l 0.669409,0.243446 c 0.679231,0.247021 1.939517,0.67101 2.747385,0.924283 0.244218,0.07656 0.85644,0.284817 1.360525,0.462789 0.799439,0.282257 2.345509,0.776493 2.783689,0.889872 0.134079,0.03469 0.161717,0.06261 0.292335,0.295253 0.188322,0.335412 0.263743,0.417529 0.511338,0.556726 l 0.20581,0.115704 0.540134,-0.03926 c 0.297075,-0.0216 1.307391,-0.07111 2.245149,-0.110031 3.318944,-0.137763 4.088964,-0.201039 4.542997,-0.373319 0.68291,-0.259097 2.004308,-0.872822 2.809881,-1.305026 1.375777,-0.738132 2.466978,-1.44626 2.972891,-1.929245 0.37642,-0.35936 1.004478,-0.853011 1.219237,-0.958316 0.23535,-0.115401 0.610315,-0.183837 1.153801,-0.210582 0.24421,-0.01202 0.621737,-0.05527 0.838949,-0.09611 0.480846,-0.09042 0.582484,-0.0752 0.859507,0.128736 0.464271,0.341778 0.518865,0.557109 0.358053,1.412316 -0.05401,0.287244 -0.155889,0.700706 -0.226398,0.918806 -0.162445,0.502496 -0.289052,1.024051 -0.320996,1.322348 -0.03473,0.324272 0.04111,0.537195 0.285284,0.800928 0.104026,0.112362 0.273941,0.250449 0.377587,0.306859 0.17223,0.09374 0.231304,0.10486 0.686606,0.129235 0.475279,0.02544 2.650546,0.03147 2.949116,0.0082 z m 0.107368,-2.325467 c -0.199734,-0.05545 -0.39366,-0.260004 -0.425573,-0.448891 -0.07443,-0.440569 0.149691,-0.757426 0.573175,-0.810337 0.281171,-0.03514 0.492506,0.008 0.629803,0.128556 0.30212,0.265265 0.244276,0.94479 -0.09465,1.111871 -0.134594,0.06635 -0.477474,0.07579 -0.682758,0.0188 z m 0.643793,-0.204044 c 0.136191,-0.08593 0.205169,-0.273395 0.180649,-0.490943 -0.03213,-0.285167 -0.260397,-0.429906 -0.604474,-0.383308 -0.240411,0.03256 -0.367418,0.09997 -0.453097,0.240492 -0.133023,0.218164 -0.0619,0.504595 0.153004,0.616142 0.06316,0.03278 0.226735,0.06603 0.363491,0.07388 0.203281,0.01166 0.269043,0.0014 0.360427,-0.05626 z M 28.59835,27.424644 c -0.183536,-0.07343 -0.278749,-0.25904 -0.279889,-0.545587 -0.0017,-0.386574 0.233145,-0.603357 0.653066,-0.603251 0.41959,1.07e-4 0.595661,0.177247 0.595661,0.599276 0,0.437503 -0.163374,0.608024 -0.582768,0.608256 -0.13994,7.1e-5 -0.300005,-0.02425 -0.38607,-0.05869 z m 0.690513,-0.156205 c 0.19456,-0.15304 0.206573,-0.56634 0.02182,-0.751084 -0.08535,-0.08535 -0.127876,-0.09952 -0.298758,-0.09952 -0.378086,0 -0.55217,0.137432 -0.55217,0.435921 0,0.337664 0.161849,0.487629 0.526263,0.487629 0.158144,0 0.233032,-0.01804 0.302837,-0.07295 z m 7.244796,-0.482126 c -0.181628,-0.135607 -0.238424,-0.248872 -0.252853,-0.504251 -0.02509,-0.44396 0.171178,-0.685706 0.575093,-0.708361 0.368323,-0.02066 0.585611,0.149686 0.617763,0.484302 0.03761,0.391332 -0.07587,0.659583 -0.327217,0.773597 -0.153463,0.06961 -0.492449,0.04456 -0.612786,-0.04529 z m 0.581864,-0.106091 c 0.151076,-0.07451 0.224527,-0.241693 0.224527,-0.511073 0,-0.203052 -0.0094,-0.229592 -0.120773,-0.340964 -0.102716,-0.102715 -0.145463,-0.120771 -0.285931,-0.120771 -0.321922,0 -0.516928,0.179434 -0.516714,0.475445 2.59e-4,0.409107 0.359502,0.664733 0.698891,0.497363 z M 3.6304827,25.956062 v -0.213127 h 1.7938188 1.7938188 v 0.213127 0.213127 H 5.4243015 3.6304827 Z m 3.4455542,0 c 0,-0.07002 -0.023696,-0.07104 -1.6517354,-0.07104 -1.6280487,0 -1.6517261,0.001 -1.6517261,0.07104 0,0.07003 0.023696,0.07104 1.6517261,0.07104 1.6280487,0 1.6517354,-10e-4 1.6517354,-0.07104 z M 7.502287,25.758998 C 7.2699078,25.641673 7.1337623,25.382757 7.1544011,25.097381 c 0.025555,-0.353071 0.1893547,-0.495096 0.5996216,-0.519875 0.4236946,-0.02559 0.6401836,0.16771 0.6438449,0.57487 0.00186,0.214427 -0.057893,0.346996 -0.2321563,0.514459 -0.1832866,0.176129 -0.4293909,0.210317 -0.6634243,0.09216 z m 0.4878413,-0.108091 c 0.1624898,-0.08257 0.3110315,-0.390153 0.2767234,-0.573022 -0.054455,-0.290457 -0.1912132,-0.380444 -0.5439126,-0.357986 -0.2052636,0.01307 -0.2409842,0.02691 -0.3319027,0.128669 -0.3285109,0.367674 0.1619137,1.024489 0.5990919,0.802339 z m 9.4307857,-0.779935 c -0.27046,-0.113005 -0.391143,-0.293044 -0.422189,-0.629806 -0.04665,-0.505677 0.154396,-0.778009 0.620994,-0.841328 0.349187,-0.04738 0.572283,0.04706 0.710166,0.300631 0.04182,0.0769 0.05817,0.200508 0.05882,0.444014 6.69e-4,0.294845 -0.01041,0.357635 -0.08819,0.497297 -0.05464,0.09808 -0.136954,0.183843 -0.213126,0.221953 -0.155743,0.07792 -0.488659,0.08154 -0.666481,0.0072 z m 0.666528,-0.188059 c 0.129167,-0.129166 0.190219,-0.356853 0.168632,-0.628837 -0.0315,-0.396453 -0.168846,-0.534085 -0.526359,-0.527379 -0.229285,0.0043 -0.39039,0.07985 -0.508675,0.238539 -0.104811,0.140608 -0.107468,0.591561 -0.0046,0.761855 0.09625,0.159192 0.311087,0.256773 0.565295,0.256773 0.177488,0 0.21804,-0.01339 0.305595,-0.100951 z M 30.345595,24.4288 C 29.994371,24.329276 29.565426,24.120861 29.176785,23.860907 28.61307,23.483841 28.406381,23.210154 28.299988,22.699895 28.191579,22.179959 28.09722,21.311512 28.09205,20.786114 l -0.0053,-0.53444 0.139182,-0.282546 c 0.111047,-0.225427 0.207992,-0.351401 0.479536,-0.623132 0.292841,-0.29304 0.389469,-0.36494 0.692196,-0.515057 l 0.351846,-0.174472 2.596411,-0.0099 c 1.566361,-0.0059 2.68575,0.0038 2.821603,0.02478 0.627436,0.09668 1.178104,0.580239 1.583915,1.390885 0.157837,0.315295 0.162316,0.333356 0.162316,0.654343 0,0.452287 -0.08188,0.700936 -0.363227,1.103065 -0.122581,0.1752 -0.270825,0.387258 -0.329436,0.471241 -0.09523,0.136454 -0.180236,0.18883 -0.799226,0.492421 -2.127189,1.043311 -3.474632,1.622448 -3.991319,1.715488 -0.268745,0.0484 -0.784697,0.01512 -1.084993,-0.06997 z m 18.588872,-0.297614 c -0.224699,-0.06006 -0.509368,-0.201424 -0.726348,-0.360701 l -0.165546,-0.121524 -1.956153,-0.0098 -1.956148,-0.0098 -0.09308,-0.08747 -0.09308,-0.08747 0.0047,-0.583187 c 0.0043,-0.530592 -0.0017,-0.591802 -0.06593,-0.678713 -0.148852,-0.201333 -0.336209,-0.630583 -0.521163,-1.194019 -0.182105,-0.554762 -0.190478,-0.596161 -0.159533,-0.788897 0.03998,-0.249014 0.115061,-0.427556 0.287185,-0.682943 0.268894,-0.39897 0.93586,-0.964718 1.296297,-1.099574 0.105929,-0.03963 0.340199,-0.08905 0.520593,-0.109813 0.423498,-0.04875 1.838343,-0.04709 2.22837,0.0026 0.16606,0.02116 0.493743,0.05189 0.728185,0.06829 0.471758,0.03301 0.710008,0.09616 1.307348,0.346541 0.353726,0.148269 0.394793,0.175757 0.524121,0.350823 0.199185,0.269625 0.285925,0.345507 0.726054,0.635159 0.24891,0.163812 0.479001,0.351611 0.633922,0.517405 l 0.243195,0.260261 0.103896,0.499864 c 0.251261,1.208799 0.131467,2.073898 -0.356549,2.574927 -0.212411,0.218071 -0.551553,0.440668 -0.794172,0.521254 -0.367508,0.122066 -1.320531,0.142452 -1.716151,0.03671 z m 1.295199,-0.0923 c 0.504125,-0.05765 1.048729,-0.418703 1.276674,-0.846376 0.268243,-0.503272 0.313283,-1.307803 0.127384,-2.275447 -0.05894,-0.306798 -0.05907,-0.307034 -0.311859,-0.566435 -0.13909,-0.14273 -0.405788,-0.36197 -0.592656,-0.4872 -0.30935,-0.207309 -0.615512,-0.488303 -0.797908,-0.732328 -0.04861,-0.06504 -0.207003,-0.148861 -0.517605,-0.273934 -0.630072,-0.253713 -0.957804,-0.33907 -1.164202,-0.303206 -0.182898,0.03178 -0.211946,0.03174 -0.340099,-3.97e-4 -0.06958,-0.01746 -0.118807,0.0041 -0.223147,0.09759 -0.145019,0.129987 -0.330621,0.236237 -0.412664,0.236237 -0.0283,0 -0.195009,0.07187 -0.370489,0.159719 -0.550709,0.275685 -0.654166,0.458688 -0.725924,1.284099 -0.03203,0.368541 -0.03074,0.555744 0.0061,0.888029 0.02568,0.231574 0.05411,0.57937 0.06314,0.772882 0.01385,0.296801 0.0075,0.356811 -0.04036,0.383617 -0.08246,0.04615 -0.08582,1.093883 -0.0035,1.093883 0.0444,0 0.05328,-0.07104 0.05328,-0.426254 v -0.426254 h 0.102211 c 0.05622,0 0.120128,0.02158 0.142019,0.04796 0.02476,0.02984 0.157274,0.05641 0.350678,0.07034 0.452188,0.03255 0.697905,0.105635 0.825021,0.245377 0.05797,0.06373 0.105864,0.133409 0.106436,0.154857 0.002,0.06887 0.406743,0.428558 0.692226,0.614921 0.152283,0.09941 0.35877,0.205178 0.458869,0.235036 0.219185,0.06538 0.93384,0.09478 1.296346,0.05332 z m -0.990035,-0.371521 c -0.166058,-0.02729 -0.349882,-0.06126 -0.408493,-0.07547 -0.302254,-0.07326 -0.623105,-0.330771 -0.797778,-0.64028 -0.109007,-0.193151 -0.311075,-0.371643 -0.524293,-0.463124 -0.06289,-0.02699 -0.274741,-0.0673 -0.470774,-0.08959 l -0.356416,-0.04053 -0.05153,-0.173511 c -0.08288,-0.279089 -0.134078,-0.992836 -0.120604,-1.681291 0.0117,-0.597647 0.01832,-0.650974 0.101322,-0.816986 0.137694,-0.275388 0.430105,-0.44055 1.168966,-0.660273 0.192232,-0.05717 0.359804,-0.07876 0.62162,-0.08012 0.335452,-0.0018 0.38457,0.0077 0.765793,0.14789 0.402499,0.147972 0.538349,0.219535 0.41674,0.219535 -0.08781,0 -0.074,0.05395 0.0315,0.123076 0.102922,0.06744 0.122552,0.06024 0.130704,-0.04802 0.0077,-0.10218 0.01643,-0.09587 0.08055,0.05814 0.09351,0.224661 0.644062,0.730988 0.975629,0.897251 0.303584,0.152232 0.415022,0.266913 0.492432,0.506773 0.118316,0.366594 0.154009,0.617472 0.153285,1.07734 -6.62e-4,0.512855 -0.05089,0.724817 -0.261971,1.108904 -0.191721,0.348845 -0.490393,0.564716 -0.890624,0.643707 -0.237536,0.04688 -0.727013,0.04066 -1.056055,-0.01343 z m -3.530972,-0.748354 c -3.4e-5,-0.312584 -0.0055,-0.435707 -0.01207,-0.273602 -0.0066,0.162105 -0.0065,0.417857 0,0.568339 0.0067,0.150481 0.01203,0.01785 0.012,-0.294737 z m -0.411875,0 c 0,-0.34337 -0.01335,-0.550577 -0.03552,-0.550577 -0.02214,0 -0.03552,0.207207 -0.03552,0.550577 0,0.343372 0.01335,0.550579 0.03552,0.550579 0.02215,0 0.03552,-0.207207 0.03552,-0.550579 z m -0.582715,0 c -3.7e-5,-0.312584 -0.0055,-0.435707 -0.01207,-0.273602 -0.0066,0.162105 -0.0065,0.417857 0,0.568339 0.0067,0.150481 0.01203,0.01785 0.012,-0.294737 z m -0.46442,0.465745 c -0.115424,-0.115427 -0.149853,-0.317017 -0.07939,-0.464795 0.03028,-0.06352 0.06618,-0.189609 0.07977,-0.280219 0.01934,-0.129027 0.03923,-0.164745 0.09172,-0.164745 0.03685,0 0.06701,-0.02398 0.06701,-0.05328 0,-0.03186 -0.03273,-0.05328 -0.08142,-0.05328 -0.09162,0 -0.223085,-0.203069 -0.523248,-0.80826 -0.227331,-0.45834 -0.326447,-0.826423 -0.332149,-1.233479 -0.0039,-0.278663 0.0075,-0.344682 0.08763,-0.506634 0.05066,-0.102419 0.07272,-0.170121 0.04903,-0.150449 -0.05498,0.04563 -0.232765,0.440337 -0.267294,0.593426 -0.05547,0.245935 0.369815,1.353273 0.716355,1.865228 0.146144,0.215902 0.172084,0.311211 0.0847,0.311211 -0.04472,0 -0.05327,0.07682 -0.05327,0.478285 0,0.436513 0.0059,0.481498 0.06871,0.515058 0.13192,0.0706 0.183539,0.0436 0.09188,-0.04806 z m 3.405027,-0.137174 c -0.138922,-0.235247 -0.188845,-0.267496 -0.50354,-0.325252 -0.170049,-0.03121 -0.378166,-0.05671 -0.462479,-0.05667 -0.08431,3.5e-5 -0.18422,-0.01648 -0.222008,-0.0367 -0.06491,-0.03474 -0.06871,-0.02293 -0.06871,0.213126 v 0.249898 h 0.641479 c 0.503487,0 0.635835,-0.0096 0.615258,-0.0444 z m -1.647468,-0.346331 c 0,-0.357967 -0.0059,-0.394793 -0.06216,-0.383971 -0.05448,0.01049 -0.06216,0.05793 -0.06216,0.383971 0,0.326043 0.0077,0.373479 0.06216,0.38397 0.0562,0.01083 0.06216,-0.026 0.06216,-0.38397 z m -0.461775,0 c 0,-0.301534 -0.01064,-0.393103 -0.0444,-0.381852 -0.06289,0.02096 -0.06289,0.742738 0,0.763704 0.03376,0.01125 0.0444,-0.08032 0.0444,-0.381852 z m -0.477962,0.346158 c 0.01045,-0.02726 0.01438,-0.200211 0.0087,-0.384344 -0.01018,-0.330678 -0.01137,-0.334786 -0.0991,-0.334786 h -0.0888 v 0.372972 c 0,0.359962 0.0026,0.373369 0.08008,0.384344 0.04457,0.0063 0.08851,-0.01061 0.0991,-0.03818 z m -0.516628,-0.329782 c 0,-0.367498 -0.0013,-0.37319 -0.06818,-0.31081 -0.05838,0.05442 -0.130088,0.209872 -0.20378,0.441772 -0.02859,0.09002 0.08939,0.243395 0.187239,0.243395 0.08392,0 0.08472,-0.0035 0.08472,-0.374357 z m 1.54696,-0.860004 c -0.06055,-0.554805 -0.0963,-1.358476 -0.07544,-1.696134 0.04217,-0.682349 0.154845,-1.023403 0.399878,-1.210302 0.176881,-0.134919 0.634847,-0.364215 0.782909,-0.391991 0.29688,-0.05569 0.05001,-0.08487 -0.709532,-0.08387 -0.928055,0.0013 -1.282168,0.03516 -1.508037,0.144507 -0.476472,0.230656 -1.109941,0.751526 -1.25561,1.032426 -0.117962,0.227469 -0.147526,0.439715 -0.102567,0.736308 0.05217,0.344181 0.119486,0.513184 0.450733,1.131601 l 0.271132,0.506177 h 0.882472 0.882472 z m -2.312044,-2.579196 c 0.128389,-0.168329 0.423593,-0.396891 0.825682,-0.639286 0.436625,-0.263218 0.588603,-0.29383 1.662174,-0.334794 l 0.816989,-0.03118 -0.770014,-0.006 c -0.779967,-0.0061 -1.202796,0.02755 -1.47651,0.117557 -0.160484,0.05277 -0.443913,0.256932 -0.768446,0.553541 -0.191113,0.174662 -0.438988,0.459547 -0.399852,0.459547 0.01042,0 0.0599,-0.05371 0.109977,-0.119357 z m 17.96966,4.432227 c 0.01253,-0.148147 0.04796,-0.439864 0.07874,-0.648261 0.05927,-0.40122 0.522733,-2.697176 0.680583,-3.371559 l 0.09354,-0.399613 h 0.188335 0.188339 l -0.0197,0.168726 c -0.08171,0.699618 -0.159655,1.192397 -0.476191,3.010416 -0.115652,0.664246 -0.214925,1.263596 -0.220603,1.331889 -0.01144,0.137677 -0.07181,0.165274 -0.379627,0.173558 l -0.156181,0.0042 z m 0.298467,0.102206 c 0.06601,-0.01272 0.07992,-0.03868 0.07992,-0.149226 0,-0.07361 0.0396,-0.34824 0.08801,-0.610291 0.04841,-0.262053 0.12069,-0.700233 0.16063,-0.973734 0.03994,-0.2735 0.0979,-0.624145 0.128809,-0.779211 0.03091,-0.155063 0.115923,-0.638595 0.18893,-1.074514 0.101101,-0.603673 0.121781,-0.792577 0.08678,-0.792577 -0.05833,0 -0.0794,0.07727 -0.314678,1.154436 -0.247566,1.133371 -0.425607,2.108717 -0.496036,2.717368 -0.06456,0.557958 -0.06325,0.534213 -0.02893,0.52798 0.01465,-0.0027 0.0626,-0.01177 0.106565,-0.02023 z m -0.702083,-3.606968 c -0.213649,-0.108292 -0.300136,-0.26573 -0.300841,-0.547639 -10e-4,-0.362489 0.19891,-0.544477 0.597943,-0.544582 0.411678,-1.07e-4 0.575624,0.176075 0.549251,0.590254 -0.03041,0.477867 -0.428321,0.713855 -0.846353,0.501967 z m 0.484049,-0.130616 c 0.149396,-0.06411 0.226913,-0.210594 0.226913,-0.428789 0,-0.172505 -0.01425,-0.217754 -0.09365,-0.29714 -0.07723,-0.07724 -0.126101,-0.09365 -0.278867,-0.09365 -0.354261,0 -0.515691,0.124615 -0.515381,0.39785 0,0.134717 0.10512,0.325884 0.209661,0.381831 0.102181,0.05469 0.363112,0.07775 0.451323,0.03989 z M 39.435798,20.378384 C 39.219823,20.264342 39.10786,19.91413 39.17898,19.575062 c 0.07507,-0.357883 0.182187,-0.44478 0.549384,-0.445667 0.377825,-8.93e-4 0.567298,0.183266 0.589311,0.572842 0.0163,0.288176 -0.03025,0.452922 -0.164157,0.581217 -0.154585,0.1481 -0.524397,0.197013 -0.71772,0.09493 z m 0.501658,-0.125658 c 0.188418,-0.08064 0.256937,-0.230977 0.238349,-0.52293 -0.01749,-0.27478 -0.100968,-0.394407 -0.315511,-0.452177 -0.177745,-0.04787 -0.32893,-0.01125 -0.442324,0.107106 -0.177265,0.185023 -0.153454,0.647525 0.04247,0.824827 0.09703,0.08781 0.324605,0.10841 0.477024,0.04317 z m 14.837009,0.04934 c -0.535288,-0.160377 -0.565156,-1.101561 -0.04045,-1.274728 0.161893,-0.05343 0.477133,-0.05245 0.582322,0.0019 0.126052,0.06503 0.280005,0.215998 0.342639,0.335994 0.06311,0.120905 0.06926,0.425975 0.01207,0.599228 -0.102836,0.311591 -0.493098,0.458574 -0.896595,0.337683 z m 0.491937,-0.172954 c 0.328589,-0.100899 0.429331,-0.608966 0.169208,-0.853339 -0.08246,-0.07747 -0.123186,-0.08649 -0.39045,-0.08649 -0.287475,0 -0.302483,0.0041 -0.410528,0.112144 -0.210707,0.210705 -0.170277,0.625195 0.07512,0.770155 0.128382,0.07584 0.404199,0.104343 0.556647,0.05753 z M 56.699074,17.875 c -0.02433,-0.02931 -0.08623,-0.0533 -0.137553,-0.05334 -0.166961,-1.07e-4 -0.889909,-0.212226 -1.101779,-0.323286 -0.2794,-0.146459 -0.447957,-0.165315 -0.655823,-0.07336 l -0.165073,0.07302 v -0.157848 -0.157848 h -5.488017 -5.488015 v -0.710421 -0.710423 h 0.301928 0.301931 v -0.976831 -0.976831 h 1.637369 1.637371 l 0.112043,0.07993 0.112049,0.07992 3.481072,0.01776 3.481071,0.01776 0.287,0.148318 c 0.157853,0.08158 0.36925,0.196817 0.469778,0.25609 0.134736,0.07944 0.261693,0.118269 0.483021,0.147724 0.415775,0.05533 1.507396,0.06368 1.540721,0.01179 0.01412,-0.02197 0.07559,-0.05077 0.136634,-0.06401 0.115259,-0.02499 0.21816,-0.116672 0.301951,-0.269029 0.07763,-0.14114 0.09019,-3.330748 0.01484,-3.767371 -0.06422,-0.372108 -0.162647,-0.6021125 -0.311141,-0.7270622 l -0.106214,-0.089373 -2.744758,0.00244 -2.744757,0.00244 -1.416432,-0.233171 C 49.859256,9.2937606 48.702367,9.1014052 48.067427,8.9945482 47.009459,8.8164981 45.348093,8.5510107 45.290501,8.5507902 c -0.01322,-3.6e-5 -0.02919,0.02034 -0.03553,0.04531 -0.0085,0.033701 -0.585285,-0.07399 -2.237968,-0.4178689 -1.224569,-0.2547993 -2.235569,-0.4723476 -2.24666,-0.4834417 -0.03997,-0.039965 0.595215,-1.3800389 0.928608,-1.9591419 l 0.158484,-0.2752896 h 1.983224 1.98322 l 0.05431,0.1687258 c 0.08255,0.2564753 0.129007,0.5622864 0.129007,0.8492714 v 0.2590061 l -0.09111,-0.034643 c -0.05518,-0.020978 -0.858708,-0.034641 -2.037213,-0.034641 h -1.946097 l -0.119853,0.080767 c -0.345022,0.2325098 -0.380688,0.640361 -0.08032,0.918364 0.05547,0.051339 0.135771,0.1112811 0.178445,0.1332052 0.05447,0.027986 0.636996,0.039861 1.955433,0.039861 h 1.877845 l 0.141767,-0.091923 c 0.163874,-0.10626 0.281628,-0.2672345 0.315816,-0.4317419 0.01887,-0.090895 0.0017,-0.1545399 -0.08253,-0.3019307 -0.102958,-0.1806028 -0.104565,-0.1902693 -0.04879,-0.2933206 0.09455,-0.1746895 0.06673,-0.4477434 -0.09321,-0.9146692 l -0.142946,-0.417372 h 0.604071 0.604071 l 0.201608,0.1890642 c 0.110886,0.1039862 0.273542,0.2303403 0.361459,0.2807888 0.08792,0.050448 0.199803,0.1344729 0.248646,0.1867221 l 0.0888,0.094997 0.01881,1.3381084 0.01878,1.3381093 0.0078,-1.3911866 0.0078,-1.3911856 -0.168726,-0.1486355 c -0.0928,-0.081748 -0.273958,-0.2101331 -0.402575,-0.2852991 -0.12862,-0.075165 -0.256494,-0.1639659 -0.28417,-0.1973365 -0.08225,-0.099171 -0.264741,-0.1562325 -0.499668,-0.1562325 -0.283291,0 -0.854813,0.070591 -0.89868,0.1109992 -0.04254,0.039194 -3.820297,0.041398 -3.820297,0.00221 0,-0.015871 0.04566,-0.1637282 0.101464,-0.3285698 0.08653,-0.255593 0.211519,-0.5231372 0.424413,-0.908496 l 0.04633,-0.083877 h 0.848475 c 0.530062,0 0.856747,0.013395 0.870528,0.035693 0.04392,0.071051 0.441762,0.3195184 0.511619,0.3195184 0.03938,0 0.103795,-0.034546 0.14313,-0.07677 l 0.07153,-0.07677 1.110942,0.203884 c 0.611017,0.1121359 2.310934,0.4423957 3.777589,0.7339107 l 2.666647,0.5300266 h 2.595511 2.59551 l 0.02116,-0.084225 c 0.01494,-0.059544 0.07592,-0.1075681 0.208094,-0.1638786 0.330282,-0.1407159 0.850869,-0.4665619 1.015429,-0.635581 0.150581,-0.1546595 0.318226,-0.4501755 0.278131,-0.4902733 -0.01006,-0.010033 -0.05004,0.043241 -0.0889,0.1183954 -0.142003,0.2746503 -0.543507,0.5912415 -1.183465,0.9331805 l -0.337442,0.1802979 h -2.574993 c -2.920148,0 -2.428672,0.039128 -4.505564,-0.3587071 C 49.902901,5.0903188 49.039738,4.9157952 48.600161,4.8203732 48.160588,4.7249509 47.385342,4.5733379 46.877389,4.4834577 45.592034,4.2560153 45.42348,4.215049 45.41075,4.1270027 c -0.0087,-0.060344 0.02655,-0.080536 0.234058,-0.1339923 0.134381,-0.034618 0.405887,-0.1421984 0.603343,-0.2390674 0.285466,-0.1400445 0.424232,-0.2370113 0.67735,-0.4733227 0.341165,-0.3185061 0.888852,-0.7952024 1.22315,-1.0645975 l 0.205628,-0.1657074 h 3.940216 c 3.928225,0 3.940334,2.571e-4 3.978953,0.072385 0.02132,0.039811 0.06153,0.1876672 0.0894,0.3285695 0.105646,0.5341914 0.04301,0.4668656 1.087588,1.1688952 l 0.935798,0.6289201 0.417371,0.00178 c 0.376939,0.00159 0.417372,-0.00435 0.417372,-0.061367 0,-0.034727 0.02492,-0.098721 0.05538,-0.1422104 0.04388,-0.062651 0.06921,-0.071669 0.121989,-0.043425 0.03712,0.019868 0.335892,0.035648 0.674937,0.035648 h 0.608333 l 0.387236,0.3089346 c 0.472555,0.3770055 0.486082,0.4036896 0.657489,1.2970405 0.06855,0.3572897 0.141261,0.7055625 0.161578,0.7739421 0.02033,0.068378 0.03197,0.2600141 0.02592,0.4258604 -0.0093,0.2537393 -0.02086,0.303419 -0.07318,0.3134145 -0.03419,0.00653 -0.06267,-0.00927 -0.06327,-0.035129 -6.61e-4,-0.025855 -0.04042,-0.1269292 -0.08847,-0.224612 -0.120846,-0.2456631 -0.115834,-0.3019298 0.02691,-0.3019298 h 0.114917 l -0.131645,-0.070557 c -0.156617,-0.083942 -0.248454,-0.060366 -0.470022,0.1206591 -0.07877,0.064359 -0.195996,0.144189 -0.260493,0.1773996 -0.0645,0.03321 -0.126383,0.087519 -0.137524,0.120686 -0.02119,0.06305 -0.307991,0.683147 -0.372919,0.8062486 -0.02059,0.039074 0.04157,-0.00562 0.138167,-0.09933 0.129219,-0.1253418 0.196313,-0.2289334 0.253859,-0.3919294 0.05917,-0.1675953 0.122096,-0.2628452 0.258395,-0.3910821 0.278288,-0.2618355 0.32286,-0.2407924 0.533553,0.2519093 0.318589,0.7450097 0.336668,0.832619 0.401378,1.944716 0.08622,1.4816898 0.123772,2.7295538 0.124816,4.1470928 l 10e-4,1.269881 H 61.74308 61.316826 v 0.63938 0.639382 h -1.562933 -1.562929 v 0.09545 0.09545 l -0.102726,-0.09842 c -0.06863,-0.06574 -0.130541,-0.09387 -0.186488,-0.08471 -0.07922,0.01297 -0.07706,0.01746 0.03962,0.0829 0.340754,0.191067 0.439471,0.400402 0.420807,0.892333 -0.01101,0.290319 -0.0094,0.297332 0.05079,0.222783 0.121972,-0.151031 0.06168,-0.736677 -0.100432,-0.975562 -0.04733,-0.06974 -0.08606,-0.134089 -0.08606,-0.142991 0,-0.0089 0.695327,-0.01618 1.545171,-0.01618 h 1.545171 l 3.3e-4,0.506175 c 0,0.278398 0.01038,0.590096 0.02271,0.692664 l 0.02241,0.186485 h -1.541253 -1.541251 l -0.155439,0.142084 c -0.08549,0.07815 -0.174918,0.142085 -0.198727,0.142085 -0.0238,0 -0.07167,0.03137 -0.106369,0.0697 -0.03469,0.03834 -0.121093,0.08874 -0.191992,0.112023 -0.0709,0.02328 -0.190127,0.07411 -0.264952,0.112969 -0.253271,0.131528 -0.586359,0.170843 -0.663182,0.07827 z m 0.461775,-0.18138 c 0.252193,-0.06761 0.658315,-0.268549 0.831771,-0.411526 0.179807,-0.148209 0.233862,-0.290322 0.233862,-0.614812 0,-0.335776 -0.05819,-0.480364 -0.235694,-0.585658 -0.0755,-0.04479 -0.193224,-0.117716 -0.2616,-0.16206 -0.260961,-0.169233 -0.445266,-0.177397 -2.317756,-0.102675 l -0.488416,0.01949 v 0.69074 0.69074 h 0.102105 0.102108 l -0.07066,-0.142815 c -0.09181,-0.185557 -0.100214,-0.605391 -0.01541,-0.769054 0.148264,-0.286097 0.414939,-0.344124 1.493592,-0.324995 0.875952,0.01554 0.940289,0.03397 1.059607,0.303719 0.05894,0.13325 0.06923,0.215373 0.05642,0.450372 -0.01808,0.331506 -0.08532,0.489205 -0.251895,0.590775 -0.103977,0.06339 -0.182994,0.06935 -0.921828,0.06947 -0.444459,7e-5 -0.808106,0.01345 -0.808106,0.02973 0,0.0331 0.621896,0.172682 0.923551,0.207288 0.10745,0.01232 0.20815,0.04399 0.223773,0.07037 0.0351,0.05926 0.09558,0.05766 0.344566,-0.0091 z m 0.202263,-0.526021 c 0.123294,-0.106119 0.08862,-0.156663 -0.04666,-0.06802 -0.08909,0.05838 -0.18513,0.065 -0.941784,0.065 -0.800047,0 -0.847649,-0.0037 -0.942875,-0.0745 -0.130918,-0.09725 -0.203258,-0.362581 -0.151388,-0.555229 0.06759,-0.250994 0.100922,-0.258304 1.17803,-0.258304 0.770632,0 0.940803,-0.0085 0.891656,-0.0444 -0.04492,-0.03284 -0.301762,-0.04436 -0.986378,-0.04427 -0.865765,1.07e-4 -0.933249,0.0047 -1.043225,0.07182 -0.295241,0.180003 -0.280728,0.706525 0.02515,0.912431 0.117847,0.07933 0.141933,0.08124 1.019252,0.08124 h 0.898558 z m -2.582181,-0.784487 c 0,-0.704502 -0.0023,-0.728183 -0.07104,-0.728183 -0.06874,0 -0.07104,0.02368 -0.07104,0.728183 0,0.704503 0.0023,0.728184 0.07104,0.728184 0.06873,0 0.07104,-0.02368 0.07104,-0.728184 z m 6.393805,0.142086 V 15.97462 h -1.31459 -1.314595 l 0.02694,0.204247 c 0.01481,0.112336 0.02694,0.360104 0.02694,0.550597 v 0.34635 l 1.287643,-1.9e-5 1.287642,-1.9e-5 z m -3.864321,0.40643 c 0.08163,-0.04759 0.139284,-0.265172 0.09861,-0.372144 -0.05265,-0.138495 -0.242874,-0.164728 -1.103478,-0.152174 -0.685675,0.01001 -0.783597,0.01866 -0.839015,0.07414 -0.08206,0.08216 -0.07743,0.323372 0.008,0.417807 0.0597,0.06597 0.112095,0.0699 0.919195,0.06888 0.502611,-6.28e-4 0.880966,-0.01571 0.916644,-0.0365 z m -2.813654,-0.534486 v -0.572071 l -0.150964,0.02183 c -0.08303,0.01201 -2.4887,0.03162 -5.345933,0.04358 l -5.194968,0.02174 v 0.528489 0.528491 h 5.345933 5.345932 z M 53.303296,15.72166 c 0.447415,-0.01588 0.831042,-0.03595 0.85251,-0.04461 0.04624,-0.01865 -2.77683,0.01076 -4.543203,0.04733 -1.191924,0.02467 -1.158202,0.02575 0.816988,0.02595 1.133125,1.07e-4 2.426294,-0.01279 2.873705,-0.02866 z m 4.15948,-0.108606 c -0.15047,-0.06786 -0.240017,-0.08028 -0.586097,-0.08127 -0.224673,-6.28e-4 -0.456449,0.0145 -0.515057,0.03365 -0.08232,0.0269 0.03081,0.03991 0.497295,0.0572 0.332123,0.0123 0.643819,0.0332 0.692662,0.04645 0.04884,0.01324 0.0089,-0.01196 -0.0888,-0.05602 z m -1.855977,0.01618 c -0.0635,-0.0079 -0.167394,-0.0079 -0.230888,0 -0.0635,0.0079 -0.01154,0.01433 0.115441,0.01433 0.12699,0 0.17894,-0.0064 0.115447,-0.01433 z m 5.567937,-0.649205 v -0.639382 h 0.431388 0.431388 l -0.02248,-1.713894 c -0.01237,-0.942643 -0.03921,-1.921694 -0.05967,-2.17567 -0.02043,-0.253976 -0.05903,-0.9093422 -0.08573,-1.4563678 L 61.82107,8.0001251 61.644295,7.5205892 C 61.547068,7.2568452 61.446778,6.9965363 61.421423,6.9421265 L 61.375332,6.8431997 61.222402,6.99329 C 61.111745,7.1018895 61.048337,7.2068867 60.993021,7.3731097 60.92381,7.5810962 60.880884,7.6379032 60.539482,7.9733214 60.332082,8.1770869 60.103257,8.3742846 60.030983,8.4115362 59.79161,8.5349207 59.45954,8.568092 58.914397,8.5230745 58.221669,8.4658704 58.081045,8.417797 57.817018,8.1479252 57.571037,7.8965004 57.297349,7.496151 57.231264,7.2910916 c -0.08354,-0.2592134 -0.03065,-0.9982566 0.09256,-1.2931143 0.02757,-0.066021 0.05015,-0.1260764 0.05015,-0.1334598 0,-0.00738 -1.106275,-0.013421 -2.458389,-0.013421 H 52.4572 L 51.301312,5.6217953 C 50.0952,5.3825292 49.364049,5.2446698 46.966283,4.8044127 46.17505,4.6591335 45.401126,4.5157733 45.246453,4.4858357 c -0.16821,-0.032558 -0.296679,-0.041668 -0.31969,-0.022667 -0.02116,0.017471 -0.09632,0.042578 -0.167037,0.055791 -0.1498,0.02799 -0.371495,-0.067089 -0.548769,-0.2353484 l -0.109001,-0.103459 -0.756731,0.00961 -0.756734,0.00961 -0.152002,0.2796261 c -0.0836,0.1537958 -0.179946,0.3695861 -0.214107,0.4795359 -0.03416,0.1099499 -0.06942,0.2198894 -0.07834,0.2443101 -0.02086,0.057003 3.419473,0.065845 3.45468,0.00888 0.01206,-0.019537 0.08895,-0.036866 0.170822,-0.03851 0.08188,-0.00165 0.340681,-0.030317 0.575122,-0.063714 l 0.426254,-0.060726 0.218898,0.096355 c 0.251971,0.1109144 0.910921,0.5452028 1.0421,0.6868112 l 0.08881,0.095861 0.01775,1.4797436 0.01775,1.4797425 0.92355,0.1510907 c 0.507952,0.083101 1.339145,0.2190818 1.847098,0.3021817 l 0.92355,0.1510909 2.901278,0.017947 c 2.860727,0.017696 2.902655,0.018972 2.999345,0.091184 0.27802,0.2076393 0.364221,0.512039 0.393573,1.389886 l 0.02161,0.646136 0.09534,-0.13108 c 0.370529,-0.509413 0.843269,-0.674883 1.812001,-0.634237 0.557172,0.02338 0.787339,0.08574 1.062867,0.287998 0.478571,0.351306 0.687866,0.927211 0.558657,1.537226 -0.09609,0.453664 -0.386086,0.82116 -0.804437,1.019422 -0.230338,0.109163 -0.23297,0.109503 -0.935043,0.121047 -0.631602,0.01038 -0.729072,0.004 -0.94711,-0.06225 -0.280579,-0.08522 -0.553069,-0.282749 -0.72284,-0.523985 l -0.112475,-0.159822 -0.02416,0.551909 c -0.03226,0.736219 -0.07174,0.831875 -0.409477,0.991851 -0.214243,0.101478 -0.282997,0.115742 -0.61422,0.127433 -0.205133,0.0072 -0.628058,-0.0072 -0.939834,-0.03195 l -0.566864,-0.04511 -0.232362,-0.15968 c -0.127797,-0.08782 -0.343802,-0.213312 -0.480009,-0.278864 l -0.247648,-0.119181 h -3.457314 -3.457317 l -0.130686,-0.0888 -0.130687,-0.0888 h -1.536923 -1.536925 v 0.840427 0.840427 l 1.909263,-0.02424 c 1.050094,-0.01333 3.39582,-0.03901 5.212727,-0.05708 4.07881,-0.04055 4.478344,-0.05314 4.749495,-0.149626 0.172835,-0.0615 0.26464,-0.06985 0.621618,-0.05655 0.392195,0.01462 0.436466,0.02389 0.696091,0.14587 l 0.277256,0.130261 h 1.649766 1.649764 z m -2.237833,-1.434377 c 0,-0.0083 -0.05499,-0.04742 -0.122197,-0.08707 -0.438816,-0.258907 -0.659496,-1.125233 -0.411447,-1.615223 0.118907,-0.23489 0.370482,-0.460205 0.616698,-0.552325 0.180845,-0.06766 0.276133,-0.07624 0.846588,-0.07624 0.388079,0 0.700745,0.01663 0.789016,0.04196 0.343243,0.0985 0.680083,0.424176 0.797903,0.771447 0.11277,0.332391 0.0038,0.911758 -0.221006,1.175524 l -0.07548,0.08855 0.08453,-0.07079 c 0.226028,-0.189283 0.378876,-0.607523 0.350628,-0.959435 -0.02661,-0.33158 -0.170868,-0.617129 -0.437989,-0.867007 -0.318576,-0.298015 -0.507249,-0.363053 -1.116087,-0.384731 -0.5503,-0.01959 -0.889394,0.02262 -1.124371,0.139971 -0.232151,0.115943 -0.536277,0.428231 -0.647006,0.664377 -0.08144,0.173679 -0.09348,0.245124 -0.09348,0.554573 0,0.310097 0.01183,0.380024 0.09324,0.550578 0.105923,0.221947 0.340648,0.472154 0.537261,0.572703 0.07326,0.03747 0.133206,0.06139 0.133206,0.05314 z m 1.673676,-0.07103 c 0.469153,-0.167652 0.742714,-0.578705 0.740982,-1.113391 -10e-4,-0.29439 -0.08526,-0.499152 -0.293006,-0.711647 -0.2461,-0.251724 -0.410763,-0.29271 -1.176,-0.29271 h -0.650136 l -0.221057,0.110463 c -0.243141,0.1215 -0.463659,0.362295 -0.537959,0.587431 -0.02694,0.08165 -0.03626,0.240061 -0.02486,0.422835 0.01488,0.238537 0.03892,0.331073 0.130756,0.503378 0.119926,0.225008 0.350734,0.429342 0.567148,0.502093 0.171233,0.05756 1.297593,0.05106 1.464127,-0.0085 z M 47.818786,7.5037479 c 0,-1.3676936 0.0053,-1.3210623 -0.159843,-1.4129696 -0.02311,-0.012859 -0.03552,0.2056846 -0.03552,0.6250967 0,0.6369931 -0.0013,0.6473857 -0.101183,0.8509266 -0.153067,0.3117243 -0.396453,0.447548 -0.716089,0.3996148 -0.170919,-0.02563 -0.342775,-0.1462728 -0.4429,-0.3109204 l -0.06022,-0.099009 -0.08575,0.1314469 c -0.04716,0.072295 -0.141694,0.1641216 -0.210074,0.2040588 -0.118997,0.0695 -0.18978,0.073151 -1.651732,0.085217 l -1.527412,0.012604 0.959073,0.2075983 c 1.111304,0.2405491 1.332042,0.2753637 1.332042,0.2100852 0,-0.062737 0.409405,-0.024588 0.945669,0.08812 0.232044,0.048769 0.64568,0.1204085 0.919192,0.1591987 0.273512,0.03879 0.573221,0.085115 0.666021,0.1029442 l 0.168726,0.032416 z M 59.558525,8.3508662 C 59.964571,8.2709065 60.0038,8.256621 60.106897,8.1511736 60.213997,8.0416291 60.26078,7.9362243 60.1682,8.0130607 60.09043,8.0776069 59.823787,8.1604208 59.58475,8.1942734 59.33427,8.229745 58.573198,8.1833147 58.263078,8.1136363 58.088753,8.0744681 58.051143,8.0481487 57.896986,7.857448 57.644201,7.5447447 57.476569,7.1851258 57.455819,6.911017 c -0.0152,-0.2008076 0.0859,-0.8087527 0.185119,-1.1132031 0.05278,-0.161948 -0.122286,0.095341 -0.200389,0.294505 -0.06723,0.1714539 -0.0799,0.2741499 -0.08193,0.6645659 -0.0023,0.4377362 0.003,0.4724582 0.09837,0.6670027 0.149791,0.3050507 0.556266,0.7063162 0.810879,0.800487 0.278911,0.1031565 1.033565,0.1771175 1.290654,0.1264915 z m 0.304083,-0.3790389 c 0.372985,-0.1061558 0.419058,-0.1613799 0.694712,-0.8327489 0.131368,-0.3199503 0.140971,-0.3324911 0.380893,-0.4972957 0.135367,-0.092986 0.298969,-0.2065718 0.36356,-0.2524121 0.06813,-0.04835 0.175076,-0.085636 0.254715,-0.088803 L 61.693764,6.2951176 61.648934,5.96992 C 61.586518,5.5171511 61.508022,5.1976172 61.400161,4.957279 61.3211,4.7810963 61.257621,4.7116096 60.952109,4.4668099 l -0.355934,-0.2852051 -0.536588,-5.29e-4 c -0.295124,-2.572e-4 -0.57255,-0.010122 -0.616507,-0.021904 -0.06689,-0.017927 -0.07993,-0.00729 -0.07993,0.065199 0,0.4081048 -0.439477,0.8609192 -1.283084,1.3220241 C 57.85704,5.6682991 57.843,5.6836563 57.809011,5.842928 c -0.0197,0.092384 -0.07941,0.3270975 -0.132673,0.5215862 -0.06829,0.2493798 -0.0923,0.4082773 -0.08145,0.5390554 0.0288,0.3473429 0.439607,1.0176498 0.648748,1.0585619 0.05894,0.011537 0.410873,0.028793 0.782066,0.038362 0.492208,0.012694 0.718758,0.00492 0.836903,-0.028708 z M 58.93169,7.3197292 c -0.262675,-0.1534843 -0.336424,-0.5955035 -0.154981,-0.928873 0.113174,-0.2079391 0.198786,-0.2754824 0.409058,-0.3227286 0.261373,-0.058726 0.467726,0.05147 0.607764,0.3245521 0.18541,0.3615583 0.09054,0.7529772 -0.231856,0.9565551 -0.135741,0.085715 -0.458684,0.070589 -0.629985,-0.029508 z m 0.555791,-0.1493985 c 0.17621,-0.1088436 0.240288,-0.2058323 0.255316,-0.3864456 0.01709,-0.2053409 -0.08642,-0.4084198 -0.271859,-0.5333848 -0.207911,-0.1401139 -0.450459,-0.042015 -0.59848,0.2420552 -0.06313,0.1211531 -0.07767,0.1931323 -0.06264,0.3101634 0.0277,0.2156954 0.07644,0.2881824 0.245404,0.3648981 0.18734,0.085061 0.297828,0.085755 0.432264,0.00271 z M 59.086118,7.093353 c -0.04252,-0.039614 -0.08683,-0.1155406 -0.09847,-0.1687259 -0.01164,-0.053184 -0.02685,-0.1154877 -0.03383,-0.1384511 -0.007,-0.022965 0.0026,-0.097247 0.02139,-0.165073 0.08729,-0.3161502 0.543299,-0.3198811 0.622306,-0.00509 0.04105,0.1635802 -0.0072,0.4165893 -0.09269,0.4858033 -0.107222,0.086827 -0.321068,0.082504 -0.418707,-0.00847 z m 0.362044,-0.126246 c 0.03669,-0.09561 0.02377,-0.318123 -0.02106,-0.3629626 -0.06535,-0.065351 -0.197873,-0.050775 -0.279376,0.03073 -0.05716,0.057163 -0.06802,0.098327 -0.04919,0.1864854 0.01329,0.062222 0.04027,0.13311 0.05995,0.1575316 0.05235,0.064974 0.263521,0.056382 0.28968,-0.011782 z m -12.37532,0.8500505 c 0.0964,-0.038468 0.253843,-0.2052805 0.330206,-0.3498497 0.06402,-0.1211953 0.07702,-0.2178071 0.08842,-0.6571409 0.01689,-0.6504879 -0.01452,-0.7656079 -0.239661,-0.8791485 -0.282524,-0.1424677 -0.650418,-0.089968 -0.812377,0.1159302 -0.07206,0.091607 -0.07695,0.1358118 -0.07623,0.6880856 10e-4,0.6552852 0.03154,0.7796974 0.240685,0.9761001 0.108459,0.1018484 0.34526,0.1553862 0.468955,0.1060232 z M 46.715926,7.618152 C 46.495105,7.4693412 46.45373,7.3482448 46.439912,6.810306 c -0.01534,-0.5974649 0.02089,-0.7338452 0.22104,-0.8315488 0.273247,-0.1334019 0.617545,-0.053458 0.692209,0.1607289 0.0529,0.151758 0.04759,1.1147346 -0.0071,1.2733105 -0.05144,0.149374 -0.240953,0.2853983 -0.397607,0.2853983 -0.0626,0 -0.167267,-0.036018 -0.232596,-0.080043 z m 0.365795,-0.1004085 c 0.137702,-0.080202 0.168726,-0.2197814 0.168726,-0.7590949 0,-0.4694583 -0.0065,-0.5233302 -0.07104,-0.5878629 -0.108577,-0.108575 -0.401091,-0.099435 -0.51667,0.016149 -0.08333,0.083327 -0.08719,0.1069713 -0.08719,0.5339572 0,0.4938991 0.03574,0.6322728 0.195853,0.7582143 0.105559,0.083033 0.211463,0.096219 0.310321,0.038639 z m -5.550176,0.2081167 c 0,-0.00696 -0.03197,-0.075349 -0.07104,-0.1519885 -0.156931,-0.3078138 -0.06407,-0.6870791 0.22528,-0.920174 l 0.136478,-0.1099396 2.021435,-0.00974 2.021428,-0.00974 -6.61e-4,-0.132352 c -3.3e-4,-0.072794 -0.03836,-0.2762143 -0.08434,-0.4520429 l -0.08359,-0.319691 -1.849813,-0.0092 -1.84982,-0.0092 -0.139704,0.2400837 c -0.300322,0.5161074 -0.895257,1.7514563 -0.850112,1.7652161 0.02476,0.00755 0.124927,0.031847 0.222609,0.054004 0.09768,0.022158 0.205578,0.048635 0.23977,0.058836 0.03419,0.010199 0.06216,0.012859 0.06216,0.0059 z m 4.813115,-1.743151 c 0.101744,-0.1580754 0.260292,-0.236961 0.526131,-0.2617853 0.215218,-0.020099 0.22908,-0.026479 0.190759,-0.087835 -0.03696,-0.059175 -0.09146,-0.066162 -0.516108,-0.066162 -0.431768,0 -0.472698,0.00545 -0.451682,0.060224 0.01269,0.033123 0.0487,0.141018 0.07998,0.2397672 0.07508,0.2370666 0.08746,0.2454519 0.170921,0.1157912 z M 57.969639,5.1673139 c 0.481146,-0.2680616 0.820313,-0.509533 0.927893,-0.6606121 l 0.07973,-0.1119729 H 58.66467 58.352071 L 57.349276,3.7287072 56.346478,3.062686 56.26895,2.7252355 C 56.226306,2.5396373 56.169358,2.3438278 56.142403,2.2901009 l -0.04902,-0.097683 H 52.246094 48.3988 l -0.334407,0.2794655 c -0.183926,0.1537068 -0.543418,0.4775091 -0.798867,0.719563 -0.403081,0.3819377 -0.5087,0.4617092 -0.799226,0.6036456 -0.184124,0.089951 -0.411052,0.1920453 -0.504287,0.2268755 -0.09324,0.03483 -0.164755,0.068093 -0.158928,0.073916 0.02116,0.02115 0.706279,0.1618231 1.73153,0.3555213 0.576329,0.1088848 1.322964,0.2605262 1.659186,0.3369808 0.336222,0.076455 1.234572,0.2429415 1.996335,0.3699721 l 1.385023,0.2309637 h 2.497999 2.497999 z M 51.477464,4.6078561 V 4.0395164 h 2.646325 2.646326 v 0.5683384 0.5683385 h -2.646326 -2.646325 z m 5.150566,0 V 4.1816017 h -2.504241 -2.50424 v 0.4262544 0.426254 h 2.50424 2.504241 z M 51.797154,4.5723352 V 4.2526447 h 2.344397 2.344394 V 4.5723352 4.8920245 H 54.141551 51.797154 Z M 56.34386,4.5545734 V 4.3947281 h -2.202309 -2.202312 v 0.1598453 0.1598453 h 2.202312 2.202309 z M 1.7833896,15.01555 v -2.48648 l 0.3996083,-2.57e-4 c 0.8769211,-5.29e-4 3.1643518,-0.157423 4.1562499,-0.285118 0.6309653,-0.08124 0.8670245,-0.12136 1.2518483,-0.212807 0.5081734,-0.12076 1.6222315,-0.229386 3.4277869,-0.334223 1.699601,-0.09868 4.341803,-0.197143 5.299867,-0.197493 0.611135,-2.56e-4 2.366576,-0.116572 3.239325,-0.214698 0.386793,-0.04349 0.822856,-0.158912 1.211323,-0.320633 l 0.252581,-0.105149 1.365617,0.0093 1.365618,0.0093 v 1.193426 c 0,0.959334 -0.0096,1.204938 -0.04879,1.25212 -0.04303,0.05176 -0.155316,0.05869 -0.950193,0.05869 H 21.8528 V 12.54681 11.712064 h -1.935902 -1.935912 v 1.030114 1.030111 h 1.918144 1.918144 v 0.852508 0.852508 h 1.791719 c 1.130961,0 1.799655,-0.01283 1.813222,-0.03478 0.0118,-0.01913 0.03466,-0.152163 0.05074,-0.295619 0.01608,-0.143458 0.04971,-0.299637 0.07471,-0.347066 0.118425,-0.224817 0.404906,-0.482191 0.958417,-0.861058 l 0.372973,-0.255289 -2.459833,-0.0091 -2.459845,-0.0091 v -0.08856 -0.08856 h 0.846321 0.846311 l 0.08614,-0.09162 0.08614,-0.09161 0.01775,-1.213786 0.01775,-1.213785 h 0.159842 0.15985 l -0.01264,0.142084 c -0.0065,0.07815 -0.03494,0.185248 -0.06217,0.238004 -0.06514,0.126106 -0.07322,1.626857 -0.0084,1.626857 0.02249,0 0.128182,0.07193 0.234972,0.159846 l 0.194159,0.159845 h 1.973425 c 2.288102,-1.7e-5 2.103343,-0.03171 2.103343,0.360698 v 0.243144 h 5.132804 5.132808 l 2.57e-4,0.310811 c 2.59e-4,0.388082 0.05231,0.716866 0.143686,0.908888 0.07466,0.156902 0.482465,0.526179 0.652444,0.590804 0.06168,0.02345 0.777713,0.03659 1.994307,0.03659 h 1.89807 v 0.834746 0.834747 h 0.124324 c 0.108935,0 0.124322,0.01099 0.124322,0.0888 v 0.0888 H 22.794509 1.783752 Z m 41.6307754,1.562931 v -0.745945 h -1.835698 c -1.953018,0 -1.994294,-0.0033 -2.176477,-0.173247 -0.04979,-0.04644 -0.149179,-0.12365 -0.220881,-0.171566 -0.28374,-0.189622 -0.407792,-0.500889 -0.442189,-1.109513 l -0.0242,-0.428295 h -5.127475 -5.127479 v -0.280026 c 0,-0.26037 -0.0056,-0.281529 -0.07992,-0.301444 -0.04396,-0.01178 -0.935506,-0.02163 -1.98123,-0.0219 L 24.497319,13.346016 24.240714,13.186324 23.9841,13.026631 v 0.169549 c 0,0.09566 -0.02398,0.203809 -0.05511,0.24817 l -0.05511,0.07861 1.795817,0.0092 1.795818,0.0092 -0.364302,0.217233 c -0.560235,0.334064 -1.03293,0.674692 -1.245386,0.897431 -0.191548,0.200815 -0.193099,0.20424 -0.235845,0.520572 -0.0237,0.175135 -0.05083,0.346399 -0.0604,0.380589 -0.01626,0.05824 -0.140327,0.06216 -1.962525,0.06216 h -1.94513 l 0.01636,-0.852508 0.01635,-0.852507 h -1.922865 -1.922855 v -1.176315 -1.176338 l -0.09768,0.0241 c -0.05371,0.01325 -0.801,0.03803 -1.660619,0.05505 -3.089658,0.06117 -6.2652352,0.228967 -7.7498992,0.409483 -0.2378898,0.02893 -0.59754,0.09188 -0.7992259,0.139889 -0.8542194,0.203365 -2.9365167,0.402645 -4.886748,0.46767 l -0.7193005,0.02398 v 2.321267 2.321268 H 22.669803 43.41415 V 16.578455 Z M 2.9135982,15.187023 c -0.5363577,-0.160699 -0.5657687,-1.14689 -0.040701,-1.366262 0.1492572,-0.06236 0.4789111,-0.06223 0.6255571,2.58e-4 0.2475819,0.105492 0.3496236,0.303472 0.3511104,0.681166 0.00186,0.489523 -0.1976901,0.714749 -0.6411779,0.723444 -0.085678,0.0017 -0.2182917,-0.01569 -0.2947603,-0.0386 z m 0.5588644,-0.155541 c 0.3088106,-0.152404 0.3459623,-0.762779 0.06161,-1.012428 -0.1211658,-0.106386 -0.139881,-0.111367 -0.3696398,-0.09839 -0.2090456,0.0118 -0.2567072,0.02777 -0.349986,0.117124 -0.2828472,0.270986 -0.2185984,0.861652 0.1079332,0.992306 0.1766053,0.07066 0.4085106,0.07125 0.5500736,0.0014 z m 7.6885034,-0.781273 c -0.216071,-0.10924 -0.319692,-0.324556 -0.319692,-0.664317 0,-0.430976 0.191585,-0.612808 0.645657,-0.612808 0.221748,0 0.291415,0.01397 0.372976,0.07476 0.167061,0.124528 0.232732,0.273943 0.231273,0.526213 -0.0019,0.259484 -0.123805,0.547735 -0.274233,0.646301 -0.178139,0.116717 -0.458895,0.129495 -0.655981,0.02986 z m 0.518377,-0.106011 c 0.303699,-0.153899 0.385604,-0.708332 0.138896,-0.940106 -0.185415,-0.174189 -0.639496,-0.12474 -0.766451,0.08347 -0.131444,0.215569 -0.04916,0.718412 0.135541,0.828125 0.125831,0.07475 0.372558,0.08905 0.492014,0.02852 z m 11.933191,-0.984356 c 0.0097,-0.02502 0.01319,-0.516852 0.0084,-1.092957 l -0.0094,-1.047464 -1.27323,-0.0093 -1.273231,-0.0093 -0.308559,0.123458 c -0.401969,0.160819 -0.81717,0.258655 -1.30096,0.30654 -0.815869,0.08075 -0.681387,0.0954 0.914017,0.09952 l 1.624434,0.0042 0.0096,0.825868 0.0095,0.825867 0.791206,0.0096 c 0.617324,0.0074 0.795035,-3.96e-4 0.808649,-0.03593 z m 40.327075,3.799126 -0.165625,-0.149601 0.03599,-0.248647 c 0.03813,-0.263409 0.02333,-0.815396 -0.04127,-1.542009 -0.02827,-0.317722 -0.02843,-0.451658 -6.62e-4,-0.479536 0.05651,-0.05655 3.141297,-0.07323 3.275352,-0.0177 0.08073,0.03343 0.09879,0.06307 0.09879,0.162049 0,0.153807 -0.07764,0.187349 -0.225965,0.09763 -0.08829,-0.0534 -0.178699,-0.0672 -0.434499,-0.06633 -0.368404,0.0013 -0.511731,0.06062 -0.511731,0.211923 0,0.114613 0.113976,0.186016 0.373517,0.233994 0.271876,0.05026 0.499818,0.01481 0.609387,-0.09475 0.04728,-0.04728 0.10797,-0.08596 0.134872,-0.08596 0.117761,0 0.193873,0.52743 0.195407,1.354144 l 0.0013,0.590439 -0.133203,0.02044 c -0.136798,0.021 -1.32912,0.121776 -1.678373,0.141863 -0.107454,0.0061 -0.459114,0.01358 -0.781468,0.01645 l -0.586097,0.0052 z m 1.018127,-0.01365 c 0.09769,-0.0061 0.585212,-0.03552 1.083397,-0.06538 0.498184,-0.02986 0.949747,-0.06323 1.003473,-0.07414 l 0.09768,-0.01984 v -0.63859 c 0,-0.547621 -0.04025,-0.954217 -0.09445,-0.954217 -0.0083,0 -0.06052,0.03367 -0.116181,0.07481 -0.124628,0.09215 -0.487497,0.128457 -0.702414,0.0703 -0.08215,-0.02223 -0.197873,-0.08124 -0.257175,-0.131144 l -0.107824,-0.09072 -0.09117,0.07171 c -0.250197,0.196805 -0.780642,0.237031 -1.123148,0.08518 -0.281075,-0.124626 -0.375627,-0.380421 -0.206967,-0.55995 l 0.08315,-0.08851 h -0.251935 c -0.138564,0 -0.277217,0.0097 -0.30812,0.02156 -0.07492,0.02875 -0.07504,0.421062 -3.31e-4,0.973031 0.03814,0.281681 0.04807,0.520616 0.03203,0.769669 -0.02188,0.339403 -0.01841,0.367775 0.05765,0.470654 0.0808,0.109294 0.08149,0.109469 0.402833,0.103077 0.17704,-0.0035 0.401814,-0.01139 0.499497,-0.01749 z m 0.372976,-1.774816 c 0.218703,-0.03786 0.391104,-0.126315 0.412525,-0.211662 0.02978,-0.118613 -0.03402,-0.182271 -0.245624,-0.245111 -0.319062,-0.09475 -0.764145,-0.04575 -0.937311,0.103207 -0.077,0.06623 -0.08538,0.09058 -0.05239,0.152217 0.02159,0.04036 0.09968,0.09738 0.173506,0.126724 0.145546,0.05785 0.506558,0.09933 0.649301,0.07463 z m -0.577222,-0.1573 c -0.13427,-0.06127 -0.127261,-0.160461 0.01333,-0.188577 0.142894,-0.02858 0.626276,-0.02242 0.741505,0.0094 0.05117,0.01415 0.09324,0.05498 0.09928,0.09637 0.0082,0.056 -0.01921,0.08061 -0.124322,0.111772 -0.164974,0.04891 -0.59666,0.03174 -0.729783,-0.029 z m 1.200933,-0.333972 c 0.06391,-0.04835 0.05728,-0.05215 -0.09089,-0.05215 -0.148173,0 -0.154812,0.0038 -0.09089,0.05215 0.08543,0.06461 0.09636,0.06461 0.18179,0 z m -2.617539,2.234301 c -0.06956,-0.03596 -0.100585,-0.07416 -0.08765,-0.10788 0.144942,-0.377708 0.175837,-0.839896 0.115511,-1.727938 l -0.02836,-0.417373 h 0.104779 c 0.139718,0 0.17704,0.05364 0.2382,0.342313 0.06343,0.299387 0.07269,1.572308 0.01316,1.808747 -0.0357,0.141803 -0.0503,0.157815 -0.143849,0.157815 -0.05726,0 -0.152564,-0.02506 -0.211787,-0.05568 z m 0.218077,-0.219606 c 3.31e-4,-0.07326 0.0081,-0.221119 0.01755,-0.32857 0.01676,-0.189672 0.01577,-0.188118 -0.03384,0.05328 -0.0281,0.136756 -0.06184,0.284613 -0.07498,0.328571 -0.01789,0.05978 -0.0094,0.07992 0.03353,0.07992 0.04263,0 0.0575,-0.03434 0.05774,-0.133205 z m 0.02698,-1.145556 c 0,-0.06837 -0.0073,-0.09635 -0.01623,-0.06216 -0.0089,0.03419 -0.0089,0.09014 0,0.124323 0.0089,0.03419 0.01623,0.0062 0.01623,-0.06216 z m -2.123027,0.195366 v -1.225479 h 0.406396 c 0.223516,0 0.41567,0.01501 0.427006,0.03334 0.01134,0.01833 0.107129,0.08284 0.212877,0.143349 0.231981,0.132726 0.33971,0.119141 0.442958,-0.05586 0.03921,-0.06646 0.08651,-0.120838 0.10511,-0.120838 0.07234,0 0.146188,0.04528 0.146188,0.08965 0,0.02558 0.01997,0.05318 0.0444,0.06131 0.03401,0.01134 0.0444,0.231895 0.0444,0.942449 0,1.075425 -0.005,1.093336 -0.257179,0.90994 -0.07857,-0.05716 -0.08088,-0.05495 -0.184335,0.175633 l -0.104776,0.233515 -0.295194,0.012 c -0.162356,0.0066 -0.451045,0.01525 -0.641526,0.01923 l -0.346331,0.0072 z m 1.261483,0.856102 c 0.03067,-0.105475 0.09588,-0.235073 0.144932,-0.287998 0.08588,-0.09267 0.09174,-0.09391 0.158587,-0.03342 0.03817,0.03455 0.08129,0.05086 0.09583,0.03625 0.03237,-0.03254 0.02225,-1.497038 -0.01071,-1.550365 -0.01475,-0.02387 -0.04289,-0.01058 -0.07516,0.03551 -0.02836,0.04051 -0.0727,0.07365 -0.09851,0.07365 -0.02581,0 -0.06681,0.02398 -0.09113,0.05328 -0.06847,0.0825 -0.151165,0.06493 -0.417805,-0.0888 -0.232394,-0.133985 -0.262949,-0.142085 -0.535938,-0.142085 h -0.289496 v 1.047873 1.047873 h 0.531827 0.53182 z M 39.56988,15.502982 c -0.203863,-0.119836 -0.389342,-0.354668 -0.492935,-0.624098 -0.0608,-0.158121 -0.08085,-0.302902 -0.09436,-0.68136 l -0.01715,-0.480576 0.09626,-0.114403 0.09626,-0.114404 h 2.145873 2.14587 v 0.159846 0.159846 h 0.35521 0.355214 v 0.90682 0.906819 l -2.211192,-0.0099 -2.211191,-0.0099 z m 4.448148,-0.789362 v -0.763704 h -0.35521 -0.355213 v -0.159845 -0.159845 h -2.036959 c -2.417286,0 -2.17738,-0.05665 -2.143,0.506016 0.02307,0.377835 0.07939,0.643003 0.17537,0.826027 0.06756,0.128805 0.281244,0.333994 0.456668,0.438498 0.127655,0.07604 0.142349,0.07656 2.19343,0.07656 h 2.064914 z m 22.142664,0.296482 c -0.154908,-0.07425 -0.14947,-0.157928 0.012,-0.18461 0.196209,-0.03242 0.659759,-0.027 0.715577,0.0084 0.08097,0.05132 0.02961,0.155187 -0.101176,0.204634 -0.147401,0.05572 -0.482585,0.04053 -0.626389,-0.0284 z M 55.851203,13.774963 c -0.08536,-0.04371 -0.298533,-0.200393 -0.473709,-0.348188 l -0.3185,-0.268719 0.260581,-0.141703 c 0.143324,-0.07794 0.298047,-0.164862 0.343828,-0.193166 0.127556,-0.07886 0.219599,-0.329091 0.242996,-0.660639 0.02175,-0.308391 -0.04491,-1.005388 -0.0994,-1.039063 -0.01732,-0.0107 -0.03147,-0.08245 -0.03147,-0.159442 0,-0.116307 -0.012,-0.139988 -0.07104,-0.139988 -0.05666,0 -0.07104,-0.02368 -0.07104,-0.116968 0,-0.109876 0.01131,-0.12057 0.186484,-0.176401 0.102569,-0.03269 0.298378,-0.09514 0.435134,-0.138776 0.153586,-0.04901 0.284653,-0.117369 0.342824,-0.178809 0.0518,-0.05471 0.11343,-0.09947 0.136971,-0.09947 0.02354,0 0.105043,-0.0493 0.181116,-0.109549 l 0.138316,-0.1095478 v 0.1185418 c 0,0.0652 0.03197,0.23033 0.07104,0.366963 0.06613,0.23124 0.07101,0.354066 0.07056,1.775944 -3.31e-4,0.840137 -0.0099,1.562632 -0.02142,1.605542 -0.0115,0.04291 -0.04725,0.08605 -0.07943,0.09587 -0.0322,0.0098 -0.290292,0.01317 -0.573575,0.0074 -0.450926,-0.0091 -0.534384,-0.0203 -0.670266,-0.08988 z M 28.743935,13.488141 v -0.213127 h 5.132808 c 2.82304,0 5.132804,0.0059 5.132804,0.0133 0,0.01132 -0.07021,0.220351 -0.123801,0.368558 -0.01276,0.03524 -1.060874,0.0444 -5.078933,0.0444 h -5.062878 z m 10.016962,-0.01776 c 0,-0.0471 -0.572286,-0.05328 -4.937437,-0.05328 -4.365154,0 -4.93744,0.0061 -4.93744,0.05328 0,0.0471 0.572286,0.05328 4.93744,0.05328 4.365151,0 4.937437,-0.0061 4.937437,-0.05328 z m 0.391171,-0.115442 c 0.003,-0.190047 0.190918,-2.054947 0.232517,-2.308875 0.01415,-0.08634 0.0058,-0.115444 -0.03316,-0.115444 -0.06752,0 -0.07931,0.06277 -0.166706,0.888029 -0.04035,0.380964 -0.08799,0.828531 -0.105874,0.994592 -0.01788,0.166061 -0.03279,0.329902 -0.03315,0.364091 -6.61e-4,0.05892 -0.273257,0.06217 -5.223435,0.06217 h -5.22281 l -0.07488,-0.12691 c -0.06103,-0.103437 -0.09018,-0.123073 -0.157579,-0.106155 -0.312228,0.07836 -3.240139,0.124802 -3.548141,0.05628 -0.321347,-0.0715 -0.421307,-0.104959 -0.475659,-0.159236 -0.04804,-0.04802 -0.05891,-0.173928 -0.06821,-0.79296 -0.0065,-0.42407 0.0046,-0.796078 0.02528,-0.877959 0.01998,-0.07815 0.04618,-0.194033 0.05826,-0.257528 l 0.02193,-0.115443 h 7.434774 7.434772 l 0.05124,-0.07992 c 0.0282,-0.04396 0.07883,-0.165445 0.112538,-0.269972 0.06601,-0.204672 0.37807,-0.8307386 0.460955,-0.9247767 0.0278,-0.031554 0.123725,-0.2038671 0.213135,-0.3829192 0.126452,-0.2532211 0.176637,-0.3224172 0.225893,-0.311452 0.03483,0.00776 1.046371,0.1681008 2.247875,0.356328 1.201501,0.1882256 2.190204,0.3473545 2.197116,0.3536189 0.0069,0.00626 -0.05537,0.21527 -0.138418,0.464459 -0.136554,0.409755 -0.166144,0.466851 -0.309508,0.597213 -0.244679,0.222479 -0.396397,0.569218 -0.591523,1.351861 -0.0701,0.281174 -0.269641,1.281808 -0.269641,1.352168 0,0.0085 -0.967063,0.0154 -2.14903,0.0154 -1.181964,0 -2.148832,-0.01199 -2.148591,-0.02664 z m 4.171863,-0.195368 c 0.0078,-0.02442 0.03223,-0.156292 0.05435,-0.293049 0.05169,-0.319251 0.264081,-1.167736 0.376166,-1.502798 0.123658,-0.369643 0.245916,-0.594875 0.429369,-0.791 0.130941,-0.13999 0.178293,-0.230291 0.262084,-0.499835 C 44.50215,9.8919499 44.54477,9.7412153 44.54062,9.7379214 44.5196,9.7212374 42.869976,9.4626758 42.179922,9.3679073 41.745297,9.3082193 41.179709,9.2198142 40.923056,9.1714517 40.6664,9.1230897 40.427886,9.0835197 40.39302,9.0835197 c -0.05925,0 -0.131344,0.1155329 -0.47655,0.7637044 -0.04162,0.078148 -0.117589,0.2140159 -0.168819,0.3019299 -0.107764,0.184935 -0.220289,0.549081 -0.192247,0.62215 0.01055,0.02751 0.0041,0.142544 -0.01431,0.255632 -0.04389,0.269217 -0.131411,1.089794 -0.173481,1.626459 -0.01838,0.234441 -0.04423,0.454227 -0.05745,0.488416 -0.02271,0.05876 0.08628,0.06217 1.987819,0.06217 1.57829,0 2.014898,-0.0096 2.025956,-0.0444 z m -4.40686,-0.284169 c 0.01084,-0.122103 0.02932,-0.397836 0.04106,-0.612739 0.0117,-0.214903 0.04394,-0.566563 0.0716,-0.781466 0.02767,-0.214902 0.05042,-0.410713 0.05058,-0.435133 2.58e-4,-0.03538 -1.478672,-0.0444 -7.276866,-0.0444 h -7.277157 l -0.05799,0.206577 c -0.07453,0.265511 -0.08531,1.53942 -0.01357,1.595442 0.02444,0.01907 0.172285,0.05698 0.328576,0.08427 0.369296,0.06447 2.813792,0.06539 3.338988,0.0013 l 0.35521,-0.04338 0.115923,0.125793 0.11592,0.125794 h 5.093981 5.093975 l 0.01974,-0.222008 z m 4.710226,0.08655 c 0,-0.05937 0.35295,-1.393818 0.414456,-1.566987 l 0.06399,-0.180177 h 5.837007 5.836999 l -0.01101,0.69581 -0.01101,0.695809 -0.0951,0.08173 c -0.05231,0.04496 -0.172187,0.110033 -0.266408,0.144624 -0.09422,0.03459 -0.194709,0.08431 -0.223317,0.110486 -0.04302,0.03937 -1.045254,0.0476 -5.798828,0.0476 -3.160745,0 -5.746813,-0.013 -5.746813,-0.02889 z M 55.12952,12.805656 c 0.02371,-0.02371 0.109179,-0.06767 0.189932,-0.09768 0.262603,-0.09761 0.293974,-0.177365 0.308798,-0.785116 l 0.01293,-0.530462 H 49.92489 44.2086 l -0.06458,0.204247 c -0.114277,0.361379 -0.302648,1.089808 -0.303128,1.172198 l -6.61e-4,0.07992 h 5.622999 c 4.360928,0 5.632667,-0.0097 5.666101,-0.04311 z m -5.43699,-2.216292 c -5.058504,-0.01443 -5.141683,-0.01578 -5.141683,-0.08352 0,-0.129685 0.183469,-0.6496485 0.387484,-1.0981612 0.238759,-0.524885 0.376046,-0.7544715 0.438175,-0.7327521 0.02453,0.00858 0.443507,0.073224 0.931047,0.14366 0.487543,0.070434 1.198853,0.1836819 1.580691,0.2516611 0.381838,0.067979 1.389579,0.2432397 2.239419,0.3894679 0.849845,0.1462269 1.713008,0.2958835 1.918144,0.3325695 0.940924,0.1682733 1.369377,0.2154978 1.953663,0.2153368 0.322354,-7.1e-5 0.644004,0.01592 0.71478,0.03558 0.197532,0.05487 0.5995,0.446324 0.5995,0.583823 0,0.01401 -0.107894,0.01457 -0.239767,0.0013 -0.131873,-0.01333 -2.553526,-0.03084 -5.381453,-0.03891 z M 41.873011,7.664199 c -0.267271,-0.1016158 -0.263846,-0.6788246 0.0053,-0.8905213 0.08611,-0.067725 0.151413,-0.070076 1.946846,-0.070076 1.10054,0 1.894306,0.013894 1.947419,0.034089 0.184633,0.070196 0.29882,0.5029341 0.200769,0.7608315 -0.07503,0.1973259 -0.06836,0.1967035 -2.121712,0.1982496 -1.120718,8.925e-4 -1.925558,-0.01241 -1.978602,-0.032571 z m 3.921075,-0.1791315 c 0.108577,-0.1085762 0.09943,-0.4010906 -0.01613,-0.5166721 l -0.08719,-0.087188 h -1.843925 c -1.81166,0 -1.845562,0.00129 -1.937514,0.073621 -0.07969,0.062686 -0.0936,0.1010785 -0.0936,0.2585046 0,0.1098457 0.02245,0.2169262 0.0553,0.2638303 l 0.0553,0.078946 h 1.898365 c 1.85101,0 1.90014,-0.00178 1.969412,-0.071042 z"
   id="path8477" /></svg>
