<?xml version="1.0" encoding="UTF-8" standalone="no"?>
<!-- Generator: Adobe Illustrator 16.0.0, SVG Export Plug-In . SVG Version: 6.00 Build 0)  -->

<svg
   version="1.1"
   x="0px"
   y="0px"
   width="98px"
   height="32px"
   viewBox="0 0 98 32"
   enable-background="new 0 0 98 32"
   xml:space="preserve"
   id="svg8951"
   sodipodi:docname="scar20.svg"
   inkscape:version="1.1.1 (3bf5ae0d25, 2021-09-20)"
   xmlns:inkscape="http://www.inkscape.org/namespaces/inkscape"
   xmlns:sodipodi="http://sodipodi.sourceforge.net/DTD/sodipodi-0.dtd"
   xmlns="http://www.w3.org/2000/svg"
   xmlns:svg="http://www.w3.org/2000/svg"><defs
   id="defs8955" /><sodipodi:namedview
   id="namedview8953"
   pagecolor="#505050"
   bordercolor="#eeeeee"
   borderopacity="1"
   inkscape:pageshadow="0"
   inkscape:pageopacity="0"
   inkscape:pagecheckerboard="0"
   showgrid="false"
   inkscape:zoom="11.377551"
   inkscape:cx="46.890583"
   inkscape:cy="10.283408"
   inkscape:window-width="1440"
   inkscape:window-height="848"
   inkscape:window-x="1358"
   inkscape:window-y="-8"
   inkscape:window-maximized="1"
   inkscape:current-layer="svg8951" />

<g
   id="guides">
</g>
<path
   style="fill:#ffffff;stroke-width:0.0477062"
   d="m 25.875984,29.774412 c 0.647569,-0.172627 0.913177,-0.378747 1.357876,-1.053752 0.367589,-0.557979 0.470012,-0.652387 0.820041,-0.75587 0.308386,-0.09117 0.422952,-0.233434 0.797768,-0.990662 0.28113,-0.567948 0.44568,-1.098099 0.44568,-1.435872 0,-0.245081 -0.114637,-0.393844 -0.425752,-0.552479 -0.09106,-0.04643 -0.259014,-0.149443 -0.373223,-0.228916 l -0.20765,-0.144491 0.02888,-0.414051 c 0.0603,-0.864089 0.368576,-2.636101 0.590925,-3.396826 0.07752,-0.265251 0.09622,-0.289849 0.23041,-0.30334 0.09594,-0.0096 0.260006,0.04438 0.478317,0.157532 0.894048,0.463376 1.739404,0.553562 2.729321,0.291176 0.257262,-0.06819 0.874938,-0.350966 1.30092,-0.595569 0.09106,-0.05229 0.262673,-0.140126 0.381359,-0.195192 0.153015,-0.07099 0.315883,-0.220284 0.559811,-0.513138 0.18921,-0.22716 0.351895,-0.405008 0.361518,-0.395217 0.0096,0.0098 0.08075,0.320089 0.158049,0.689553 0.0773,0.369466 0.439021,1.992372 0.80384,3.606458 0.364816,1.614087 0.688585,3.084717 0.719491,3.26807 0.04033,0.239146 0.08903,0.366767 0.172374,0.45153 0.109649,0.111515 0.137887,0.116646 0.502206,0.09126 0.604333,-0.0421 1.509884,-0.315034 4.430694,-1.335409 0.725751,-0.253537 0.66229,-0.18701 0.66229,-0.694249 0,-0.456236 -0.108943,-1.450079 -0.308627,-2.815568 -0.237543,-1.624338 -0.542888,-4.023028 -0.542888,-4.264729 v -0.249867 l 0.22471,-0.07359 c 0.198303,-0.06495 1.859653,-0.397083 2.566356,-0.513063 0.758256,-0.12444 4.103218,-0.256581 12.748999,-0.503635 2.315635,-0.06617 4.816944,-0.143524 5.558467,-0.171897 0.741523,-0.02837 2.716354,-0.06744 4.388515,-0.08681 l 3.040282,-0.03522 0.223836,-0.219583 c 0.123111,-0.12077 0.287722,-0.241046 0.365807,-0.267276 0.07808,-0.02623 0.220708,-0.102038 0.316951,-0.168458 0.09624,-0.06642 0.338146,-0.159842 0.537574,-0.207603 0.32771,-0.07849 0.390502,-0.08024 0.652823,-0.01821 0.185346,0.04382 0.556008,0.06862 1.025688,0.06862 0.620809,0 0.755129,-0.01311 0.861671,-0.08419 0.119324,-0.07959 0.745596,-0.08419 11.461152,-0.08419 H 96.85739 l 0.301573,-0.270943 c 0.165864,-0.149017 0.32397,-0.336268 0.351338,-0.416112 0.05253,-0.153232 0.06862,-1.569776 0.01993,-1.754521 l -0.02851,-0.108247 H 86.215264 c -6.472411,0 -11.267287,-0.018 -11.241512,-0.04219 0.02474,-0.0232 0.151379,-0.07768 0.281472,-0.121044 0.130092,-0.04337 0.321678,-0.127838 0.425752,-0.187716 l 0.189225,-0.10887 0.01365,-0.446169 0.01365,-0.446169 1.054366,0.01456 1.054366,0.01458 0.201041,0.135407 c 0.253367,0.170654 0.74047,0.228319 0.998039,0.118153 0.328752,-0.140615 0.791472,-0.511959 0.898749,-0.721275 0.121911,-0.237869 0.108842,-0.392484 -0.07605,-0.899771 -0.0915,-0.251067 -0.176872,-0.387935 -0.333597,-0.5348546 l -0.210631,-0.1974413 -7.507166,0.022678 c -6.383253,0.019294 -7.677141,0.034767 -8.642515,0.1034445 -2.325438,0.1654326 -13.061004,0.1445898 -14.215486,-0.0276 -0.16912,-0.025214 -0.994022,-0.058856 -1.833112,-0.07474 L 45.75988,9.6519706 v 0.1432009 c 0,0.078758 -0.02284,0.2098075 -0.05075,0.2912175 -0.07775,0.226826 -0.23165,0.258768 -0.922576,0.191468 l -0.587787,-0.05725 V 9.9523487 9.6840927 L 43.926751,9.5580183 C 43.777145,9.4886755 43.527013,9.4184506 43.370901,9.401965 42.568855,9.3172614 42.508107,9.2801808 43.078159,9.2232715 c 0.187029,-0.01867 0.765806,-0.078642 1.286171,-0.1332686 2.15363,-0.2260786 2.006774,-0.2231414 2.666503,-0.053343 0.321761,0.082816 0.878556,0.2462364 1.23733,0.3631566 0.358764,0.1169222 0.787353,0.234871 0.952419,0.2621118 0.331783,0.054753 3.99683,0.068821 4.853333,0.018618 0.335954,-0.019679 0.532227,-0.050652 0.532294,-0.083974 4.6e-5,-0.029034 0.06391,-0.1758982 0.141904,-0.326366 0.259045,-0.499784 0.301174,-0.7968562 0.298941,-2.1078585 C 55.045481,6.23573 55.023386,5.8212163 54.943845,5.2240858 54.88818,4.8063209 54.842639,4.36792 54.842639,4.24986 V 4.035206 l -1.478314,2.81e-5 c -2.719278,4.93e-5 -3.720531,0.089462 -5.424874,0.4844288 -0.691415,0.1602322 -1.704163,0.3920003 -2.250548,0.5150413 L 44.695475,5.258419 42.89266,5.2738562 41.089851,5.2892934 41.059544,5.064469 c -0.01666,-0.1236538 -0.03031,-0.3430429 -0.03031,-0.4875266 0,-0.2330924 -0.01763,-0.2806094 -0.156235,-0.421592 -0.276805,-0.2815071 -1.203001,-0.4695025 -1.788683,-0.3630583 -0.35587,0.064681 -0.880758,0.2976434 -0.923031,0.4096731 -0.01528,0.040584 -0.05749,0.073788 -0.09375,0.073788 -0.05214,0 -0.0659,0.1054431 -0.0659,0.5051526 V 5.286061 H 34.83873 c -2.492355,0 -3.297196,-0.015229 -3.796315,-0.071905 C 30.147166,5.1125215 27.08502,4.9540398 25.32361,4.918175 24.022495,4.891682 23.810925,4.89754 23.655763,4.964346 c -0.108151,0.046566 -0.196094,0.1257199 -0.224705,0.202247 -0.07165,0.1916619 -0.05714,1.7616241 0.02081,2.249932 0.1198,0.7505485 0.319641,1.230736 0.600096,1.4419434 0.22124,0.1666145 1.049141,0.2027974 3.211205,0.1403489 2.257489,-0.065208 3.316602,-0.1309359 3.732123,-0.2316183 0.281446,-0.068195 0.370074,-0.065679 1.277266,0.036254 0.894978,0.1005608 0.981893,0.1186188 1.061052,0.220465 0.04743,0.061013 0.136639,0.1109335 0.198261,0.1109335 0.06162,0 0.1256,0.022319 0.142174,0.049586 0.01656,0.027272 0.09766,0.039051 0.18019,0.026171 0.08253,-0.01288 0.251169,-0.036519 0.374756,-0.052534 l 0.224705,-0.029118 v 0.260907 0.2609096 l -0.863337,0.033484 c -0.474831,0.01841 -1.161362,0.064662 -1.52562,0.1027668 -0.866382,0.090636 -1.30092,0.091706 -1.30092,0.00322 0,-0.036452 -0.03195,-0.093227 -0.07096,-0.1261669 -0.03905,-0.032938 -0.07095,-0.1034133 -0.07095,-0.1566042 0,-0.093002 -0.02316,-0.095849 -0.603152,-0.074197 -0.637128,0.02379 -0.790362,0.068311 -0.99239,0.2883494 -0.08532,0.092924 -0.111443,0.1946235 -0.137075,0.5337798 l -0.03169,0.418979 -0.903661,0.0016 c -1.849589,0.0031 -6.389835,0.266772 -6.604374,0.383536 -0.1152,0.0627 -0.141337,0.06047 -0.142814,-0.0122 -5.11e-4,-0.03307 -0.101789,-0.127351 -0.224705,-0.2095 l -0.223484,-0.149364 -1.324573,-0.05447 c -1.842511,-0.07577 -7.187471,-0.33002 -9.177384,-0.436552 -0.9106426,-0.04875 -1.7232173,-0.07823 -1.8057121,-0.06551 -0.338305,0.05218 -0.40214,0.255549 -0.4873998,1.552849 -0.051569,0.784704 -0.1150358,1.167232 -0.2064542,1.244392 -0.031994,0.02701 -0.711369,0.05315 -1.6248531,0.06252 l -1.569865,0.01611 -0.1397726,0.136243 c -0.2415466,0.235407 -0.4790444,0.630335 -0.5275926,0.877282 -0.025657,0.130515 -0.061106,1.109522 -0.078784,2.17557 -0.044618,2.691669 -0.116058,2.483081 -0.1647085,-0.48101 C 3.5822963,11.502206 3.5996069,11.884838 3.4657425,11.612576 3.368559,11.414917 3.3012946,11.348423 3.0885028,11.239644 2.6788448,11.030227 2.3606717,10.980876 1.8778871,11.051866 c -0.4655557,0.06846 -0.697774,0.172635 -0.94480867,0.42387 -0.22537477,0.229198 -0.34826092,0.513102 -0.34954375,0.807526 -0.001533,0.375598 0.31399754,1.939615 0.45243102,2.241856 l 0.1220684,0.2665 -0.049883,3.558235 c -0.027446,1.957029 -0.07167,3.79638 -0.098313,4.087445 -0.0266277,0.291065 -0.0676936,0.77555 -0.091219,1.076635 -0.0259633,0.332309 -0.0652251,0.56154 -0.0999127,0.58334 -0.0822852,0.05172 -0.0196258,0.209156 0.15065871,0.378453 0.10910709,0.108481 0.30996999,0.199748 0.79033719,0.359096 0.3542305,0.117507 0.7146758,0.228947 0.8009987,0.247646 0.086313,0.0187 0.168419,0.06443 0.1824587,0.101629 0.044567,0.118109 0.1510829,0.07408 0.389245,-0.160894 0.2781702,-0.274455 0.3944532,-0.604599 0.4814353,-1.36686 0.063385,-0.555375 0.080819,-2.750768 0.025248,-3.179524 -0.032659,-0.252244 -0.027957,-0.276629 0.053771,-0.276629 0.053132,0 0.143483,0.08324 0.2219453,0.204465 0.1275934,0.19715 0.1344521,0.239759 0.1916327,1.190718 0.032608,0.54244 0.08227,1.044479 0.110339,1.115643 0.075529,0.191468 0.2320547,1.065345 0.2698139,1.506347 0.063835,0.745452 0.340012,0.849333 1.988048,0.747771 1.1451453,-0.07057 1.9070558,-0.15666 3.2615582,-0.36853 l 1.088042,-0.170188 0.169569,-0.185939 c 0.362162,-0.397113 0.849403,-2.115754 1.247726,-4.401111 l 0.150939,-0.865977 0.292097,-0.01432 c 0.270648,-0.01327 0.292092,-0.02257 0.292092,-0.126843 0,-0.08428 0.03266,-0.119138 0.130093,-0.138898 0.07155,-0.01451 0.279106,-0.08046 0.461238,-0.146555 0.358456,-0.130085 0.909554,-0.236744 1.655712,-0.320444 0.771606,-0.08656 3.469091,-0.113583 4.923277,-0.04933 2.218533,0.09802 4.156827,0.225386 4.255288,0.279613 0.160762,0.08854 0.358621,0.330225 0.420713,0.513899 0.0547,0.161817 0.04309,0.232622 -0.140765,0.859372 -0.11021,0.375665 -0.382891,1.375825 -0.605961,2.222577 -0.223065,0.84675 -0.476223,1.777676 -0.562571,2.068723 l -0.157001,0.529176 -0.221169,-0.01622 c -0.364488,-0.02672 -0.867583,0.24887 -1.336793,0.732285 -0.416236,0.428832 -0.605671,0.762366 -0.783433,1.379336 -0.206811,0.717803 -0.04375,1.028004 0.665693,1.266462 0.213692,0.07183 0.435545,0.161921 0.493007,0.200211 0.05745,0.03829 0.209531,0.08372 0.337931,0.100965 0.211259,0.02837 0.27169,0.06852 0.63556,0.422329 0.412137,0.400736 0.936815,0.785785 1.260503,0.925053 0.525843,0.226247 0.928679,0.257449 1.467923,0.113703 z M 37.15017,24.869724 c 0,-0.06221 0.124752,-0.07597 2.453425,-0.270607 1.867911,-0.156126 2.25158,-0.171365 2.167731,-0.08609 -0.02872,0.02923 -3.982228,0.385388 -4.396455,0.396068 -0.123587,0.0032 -0.224701,-0.01453 -0.224701,-0.03937 z M 2.1199848,24.283718 C 1.8337853,24.182956 1.5431036,24.099728 1.47403,24.098767 c -0.1170547,-0.0016 -0.1241792,-0.01402 -0.1048396,-0.182159 0.011397,-0.09923 0.062966,-0.721648 0.1145606,-1.38316 0.051589,-0.661511 0.1178876,-1.386766 0.1473263,-1.611681 0.034448,-0.262986 0.054068,-1.404796 0.055039,-3.199307 0.00153,-2.724655 -5.111e-4,-2.795469 -0.096703,-3.006865 -0.054022,-0.119072 -0.1544254,-0.519588 -0.223126,-0.890032 -0.06869,-0.370446 -0.1556163,-0.814259 -0.1931557,-0.986252 -0.037514,-0.171994 -0.068701,-0.414827 -0.069243,-0.539634 -0.00205,-0.444142 0.4205902,-0.691338 1.1668512,-0.68267 0.4424852,0.0051 0.6005803,0.07845 0.6986684,0.323984 0.045844,0.114758 0.068706,0.820926 0.092144,2.846768 0.032608,2.816049 0.067653,3.357361 0.2374416,3.665183 0.1277518,0.231621 0.4200842,0.398628 0.7602598,0.434333 l 0.2604661,0.02734 V 17.344314 15.774013 H 4.887397 c 0.536132,0 0.5676712,-0.0054 0.5676712,-0.09622 0,-0.09087 -0.031534,-0.09622 -0.5676712,-0.09622 H 4.3197205 l 0.00102,-0.324742 c 0.00102,-0.411036 0.079658,-0.971246 0.1477301,-1.054665 0.036901,-0.04523 0.1886684,-0.06389 0.5194092,-0.06389 0.7258584,0 0.5691995,-0.09141 -0.1831844,-0.10689 -0.6053896,-0.01246 -0.6406292,-0.01818 -0.5085435,-0.0827 0.1871914,-0.09143 0.3547978,-0.244463 0.3547978,-0.323948 0,-0.05184 0.3353406,-0.06378 1.7918411,-0.06378 1.3762033,0 1.8030236,-0.01394 1.8400776,-0.06014 0.055013,-0.0686 0.081361,-0.294642 0.1527848,-1.310995 0.027906,-0.396906 0.08524,-0.925239 0.1274349,-1.174075 l 0.076729,-0.452427 0.9864624,0.03124 c 0.5425515,0.01717 1.8110895,0.09554 2.8189615,0.174133 1.007876,0.07859 2.375339,0.176417 3.03881,0.217397 1.953151,0.120647 4.789217,0.316568 4.955311,0.342324 0.09712,0.01505 0.153746,0.05126 0.153746,0.09828 0,0.04094 -0.161264,0.586611 -0.358365,1.212596 -0.513772,1.631677 -0.667845,2.094008 -0.857065,2.571741 -0.162772,0.410953 -0.17976,0.580128 -0.03925,0.391072 0.03788,-0.05099 0.135598,-0.294121 0.217131,-0.540293 0.08152,-0.246175 0.204605,-0.549267 0.27349,-0.673539 0.1238,-0.22334 0.199882,-0.454177 0.288534,-0.875433 0.05802,-0.275701 0.436153,-1.410343 0.549134,-1.647764 0.04723,-0.09923 0.110401,-0.180411 0.140412,-0.180411 0.03,0 0.175528,0.102834 0.323391,0.228521 l 0.268838,0.228522 -0.02188,0.408934 c -0.01206,0.224913 -0.03695,0.463058 -0.0553,0.52921 -0.0184,0.06615 -0.0183,0.106276 0,0.08917 0.06621,-0.06124 0.168143,-0.553459 0.198302,-0.95752 0.05024,-0.673213 -0.0417,-0.632833 1.5443,-0.678212 0.732278,-0.02095 1.364444,-0.05142 1.40481,-0.0677 0.04037,-0.01629 1.052632,-0.04729 2.249474,-0.06891 1.560349,-0.02818 2.231245,-0.05703 2.371032,-0.101929 l 0.194955,-0.06262 0.025,-0.370418 c 0.04084,-0.606086 0.114535,-0.687484 0.655451,-0.724035 0.229147,-0.01549 0.251078,-0.0071 0.333112,0.127755 0.0483,0.07938 0.100691,0.182216 0.116437,0.228521 0.01574,0.04631 0.07195,0.08419 0.1249,0.08419 0.09257,0 0.09512,0.01922 0.06632,0.498093 l -0.02995,0.498093 0.389398,0.03083 c 0.214172,0.01697 0.804515,0.02759 1.311873,0.02363 l 0.922469,-0.0072 -1.275028,-0.04236 c -0.70127,-0.0233 -1.27923,-0.047 -1.284361,-0.05266 -0.0051,-0.0057 0.0026,-0.253847 0.01625,-0.551527 l 0.02561,-0.541237 h 0.469788 c 0.258385,0 0.850451,-0.0337 1.315705,-0.07489 0.465249,-0.04119 0.948009,-0.06825 1.072786,-0.06014 l 0.227092,0.01477 0.02909,0.24241 c 0.016,0.133325 0.06092,0.306521 0.09979,0.384879 0.03889,0.07836 0.0838,0.244328 0.09981,0.36882 l 0.02909,0.226353 -0.318122,0.01681 c -0.174966,0.0092 1.940619,0.02105 4.7013,0.02623 l 5.019412,0.0094 0.02791,1.28694 c 0.03363,1.553994 0.179444,2.915048 0.391643,3.656349 0.02259,0.07889 0.0113,0.108247 -0.04155,0.108247 -0.03991,0 -0.08023,0.02348 -0.08963,0.05216 -0.01656,0.05051 -0.219201,0.116827 -1.620453,0.530322 -0.727065,0.214551 -0.886156,0.283266 -1.077697,0.465489 l -0.129183,0.122893 -2.652305,0.188223 -2.652315,0.18822 -0.198792,-0.10116 -0.198799,-0.101161 -0.108652,0.133351 c -0.05975,0.07334 -0.233844,0.328194 -0.386848,0.566337 -0.621995,0.968065 -1.38709,1.507707 -2.634545,1.858213 -0.770144,0.216392 -1.587447,0.09129 -2.320296,-0.355161 -0.277113,-0.16882 -0.377894,-0.265523 -0.536035,-0.51435 -0.495792,-0.78012 -1.231785,-1.330954 -2.102971,-1.573909 -0.417683,-0.116485 -1.080468,-0.132239 -1.69957,-0.0404 -0.519251,0.07703 -0.568683,0.07749 -0.620196,0.0058 -0.03077,-0.04281 -0.08828,-0.07784 -0.127762,-0.07784 -0.03946,0 -0.14728,-0.03207 -0.239536,-0.07128 -0.567253,-0.241038 -2.50228,-0.409947 -4.689627,-0.409357 -2.846535,7.79e-4 -4.743562,0.140636 -5.987287,0.441447 -0.51603,0.124809 -1.206506,0.332862 -1.249371,0.376459 -0.02576,0.02619 -0.09607,0.04761 -0.156265,0.04761 -0.06019,0 -0.146407,0.02007 -0.191587,0.0446 -0.04518,0.02454 -0.117126,0.05544 -0.159884,0.06869 -0.05651,0.01751 -0.08652,0.107204 -0.109844,0.328253 -0.131032,1.241843 -0.347509,2.348942 -0.71328,3.647801 -0.288617,1.024895 -0.405559,1.327855 -0.526615,1.364296 C 10.50958,23.860849 8.9795081,24.079028 8.2226165,24.16836 7.3438014,24.272141 5.5730429,24.354807 5.2918317,24.305242 4.9403407,24.243287 4.9003888,24.144557 4.794987,23.077474 4.7471492,22.593043 4.6835697,21.891038 4.6537272,21.517465 4.5913795,20.7368 4.5410168,20.509906 4.4118851,20.427889 4.350207,20.388719 4.3189489,20.313703 4.31716,20.200582 4.3130713,19.925835 4.2139252,19.706759 4.0408195,19.588393 3.8399668,19.451047 3.7106,19.450483 3.3408069,19.585327 l -0.2930787,0.106886 -0.014413,2.190371 c -0.014157,2.152211 -0.016253,2.194445 -0.1204891,2.424181 -0.085638,0.188755 -0.1221042,0.226713 -0.1892255,0.196979 -0.045742,-0.02025 -0.3173094,-0.119273 -0.603514,-0.220036 z m 0.607807,-0.463329 c 0.01656,-0.178609 0.030307,-1.22759 0.030512,-2.33107 l 5.06e-4,-2.006325 0.1600883,-0.04496 c 0.646609,-0.181569 0.8780503,-0.216141 1.065216,-0.15911 0.2683319,0.08176 0.4595608,0.297064 0.5527323,0.622315 0.04329,0.151151 0.1278897,0.393892 0.1879988,0.539423 0.161274,0.390508 0.243544,1.060941 0.3434158,2.798427 0.025862,0.450193 0.059036,0.683573 0.1051667,0.740102 0.061136,0.07492 0.1616625,0.08008 1.0852457,0.05578 1.0497859,-0.02763 2.095182,-0.118331 2.058542,-0.178616 C 8.305767,23.837505 8.1909868,23.809395 8.0621669,23.793875 7.5688441,23.734462 6.9588751,23.27198 6.7069646,22.766363 6.5782214,22.507956 6.5669621,22.444677 6.5670642,21.980182 c 0,-0.583702 0.055939,-0.810394 0.2846304,-1.156005 0.1895118,-0.286399 0.1896651,-0.288701 0.1335731,-2.049337 L 6.9543982,17.806603 6.7133585,17.751613 C 5.987684,17.586071 5.5642879,17.02977 5.6051596,16.295565 l 0.015639,-0.281181 -0.4848903,9.5e-5 -0.4848851,9.6e-5 v 1.488569 c 0,0.916263 -0.017735,1.499724 -0.046202,1.517591 -0.1238573,0.07785 -0.5359429,0.07926 -0.873011,0.003 C 3.3325889,18.933405 3.1252606,18.775294 2.9543526,18.430822 2.8320287,18.184257 2.7587232,16.61244 2.7564029,14.186403 c -0.00205,-1.79321 -0.025402,-2.212417 -0.1311301,-2.319932 -0.079494,-0.08085 -0.5097445,-0.103493 -0.737,-0.03879 -0.1141261,0.0325 -0.2860155,0.124902 -0.3819775,0.205344 l -0.1744704,0.146261 0.032301,0.293935 c 0.017786,0.161665 0.074665,0.413009 0.1264331,0.55854 0.051763,0.145533 0.1114225,0.383676 0.1325712,0.52921 0.088377,0.608196 0.1558361,0.947323 0.2180561,1.096131 0.097424,0.23302 0.096284,5.926708 -0.00102,6.65321 -0.081641,0.607595 -0.1854996,2.159712 -0.1622656,2.424979 l 0.016764,0.191525 0.402099,0.106568 c 0.6140628,0.162741 0.5959957,0.168834 0.6314551,-0.212986 z M 9.6044233,23.71861 c 0.4738717,-0.06971 0.8826197,-0.14842 0.9083317,-0.174911 0.253337,-0.261005 0.847605,-2.891102 1.002655,-4.437534 0.05302,-0.528796 0.07262,-0.605553 0.192261,-0.753181 0.109838,-0.135511 0.176903,-0.170336 0.38184,-0.198285 0.136726,-0.01864 0.493404,-0.117905 0.792621,-0.220574 1.277696,-0.438416 2.344803,-0.570947 5.416548,-0.672729 1.724414,-0.05714 3.042787,-0.03084 3.879102,0.07737 0.286199,0.03703 0.856585,0.101078 1.26752,0.142322 0.467953,0.04697 0.839182,0.11056 0.993429,0.170183 0.135449,0.05235 0.29616,0.0952 0.357143,0.09522 0.07199,1.6e-5 0.119764,0.03463 0.136241,0.09869 0.01988,0.07732 0.05218,0.09306 0.14931,0.07276 0.886759,-0.185357 1.383614,-0.210746 1.919838,-0.0981 1.039217,0.218303 1.851832,0.804728 2.34786,1.69434 0.07917,0.141993 0.14522,0.20421 0.217049,0.204468 0.0619,2.41e-4 0.115419,0.03936 0.133628,0.09771 0.0594,0.190331 0.764069,0.472931 1.371528,0.55004 0.451772,0.05734 1.480527,-0.204915 2.030852,-0.517726 0.606902,-0.344966 1.174599,-0.912881 1.511028,-1.511602 0.107416,-0.191168 0.234666,-0.36109 0.282775,-0.377604 0.09555,-0.0328 0.09762,0.0023 -0.04093,-0.694056 -0.144782,-0.727608 -0.01712,-1.405954 0.309985,-1.646975 0.247071,-0.182058 1.706643,-0.22061 5.083697,-0.134279 0.988701,0.02527 2.015345,0.05958 2.281433,0.07623 l 0.483802,0.03029 0.190309,0.193545 c 0.104676,0.106449 0.190314,0.171409 0.190314,0.144352 0,-0.02706 -0.03184,-0.327284 -0.07073,-0.667172 -0.05934,-0.518387 -0.162337,-2.563127 -0.16503,-3.276047 l -5.11e-4,-0.204466 h -0.496405 -0.4964 l 0.167933,0.223744 c 0.307655,0.409893 0.373268,0.581992 0.373268,0.979002 0,0.409065 -0.09153,0.637637 -0.360281,0.899622 -0.323585,0.315446 -0.37614,0.324227 -2.050136,0.342603 -0.832589,0.0091 -1.644958,0.0026 -1.805277,-0.01479 -0.395051,-0.04258 -0.744257,-0.256694 -0.936779,-0.574371 -0.13228,-0.218275 -0.143616,-0.271443 -0.143616,-0.673539 0,-0.388119 0.01426,-0.461178 0.128283,-0.658478 0.07055,-0.122058 0.204344,-0.289841 0.29731,-0.372851 l 0.169022,-0.150928 -2.118595,0.0098 -2.11859,0.0098 1.442834,0.02783 c 0.95594,0.01844 1.486731,0.0472 1.572906,0.08524 0.414702,0.183044 0.432284,1.035971 0.02622,1.271513 -0.0854,0.04953 -0.666648,0.0665 -2.687156,0.07842 -1.418,0.0084 -2.691547,0.0013 -2.830103,-0.01593 -0.32035,-0.03961 -0.515652,-0.205784 -0.578721,-0.492393 -0.09686,-0.440175 0.145983,-0.877094 0.488423,-0.878744 0.11618,-5.17e-4 0.135923,-0.01194 0.08204,-0.04737 -0.03905,-0.02565 -0.283839,-0.04692 -0.544019,-0.04727 l -0.473064,-5.17e-4 0.01493,-0.507912 0.01493,-0.507914 -0.174864,-0.233191 c -0.161443,-0.215293 -0.184799,-0.22967 -0.304282,-0.18731 -0.112331,0.03982 -0.133323,0.07891 -0.158963,0.295988 -0.01625,0.137557 -0.02974,0.362741 -0.02995,0.500408 l -5.11e-4,0.250304 -0.319313,0.102371 c -0.298941,0.09584 -0.46874,0.105043 -2.660968,0.14423 -2.817764,0.05037 -4.676308,0.125134 -4.754658,0.191267 -0.03169,0.02676 -0.0708,0.162113 -0.08688,0.300788 -0.08984,0.77464 -0.454563,1.673748 -0.83654,2.062211 -0.262143,0.266596 -0.475456,0.332971 -0.696502,0.216723 -0.162735,-0.08558 -0.20097,-0.06436 -0.20097,0.111549 0,0.153258 -0.282811,0.850618 -0.480521,1.184861 -0.222538,0.376218 -0.282836,0.395895 -0.565816,0.184639 l -0.236787,-0.176775 0.11568,-0.126017 c 0.114069,-0.124189 0.303576,-0.575864 0.597943,-1.424982 0.152381,-0.439549 0.758787,-2.457201 0.758787,-2.524649 0,-0.02025 -0.196911,-0.05144 -0.437583,-0.0693 -0.240667,-0.01787 -0.895264,-0.07427 -1.454661,-0.125355 -0.559396,-0.05108 -1.559919,-0.126672 -2.223389,-0.167975 -0.663465,-0.0413 -2.413008,-0.171704 -3.887867,-0.289782 -1.474859,-0.118081 -2.8302604,-0.21469 -3.0120087,-0.21469 -0.3865721,0 -0.3553804,-0.0563 -0.4304286,0.776925 -0.02535,0.281776 -0.077252,0.660643 -0.1152761,0.841922 -0.038025,0.181282 -0.080256,0.518406 -0.093861,0.749165 -0.025146,0.426443 -0.081447,0.613942 -0.1849476,0.615869 -0.031585,5.17e-4 -0.1106865,0.04341 -0.1757276,0.09515 -0.1494833,0.118911 -0.1757992,0.118805 -0.2131445,-7.8e-4 -0.029439,-0.0943 -0.062874,-0.0967 -1.1740115,-0.08419 l -1.1437244,0.01288 -0.00981,0.938142 -0.00981,0.938143 0.1044615,-0.14428 c 0.3237849,-0.447213 0.7237015,-0.680836 1.2664215,-0.739811 0.440681,-0.04789 0.7954839,0.0045 1.118124,0.165008 0.4654075,0.231574 0.7108017,0.524162 0.814297,0.970913 l 0.04196,0.181158 0.0046,-0.204465 0.0046,-0.204468 h 1.726672 1.726672 v 0.745703 0.745702 H 10.777014 9.0503418 l -0.00307,-0.348797 -0.00307,-0.348796 -0.060288,0.227853 c -0.033169,0.125319 -0.1275115,0.33784 -0.2096843,0.472266 -0.1056421,0.17284 -0.1493964,0.303447 -0.1493964,0.445981 0,0.234111 0.1073133,1.204972 0.2227581,2.015332 0.078417,0.550384 0.083578,0.564888 0.2220373,0.623213 0.077966,0.03284 0.2725943,0.190607 0.4325087,0.350589 0.4047209,0.404886 0.5136548,0.694652 0.5162708,1.373344 0.0021,0.450467 -0.01186,0.535117 -0.1255786,0.781915 -0.2474391,0.536975 -0.755129,0.958686 -1.2578614,1.044838 -0.561809,0.09628 0.1646166,0.03011 0.969709,-0.08833 z M 30.73771,19.865698 c -0.359281,-0.179876 -0.817431,-0.656862 -1.134408,-1.181039 -0.128007,-0.211683 -0.259863,-0.413488 -0.292997,-0.448453 -0.09494,-0.100157 -0.07115,-0.220822 0.06983,-0.354346 0.122251,-0.115785 0.169134,-0.125086 0.778321,-0.154437 0.356525,-0.01717 0.920649,-0.06535 1.253608,-0.107039 0.332959,-0.0417 0.999204,-0.102684 1.480548,-0.135533 0.993551,-0.0678 1.061122,-0.05344 1.114684,0.236929 0.04125,0.22362 -5.06e-4,0.372422 -0.18667,0.668354 -0.516419,0.82005 -1.270577,1.427002 -2.009923,1.617614 -0.298471,0.07695 -0.756774,0.01627 -1.072999,-0.14205 z m 1.256091,-0.183985 c 0.569006,-0.22302 0.968361,-0.560374 1.408806,-1.19009 0.263513,-0.376748 0.294213,-0.44501 0.294213,-0.65412 v -0.233475 l -0.201052,0.02252 c -0.110579,0.01239 -0.381997,0.04408 -0.60315,0.07042 -0.221158,0.02635 -0.609658,0.0623 -0.863336,0.07988 l -0.461238,0.03198 v 0.160768 c 0,0.224647 0.161249,0.63199 0.314622,0.7948 l 0.128835,0.136757 h -0.31869 c -0.32774,0 -0.516255,-0.06495 -0.648929,-0.223596 -0.07313,-0.08744 -0.280041,-0.566818 -0.280041,-0.648796 0,-0.02294 0.115823,-0.0417 0.257395,-0.0417 0.141561,0 0.271424,-0.02309 0.288571,-0.05131 0.05712,-0.094 -0.02086,-0.107275 -0.296483,-0.05046 -0.150225,0.03097 -0.507302,0.06823 -0.793501,0.08281 -0.286204,0.01459 -0.565923,0.04884 -0.621601,0.07614 -0.09004,0.04414 -0.09356,0.05835 -0.03184,0.128526 0.03818,0.0434 0.176305,0.265535 0.30697,0.493647 0.274787,0.479719 0.572496,0.815191 0.856421,0.965048 0.273172,0.144181 0.955184,0.171292 1.264019,0.05025 z M 31.42541,18.626215 c -5.06e-4,-0.02076 -0.03021,-0.124375 -0.06625,-0.230216 -0.04451,-0.130716 -0.09741,-0.19737 -0.164857,-0.207812 -0.121577,-0.01883 -0.134165,0.111745 -0.02591,0.2689 0.07831,0.113706 0.258228,0.232089 0.257037,0.169128 z m -11.56563,-1.794735 -0.236527,-0.119324 -0.01426,-0.278518 -0.01426,-0.278515 0.723828,-0.355021 c 0.974212,-0.477827 1.477937,-0.654108 1.962275,-0.686714 0.355544,-0.02395 0.403852,-0.01596 0.595745,0.09841 0.227337,0.135492 0.426028,0.37117 0.533546,0.632855 0.08411,0.20474 0.08992,0.701341 0.0094,0.804891 -0.07733,0.09944 -0.303346,0.166558 -0.768728,0.228283 -0.208146,0.02761 -0.442312,0.05912 -0.520365,0.07002 -0.07806,0.01092 -0.567677,0.01604 -1.088041,0.01138 -0.903523,-0.008 -0.956773,-0.01381 -1.182655,-0.127757 z m 3.085847,-0.236368 c 0.110093,-0.01844 0.216532,-0.05131 0.236531,-0.07306 0.01998,-0.02175 -0.02749,-0.026 -0.105561,-0.0095 -0.308534,0.06541 -1.449682,0.08792 -1.986856,0.03919 -0.566629,-0.0514 -1.059564,-0.177111 -0.985344,-0.251282 0.02156,-0.02157 0.241454,-0.114619 0.488632,-0.206804 0.790925,-0.294977 1.495236,-0.606453 1.371875,-0.606695 -0.190376,-2.59e-4 -1.215912,0.367141 -1.693764,0.606982 -0.426038,0.213835 -0.439684,0.225743 -0.425757,0.371435 l 0.01441,0.150514 1.44284,0.0063 c 0.793562,0.0035 1.532913,-0.0087 1.643006,-0.02717 z m -0.330266,-0.27925 0.248358,-0.01766 -5.11e-4,-0.226007 c -9.83e-4,-0.313389 -0.08411,-0.463014 -0.267442,-0.481258 -0.161836,-0.01611 -0.813158,0.216423 -1.41427,0.504909 l -0.37541,0.180171 0.354798,0.03137 c 0.378977,0.03351 1.048013,0.03741 1.454661,0.0085 z m 0.522976,-0.325355 c 9.84e-4,-0.07938 -0.0088,-0.11768 -0.02182,-0.08511 -0.01298,0.03257 -0.01375,0.09752 -0.0016,0.144331 0.01202,0.04681 0.02259,0.02015 0.02356,-0.05922 z m 5.662301,0.520198 c -0.7473,-0.223151 -1.737375,-0.60811 -2.038396,-0.792571 -0.201476,-0.123457 -0.237247,-0.166265 -0.219196,-0.262322 0.02551,-0.135734 0.05738,-0.138065 0.554573,-0.04054 0.208145,0.04082 0.708409,0.105389 1.111688,0.143473 1.203615,0.113661 1.122362,0.09092 1.16125,0.325008 0.02428,0.145973 0.08269,0.247677 0.212905,0.370477 0.156465,0.147556 0.213992,0.282288 0.19219,0.450128 -0.008,0.06126 -0.346565,-0.006 -0.975014,-0.193651 z m 0.460598,-0.267623 c -0.0417,-0.112456 -0.09295,-0.228026 -0.113896,-0.256821 -0.05246,-0.07209 -0.443084,-0.152469 -1.025827,-0.211083 -0.692888,-0.06969 -0.736453,-0.06169 -0.43257,0.07945 0.205253,0.09533 1.577016,0.59292 1.634574,0.59292 0.0075,0 -0.0206,-0.09201 -0.06228,-0.204468 z M 8.7901518,23.506738 C 9.2391687,23.318719 9.5548681,22.997448 9.7159582,22.564581 9.998897,21.804289 9.56371,20.750166 8.8701729,20.515895 8.7350973,20.47027 8.6223154,20.429265 8.6195555,20.424776 8.5892479,20.375564 8.3698784,17.330941 8.3952846,17.312431 8.4142972,17.298594 8.5095027,17.116615 8.6069111,16.908025 8.8253555,16.440219 8.8451244,16.065798 8.6707257,15.699417 8.4769004,15.292221 7.9531674,15.00984 7.3851179,15.006256 c -0.6820683,-0.0043 -1.1428913,0.213382 -1.3580291,0.641524 -0.2554982,0.508457 -0.1066539,1.375186 0.288852,1.681977 0.1975563,0.153245 0.5152081,0.27243 0.7260628,0.27243 h 0.1558617 l 0.026423,0.300687 c 0.014515,0.165378 0.047838,0.839752 0.074087,1.498612 l 0.047685,1.197926 -0.1169013,0.118887 c -0.2719707,0.276591 -0.4760842,0.944917 -0.4375737,1.432764 0.028927,0.366241 0.1573489,0.652644 0.4149682,0.925304 0.2998404,0.317351 0.6123201,0.456882 1.0632433,0.474777 0.226535,0.009 0.435422,-0.0088 0.5203701,-0.0444 z M 37.741495,17.865726 c 0.75453,-0.05949 1.741453,-0.13602 2.193163,-0.170064 l 0.821289,-0.06191 0.188402,-0.16008 c 0.138643,-0.117799 0.352795,-0.212272 0.810776,-0.357668 0.342302,-0.108674 0.774959,-0.24941 0.96146,-0.312749 0.186496,-0.06334 0.372767,-0.115159 0.413926,-0.115159 0.115077,0 0.08955,-0.07508 -0.07275,-0.213966 -0.282284,-0.241558 -0.379294,-0.266164 -1.234846,-0.313198 -1.30093,-0.07152 -4.67084,-0.155929 -5.52426,-0.138375 l -0.78055,0.01606 -0.01288,0.900279 -0.01288,0.900277 0.140611,0.07395 c 0.177408,0.0933 0.382467,0.08869 2.108506,-0.04739 z m -2.582766,-0.937078 c 0.003,-0.357214 0.02781,-0.732698 0.0556,-0.834407 0.06844,-0.250661 0.01635,-0.282533 -0.0833,-0.05098 -0.06177,0.143522 -0.07878,0.306904 -0.07215,0.692954 0.01405,0.817981 0.09373,0.9715 0.09985,0.192438 z m -22.89158,-0.457043 v -0.505152 h -1.442833 c -0.915826,0 -1.4428398,0.0173 -1.4428398,0.04739 0,0.02977 0.5233088,0.05213 1.4073598,0.06014 l 1.407354,0.01275 v 0.312714 0.312715 l -1.407354,0.01275 -1.4073598,0.01275 v 0.11956 0.119557 h 1.4428398 1.442833 z m 31.174732,0.02837 c 0,-0.05543 -0.329228,-0.476303 -0.478557,-0.611777 -0.108898,-0.09879 -0.168788,-0.103333 -1.744832,-0.132394 -4.066932,-0.07499 -5.150179,-0.08376 -5.392895,-0.04364 -0.187749,0.03103 0.273208,0.05186 1.655712,0.07483 1.667126,0.02769 3.210393,0.09353 4.885579,0.208419 0.407348,0.02794 0.488197,0.04906 0.678476,0.177233 0.118807,0.08003 0.238754,0.196278 0.266553,0.258318 0.04993,0.111428 0.129964,0.153933 0.129964,0.06902 z M 11.888703,16.399439 V 16.255108 H 10.753355 9.618008 v 0.144331 0.144329 h 1.135347 1.135348 z M 5.1239288,14.811812 V 14.330714 H 4.887397 4.6508652 v 0.481098 0.481101 H 4.887397 5.1239288 Z M 41.809822,13.951665 c 0.400361,-0.18678 0.591324,-0.503847 0.591324,-0.981831 0,-0.402262 -0.17241,-0.760777 -0.467268,-0.971627 l -0.202973,-0.145151 -1.578795,-0.01443 c -1.054115,-0.0096 -1.643763,0.0034 -1.77429,0.03911 -0.288111,0.0789 -0.596348,0.389001 -0.683571,0.687712 -0.09388,0.321502 -0.0882,0.591747 0.01738,0.827118 0.12332,0.274902 0.40587,0.53516 0.648433,0.597275 0.126147,0.0323 0.786525,0.05181 1.732197,0.05115 1.38086,-10e-4 1.54659,-0.0096 1.717554,-0.08934 z m -21.257838,-0.09673 c 0.204752,-0.163791 0.462345,-0.765535 0.516802,-1.207253 0.04323,-0.350785 0.03956,-0.40783 -0.03148,-0.48769 -0.04426,-0.04974 -0.09793,-0.09044 -0.119237,-0.09044 -0.07043,0 -0.179423,0.273267 -0.322625,0.808875 -0.07772,0.290685 -0.194029,0.649766 -0.258473,0.797963 l -0.117172,0.269446 h 0.109281 c 0.06011,0 0.160415,-0.04091 0.222916,-0.0909 z m 16.017712,-0.808128 c 0.282248,-0.0575 0.400234,-0.587607 0.180522,-0.811053 L 36.634099,12.117665 H 33.896442 31.15878 l -0.102857,0.111347 c -0.148379,0.160631 -0.14269,0.509722 0.0113,0.691811 l 0.114142,0.134983 2.641439,0.0062 c 1.45279,0.0034 2.688898,-0.0034 2.746908,-0.01523 z M 33.406053,11.31549 c 0.284313,-0.01944 0.298797,-0.02626 0.267974,-0.126364 -0.01794,-0.0582 -0.05471,-0.222609 -0.08173,-0.365344 l -0.04916,-0.259524 -0.485504,0.03021 c -0.267024,0.01663 -0.848857,0.04474 -1.292958,0.0625 l -0.807463,0.03228 -0.04937,0.14407 c -0.06912,0.201636 -0.06149,0.40335 0.0164,0.433748 0.08909,0.03476 2.105925,0.07412 2.481821,0.04843 z m 3.538512,12.709368 c 0.0075,-0.04944 4.60269,-0.523617 4.646132,-0.479432 0.07513,0.07641 -0.2694,0.126757 -2.217143,0.323997 -2.207637,0.22356 -2.441552,0.238528 -2.428989,0.155435 z M 36.70471,23.248214 c -0.0164,-0.04348 -0.02402,-0.08475 -0.01686,-0.09171 0.0071,-0.007 1.013462,-0.122753 2.236324,-0.257313 1.222866,-0.134558 2.28193,-0.255119 2.353477,-0.26791 0.07155,-0.0128 0.129765,-0.0076 0.129372,0.01161 -0.003,0.157137 -0.115312,0.17797 -2.278745,0.423663 -2.601376,0.295433 -2.386688,0.27934 -2.423542,0.18165 z m -0.207895,-0.918859 c 0.01395,-0.07356 0.304128,-0.119426 2.370751,-0.374701 2.279108,-0.28152 2.354442,-0.287791 2.341077,-0.194804 -0.01288,0.08978 -0.156367,0.113977 -2.189887,0.369301 -2.506889,0.314759 -2.544189,0.31772 -2.521941,0.200204 z m -0.209986,-0.85366 c -0.01472,-0.05911 -0.255202,-0.01668 2.423659,-0.427597 1.848828,-0.283591 2.285563,-0.33741 2.305669,-0.284129 0.01365,0.03615 0.01258,0.07819 -0.0021,0.09342 -0.02704,0.02747 -4.611583,0.686763 -4.679604,0.67296 -0.01953,-0.004 -0.04079,-0.02855 -0.04733,-0.05465 z M 36.073905,20.57297 c 0.01911,-0.05836 4.256734,-0.795198 4.615861,-0.802599 0.123924,-0.0026 0.153904,0.01422 0.141596,0.07924 -0.01339,0.07067 -0.344126,0.132014 -2.30964,0.428398 -2.583629,0.38959 -2.474456,0.376436 -2.447817,0.294964 z m -0.240351,-0.926191 c 0.04467,-0.04542 4.736796,-0.929527 4.800749,-0.90457 0.03511,0.01371 0.06382,0.05111 0.06382,0.08313 0,0.03873 -0.376079,0.120084 -1.123521,0.243035 -0.617937,0.101644 -1.666359,0.276573 -2.329828,0.388729 -1.189258,0.201037 -1.457896,0.237142 -1.411225,0.189676 z m 8.167351,-3.319502 c -0.231957,-0.693399 -0.378502,-1.802928 -0.472466,-3.577234 -0.0527,-0.995146 -0.051,-1.078914 0.02284,-1.120946 0.0439,-0.02498 0.07981,-0.06058 0.07981,-0.07912 0,-0.01854 -2.144738,-0.03369 -4.766091,-0.03369 h -4.766096 l -0.05508,-0.457043 c -0.0303,-0.251374 -0.0569,-0.544852 -0.05913,-0.652172 l -0.0041,-0.195131 0.43758,-0.06574 c 0.240672,-0.03616 0.501444,-0.105226 0.579503,-0.1534885 0.13366,-0.082645 0.327664,-0.087727 3.335083,-0.087359 2.665618,2.583e-4 3.236142,0.012126 3.453344,0.071414 0.1431,0.039062 0.453969,0.071283 0.690823,0.071594 0.236854,2.59e-4 0.561493,0.01448 0.721418,0.03148 l 0.290778,0.03091 v 0.355132 0.355132 l 0.177399,-0.0069 c 0.09756,-0.0038 0.432698,0.01973 0.744733,0.05227 0.31204,0.03253 0.753861,0.05008 0.981822,0.039 0.505043,-0.02456 0.632196,-0.102164 0.768841,-0.469272 l 0.09461,-0.254173 0.709591,0.0292 c 0.390277,0.01606 0.943761,0.06238 1.22996,0.102925 1.223045,0.173268 1.530476,0.180698 6.268058,0.151471 2.562813,-0.0158 5.617605,-0.05214 6.788433,-0.08073 1.170822,-0.02859 4.278834,-0.07306 6.906693,-0.09883 2.62785,-0.02575 4.932251,-0.05895 5.120884,-0.07374 l 0.342971,-0.0269 v 2.433497 2.433496 l -0.153746,0.0038 c -0.08456,0.0021 -0.127353,0.01464 -0.09509,0.0279 0.08346,0.0343 -0.163665,0.35318 -0.273708,0.35318 -0.04707,0 -0.124654,-0.05054 -0.172431,-0.112309 -0.06989,-0.09036 -0.156087,-0.12075 -0.441019,-0.15549 -0.698775,-0.0852 -1.025336,-0.05909 -1.449661,0.115896 -0.212256,0.08753 -0.477281,0.238704 -0.588944,0.335939 l -0.203029,0.176788 -1.989234,0.03065 c -1.094083,0.01686 -2.383058,0.05545 -2.864396,0.08575 -0.723048,0.04553 -11.470567,0.476968 -16.935592,0.679851 -2.079968,0.07722 -3.819193,0.129643 -4.091066,0.123317 l -0.235612,-0.0055 -0.128749,-0.384879 z m 1.120342,0.183058 c 3.719146,-0.199709 20.293802,-0.837334 22.659632,-0.871712 l 2.270695,-0.033 0.318833,-0.224357 c 0.175354,-0.123395 0.420166,-0.261121 0.544018,-0.306063 0.439536,-0.159485 0.530127,-0.224698 0.563506,-0.405649 0.03844,-0.208265 -0.02065,-2.608804 -0.06988,-2.840556 -0.03506,-0.164911 -0.04063,-0.168384 -0.270371,-0.168384 h -0.234591 l -0.02366,0.601372 -0.02367,0.601374 -1.383705,0.01275 -1.383701,0.01275 v -0.746429 -0.74643 l 1.099868,-9.5e-5 c 1.00181,-4.7e-5 1.114628,-0.0084 1.265434,-0.09378 0.34124,-0.193157 0.668055,-0.339117 0.759304,-0.339117 0.132879,0 0.495404,0.354447 0.606791,0.593265 0.05145,0.110302 0.117039,0.373743 0.145772,0.585426 0.02872,0.211683 0.08882,0.54725 0.133527,0.745703 0.09723,0.431599 0.108003,1.690668 0.01595,1.86556 -0.05352,0.101707 -0.04753,0.106995 0.122784,0.107959 0.09848,5.18e-4 0.328078,0.05459 0.510205,0.120065 0.182126,0.06548 0.356193,0.119146 0.386813,0.11926 0.03061,9.6e-5 0.08916,-0.06807 0.130091,-0.151513 0.06444,-0.131373 0.07443,-0.447521 0.07443,-2.357382 0,-2.069203 -0.0051,-2.205556 -0.08279,-2.203969 -0.04554,10e-4 -0.285014,0.03446 -0.532191,0.07449 -0.35166,0.05697 -1.231402,0.08227 -4.044675,0.116341 -1.977391,0.02395 -4.627718,0.06633 -5.889611,0.09417 -1.261889,0.02784 -4.348613,0.06369 -6.859388,0.07965 -5.284135,0.03359 -6.678972,-0.0026 -7.616284,-0.196977 -0.369271,-0.07662 -0.840884,-0.134078 -1.255903,-0.152994 l -0.664568,-0.0303 -0.06147,0.211427 c -0.09206,0.316689 -0.258212,0.511891 -0.49109,0.576905 -0.136358,0.03807 -0.466307,0.04669 -1.039457,0.02716 l -0.839683,-0.02861 v 0.147486 c 0,0.08112 -0.03526,0.223079 -0.07838,0.315471 -0.06912,0.148138 -0.07483,0.308135 -0.0483,1.354346 0.04176,1.646696 0.144823,2.652201 0.339885,3.315223 l 0.07432,0.252578 0.293825,-0.0091 c 0.161606,-0.005 0.421561,-0.01596 0.577668,-0.02434 z m 22.210227,-1.698521 v -0.673539 h 1.348221 1.348226 v 0.673539 0.673538 h -1.348226 -1.348221 z m 1.431007,0.396955 -1.052561,-0.01391 V 14.834956 14.47505 h 1.040734 c 0.899174,0 1.040736,-0.0099 1.040736,-0.07305 0,-0.0636 -0.142237,-0.07138 -1.099868,-0.06014 l -1.099869,0.01291 -0.0136,0.445016 -0.01359,0.445018 1.125294,-0.01107 1.125294,-0.01107 z m 0.697769,-0.3729 v -0.168384 h -0.709596 -0.70959 v 0.168384 0.168386 h 0.70959 0.709596 z m -5.014455,-0.46039 c 0,-0.724327 9.8e-5,-0.724979 0.106445,-0.70962 0.103582,0.01497 0.106791,0.03272 0.119702,0.662429 0.0073,0.355882 0.0026,0.675211 -0.01037,0.70962 -0.01298,0.03441 -0.06685,0.06257 -0.119707,0.06257 -0.09234,0 -0.0961,-0.02834 -0.0961,-0.724995 z m -1.111689,0.0033 v -0.697593 h 0.118266 0.118261 l 0.01314,0.712943 0.01314,0.712941 -0.131374,-0.01533 -0.131376,-0.01533 v -0.697593 z m -1.088041,0 v -0.697593 l 0.112914,-0.01624 c 0.06211,-0.0089 0.130962,0.01272 0.15302,0.04811 0.04621,0.07417 0.05635,1.195945 0.01186,1.313871 -0.01937,0.05128 -0.07291,0.07361 -0.153741,0.06407 l -0.124051,-0.01464 v -0.697593 z m -1.082982,0.645548 c -0.03737,-0.09906 -0.03737,-1.192035 0,-1.291096 0.03716,-0.09843 0.189266,-0.09843 0.226407,0 0.01579,0.04186 0.02872,0.332355 0.02872,0.64555 0,0.313199 -0.01293,0.603694 -0.02872,0.645548 -0.03716,0.09844 -0.189266,0.09844 -0.226407,0 z m -1.022141,-0.649073 c 0,-0.664722 0.0069,-0.72383 0.08278,-0.709026 0.07314,0.01427 0.08433,0.09146 0.09605,0.662611 0.01431,0.697655 0.0041,0.771591 -0.106393,0.771591 -0.06185,0 -0.07244,-0.106044 -0.07244,-0.725176 z m -1.111695,0.0035 c 0,-0.665519 0.0046,-0.697593 0.09461,-0.697593 0.08976,0 0.09528,0.03651 0.107722,0.713137 l 0.01314,0.713137 -0.107728,-0.01554 c -0.106438,-0.01536 -0.107722,-0.02387 -0.107722,-0.713137 z m -1.082982,0.645547 c -0.03736,-0.09906 -0.03736,-1.192036 0,-1.291095 0.03716,-0.09844 0.189266,-0.09844 0.226413,0 0.01579,0.04185 0.02872,0.33235 0.02872,0.645548 0,0.313195 -0.01293,0.603693 -0.02872,0.645547 -0.03716,0.09843 -0.189267,0.09843 -0.226413,0 z m -1.069447,-0.645547 c 0,-0.584757 0.01252,-0.721648 0.0659,-0.721648 0.10396,0 0.123325,0.113328 0.123325,0.721648 0,0.60832 -0.01937,0.721648 -0.123325,0.721648 -0.0534,0 -0.0659,-0.136889 -0.0659,-0.721648 z m -1.064383,0 c 0,-0.665519 0.0041,-0.697593 0.09461,-0.697593 0.08976,0 0.09528,0.03652 0.107722,0.713137 l 0.01314,0.713137 -0.107727,-0.01554 c -0.106439,-0.01536 -0.107723,-0.02387 -0.107723,-0.713137 z m -1.135348,0 v -0.697602 l 0.112914,-0.01624 c 0.06211,-0.0089 0.130962,0.01272 0.153021,0.04811 0.04625,0.07417 0.05635,1.195945 0.01186,1.31387 -0.01937,0.05128 -0.07292,0.07361 -0.153751,0.06407 l -0.124046,-0.01464 z m -1.082982,0.645547 c -0.0438,-0.11604 -0.03281,-1.238041 0.01283,-1.311266 0.02203,-0.03539 0.09091,-0.05704 0.153019,-0.04811 0.111858,0.01609 0.113038,0.02232 0.126178,0.663293 0.0073,0.355882 0.0026,0.675211 -0.01037,0.70962 -0.03332,0.08827 -0.247163,0.07799 -0.281697,-0.01353 z M 52.524658,14.37562 v -0.724842 l 0.130092,0.01523 0.130087,0.01523 0.01328,0.647055 c 0.0073,0.355882 0.0026,0.675211 -0.01037,0.70962 -0.01298,0.03441 -0.07749,0.06257 -0.143361,0.06257 h -0.119748 z m -1.028914,0.05071 c -0.01155,-0.634325 0.0186,-0.815188 0.124808,-0.748429 0.0347,0.0218 0.0526,0.270899 0.0526,0.731338 0,0.639111 -0.007,0.696913 -0.08278,0.682129 -0.07325,-0.0143 -0.08415,-0.0909 -0.09461,-0.665038 z m -1.052556,-0.04751 c 0,-0.584757 0.01247,-0.721647 0.06589,-0.721647 0.103966,0 0.123332,0.113327 0.123332,0.721647 0,0.60832 -0.01937,0.721648 -0.123332,0.721648 -0.05339,0 -0.06589,-0.136888 -0.06589,-0.721648 z m -1.111695,-7.79e-4 c 0,-0.66486 0.0046,-0.696935 0.09461,-0.696935 0.08926,0 0.09536,0.03657 0.107875,0.647056 0.01456,0.711051 0.0026,0.786996 -0.119558,0.763054 -0.07449,-0.01458 -0.08293,-0.08722 -0.08293,-0.713175 z m -1.088041,7.79e-4 c 0,-0.665519 0.0041,-0.697593 0.09461,-0.697593 0.08976,0 0.09528,0.03652 0.107728,0.713138 l 0.01314,0.713137 -0.107723,-0.01554 c -0.10644,-0.01537 -0.107728,-0.02387 -0.107728,-0.713143 z m -1.082977,0.645548 c -0.01579,-0.04185 -0.02872,-0.33235 -0.02872,-0.645548 0,-0.629869 0.01804,-0.721647 0.141914,-0.721647 0.123872,0 0.141919,0.09178 0.141919,0.721647 0,0.313198 -0.01293,0.603694 -0.02872,0.645548 -0.03716,0.09844 -0.189266,0.09844 -0.226402,0 z M 64.824246,12.117657 V 11.3479 h 1.37188 1.371874 v 0.769757 0.769758 h -1.371874 -1.37188 z m 2.507228,0.02495 V 11.588455 H 66.21823 65.104987 l 0.01339,0.541237 0.01339,0.541235 1.099863,0.01291 1.099873,0.01291 z m -2.128777,-0.049 v -0.457046 h 0.993429 0.993429 v 0.457046 0.457043 h -0.993429 -0.993429 z m 1.750326,-0.02405 v -0.243056 l -0.721422,0.01326 -0.721418,0.01329 v 0.216496 0.216493 l 0.721418,0.01329 0.721422,0.01327 z m -5.156369,-0.02405 v -0.697593 h 1.37188 1.371879 v 0.697593 0.697593 h -1.371879 -1.37188 z m 2.459921,0.408934 c 0,-0.0933 -0.03153,-0.09622 -1.040735,-0.09622 h -1.040735 v -0.384879 c 0,-0.224512 -0.01972,-0.384879 -0.04733,-0.384879 -0.02837,0 -0.04732,0.192441 -0.04732,0.481101 v 0.481098 h 1.088041 c 1.056502,0 1.088041,-0.0028 1.088041,-0.09622 z M 63.972737,11.97334 V 11.780902 H 63.21584 62.458943 v 0.192438 0.192441 h 0.756897 0.756897 z m -5.476913,0.03608 0.01303,-0.733678 1.383706,-0.01275 1.383701,-0.01275 v 0.746432 0.746429 h -1.396759 -1.396765 z m 2.543933,0.03608 v -0.505156 h -1.111694 -1.111694 v 0.505156 0.505152 h 1.111694 1.111694 z m -2.166326,-0.108249 -0.0139,-0.348797 h 1.019158 1.019152 v 0.361781 0.361781 l -1.005256,-0.01298 -1.005255,-0.01298 z m 1.756341,0.148339 c 0.01733,-0.01764 0.03153,-0.09341 0.03153,-0.168383 V 11.780895 H 59.928054 59.19481 v 0.168383 0.168386 h 0.701709 c 0.385934,0 0.715898,-0.01443 0.733244,-0.03208 z M 55.457637,12.0455 v -0.697593 h 1.419181 1.419186 v 0.697593 0.697593 h -1.419186 -1.419181 z m 2.554528,0.02405 c 0,-0.395572 -0.01262,-0.481101 -0.07095,-0.481101 -0.05716,0 -0.07096,0.07484 -0.07096,0.384879 v 0.384879 h -1.04073 c -1.0092,0 -1.040734,0.0029 -1.040734,0.09622 0,0.09349 0.03153,0.09622 1.111689,0.09622 h 1.111694 z M 57.539107,11.97333 V 11.780892 H 56.78221 56.025308 v 0.192438 0.192441 h 0.756902 0.756897 z m 14.329607,2.060706 c -0.0021,-0.458647 -0.02024,-0.942149 -0.03991,-1.074453 -0.02438,-0.16376 -0.03844,0.05125 -0.04421,0.673539 -0.0046,0.502747 -0.01328,0.976922 -0.01921,1.05372 -0.006,0.07738 0.01559,0.148878 0.04835,0.160367 0.0459,0.01609 0.05821,-0.165626 0.055,-0.813173 z M 70.548286,12.62282 c 0,-0.06196 -0.146984,-0.07217 -1.039023,-0.07217 h -1.039018 l -0.01544,-0.46907 -0.01544,-0.469073 -0.0099,0.541238 -0.0099,0.541234 h 1.064387 c 0.914583,0 1.064389,-0.01016 1.064389,-0.07216 z m 1.226224,-0.284649 c 0.0021,-0.05071 -0.0091,-0.07913 -0.02484,-0.06315 -0.01569,0.01598 -0.01737,0.05748 -0.0035,0.09221 0.01513,0.03838 0.02632,0.02698 0.02856,-0.02906 z m -1.48159,-0.09565 c 0.01405,-0.03717 0.0187,-0.140007 0.01037,-0.22852 l -0.01518,-0.160939 -0.74507,-0.01324 -0.74507,-0.01324 v 0.241771 0.241771 h 0.734726 c 0.587328,0 0.739847,-0.01355 0.760234,-0.06758 z m 0.681124,-0.823691 c 0.11708,-0.03346 0.266093,-0.04949 0.331143,-0.03561 0.08126,0.01732 0.103466,0.0095 0.07095,-0.02493 -0.101431,-0.107559 -0.404475,-0.08767 -0.550606,0.03614 -0.06143,0.05204 -0.101031,0.09251 -0.08802,0.08994 0.01303,-0.0026 0.119446,-0.03206 0.236532,-0.06552 z M 43.46047,11.175591 c 0.01579,-0.04186 0.02872,-0.08515 0.02872,-0.09622 0,-0.01107 -0.110421,-0.02012 -0.245379,-0.02012 h -0.245384 l 0.129965,-0.137956 c 0.111575,-0.11844 0.127884,-0.171194 0.115291,-0.372851 l -0.01467,-0.234895 -0.331143,-0.03775 c -0.528532,-0.06024 -7.685425,-0.09888 -7.801146,-0.04212 -0.134595,0.06603 -0.333924,0.109094 -0.637199,0.137672 l -0.254384,0.02397 0.02928,0.247767 c 0.0161,0.136274 0.02944,0.328955 0.0297,0.428182 l 5.06e-4,0.18041 h 4.583632 c 4.136036,0 4.586439,-0.0074 4.612346,-0.0761 z m 30.304633,1.396813 v -2.383747 l 2.566356,0.01433 c 2.853305,0.01593 2.785541,0.0083 3.03509,0.34106 0.186675,0.2489 0.236112,0.462323 0.133736,0.577368 -0.13462,0.151282 -0.477388,0.33377 -0.712943,0.379573 -0.216318,0.04206 -0.640772,-0.02534 -1.02487,-0.162757 -0.559122,-0.200025 -0.821075,-0.240221 -1.732142,-0.265799 -1.117797,-0.03138 -1.333644,-0.0058 -1.516022,0.179674 -0.07382,0.07508 -0.134227,0.168406 -0.134227,0.207392 0,0.07438 0.555845,0.448533 0.897344,0.604025 0.230255,0.104841 0.218833,0.118952 -0.160482,0.198272 -0.246104,0.05146 -0.313373,0.09263 -0.552543,0.33814 -0.355303,0.364718 -0.446303,0.649589 -0.299171,0.93656 0.08024,0.156496 0.0672,0.315611 -0.05919,0.722057 -0.06013,0.193366 -0.368766,0.697593 -0.426994,0.697593 -0.0077,0 -0.01395,-1.072687 -0.01395,-2.383746 z m 0.567677,-0.129602 c 0.11708,-0.133315 0.273141,-0.26845 0.346799,-0.300301 l 0.133926,-0.05791 -0.231268,-0.150923 c -0.362464,-0.236547 -0.456468,-0.359469 -0.425118,-0.55592 0.01462,-0.09152 0.06445,-0.225221 0.110773,-0.297121 0.150122,-0.233007 0.302192,-0.261926 1.377353,-0.261926 1.232046,0 1.693789,0.05337 2.070558,0.239309 0.221087,0.109113 0.380511,0.147768 0.715519,0.173488 0.396421,0.03043 0.446718,0.02413 0.626166,-0.07843 0.135464,-0.07743 0.195123,-0.143613 0.195123,-0.216457 0,-0.149956 -0.165183,-0.343087 -0.343707,-0.401861 -0.312275,-0.102806 -1.242441,-0.148952 -3.003197,-0.148991 l -1.809459,-4.2e-5 v 1.154637 c 0,0.635051 0.0053,1.152436 0.01181,1.149741 0.0065,-0.0027 0.107619,-0.113969 0.224705,-0.247287 z m 0.07873,1.603792 c 0.0041,-0.09012 0.03449,-0.214602 0.06713,-0.276632 l 0.05935,-0.11278 h 11.227207 11.227207 v 0.256586 c 0,0.141122 -0.01426,0.271065 -0.03163,0.288758 -0.01737,0.01769 -5.099847,0.02672 -11.294333,0.02004 L 74.40374,14.210436 Z m 22.249749,-0.100752 c 0,-0.09594 -0.03153,-0.09622 -10.975016,-0.09622 -10.943486,0 -10.975021,2.58e-4 -10.975021,0.09622 0,0.09594 0.03154,0.09622 10.975021,0.09622 10.943482,0 10.975016,-2.58e-4 10.975016,-0.09622 z M 49.994861,9.1365916 c -0.181529,-0.023764 -0.337933,-0.067271 -0.347566,-0.096656 -0.01262,-0.038458 -0.03619,-0.037663 -0.08419,0.00286 -0.0968,0.081707 -0.42812,0.02498 -1.186692,-0.2032112 C 46.720866,8.3415859 46.617591,8.3178983 46.100088,8.3174352 45.577955,8.316918 44.968353,8.3931652 44.87484,8.4705846 44.83375,8.5046246 44.81172,8.4863076 44.79653,8.4054366 44.78493,8.3435646 44.685782,7.8112433 44.576245,7.2224994 44.466704,6.6337549 44.36049,6.1520549 44.34021,6.1520549 c -0.02024,0 -0.01921,0.079565 0.0026,0.1768109 0.02156,0.097246 0.06416,0.4165751 0.09464,0.7096207 0.03046,0.2930455 0.09574,0.693846 0.145032,0.8906672 0.130681,0.5219251 0.133548,0.5132595 -0.182408,0.5524758 -0.149605,0.018566 -0.421024,0.055286 -0.603151,0.08159 -0.182131,0.026301 -0.458871,0.059501 -0.614982,0.073773 -0.156107,0.014273 -0.30512,0.042855 -0.331145,0.063519 -0.02602,0.020661 -0.20696,0.085175 -0.402099,0.1433537 -0.195139,0.058182 -0.422174,0.1390506 -0.504521,0.1797123 -0.128207,0.063303 -0.345756,0.070049 -1.513793,0.046946 -0.750243,-0.014845 -1.576949,-0.048765 -1.837134,-0.075394 -0.260186,-0.026628 -1.205424,-0.06377 -2.100533,-0.082544 L 34.86521,8.8784514 34.709124,8.7390776 C 34.56792,8.6129933 34.511097,8.5970223 34.113205,8.5715659 33.722171,8.5465597 33.656762,8.5287575 33.523618,8.4111886 33.272433,8.1893846 32.891524,8.1479364 31.155161,8.1534782 l -1.524776,0.00489 -0.01268,-1.1314631 c -0.0095,-0.8530648 -0.02724,-1.1363896 -0.0718,-1.1514812 -0.04621,-0.015645 -0.05913,0.2320342 -0.05913,1.133273 v 1.1532915 l -0.153746,0.028328 c -0.501,0.092319 -2.050339,0.1907081 -3.063071,0.1945144 -1.905083,0.00716 -2.160454,-0.1012667 -2.318744,-0.98451 -0.07734,-0.4315347 -0.0804,-1.5155738 -0.0051,-1.7413681 l 0.06031,-0.1804109 0.694098,0.00483 c 0.381748,0.00265 1.034695,0.02247 1.450992,0.044051 0.416292,0.021591 1.706111,0.063225 2.866257,0.092519 2.076302,0.052423 2.115967,0.055275 2.53088,0.1819593 l 0.421515,0.1287045 3.228644,0.016705 3.228644,0.016706 V 5.8444014 c 0,-0.065784 0.02126,-0.1329916 0.04733,-0.1493452 0.02602,-0.016368 0.04733,-0.2300304 0.04733,-0.4749382 0,-0.4235931 0.0063,-0.4512091 0.130088,-0.5689849 0.239996,-0.2283546 0.42545,-0.2917939 0.843822,-0.2886544 0.448854,0.00338 0.697585,0.061453 0.923016,0.2155464 0.150684,0.102997 0.162731,0.1312331 0.189895,0.4451189 0.01595,0.1843284 0.04554,0.4488016 0.06572,0.5877206 l 0.0367,0.2525776 1.968437,-0.0013 c 1.803806,-0.00104 1.990818,-0.00879 2.236009,-0.092265 0.404578,-0.1377215 1.89508,-0.4642939 2.872098,-0.6292821 0.477929,-0.080708 0.943541,-0.1784295 1.034689,-0.2171598 0.09114,-0.038728 0.213726,-0.070416 0.27241,-0.070416 0.05868,0 0.133195,-0.032475 0.165588,-0.072167 0.08812,-0.1079905 0.175237,-0.087269 0.209045,0.049727 0.106368,0.4309895 0.278135,2.2958513 0.282653,3.0687277 0.0046,0.7787925 0.01058,0.8382622 0.06583,0.6494835 0.142221,-0.4859829 0.07263,-1.5691711 -0.209015,-3.2535836 -0.04119,-0.2463144 -0.06266,-0.4602807 -0.04774,-0.4754757 0.04758,-0.048417 1.802461,-0.1061932 3.300103,-0.1086574 l 1.448452,-0.00234 0.02934,0.1804109 c 0.0161,0.099226 0.02959,0.2886597 0.03,0.420963 2.56e-4,0.1323013 0.04354,0.5003427 0.09597,0.8178674 0.133246,0.8070135 0.135357,1.5331687 0.006,2.0749075 -0.05604,0.2347422 -0.113365,0.526849 -0.127389,0.6491244 l -0.02551,0.2223191 -1.523637,0.045818 c -2.123032,0.063848 -2.424283,0.065614 -2.799821,0.01642 z m 2.964605,-0.2783183 1.120751,-0.01381 0.03118,-0.2276566 c 0.01718,-0.1252127 0.07429,-0.3757762 0.126965,-0.5568123 0.08296,-0.2851403 0.09232,-0.4170201 0.07002,-0.9862528 -0.01538,-0.3933351 -0.06527,-0.8386609 -0.124189,-1.1094155 -0.05414,-0.248776 -0.09845,-0.5342214 -0.09845,-0.6343249 0,-0.1001029 -0.02198,-0.240824 -0.04886,-0.3127168 l -0.04886,-0.1307107 -2.020778,0.027236 c -1.111424,0.014975 -2.055732,0.041338 -2.098464,0.058572 -0.07003,0.02825 -0.07125,0.055889 -0.01232,0.2807545 0.156669,0.5980229 0.228697,1.3090709 0.227516,2.2459807 -5.11e-4,0.5159774 -0.02367,1.0274811 -0.05117,1.1366712 l -0.04998,0.1985307 0.242011,0.029575 c 0.133108,0.016264 0.550693,0.024746 0.927958,0.018878 0.377265,-0.00587 1.190275,-0.016913 1.806689,-0.024492 z m -3.538482,-0.051754 c 0.06209,-0.1021669 0.08108,-1.0014224 0.03424,-1.620112 -0.0704,-0.9295165 -0.200444,-2.0114277 -0.248292,-2.0656841 -0.02438,-0.027652 -0.137841,-0.013628 -0.293631,0.036322 -0.251788,0.080716 -0.826696,0.2061437 -2.467465,0.5383203 -1.586434,0.3211782 -1.762581,0.3701673 -1.742633,0.4846663 0.0041,0.02431 0.03189,0.3039717 0.06149,0.6214959 0.02959,0.3175242 0.08466,0.7035513 0.122389,0.8578358 0.03772,0.1542845 0.06861,0.3347962 0.06861,0.4011342 0,0.1160044 0.0077,0.1191126 0.201052,0.081262 0.421392,-0.082487 1.440354,-0.020609 2.09326,0.1271238 0.338259,0.076535 0.689739,0.1709151 0.781067,0.2097307 0.20218,0.085927 0.95134,0.3006098 1.19031,0.3411031 0.09555,0.016186 0.185371,0.01024 0.19962,-0.013187 z m -7.563861,0.00416 c 0.07805,-0.011612 0.165793,-0.041176 0.19497,-0.065712 0.02918,-0.024544 0.162592,-0.07769 0.296473,-0.118125 0.133884,-0.040433 0.312243,-0.1141451 0.396359,-0.1637985 0.117264,-0.069221 0.29087,-0.097246 0.744263,-0.1201443 0.325225,-0.01642 0.663004,-0.041254 0.75061,-0.055177 0.155453,-0.024694 0.15858,-0.029773 0.130118,-0.2107807 -0.01605,-0.1020053 -0.04993,-0.3982287 -0.07538,-0.658275 -0.0254,-0.2600457 -0.07143,-0.6514181 -0.102255,-0.8697157 L 44.136241,6.1520452 H 42.278403 40.42057 L 40.40559,6.0197439 C 40.39066,5.8879936 40.38893,5.8873959 39.988522,5.8763461 l -0.4021,-0.011092 0.168409,0.091748 c 0.31362,0.170858 0.649845,0.5242293 0.806294,0.8474196 0.135009,0.2788978 0.14748,0.3413001 0.126801,0.6343197 -0.03072,0.4352713 -0.153587,0.6616529 -0.55931,1.0306023 l -0.335065,0.3046926 0.393146,0.031311 c 0.437118,0.034809 1.450454,0.038047 1.670416,0.00533 z M 39.26781,7.3133714 39.255288,5.8874401 38.983276,5.8730112 38.711265,5.8585823 v 0.1728441 0.172844 L 35.269748,6.189119 31.828229,6.1739677 31.497085,6.0199732 C 31.176351,5.8708162 31.145496,5.865934 30.515483,5.8646746 l -0.650458,-0.0013 V 6.8977376 7.9321 l 0.106435,-9.57e-5 c 0.05854,-4.42e-5 0.448312,-0.022964 0.866157,-0.050953 0.524233,-0.0351 0.958286,-0.035646 1.400388,-0.00182 0.651562,0.04995 0.923951,0.1158131 1.332613,0.3222105 0.166206,0.083948 0.308207,0.1155958 0.520364,0.115981 0.471552,7.796e-4 0.640671,0.046333 0.80475,0.2163947 l 0.14931,0.1547575 2.117645,0.025318 2.117644,0.025318 -0.01252,-1.4259287 z m 0.421408,1.2348089 c 0.153582,-0.040495 0.362914,-0.2696318 0.505712,-0.5535439 0.119436,-0.2374679 0.09446,-0.2435419 -0.123612,-0.030053 -0.201522,0.1972973 -0.362965,0.3042945 -0.459147,0.3042945 -0.03572,0 -0.04748,-0.2831772 -0.03858,-0.9261157 l 0.01283,-0.9261136 0.118265,0.016316 c 0.06504,0.00897 0.16616,0.061466 0.224705,0.1166328 0.05854,0.055166 0.106435,0.078932 0.106435,0.052808 0,-0.1006076 -0.445496,-0.4463347 -0.501604,-0.3892725 -0.01124,0.01143 -0.01477,0.5503993 -0.0078,1.1977003 l 0.01268,1.1769095 z M 27.617983,8.0957716 c 0.104073,-0.00991 0.454731,-0.041462 0.779242,-0.070122 0.32451,-0.02866 0.649563,-0.064225 0.722342,-0.079028 l 0.132326,-0.026914 -0.01272,-1.0161335 -0.01272,-1.016134 -0.520371,-0.029975 c -0.286199,-0.016471 -1.430419,-0.045662 -2.542701,-0.064838 l -2.022337,-0.034861 v 0.6999258 c 0,0.384959 0.02387,0.8146526 0.05306,0.9548721 0.132199,0.6351986 0.232913,0.6701871 1.981107,0.6882601 0.689484,0.00714 1.338762,0.00489 1.442834,-0.00504 z M 40.037054,7.6554777 C 40.17353,7.4796626 40.15091,7.0655517 39.996218,6.9082546 L 39.893903,6.8042025 v 0.4917882 c 0,0.2704853 0.0091,0.4917909 0.02019,0.4917909 0.01109,0 0.06643,-0.059537 0.122918,-0.1323039 z m 0.36432,-2.5172935 C 40.385633,4.9617636 40.343283,4.8099667 40.29447,4.7551157 40.178504,4.6247952 39.931004,4.5543765 39.562621,4.546885 39.273059,4.540995 39.221873,4.555055 39.035719,4.6916452 38.83526,4.8387252 38.829142,4.851076 38.815451,5.1366613 L 38.80134,5.430397 h 0.81303 0.81303 z"
   id="path8969" /></svg>
