<?xml version="1.0" encoding="UTF-8" standalone="no"?>
<!-- Generator: Adobe Illustrator 16.0.0, SVG Export Plug-In . SVG Version: 6.00 Build 0)  -->

<svg
   version="1.1"
   x="0px"
   y="0px"
   width="89.667px"
   height="32px"
   viewBox="0 0 89.667 32"
   enable-background="new 0 0 89.667 32"
   xml:space="preserve"
   id="svg9197"
   sodipodi:docname="sg556.svg"
   inkscape:version="1.1.1 (3bf5ae0d25, 2021-09-20)"
   xmlns:inkscape="http://www.inkscape.org/namespaces/inkscape"
   xmlns:sodipodi="http://sodipodi.sourceforge.net/DTD/sodipodi-0.dtd"
   xmlns="http://www.w3.org/2000/svg"
   xmlns:svg="http://www.w3.org/2000/svg"><defs
   id="defs9201" /><sodipodi:namedview
   id="namedview9199"
   pagecolor="#505050"
   bordercolor="#eeeeee"
   borderopacity="1"
   inkscape:pageshadow="0"
   inkscape:pageopacity="0"
   inkscape:pagecheckerboard="0"
   showgrid="false"
   inkscape:zoom="8.7928007"
   inkscape:cx="47.823215"
   inkscape:cy="4.3217174"
   inkscape:window-width="1440"
   inkscape:window-height="848"
   inkscape:window-x="1358"
   inkscape:window-y="-8"
   inkscape:window-maximized="1"
   inkscape:current-layer="svg9197" />

<g
   id="guides">
</g>
<path
   style="fill:#ffffff;stroke-width:0.0506377"
   d="m 50.26747,30.208696 c 0.957757,-0.193726 1.68636,-0.38142 3.569969,-0.919628 1.706474,-0.487596 2.243214,-0.658595 2.544539,-0.810641 l 0.189895,-0.09581 -0.0028,-0.442053 c -0.0018,-0.243131 -0.04205,-0.681316 -0.0901,-0.973751 -0.07776,-0.473341 -0.09831,-0.530553 -0.187147,-0.521268 -0.05489,0.0056 -1.954576,0.467177 -4.221524,1.025413 -2.266949,0.558244 -4.132903,1.014992 -4.146536,1.014992 -0.047,0 0.03733,0.431434 0.163977,0.838871 0.06982,0.224644 0.218017,0.549362 0.329336,0.721587 l 0.202382,0.313137 0.469505,-0.0038 c 0.301233,-0.0026 0.723597,-0.05511 1.178432,-0.14712 z m -14.431766,0.0072 c 0.08357,-0.05095 0.225971,-0.176986 0.316487,-0.28008 0.159316,-0.181453 0.164577,-0.201823 0.164577,-0.638421 0,-0.248051 -0.02279,-0.465076 -0.05064,-0.482286 -0.07737,-0.04781 -0.06032,-0.448646 0.03062,-0.71982 0.318051,-0.948324 1.278321,-2.600982 3.400914,-5.853086 l 0.885825,-1.357208 0.107372,0.09834 c 0.137111,0.125601 0.493422,0.301947 1.069478,0.529326 0.550065,0.217127 1.19656,0.308885 1.983461,0.281528 0.510914,-0.01775 0.576093,-0.03221 0.953081,-0.211591 0.222548,-0.105893 0.47735,-0.247981 0.566209,-0.31576 0.08886,-0.06778 0.220091,-0.145479 0.291623,-0.172679 0.07153,-0.02717 0.130268,-0.07849 0.13054,-0.113994 0.0018,-0.125338 0.262336,-0.625035 0.470816,-0.900077 l 0.2111,-0.278503 0.06164,0.61716 c 0.109209,1.093149 1.20839,7.492274 1.305531,7.60035 0.01438,0.01598 5.559929,-1.31032 5.591709,-1.337287 0.03056,-0.02592 -1.514339,-8.241444 -1.558114,-8.285842 -0.02081,-0.02114 -1.358188,-0.03252 -2.971907,-0.02529 l -2.934047,0.01308 -0.02759,0.632974 c -0.01953,0.448325 -0.05202,0.678786 -0.111338,0.790026 -0.118274,0.221775 -0.407148,0.461094 -0.631898,0.523507 -0.113941,0.03165 -0.795311,0.05278 -1.685105,0.05227 -1.393518,-6.29e-4 -1.509115,-0.0077 -1.721671,-0.10398 -0.282303,-0.127791 -0.483283,-0.314421 -0.622688,-0.578242 -0.08552,-0.161839 -0.111138,-0.31703 -0.127429,-0.772224 l -0.02038,-0.569673 h -1.719706 c -1.90161,0 -1.916298,-0.0018 -3.254101,-0.415293 -0.276808,-0.08554 -0.58443,-0.15516 -0.683609,-0.154707 -0.17111,6.29e-4 -1.605127,0.438933 -1.687926,0.515733 -0.02151,0.01993 0.0095,0.146177 0.06894,0.280503 0.07826,0.176948 0.108025,0.346557 0.108025,0.615699 0,0.434278 -0.104203,0.669615 -0.669866,1.512721 -0.417594,0.622418 -2.418257,3.301344 -3.298295,4.416465 -0.895,1.1341 -0.945673,1.209108 -0.982475,1.454547 -0.09598,0.640051 0.690852,1.246906 2.761954,2.130226 0.940958,0.40131 4.014191,1.595187 4.104343,1.594433 0.01238,-1.02e-4 0.09101,-0.04189 0.174552,-0.09284 z M 3.5034939,27.783984 c 1.2033323,-0.494943 3.1767258,-1.469636 7.2158731,-3.564045 5.929309,-3.074506 6.799536,-3.5279 8.588697,-4.474741 1.019624,-0.539604 2.114147,-1.092784 2.432291,-1.229293 2.0956,-0.899197 4.790846,-1.485615 6.778203,-1.474789 0.45953,0.0026 1.017804,0.03492 1.240625,0.07196 0.222804,0.03706 0.689925,0.115605 1.038063,0.174515 0.348138,0.05894 0.781095,0.131785 0.962126,0.161934 0.181032,0.03013 0.391805,0.06649 0.468396,0.08076 l 0.139259,0.02592 v -4.33947 -4.3394577 l -0.113941,0.026231 c -0.06267,0.014405 -0.325988,0.074522 -0.585158,0.1335518 -0.259188,0.059068 -0.868899,0.254718 -1.354931,0.4348505 -2.000697,0.7414824 -4.41071,1.4163824 -6.130032,1.7166314 -1.754689,0.306424 -1.747954,0.306248 -9.184702,0.239803 -10.2616643,-0.09169 -13.2146894,-0.07665 -13.3594068,0.06808 -0.015096,0.01522 0.012204,0.682358 0.060829,1.482576 0.1709422,2.811949 0.186555,3.251498 0.2171894,6.113615 0.044222,4.132618 -0.086248,6.178588 -0.4726685,7.411908 -0.072277,0.230681 -0.075807,0.307575 -0.023211,0.506378 0.1305262,0.493195 0.417382,0.771331 0.891189,0.86409 0.6278218,0.122902 0.6810827,0.118838 1.1912861,-0.09102 z m 1.4675803,-4.536626 c 0.2601842,-0.701381 0.5405993,-1.84184 0.607089,-2.469034 0.028685,-0.270444 0.051896,-0.931271 0.051581,-1.468499 0,-1.318408 -0.091387,-1.902732 -0.5289182,-3.409124 L 5.01208,15.595126 5.2478952,14.849969 5.4836924,14.1048 h 5.7866126 5.786608 l 0.718665,0.511466 c 0.632407,0.450087 0.775871,0.580581 1.195413,1.087306 l 0.476768,0.575844 -0.231632,0.69767 c -0.12741,0.383722 -0.238748,0.706075 -0.247429,0.716341 -0.02617,0.03088 -14.1729077,6.125498 -14.1869605,6.11193 -0.00711,-0.007 0.078052,-0.258002 0.1893354,-0.557999 z M 3.6151363,13.743106 C 3.0533327,13.47114 3.1992389,12.680358 3.8363076,12.544485 c 0.2298267,-0.049 0.6547572,-0.0032 0.8279576,0.08974 0.2798105,0.14975 0.3406954,0.738804 0.1025653,0.992283 -0.227059,0.24169 -0.7780557,0.297474 -1.1516942,0.116599 z m 0.7342682,-0.198537 c 0.2964424,-0.08976 0.4056314,-0.384648 0.2250021,-0.607713 -0.073679,-0.09098 -0.1576946,-0.120228 -0.3924405,-0.136621 -0.1642868,-0.01145 -0.3617684,0.0038 -0.4388511,0.03327 -0.2552779,0.09862 -0.2973608,0.489106 -0.068843,0.638648 0.1471958,0.09631 0.4786821,0.131866 0.6751319,0.07239 z M 55.04046,26.311039 c 0.675601,-0.159633 1.238024,-0.299909 1.249837,-0.311722 0.01183,-0.01182 -0.0098,-0.146467 -0.04812,-0.299222 -0.03829,-0.152764 -0.116361,-0.551193 -0.173531,-0.885402 -0.220893,-1.291644 -0.359551,-2.017414 -0.604688,-3.164862 -0.139823,-0.654493 -0.335416,-1.634333 -0.434667,-2.177422 -0.09925,-0.54309 -0.190824,-1.015922 -0.203492,-1.050734 -0.01765,-0.04844 -0.332158,-0.0633 -1.338241,-0.0633 -0.72336,0 -1.323952,0.0171 -1.334653,0.03799 -0.01074,0.02089 0.328936,1.872338 0.754758,4.114326 0.42584,2.241987 0.775051,4.082035 0.776053,4.089 0.0038,0.02711 0.169473,-0.0081 1.356751,-0.288637 z m 17.714519,-8.395743 c 0.01731,-0.0766 0.06336,-0.267871 0.102237,-0.425074 0.03888,-0.157199 0.07066,-0.504392 0.07066,-0.771534 v -0.485715 l 1.658387,-0.01334 1.6584,-0.01334 0.08604,-0.481059 c 0.0473,-0.264582 0.0872,-0.600692 0.08859,-0.746906 l 0.0026,-0.265846 -8.190642,3.66e-4 c -5.789377,1.82e-4 -8.249352,0.01661 -8.390851,0.05585 -0.278081,0.0772 -0.507764,0.324264 -0.604596,0.650321 -0.0883,0.297305 -0.204783,0.855472 -0.256766,1.230431 l -0.03336,0.240528 h 0.686702 0.686721 v 0.346992 0.346999 l 0.299541,0.235336 0.299559,0.235344 h 5.902607 5.902606 l 0.03157,-0.139258 z M 55.356566,17.795955 c 0.125333,-0.05743 0.569684,-0.251221 0.987443,-0.430592 0.417759,-0.179378 0.784281,-0.358932 0.814477,-0.399015 0.04026,-0.05346 0.196156,-0.07672 0.584757,-0.08732 l 0.529861,-0.01447 -0.295683,-1.645724 C 57.670182,13.508651 57.65937,13.368708 57.769161,12.52237 l 0.03119,-0.240527 H 46.248362 34.696348 v -1.923467 -1.92346 l -0.316487,0.029187 c -0.312754,0.02881 -1.010868,0.138836 -1.354548,0.2134528 l -0.177245,0.038498 -0.01292,4.3925182 -0.01292,4.392513 0.208679,0.198519 0.208679,0.19852 0.310644,-0.09605 c 0.170838,-0.05284 0.61397,-0.192852 0.984749,-0.311174 0.590983,-0.188606 0.697133,-0.20864 0.860837,-0.162488 0.102693,0.02893 0.505744,0.138006 0.895654,0.242345 0.38991,0.104345 0.819792,0.221706 0.955264,0.260807 0.207352,0.05982 1.642441,0.07091 9.064173,0.06998 8.798758,-0.0012 8.818308,-0.0012 9.045678,-0.105566 z m -8.054815,-1.417911 c -0.329481,-0.07067 -0.61537,-0.319063 -0.740541,-0.643391 -0.07062,-0.183046 -0.0911,-0.376269 -0.08951,-0.844967 0.0018,-0.547065 0.0142,-0.629362 0.124661,-0.825366 0.06744,-0.119738 0.203237,-0.267852 0.30178,-0.329147 0.178502,-0.111025 0.188603,-0.111428 2.76563,-0.111428 h 2.586488 l 0.249233,0.153983 c 0.339182,0.20956 0.47127,0.460598 0.509383,0.968053 0.03748,0.4991 -0.04288,0.942706 -0.210626,1.162626 -0.191934,0.251629 -0.442058,0.422584 -0.68947,0.471216 -0.339364,0.06671 -4.494982,0.06534 -4.807027,-0.0018 z m 4.891536,-0.402788 c 0.186219,-0.05416 0.367706,-0.215844 0.431939,-0.384797 0.02615,-0.06876 0.04745,-0.357115 0.04736,-0.640768 0,-0.568667 -0.06733,-0.754064 -0.336963,-0.930756 -0.129558,-0.08489 -0.313555,-0.09136 -2.597596,-0.09136 -2.279743,0 -2.470422,0.0066 -2.626734,0.09198 -0.260881,0.142346 -0.323804,0.354906 -0.304,1.026842 0.01905,0.646448 0.0857,0.798582 0.399393,0.911916 0.207514,0.07497 4.734239,0.09035 4.986602,0.01692 z m 26.165482,0.725008 c 0.425918,-0.01623 0.443096,-0.02145 0.443096,-0.135319 0,-0.06513 0.03315,-0.197778 0.07366,-0.294744 0.04051,-0.09696 0.09894,-0.435857 0.129846,-0.753089 0.03088,-0.317232 0.06701,-0.650172 0.08028,-0.739867 0.03019,-0.204677 0.231306,-0.448388 0.406179,-0.492281 0.0733,-0.01837 0.215377,-0.08924 0.315741,-0.157443 0.176264,-0.119777 0.21232,-0.123998 1.059848,-0.123998 H 81.7448 l 0.186914,0.147133 c 0.31951,0.251491 0.657305,0.277572 3.073273,0.237287 2.278088,-0.03799 2.568906,-0.06096 2.684122,-0.212024 0.368487,-0.483117 0.488998,-0.850812 0.495264,-1.510972 0.0038,-0.377117 -0.112781,-1.024553 -0.213322,-1.187267 -0.03359,-0.05434 -0.549718,-0.06845 -2.693789,-0.07366 -1.458737,-0.0038 -3.117338,0.0134 -3.685803,0.03768 -1.002497,0.04283 -1.032441,0.04126 -0.995748,-0.05158 0.138389,-0.350163 0.199833,-0.862284 0.202985,-1.6916893 l 0.0031,-0.8870121 -0.16776,-0.3409534 -0.167728,-0.3409471 h -0.34901 -0.348993 L 79.733917,7.9396229 C 79.714985,7.8351831 79.620488,7.5574296 79.52393,7.3224005 79.366746,6.939767 79.354202,6.8755921 79.404167,6.7088707 c 0.06611,-0.2206804 0.07505,-1.6776361 0.01164,-1.8987066 -0.02428,-0.0846 -0.117165,-0.2268704 -0.206445,-0.3161502 L 79.047023,4.3316832 H 78.11411 c -0.793071,0 -0.932895,0.011323 -0.932895,0.075516 0,0.041517 -0.07754,0.1771004 -0.172314,0.3012545 -0.396095,0.5189282 -0.542416,1.5906522 -0.337286,2.4704242 0.413226,1.772244 0.631459,4.4437041 0.517225,6.3317231 -0.05397,0.892492 -0.179391,1.905086 -0.305326,2.465593 -0.103514,0.460742 0.218342,0.770804 0.778768,0.750215 0.139238,-0.0051 0.452577,-0.01687 0.696255,-0.02616 z m 5.416869,-3.18067 c -0.131269,-0.09194 -0.147177,-0.284402 -0.03296,-0.39861 0.0684,-0.06838 0.270727,-0.07957 1.439568,-0.07957 1.474368,0 1.519125,0.0082 1.519125,0.27925 0,0.256933 -0.113939,0.277766 -1.519125,0.277766 -1.089267,0 -1.311867,-0.01246 -1.406588,-0.07884 z M 58.77053,15.066786 c 0.18236,-0.383974 0.430228,-0.637798 0.785608,-0.804463 l 0.281868,-0.132206 8.33539,-0.01352 8.335384,-0.01352 0.0312,-0.340929 c 0.130269,-1.422458 0.09469,-2.469253 -0.1605,-4.7210979 l -0.134854,-1.1899903 -2.582544,0.00749 c -4.240397,0.01233 -14.659625,0.077844 -14.659625,0.09223 0,0.00736 -0.11183,0.8082373 -0.248522,1.7797739 -0.136674,0.9715313 -0.300524,2.1839523 -0.364084,2.6942623 -0.111265,0.893316 -0.112467,0.943236 -0.03221,1.341898 0.04585,0.227739 0.120639,0.67612 0.166198,0.996403 0.04555,0.320283 0.08757,0.587273 0.09337,0.593306 0.0058,0.0062 0.07478,-0.124293 0.153292,-0.289617 z m 13.433967,-4.580822 c -0.286018,-0.06064 -0.276551,-0.468963 0.0144,-0.622688 0.164192,-0.086742 0.532351,-0.050075 0.660343,0.065765 0.124713,0.112869 0.130577,0.384847 0.01057,0.492055 -0.138843,0.124061 -0.323749,0.141559 -0.685404,0.06486 z m -3.240817,0 c -0.286033,-0.06064 -0.276552,-0.468907 0.0144,-0.622733 0.16893,-0.089299 0.58094,-0.051896 0.709441,0.064425 0.06052,0.054729 0.100754,0.15577 0.100754,0.252724 0,0.313736 -0.286164,0.41978 -0.824648,0.305589 z m 4.705279,-1.1447871 c -0.157803,-0.1241352 -0.168943,-0.2450811 -0.0375,-0.4074243 0.08256,-0.1019734 0.141805,-0.1186372 0.424963,-0.1195431 0.256038,-6.289e-4 0.353238,0.020821 0.438202,0.097634 0.149706,0.1353005 0.124607,0.3824072 -0.04762,0.4690829 -0.205709,0.1035151 -0.623034,0.082191 -0.778054,-0.039756 z m -3.172411,0.013273 c -0.138659,-0.112278 -0.150598,-0.3541447 -0.02214,-0.4480858 0.200053,-0.1462837 0.655852,-0.1462837 0.855906,0 0.128482,0.093942 0.116523,0.3358078 -0.02214,0.4480855 -0.157066,0.127186 -0.654581,0.127186 -0.81164,0 z m -3.138832,0.026483 c -0.17224,-0.086676 -0.19732,-0.3337823 -0.04762,-0.469083 0.08496,-0.0768 0.18216,-0.098458 0.438198,-0.097634 0.283163,6.29e-4 0.342407,0.01755 0.424987,0.1195432 0.131451,0.1623432 0.120329,0.2832891 -0.03749,0.4074242 -0.155041,0.1219461 -0.572365,0.1432643 -0.778075,0.039756 z m -9.503863,2.5592201 c 0.01219,-0.02095 0.03815,-0.191903 0.05774,-0.379892 l 0.03557,-0.341802 H 46.522093 35.097017 l 0.01493,0.367121 0.01493,0.367122 11.352471,0.01277 c 6.243846,0.0071 11.362426,-0.0044 11.374603,-0.02534 z m 0.159771,-1.139459 c 0.02397,-0.07328 0.38212,-2.6645161 0.381574,-2.7607217 0,-0.040889 -0.04184,-0.054412 -0.114305,-0.037176 -0.06265,0.014908 -0.337653,0.060011 -0.611094,0.1002572 -0.273457,0.040259 -0.567483,0.1082455 -0.653412,0.1511148 -0.130176,0.064936 -0.408494,0.077944 -1.667594,0.077944 H 53.837439 V 7.6485003 6.964889 h -5.13973 -5.139731 V 7.6485003 8.3321117 H 42.747761 41.937562 V 7.6013096 6.8705075 L 41.794954,6.7689612 C 41.518274,6.5719452 40.491132,6.0667742 40.23593,6.0021841 40.018551,5.9471429 39.968461,5.9118222 39.920682,5.7797234 39.869301,5.6375851 39.754922,5.5716112 38.716586,5.0850472 L 37.56926,4.5474239 37.347876,4.857334 c -0.353343,0.4946158 -0.691088,1.01294 -0.837664,1.2855102 -0.135327,0.2516483 -0.13651,0.2524094 -0.430427,0.2768602 -0.187293,0.015601 -0.419306,0.084235 -0.636521,0.1883479 L 35.101459,6.7718799 V 8.8179397 10.864 h 11.445736 c 9.111768,0 11.44994,-0.0129 11.466429,-0.0633 z M 42.874351,6.6610553 c 0.01729,-0.027867 0.08123,-0.050638 0.142245,-0.050638 l 0.110955,-6.2e-6 0.003,-1.329235 c 0.0024,-1.0875821 0.02239,-1.4580062 0.110282,-2.0375929 0.05908,-0.3895972 0.102258,-0.7135224 0.09594,-0.7198379 -0.0063,-0.00629 -0.204037,0.039001 -0.439419,0.1007093 l -0.427986,0.1121834 -0.01456,0.1772325 c -0.008,0.097482 -0.05865,0.405103 -0.112614,0.6836114 -0.149341,0.7705261 -0.175716,1.4308002 -0.08037,2.0123054 0.04448,0.271243 0.08087,0.5629109 0.08087,0.6481461 0,0.085235 0.03476,0.2222027 0.07725,0.3043744 0.06267,0.1211976 0.109901,0.1493977 0.250198,0.1493977 0.09512,0 0.187037,-0.022772 0.204238,-0.050638 z M 56.714408,6.5457645 c 0.02953,-0.035541 0.180613,-0.3944534 0.335779,-0.7975434 0.229975,-0.597439 0.301143,-0.85924 0.385105,-1.4165021 0.197814,-1.3130623 0.190042,-1.8758976 -0.03979,-2.8797921 l -0.08545,-0.3732168 -0.305784,0.034786 c -0.16818,0.019123 -0.505507,0.052588 -0.749624,0.074365 -0.244118,0.021765 -0.452233,0.048751 -0.462497,0.059947 -0.01023,0.011197 0,0.1570717 0.02398,0.3241766 0.104203,0.7423263 0.155603,2.6499968 0.101368,3.7618978 -0.03,0.6149453 -0.05455,1.1537386 -0.05455,1.1973186 0,0.065187 0.07073,0.07924 0.398901,0.07924 0.261809,0 0.41734,-0.022206 0.45256,-0.064653 z M 55.540562,6.2686148 c 0.0615,-0.5239416 0.04587,-2.8018349 -0.02723,-3.9624111 -0.03595,-0.5709374 -0.07371,-1.0467322 -0.08389,-1.0573189 -0.01023,-0.010568 -0.298503,0.00699 -0.640689,0.039063 -0.342204,0.032082 -0.981074,0.080612 -1.419709,0.1078619 -0.438654,0.027238 -1.150475,0.071566 -1.581829,0.09847 l -0.784281,0.048939 -0.46137,0.3102183 c -0.436033,0.2931965 -0.737321,0.4527719 -0.854793,0.4527719 -0.03229,0 -0.05227,-0.1847874 -0.05227,-0.4831735 V 1.3398569 L 49.300393,1.1899561 C 48.882069,1.0022625 48.394363,0.9488003 47.966484,1.0437227 l -0.306857,0.068075 v 0.5891545 0.5891608 l -1.152002,0.032144 c -1.185058,0.033025 -2.403077,0.1156179 -2.671147,0.1810949 -0.144702,0.035352 -0.154677,0.055167 -0.210246,0.4179167 -0.139132,0.9081416 -0.233505,3.3622861 -0.138803,3.6090907 0.02779,0.072415 0.605451,0.080096 6.021861,0.080096 h 5.991138 z"
   id="path9237" /></svg>
