<?xml version="1.0" encoding="UTF-8" standalone="no"?>
<!-- Generator: Adobe Illustrator 16.0.0, SVG Export Plug-In . SVG Version: 6.00 Build 0)  -->

<svg
   version="1.1"
   x="0px"
   y="0px"
   width="12.333px"
   height="32px"
   viewBox="0 0 12.333 32"
   enable-background="new 0 0 12.333 32"
   xml:space="preserve"
   id="svg273"
   sodipodi:docname="smokegrenade.svg"
   inkscape:version="1.1.1 (3bf5ae0d25, 2021-09-20)"
   xmlns:inkscape="http://www.inkscape.org/namespaces/inkscape"
   xmlns:sodipodi="http://sodipodi.sourceforge.net/DTD/sodipodi-0.dtd"
   xmlns="http://www.w3.org/2000/svg"
   xmlns:svg="http://www.w3.org/2000/svg"><defs
   id="defs277" /><sodipodi:namedview
   id="namedview275"
   pagecolor="#505050"
   bordercolor="#eeeeee"
   borderopacity="1"
   inkscape:pageshadow="0"
   inkscape:pageopacity="0"
   inkscape:pagecheckerboard="0"
   showgrid="false"
   inkscape:zoom="16"
   inkscape:cx="0.21875"
   inkscape:cy="14.3125"
   inkscape:window-width="1440"
   inkscape:window-height="848"
   inkscape:window-x="1358"
   inkscape:window-y="-8"
   inkscape:window-maximized="1"
   inkscape:current-layer="svg273" />

<g
   id="guides">
</g>
<path
   style="fill:#ffffff;stroke-width:0.0177123"
   d="M 0.2351848,11.498017 0.270269,11.575797 0.16037147,20.578231 0.05047396,29.580663 0.283548,29.71555 c 0.61230221,0.354462 0.9153081,0.498847 1.4045068,0.668553 1.3419921,0.466238 2.7180357,0.628576 4.0063905,0.472769 1.1767298,-0.14246 2.2644664,-0.479789 3.3117433,-1.026312 L 9.278068,29.688733 9.3889121,20.239594 9.4997094,10.790471 9.4216451,10.567866 c -0.043122,-0.122265 -0.092286,-0.244658 -0.1096925,-0.272235 -0.017548,-0.02508 -0.026076,-0.05507 -0.019543,-0.06121 0.00643,-0.0047 0.1052309,0.0032 0.2191374,0.02004 0.547637,0.08567 1.196501,-0.08078 1.715969,-0.4401893 0.185146,-0.1283404 0.474723,-0.4105959 0.606717,-0.5916326 0.250471,-0.3439214 0.408395,-0.7243404 0.471965,-1.1372979 0.02957,-0.1910131 0.02056,-0.6683915 -0.01604,-0.840052 C 12.163866,6.6483748 11.832276,6.1269268 11.339116,5.7496159 10.522936,5.1251409 9.4196079,5.0298362 8.5458403,5.5084688 8.0881148,5.7591417 7.7303047,6.1128387 7.4930428,6.5491086 7.4241616,6.6759502 7.4164941,6.6839645 7.416691,6.6328336 7.4168011,6.582697 7.4061122,6.5701709 7.3471443,6.5390743 7.2783174,6.5039877 7.2499291,6.5039877 5.0534261,6.4754015 3.1695347,6.4503327 2.820132,6.4503327 2.7687555,6.4727148 2.609728,6.5368921 2.4586226,6.7559737 2.4146556,6.9860916 c -0.011048,0.056652 -0.028574,0.1273462 -0.0396,0.156422 -0.046132,0.1238282 -0.040603,0.2130716 0.023066,0.3674853 0.033088,0.080711 0.070441,0.1829909 0.082623,0.2266078 0.050134,0.178979 0.2337763,0.2782451 0.5651081,0.3058189 l 0.1635392,0.014988 -0.010142,0.8073649 -0.010142,0.8073138 -0.061259,0.068184 c -0.080965,0.08975 -0.1570218,0.2571863 -0.1718614,0.3780177 -0.00643,0.05363 -0.00643,0.161928 -3.261e-4,0.241646 l 0.011516,0.144352 -0.1511523,0.0095 c -0.083125,0.0047 -0.2948406,0.03013 -0.4704624,0.05017 -0.1756208,0.02004 -0.4789342,0.05363 -0.6739925,0.07115 -0.6100305,0.05411 -1.01496058,0.12479 -1.18382404,0.207553 -0.20680285,0.101286 -0.34407087,0.457229 -0.25342879,0.656862 z m 0.33254117,-0.231123 c 0.0156172,-0.01578 0.0431219,-0.02508 0.0615637,-0.02508 0.018551,2.53e-4 0.0629597,-0.02004 0.0991672,-0.04512 0.0883922,-0.05869 0.31083313,-0.123843 0.54902193,-0.161423 0.2123693,-0.03502 1.9916241,-0.224101 2.0821473,-0.222603 0.046132,5.52e-4 0.0555,-0.0047 0.055947,-0.04007 l 5.52e-4,-0.04007 1.3683232,0.0047 c 1.7460966,0.0047 4.1023492,0.03502 4.2442696,0.05158 l 0.1093457,0.01577 -0.00698,0.160918 -0.00698,0.160933 -0.1150572,-0.0047 c -0.063265,-0.0032 -0.262402,-0.01578 -0.4424856,-0.03013 -0.1800834,-0.0095 -0.8414653,-0.03013 -1.469725,-0.04007 l -1.1422879,-0.02004 0.965077,0.02508 c 0.865526,0.02508 1.3628747,0.04512 2.0050013,0.08882 l 0.2079566,0.01577 -0.07801,6.390145 c -0.054693,4.479351 -0.083681,6.393538 -0.09691,6.401505 -0.025574,0.01578 -0.5208815,0.09828 -0.9308261,0.15587 -1.1029623,0.154923 -1.9516725,0.219085 -2.9520748,0.224606 -1.6812023,0.0095 -3.0886057,-0.222098 -4.36213066,-0.715312 l -0.21597798,-0.08377 0.0735929,-6.023913 0.0735929,-6.02385 0.52788404,-0.07778 c 0.519443,-0.0762 0.9258727,-0.128419 1.4857982,-0.189504 0.1560753,-0.01578 0.2199903,-0.03013 0.141987,-0.02508 -0.2285623,0.0095 -0.8660865,0.08125 -1.4012612,0.153977 -0.76692036,0.103802 -0.80774436,0.101747 -0.85745448,-0.04512 -5.4639e-4,-0.0015 0.0115166,-0.01578 0.0270684,-0.03013 z m 0.0998216,0.0702 c 0.0335902,0.01578 0.0315834,0.01578 0.38142133,-0.03502 0.2968964,-0.04512 1.6572147,-0.198545 2.1150874,-0.240147 0.4168665,-0.04007 0.9366748,-0.06926 1.5333653,-0.09229 0.8731404,-0.03502 3.9313786,0.02508 4.2724144,0.08377 l 0.057452,0.0095 0.0012,-0.09623 c 0.00109,-0.09324 -3.272e-4,-0.09623 -0.05405,-0.10775 -0.071389,-0.01578 -1.3924994,-0.03013 -3.6610556,-0.04512 l -1.8096069,-0.0095 -5.508e-4,0.04007 c -4.461e-4,0.04007 -0.00698,0.04007 -0.1084482,0.04007 -0.059372,-7.43e-4 -0.3965129,0.03013 -0.7492692,0.07069 -1.3334353,0.149873 -1.67076959,0.207048 -1.87785491,0.316346 -0.0330884,0.01578 -0.0759486,0.03502 -0.0955137,0.04007 -0.0325977,0.0095 -0.0330776,0.0095 -0.004581,0.02508 z m -0.068489,12.13078 c 0.0386068,0.02508 0.48214273,0.185987 0.70695553,0.25769 0.9368755,0.298803 1.8601274,0.451708 3.0713732,0.508707 1.2640499,0.05963 2.7639408,-0.0527 4.284834,-0.320859 l 0.20861,-0.03502 0.077257,-6.327072 0.077257,-6.327008 -0.1282936,-0.0095 c -0.6701928,-0.06469 -3.0124662,-0.112801 -3.865048,-0.07967 -1.2484217,0.05017 -2.1908374,0.122266 -3.1826623,0.249675 -0.3427186,0.04512 -0.94236667,0.130786 -1.06914649,0.155398 l -0.0486403,0.0095 -0.0727422,5.957322 c -0.0401009,3.276533 -0.0667767,5.961077 -0.0595571,5.965636 z M 3.0386244,11.175719 c 0.043624,5.52e-4 0.061815,-0.0032 0.040101,-0.0047 -0.022052,-0.0047 -0.057758,-0.0047 -0.079721,-10e-4 -0.022052,0.0047 -0.00414,0.0095 0.03961,0.0095 z m 0.1861984,-0.01578 c 0.039109,7.57e-4 0.057048,-0.0032 0.040101,-0.0047 -0.017057,-0.0047 -0.04864,-0.0047 -0.070834,-0.0012 -0.022052,0.0047 -0.00851,0.0095 0.030569,0.0095 z m 0.2127215,-0.01578 c 0.039109,6.94e-4 0.057048,-0.0032 0.040101,-0.0047 -0.017035,-0.0047 -0.048619,-0.0047 -0.070834,-0.0012 -0.022052,0.0047 -0.00807,0.0095 0.030569,0.0095 z m 2.1888625,-0.0997 c 0.1217772,0.0015 0.1716106,-6.94e-4 0.1107972,-0.0047 -0.060866,-0.0047 -0.1604791,-0.0047 -0.2213939,-0.0032 -0.060909,0.0032 -0.011047,0.0047 0.1105923,0.0095 z M 0.62390982,25.057681 c 1.13079628,0.441672 1.82854298,0.602607 3.12210088,0.720629 0.5641069,0.05158 2.0932265,0.0702 2.6318705,0.03502 0.5328343,-0.03502 0.9596241,-0.08172 1.3334658,-0.138832 0.3502382,-0.05363 1.164682,-0.20304 1.2155231,-0.223107 0.029577,-0.0095 0.030089,0.08977 0.00643,1.986883 l -0.02456,1.999111 -0.2807033,0.140882 C 7.2741072,30.256883 5.8586508,30.558037 4.2990754,30.499381 3.5045358,30.469248 2.9981025,30.393049 2.2466489,30.189045 1.7841586,30.063781 1.5404797,29.964454 0.95692976,29.665904 l -0.53251149,-0.272742 0.0265667,-2.194626 0.0265667,-2.194642 z m -0.0527408,4.319472 c 0.0944013,0.06011 0.51692248,0.278751 0.77032618,0.398574 0.54281,0.256696 1.3056614,0.475781 1.9955853,0.572032 0.6299337,0.08772 1.4907776,0.110277 2.1035752,0.05411 1.0803314,-0.09876 2.1257195,-0.395053 3.146988,-0.891282 l 0.2156267,-0.104751 0.023567,-1.92646 0.023568,-1.926476 -0.2820055,0.05317 C 8.1845193,25.678329 7.2602564,25.819639 6.978011,25.849219 6.269195,25.923843 4.9509253,25.9475 4.2495002,25.899385 2.925119,25.806149 1.9943442,25.628159 1.0154395,25.280733 0.80201682,25.205002 0.61351186,25.138431 0.5965663,25.132279 0.5674912,25.122779 0.5644812,25.230089 0.5399102,27.231757 L 0.5143359,29.341665 Z M 2.7777916,7.1581385 c 0.02456,-0.020051 0.056744,-0.040103 0.071292,-0.040103 0.016544,2.003e-4 0.026567,-0.014987 0.027068,-0.04512 7.711e-4,-0.061165 0.090747,-0.1473981 0.1554591,-0.1494018 0.1722617,-0.00488 0.2354821,0.050138 0.233627,0.1985324 -0.00153,0.1328522 -0.111901,0.1915133 -0.2770433,0.1473979 l -0.087335,-0.025068 0.049131,0.04512 C 3.0235394,7.354164 3.1708335,7.353169 3.2459336,7.286976 3.3496167,7.1957258 3.3422443,7.0498396 3.2283869,6.9425528 3.08946,6.8111993 2.9416678,6.8182197 5.222553,6.8463019 l 2.0434435,0.025068 0.033078,0.035087 c 0.020056,0.025068 0.031082,0.059161 0.028574,0.093254 -0.00251,0.030085 0.014985,-0.00505 0.039599,-0.082226 C 7.4721722,6.5876006 7.691917,6.2328498 7.9470221,5.9813755 8.3606311,5.5737836 8.8595164,5.3354447 9.4472837,5.2649041 c 0.2058519,-0.025068 0.6562043,-0.00427 0.8373743,0.040103 0.329233,0.076705 0.641235,0.2130715 0.916231,0.3995712 0.308527,0.2095615 0.6711,0.6486396 0.836138,1.0127158 0.164089,0.36197 0.215728,0.6117893 0.210715,1.0200848 -0.0041,0.3328927 -0.02907,0.4812893 -0.127694,0.7601375 -0.34382,0.9717039 -1.299244,1.6780486 -2.3025771,1.7023766 -0.2014895,0.0047 -0.6371338,-0.04512 -0.6367882,-0.07415 1.102e-4,-0.0095 -0.062066,-0.04007 -0.1383269,-0.06074 C 8.6340624,9.9496766 8.2909217,9.7526622 7.9830519,9.458173 7.8598699,9.3403556 7.8611165,9.3418541 8.0005999,9.4832448 c 0.2722294,0.2782568 0.4989377,0.42515 0.9555213,0.6198132 0.059372,0.02508 0.064781,0.03502 0.047125,0.06421 -0.011517,0.02004 -0.037593,0.03502 -0.063669,0.03502 -0.039109,-4.42e-4 -0.04261,0.0047 -0.033088,0.05017 0.006,0.02508 0.041115,0.121792 0.077464,0.21107 0.0366,0.0893 0.066319,0.171458 0.066177,0.182486 -3.249e-4,0.03013 -0.189807,0.02508 -0.363022,-0.0095 -0.077759,-0.01578 -0.2389414,-0.03502 -0.3581602,-0.04007 L 8.1121667,10.58063 8.088108,10.498428 C 8.0444843,10.349973 7.8193368,9.756438 7.8305175,9.8200154 c 0.010579,0.060585 0.023066,0.1047514 0.1491969,0.5418066 0.034092,0.117374 0.061563,0.214069 0.061563,0.215567 -1.63e-5,0.0013 -0.6237391,-3.95e-4 -1.3860519,-0.0032 -0.7623137,-0.0032 -1.5455188,-5.05e-4 -1.7404506,0.0047 -0.1949231,0.0047 -0.6234927,0.01578 -0.9523389,0.02004 l -0.5979021,0.0047 0.00294,-0.247656 0.00294,-0.247673 0.099222,-0.1468773 0.099222,-0.1468768 0.013567,-1.093632 0.013567,-1.0936829 -0.057648,0.014988 C 3.5067599,7.65232 3.4547829,7.657207 3.4230349,7.657207 3.3656269,7.656505 3.3653869,7.656147 3.3664339,7.567976 3.3669857,7.517839 3.3594539,7.479233 3.3498899,7.479233 3.3403999,7.4791337 3.3318409,7.519336 3.3308259,7.569978 L 3.3297359,7.661244 3.1170657,7.646256 C 3.0001082,7.6362119 2.8864547,7.6212424 2.8644956,7.6112243 2.8127472,7.5861561 2.7334898,7.3826114 2.7333,7.2733179 2.7331942,7.2081469 2.74181,7.1850809 2.777916,7.1545066 Z m 0.076756,0.2902777 c 0.018551,0.050137 0.046622,0.099264 0.06321,0.1113018 0.018049,0.014988 0.087083,0.025068 0.1769742,0.025068 l 0.1471454,0.00173 9.935e-4,-0.08423 c 9.979e-4,-0.081217 0.00316,-0.08472 0.067726,-0.1062845 0.1401253,-0.04512 0.1886565,-0.052141 0.2863187,-0.035087 0.1136045,0.020051 0.2064027,0.067681 0.2875697,0.1398726 0.074705,0.066687 0.1309438,0.094753 0.3129902,0.1569271 0.082481,0.030085 0.1941204,0.073691 0.2481656,0.1017723 0.092199,0.04512 0.1057762,0.050137 0.2230973,0.035087 C 4.810962,7.7795875 4.9240222,7.7404305 5.0059429,7.6817748 5.0882609,7.6226138 5.2726082,7.5694791 5.9186346,7.419571 6.2361856,7.34588 6.5460829,7.2696647 6.6073304,7.2501161 c 0.1636886,-0.051636 0.3050179,-0.020051 0.3612694,0.081721 0.017035,0.030085 0.02155,0.2792485 0.018551,1.082753 l -0.00393,1.042595 0.058455,0.050135 c 0.032085,0.025073 0.094455,0.060657 0.1383739,0.073199 0.081368,0.025073 0.4233839,0.040096 0.5765865,0.025073 l 0.084531,-0.010152 0.061466,0.1779693 c 0.03359,0.09782 0.090443,0.2617136 0.125879,0.3644796 0.035586,0.102865 0.079918,0.226611 0.098764,0.275739 l 0.034092,0.0893 0.1393205,0.01577 c 0.076657,0.0095 0.2388389,0.03013 0.3604155,0.04512 0.2993023,0.04006 0.2894258,0.04006 0.2600977,-0.02004 -0.013098,-0.02508 -0.049633,-0.131417 -0.081074,-0.232116 L 8.7829285,10.128677 8.5958283,10.02739 C 7.9012315,9.6514036 7.4067708,9.0289341 7.2357522,8.3152213 7.15398,7.9738046 7.147011,7.6046155 7.213188,7.1086352 7.2237667,7.030921 7.2281726,6.9612372 7.2237667,6.9537119 7.2191862,6.943613 6.3395208,6.9286436 5.2688507,6.9186254 l -1.9466743,-0.025068 0.04261,0.082731 C 3.4805516,7.200389 3.353738,7.4074435 3.1019298,7.404435 2.9873788,7.4030281 2.9049521,7.3643319 2.8554186,7.2861127 l -0.034092,-0.05364 -4.59e-5,0.062175 c -2.39e-5,0.035087 0.014984,0.1022779 0.033591,0.1509004 z M 2.985443,7.1887193 c 0.084226,0.069179 0.1900601,0.030085 0.1913132,-0.073202 7.721e-4,-0.065173 -0.048139,-0.1328524 -0.096615,-0.1338619 -0.078817,-0.001 -0.1523684,0.1599291 -0.094707,0.2070545 z m 0.5393571,0.2642089 c 0.087585,0.010101 0.1781269,0.050137 0.270876,0.1118067 0.026567,0.020051 0.048619,0.025068 0.048619,0.014988 1.101e-4,-0.010101 -0.041115,-0.040103 -0.0921,-0.073203 -0.106791,-0.066181 -0.2684708,-0.112296 -0.2970464,-0.084735 -0.012466,0.010101 0.00894,0.020051 0.069732,0.030085 z M 3.482692,7.5642301 c 0.015617,-0.00505 0.045619,-0.010101 0.066526,-0.010101 0.031082,1.009e-4 0.033591,-0.00299 0.011986,-0.014988 -0.04261,-0.030085 -0.1060379,-0.020051 -0.106376,0.010101 -2.214e-4,0.020051 0.00949,0.025069 0.027581,0.020051 z m 0.3653788,2.9617369 c 0.2070558,-0.0047 0.5479531,-0.01578 0.7575009,-0.02004 0.209561,-0.0047 1.0474078,-0.0095 1.8619116,-0.0047 l 1.48092,0.0047 -0.014984,-0.07273 c -0.00851,-0.04007 -0.044616,-0.160429 -0.08066,-0.268212 C 7.8166604,10.05724 7.7778031,9.9243391 7.7663844,9.870194 L 7.7453253,9.7709587 7.4101263,9.7551766 C 7.037277,9.7351183 6.9994249,9.7251097 6.9364565,9.6223242 6.9153974,9.5872427 6.8789058,9.5456289 6.855447,9.5295802 6.7697706,9.4719176 6.7706648,9.4844592 6.7742314,8.4249184 l 0.00327,-1.0007829 -0.1239869,9.024e-4 C 6.4970476,7.426198 6.0675247,7.528818 5.5935244,7.6782201 5.2468448,7.7875184 5.243536,7.7890172 5.2127541,7.8531905 5.1343953,8.01713 4.9897561,8.1189034 4.8382493,8.1173973 4.7637512,8.116647 4.6590198,8.0632533 4.6421233,8.0176285 4.6365614,8.0026406 4.6215657,7.9925603 4.6080315,7.9925603 4.5949336,7.9924103 4.5578972,7.9824614 4.5261065,7.967492 4.4945231,7.9525041 4.4404735,7.9323903 4.4065377,7.9223722 4.1829386,7.841156 4.0604099,7.7900248 3.946354,7.7298555 3.8748114,7.6897523 3.7866253,7.646131 3.7502782,7.627073 L 3.6842542,7.591986 3.6717882,8.6132241 3.6593222,9.6344623 3.7347142,9.6243103 C 3.96037,9.5942233 4.1713357,9.5992373 4.4429488,9.6493833 l 0.066275,0.010152 0.00556,-0.4537167 0.00556,-0.4537154 0.4427865,0.00501 0.4427877,0.00501 -0.00753,0.6021641 -0.00753,0.6022099 -0.4427855,-0.00472 -0.4427877,-0.00472 7.711e-4,-0.068153 7.722e-4,-0.068153 -0.2151765,-0.015782 c -0.3495369,-0.025083 -0.5953315,-0.020038 -0.616418,0.00318 -0.010142,0.00954 -0.059208,0.082192 -0.1088844,0.1558692 l -0.090355,0.1344126 -0.00273,0.216579 -0.00273,0.216576 z M 3.6053673,9.7317496 c 0.014516,-6.029e-4 0.046622,-0.00502 0.071041,-0.014982 l 0.044616,-0.014982 -0.044114,-0.00205 c -0.02456,-0.00103 -0.056307,0.00502 -0.071041,0.014982 -0.023567,0.014982 -0.024059,0.014982 -2.247e-4,0.014982 z m 0.3033636,-0.035082 c 0.044616,0.00236 0.1324105,0.010152 0.1946722,0.014982 l 0.1131944,0.010152 -0.086124,-0.020058 C 4.0828477,9.691592 3.9954602,9.686762 3.9358017,9.686762 c -0.091347,0.0041 -0.095601,0.00502 -0.027068,0.010152 z m 0.237287,-1.9524883 c 0.076549,0.035087 0.1560752,0.05465 0.156217,0.040103 2.257e-4,-0.014988 -0.1970793,-0.087733 -0.2078074,-0.077715 -0.00501,0.00505 0.018049,0.020051 0.051584,0.035087 z m 0.3493361,1.9954506 0.119521,0.00461 -8.976e-4,0.070686 -8.91e-4,0.070686 0.3365022,0.00472 c 0.3247205,0.00472 0.3365022,0.00318 0.3369536,-0.030139 4.505e-4,-0.03502 -0.011516,-0.03502 -0.3272278,-0.040065 l -0.3276291,-0.00472 0.006,-0.4868064 0.006,-0.4868049 0.3321398,-0.0012 0.332142,-0.0012 L 4.9674036,8.8292546 4.6268401,8.8191126 4.6166981,9.2663127 4.6065561,9.713511 4.4912951,9.723663 4.3760329,9.733815 Z M 4.578729,7.9078173 c 0.006,0.00505 0.027581,0.010101 0.048128,0.010101 0.020056,2.509e-4 0.059001,0.025069 0.086026,0.058656 0.031082,0.035087 0.042107,0.04512 0.03057,0.020051 C 4.70586,7.9169083 4.719885,7.8928493 4.81915,7.8687899 c 0.05129,-0.010101 0.1410709,-0.04512 0.199485,-0.073691 0.062316,-0.030085 0.108688,-0.04512 0.1122009,-0.035087 0.00349,0.010101 0.020558,0.00442 0.040101,-0.014988 0.018551,-0.020051 0.1202787,-0.06066 0.2259055,-0.093743 0.1055799,-0.035103 0.1694557,-0.056652 0.1419237,-0.051636 -0.3192555,0.058656 -0.3706921,0.076199 -0.5368737,0.178979 -0.068391,0.040103 -0.2432013,0.085729 -0.3401623,0.084734 -0.071739,-9.023e-4 -0.1067904,0.014988 -0.082972,0.040103 z m 0.3808717,1.8405456 0.2397431,0.00318 0.00501,-0.4166228 0.00501,-0.4166168 -0.2347295,0.00207 -0.2347296,0.00207 -0.00894,0.3519427 c -0.006,0.2351314 -0.00284,0.3594652 0.010142,0.3755078 0.013567,0.014982 0.013567,0.035102 -9.991e-4,0.059662 -0.019544,0.035081 -0.017035,0.035081 0.2196904,0.040096 z m 0.00381,-1.8259052 c 0.018551,0.001 0.029075,-0.00299 0.023568,-0.010101 -0.006,-0.00505 -0.021059,-0.00505 -0.034092,-0.00173 -0.014047,0.00505 -0.010142,0.010101 0.010579,0.010101 z m 1.5626215,-0.553784 c 0.022052,-0.00505 0.095994,-0.014988 0.1644901,-0.020052 0.1058308,-0.010101 0.1283405,-0.00427 0.1503016,0.025069 0.022052,0.025068 0.025073,0.184496 0.022565,1.0293103 -0.00316,0.949245 -0.00174,0.9990293 0.029577,1.0295102 0.032085,0.03009 0.032598,0.03009 0.017548,-0.0036 -0.00851,-0.020056 -0.011516,-0.4898128 -0.00643,-1.0451524 0.00894,-1.0058969 0.00851,-1.0096075 -0.028573,-1.040439 -0.06381,-0.05315 -0.145647,-0.058152 -0.2730333,-0.020051 -0.064116,0.020051 -0.1166656,0.040103 -0.1167126,0.04512 -6.54e-5,0.00505 0.018049,0.00458 0.040101,-0.00158 z m 0.5144502,2.2708877 c 0.029577,0.014982 0.067889,0.030088 0.085426,0.030088 0.017548,0 -0.00294,-0.014982 -0.045619,-0.035082 -0.088632,-0.040096 -0.1206726,-0.035082 -0.039599,0.010152 z M 7.3468243,8.0500469 c 0.087476,0.6124429 0.4189234,1.1789623 0.9108672,1.5569239 0.2393919,0.1840021 0.6900154,0.3900572 0.9108421,0.4171282 0.050985,0.0047 0.1017303,0.02508 0.1128007,0.03502 0.032598,0.04007 0.4222322,0.0822 0.6388035,0.0661 0.7202012,-0.05363 1.4080652,-0.4607395 1.8327082,-1.0842621 0.234327,-0.3444231 0.352946,-0.6698973 0.398068,-1.0930805 0.02907,-0.2712279 0.0085,-0.569979 -0.05645,-0.825915 C 12.046326,6.9324532 11.907914,6.6216205 11.789147,6.4368248 11.446879,5.9040463 10.885715,5.5112432 10.265867,5.3705659 10.0536,5.3204293 9.488003,5.3159165 9.2781498,5.360467 8.8125514,5.4562294 8.4338412,5.6547565 8.0784991,5.9898043 7.741746,6.3071557 7.5206532,6.666469 7.4077207,7.0793759 c -0.052141,0.1905099 -0.058008,0.2376368 -0.06658,0.5365884 -0.00501,0.1799824 -0.00273,0.3755076 0.00556,0.4336622 z M 7.5548825,7.0963914 c 0.019544,-0.055154 0.035085,-0.071688 0.070648,-0.075206 0.038607,-0.0041 0.050833,-0.020051 0.078566,-0.1052757 0.0744,-0.2286127 0.235683,-0.5044518 0.4060384,-0.6943118 0.4629919,-0.5161329 1.134151,-0.7652518 1.8763161,-0.6965681 0.892268,0.082731 1.56645,0.5768969 1.907539,1.3986499 0.09772,0.2356318 0.140173,0.4502084 0.146436,0.7418398 0.01705,0.7863591 -0.303312,1.430536 -0.94066,1.8915701 C 10.740152,9.8172877 10.333716,9.9486409 9.8448109,9.9621772 9.6443727,9.9668943 9.5672659,9.9627289 9.4554173,9.937094 9.2853106,9.8970287 9.0681275,9.8272912 8.9328553,9.7691385 8.8773986,9.7440861 8.8162364,9.7240176 8.7969428,9.7240176 8.7513126,9.7234679 8.4949829,9.5716042 8.3597695,9.4648249 7.8806859,9.0868117 7.5725195,8.5069566 7.52431,7.8928594 7.5062608,7.662743 7.5247571,7.1817535 7.5548792,7.0961245 Z m 0.060561,0.6738565 c 0.013098,0.3755059 0.06994,0.610737 0.2228967,0.920317 0.1861995,0.377011 0.4644959,0.674108 0.826171,0.8821652 0.129491,0.074706 0.5454121,0.2306275 0.7583015,0.2842671 0.2658135,0.067199 0.6767113,0.045121 1.0103493,-0.054586 C 11.005049,9.631452 11.5529,9.1326635 11.784164,8.5720115 12.053486,7.9191121 11.997836,7.1529579 11.639732,6.5835816 11.539114,6.4236525 11.308292,6.1784951 11.134422,6.0463905 10.869011,5.8453516 10.472648,5.6713862 10.141539,5.6112249 9.9674737,5.5811399 9.5548266,5.5761221 9.3756113,5.6088583 8.7536585,5.7151427 8.2175011,6.0901492 7.9142074,6.6313001 7.8124336,6.8127859 7.8204495,6.8258219 7.9273054,6.6513516 8.3831267,5.9134734 9.1834966,5.5340564 10.049755,5.6451547 c 0.562904,0.072192 0.978368,0.280752 1.3481,0.6763128 0.367484,0.3935557 0.529769,0.8251623 0.523652,1.3934864 -0.0029,0.2687194 -0.02355,0.417619 -0.08879,0.6367062 -0.0917,0.3083279 -0.256087,0.5797547 -0.501043,0.8275201 -0.32031,0.3238688 -0.675061,0.5161333 -1.119908,0.6064787 -0.177224,0.03502 -0.5910543,0.045121 -0.7785319,0.020038 C 9.2160059,9.77556 8.9337506,9.6908885 8.9450305,9.6628069 8.9500473,9.6478227 8.9009053,9.5254434 8.8360372,9.3850615 8.7159633,9.1258667 8.5556862,8.748956 8.3002594,8.1244317 8.0807719,7.5877426 7.8390233,7.0494504 7.8063373,7.0245837 c -0.040101,-0.030084 -0.047125,-0.030084 -0.06778,0.014987 -0.010142,0.020051 -0.037593,0.04512 -0.061716,0.050136 -0.026567,0.00505 -0.04864,0.025068 -0.056448,0.053151 -0.015617,0.053149 -0.017548,0.2752382 -0.00501,0.6281352 z m 0.049131,-0.4968321 c 0.014984,-0.050137 0.038094,-0.1022779 0.051792,-0.1203259 0.022565,-0.030085 0.030569,-0.014988 0.090333,0.1428859 0.06718,0.1799824 0.2005373,0.4792858 0.5427716,1.2181155 0.188806,0.4075933 0.4336617,0.9833884 0.4523621,1.0639036 0.00501,0.020058 0.00469,0.040096 -8.976e-4,0.040096 C 8.7733545,9.6177465 8.5466037,9.476724 8.4335512,9.3894838 8.2687087,9.2621369 8.1192075,9.0941917 7.9813385,8.8818224 7.8081248,8.6146065 7.7001336,8.3309455 7.6563672,8.0275824 7.6257979,7.8140091 7.6302912,7.3839565 7.6644376,7.2733599 Z m 0.053384,0.294288 c 0.013098,0.6297395 0.152004,1.0641045 0.4697579,1.4690902 0.1094875,0.1393674 0.3023613,0.3158464 0.4202779,0.38403 l 0.065676,0.040101 -0.06994,-0.1744669 C 8.4043441,8.7896252 7.7398637,7.3544281 7.7216695,7.3815996 c -0.00753,0.010101 -0.011986,0.025068 -0.010142,0.030085 0.00174,0.00488 0.00458,0.076705 0.00643,0.1594273 z M 2.8443743,6.8640174 c 0.031584,-0.040103 0.051083,-0.04512 0.1278355,-0.04512 l 0.090584,0.00116 -0.051541,0.052646 c -0.028573,0.030086 -0.065326,0.052141 -0.082165,0.052141 -0.017035,-2.004e-4 -0.03359,0.00505 -0.0366,0.014988 -0.00698,0.020051 -0.085633,0.00269 -0.085382,-0.020051 8.94e-5,-0.00505 0.017057,-0.035087 0.037593,-0.059666 z"
   id="path291" /></svg>
