<?xml version="1.0" encoding="UTF-8" standalone="no"?>
<!-- Generator: Adobe Illustrator 16.0.0, SVG Export Plug-In . SVG Version: 6.00 Build 0)  -->

<svg
   version="1.1"
   x="0px"
   y="0px"
   width="99.75px"
   height="32px"
   viewBox="0 0 99.75 32"
   enable-background="new 0 0 99.75 32"
   xml:space="preserve"
   id="svg27"
   sodipodi:docname="ssg08.svg"
   inkscape:version="1.1.1 (3bf5ae0d25, 2021-09-20)"
   xmlns:inkscape="http://www.inkscape.org/namespaces/inkscape"
   xmlns:sodipodi="http://sodipodi.sourceforge.net/DTD/sodipodi-0.dtd"
   xmlns="http://www.w3.org/2000/svg"
   xmlns:svg="http://www.w3.org/2000/svg"><defs
   id="defs31" /><sodipodi:namedview
   id="namedview29"
   pagecolor="#505050"
   bordercolor="#eeeeee"
   borderopacity="1"
   inkscape:pageshadow="0"
   inkscape:pageopacity="0"
   inkscape:pagecheckerboard="0"
   showgrid="false"
   inkscape:zoom="11.177945"
   inkscape:cx="48.175224"
   inkscape:cy="14.582287"
   inkscape:window-width="1440"
   inkscape:window-height="848"
   inkscape:window-x="1358"
   inkscape:window-y="-8"
   inkscape:window-maximized="1"
   inkscape:current-layer="svg27" />

<g
   id="guides">
</g>
<path
   style="fill:#ffffff;stroke-width:0.0472144"
   d="m 6.4368238,26.154915 c 0.4666472,-0.03661 0.7717518,-0.146346 1.1713857,-0.42131 0.3862621,-0.265734 0.9935875,-1.184678 1.6136153,-2.441424 0.260758,-0.52862 0.2611013,-0.529028 0.4097785,-0.501668 0.081793,0.01506 0.2018811,0.05584 0.2668089,0.09062 0.5558898,0.297791 0.8779538,0.323021 3.6355068,0.284776 1.233473,-0.01711 2.816328,-0.0516 3.51747,-0.07665 l 1.274773,-0.04555 0.418936,-0.209555 0.418902,-0.209555 0.950314,0.306839 c 1.10717,0.357494 2.424057,0.70141 2.862468,0.747562 0.38694,0.04073 0.927527,0.175427 1.313411,0.327254 0.809241,0.3184 1.57768,0.405432 1.939275,0.219646 0.481229,-0.247237 0.771881,-0.630608 1.439517,-1.898678 0.172854,-0.328313 0.347322,-0.624343 0.387669,-0.657843 0.04042,-0.0335 0.117007,-0.147315 0.170289,-0.252922 0.394381,-0.781493 1.116396,-1.594814 1.832,-2.063639 0.962613,-0.630665 1.457514,-0.850136 1.782522,-0.790494 0.389155,0.07142 0.999132,0.358285 1.324801,0.623053 0.751273,0.610821 1.690756,1.124773 2.397237,1.311459 0.566274,0.149631 1.346617,0.170718 1.908103,0.05156 0.611634,-0.129807 0.93199,-0.257565 1.359938,-0.54235 0.521035,-0.346727 1.227722,-1.064156 1.450768,-1.472825 0.305894,-0.560396 0.402921,-0.658682 0.74015,-0.749628 0.273014,-0.07362 0.327746,-0.07424 0.674837,-0.0076 0.450975,0.08664 2.076752,0.09583 4.367324,0.02468 2.696325,-0.08376 3.57378,-0.183898 4.53647,-0.51775 0.70885,-0.24582 1.078333,-0.279344 1.769468,-0.160536 0.697177,0.119847 2.576015,0.122672 3.939559,0.0059 2.356759,-0.201784 6.831122,-0.416383 12.559045,-0.602354 2.476575,-0.08041 5.905568,-0.201235 10.221896,-0.360191 0.771409,-0.02841 0.899031,-0.04572 1.382391,-0.187505 0.487303,-0.142945 0.55804,-0.17875 0.833025,-0.42167 0.229247,-0.202521 0.313075,-0.31211 0.353608,-0.462188 0.161217,-0.59711 0.18732,-1.151783 0.07594,-1.613154 -0.03764,-0.155806 -0.06916,-0.299222 -0.0701,-0.318697 0,-0.01947 3.597622,-0.03541 7.996782,-0.03541 h 7.998462 l 0.220205,-0.244916 c 0.288077,-0.320417 0.342276,-0.433289 0.406363,-0.846195 0.04154,-0.26768 0.03974,-0.43751 -0.0077,-0.759722 l -0.06145,-0.41498 -9.091437,-0.01204 -9.091439,-0.01204 -0.731822,-0.198073 C 78.901358,10.53027 78.319292,10.355401 78.010397,10.250611 76.461953,9.7253142 73.863986,9.6351802 60.239331,9.6340422 l -8.653739,-7.89e-4 0.01339,-0.4603408 0.01339,-0.4603398 0.259685,-0.032743 c 0.142824,-0.018006 0.727096,-0.068172 1.298409,-0.111474 1.287998,-0.097632 1.726825,-0.07297 2.123097,0.1193022 0.156643,0.076016 0.383233,0.1600484 0.503521,0.1867456 0.444272,0.098604 1.530464,0.1448373 3.405494,0.1449472 l 1.924475,9.53e-5 -0.01236,-2.1364488 -0.01236,-2.1364506 -1.038719,-0.00266 c -1.359495,-0.00326 -2.730399,0.058791 -3.245145,0.1469719 -0.407364,0.069777 -0.547788,0.1083113 -1.768542,0.4853016 -0.914911,0.2825425 -1.318123,0.3442346 -2.433619,0.3723668 -0.804795,0.020289 -0.982576,0.01314 -0.999372,-0.040175 -0.01133,-0.035678 -0.03321,-0.1232975 -0.04883,-0.1947085 l -0.02841,-0.1298401 h -0.952151 c -0.922454,0 -0.955686,0.00335 -1.065192,0.1062326 -0.09458,0.088854 -0.177069,0.108913 -0.504334,0.1226221 -0.387524,0.016247 -0.391566,0.015217 -0.42206,-0.1062326 -0.01682,-0.067443 -0.05158,-0.1226221 -0.07707,-0.1226221 -0.02549,0 -0.04626,-0.083286 -0.04626,-0.1850822 0,-0.1657773 -0.02832,-0.2103067 -0.271409,-0.4269696 -0.149261,-0.1330397 -0.313919,-0.2517815 -0.365913,-0.263871 -0.05193,-0.012093 -0.474714,0.00669 -0.939405,0.041815 l -0.844884,0.063795 -0.272697,0.2821486 c -0.20249,0.2094887 -0.281296,0.3299582 -0.306031,0.4677844 -0.02051,0.113545 -0.08145,0.2262257 -0.157192,0.2901682 -0.122337,0.1032226 -0.14345,0.1045504 -1.681959,0.1059193 -1.437954,0.00129 -1.56829,-0.00532 -1.690524,-0.085936 -0.07287,-0.048029 -0.164341,-0.132874 -0.203323,-0.1885462 -0.06926,-0.098891 -0.09805,-0.1012221 -1.249539,-0.1012221 H 39.311134 L 38.888095,5.5962693 C 38.397854,5.8424867 38.236637,5.8580427 37.912754,5.6903764 37.461521,5.4567713 37.138796,5.4244962 34.988362,5.3979183 l -1.987535,-0.024581 -0.0303,0.3260995 c -0.05175,0.5572122 -0.09458,3.0432185 -0.05819,3.3803553 0.0527,0.4879991 0.03828,0.4830391 1.394063,0.4798851 1.253324,-0.0029 1.933336,-0.060688 3.066658,-0.2605538 0.846901,-0.1493535 1.243334,-0.1683504 1.753821,-0.08405 l 0.327772,0.054131 v 0.2527598 0.25276 l -0.672811,8e-6 c -0.44338,8e-6 -0.86599,0.03152 -1.239369,0.09242 -0.311602,0.05083 -0.885833,0.124407 -1.27606,0.1635218 -1.447447,0.145084 -1.945266,0.429708 -2.797875,1.599676 -0.213056,0.292382 -0.23198,0.339283 -0.21121,0.523508 0.03879,0.343714 -0.0975,0.44905 -1.316364,1.017847 -0.580642,0.270961 -1.852445,0.8937 -2.826267,1.383865 -0.973787,0.490168 -1.892036,0.932282 -2.040524,0.982476 -0.350696,0.11855 -0.816734,0.117389 -1.288265,-0.0032 -0.400183,-0.102352 -0.580195,-0.200031 -1.081928,-0.58714 -0.557624,-0.430221 -3.35755,-2.16101 -3.681141,-2.275518 C 20.226092,12.39025 17.200863,12.28859 8.3403761,12.246008 L 2.462199,12.217773 2.1735988,12.519881 c -0.4908503,0.51385 -0.4704494,0.425164 -0.5584301,2.426186 -0.1250749,2.844699 -0.5454016,8.480473 -0.68482674,9.181857 -0.0862985,0.434143 -0.0864015,0.45481 -0.003433,0.643967 0.0470329,0.107485 0.19274054,0.354328 0.32378044,0.548534 0.1895221,0.280865 0.2785327,0.369215 0.4350631,0.431849 0.3759287,0.150412 1.2647049,0.27023 2.3111015,0.311558 0.5583271,0.02206 1.0576227,0.051 1.1095391,0.06433 0.1795662,0.04609 0.8987407,0.06045 1.3307054,0.02656 z M 3.0007087,25.504217 C 2.860288,25.456069 2.6391904,25.401851 2.5093606,25.383743 2.3795309,25.365633 2.1598237,25.318892 2.0211624,25.279879 1.7701713,25.209261 1.7682574,25.207287 1.6018313,24.84706 1.4434814,24.504315 1.4361261,24.466376 1.4631442,24.129596 c 0.015792,-0.19557 0.1135914,-1.396659 0.2175788,-2.669087 0.1039616,-1.272426 0.2328988,-2.908405 0.2864974,-3.635505 0.053556,-0.727103 0.1275468,-1.6407 0.1642634,-2.030218 0.036734,-0.38952 0.081707,-1.129584 0.099893,-1.64459 l 0.033129,-0.936374 0.1578521,-0.125951 c 0.086822,-0.06927 0.1578521,-0.152507 0.1578521,-0.184966 0,-0.04157 0.097233,-0.05901 0.3288442,-0.05901 0.276799,0 0.3365772,0.01445 0.3777138,0.09132 0.054757,0.102255 0.071923,12.570569 0.017337,12.62508 -0.039566,0.03958 -0.00687,0.04563 -0.3034224,-0.05608 z M 3.1467597,19.19304 V 13.127173 H 2.8943783 c -0.3784519,0 -0.4086285,0.05293 -0.4086285,0.716879 0,0.638854 -0.069434,1.569732 -0.1666579,2.23402 -0.064112,0.438331 -0.5124528,5.686511 -0.6412613,7.507085 l -0.056817,0.802643 0.12129,0.236073 c 0.1479134,0.287913 0.2868922,0.44063 0.4260513,0.468124 0.1161404,0.02295 0.5861692,0.104029 0.8249299,0.142308 l 0.1534664,0.02461 z m 4.2052663,3.567493 c -0.100048,-0.05104 -0.2582433,-0.181975 -0.3515367,-0.29097 -0.2848152,-0.332742 -0.2840256,-0.671218 0.00257,-0.988119 0.1948089,-0.215622 0.4086456,-0.295105 0.7797937,-0.289843 0.3361223,0.0047 0.5336176,0.10992 0.6567186,0.349653 0.1525651,0.297197 0.1041504,0.86205 -0.093817,1.094262 -0.1914188,0.224533 -0.6782781,0.285799 -0.9934244,0.125017 z m 0.6713348,-0.190994 c 0.1660228,-0.130603 0.2887804,-0.46972 0.2566641,-0.709123 -0.035876,-0.26769 -0.1447635,-0.410438 -0.3628658,-0.475784 -0.1572942,-0.04712 -0.2213294,-0.04326 -0.3974282,0.024 -0.4450361,0.169957 -0.5842724,0.45859 -0.3969046,0.822692 0.2043787,0.397182 0.6248341,0.555091 0.9005345,0.338221 z m 4.1851832,-0.379012 c -0.191187,-0.102321 0.0051,-0.678778 0.319643,-0.937915 0.09755,-0.08042 0.223939,-0.146211 0.28085,-0.146211 0.0569,0 0.237971,-0.03668 0.402372,-0.08153 0.22974,-0.06267 0.484568,-0.08119 1.10154,-0.08008 0.995218,0.0018 1.150384,0.04005 1.443876,0.355895 0.183034,0.196972 0.224806,0.278834 0.271487,0.53224 0.0303,0.164705 0.05519,0.323574 0.05519,0.353038 0,0.07193 -3.740833,0.07633 -3.874946,0.0045 z m 3.549672,-0.222464 c 0.01948,-0.132506 -0.03364,-0.295773 -0.152831,-0.468994 -0.167233,-0.243079 -0.286549,-0.281434 -1.00914,-0.324449 -0.466012,-0.02774 -0.752621,-0.0086 -1.558094,0.104274 -0.218943,0.03068 -0.462879,0.236286 -0.579569,0.488509 -0.04205,0.09089 -0.08462,0.181184 -0.09466,0.20066 -0.01,0.01948 0.748407,0.03541 1.685426,0.03541 0.936985,0 1.705973,-0.01593 1.708866,-0.03541 z m 5.561265,-0.431796 c -3.066126,-1.149346 -3.725136,-1.439299 -3.725136,-1.638999 0,-0.03826 0.219364,-0.339571 0.487434,-0.66959 1.13261,-1.394212 3.77598,-4.843087 3.869822,-5.04903 0.03081,-0.06755 0.09021,-0.107186 0.160719,-0.107186 0.06454,0 0.455807,0.231738 0.924892,0.547823 0.447165,0.301302 0.876769,0.580089 0.954682,0.619523 0.07793,0.03943 0.269127,0.157937 0.424927,0.263336 0.326948,0.221163 0.94671,0.51954 1.241678,0.597786 0.111609,0.02961 0.366565,0.06868 0.566558,0.08681 0.448237,0.04065 0.465978,0.100436 0.103961,0.350451 -0.392064,0.270756 -0.91352,0.797467 -1.169471,1.181216 -0.440822,0.660971 -1.334019,2.341448 -1.444692,2.718005 -0.04051,0.137879 -0.146386,0.371588 -0.235285,0.519357 -0.08891,0.147767 -0.219836,0.384834 -0.290994,0.526814 -0.152068,0.303469 -0.367724,0.520892 -0.516667,0.520892 -0.05836,0 -0.666924,-0.210244 -1.352428,-0.467207 z m 1.601599,-0.01675 c 0.188398,-0.274564 0.433759,-0.773919 0.643759,-1.310199 0.211579,-0.540344 0.459283,-1.032244 0.862599,-1.713035 0.476603,-0.804552 0.706112,-1.109657 1.223045,-1.625859 L 26.133574,16.388 25.959819,16.35953 c -0.503965,-0.08257 -1.444606,-0.452907 -1.755264,-0.691036 -0.06506,-0.04985 -0.553787,-0.376335 -1.086117,-0.72552 -0.962904,-0.631598 -0.968268,-0.63434 -1.038715,-0.530573 -0.413306,0.6087 -3.403836,4.563527 -3.87395,5.123106 l -0.286764,0.341295 0.628516,0.302197 c 0.800513,0.384898 1.592657,0.7039 2.635114,1.061144 0.454443,0.155736 0.93859,0.327453 1.075886,0.381596 0.386074,0.15225 0.5,0.13467 0.662555,-0.102222 z m 13.108598,-2.136145 c -0.408105,-0.102266 -1.162743,-0.494976 -1.638823,-0.852825 -0.376872,-0.283294 -0.413117,-0.32456 -0.413117,-0.47041 0,-0.226429 0.07287,-0.357492 0.281374,-0.506364 0.310992,-0.222004 0.360437,-0.204331 0.692628,0.247613 0.499047,0.678969 0.746956,0.928073 1.010873,1.015733 0.215742,0.07166 0.517482,0.06338 0.517482,-0.0142 0,-0.01632 -0.07227,-0.104927 -0.160633,-0.196909 -0.08835,-0.09198 -0.268259,-0.356405 -0.399848,-0.587607 -0.233431,-0.410204 -0.238503,-0.427324 -0.210558,-0.708216 0.03759,-0.377992 0.07681,-0.443281 0.287682,-0.478602 0.09705,-0.01627 0.282686,-0.0646 0.412542,-0.107421 0.255668,-0.08432 0.781004,-0.09445 1.688971,-0.03259 l 0.508599,0.03466 0.216231,0.242481 c 0.240048,0.26921 0.392828,0.556728 0.394407,0.742184 0,0.155609 -0.596159,0.809123 -1.009225,1.103896 -0.79302,0.565876 -1.476997,0.744379 -2.178585,0.568566 z M 14.182802,18.957221 C 13.296446,18.825744 12.111886,18.601032 10.181682,18.198207 7.2083439,17.577681 7.5325105,17.66829 7.4047835,17.421992 7.306495,17.232457 7.2972429,17.161241 7.3130178,16.715461 c 0.019998,-0.566567 0.1506427,-0.960581 0.3347834,-1.009974 0.056302,-0.01509 2.3893838,-0.02775 5.1846578,-0.0281 4.474436,-5.26e-4 5.085529,0.0078 5.109475,0.07017 0.01502,0.03896 0.05973,0.07082 0.09946,0.07082 0.08196,0 0.101893,0.212222 0.02446,0.260127 -0.02635,0.0163 -0.211081,0.245949 -0.410516,0.51034 -0.19941,0.264392 -0.682424,0.859478 -1.073389,1.322413 -0.390966,0.462935 -0.736529,0.887864 -0.767941,0.944289 -0.03279,0.05889 -0.123307,0.115025 -0.212472,0.131783 -0.293518,0.05516 -0.935655,0.04153 -1.418644,-0.03012 z m 1.434967,-0.250272 c 0.118758,-0.04936 1.283578,-1.508231 1.901057,-2.381006 l 0.225458,-0.318698 H 12.733012 7.721715 l -0.080162,0.177054 c -0.1081672,0.238715 -0.108459,0.876106 0,1.075801 0.073038,0.135143 0.1187667,0.153265 0.8015078,0.317775 0.7379963,0.177825 2.2497182,0.463913 4.0290642,0.76249 2.265648,0.380182 2.927765,0.457331 3.146151,0.366584 z m 28.790917,-2.017262 c -0.156616,-0.09886 -0.184818,-0.138683 -0.158899,-0.22427 0.07681,-0.253643 0.370874,-0.410958 0.768122,-0.410958 0.149492,0 0.205854,-0.023 0.247678,-0.101167 0.05244,-0.09807 0.07475,-0.100394 0.727293,-0.07597 0.440359,0.01648 0.728384,0.04936 0.832792,0.09505 0.141923,0.0621 0.256793,0.0981 0.643578,0.20165 0.147837,0.03958 0.132508,0.138563 -0.04051,0.261784 -0.271177,0.193097 -1.287783,0.347534 -2.41556,0.366952 -0.369175,0.0064 -0.434712,-0.0059 -0.604468,-0.113072 z m 1.396243,-0.114407 c 0.289338,-0.01801 0.592898,-0.0642 0.685402,-0.104306 0.09132,-0.03959 0.268542,-0.08736 0.393857,-0.106151 0.125281,-0.0188 0.217339,-0.04461 0.204559,-0.05739 -0.06669,-0.06673 -0.625177,-0.15511 -0.97692,-0.154608 -0.501312,7.89e-4 -1.309703,0.100455 -1.455282,0.179548 -0.100254,0.05447 -0.103833,0.06841 -0.04163,0.16232 0.07887,0.119268 0.313309,0.13514 1.190053,0.08059 z m -9.221816,-0.208346 c -0.01579,-0.193018 0.05227,-0.317756 0.130645,-0.239294 0.02472,0.02466 0.05948,0.137025 0.0775,0.249677 0.03133,0.196372 0.02806,0.204164 -0.08016,0.188859 -0.09374,-0.01325 -0.115505,-0.04714 -0.127959,-0.199242 z M 53.01995,15.962379 c -0.08274,-0.05045 -0.174708,-0.137082 -0.204379,-0.192518 -0.07433,-0.138844 -0.0769,-0.565235 -0.0043,-0.699097 0.07767,-0.143185 0.324081,-0.243878 0.59676,-0.243878 0.363304,0 0.516058,0.124867 0.568841,0.465038 0.04103,0.264312 -0.04231,0.541372 -0.200225,0.665573 -0.164743,0.129584 -0.548156,0.132057 -0.756715,0.0049 z m 0.61868,-0.234136 c 0.122552,-0.135397 0.124964,-0.511273 0.0043,-0.601965 -0.108931,-0.0816 -0.453576,-0.06268 -0.566558,0.03109 -0.116269,0.09651 -0.0904,0.409681 0.04506,0.545131 0.143999,0.144009 0.39911,0.156697 0.517611,0.02574 z m -17.371007,0.0783 c -0.214394,-0.105428 -0.448246,-0.350231 -0.448426,-0.469407 0,-0.04396 0.04034,-0.150192 0.08974,-0.236073 0.04944,-0.08588 0.10397,-0.223955 0.121187,-0.306837 0.02635,-0.126717 0.05519,-0.153004 0.181403,-0.165248 0.138507,-0.01343 0.167259,-0.0492 0.372641,-0.463098 0.335814,-0.67682 0.39409,-0.916724 0.378418,-1.558073 -0.01948,-0.792922 -0.04137,-0.755432 0.442272,-0.755432 h 0.403634 l -0.01631,1.381021 c -0.01605,1.366099 -0.0176,1.384581 -0.142867,1.710467 -0.09523,0.247776 -0.185634,0.38544 -0.364651,0.555307 -0.130928,0.124223 -0.238023,0.255375 -0.238023,0.291454 0,0.07962 -0.308709,0.166607 -0.472165,0.133034 -0.06489,-0.01333 -0.203006,-0.06603 -0.30689,-0.117115 z m 0.519371,-0.257558 c 0.241781,-0.05728 0.344696,-0.448216 0.165241,-0.627675 -0.105729,-0.105733 -0.372933,-0.127544 -0.462699,-0.03777 -0.09561,0.0956 -0.07055,0.495999 0.03776,0.604344 0.05192,0.05194 0.110373,0.09196 0.129855,0.08895 0.01948,-0.003 0.07784,-0.01553 0.12983,-0.02785 z m -0.203383,-0.285778 c -0.0145,-0.199169 0.0097,-0.226328 0.152307,-0.171594 0.134954,0.05179 0.07784,0.412709 -0.06111,0.386378 -0.05347,-0.01012 -0.08111,-0.07512 -0.09122,-0.214784 z m -0.386803,-0.0142 c 0,-0.05347 -0.02128,-0.08408 -0.04721,-0.06804 -0.06128,0.03788 -0.06128,0.165248 0,0.165248 0.02601,0 0.04721,-0.04374 0.04721,-0.09722 z m 1.251007,-0.38673 c 0.128173,-0.290515 0.130567,-0.313577 0.154221,-1.487254 l 0.0242,-1.192162 -0.230718,9.5e-5 -0.230685,9.5e-5 -0.0026,0.578281 c -0.0026,0.662639 -0.09834,1.13917 -0.311395,1.542755 -0.07441,0.140944 -0.135271,0.271079 -0.135271,0.289188 0,0.01811 0.06308,0.04554 0.140188,0.06096 0.07707,0.01543 0.183978,0.07185 0.237525,0.125413 0.05356,0.05356 0.110013,0.160455 0.12541,0.237548 0.01553,0.07709 0.04386,0.140169 0.06317,0.140169 0.01922,0 0.09371,-0.132793 0.165319,-0.295092 z m 18.54484,0.365911 c -0.09566,-0.356109 -0.05602,-0.622248 0.137401,-0.922403 0.324983,-0.504276 0.843251,-1.128411 1.064795,-1.282215 l 0.22483,-0.156101 h 7.341821 c 5.894081,0 7.362797,0.01196 7.448071,0.06068 0.0842,0.0481 0.106224,0.102642 0.106224,0.262988 0,0.166571 -0.04655,0.272619 -0.26355,0.600323 -0.144944,0.218907 -0.335208,0.539001 -0.422795,0.711321 l -0.159271,0.313302 -1.217889,0.02792 c -0.669838,0.01535 -1.568448,0.04887 -1.996921,0.07448 -2.439957,0.145836 -3.592234,0.196104 -6.019837,0.262614 -3.45712,0.09471 -5.005485,0.161509 -5.476858,0.236268 -0.207743,0.03295 -0.450817,0.05698 -0.540166,0.0534 -0.153435,-0.0062 -0.165947,-0.01956 -0.225855,-0.242571 z m 1.171283,-0.04175 c 0.01078,-0.01 0.667682,-0.04267 1.4597,-0.07264 2.137318,-0.08089 3.326528,-0.13473 5.240804,-0.237271 2.074388,-0.111117 4.272928,-0.192692 6.080585,-0.225619 l 1.335548,-0.02431 0.06737,-0.130269 c 0.03703,-0.07165 0.123653,-0.197177 0.192472,-0.278955 0.189001,-0.224614 0.586535,-0.90463 0.586535,-1.003316 0,-0.08401 -0.24331,-0.08689 -7.327494,-0.08689 h -7.327495 l -0.173991,0.120564 c -0.180669,0.125215 -0.639556,0.681052 -0.979759,1.186789 -0.196151,0.291583 -0.196466,0.292782 -0.141448,0.531162 l 0.05515,0.238918 h 0.456178 c 0.250881,0 0.465012,-0.0082 0.475842,-0.01813 z M 33.930525,11.977725 c 0,-0.148657 0.315464,-0.626772 0.556439,-0.843332 0.4174,-0.375112 0.831289,-0.503338 1.804261,-0.558976 0.451765,-0.02584 0.87477,-0.0786 1.105308,-0.13788 0.324218,-0.08337 0.521104,-0.09603 1.493553,-0.09603 1.080358,0 1.120945,-0.0033 1.144762,-0.09443 0.02283,-0.08788 0.06437,-0.09443 0.597284,-0.09443 h 0.572574 l 0.14006,0.143271 c 0.07707,0.0788 0.140052,0.174409 0.140052,0.212464 0,0.06023 0.5138,0.06919 3.967476,0.06919 3.737683,0 3.968926,-0.0048 3.992219,-0.08263 0.01365,-0.04545 0.0509,-0.135742 0.08291,-0.200662 0.0581,-0.117904 0.05905,-0.118051 0.835444,-0.131258 0.563004,-0.0096 0.808545,0.0034 0.890664,0.04721 0.09085,0.04843 1.651886,0.05981 7.861197,0.05732 4.261309,-0.0018 8.565807,-0.01233 9.565569,-0.0236 1.89393,-0.02137 5.714386,0.06071 6.775264,0.145539 0.728194,0.05823 1.035958,0.107628 1.605302,0.257654 0.233688,0.06159 0.577991,0.134909 0.7651,0.162935 0.548998,0.08224 1.413568,0.38117 1.498132,0.517972 0.01472,0.024 0.01393,0.07742 -0.0027,0.118711 -0.02629,0.06847 -1.839542,0.07516 -20.597437,0.07598 -12.447956,5.26e-4 -20.889111,0.01869 -21.380408,0.04597 -0.958862,0.05323 -1.539667,0.135515 -2.469589,0.349876 -0.867165,0.199891 -0.944297,0.20472 -0.944297,0.05912 z m 0.572342,-0.241283 c 0.03253,-0.03254 1.264885,-0.254892 1.906413,-0.343977 0.519319,-0.07212 2.298828,-0.08083 21.340904,-0.104476 17.246015,-0.02142 20.726189,-0.03626 20.491028,-0.08742 -0.155801,-0.03388 -0.580752,-0.133788 -0.944297,-0.222001 -0.801718,-0.194524 -1.093657,-0.241533 -1.888567,-0.304098 -1.696754,-0.133544 -3.357626,-0.151091 -14.370303,-0.151821 l -11.348601,-7.89e-4 -0.0551,0.110467 -0.0551,0.110468 -4.138862,0.01207 -4.138837,0.01207 -0.08385,-0.141901 -0.08377,-0.141901 h -0.461961 c -0.254089,0 -0.461995,0.01867 -0.461995,0.04148 0,0.02281 -0.525834,0.05329 -1.168545,0.06772 -0.642712,0.01443 -1.264156,0.04863 -1.381026,0.076 -0.116844,0.02737 -0.584272,0.06321 -1.038715,0.07965 -0.633279,0.0229 -0.892407,0.05162 -1.109539,0.122953 -0.330715,0.108656 -0.818115,0.421104 -1.083697,0.694707 -0.182742,0.188247 -0.184132,0.192276 -0.06694,0.192276 0.06583,0 0.129435,-0.0097 0.14127,-0.0215 z M 59.530161,8.3490605 c -0.04151,-0.041488 -0.05667,-0.426828 -0.05667,-1.4391386 V 5.5274416 L 59.5799,5.5007406 c 0.05852,-0.014693 0.276273,-0.020401 0.483938,-0.012694 l 0.377556,0.014007 0.01262,1.3922799 c 0.0069,0.7657525 0.0027,1.4190818 -0.01025,1.4518409 -0.03084,0.080385 -0.833419,0.082934 -0.913435,0.00292 z M 60.228914,6.8948593 V 5.6672839 h -0.283266 -0.283291 v 1.2275754 1.2275729 h 0.283291 0.283266 z m -13.670051,1.389149 c -0.208902,-0.08728 -0.435415,-0.2854392 -0.52555,-0.4597571 -0.04411,-0.085226 -0.0763,-0.2683313 -0.07793,-0.4429119 l -0.0026,-0.2976231 h -3.837491 c -3.745717,0 -3.838693,-0.00215 -3.886378,-0.091325 -0.02686,-0.050226 -0.04892,-0.1681874 -0.04892,-0.2621339 0,-0.1462981 0.01974,-0.177708 0.137871,-0.2188678 0.07579,-0.026435 0.149519,-0.078445 0.163766,-0.11558 0.01416,-0.037137 0.05622,-0.06752 0.09332,-0.06752 0.03708,0 0.223647,-0.063666 0.414593,-0.1414798 l 0.34722,-0.1414833 1.024107,-1.416e-4 c 0.63201,-9.44e-5 1.0353,0.017929 1.053306,0.04705 0.01605,0.025971 0.06969,0.047213 0.119153,0.047213 0.04952,0 0.11275,0.042493 0.140532,0.09443 0.04926,0.092009 0.09886,0.09443 1.935173,0.09443 h 1.884647 l 0.152496,-0.2242706 c 0.08385,-0.1233473 0.180485,-0.2412566 0.214704,-0.2620231 0.03424,-0.02077 0.06231,-0.076283 0.06231,-0.1233791 0,-0.047093 0.105335,-0.1841381 0.234057,-0.3045467 0.207349,-0.1939515 0.25851,-0.2189262 0.44853,-0.2189262 H 46.82025 V 5.7087908 6.222422 l -0.130404,0.054019 c -0.07175,0.029713 -0.193891,0.1084486 -0.271487,0.1749701 l -0.141056,0.1209527 0.181532,-0.1050473 c 0.219132,-0.1267855 0.718625,-0.1742407 1.008496,-0.09581 0.230658,0.062413 0.4593,0.2402266 0.560507,0.4358998 0.09745,0.1884724 0.136455,0.6833197 0.07244,0.919364 -0.09577,0.3531957 -0.320038,0.547367 -0.728821,0.6310195 -0.234349,0.047951 -0.600657,0.014693 -0.812365,-0.073759 z m 1.013242,-0.2442742 c 0.226093,-0.1152882 0.343254,-0.2957778 0.369543,-0.5692802 0.04025,-0.4190342 -0.144866,-0.732742 -0.503046,-0.8524562 -0.508548,-0.1699545 -1.162005,0.1235704 -1.284033,0.5767583 -0.09581,0.3557903 0.141348,0.7110656 0.585937,0.877823 0.207692,0.077905 0.648565,0.060491 0.831599,-0.032846 z M 45.941178,6.5929406 c 0.147648,-0.2519814 0.373011,-0.4491291 0.554963,-0.4855204 0.132696,-0.026538 0.135031,-0.032597 0.135031,-0.3479913 V 5.4384507 l -0.153432,0.073965 c -0.188346,0.090781 -0.365913,0.2466902 -0.365913,0.3212812 0,0.030537 -0.120183,0.2074254 -0.2671,0.3930913 L 45.577635,6.5643618 H 43.586022 41.59441 L 41.5406,6.4463238 c -0.02961,-0.064919 -0.09248,-0.1180355 -0.139794,-0.1180355 -0.04729,0 -0.108193,-0.022212 -0.135323,-0.049333 -0.06197,-0.061941 -1.656563,-0.03379 -1.93483,0.03415 -0.10712,0.026151 -0.259135,0.093386 -0.337813,0.1494008 -0.07862,0.056019 -0.175935,0.1018503 -0.216128,0.1018503 -0.122019,0 -0.313627,0.1055854 -0.313627,0.1728271 0,0.052311 0.63606,0.063245 3.678214,0.063245 h 3.678249 z m 2.196721,0.337329 c -0.189711,-0.3789222 -0.511955,-0.6388031 -0.89293,-0.7201889 -0.09087,-0.019423 -0.180854,-0.059195 -0.199933,-0.088387 -0.01922,-0.029198 -0.03502,-0.2488694 -0.03536,-0.4881596 0,-0.5033613 0.02231,-0.5328203 0.417246,-0.5328203 0.349374,0 0.384683,0.024581 0.384683,0.2677769 0,0.1731481 0.02369,0.2304235 0.133795,0.3230578 0.07364,0.061932 0.18511,0.2092819 0.247806,0.3274538 l 0.113978,0.2148537 h 0.545977 c 0.44937,0 0.580564,-0.016719 0.741438,-0.094426 C 49.76142,6.058822 49.886675,6.045 50.4501,6.045 h 0.660057 l 0.103627,0.1455282 0.103644,0.1455283 1.280609,-0.018032 1.280608,-0.018032 0.542956,-0.1559038 c 0.298642,-0.085749 0.817936,-0.2618026 1.153986,-0.3912358 0.791281,-0.3047544 1.250957,-0.401613 2.217098,-0.467151 0.8846,-0.060001 1.292911,-0.03246 1.337914,0.090268 0.01578,0.043377 0.05709,0.095852 0.0915,0.1166185 0.04787,0.028872 0.06259,0.2186584 0.06259,0.8065785 0,0.4228533 -0.0142,0.7829856 -0.03149,0.8002985 -0.01735,0.01732 -2.502703,0.031473 -5.523119,0.031473 h -5.491633 z m 10.957874,-0.714969 c 0,-0.4900049 -0.01209,-0.5897859 -0.07468,-0.6137864 -0.117712,-0.045171 -1.031226,-0.033395 -1.601411,0.020633 -0.836522,0.079286 -1.21781,0.1734742 -2.213419,0.5467791 -0.100783,0.037781 -0.419483,0.1361594 -0.708211,0.2186267 l -0.525027,0.1499337 -1.404893,0.01659 C 51.244704,6.5696887 51.161453,6.5656977 51.132718,6.4848837 51.051528,6.2566521 50.9878,6.233848 50.431206,6.233848 c -0.501158,0 -0.538741,0.00687 -0.712686,0.1298409 -0.175437,0.1240253 -0.21266,0.1305267 -0.831632,0.1451919 l -0.64799,0.015354 0.102099,0.1380974 0.102099,0.1380948 h 5.32634 5.326338 z M 47.881818,6.0143499 C 47.712843,5.7788446 47.622682,5.6063694 47.622682,5.5185981 c 0,-0.1280497 -0.01021,-0.1345983 -0.212446,-0.1345983 h -0.21248 V 5.6887525 5.993507 l 0.177042,0.032185 c 0.193316,0.035137 0.601155,0.2248294 0.648651,0.3016947 0.01631,0.02646 0.04944,0.048114 0.07364,0.048114 0.0242,0 -0.07269,-0.1625176 -0.215261,-0.3611501 z M 33.475267,7.0475824 c -0.03716,-0.02392 -0.04609,-0.1715388 -0.02858,-0.4755234 0.02291,-0.3964643 0.03579,-0.4456257 0.129718,-0.4884179 0.129357,-0.058937 3.555671,0.030794 3.800826,0.099542 0.09087,0.025499 0.260844,0.071451 0.377714,0.102143 0.116844,0.030692 0.238992,0.062868 0.27146,0.071511 0.03888,0.010334 0.05905,0.1117367 0.05905,0.2966112 0,0.4752925 0.241258,0.4303684 -2.306741,0.4295479 -1.237181,-2.627e-4 -2.27369,-0.016324 -2.303369,-0.035412 z m 4.326839,-0.3651882 c 0,-0.083887 -0.02549,-0.1180346 -0.08843,-0.1180346 -0.04866,0 -0.181746,-0.041274 -0.295775,-0.09172 C 37.108036,6.3355676 36.555648,6.2890668 35.040055,6.2724637 L 33.67084,6.2574527 33.65668,6.5289365 33.64252,6.8004177 h 2.079773 2.079808 z"
   id="path45" /></svg>
