<?xml version="1.0" encoding="UTF-8" standalone="no"?>
<!-- Generator: Adobe Illustrator 16.0.0, SVG Export Plug-In . SVG Version: 6.00 Build 0)  -->

<svg
   version="1.1"
   x="0px"
   y="0px"
   width="83.5"
   height="42"
   viewBox="0 0 83.5 42"
   enable-background="new 0 0 83.5 32"
   xml:space="preserve"
   id="svg621"
   sodipodi:docname="ump45.svg"
   inkscape:version="1.1.1 (3bf5ae0d25, 2021-09-20)"
   xmlns:inkscape="http://www.inkscape.org/namespaces/inkscape"
   xmlns:sodipodi="http://sodipodi.sourceforge.net/DTD/sodipodi-0.dtd"
   xmlns="http://www.w3.org/2000/svg"
   xmlns:svg="http://www.w3.org/2000/svg"><defs
   id="defs625" /><sodipodi:namedview
   id="namedview623"
   pagecolor="#505050"
   bordercolor="#eeeeee"
   borderopacity="1"
   inkscape:pageshadow="0"
   inkscape:pageopacity="0"
   inkscape:pagecheckerboard="0"
   showgrid="false"
   height="33px"
   inkscape:zoom="11.313709"
   inkscape:cx="53.342365"
   inkscape:cy="17.191533"
   inkscape:window-width="1440"
   inkscape:window-height="847"
   inkscape:window-x="1272"
   inkscape:window-y="187"
   inkscape:window-maximized="1"
   inkscape:current-layer="svg621" />

<g
   id="guides">
</g>
<path
   style="fill:#ffffff;stroke-width:0.0416181"
   d="m 61.949716,40.081434 c 2.770142,-0.451969 2.549943,-0.389909 2.731522,-0.76985 0.112185,-0.23472 0.103299,-0.388756 -0.03044,-0.52836 -0.09725,-0.10152 -0.101739,-0.116723 -0.03438,-0.116723 0.07228,0 0.07153,-0.0063 -0.01113,-0.09428 -0.185272,-0.197212 -0.461823,-0.940627 -0.615163,-1.653681 -0.08123,-0.377685 -0.407366,-1.857216 -0.72476,-3.287843 -0.317405,-1.430625 -0.700302,-3.191078 -0.850888,-3.912111 -0.526548,-2.52119 -0.682538,-3.206165 -1.620748,-7.116721 -0.590103,-2.459624 -0.895065,-3.777444 -0.963972,-4.165644 -0.02615,-0.147306 -0.02349,-0.150793 0.182828,-0.239546 0.115145,-0.04954 0.303538,-0.111803 0.41863,-0.138371 0.180203,-0.0416 0.206576,-0.06034 0.189836,-0.135017 -0.01072,-0.04768 -0.09492,-0.408601 -0.187174,-0.802023 -0.09226,-0.393422 -0.204878,-0.921542 -0.25027,-1.1736 -0.04539,-0.25206 -0.138632,-0.698026 -0.207215,-0.991035 -0.06859,-0.293013 -0.1337,-0.57192 -0.144681,-0.619799 -0.0196,-0.08554 -0.0047,-0.08752 0.853446,-0.114249 l 0.873412,-0.0272 0.450881,-0.226124 c 0.565437,-0.283575 1.214365,-0.65567 1.476548,-0.846639 l 0.200851,-0.146303 -0.01358,0.609391 -0.01359,0.609393 1.397962,-4.2e-5 c 1.215337,-4.2e-5 1.438245,-0.01001 1.706349,-0.07633 0.266327,-0.06587 0.417884,-0.07296 1.111102,-0.05202 0.524345,0.01585 0.812998,0.04048 0.832364,0.07106 0.01631,0.02574 0.199443,0.131891 0.40696,0.235878 0.287603,0.144117 0.433036,0.249252 0.611673,0.442205 0.128899,0.139208 0.261705,0.25312 0.29513,0.25312 0.09101,0 0.443043,0.411177 0.443043,0.517472 0,0.316426 -0.191649,3.242962 -0.312235,4.768044 -0.07873,0.995716 -0.182245,2.378214 -0.230032,3.072216 -0.08683,1.261117 -0.08683,1.261966 -0.004,1.519066 0.04545,0.141483 0.113114,0.41405 0.150403,0.605704 0.07004,0.359922 0.267356,0.949232 0.370626,1.106835 0.03233,0.04934 0.204236,0.163504 0.381978,0.253637 0.317298,0.160908 0.331171,0.16384 0.763698,0.161344 0.667181,-0.004 1.249469,-0.08829 1.379163,-0.200003 0.243169,-0.209454 0.743944,-2.514496 0.878238,-4.042513 0.06085,-0.692213 0.05908,-3.432082 -0.0036,-5.86573 -0.0471,-1.823662 -0.0418,-1.885018 0.179983,-2.099362 0.101569,-0.09814 0.778949,-0.487041 1.144811,-0.65725 0.03198,-0.01489 0.116259,-0.0036 0.18728,0.02504 0.307624,0.124123 0.477682,0.136363 1.519734,0.10939 0.581717,-0.01506 1.090635,-0.04502 1.130945,-0.0666 0.04027,-0.02157 0.122817,-0.147004 0.183357,-0.278743 0.08852,-0.19259 0.105849,-0.280306 0.08843,-0.447619 -0.05182,-0.497593 -0.06423,-0.449203 0.140729,-0.548889 0.103016,-0.0501 0.277637,-0.122408 0.38806,-0.160687 0.306841,-0.106375 0.471288,-0.387107 0.628757,-1.073388 0.02103,-0.09156 0.04315,-0.111359 0.09822,-0.08775 0.03909,0.01676 0.123061,0.03939 0.186586,0.05028 0.09276,0.0159 0.106101,0.03113 0.06773,0.07735 -0.03956,0.04769 -0.01178,0.05755 0.162402,0.05755 0.161291,0 0.276195,-0.03496 0.494104,-0.150351 0.283413,-0.150064 0.285256,-0.150404 0.970655,-0.178889 0.628856,-0.02614 0.70772,-0.03822 0.93628,-0.143384 0.500204,-0.230157 0.614254,-0.429361 0.637324,-1.113231 0.01901,-0.5628588 -0.0388,-0.903043 -0.182434,-1.0737325 -0.05559,-0.066028 -0.101009,-0.1490074 -0.101009,-0.1844097 0,-0.035396 -0.01655,-0.074579 -0.03674,-0.087059 -0.0202,-0.01248 -0.749873,-0.024836 -1.621497,-0.027458 -1.138115,-0.00337 -1.595849,-0.01824 -1.624082,-0.052597 C 79.396532,8.8269475 79.347101,8.693055 79.308317,8.5557136 79.269485,8.4183605 79.185655,8.2395997 79.121966,8.1584555 79.015675,8.0230314 79.004346,7.9734973 78.983968,7.5549912 78.952589,6.9099938 78.845812,5.9030705 78.770021,5.5370477 78.646229,4.9392749 77.921133,2.7698441 77.64087,2.1587154 77.451806,1.746477 77.317512,1.5916096 77.017425,1.4397786 76.81473,1.3372273 76.76076,1.3279878 76.469057,1.3459079 75.856045,1.3835672 75.234673,1.5508971 75.11812,1.7097017 74.99867,1.8724538 74.752345,2.5742588 74.709387,2.874217 74.623963,3.4707551 74.471523,3.7771931 74.029351,4.2412449 73.743625,4.5411237 73.123159,5.0717782 72.875357,5.2282096 L 72.71366,5.3302875 H 65.013463 57.313262 V 4.87249 4.414689 H 56.668183 56.023094 V 4.1233614 3.8320348 H 55.482063 54.941027 V 4.1233614 4.414689 h -0.395373 -0.39538 V 4.1233614 3.8320348 H 53.567627 52.984962 V 4.1233614 4.414689 H 52.589595 52.194214 V 4.0805698 3.7464487 l -0.572248,0.011582 -0.572249,0.011582 -0.01219,0.3225405 -0.01213,0.3225413 h -0.454296 -0.4543 L 50.104681,4.0921536 50.092491,3.7696131 49.54105,3.7580041 48.98961,3.7463951 V 4.0805491 4.414703 H 48.573429 48.157248 V 4.0817519 3.748806 H 47.55378 46.950313 v 0.3329459 0.332946 H 46.492515 46.034717 V 4.0805777 3.7464576 l -0.572255,0.011582 -0.572249,0.011582 -0.01214,0.3225412 -0.01214,0.3225414 h -0.371067 -0.371062 l -0.01214,-0.3225414 -0.01219,-0.3225412 -0.551441,-0.011609 -0.551446,-0.011609 v 0.334154 0.3341539 H 42.644608 42.2926 L 42.28046,4.0921701 42.26833,3.7696289 41.696074,3.7580469 41.123826,3.7464649 V 4.080585 4.4147052 h -1.061265 -1.061266 v 0.457801 c 0,0.4300549 -0.0053,0.4578001 -0.08323,0.4578001 -0.08025,0 -0.08334,-0.02872 -0.08616,-0.8011507 l -0.003,-0.8011506 -0.156456,-0.2497101 -0.156444,-0.2497092 -0.5207,-0.030845 c -0.43197,-0.025592 -0.569637,-0.050996 -0.808208,-0.1491649 -0.28446,-0.1170532 -0.288882,-0.1175056 -0.412401,-0.042214 -0.113303,0.069068 -0.240402,0.07641 -1.373394,0.079264 -0.686701,0.00169 -1.280823,0.015938 -1.320261,0.031582 -0.03945,0.015636 -0.573179,0.5511926 -1.186114,1.1901143 -0.61293,0.6389235 -1.161267,1.1962041 -1.218528,1.2384038 -0.07127,0.052517 -0.223639,0.087753 -0.482869,0.1116744 -0.208301,0.019227 -0.399713,0.047921 -0.425368,0.063761 -0.02561,0.015849 -0.292621,0.064926 -0.593298,0.1090512 -0.817961,0.1200514 -1.01216,0.1807572 -1.390551,0.4347003 -0.407015,0.2731477 -1.642707,0.8740521 -2.360747,1.1480079 -0.571091,0.2178901 -1.566634,0.5416643 -2.326263,0.7565598 l -0.473966,0.1340836 -8.739832,0.024951 C 7.678081,8.3490848 5.8843365,8.3655028 4.6662734,8.4220022 2.1927005,8.5367506 1.6260749,8.5791387 1.46167,8.6617273 1.1680526,8.8092227 1.0038601,9.0905555 1.0038601,9.446164 c 0,0.2834315 0.072934,0.783114 0.1693036,1.159896 0.070925,0.277304 0.080481,0.467086 0.081033,1.608317 0,1.062784 0.012836,1.342235 0.069165,1.56443 0.060667,0.239404 0.06897,0.653488 0.072214,3.599978 0.00408,3.680461 -0.012249,3.454672 0.2728732,3.779416 0.2759175,0.314247 0.9599386,0.423218 2.4708528,0.39363 l 1.0053232,-0.01969 10.8765291,-3.897476 10.876526,-3.89748 h 1.426463 c 1.82969,0 3.088875,0.06115 3.372912,0.163787 0.114451,0.04136 0.404735,0.116676 0.645089,0.167369 0.240337,0.05069 0.886463,0.238469 1.435825,0.417275 0.549363,0.178806 1.139299,0.365994 1.31097,0.415973 0.416164,0.121156 0.604179,0.236461 0.898267,0.550866 0.408628,0.436851 0.609056,0.94285 0.664209,1.676826 l 0.02814,0.374774 -1.142085,1.997466 c -1.679635,2.937648 -2.46928,4.343341 -2.787368,4.962001 -0.240306,0.467377 -0.28313,0.582649 -0.28313,0.762025 0,0.197483 0.01413,0.226281 0.215353,0.439059 0.590001,0.623829 3.347565,2.20736 4.527614,2.599972 0.453118,0.150762 0.639885,0.148731 0.9496,-0.0103 0.282665,-0.145168 0.32268,-0.283554 0.263535,-0.911281 -0.03786,-0.401879 -0.03504,-0.5219 0.01714,-0.72218 0.111348,-0.427499 0.668347,-1.549382 1.354789,-2.728758 0.443909,-0.762666 0.471005,-0.793066 0.71097,-0.797538 0.175216,-0.0033 0.213452,-0.02339 0.395333,-0.208048 0.126867,-0.12881 0.184359,-0.215406 0.155407,-0.234101 -0.02526,-0.01632 -0.06997,-0.104582 -0.09934,-0.196143 -0.02938,-0.09156 -0.117953,-0.295562 -0.196835,-0.453339 -0.109058,-0.21813 -0.137503,-0.318488 -0.11868,-0.418829 0.01361,-0.07258 0.198121,-0.413113 0.410018,-0.756741 l 0.385258,-0.624779 0.73981,0.381962 c 0.782403,0.403956 1.359445,0.618352 1.839081,0.683301 1.208396,0.163631 4.421684,0.04659 5.481272,-0.199655 0.275675,-0.06407 0.313748,-0.08616 0.448135,-0.260072 0.08078,-0.104531 0.240502,-0.303227 0.354952,-0.441547 0.114451,-0.138319 0.285645,-0.354289 0.38043,-0.479935 0.247414,-0.327943 0.424631,-0.447491 0.796776,-0.537477 0.335257,-0.08107 1.575406,-0.190549 1.684446,-0.148707 0.07175,0.02753 0.153135,0.524624 0.167596,1.023666 l 0.0089,0.306561 0.246807,0.07623 c 0.135748,0.04192 0.259637,0.0683 0.275311,0.05862 0.0648,-0.04006 0.07119,-0.39372 0.01602,-0.888012 -0.07773,-0.696348 -0.08166,-0.662294 0.08582,-0.742161 0.139506,-0.06652 0.149132,-0.06585 0.239307,0.0167 0.0517,0.04731 0.135148,0.09849 0.185472,0.11373 0.05034,0.01524 0.100744,0.05954 0.112019,0.09843 0.03568,0.122985 0.672228,2.998421 1.065994,4.815182 0.572525,2.64154 1.278385,5.781353 1.857199,8.26122 0.742424,3.180845 1.259968,5.415714 1.575782,6.804581 0.329481,1.448996 0.302031,1.353682 0.388132,1.347871 0.03851,-0.0023 1.192061,-0.187793 2.563439,-0.411544 z m -2.257277,-0.270435 c -0.01119,-0.102728 -0.163835,-0.576966 -0.275877,-0.856905 -0.02249,-0.05612 0.03839,-0.07381 0.402002,-0.116706 0.353763,-0.04174 1.370328,-0.207582 3.144075,-0.512975 0.222734,-0.03833 0.260029,-0.05735 0.259481,-0.132273 0,-0.05723 -0.01176,-0.06997 -0.0328,-0.03686 -0.01781,0.02803 -0.207891,0.07019 -0.425956,0.09447 -0.465685,0.05188 -0.602774,0.0752 -1.829612,0.311564 -0.515027,0.09923 -1.059979,0.192767 -1.211001,0.207863 l -0.274605,0.02744 -0.151003,-0.616503 c -0.08304,-0.339077 -0.281225,-1.197076 -0.440395,-1.90667 -0.159176,-0.709591 -0.467525,-2.048659 -0.68524,-2.975707 -0.444155,-1.891309 -0.908648,-3.922999 -1.279775,-5.597653 -0.341233,-1.539778 -0.683644,-3.03767 -1.398518,-6.117879 -0.334686,-1.442071 -0.609961,-2.662778 -0.611716,-2.712683 -0.0024,-0.07475 -0.07014,-0.117228 -0.383103,-0.241098 L 54.11849,18.478062 54.10095,17.99084 c -0.01607,-0.445971 -0.02944,-0.512926 -0.157752,-0.790815 -0.0771,-0.166975 -0.162856,-0.3168 -0.190565,-0.332945 -0.03863,-0.02249 -0.813822,-4.141961 -0.810235,-4.305627 0,-0.01717 1.319749,-0.03121 2.931924,-0.03121 h 2.931266 l 0.172024,0.545652 c 0.09462,0.300109 0.216324,0.641898 0.270465,0.759533 0.084,0.182526 0.651059,2.639731 0.774495,3.356057 0.02168,0.125895 0.04829,0.269525 0.05909,0.319178 0.04705,0.216146 -0.501417,0.395781 -2.206824,0.72279 -0.732485,0.140452 -1.33597,0.2595 -1.341087,0.26455 -0.0053,0.005 0.191531,0.0055 0.436997,0.0011 0.260843,-0.0048 0.725089,-0.05599 1.117236,-0.123315 0.369031,-0.06336 0.698988,-0.10444 0.733251,-0.09129 0.03851,0.01477 0.108086,0.200254 0.182103,0.485451 0.152423,0.587136 0.177453,0.534802 0.03851,-0.08056 -0.05818,-0.257727 -0.105773,-0.484806 -0.105773,-0.50462 0,-0.01981 0.08302,-0.03602 0.184471,-0.03602 0.139876,0 0.189606,0.01761 0.205686,0.07283 0.01165,0.04006 0.987347,4.461396 2.168188,9.825199 l 2.146985,9.752369 0.191567,0.381677 c 0.105353,0.209919 0.254625,0.480355 0.331709,0.600978 0.09026,0.141252 0.140144,0.270847 0.140144,0.364155 0,0.141824 -0.0037,0.144856 -0.170493,0.144856 -0.09377,0 -0.510399,0.05729 -0.925839,0.127257 -0.41544,0.06999 -0.980152,0.15459 -1.254932,0.187986 -0.410224,0.04988 -1.781894,0.272668 -2.018651,0.327898 -0.158764,0.03703 -0.228955,0.0012 -0.242473,-0.122913 z m 1.137271,-0.271455 c 0.457797,-0.06395 1.085195,-0.164522 1.394206,-0.223485 0.309019,-0.05896 0.832328,-0.136072 1.16293,-0.17137 0.330592,-0.03532 0.608011,-0.07112 0.616499,-0.07959 0.0085,-0.0085 -0.06326,-0.171865 -0.159427,-0.363078 -0.258508,-0.514011 -0.355611,-0.798926 -0.541816,-1.589737 -0.148506,-0.630717 -0.84183,-3.764159 -0.961655,-4.346157 -0.02485,-0.120718 -0.05345,-0.211222 -0.06356,-0.201118 -0.02934,0.02932 0.992833,4.759755 1.192307,5.517694 0.04501,0.171052 0.07821,0.3126 0.07377,0.31456 -0.01917,0.0085 -1.599673,0.284533 -2.664341,0.465394 -1.095699,0.186133 -1.156945,0.201264 -1.138234,0.281205 0.09875,0.421792 0.136025,0.5211 0.193957,0.516726 0.03462,-0.0023 0.437549,-0.05706 0.895357,-0.12104 z m -0.228901,-1.14368 c 0.887747,-0.154583 2.340889,-0.433275 2.360288,-0.452669 0.0098,-0.0097 -0.06906,-0.398736 -0.175027,-0.864507 -0.499841,-2.196954 -0.707059,-3.136661 -1.040249,-4.717354 -0.19783,-0.938489 -0.600838,-2.811309 -0.895584,-4.161823 -0.294747,-1.350513 -0.828542,-3.81327 -1.186221,-5.472797 -0.357671,-1.659527 -0.717193,-3.293564 -0.798948,-3.631191 -0.139145,-0.574653 -0.15489,-0.613869 -0.246543,-0.613869 -0.09431,0 -1.104248,0.205111 -1.13175,0.229852 -0.0318,0.02863 0.246801,1.270351 1.456592,6.491493 0.705411,3.044375 1.282641,5.56795 1.282724,5.607941 0,0.03998 -0.13119,0.249776 -0.291715,0.466171 l -0.291856,0.393454 -0.171777,-0.06061 c -0.236309,-0.08337 -0.40397,-0.19318 -0.580398,-0.3801 C 58.743569,31.074347 58.73535,31.046981 58.480093,29.86424 58.336826,29.200426 58.044675,27.880089 57.830852,26.930154 57.617029,25.980215 57.31836,24.62242 57.167145,23.91283 c -0.151228,-0.709592 -0.43218,-1.936289 -0.624336,-2.725996 -0.19216,-0.789705 -0.381706,-1.613746 -0.421227,-1.831201 -0.03951,-0.217456 -0.08258,-0.408264 -0.09571,-0.424019 -0.02373,-0.02849 -0.872956,0.03149 -0.905428,0.06395 -0.0093,0.0094 0.03891,0.239348 0.107297,0.511082 0.06838,0.271732 0.247538,1.074634 0.398135,1.784226 0.494686,2.330916 0.827258,3.785072 1.270683,5.556035 0.378335,1.511027 0.800304,3.305489 1.233089,5.243896 0.661176,2.961265 1.269707,5.553428 1.453313,6.190716 l 0.06295,0.218492 0.196524,-0.003 c 0.108086,-0.0018 0.449355,-0.04716 0.758374,-0.100996 z m 1.656425,-5.951292 c 0,-0.04575 -0.015,-0.130054 -0.03332,-0.18728 -0.02638,-0.08239 -0.03332,-0.08672 -0.03332,-0.02085 0,0.04581 0.01499,0.13006 0.03332,0.187286 0.02638,0.08238 0.03332,0.08673 0.03332,0.02078 z m -0.08322,-0.374565 c 0,-0.04575 -0.015,-0.130054 -0.03332,-0.18728 -0.02638,-0.08239 -0.03333,-0.08673 -0.03333,-0.02078 0,0.04581 0.01499,0.130055 0.03333,0.187281 0.02638,0.08238 0.03332,0.08672 0.03332,0.02078 z m -0.07822,-0.371097 c 0.0018,-0.04387 -0.0081,-0.06845 -0.02186,-0.05464 -0.01383,0.01384 -0.01531,0.04976 -0.0033,0.07977 0.01329,0.03321 0.02316,0.02331 0.02516,-0.02514 z m -0.0449,-0.190748 c 0,-0.05722 -0.0095,-0.08063 -0.02099,-0.05205 -0.01155,0.02861 -0.01155,0.07543 0,0.104041 0.01153,0.02861 0.02099,0.0053 0.02099,-0.05205 z M 59.7274,31.251116 c 0.07101,-0.115399 0.121334,-0.217586 0.111842,-0.227078 -0.04075,-0.04075 -0.16189,0.04569 -0.219062,0.156222 -0.0726,0.140387 -0.227266,0.160912 -0.350112,0.04645 -0.151263,-0.140918 -0.279451,-0.370219 -0.308485,-0.551836 -0.01607,-0.100678 -0.102569,-0.445991 -0.192143,-0.767365 -0.08958,-0.321378 -0.192408,-0.799696 -0.228501,-1.062932 -0.142626,-1.040109 -0.35059,-2.039451 -0.708074,-3.402675 -0.194127,-0.740277 -0.186933,-0.717529 -0.226853,-0.717529 -0.01884,0 0.0012,0.154506 0.04404,0.343349 0.04311,0.188844 0.173885,0.792828 0.29068,1.342191 0.116789,0.549355 0.323999,1.513864 0.460453,2.143338 0.13646,0.629474 0.310003,1.44322 0.385652,1.808329 l 0.137545,0.663825 0.224355,0.176699 c 0.123396,0.09718 0.275042,0.195175 0.336971,0.217756 0.105807,0.03857 0.120404,0.02839 0.241709,-0.168762 z m 2.285148,0.07324 c 0.0018,-0.04387 -0.0081,-0.06845 -0.02185,-0.05464 -0.01383,0.01384 -0.0153,0.04976 -0.0033,0.07977 0.01328,0.03321 0.02315,0.02331 0.02514,-0.02514 z m -0.04162,-0.166477 c 0.0018,-0.04387 -0.0081,-0.06844 -0.02184,-0.05464 -0.01383,0.01384 -0.0153,0.04975 -0.0033,0.07977 0.01329,0.03321 0.02315,0.02332 0.02514,-0.02514 z m -2.411039,-0.252698 0.140718,-0.145186 -0.195518,-0.843244 C 59.397566,29.452956 59.248966,28.839398 59.174864,28.55327 l -0.134728,-0.520228 -0.223981,-0.01278 c -0.216825,-0.01236 -0.223031,-0.0097 -0.194921,0.08323 0.01595,0.05281 0.05411,0.227099 0.08481,0.38733 0.03067,0.16023 0.07512,0.375607 0.0988,0.478612 0.02367,0.103005 0.073,0.374565 0.109581,0.603467 0.117012,0.73169 0.356742,1.466136 0.481698,1.475681 0.01266,0.0012 0.08637,-0.06357 0.163769,-0.14342 z m 2.369417,0.04464 c 0.0018,-0.04387 -0.0081,-0.06845 -0.02185,-0.05464 -0.01383,0.01384 -0.0153,0.04976 -0.0033,0.07976 0.01328,0.03321 0.02315,0.02332 0.02514,-0.02514 z m -1.923671,-0.190754 c -0.05222,-0.313142 -0.66422,-3.142297 -0.863529,-3.992113 -0.271413,-1.157218 -0.821729,-3.364755 -0.826569,-3.315711 -0.0018,0.02078 0.04151,0.282983 0.0968,0.582656 0.05529,0.299675 0.122488,0.685323 0.149313,0.856999 0.02686,0.171675 0.179284,0.873477 0.338772,1.559559 0.275972,1.187198 0.286339,1.250217 0.214836,1.305376 -0.06914,0.05335 -0.06642,0.05647 0.03397,0.03916 0.107091,-0.01849 0.11076,-0.01119 0.201176,0.400972 0.158493,0.722553 0.633667,2.666171 0.657142,2.687986 0.0123,0.01142 0.01148,-0.04474 -0.0018,-0.124855 z m 1.882049,0.02426 c 0.0018,-0.04387 -0.0081,-0.06845 -0.02185,-0.05464 -0.01383,0.01384 -0.0153,0.04976 -0.0033,0.07977 0.01328,0.03321 0.02315,0.02331 0.02514,-0.02514 z m -0.08323,-0.374566 c 0.0018,-0.04387 -0.0081,-0.06845 -0.02185,-0.05464 -0.01383,0.01384 -0.01531,0.04976 -0.0033,0.07976 0.01329,0.03321 0.02316,0.02331 0.02516,-0.02514 z M 58.901832,27.44996 c 0.02844,-0.02844 -0.05989,-0.485295 -0.232276,-1.201005 -0.07791,-0.323482 -0.174356,-0.733289 -0.214312,-0.910689 l -0.07264,-0.322541 H 58.15943 57.936262 l 0.02591,0.176878 c 0.03079,0.210067 0.356813,1.547375 0.481933,1.976864 l 0.0879,0.301737 H 58.7063 c 0.09585,0 0.183841,-0.0096 0.195516,-0.02125 z m -1.342441,-2.909375 c 0.0018,-0.04387 -0.0081,-0.06845 -0.02184,-0.05462 -0.01384,0.01383 -0.01531,0.04973 -0.0036,0.07977 0.01324,0.0332 0.02314,0.02334 0.02514,-0.02514 z m 0.737986,-0.136748 c -0.243611,-0.855963 -0.55491,-2.104582 -0.654188,-2.623939 l -0.04976,-0.260113 h -0.193976 -0.19398 l 0.0491,0.387362 c 0.05747,0.453144 0.09373,0.639561 0.309285,1.589505 0.0883,0.38913 0.166289,0.763693 0.173296,0.832364 0.01266,0.123902 0.01495,0.124949 0.297114,0.137238 0.256916,0.01119 0.282306,0.0051 0.263064,-0.06242 z m -0.782892,-0.05401 c 0,-0.05722 -0.0094,-0.08063 -0.02103,-0.05201 -0.01153,0.02861 -0.01153,0.07543 0,0.104046 0.01153,0.02861 0.02103,0.0051 0.02103,-0.05203 z m -0.04004,-0.166472 c 0.0024,-0.03433 -0.05204,-0.362079 -0.121358,-0.72832 -0.06931,-0.36624 -0.172736,-0.946815 -0.229832,-1.290165 -0.05712,-0.343351 -0.114693,-0.678163 -0.127993,-0.744028 l -0.0242,-0.119755 0.377928,0.01807 c 0.207865,0.0099 0.391022,0.03116 0.407025,0.04716 0.01602,0.016 0.09185,0.249042 0.168551,0.51787 0.07669,0.268826 0.132626,0.441955 0.124295,0.38473 -0.02402,-0.164704 -0.586739,-2.493656 -0.599463,-2.480934 -0.0063,0.0063 0.03532,0.287647 0.09253,0.625224 0.151322,0.893248 0.17853,0.815253 -0.28445,0.815253 h -0.388431 l -0.09328,-0.447395 c -0.05129,-0.246069 -0.159642,-0.728319 -0.240755,-1.07167 -0.0811,-0.343351 -0.168678,-0.747635 -0.194597,-0.898409 l -0.0471,-0.274134 -0.561845,0.114034 -0.561845,0.114034 0.395368,-0.02346 c 0.217455,-0.0129 0.449726,-0.02514 0.516148,-0.02718 l 0.120774,-0.0037 0.615756,2.705184 c 0.338654,1.487853 0.623916,2.733278 0.633926,2.767613 0.01613,0.05549 0.01867,0.05549 0.02284,0 z m 0.82906,-0.853174 c 0,-0.04578 -0.01502,-0.130057 -0.03333,-0.187283 -0.02637,-0.08238 -0.03333,-0.08673 -0.03333,-0.02081 0,0.04578 0.01502,0.130057 0.03333,0.187282 0.02637,0.08238 0.03333,0.08672 0.03333,0.02081 z m -0.07822,-0.371096 c 0.0018,-0.04387 -0.0081,-0.06845 -0.02184,-0.05462 -0.01384,0.01383 -0.0153,0.04973 -0.0036,0.07977 0.01331,0.0332 0.02314,0.02334 0.02514,-0.02514 z m -0.04163,-0.166474 c 0.0018,-0.04387 -0.0079,-0.06845 -0.02184,-0.05462 -0.01384,0.01383 -0.0153,0.04973 -0.0036,0.07977 0.01331,0.0332 0.02314,0.02334 0.02514,-0.02515 z m -0.04163,-0.166473 c 0.0018,-0.04387 -0.0079,-0.06845 -0.02184,-0.05462 -0.01384,0.01383 -0.0153,0.04973 -0.0036,0.07977 0.01331,0.0332 0.02314,0.02334 0.02514,-0.02514 z m -0.04163,-0.166473 c 0.0018,-0.04387 -0.0081,-0.06845 -0.02184,-0.05462 -0.01384,0.01383 -0.0153,0.04973 -0.0036,0.07977 0.01331,0.0332 0.02314,0.02334 0.02514,-0.02515 z M 57.395962,20.90592 c 0,-0.04006 -0.04481,-0.288207 -0.09931,-0.551442 -0.05452,-0.263235 -0.141618,-0.716321 -0.193545,-1.006859 -0.05193,-0.290537 -0.107114,-0.548772 -0.122623,-0.573855 -0.01784,-0.02886 -0.0919,-0.03541 -0.201618,-0.01788 -0.152399,0.02437 -0.173406,0.04096 -0.173306,0.136864 0,0.157326 0.156438,0.940026 0.246105,1.232822 0.04204,0.13734 0.100509,0.385488 0.129878,0.551442 l 0.05341,0.301732 h 0.180615 c 0.144344,0 0.180573,-0.01462 0.180396,-0.07283 z m 0.03857,-1.234674 c 0.0018,-0.04387 -0.0081,-0.06845 -0.02184,-0.05462 -0.01384,0.01383 -0.01531,0.04973 -0.0036,0.07977 0.01331,0.0332 0.02314,0.02334 0.02514,-0.02514 z m 1.789587,-0.166474 c 0.0018,-0.04387 -0.0081,-0.06845 -0.02184,-0.05462 -0.01384,0.01383 -0.0153,0.04973 -0.0036,0.07977 0.01324,0.0332 0.02314,0.02334 0.02514,-0.02514 z m -1.830956,0.03232 c 0.0053,-0.07924 -0.162815,-0.860755 -0.190366,-0.886111 -0.05081,-0.04681 0.03226,0.497168 0.108964,0.712995 0.04311,0.121307 0.07972,0.19921 0.08141,0.173116 z m 1.789334,-0.198799 c 0.0018,-0.04387 -0.0081,-0.06845 -0.02184,-0.05462 -0.01384,0.01383 -0.0153,0.04973 -0.0036,0.07977 0.01331,0.0332 0.02314,0.02334 0.02514,-0.02514 z M 55.06905,18.506324 c 0.01808,-0.01767 1.129048,-0.203344 2.764146,-0.461962 1.172785,-0.185495 1.144505,-0.17881 1.144505,-0.270543 0,-0.05683 0.04204,-0.07926 0.176869,-0.09439 0.189382,-0.02127 0.606394,-0.133645 0.647151,-0.174394 0.02849,-0.02851 -0.07584,-0.625097 -0.387007,-2.212213 -0.210572,-1.074087 -0.228366,-1.138007 -0.367534,-1.320322 -0.113151,-0.148233 -0.165547,-0.278952 -0.231523,-0.577617 -0.04692,-0.212313 -0.09075,-0.423481 -0.09745,-0.46926 -0.01201,-0.08216 -0.04811,-0.08338 -2.766237,-0.09394 l -2.754076,-0.0107 0.02278,0.156366 c 0.01254,0.08601 0.10463,0.587112 0.204631,1.113583 0.100002,0.526471 0.251718,1.331784 0.337136,1.789584 0.137366,0.736195 0.17101,0.855559 0.291114,1.033102 0.17883,0.264372 0.217844,0.416182 0.248938,0.968728 l 0.02597,0.461957 0.277855,0.08949 c 0.263664,0.08492 0.424248,0.110096 0.462685,0.07255 z m -19.74061,7.421883 -1.862103,-0.848808 0.158952,-0.146292 c 0.08743,-0.08046 0.249356,-0.314847 0.359851,-0.520858 0.188558,-0.351554 0.595295,-1.068237 1.322681,-2.330621 0.171464,-0.29757 0.577277,-1.007741 0.901824,-1.578156 1.007708,-1.771158 1.503495,-2.434317 1.986617,-2.657281 0.276477,-0.127595 0.985569,-0.125452 1.542963,0.0046 0.211491,0.04937 0.443384,0.08976 0.515318,0.08976 0.275606,0 0.501711,0.392495 0.560632,0.973199 l 0.02585,0.25454 -1.65404,3.620787 c -0.909731,1.991433 -1.698346,3.719743 -1.752493,3.840689 -0.08177,0.18264 -0.110777,0.213747 -0.171187,0.183547 -0.03998,-0.02002 -0.910686,-0.418325 -1.93484,-0.885168 z m 2.004429,0.429696 c 0.05305,-0.108727 0.40062,-0.899995 0.772347,-1.758372 0.657849,-1.519069 1.458229,-3.297854 1.973894,-4.386878 0.139905,-0.295454 0.247879,-0.543684 0.239948,-0.551619 -0.01607,-0.01607 -0.614242,1.211379 -0.936251,1.921175 -0.114228,0.25179 -0.511109,1.132017 -0.881952,1.956058 -0.37085,0.82404 -0.761943,1.66681 -0.869104,1.87282 -0.107157,0.20601 -0.254957,0.512793 -0.328451,0.681738 -0.132133,0.303768 -0.135112,0.306924 -0.268852,0.284467 -0.07437,-0.01248 -0.172683,-0.03468 -0.218469,-0.04934 -0.04575,-0.01466 0.01978,0.02968 0.145675,0.09854 0.125886,0.06886 0.239212,0.126075 0.251819,0.127152 0.01261,0.0012 0.06634,-0.08699 0.119396,-0.195723 z m -0.662547,-0.09364 c -0.03433,-0.0222 -0.08115,-0.04033 -0.104053,-0.04033 -0.02291,0 -0.01355,0.01814 0.02085,0.04033 0.03433,0.0222 0.08116,0.04033 0.10404,0.04033 0.02291,0 0.01355,-0.01813 -0.02078,-0.04033 z m 0.554342,-0.509819 c 0.08143,-0.188843 0.465883,-1.010481 0.854343,-1.825863 0.38848,-0.815381 0.968554,-2.079535 1.289073,-2.809232 0.320507,-0.729694 0.659868,-1.49365 0.754105,-1.697678 0.169987,-0.367996 0.171041,-0.373267 0.131368,-0.659581 -0.02202,-0.158741 -0.04605,-0.294685 -0.05347,-0.302099 -0.03733,-0.03734 -0.708761,-0.190066 -1.014449,-0.230745 -0.372127,-0.04952 -0.656194,-0.01529 -0.89408,0.107715 -0.286541,0.148177 -0.81881,0.951095 -2.413422,3.640627 -0.931636,1.571335 -1.621668,2.785198 -1.621668,2.852752 0,0.02601 0.08895,0.09528 0.197684,0.153931 0.410282,0.221309 2.463481,1.113524 2.562488,1.113524 0.03545,0 0.120598,-0.140566 0.208035,-0.343351 z m -2.853755,-0.560012 c -0.233189,-0.124167 -0.364161,-0.218699 -0.364161,-0.262842 0,-0.129287 2.574381,-4.480594 3.353164,-5.667624 0.506138,-0.771458 0.714421,-1.010284 0.995938,-1.141965 0.223944,-0.104744 0.192208,-0.127899 -0.06832,-0.04985 -0.08867,0.02657 -0.236944,0.113123 -0.329492,0.19235 -0.182582,0.156279 -0.679417,0.889551 -1.16228,1.715407 -0.167295,0.286125 -0.617409,1.044617 -1.000265,1.685538 -1.264826,2.117427 -1.956813,3.323715 -1.924582,3.354974 0.03492,0.03387 0.801463,0.370451 0.840111,0.368886 0.01324,-5.18e-4 -0.139834,-0.08824 -0.340113,-0.19488 z m 6.12822,-6.63544 c 3e-5,-0.03758 -0.0608,-0.142302 -0.135194,-0.232711 -0.124072,-0.150774 -0.159376,-0.167858 -0.426592,-0.206389 -0.160229,-0.0231 -0.296225,-0.03834 -0.302207,-0.03386 -0.006,0.0044 0.153205,0.06256 0.353757,0.129056 0.325471,0.107921 0.372451,0.136555 0.437396,0.266573 0.04004,0.08011 0.0728,0.114914 0.07284,0.07733 z m 30.494258,2.882299 c -0.224039,-0.01806 -0.422512,-0.04993 -0.441041,-0.07081 -0.03486,-0.03933 0.146758,-2.971005 0.258924,-4.178985 0.03509,-0.377686 0.07525,-0.939532 0.08929,-1.248547 0.02302,-0.506272 0.01772,-0.574307 -0.05341,-0.68782 -0.106338,-0.169647 -1.002462,-1.143383 -1.052251,-1.143383 -0.02173,0 -0.209595,-0.09588 -0.417465,-0.21306 l -0.377948,-0.213061 -0.755419,-0.03305 c -0.415493,-0.01817 -0.827164,-0.0547 -0.914849,-0.08115 -0.131043,-0.03953 -0.205115,-0.03518 -0.416187,0.02444 -0.212793,0.06011 -0.484613,0.0754 -1.587447,0.08928 -1.306427,0.01646 -1.329397,0.01531 -1.258957,-0.06251 0.04636,-0.05123 0.07174,-0.14806 0.07174,-0.273685 v -0.19441 h 6.762968 6.762954 l 0.0018,0.13526 c 0.0018,0.11988 0.04268,0.263602 0.142667,0.49942 0.02891,0.06823 -0.03198,0.07272 -0.961994,0.07102 -0.546094,-0.0011 -1.077162,-0.02069 -1.180178,-0.04377 -0.103005,-0.02309 -0.286671,-0.05276 -0.40814,-0.06597 -0.202988,-0.02206 -0.236679,-0.01266 -0.41601,0.116129 -0.107321,0.07708 -0.391858,0.235859 -0.632308,0.352857 -0.632447,0.307743 -0.777121,0.447833 -0.855815,0.828684 -0.01889,0.09156 -0.02849,1.57577 -0.02138,3.298245 l 0.01301,3.131772 -0.972639,-0.0021 c -0.534943,-0.0012 -1.155933,-0.0168 -1.379983,-0.03486 z m 2.072293,-2.845182 c -0.01519,-1.447794 -0.02856,-2.810271 -0.02967,-3.027726 -0.0018,-0.312519 0.01731,-0.446238 0.09077,-0.63809 0.166383,-0.434675 0.427881,-0.647741 1.439198,-1.172654 0.570948,-0.296339 0.689474,-0.319358 1.042012,-0.202377 0.151415,0.05024 0.423253,0.07291 1.050031,0.08755 l 0.845723,0.01977 -0.01337,-0.139581 -0.01337,-0.139581 -4.473957,-0.0041 c -2.460684,-0.0023 -4.361588,0.0071 -4.22425,0.02081 0.209524,0.02095 0.325247,0.06942 0.719022,0.301216 0.40639,0.239213 0.505232,0.320127 0.737149,0.603464 0.147293,0.179966 0.372651,0.411487 0.500762,0.514492 0.12813,0.103005 0.280734,0.267356 0.339114,0.365225 l 0.106162,0.177942 -0.0454,0.550377 c -0.02496,0.302706 -0.06549,0.934305 -0.09005,1.403551 -0.02455,0.469247 -0.08003,1.312015 -0.123218,1.87282 -0.04322,0.560805 -0.09139,1.236899 -0.107073,1.502428 l -0.02856,0.482781 0.09891,0.02647 c 0.05441,0.01456 0.57338,0.02673 1.153265,0.02704 l 1.054346,5.18e-4 z m -0.697321,-4.41013 c -0.08409,-0.09634 -0.09415,-0.273258 -0.02426,-0.426645 0.08686,-0.190606 0.464847,-0.21211 0.599858,-0.03413 0.07135,0.09406 0.07537,0.348339 0.007,0.441837 -0.116948,0.159935 -0.450103,0.170762 -0.5826,0.01893 z m 0.411536,-0.178281 c 0.03934,-0.102446 -0.01726,-0.187281 -0.124855,-0.187281 -0.107616,0 -0.164165,0.08484 -0.124856,0.187281 0.03109,0.08099 0.218628,0.08099 0.249711,0 z m -6.71421,-0.634551 c -0.301932,-0.0071 -0.807593,-0.0071 -1.123691,-4e-5 -0.316109,0.0071 -0.06908,0.01289 0.548945,0.01292 0.618035,2.3e-5 0.876665,-0.0058 0.574746,-0.01287 z M 2.6332648,21.122113 C 2.4808129,21.086903 2.2626623,21.006144 2.1485061,20.942652 1.9809687,20.849486 1.9313973,20.795659 1.8915888,20.663676 1.8557928,20.54505 1.8409481,19.705781 1.8375969,17.60767 1.8346666,15.959813 1.8144593,14.536122 1.7900854,14.29902 1.7665294,14.07012 1.7325555,13.171167 1.7146086,12.301344 1.687408,10.985435 1.6700925,10.684907 1.6114152,10.511761 1.5704368,10.390929 1.5304007,10.099587 1.5159001,9.8169905 1.4884064,9.2811119 1.5281491,9.1012579 1.683225,9.0596537 1.7328613,9.046338 2.0824732,9.0353245 2.4601647,9.0351734 3.080872,9.0349663 3.922344,9.001733 6.7260282,8.8669195 7.2296114,8.8427059 7.7727325,8.805532 7.9329509,8.7843051 8.1026608,8.7618248 11.456131,8.7450956 15.965269,8.7442245 l 7.740998,-0.00151 0.56185,-0.1481043 C 24.8639,8.437557 26.526766,7.8956802 26.85885,7.750367 c 0.108727,-0.047574 0.197684,-0.1058993 0.197684,-0.1296018 0,-0.023885 0.0914,-0.043103 0.205043,-0.043103 0.151664,0 0.208541,-0.016792 0.218491,-0.064516 0.0082,-0.039405 0.146736,-0.1091473 0.355943,-0.1792096 0.188357,-0.063086 0.385004,-0.1537194 0.436989,-0.2014134 0.052,-0.047689 0.197519,-0.1367299 0.32341,-0.1978552 0.13559,-0.065832 0.313731,-0.2040793 0.436991,-0.3391265 0.206574,-0.2263248 0.210673,-0.2284022 0.561845,-0.284355 0.194568,-0.030996 0.531668,-0.069726 0.749124,-0.086055 0.217468,-0.016329 0.503095,-0.056889 0.634738,-0.090131 0.131656,-0.033245 0.258066,-0.048881 0.280929,-0.034747 0.02573,0.015912 0.04158,0.3947859 0.04158,0.9956467 0,0.9352218 -0.0036,0.9742588 -0.09155,1.0900222 -0.08228,0.1078797 -0.083,0.1126726 -0.0071,0.047236 0.08019,-0.069183 1.269978,-0.072836 23.722925,-0.072836 H 78.5644 l 0.106738,0.1144496 c 0.05871,0.062944 0.130466,0.1604067 0.159459,0.2165755 0.07972,0.1544634 0.164511,0.5028327 0.165058,0.6782165 0,0.1278764 0.01548,0.1560688 0.08329,0.1560688 0.04551,0 0.17664,0.035663 0.291339,0.079246 0.114697,0.043583 0.217785,0.064285 0.22909,0.046019 0.01131,-0.018275 0.100248,-0.045298 0.197672,-0.060046 0.437083,-0.06617 0.582924,-0.070997 0.69854,-0.023103 l 0.121752,0.050427 0.01243,0.7132632 0.01242,0.713264 0.0093,-0.738723 0.0093,-0.7387232 h 0.829907 c 0.456451,0 0.839354,0.015289 0.850906,0.033983 0.01153,0.018685 0.06201,0.1919227 0.112125,0.3849689 0.155472,0.5988803 0.09721,1.0011653 -0.162079,1.1193093 -0.232235,0.10581 -0.634003,0.166891 -1.10161,0.167478 -0.432791,5.17e-4 -0.513463,0.01223 -0.6867,0.09953 -0.107974,0.05441 -0.261852,0.112942 -0.341969,0.130083 -0.08012,0.01714 -0.157222,0.0493 -0.171329,0.07145 -0.0152,0.02382 -0.134276,-0.0056 -0.291333,-0.07202 -0.146116,-0.06176 -0.317392,-0.121855 -0.380618,-0.133544 -0.06322,-0.01169 -0.12595,-0.03904 -0.139387,-0.06079 -0.01371,-0.02221 -0.0591,-0.0082 -0.10354,0.03207 -0.05559,0.05031 -0.07932,0.128439 -0.07983,0.262824 -0.0012,0.275871 -0.111147,0.756846 -0.200851,0.877324 -0.05682,0.07634 -0.153606,0.120822 -0.369396,0.169811 -0.393324,0.08929 -0.657336,0.247526 -0.724936,0.43449 l -0.05258,0.145441 h -0.486602 c -0.408027,0 -0.490742,-0.01077 -0.512204,-0.06672 -0.01407,-0.03668 -0.09568,-0.157625 -0.181338,-0.268746 l -0.155732,-0.202037 -5.51555,-0.0018 -5.515561,-0.0018 -0.206946,0.182466 C 64.8676,12.852706 64.867,12.85396 64.945916,12.941605 l 0.07929,0.08806 H 64.55988 64.094557 l 0.06917,-0.133784 0.06918,-0.133784 -0.182562,-0.157431 c -0.100406,-0.08659 -0.198989,-0.157482 -0.21906,-0.157544 -0.04948,-2.07e-4 -0.555396,0.279132 -1.224322,0.675863 -0.847897,0.502881 -1.014311,0.572501 -1.368535,0.572539 l -0.298742,3.3e-5 -0.02725,-0.239305 C 60.878264,13.155963 60.73194,12.84279 60.53791,12.654582 l -0.149642,-0.145144 -0.702811,-0.01311 -0.702803,-0.01311 -0.01289,-0.111741 -0.0129,-0.111741 -2.816244,-0.0107 -2.816242,-0.0107 -0.125061,-0.203256 c -0.279274,-0.453866 -0.805779,-0.663679 -1.19819,-0.477471 -0.172161,0.08169 -0.412792,0.353144 -0.481498,0.543165 l -0.04993,0.138143 H 43.65578 c -6.130911,0 -7.838314,0.01112 -7.927229,0.05163 -0.08288,0.03777 -0.156067,0.144152 -0.272472,0.396129 -0.08754,0.189473 -0.159159,0.379745 -0.159159,0.422827 0,0.05935 -0.04793,0.0893 -0.197683,0.123602 -0.332279,0.0761 -0.727016,0.128859 -0.966511,0.129188 -0.222578,3.11e-4 -0.233542,0.006 -0.480443,0.250732 l -0.25266,0.250417 -0.234319,-0.08063 c -0.128877,-0.04434 -0.380889,-0.101721 -0.56002,-0.127516 -0.179125,-0.02579 -0.512968,-0.101271 -0.74187,-0.167729 -0.381667,-0.110809 -0.503271,-0.124455 -1.466136,-0.164518 -0.577466,-0.02402 -1.571385,-0.04369 -2.208701,-0.04369 -0.988173,0 -1.213465,0.01181 -1.530381,0.08026 -0.667334,0.144112 -3.996251,1.329402 -9.089885,3.236526 -1.316593,0.492952 -2.880741,1.06041 -3.475889,1.261023 -0.59514,0.200612 -1.428546,0.500045 -1.852011,0.665406 -0.85717,0.334724 -2.4302489,0.902522 -4.0369614,1.457132 C 7.6197543,20.1812 6.68945,20.507026 6.1361132,20.703775 5.5828336,20.900522 5.0397248,21.080614 4.9292361,21.103977 4.3122738,21.23445 3.1591263,21.243559 2.6333102,21.122112 Z M 4.707514,20.893431 c 0.313695,-0.038 0.8072387,-0.208704 5.347949,-1.849861 0.54935,-0.198555 1.495122,-0.53538 2.101715,-0.748497 0.606582,-0.213117 1.477448,-0.531265 1.935245,-0.706996 2.453089,-0.941639 11.81828,-4.290178 12.311666,-4.402051 0.118484,-0.02688 0.235991,-0.07588 0.261116,-0.10894 0.03921,-0.05156 0.319765,-0.05618 1.976866,-0.03252 1.844441,0.02633 2.529186,0.06767 3.158913,0.190675 0.782674,0.152879 1.127063,0.230563 1.326837,0.299295 0.271856,0.09353 0.296274,0.09499 0.296274,0.01772 0,-0.03304 0.03645,-0.0856 0.08101,-0.116815 0.07536,-0.05279 0.0677,-0.06031 -0.109317,-0.10766 -0.21822,-0.05837 -0.397263,-0.227603 -0.455348,-0.430423 l -0.03956,-0.138209 -0.591555,-0.01154 -0.59155,-0.01154 v -0.290186 -0.290185 h 0.707655 c 0.628144,0 0.725113,-0.0094 0.862958,-0.08323 0.183899,-0.09857 0.415051,-0.106758 0.618104,-0.02191 0.473767,0.197952 0.653145,0.604805 0.408216,0.925918 -0.05953,0.07805 -0.09938,0.150795 -0.08853,0.161641 0.0215,0.0215 0.476127,-0.04629 0.67337,-0.100428 0.119833,-0.03289 0.197112,-0.127655 0.345879,-0.424177 0.04022,-0.08011 0.138157,-0.253352 0.217685,-0.384968 l 0.144603,-0.239306 h 7.848389 7.848389 l 0.132939,-0.176878 c 0.07312,-0.09728 0.201959,-0.223697 0.28631,-0.280922 l 0.153371,-0.104046 -0.112102,-0.01316 -0.112101,-0.01317 V 10.613051 9.8250688 h 2.143344 2.143327 v 0.7907452 0.790748 l -1.550275,0.0014 -1.550276,0.0014 0.124855,0.09017 c 0.06867,0.04959 0.209182,0.180098 0.312247,0.29001 l 0.187385,0.199838 h 2.861146 2.86115 v 0.12077 0.120773 l 0.551442,0.01449 c 0.527093,0.01385 0.561543,0.02019 0.780342,0.143663 0.281529,0.158874 0.445511,0.382093 0.536207,0.729871 l 0.06902,0.264648 0.209774,0.0123 c 0.187883,0.01102 0.263807,-0.01547 0.727441,-0.253838 0.284717,-0.146381 0.723674,-0.388263 0.975464,-0.537516 0.251789,-0.149254 0.53841,-0.312165 0.636932,-0.362025 l 0.179125,-0.09065 0.200334,0.167732 c 0.110187,0.09225 0.26831,0.242972 0.351402,0.334938 0.08308,0.09197 0.166849,0.167209 0.186149,0.167209 0.01932,0 0.178913,-0.131099 0.354682,-0.291328 l 0.319588,-0.291328 h 5.555822 5.555843 l 0.07221,0.11872 c 0.03974,0.0653 0.142401,0.196394 0.228178,0.291327 l 0.155961,0.172609 h 0.308367 0.308373 l 0.169703,-0.202688 c 0.179096,-0.213917 0.421363,-0.345023 0.804019,-0.435113 0.262752,-0.06186 0.324699,-0.170418 0.355747,-0.623326 0.01254,-0.183009 0.05599,-0.418917 0.09652,-0.524242 l 0.07371,-0.191497 0.196383,0.01069 c 0.108015,0.0058 0.256775,0.04802 0.330599,0.09364 0.267887,0.165559 0.27006,0.160654 0.27006,-0.608846 0,-0.6146009 -0.007,-0.6859309 -0.06332,-0.6392351 -0.05222,0.043352 -0.136084,0.024214 -0.478613,-0.1092797 L 78.787998,9.429867 V 9.2604681 c 0,-0.2136972 -0.10917,-0.5863743 -0.215584,-0.735948 L 78.490991,8.4100705 H 54.933931 31.376854 l -0.120869,0.086072 c -0.06648,0.047343 -0.12088,0.1111056 -0.12088,0.1417043 0,0.04088 -0.04416,0.049717 -0.166466,0.033307 -0.109305,-0.014658 -0.166478,-0.00614 -0.166478,0.024773 0,0.026844 0.06848,0.047094 0.159223,0.047094 0.113274,0 0.185708,0.028196 0.251012,0.097715 0.194475,0.2070091 0.933325,0.2580525 1.933507,0.1335753 0.293336,-0.036508 0.550612,-0.055708 0.571709,-0.042667 0.04133,0.025538 0.301341,0.3925486 0.28075,0.3962739 -0.0068,0.00124 -0.152863,0.019067 -0.324546,0.039627 -0.17167,0.020561 -0.518144,0.075148 -0.769933,0.1213031 -0.495257,0.090785 -1.27318,0.1139127 -1.5205,0.045201 -0.08091,-0.022472 -0.238681,-0.1019676 -0.350607,-0.176646 -0.111925,-0.074677 -0.237692,-0.1542661 -0.279491,-0.1768611 -0.0418,-0.022596 -0.07597,-0.073663 -0.07597,-0.1134913 0,-0.039823 -0.04681,-0.1030851 -0.104053,-0.1405816 -0.153859,-0.1008156 -0.14219,-0.2863346 0.02437,-0.3876391 0.07064,-0.042961 0.201735,-0.1756612 0.29132,-0.2948957 L 31.05185,8.0271473 V 7.204717 6.3823029 l -0.104052,0.019894 c -0.05723,0.010943 -0.104036,0.033511 -0.104036,0.050161 0,0.01665 -0.317481,0.041672 -0.705488,0.055619 l -0.705494,0.025352 -0.199704,0.1996463 c -0.319012,0.3189112 -0.722164,0.5815059 -1.151916,0.7503118 -0.219612,0.086268 -0.407233,0.1774122 -0.416925,0.2025495 -0.0097,0.025138 0.08393,0.1140966 0.208035,0.1976871 l 0.225676,0.1519817 h 1.143998 1.144009 V 8.3476421 8.659778 h -1.290167 c -1.240968,0 -1.290163,-0.00302 -1.290163,-0.079281 0,-0.049646 -0.0682,-0.1192488 -0.182462,-0.1862123 C 27.5228,8.3354667 27.356446,8.1936499 27.253476,8.0791247 L 27.066267,7.8708933 26.822073,7.969564 c -0.370278,0.1496225 -2.059446,0.7483339 -2.553997,0.9052446 l -0.436997,0.1386481 -8.240411,0.023698 C 8.6843897,9.0570128 7.1683293,9.0717867 6.2265733,9.1283694 5.6085389,9.1655074 4.4848487,9.2158279 3.7294711,9.240194 1.9358623,9.2980613 1.8048187,9.3099729 1.7704502,9.4182631 c -0.032739,0.1032033 0.014721,0.7124339 0.072739,0.9329099 0.023263,0.08833 0.057468,0.909743 0.076107,1.825345 0.025849,1.271196 0.049752,1.738589 0.1010147,1.977173 0.059059,0.274829 0.064578,0.618049 0.045806,2.85085 -0.011715,1.396123 -0.026205,2.716323 -0.032152,2.933778 -0.013369,0.488472 0.038277,0.63017 0.2815052,0.772713 0.2848617,0.166939 0.6653088,0.225252 1.434859,0.219934 0.3776746,-0.0026 0.8084228,-0.01949 0.9572123,-0.0375 z M 5.2370102,20.14388 C 4.8720541,20.042532 4.6761367,19.718131 4.7201853,19.288115 4.7514479,18.982711 4.8732203,18.770866 5.088185,18.647799 5.3351573,18.50641 5.8452701,18.497349 6.0258434,18.631145 6.3760501,18.890637 6.481728,19.501332 6.2440348,19.892176 6.0916771,20.142705 5.639638,20.255692 5.2370102,20.14388 Z M 5.8306327,19.907013 C 6.0338693,19.805075 6.0868193,19.680007 6.070539,19.340357 6.0579967,19.078834 6.045401,19.044367 5.9225504,18.934578 5.8123862,18.836142 5.7507853,18.814599 5.5795092,18.814599 c -0.3230569,0 -0.4855419,0.0874 -0.586409,0.315422 -0.1597302,0.361096 -0.01984,0.709432 0.3231804,0.804672 0.2260459,0.06277 0.3469977,0.05626 0.5143521,-0.02768 z m 1.3947852,-1.092414 c -0.014543,-0.04578 -0.051697,-0.08323 -0.082592,-0.08323 -0.030912,0 -0.2496748,-0.0932 -0.4862076,-0.20711 C 6.3107993,18.357703 6.1587296,18.308953 5.8801863,18.275329 5.5232257,18.232244 4.7475581,18.026604 4.5430148,17.92083 4.3869709,17.840136 4.3745592,17.753037 4.3745831,16.738889 4.3746,15.706352 4.3020044,11.766653 4.2718964,11.166949 l -0.021432,-0.426884 0.1432607,-0.158569 c 0.078792,-0.08721 0.214394,-0.183145 0.3013481,-0.213183 0.3745767,-0.129393 3.2274194,-0.08296 3.6300174,0.05909 0.091617,0.03232 0.2190689,0.09758 0.2832128,0.145009 0.064156,0.04743 0.2474551,0.132392 0.4073321,0.188799 l 0.2906911,0.102558 2.7955524,8.25e-4 2.795571,8.25e-4 0.01531,2.403452 0.01531,2.403454 -0.194763,0.416181 c -0.107115,0.2289 -0.267045,0.495481 -0.355394,0.592401 l -0.160648,0.176219 -3.433507,1.016871 c -1.8884291,0.559279 -3.4556504,1.018417 -3.4827176,1.020305 -0.027085,0.0019 -0.061112,-0.03402 -0.075638,-0.0798 z M 17.970592,14.605136 c -0.04999,-0.0262 -0.161132,-0.102689 -0.246972,-0.16997 l -0.156074,-0.122331 v -1.72366 -1.723658 l 1.945654,9.77e-4 1.94565,9.78e-4 0.353756,0.160583 0.353758,0.160581 0.106532,0.274471 c 0.05859,0.150958 0.116971,0.284903 0.129718,0.297655 0.01278,0.01276 0.03462,-0.04847 0.04863,-0.136045 0.02803,-0.175124 0.1839,-0.352003 0.373306,-0.423567 0.18526,-0.06999 0.612199,-0.05422 0.774673,0.02863 0.277583,0.141542 0.400937,0.451781 0.330199,0.830448 -0.06398,0.342434 -0.306517,0.511676 -0.73328,0.511676 -0.155485,0 -0.297574,-0.02821 -0.396715,-0.07874 l -0.154461,-0.07874 v 0.139129 c 0,0.382449 -0.07893,0.556642 -0.411683,0.908642 -0.175451,0.185607 -0.389197,0.425494 -0.47498,0.533082 -0.190034,0.23833 -0.556716,0.428578 -0.944541,0.490051 -0.14879,0.02358 -0.654445,0.06334 -1.12369,0.08836 -0.469244,0.02502 -0.860979,0.05306 -0.870517,0.06232 -0.04027,0.0391 -0.765812,0.01278 -0.848973,-0.03081 z m 5.444317,-2.278445 c 0.17422,-0.07604 0.24971,-0.210495 0.24971,-0.444742 0,-0.171397 -0.02031,-0.243702 -0.08736,-0.310732 -0.180262,-0.18026 -0.602243,-0.18026 -0.78251,0 -0.06735,0.06736 -0.08736,0.139282 -0.08736,0.314156 0,0.190086 0.01791,0.244725 0.110747,0.337544 0.119527,0.119529 0.434982,0.174385 0.59676,0.103774 z m 4.881537,0.442325 c -0.195689,-0.093 -0.560344,-0.466416 -0.672964,-0.689101 -0.121198,-0.239683 -0.171329,-0.576438 -0.171464,-1.151972 0,-0.563831 0.0036,-0.589617 0.119297,-0.798154 0.06569,-0.118524 0.281063,-0.3836484 0.478612,-0.5891651 0.308571,-0.3210319 0.385558,-0.3791119 0.546454,-0.4123185 0.216254,-0.044632 0.263316,-0.027538 0.572608,0.2078936 0.180885,0.1376916 0.223408,0.1950382 0.245071,0.3305218 0.01442,0.090159 0.05258,0.1903031 0.08483,0.2225426 0.0504,0.050407 0.0047,0.2626926 -0.3255,1.5162726 l -0.384116,1.457655 -0.148478,-5.18e-4 c -0.08166,-3.1e-4 -0.236626,-0.04243 -0.344359,-0.09364 z m 0.373499,-0.353221 c 0.02314,-0.08584 0.156268,-0.591537 0.295866,-1.123775 0.139581,-0.532238 0.280439,-1.031474 0.313,-1.109413 0.05494,-0.131429 0.05346,-0.143213 -0.02032,-0.162494 -0.04434,-0.01159 -0.07948,-0.057077 -0.07948,-0.102838 0,-0.1411304 -0.11786,-0.371994 -0.238252,-0.4666932 -0.225175,-0.1771295 -0.545594,-0.032747 -0.91134,0.4106564 -0.356894,0.4326838 -0.413761,0.7644858 -0.285585,1.6663438 0.08707,0.612557 0.24822,0.863334 0.640237,0.996299 0.212505,0.07208 0.240089,0.06166 0.285845,-0.108086 z m 33.616398,0.10011 c -0.214412,-0.06384 -0.325055,-0.257178 -0.298174,-0.521047 0.0235,-0.230758 0.129886,-0.376337 0.361449,-0.494663 l 0.183266,-0.09364 h -1.213041 c -0.755887,0 -1.257186,-0.01668 -1.330191,-0.04427 -0.06445,-0.02435 -0.168673,-0.0934 -0.231616,-0.15345 l -0.114451,-0.109181 v 0.111831 0.111832 H 58.062098 56.480597 V 10.678232 10.03315 h 1.581501 1.581487 l 0.003,0.11445 c 0.0023,0.104487 0.0063,0.107158 0.04357,0.03067 0.02244,-0.04608 0.108734,-0.130351 0.191825,-0.1872814 l 0.15104,-0.1035101 h 1.501307 c 1.468411,0 1.505065,0.00207 1.672927,0.091807 0.211897,0.1133475 0.306982,0.3240775 0.306982,0.6803075 0,0.433066 -0.172128,0.678633 -0.514004,0.7333 l -0.168535,0.02696 0.198627,0.05792 c 0.163029,0.04754 0.209266,0.0834 0.258031,0.200102 0.06858,0.164109 0.07773,0.465845 0.01882,0.620742 -0.06758,0.177768 -0.274355,0.273374 -0.583697,0.269895 -0.148776,-0.0017 -0.345424,-0.02535 -0.43699,-0.05261 z m 0.672621,-0.213541 c 0.108501,-0.076 0.155784,-0.305031 0.09564,-0.463241 -0.06106,-0.160595 -0.104991,-0.181482 -0.383289,-0.182224 -0.314921,-8.23e-4 -0.405773,0.08235 -0.405773,0.371568 0,0.165418 0.01812,0.218426 0.0925,0.270518 0.118479,0.08299 0.484327,0.08504 0.600931,0.0034 z m -0.03819,-1.18609 c 0.186443,-0.04426 0.252637,-0.109137 0.303296,-0.297224 0.05721,-0.212517 -0.0094,-0.46215 -0.15359,-0.575576 -0.104897,-0.0825 -0.159012,-0.08546 -1.563847,-0.08546 h -1.455182 l -0.1415,0.141496 c -0.123589,0.123586 -0.141507,0.168129 -0.141507,0.351798 0,0.291098 0.0648,0.413246 0.24593,0.463559 0.174362,0.04843 2.703146,0.04967 2.9064,0.0014 z m -3.568508,-0.417231 v -0.374564 h -1.290167 -1.290168 v 0.374564 0.374564 h 1.290168 1.290167 z M 29.74275,12.375407 c -0.139493,-0.160887 -0.178618,-0.355803 -0.212268,-1.057498 -0.03869,-0.80613 -0.0012,-0.96792 0.281958,-1.222638 0.114951,-0.103349 0.255363,-0.1995442 0.312023,-0.2137659 0.147112,-0.036916 0.849762,0.1162292 0.886692,0.1932649 0.246689,0.514445 0.308673,0.83868 0.249522,1.305192 -0.04845,0.382041 -0.189994,0.699988 -0.404695,0.908954 -0.219274,0.213414 -0.316609,0.244749 -0.68945,0.221952 -0.289665,-0.01771 -0.333966,-0.03188 -0.423782,-0.135461 z m 0.787756,-0.08961 c 0.06833,-0.01464 0.144533,-0.06822 0.170168,-0.119644 0.02555,-0.05123 0.07754,-0.127519 0.11557,-0.169535 0.03803,-0.04202 0.06913,-0.09242 0.06913,-0.112003 0,-0.01958 0.03952,-0.117204 0.08779,-0.216937 0.07677,-0.158596 0.08565,-0.237218 0.07078,-0.627009 -0.01342,-0.351966 -0.0358,-0.481562 -0.106279,-0.616343 -0.08184,-0.15649 -0.109045,-0.174637 -0.327426,-0.218495 -0.48861,-0.09812 -0.696438,-0.03064 -0.84458,0.274302 -0.108004,0.222313 -0.108894,0.401255 -0.004,0.80156 0.04593,0.175276 0.08213,0.449911 0.08252,0.626355 0,0.18798 0.02078,0.334282 0.05064,0.36416 0.0521,0.05213 0.419072,0.05998 0.635627,0.01359 z M 63.766771,9.4728444 c -0.140329,-0.072561 -0.169457,-0.1370028 -0.169457,-0.3748968 0,-0.1144691 0.02875,-0.2147825 0.07954,-0.2775193 l 0.07954,-0.098251 2.074206,-0.012666 c 1.373646,-0.00836 2.125237,0.00222 2.225304,0.031396 0.271308,0.079112 0.329776,0.4975366 0.0977,0.6991865 l -0.107774,0.093641 h -2.080655 c -1.744701,0 -2.09967,-0.00983 -2.198398,-0.060889 z m 7.561624,-0.024401 C 71.14131,9.3964875 71.0886,9.3102224 71.0886,9.0559673 c 0,-0.1482652 0.02326,-0.2151408 0.102157,-0.2940627 l 0.102151,-0.1021544 h 1.952338 c 1.903114,0 1.955064,0.00213 2.060448,0.085041 0.235125,0.1849473 0.169197,0.6210556 -0.105879,0.7003954 -0.191507,0.055236 -3.673718,0.058169 -3.87142,0.0032 z M 33.821534,13.095979 c 0.167577,-0.073 0.351696,-0.296245 0.351696,-0.426464 0,-0.136552 -0.195117,-0.328372 -0.388261,-0.3817 -0.158217,-0.04369 -0.417641,-5.17e-4 -0.46587,0.0775 -0.01413,0.02289 -0.300347,0.04008 -0.667394,0.04008 -0.400679,0 -0.642634,0.01567 -0.642634,0.04162 0,0.02577 0.221966,0.04162 0.582659,0.04162 h 0.582654 v 0.168537 c 0,0.248135 0.09532,0.402004 0.280986,0.453566 0.193981,0.05387 0.210108,0.05322 0.366164,-0.01475 z m 21.868315,-2.500983 v -0.561845 h -1.872814 -1.872821 v 0.561845 0.561847 h 1.872821 1.872814 z m 24.648408,0.449922 c 0.06595,-0.01724 0.07282,-0.08956 0.07282,-0.76511 0,-0.7183313 -0.003,-0.7460756 -0.08323,-0.7460756 -0.08024,0 -0.08324,0.027742 -0.08324,0.7699366 0,0.423465 0.0047,0.767766 0.01042,0.76511 0.0058,-0.0027 0.04316,-0.0134 0.08324,-0.02386 z m 1.627279,-0.264681 c 0.350901,-0.05888 0.334203,-0.03093 0.303956,-0.508876 -0.01484,-0.234021 -0.04234,-0.4816776 -0.06123,-0.5503479 L 82.174002,9.596159 81.563076,9.584639 80.952154,9.573119 v 0.625386 0.625386 l 0.405772,-0.0049 c 0.223178,-0.0027 0.496612,-0.02014 0.607641,-0.03876 z M 32.633353,9.3071541 c 0.26708,-0.053548 0.2639,-0.053974 -0.24971,-0.034036 -0.57451,0.022293 -0.995467,-0.046605 -1.207606,-0.1976624 -0.06393,-0.045512 -0.139033,-0.082756 -0.166907,-0.082756 -0.09324,0 0.04746,0.1257227 0.269011,0.2404168 0.18277,0.094611 0.26864,0.1103427 0.647698,0.1186718 0.240348,0.00534 0.55873,-0.0148 0.707514,-0.044631 z m 0.404912,-0.089894 c -0.01384,-0.013832 -0.04969,-0.015307 -0.07978,-0.00329 -0.03321,0.01328 -0.02332,0.023146 0.02514,0.025138 0.04387,0.00186 0.06846,-0.008 0.05464,-0.021858 z M 30.177874,8.3260889 c 0,-0.082268 -0.02107,-0.083725 -1.050307,-0.072837 -0.962094,0.010187 -1.051492,0.017236 -1.064322,0.083948 -0.01306,0.067832 0.05909,0.072837 1.050314,0.072837 1.039592,0 1.064315,-0.00195 1.064315,-0.083948 z M 27.886546,8.212354 c -0.003,-0.039796 -0.429747,-0.3777083 -0.521529,-0.4129301 -0.134188,-0.051495 0.06098,0.1832389 0.264388,0.3179608 0.191584,0.1269031 0.261433,0.1527008 0.257141,0.094969 z m 15.60917,11.935098 c 0,-0.0223 -0.06088,-0.07106 -0.135271,-0.108347 -0.200239,-0.100373 -0.949964,-0.590424 -1.27056,-0.830501 -0.173843,-0.130183 -0.311216,-0.271948 -0.362948,-0.374563 -0.04581,-0.09081 -0.106649,-0.180083 -0.13526,-0.198387 -0.02861,-0.0183 -0.05205,-0.05294 -0.05205,-0.07697 0,-0.115631 0.35291,-0.903511 0.453947,-1.013441 0.06313,-0.06867 0.19142,-0.287631 0.285122,-0.486579 0.197395,-0.41913 0.205331,-0.423403 0.880126,-0.473905 l 0.39147,-0.0293 -0.02698,0.224371 c -0.01484,0.123404 -0.02708,0.311994 -0.02732,0.419086 0,0.107093 -0.02502,0.219463 -0.05511,0.249709 -0.131419,0.132062 -0.205709,1.071816 -0.111525,1.41087 0.06407,0.230644 0.334363,0.584769 0.546383,0.715849 0.129513,0.08008 0.309703,0.138919 0.554939,0.18124 0.364009,0.06282 0.488987,0.04898 0.333944,-0.03696 -0.124438,-0.06898 -0.435176,-0.377857 -0.435966,-0.433353 0,-0.0267 -0.04622,-0.08289 -0.101903,-0.124854 -0.09112,-0.06868 -0.106184,-0.125548 -0.150797,-0.569052 -0.02726,-0.271012 -0.04051,-0.636212 -0.0295,-0.811555 0.01996,-0.316643 0.182617,-0.96389 0.242227,-0.96389 0.01714,0 0.05069,-0.05618 0.07467,-0.124854 l 0.04351,-0.124855 H 47.2158 c 1.82773,0 2.817921,0.01454 2.834661,0.04162 0.01413,0.02289 0.05446,0.04162 0.08955,0.04162 0.08983,0 0.456516,0.292834 0.510568,0.407736 0.02472,0.05258 0.04499,0.145624 0.04499,0.206765 0,0.190489 -0.490265,1.299158 -0.689255,1.558626 -0.100332,0.130834 -0.195376,0.290023 -0.211203,0.353755 -0.03857,0.155324 -0.301384,0.506408 -0.517667,0.691538 -0.204591,0.175116 -0.327691,0.22123 -0.725208,0.27165 -0.410841,0.0521 -5.056615,0.05847 -5.056615,0.0069 z m 9.251359,-1.895067 c -0.144892,-0.144891 -0.145905,-0.148471 -0.13029,-0.45781 0.01419,-0.281369 0.02803,-0.324076 0.141853,-0.437886 0.17037,-0.170365 0.367546,-0.198547 0.617027,-0.08819 0.233832,0.103433 0.316516,0.263445 0.316516,0.612513 0,0.211081 -0.01407,0.248475 -0.141501,0.3759 -0.130494,0.130495 -0.161577,0.141503 -0.399541,0.141503 -0.239525,0 -0.268505,-0.01047 -0.404064,-0.146032 z m 0.576328,-0.183257 c 0.07867,-0.06371 0.09748,-0.117334 0.09431,-0.268885 -0.0053,-0.241026 -0.06919,-0.317428 -0.266573,-0.317428 -0.186215,0 -0.249604,0.06503 -0.27931,0.286533 -0.01855,0.138404 -0.0047,0.182189 0.08509,0.27215 0.12764,0.127645 0.233188,0.135602 0.366492,0.02764 z m -1.347586,-2.194403 c -0.232411,-0.118943 -0.260504,-0.219103 -0.260504,-0.928791 0,-0.540484 0.01214,-0.669102 0.0737,-0.78178 0.115682,-0.211716 0.257183,-0.281422 0.569547,-0.280593 0.536568,0.0014 0.641285,0.192208 0.619612,1.128804 -0.01183,0.510769 -0.02732,0.637632 -0.08917,0.728681 -0.155585,0.229121 -0.599669,0.29413 -0.913182,0.133679 z m 0.643052,-0.18391 c 0.106078,-0.06184 0.157221,-0.304425 0.15748,-0.746987 0,-0.638473 -0.07615,-0.786694 -0.407438,-0.789147 -0.135441,-0.0011 -0.203536,0.02344 -0.280928,0.100829 -0.09879,0.09879 -0.102156,0.121445 -0.102156,0.688594 0,0.567146 0.0036,0.589799 0.102156,0.688591 0.07736,0.07736 0.145534,0.101847 0.280928,0.100889 0.09831,-7.06e-4 0.210797,-0.01995 0.249958,-0.04277 z M 39.187306,15.115941 c -0.198019,-0.08995 -0.43597,-0.315915 -0.43633,-0.414344 0,-0.03829 -0.02821,-0.123274 -0.06242,-0.188838 -0.03422,-0.06556 -0.06217,-0.153225 -0.06217,-0.194801 0,-0.125351 0.179313,-0.365292 0.30793,-0.41206 0.161261,-0.05864 0.714203,-0.05601 0.810037,0.0038 0.09746,0.06087 0.242503,0.02095 0.40109,-0.110378 l 0.124856,-0.103387 -0.551441,-2.07e-4 -0.551442,-2.08e-4 v -0.582642 -0.582655 h 0.894794 0.894788 v 0.236154 0.236156 l 0.09365,-0.08645 c 0.0654,-0.06039 0.187733,-0.09846 0.405778,-0.126283 0.599051,-0.07644 1.174073,0.190282 1.450267,0.672705 0.08903,0.155522 0.09554,0.203718 0.07352,0.545169 -0.05376,0.833901 -0.231469,1.014959 -1.003562,1.022386 -0.183123,0.0018 -0.613872,0.03737 -0.957219,0.07915 -0.859207,0.104525 -1.610745,0.107281 -1.832123,0.0067 z m 1.457552,-0.156073 c 0.09156,-0.0086 0.381848,-0.0365 0.645089,-0.06202 0.263235,-0.02553 0.632943,-0.05996 0.821582,-0.07651 0.516484,-0.04536 0.592775,-0.156496 0.593199,-0.864214 0,-0.366887 -0.0053,-0.389684 -0.124543,-0.525636 -0.06863,-0.07816 -0.262735,-0.21028 -0.431338,-0.293591 -0.292234,-0.144395 -0.320306,-0.150198 -0.600512,-0.124158 -0.323003,0.03002 -0.379964,0.06705 -0.689265,0.448001 -0.08819,0.108627 -0.167614,0.19025 -0.176476,0.181384 -0.0089,-0.0089 -0.142719,0.106994 -0.297444,0.257465 l -0.281323,0.273583 h -0.561846 -0.561856 l -0.01389,0.104046 c -0.0076,0.05722 -0.03009,0.120823 -0.04975,0.14133 -0.05904,0.06142 0.108698,0.329429 0.276206,0.441325 0.145798,0.09738 0.191943,0.104384 0.720768,0.109333 0.31074,0.0029 0.639903,-0.0018 0.731455,-0.01033 z m 0.02078,-1.846967 v -0.291327 h -0.645089 -0.645078 v 0.291327 0.291328 h 0.645078 0.645089 z m 18.825983,0.47861 c -0.08862,-0.382868 -0.07574,-0.399185 0.244854,-0.310148 0.119203,0.03311 0.180697,0.08642 0.264365,0.22918 0.154984,0.26446 0.120204,0.316737 -0.200539,0.301464 L 59.53979,13.799595 Z M 31.634477,6.9325923 V 6.0378004 h 0.09974 c 0.06313,0 0.149984,-0.057254 0.236726,-0.1560679 l 0.137008,-0.156068 1.812957,-0.020783 1.812969,-0.020783 -1.789588,-0.020836 -1.789581,-0.020836 0.124855,-0.081405 c 0.06867,-0.044765 0.264748,-0.2320521 0.435723,-0.4161809 0.170983,-0.1841296 0.585109,-0.6193401 0.920272,-0.9671342 l 0.609408,-0.6323501 1.389539,9.777e-4 c 0.764252,5.174e-4 1.666211,0.010622 2.00437,0.022401 l 0.61482,0.021423 0.06148,0.1188657 c 0.04899,0.094747 0.06147,0.3135083 0.06147,1.0781509 V 5.746461 h 12.485467 12.485467 v 0.457801 c 0,0.3696176 -0.01148,0.457801 -0.05962,0.457801 -0.07897,0 -0.119627,0.1383993 -0.08584,0.2922103 0.05795,0.2638704 -0.210447,0.2488257 4.439043,0.2488257 h 4.233449 l 0.06478,-0.092497 c 0.09286,-0.1325751 0.08322,-0.388481 -0.01849,-0.4901579 -0.08189,-0.081904 -0.138721,-0.083237 -3.537545,-0.083237 H 64.929044 V 6.1418329 5.7464603 h 4.059854 c 3.673464,0 4.072341,-0.00649 4.191195,-0.06793 0.09083,-0.04697 0.136207,-0.053388 0.147065,-0.020809 0.01149,0.034391 0.699082,0.047121 2.545525,0.047121 h 2.529816 l 0.02526,0.5514431 c 0.01389,0.3032923 0.03763,0.7808616 0.05276,1.0612645 l 0.02756,0.5098231 H 55.071282 31.634497 Z M 78.288532,7.479311 c 0,-0.054098 -0.0196,-0.1992445 -0.04363,-0.3225413 -0.02396,-0.1232978 -0.06063,-0.4278228 -0.08145,-0.6767232 -0.02085,-0.2489012 -0.04593,-0.4606099 -0.05576,-0.4704651 -0.0099,-0.00986 -2.923863,-0.00453 -6.475559,0.011822 l -6.457641,0.029742 0.01254,0.1285894 0.01254,0.1285885 3.393738,0.020809 c 3.114038,0.019093 3.40271,0.026694 3.502616,0.092168 0.290798,0.1905645 0.23873,0.830543 -0.07733,0.950711 -0.06667,0.025352 -1.718461,0.036249 -4.446606,0.02936 -4.896696,-0.012373 -4.455223,0.020907 -4.557274,-0.3435887 -0.04311,-0.1539417 -0.04058,-0.2138936 0.01598,-0.379895 0.03694,-0.1084096 0.06716,-0.2967757 0.06716,-0.4185934 V 6.0378022 H 50.612386 38.126918 V 4.9557285 3.873654 h -0.461796 c -0.360588,0 -0.488122,-0.015564 -0.582005,-0.071023 -0.101574,-0.060001 -0.141771,-0.063228 -0.25909,-0.020809 -0.09582,0.03465 -0.50545,0.050569 -1.322016,0.051387 l -1.183164,0.00115 -0.778071,0.7687663 -0.77807,0.7687661 h 1.601861 1.601843 l -0.01224,0.3017322 -0.01225,0.3017322 -1.935244,0.021849 c -1.064387,0.012018 -1.939932,0.026063 -1.945655,0.031209 -0.0058,0.00516 -0.01042,0.032952 -0.01042,0.061778 0,0.028827 -0.03745,0.075805 -0.08323,0.1043987 -0.0776,0.048463 -0.08324,0.097055 -0.08324,0.7175211 V 7.5776573 H 55.086301 78.28848 V 7.4792808 Z M 72.866419,7.3545191 c -0.18665,-0.078997 -0.267793,-0.1835865 -0.318712,-0.4107897 -0.09966,-0.4446648 0.118978,-0.8275546 0.505567,-0.8854238 0.09826,-0.014712 0.581293,-0.020658 1.073425,-0.013218 1.025106,0.015493 1.098477,0.036463 1.254373,0.3585045 0.108398,0.2239249 0.09275,0.5774444 -0.03315,0.7492228 -0.175768,0.2397812 -0.27285,0.2582525 -1.357807,0.2583236 -0.742049,4.18e-5 -1.023294,-0.014125 -1.123691,-0.056623 z m 2.179084,-0.2730608 c 0.101628,-0.101628 0.121652,-0.1555007 0.121652,-0.3272702 0,-0.1666717 -0.02078,-0.2264005 -0.109717,-0.3153395 L 74.947715,6.3291289 h -0.949222 c -0.943429,0 -0.94994,6.48e-4 -1.065993,0.1004414 -0.102422,0.088099 -0.116771,0.1294515 -0.116771,0.3365495 0,0.2070971 0.01436,0.2484479 0.116771,0.3365487 0.115964,0.099748 0.123247,0.1004422 1.054058,0.1004422 h 0.937288 z M 63.472428,6.1418454 V 5.7464728 h 0.68671 0.6867 v 0.3953726 0.3953734 h -0.6867 -0.68671 z m 1.165316,0.042978 V 6.0378004 H 64.1565 63.675248 l 0.01304,0.1352596 0.01304,0.1352597 0.468211,0.011769 0.468203,0.01176 z m 9.031163,-0.8535505 c 0,-0.022347 0.198967,-0.2330388 0.442164,-0.4682057 0.547673,-0.5295939 0.797619,-0.8989048 0.866785,-1.2807474 0.0077,-0.042997 0.194686,-0.6501148 0.237021,-0.769936 0.02426,-0.068671 0.07088,-0.2372248 0.103594,-0.3745648 0.120163,-0.5044404 0.110723,-0.4956172 0.577006,-0.5392809 0.782021,-0.073231 0.827247,-0.072645 0.962112,0.01247 0.201058,0.1269011 0.723423,1.1659887 0.723423,1.4390432 0,0.049921 0.02173,0.1125136 0.04834,0.1390944 0.02655,0.026578 0.04999,0.1567408 0.05205,0.2892466 0.003,0.2039877 0.02844,0.2806466 0.165087,0.5000718 0.167379,0.2687798 0.317211,0.7209353 0.317211,0.9572799 v 0.1361592 h -2.24739 c -1.43411,0 -2.247379,-0.014703 -2.247379,-0.040632 z m 4.260517,-0.2819092 c -0.01525,-0.062943 -0.09989,-0.2570845 -0.188069,-0.431414 -0.08819,-0.1743286 -0.160343,-0.3481665 -0.160343,-0.3863049 0,-0.038134 -0.02715,-0.134289 -0.0603,-0.2136687 l -0.0603,-0.1443273 H 76.29195 75.123481 l -0.04075,0.1071934 c -0.06907,0.181703 -0.292882,0.4792493 -0.610533,0.8117357 -0.167131,0.1749313 -0.303868,0.3300232 -0.303868,0.3446466 0,0.014622 0.852494,0.026587 1.894424,0.026587 h 1.894417 z M 77.289238,3.2805924 C 77.288054,3.0474372 77.009823,2.3764773 76.838937,2.1949372 76.653499,1.9979288 76.60457,1.9869236 76.319844,2.0781982 c -0.141842,0.045467 -0.364268,0.094669 -0.494287,0.1093296 -0.130018,0.014661 -0.257729,0.052368 -0.283813,0.083796 -0.02608,0.031424 -0.06436,0.2315698 -0.08505,0.4447644 -0.02067,0.2131955 -0.05552,0.4484939 -0.07744,0.522887 l -0.0398,0.1352596 h 0.975124 0.975124 v -0.093643 z"
   id="path639" /></svg>
