<?xml version="1.0" encoding="UTF-8" standalone="no"?>
<!-- Generator: Adobe Illustrator 16.0.0, SVG Export Plug-In . SVG Version: 6.00 Build 0)  -->

<svg
   version="1.1"
   x="0px"
   y="0px"
   width="69.25px"
   height="32px"
   viewBox="0 0 69.25 32"
   enable-background="new 0 0 69.25 32"
   xml:space="preserve"
   id="svg1009"
   sodipodi:docname="usp_silencer.svg"
   inkscape:version="1.1.1 (3bf5ae0d25, 2021-09-20)"
   xmlns:inkscape="http://www.inkscape.org/namespaces/inkscape"
   xmlns:sodipodi="http://sodipodi.sourceforge.net/DTD/sodipodi-0.dtd"
   xmlns="http://www.w3.org/2000/svg"
   xmlns:svg="http://www.w3.org/2000/svg"><defs
   id="defs1013" /><sodipodi:namedview
   id="namedview1011"
   pagecolor="#505050"
   bordercolor="#eeeeee"
   borderopacity="1"
   inkscape:pageshadow="0"
   inkscape:pageopacity="0"
   inkscape:pagecheckerboard="0"
   showgrid="false"
   inkscape:zoom="8.0505415"
   inkscape:cx="-6.6455157"
   inkscape:cy="14.408969"
   inkscape:window-width="1440"
   inkscape:window-height="848"
   inkscape:window-x="1358"
   inkscape:window-y="-8"
   inkscape:window-maximized="1"
   inkscape:current-layer="svg1009" />
<g
   id="Selected_Items">
	<g
   id="g1005">
		<g
   id="Selected_Items_52_">
			<path
   fill-rule="evenodd"
   clip-rule="evenodd"
   fill="#ffffff"
   d="m 68.96,6.573 c 0,0.714 -0.042,1.294 -0.133,1.739 -0.031,0.298 -0.12,0.61 -0.269,0.937 -0.057,0.149 -0.116,0.281 -0.177,0.4 H 54.511 L 54.332,9.516 54.063,9.605 H 43.403 L 43.136,9.785 42.735,9.649 H 38.231 V 8.847 H 36.715 V 8.18 8.847 8.18 c 0,-0.758 0.002,-3.078 0.002,-2.453 V 5.102 h 1.338 V 3.806 h 4.639 l 0.311,-0.177 0.401,0.177 h 10.66 l 0.311,0.046 0.314,-0.132 h 13.693 l 0.223,0.266 c 0.119,0.268 0.209,0.581 0.268,0.936 0.026,0.446 0.057,0.996 0.085,1.651 z"
   id="path1002"
   sodipodi:nodetypes="cccccccccccccccccccccccccccccc" />
		</g>
	</g>
</g>
<g
   id="guides">
</g>
<path
   style="fill:#ffffff;stroke-width:0.0291854"
   d="m 9.1906006,28.103146 c 1.3804724,-0.07116 1.9039404,-0.160026 2.2162384,-0.376251 0.26752,-0.185222 0.264278,-0.163891 0.139017,-0.914256 -0.05972,-0.357725 -0.124291,-0.825167 -0.143504,-1.03876 -0.03175,-0.352931 -0.03001,-0.407496 0.01903,-0.598298 0.1012,-0.393673 0.821074,-2.750871 1.534773,-5.02553 0.206494,-0.658128 0.502497,-1.616866 0.657785,-2.130529 0.155289,-0.513661 0.301339,-0.949121 0.324553,-0.96769 0.02322,-0.01857 0.227744,-0.09551 0.454503,-0.170956 0.619319,-0.206086 0.903265,-0.205998 1.451855,4.49e-4 0.206402,0.07767 0.706359,0.140795 1.955416,0.246879 1.35287,0.114899 2.107985,0.151286 3.476928,0.167532 1.750749,0.02077 2.594773,-0.03281 3.142388,-0.199538 0.380424,-0.115817 0.381382,-0.116734 0.934438,-0.889453 0.0709,-0.09905 0.09697,-0.185765 0.149215,-0.496149 0.106896,-0.635149 0.240995,-1.112863 0.490593,-1.747831 0.203481,-0.517637 0.34701,-0.803959 0.577893,-1.152822 0.46037,-0.695623 0.836858,-1.012563 1.385247,-1.166157 0.205975,-0.0577 0.345844,-0.06371 2.407581,-0.103531 1.203891,-0.02326 2.8587,-0.05845 3.677352,-0.07818 1.694632,-0.04087 2.557232,-0.04664 2.687104,-0.01798 l 0.08962,0.01978 0.272275,-0.603818 c 0.318469,-0.706273 0.303031,-0.61642 0.336853,-1.9609448 0.01797,-0.7134162 0.02875,-0.8516645 0.07595,-0.9714923 0.05195,-0.131906 0.05498,-0.2460447 0.05424,-2.0429741 L 37.556851,3.9813845 37.266965,3.7697906 36.977074,3.5581979 h -0.423509 -0.42351 l -0.0081,-0.3867045 -0.0081,-0.3867068 -0.844008,-0.00776 c -0.979368,-0.00894 -0.843522,-0.053536 -1.187582,0.3893337 L 33.868507,3.4414418 H 20.303644 6.7387868 l -0.00177,-0.10945 C 6.7361493,3.2717943 6.7126718,3.1505956 6.6851092,3.0626531 L 6.6349741,2.9027596 6.3293779,2.8090563 C 6.0273854,2.7164593 6.016458,2.7153294 5.403591,2.7135758 L 4.7833992,2.7118105 V 3.0766285 3.441443 H 3.8107372 2.8380728 L 2.8027663,3.6330346 C 2.7833596,3.7384125 2.7351427,3.9269267 2.6956466,4.0519598 2.6561504,4.1769917 2.5904686,4.4289608 2.5496732,4.6118905 2.4451073,5.0808591 2.4265185,5.1290041 2.3308451,5.178479 2.179737,5.2566122 2.1073305,5.2344986 1.8991743,5.0466365 1.7537588,4.9153942 1.6831153,4.8713377 1.6171923,4.8707751 1.5688107,4.8703267 1.4232669,4.8460488 1.293757,4.8167444 L 1.0582841,4.763467 0.7611251,4.9222542 0.46396486,5.081045 V 5.4412426 5.8014412 L 1.0280383,6.506312 1.5921141,7.2111837 1.5113918,7.5079132 C 1.4669881,7.6711149 1.3385986,8.1395432 1.2260793,8.5488673 1.1135576,8.9581926 0.92231787,9.6724115 0.80110141,10.136023 l -0.22038873,0.842929 v 0.431549 0.431547 l 0.0948449,0.05842 c 0.0521712,0.03214 0.20648623,0.08668 0.34292802,0.121231 0.3267823,0.08274 1.0663676,0.333335 1.3461925,0.456138 0.6709884,0.294468 1.1316975,0.656336 1.4423378,1.132901 0.3374648,0.517716 0.3895242,0.889672 0.2183515,1.560086 -0.1287532,0.504279 -0.5905262,1.781417 -1.1239349,3.108492 -0.8447832,2.101747 -1.3270399,3.381446 -1.7663439,4.687099 -0.099917,0.296961 -0.31819814,0.881682 -0.48507406,1.299379 l -0.30340713,0.759449 0.00765,1.293754 0.00765,1.293749 0.14592507,0.05591 c 0.11003843,0.04216 0.33610914,0.07026 0.91933642,0.114287 0.4253768,0.0321 0.9704142,0.07773 1.2111923,0.101388 1.7447129,0.171414 5.219876,0.287458 6.5521035,0.218789 z m -7.6153642,-1.4296 c -0.3940658,-0.113015 -0.4302678,-0.759054 -0.052901,-0.944107 0.1657673,-0.08129 0.5371123,-0.07448 0.6921948,0.01267 0.1511468,0.08495 0.2342605,0.250378 0.2342605,0.466271 0,0.329152 -0.1894343,0.493778 -0.5681925,0.493778 -0.1130865,0 -0.2504957,-0.01287 -0.305362,-0.02861 z m 0.5427955,-0.309239 c 0.063305,-0.0633 0.072707,-0.09365 0.059515,-0.191969 -0.024667,-0.183864 -0.084641,-0.228999 -0.3043133,-0.228999 -0.1029065,0 -0.211122,0.01286 -0.2404817,0.02856 -0.080875,0.04327 -0.1249518,0.197235 -0.088289,0.308335 0.038025,0.115228 0.1314294,0.159246 0.3379121,0.159246 0.1335207,0 0.1731005,-0.01263 0.2356541,-0.07518 z M 1.7747674,25.287401 c -0.060809,-0.121775 -0.062705,-0.141999 -0.027881,-0.299149 0.050806,-0.2293 0.4633313,-1.486244 0.6875071,-2.09478 1.3280874,-3.60514 1.7094935,-4.575669 2.6150333,-6.654254 0.5007325,-1.149397 0.6472319,-1.512945 0.6431257,-1.595981 -0.00436,-0.08876 0.025668,-0.151811 0.1721719,-0.361222 0.4260735,-0.609002 0.6373556,-0.866461 1.0726558,-1.30711 0.5562048,-0.56304 0.9836259,-0.855712 1.5673685,-1.073238 0.1444669,-0.05383 0.3044981,-0.125775 0.3556255,-0.159868 0.1242397,-0.08284 0.5344677,-0.177474 0.9318018,-0.214943 0.659745,-0.06222 3.727607,-0.0305 3.86958,0.04 0.03694,0.01835 0.0709,0.05929 0.07545,0.09099 0.01365,0.09499 -1.377809,4.49104 -2.105993,6.653523 -0.637298,1.892577 -0.914765,2.663829 -1.243853,3.457414 -0.279325,0.673589 -0.372236,1.286299 -0.3984753,2.627726 -0.00989,0.505636 -0.029846,0.942321 -0.044333,0.970412 -0.024915,0.04827 -0.2481937,0.05108 -4.0654504,0.05108 H 1.8400066 Z m 7.9220759,-0.372845 c 0.010356,-0.132429 0.018878,-0.372112 0.01903,-0.532632 4.497e-4,-0.37082 0.046875,-1.013796 0.1040482,-1.438863 0.07565,-0.562347 0.1822035,-0.916652 0.5482865,-1.82309 0.183206,-0.453629 0.81698,-2.315769 1.417788,-4.165711 0.221561,-0.682208 0.615874,-1.890481 0.876255,-2.685051 0.441072,-1.345972 0.760215,-2.362092 0.760215,-2.42044 0,-0.06444 -2.559633,-0.137004 -3.283348,-0.09308 -0.5988271,0.03634 -1.0278169,0.121211 -1.1577447,0.229042 -0.02249,0.01866 -0.1389296,0.06906 -0.2587633,0.112004 -0.8771016,0.314272 -1.5270308,0.866522 -2.4189377,2.055403 -0.1617164,0.215566 -0.2919561,0.405613 -0.2894139,0.422324 0.00258,0.01671 -0.025103,0.09605 -0.061434,0.17631 -0.036331,0.08026 -0.194841,0.461128 -0.3522512,0.846374 -0.2732401,0.668746 -0.398099,0.966411 -1.3348403,3.182274 -0.6413533,1.51712 -2.3308516,6.247173 -2.2678179,6.349164 0.00989,0.016 1.5570638,0.02674 3.8483593,0.02674 h 3.8318228 z m 10.4906227,-8.865707 -3.612663,-0.117406 -0.149774,-0.08832 c -0.463269,-0.273148 -0.773862,-0.542972 -0.977339,-0.849041 -0.159579,-0.240044 -0.223168,-0.397878 -0.317867,-0.78897 -0.06087,-0.251359 -0.0666,-0.318778 -0.04371,-0.51391 0.05984,-0.510112 0.311723,-1.051321 0.780114,-1.676191 l 0.191703,-0.255746 h 0.871169 c 0.709798,0 0.871168,0.0073 0.871168,0.0392 0,0.02156 -0.02679,0.116782 -0.05952,0.211593 -0.09714,0.281359 -0.196509,0.708886 -0.23001,0.989573 -0.145961,1.222973 0.241904,2.102785 1.122871,2.547053 0.343592,0.173272 0.895677,0.298165 1.319071,0.298399 l 0.211595,1.16e-4 v -0.189703 c 0,-0.178565 -0.0039,-0.189706 -0.06721,-0.189706 -0.08704,0 -0.498915,-0.199478 -0.713689,-0.345656 -0.461475,-0.314088 -0.736735,-0.805743 -0.736735,-1.315911 0,-0.319199 0.04768,-0.644951 0.134849,-0.921334 0.07783,-0.246737 0.328306,-0.76657 0.49476,-1.02678 l 0.0993,-0.155224 h 2.582169 c 2.542894,0 2.584635,9.25e-4 2.744239,0.06063 0.308111,0.115275 0.421942,0.267963 0.483129,0.648039 0.04547,0.282442 0.0257,0.53204 -0.07332,0.925989 -0.192441,0.765601 -0.397419,1.306018 -0.846735,2.23239 -0.240261,0.495359 -0.310023,0.598298 -0.405463,0.598298 -0.03267,0 -1.68514,-0.05283 -3.672105,-0.117406 z M 6.5263137,10.824216 C 5.910181,10.787038 4.9237776,10.677622 4.1902038,10.565084 3.6140532,10.476699 3.5552538,10.454126 3.4617517,10.285413 3.364612,10.110125 3.3932337,9.4167798 3.5122635,9.0622207 3.5808051,8.8580412 3.7206139,8.6072572 3.7658957,8.6072572 c 0.012416,0 0.098211,0.019701 0.1906548,0.04378 0.092444,0.024079 0.2645664,0.04378 0.3825006,0.04378 0.2549525,0 0.4737572,0.04877 0.4737572,0.1056134 0,0.032835 0.099693,0.040308 0.5373688,0.040308 0.5847419,0 1.1121496,0.067023 2.8816628,0.3661903 0.8966026,0.151587 1.0385286,0.1909031 1.0646366,0.2949194 0.00989,0.039496 -0.015935,0.2516596 -0.057432,0.4714663 -0.041497,0.2198094 -0.082864,0.4476184 -0.091914,0.5062434 -0.014075,0.09115 -0.033318,0.113334 -0.1328064,0.153141 -0.1558038,0.06233 -0.5180821,0.123345 -0.961943,0.161982 -0.732204,0.06374 -0.9041099,0.06706 -1.5260577,0.02953 z M 7.7167424,10.54296 c 0.5007678,-0.04246 1.0538327,-0.105225 1.1076621,-0.125688 0.056549,-0.02151 0.071649,-0.06544 0.1165584,-0.339047 0.028374,-0.1728899 0.0666,-0.3385841 0.084947,-0.368211 C 9.0699726,9.6388715 9.0295586,9.61451 8.7674164,9.5543726 8.5208726,9.4977999 7.5751424,9.3561434 7.0144842,9.2918044 6.7907543,9.2661249 6.4763693,9.2198499 6.3158473,9.1889449 6.0590258,9.1395159 5.8885275,9.1327607 4.8954277,9.1326782 l -1.128567,-8.7e-5 -0.033341,0.1386296 c -0.018336,0.07625 -0.040685,0.2773969 -0.049664,0.4469996 -0.013334,0.2521136 -0.00753,0.3253226 0.031729,0.4012976 0.026433,0.05112 0.051983,0.09293 0.056797,0.09293 0.00483,0 0.1522189,0.02574 0.3275849,0.0572 0.5117682,0.09179 1.3037235,0.200955 1.8046879,0.248738 0.4140116,0.0395 1.4677385,0.05378 1.8120987,0.02458 z M 19.950621,10.2979 C 19.823595,10.262631 19.627265,10.097475 19.56175,9.9707818 19.477119,9.807115 19.504044,9.3718064 19.60954,9.198333 c 0.150978,-0.248262 0.637064,-0.3366035 0.964216,-0.1752366 0.247139,0.1218991 0.348838,0.3103085 0.352465,0.6529658 0.0035,0.3298898 -0.183891,0.5609028 -0.513869,0.6335128 -0.113322,0.02494 -0.351585,0.01891 -0.461736,-0.01165 z m 0.438469,-0.265133 c 0.177112,-0.039716 0.271342,-0.161532 0.271342,-0.350778 0,-0.2744041 -0.133214,-0.4357993 -0.391696,-0.4745611 -0.17387,-0.026067 -0.335395,0.0342 -0.41713,0.1556673 -0.09183,0.1364689 -0.09578,0.4543351 -0.0071,0.5671522 0.09646,0.1226226 0.291287,0.1593036 0.54452,0.1025176 z m 3.837596,-0.3594305 c -0.0072,-0.139138 0.0011,-0.1818212 0.04204,-0.2115938 0.07448,-0.054466 11.109677,-0.05416 11.217831,3.13e-4 0.06016,0.030292 0.07455,0.06135 0.08195,0.17695 0.0049,0.078439 -0.0062,0.1585189 -0.02553,0.1817846 -0.02968,0.035777 -0.822193,0.040556 -5.670943,0.034212 l -5.636429,-0.00741 z M 6.3888092,8.7303931 C 5.9452743,8.6958398 5.0010022,8.5739749 4.652284,8.5062807 4.5399153,8.4844613 4.2641366,8.4510497 4.0394276,8.4320195 3.8147209,8.4129893 3.6210026,8.3913229 3.608942,8.3838732 c -0.012063,-0.00741 -0.021926,0.01271 -0.021926,0.044828 0,0.032106 -0.011652,0.065564 -0.02588,0.074367 C 3.546907,8.5118882 3.526983,8.5631592 3.516873,8.6170728 3.48731,8.774696 3.441929,8.7823787 2.5405474,8.7823787 c -0.9285361,0 -0.9388256,-0.00223 -0.887703,-0.1927062 0.016795,-0.062563 0.096458,-0.3632743 0.1770584,-0.6682619 0.080593,-0.3049866 0.1744338,-0.62503 0.2085351,-0.7112061 l 0.06201,-0.1566911 -0.25751,-0.2665016 C 1.6145596,6.5506603 1.4843612,6.3967274 0.99682271,5.7866573 0.88264166,5.6437827 0.87278645,5.6178407 0.87278645,5.4603128 c 0,-0.2438947 0.0509237,-0.2844782 0.34543475,-0.2752821 0.1969535,0.00612 0.2362013,0.017147 0.3399105,0.095362 0.064493,0.048629 0.1829168,0.1274375 0.2631765,0.1751353 0.1439398,0.085548 0.1517519,0.086736 0.5734121,0.086995 l 0.4274905,2.248e-4 0.032894,-0.1889107 c 0.018089,-0.1038947 0.064952,-0.2995313 0.1041304,-0.4347373 0.039178,-0.1352049 0.098658,-0.414646 0.1321532,-0.6209804 0.033506,-0.206338 0.073072,-0.4047072 0.087936,-0.4408233 l 0.027021,-0.06567 H 4.1983756 5.190402 l 0.00823,-0.3575191 0.00823,-0.3575201 0.485133,0.00436 c 0.2987372,0.0027 0.5089871,0.017029 0.5472229,0.037508 0.057538,0.030787 0.062093,0.056703 0.062093,0.3532411 v 0.3200069 h 5.4810041 c 3.924898,0 5.490056,0.00907 5.512891,0.031893 0.02307,0.023056 0.04838,0.023056 0.09148,0 0.0427,-0.022831 2.42062,-0.031882 8.387418,-0.031882 h 8.327835 l 0.146824,-0.1678151 c 0.08076,-0.092291 0.197175,-0.2498991 0.258715,-0.3502246 l 0.111887,-0.1824073 h 0.532209 c 0.458949,0 0.537726,0.00659 0.572267,0.048158 0.02811,0.033741 0.04291,0.15983 0.0496,0.4213707 l 0.0095,0.3732127 0.520697,0.00907 c 0.286379,0.00506 0.5316,0.019995 0.544937,0.033318 0.01334,0.01331 0.03082,0.2037465 0.03882,0.4231867 l 0.01459,0.3989841 0.116747,0.00882 c 0.06515,0.00494 0.132861,0.029928 0.153222,0.056656 0.02755,0.036165 0.03648,0.2957291 0.03648,1.062245 v 1.014373 L 37.018297,7.1391927 C 36.82874,7.33705 36.82801,7.3384635 36.802651,7.5566114 c -0.02784,0.2394883 -0.133499,0.5545219 -0.185973,0.5545219 -0.01818,0 -0.296355,0.1300713 -0.618097,0.2890422 -0.321737,0.1589743 -0.637511,0.2987242 -0.70172,0.310559 -0.245749,0.045287 -4.826891,0.061162 -16.445927,0.056985 C 10.210299,8.7646592 6.692533,8.754079 6.388801,8.7304237 Z M 32.889082,8.4620724 35.238504,8.4444429 35.515762,8.335193 c 0.152494,-0.060092 0.421728,-0.1843388 0.598302,-0.276112 0.355881,-0.1849717 0.387345,-0.2220564 0.4149,-0.4890013 l 0.0164,-0.1588779 -9.248512,-0.00753 -9.248503,-0.00753 -0.34542,-0.1233244 C 17.512939,7.2049898 17.283104,7.1071556 17.192177,7.0554082 17.032785,6.9646941 16.661464,6.6235781 16.566046,6.4801989 c -0.04565,-0.068593 -0.04796,-0.068898 -0.165445,-0.021902 -0.107308,0.042939 -0.394495,0.047676 -2.890577,0.047676 -2.496901,0 -2.783234,-0.00475 -2.890663,-0.047709 -0.06883,-0.027538 -0.129869,-0.036796 -0.144388,-0.021902 -0.01383,0.014191 -0.0533,0.1374545 -0.08773,0.2738961 -0.03441,0.1364414 -0.126467,0.4450763 -0.204563,0.6858545 -0.135633,0.4181766 -0.3208288,1.0398172 -0.3208288,1.076916 0,0.022172 19.8732068,0.012757 23.0272218,-0.010945 z M 9.4824544,8.4483769 c 0,-0.052382 0.1621342,-0.6264764 0.5129673,-1.8163138 0.1191653,-0.4041512 0.2166653,-0.7821579 0.2166653,-0.8400156 0,-0.1545199 0.06254,-0.2779607 0.208995,-0.4125195 0.253047,-0.2324847 0.05415,-0.2190399 3.103539,-0.2097838 l 2.714234,0.00823 0.357521,-0.5413409 c 0.196636,-0.2977357 0.357521,-0.5505546 0.357521,-0.5618185 0,-0.011298 -2.447974,-0.020466 -5.43994,-0.020466 -4.9335927,0 -5.4415888,-0.00436 -5.4576569,-0.046169 -0.00977,-0.025394 -0.017711,-0.181202 -0.017711,-0.3462515 V 3.3618399 L 5.9031808,3.3432805 C 5.8287078,3.3330416 5.6973749,3.3247211 5.6113272,3.3247211 H 5.4548843 v 0.3297951 c 0,0.2175913 -0.011922,0.3417087 -0.035024,0.3648157 -0.025856,0.025856 -0.2927681,0.035024 -1.0197643,0.035024 -0.541608,0 -0.9918841,0.011533 -1.0006107,0.02568 -0.0087,0.014123 -0.035095,0.1618742 -0.058585,0.3283335 -0.045498,0.3223455 -0.096045,0.5567885 -0.1911091,0.8862719 -0.032411,0.1123098 -0.058914,0.2389069 -0.058914,0.2813217 0,0.042415 -0.022984,0.104613 -0.051076,0.1382236 -0.047311,0.056596 -0.090903,0.062468 -0.5910047,0.079568 L 1.9088695,5.8122203 1.7337565,5.719588 C 1.6374523,5.6686408 1.5101655,5.5883174 1.4509095,5.5411033 1.2412799,5.3740638 1.0228894,5.4576506 1.2119107,5.6325823 c 0.04205,0.038919 0.1098973,0.1232878 0.1507716,0.1874937 0.1522048,0.2391 0.9012229,1.0652657 0.9657913,1.0652657 0.058926,0 0.053195,0.1946726 -0.010356,0.3502247 -0.022937,0.056184 -0.07492,0.2269145 -0.1155108,0.3794077 -0.040603,0.1524933 -0.1015767,0.3494938 -0.1355121,0.4377812 -0.033942,0.088289 -0.071614,0.2229025 -0.083735,0.299148 l -0.022032,0.1386296 h 0.6509415 0.6509439 l 0.040343,-0.094856 c 0.022196,-0.052171 0.054501,-0.1375351 0.071802,-0.1897039 l 0.031459,-0.094856 h -0.400224 c -0.4093253,0 -0.4702666,-0.015288 -0.4702666,-0.1180506 0,-0.026409 0.091315,-0.3241367 0.2029073,-0.6616299 C 2.8508373,6.9939432 2.983074,6.5556793 3.0331021,6.3575178 3.1357968,5.9507664 3.2746205,5.627111 3.4000573,5.5020402 3.4466971,5.4555416 3.541083,5.3923549 3.6098152,5.3616324 c 0.15655,-0.069977 0.497129,-0.1020474 0.5848926,-0.055078 0.038966,0.020843 0.063552,0.022749 0.063552,0.00494 0,-0.019124 0.8548186,-0.029257 2.4909676,-0.029539 l 2.4909675,-4.484e-4 0.033576,0.073708 c 0.026233,0.057573 0.024797,0.09095 -0.00659,0.1525498 C 9.1568119,5.724462 8.6281909,7.4606796 8.5471143,7.8727788 8.5237063,7.991778 8.4930952,8.0647376 8.4589191,8.083031 8.4266961,8.100261 7.5008575,8.110876 6.0507723,8.110605 4.755081,8.1103815 3.6881896,8.116955 3.6798925,8.125246 c -0.00823,0.00835 0.0495,0.015711 0.1284143,0.0165 0.078922,6.544e-4 0.2682631,0.020172 0.4207552,0.043109 0.1524932,0.022925 0.4085956,0.061481 0.569114,0.085677 1.2042476,0.1814822 1.4341785,0.1972395 3.1009394,0.2125072 1.4701958,0.013463 1.5833047,0.010945 1.5833047,-0.034612 z M 4.8138298,4.5816012 c -0.043309,-0.080922 -0.037283,-0.1831393 0.015217,-0.2580937 0.045228,-0.064564 0.049358,-0.064858 0.9120408,-0.064411 0.4766324,2.248e-4 0.8818197,0.010121 0.900411,0.021949 0.051866,0.033011 0.078416,0.2252845 0.040802,0.2955632 -0.032353,0.060433 -0.047699,0.061445 -0.9355773,0.061445 -0.8625943,0 -0.9040299,-0.00247 -0.9329011,-0.056455 z m 3.4708169,3.1573939 c 0.060727,-0.2198874 0.6347522,-2.0955843 0.656794,-2.1461455 0.021113,-0.048452 8.708e-4,-0.051512 -0.2901908,-0.04378 l -0.3128998,0.00835 -0.066211,0.2480748 C 8.235726,5.9419421 8.1325865,6.3293778 8.0429493,6.666469 7.953318,7.0035606 7.8465301,7.390025 7.8056535,7.5252828 c -0.040873,0.1352579 -0.07432,0.2633073 -0.07432,0.2845571 0,0.029187 0.063987,0.038636 0.2615431,0.038636 h 0.261543 z M 7.4347734,7.4179559 C 7.5001491,7.1811897 7.619306,6.7379381 7.6995576,6.4329508 7.7798092,6.1279635 7.8656156,5.8127617 7.8902371,5.7325031 7.9148575,5.6522397 7.9351351,5.5767264 7.9353117,5.5646869 7.9355365,5.5526473 7.8075765,5.5429616 7.6510712,5.5431617 L 7.3665143,5.5436101 7.301468,5.7986026 C 7.1471906,6.4033815 6.7932517,7.6874147 6.7464812,7.8120089 c -0.010356,0.027668 0.056773,0.036483 0.2778558,0.036483 H 7.315893 L 7.4347687,7.4180101 Z M 6.3402358,7.8265492 c 0.01437,-0.023738 0.1841008,-0.6363058 0.4390593,-1.5845151 0.088654,-0.3297329 0.1699875,-0.6224104 0.1807242,-0.6503966 0.017936,-0.046746 -0.006,-0.050206 -0.2938061,-0.042568 l -0.3133365,0.00835 -0.052406,0.2042983 c -0.039461,0.1538479 -0.4838125,1.6609597 -0.600185,2.0356764 -0.01444,0.046511 0.012852,0.051076 0.305422,0.051076 0.1767052,0 0.327239,-0.00989 0.3345239,-0.021902 z M 5.3656425,7.3158061 C 5.4884607,6.8902952 5.8483205,5.7509224 5.914107,5.579279 5.924699,5.551658 5.860006,5.542796 5.6477069,5.542796 c -0.2553703,0 -0.2803826,0.00494 -0.2803826,0.055102 0,0.030305 -0.1383648,0.5195226 -0.3074803,1.0871538 -0.169112,0.5676322 -0.3150041,1.0616059 -0.3242015,1.0977244 -0.016358,0.064234 -0.011298,0.06567 0.2297697,0.06567 h 0.2464931 z m -0.9319525,0 C 4.5193317,7.0228579 4.6704079,6.5040904 4.7694096,6.1629864 L 4.9494148,5.5427969 4.6987014,5.5432464 4.4479879,5.5436936 4.2615475,6.1313777 C 4.0280472,6.8674131 3.7621308,7.7617466 3.7621308,7.8110308 c 0,0.027492 0.067941,0.037319 0.257923,0.037319 H 4.2779756 L 4.43369,7.3157167 Z M 3.3103012,7.8119559 C 3.3592129,7.6778149 3.966428,5.6303027 3.966428,5.5995096 c 0,-0.032306 -0.2450985,0.041803 -0.3366658,0.1018002 C 3.5110278,5.7791018 3.3632303,6.1200996 3.2810193,6.5059106 3.258788,6.6102471 3.1629863,6.9188816 3.0681237,7.1917652 2.973267,7.4646475 2.8867898,7.724031 2.8759625,7.7681759 l -0.019678,0.080263 h 0.2203594 c 0.1497393,0 0.2246266,-0.011651 0.2336663,-0.036483 z M 36.823849,6.9268268 36.945841,6.8224021 V 5.9491187 5.0758338 h -6.756398 -6.756405 v 0.4251049 c 0,0.2367532 -0.01334,0.4500772 -0.03016,0.4814611 -0.01661,0.030999 -0.144635,0.1338149 -0.284555,0.2284857 -0.139918,0.094671 -0.270972,0.199852 -0.291225,0.2337355 l -0.03681,0.061606 -2.604447,-0.00745 -2.604446,-0.00746 -0.0089,-0.1386313 -0.0089,-0.1386298 H 17.226038 16.88854 l 0.08092,0.1094442 c 0.1967,0.2660527 0.400785,0.4342106 0.629708,0.5188533 0.07045,0.026057 0.154056,0.061481 0.185797,0.078745 0.205536,0.1117567 0.0027,0.10945 9.633856,0.1098031 l 9.282977,4.483e-4 z M 22.755399,6.1110647 c 0.100836,-0.071637 0.235452,-0.1568288 0.299155,-0.1893285 l 0.115817,-0.059092 V 5.3798541 4.8970655 L 22.972907,4.6727047 C 22.864305,4.5493052 22.737979,4.3990928 22.692181,4.3388976 l -0.08325,-0.10945 h -2.38891 -2.388907 l -0.0081,0.8974475 c -0.0045,0.4935971 -0.0034,0.9467001 0.0022,1.006894 l 0.01036,0.1094453 2.368242,-8.712e-4 2.368242,-8.713e-4 0.183357,-0.1302415 z m -6.453444,0.1030372 c 0.03471,-0.013989 0.07171,-0.052561 0.08223,-0.085708 0.01048,-0.033141 0.03137,-0.060256 0.04635,-0.060256 0.01497,0 0.02722,-0.021007 0.02722,-0.046663 0,-0.025668 0.02065,-0.09016 0.04588,-0.1433277 0.04179,-0.088066 0.04172,-0.1046837 -6.53e-4,-0.1868193 -0.02564,-0.049582 -0.05751,-0.090149 -0.07079,-0.090149 -0.01328,0 -0.06221,-0.036118 -0.108698,-0.080263 l -0.08453,-0.080263 -2.70695,-0.00789 c -2.683669,-0.00776 -2.707963,-0.00741 -2.824825,0.052253 -0.156756,0.079969 -0.232079,0.2082963 -0.232217,0.3956217 0,0.1616894 0.04456,0.2244407 0.224628,0.315416 0.08412,0.042502 0.364027,0.047005 2.816382,0.04534 1.49764,-0.00114 2.751378,-0.013293 2.786082,-0.027293 z m 1.264832,-1.2678807 c 0,-0.472585 -0.01142,-0.866312 -0.02542,-0.8749514 -0.01399,-0.00859 -0.214839,0.249972 -0.446362,0.5746889 C 16.515808,5.4583 16.565144,5.354951 16.6829,5.5092225 c 0.05449,0.071378 0.106555,0.1672349 0.115711,0.213012 l 0.01665,0.083229 h 0.375762 0.37576 z M 36.624807,4.4629418 V 4.2294591 h -0.523251 c -0.43677,0 -0.530832,-0.00753 -0.569114,-0.045863 -0.03714,-0.037142 -0.04585,-0.1204045 -0.04585,-0.4377812 V 3.3538993 h -0.363793 c -0.345321,0 -0.365535,0.0033 -0.39827,0.064434 -0.0446,0.0833 -0.302764,0.4189464 -0.416265,0.5411667 l -0.08809,0.094845 h -5.688771 -5.688768 l 0.05147,0.080263 c 0.02832,0.044145 0.142886,0.1886094 0.254592,0.3210392 l 0.203094,0.2407782 h 6.636502 6.636508 z"
   id="path1316" /></svg>
