<?xml version="1.0" encoding="UTF-8" standalone="no"?>
<!-- Generator: Adobe Illustrator 16.0.0, SVG Export Plug-In . SVG Version: 6.00 Build 0)  -->

<svg
   version="1.1"
   x="0px"
   y="0px"
   width="97.875px"
   height="32px"
   viewBox="0 0 97.875 32"
   enable-background="new 0 0 97.875 32"
   xml:space="preserve"
   id="svg1468"
   sodipodi:docname="xm1014.svg"
   inkscape:version="1.1.1 (3bf5ae0d25, 2021-09-20)"
   xmlns:inkscape="http://www.inkscape.org/namespaces/inkscape"
   xmlns:sodipodi="http://sodipodi.sourceforge.net/DTD/sodipodi-0.dtd"
   xmlns="http://www.w3.org/2000/svg"
   xmlns:svg="http://www.w3.org/2000/svg"><defs
   id="defs1472" /><sodipodi:namedview
   id="namedview1470"
   pagecolor="#505050"
   bordercolor="#eeeeee"
   borderopacity="1"
   inkscape:pageshadow="0"
   inkscape:pageopacity="0"
   inkscape:pagecheckerboard="0"
   showgrid="false"
   inkscape:zoom="8.0554183"
   inkscape:cx="54.683691"
   inkscape:cy="16.758906"
   inkscape:window-width="1440"
   inkscape:window-height="848"
   inkscape:window-x="1358"
   inkscape:window-y="-8"
   inkscape:window-maximized="1"
   inkscape:current-layer="svg1468" />

<g
   id="guides">
</g>
<path
   style="fill:#ffffff;stroke-width:0.0536833"
   d="m 21.359425,26.636951 c 0.148174,-0.06536 0.194161,-0.117225 0.194161,-0.219039 0,-0.287226 -0.285452,-0.797807 -0.446036,-0.797807 -0.116452,0 -0.118135,-0.07875 -0.01427,-0.6588 0.09605,-0.535887 0.119275,-0.59406 0.383646,-0.961971 0.460956,-0.641475 0.770998,-1.236253 1.940306,-3.722359 l 1.113081,-2.366546 0.36242,-0.06416 c 0.503292,-0.08908 1.570898,-0.170993 3.183932,-0.244266 1.15821,-0.05261 1.406433,-0.07897 1.593377,-0.169199 0.122129,-0.05895 0.336346,-0.106873 0.477817,-0.106873 0.141043,0 0.355916,-0.04129 0.477502,-0.09178 0.342879,-0.142339 1.007312,-0.638636 1.463598,-1.093236 0.597055,-0.594856 0.876145,-0.749126 1.478627,-0.817347 0.713789,-0.08083 1.873397,-0.06932 2.543958,0.02525 0.321796,0.04538 0.946185,0.170439 1.387536,0.277914 0.478008,0.116398 0.94141,0.195573 1.146124,0.195818 0.464257,6.14e-4 1.168997,-0.224244 1.622315,-0.517501 l 0.361058,-0.233569 1.217969,0.0076 c 0.669884,0.0042 1.485889,0.0384 1.813346,0.07593 0.327454,0.03752 0.946013,0.08416 1.374574,0.103632 0.909201,0.04131 0.887,0.03093 1.401882,0.655418 0.526084,0.638081 0.69853,0.79888 0.857075,0.799183 l 0.138955,2.79e-4 0.01634,-1.683882 c 0.01572,-1.617624 0.02102,-1.694753 0.134824,-1.960177 0.150599,-0.351242 0.208873,-0.419363 0.69846,-0.816487 l 0.402756,-0.326701 h 9.670349 c 8.73936,0 9.697424,0.0085 9.951549,0.08964 0.468008,0.149191 0.6747,0.294436 1.121775,0.788304 l 0.427824,0.472598 v 1.607016 c 0,0.88386 0.01745,1.607005 0.03883,1.60699 0.02137,-1.5e-5 0.166962,-0.05226 0.323571,-0.116092 0.569191,-0.232003 1.072212,-0.561831 1.604917,-1.052336 l 0.543599,-0.500542 11.85922,-6.12e-4 c 10.462399,-3.08e-4 11.89045,-0.01048 12.124374,-0.08515 0.357838,-0.114261 0.599332,-0.419191 0.743124,-0.93834 0.0944,-0.34082 0.100312,-0.428072 0.04829,-0.712331 -0.117361,-0.641421 -0.314442,-0.958913 -0.746846,-1.20311 -0.242792,-0.137121 -0.315043,-0.149747 -0.860422,-0.150343 -0.32746,-3.05e-4 -0.658513,0.01837 -0.735674,0.0416 -0.111842,0.03367 -0.151589,0.01957 -0.195965,-0.06959 -0.05464,-0.109796 -0.04076,-0.11184 0.761559,-0.112253 0.924378,-6.14e-4 1.387914,-0.06345 1.716589,-0.23318 0.342336,-0.176794 0.411472,-0.39368 0.430933,-1.351835 L 97.528158,9.2309122 97.10131,9.1132654 C 96.757889,9.0186185 96.616611,8.9452316 96.378567,8.7378422 95.785569,8.221228 93.998074,7.1542363 93.31645,6.9100149 92.885088,6.7554557 92.475811,6.7824394 92.301752,6.976914 c -0.153698,0.1717275 -0.339036,0.715243 -0.339036,0.994255 0,0.1947726 -0.03329,0.2484457 -0.344,0.5545671 L 91.274711,8.8646612 H 69.337392 c -20.314849,0 -21.942546,-0.0068 -22.008346,-0.091765 -0.0399,-0.051529 -0.0824,-0.2772613 -0.09693,-0.5149036 L 47.20623,7.8348519 46.856772,7.8183801 C 46.507657,7.8019384 46.507314,7.801755 46.507314,7.6374689 V 7.4730145 h -0.3624 -0.3624 v 0.1669973 c 0,0.1653104 -0.0029,0.1669944 -0.284744,0.1669944 -0.281863,0 -0.284742,-0.00154 -0.284742,-0.1669944 V 7.4730145 h -0.336517 -0.336514 v 0.1669973 0.1669944 h -0.3624 -0.362401 V 7.5286811 7.2503531 h -0.3624 -0.3624 v 0.278328 0.278325 h -0.362401 -0.3624 v -0.278325 -0.278328 h -0.336516 -0.336513 v 0.278328 0.278325 h -0.388287 -0.388287 v -0.278325 -0.278328 h -0.336514 -0.336514 v 0.278328 0.278325 h -0.284745 -0.284744 v -0.278325 -0.278328 h -0.336514 -0.336515 v 0.278328 0.278325 H 38.56039 38.12033 v -0.278325 -0.278328 h -0.388284 -0.388287 v 0.278328 0.278325 H 37.110788 36.877816 V 7.5286811 7.2503531 H 36.48953 36.101243 v 0.278328 0.278325 h -0.440057 -0.440059 v -0.278325 -0.278328 h -0.362401 -0.3624 v 0.278328 0.278325 h -0.258858 -0.258856 v -0.278325 -0.278328 h -0.3624 -0.362401 V 7.5269142 7.8034756 L 32.645496,7.8191506 32.03718,7.8348256 32.0218,8.214144 C 32.00873,8.5364122 31.99316,8.5907448 31.918256,8.5753956 31.847616,8.5609166 31.827066,8.4834206 31.81486,8.1852338 L 31.799597,7.8131414 31.504215,7.6919705 C 31.25124,7.588198 31.04903,7.5643551 30.095765,7.5259179 28.852569,7.4757879 28.590168,7.42282 28.436658,7.1910181 28.273592,6.9447963 27.837655,6.7439171 27.448532,6.7356774 c -0.486261,-0.01031 -0.731631,0.1408882 -1.455645,0.8968228 -0.584539,0.6103291 -0.608331,0.6442452 -0.608331,0.8668604 0,0.2706408 -0.06929,0.3652758 -0.267423,0.3652758 -0.174592,0 -0.470257,-0.265629 -0.562659,-0.5055042 L 24.488206,8.1871041 24.146868,8.221001 C 23.789981,8.2564416 6.820834,9.5327952 6.7079774,9.5326839 c -0.035608,-3.35e-5 -0.064699,0.047898 -0.064699,0.1065165 0,0.1199284 -0.359054,0.3604321 -0.6657873,0.4459786 -0.1036428,0.0289 -0.9223128,0.131938 -1.8192636,0.228959 -0.8969218,0.09701 -1.6411622,0.187036 -1.6538568,0.200033 -0.028247,0.02895 0.2432583,11.214036 0.2730134,11.246008 0.04365,0.04694 2.2408504,-0.776328 2.6223563,-0.98256 0.3805647,-0.205741 0.4040143,-0.22986 0.5646558,-0.58069 0.2505052,-0.547152 0.8310797,-1.467698 1.1811476,-1.872789 0.1702266,-0.197002 0.431601,-0.539794 0.5808024,-0.761762 0.181753,-0.27038 0.3056214,-0.403572 0.3753438,-0.403572 0.1263798,0 3.388079,-0.623888 5.250903,-1.004371 0.743014,-0.151766 1.377877,-0.27594 1.410771,-0.27594 0.03779,0 0.0598,0.10997 0.0598,0.29893 v 0.298925 l 0.23393,0.07042 c 0.170342,0.05128 0.317803,0.05588 0.542689,0.01696 0.363477,-0.06295 1.382641,0.03234 1.817608,0.169928 0.214046,0.0677 0.307533,0.133621 0.401104,0.28275 0.136936,0.21827 0.260633,0.558972 0.263913,0.726902 0.0028,0.123156 -2.1986,3.106963 -3.404253,4.615004 l -0.752342,0.94108 v 0.329721 c 0,0.319788 0.0068,0.336292 0.228652,0.548057 0.470571,0.449345 1.172048,0.795664 3.54353,1.749406 1.127999,0.453646 1.373739,0.532718 1.897685,0.610628 0.331039,0.04923 0.679681,0.11348 0.774736,0.142792 0.252446,0.07785 0.765323,0.05546 0.988897,-0.04316 z m 4.431977,-10.355618 c -0.258208,-0.17266 -0.369781,-0.448202 -0.3671,-0.906776 0.0045,-0.795492 0.301256,-1.020204 1.304616,-0.988293 l 0.541777,0.01724 0.157903,0.723651 c 0.171311,0.785179 0.200866,0.825775 0.509197,0.699726 0.101788,-0.04161 0.138988,-0.0957 0.138988,-0.202 0,-0.120914 -0.137248,-0.782379 -0.239007,-1.151796 -0.02511,-0.09083 0.05565,-0.09742 1.194955,-0.09742 1.307212,0 1.448112,0.0241 1.665069,0.285069 0.164235,0.1975 0.243429,0.523479 0.210537,0.866376 -0.03854,0.401382 -0.170512,0.630868 -0.451257,0.784661 -0.231648,0.126901 -0.233046,0.126967 -2.354393,0.11133 -2.103317,-0.01549 -2.12437,-0.01677 -2.311285,-0.141772 z M 72.72971,11.870718 v -0.139164 l 9.807978,-0.01405 c 5.778094,-0.0083 9.827164,0.0066 9.854668,0.03616 0.02568,0.02761 0.03114,0.102896 0.01212,0.167286 l -0.03456,0.117078 -9.820114,-0.01405 -9.820112,-0.01405 z M 1.4662366,22.169263 c 0.042706,-0.02944 0.2434589,-0.09347 0.4460936,-0.142246 l 0.3684111,-0.0887 -0.023681,-0.872798 c -0.013125,-0.480043 -0.075028,-3.019789 -0.137676,-5.643882 -0.062674,-2.624096 -0.1282342,-4.78647 -0.1457504,-4.80528 -0.035008,-0.03764 -1.7245495,0.144843 -1.79578413,0.193967 -0.0245341,0.01681 0.0332385,2.485434 0.12806268,5.485806 0.0948558,3.000371 0.17342153,5.496106 0.1745915,5.546077 0.002814,0.06461 0.12771963,0.132943 0.43685003,0.236578 0.49984022,0.167562 0.44925962,0.159224 0.54896592,0.09048 z m 62.3717184,-5.385072 0.220028,-0.02131 V 14.595126 12.42737 h -0.647145 -0.647142 v 2.198788 2.198788 l 0.427114,-0.0097 c 0.234914,-0.0054 0.526129,-0.01932 0.647145,-0.03104 z M 62.401296,14.626162 V 12.427374 H 61.780037 61.15878 v 2.198788 2.198787 h 0.621257 0.621259 z m -1.604917,0 v -2.198788 h -0.647145 -0.647141 v 2.198788 2.198787 h 0.647141 0.647145 z m -1.656688,0.0018 v -2.200554 h -0.621859 -0.621858 l 0.01355,2.184872 0.01355,2.184874 0.608315,0.01567 0.608315,0.01567 z m -1.65669,0 v -2.200564 h -0.621857 -0.621857 l 0.01355,2.184872 0.01355,2.184874 0.608316,0.01567 0.608316,0.01567 z m -1.589172,2.161539 c 0.01982,-0.02131 0.03602,-1.011488 0.03602,-2.20041 v -2.161689 h -0.67363 -0.673631 l 0.01355,2.18487 0.01355,2.184872 0.62406,0.01555 c 0.343233,0.0085 0.640273,-0.0018 0.660085,-0.02319 z m -1.655176,-0.0015 c 0.019,-0.02039 0.03452,-1.009861 0.03452,-2.198785 V 12.427539 H 53.65191 53.030651 v 2.198787 2.198789 h 0.586743 c 0.322712,0 0.602278,-0.01669 0.621258,-0.0371 z m -1.656687,0 c 0.01897,-0.02039 0.03452,-1.009861 0.03452,-2.198785 v -2.161678 h -0.621259 -0.621258 v 2.198787 2.198789 h 0.586742 c 0.322712,0 0.602279,-0.01669 0.621259,-0.0371 z M 51.011565,14.626294 V 12.427507 H 50.36442 49.717276 v 2.198787 2.198787 h 0.647144 0.647145 z m -1.65669,0 v -2.198787 h -0.288676 c -0.262369,0 -0.316008,0.02259 -0.588668,0.2482 -0.196836,0.162856 -0.342351,0.339912 -0.423182,0.514909 -0.120269,0.260383 -0.123577,0.306591 -0.139548,1.950585 l -0.01637,1.68388 h 0.728219 0.728215 z m 19.867315,2.047184 0.168259,-0.02245 V 15.073585 13.496143 L 69.000057,13.10414 c -0.401761,-0.403422 -0.694276,-0.566674 -1.14981,-0.641709 l -0.220031,-0.03624 v 2.14378 2.143781 l 0.711861,-0.0088 c 0.391522,-0.0048 0.787574,-0.01902 0.880113,-0.03135 z M 67.319589,14.570642 V 12.42752 h -0.62126 -0.621258 v 2.143122 2.143124 h 0.621258 0.62126 z m -1.656688,0 V 12.42752 h -0.621259 -0.621259 v 2.143122 2.143124 h 0.621259 0.621259 z"
   id="path1486" /></svg>
